P2
# CREATOR: GIMP PNM Filter Version 1.1
128 32
255
0
0
0
0
0
0
0
0
0
0
0
0
0
0
0
0
0
0
0
0
0
0
0
0
0
0
0
0
0
0
0
0
0
0
0
0
0
0
0
0
0
0
0
0
0
0
0
0
19
19
19
19
19
19
19
20
42
68
69
52
23
19
19
19
19
19
19
24
50
71
68
68
69
46
21
19
19
27
102
137
113
33
19
19
19
19
35
48
28
19
23
86
127
140
121
50
1
0
0
0
0
34
212
232
47
0
145
195
68
103
206
175
28
112
255
176
22
0
0
0
0
0
0
0
0
2
165
186
0
0
0
0
0
0
0
0
0
0
0
0
0
0
0
0
0
0
0
0
0
0
0
0
0
0
0
0
0
0
0
0
0
0
0
0
0
0
0
0
0
0
0
0
0
0
0
0
19
19
19
19
19
19
19
24
55
69
67
39
19
19
19
19
19
19
19
19
26
56
64
69
68
61
31
19
19
25
102
137
93
21
19
19
19
100
214
230
190
150
78
29
39
120
131
103
17
0
0
0
0
23
200
246
65
1
186
113
0
0
34
174
165
73
188
252
166
56
0
0
0
0
0
0
0
0
62
222
0
0
0
0
0
0
0
0
0
0
0
0
0
0
0
0
0
0
0
0
0
0
0
0
0
0
0
0
0
0
0
0
0
0
0
0
0
0
0
0
0
0
0
0
0
0
0
0
19
19
19
19
19
19
19
31
63
68
65
30
19
19
19
19
19
19
19
19
19
20
28
66
70
67
54
40
21
23
92
139
105
30
19
19
68
241
237
173
190
224
233
124
38
76
126
129
63
1
0
0
0
10
153
255
130
10
186
97
0
3
0
21
167
163
103
232
252
169
24
0
0
0
0
0
0
0
23
205
0
0
0
0
0
0
0
0
0
0
0
0
0
0
0
0
0
0
0
0
0
0
0
0
0
0
0
0
0
0
0
0
0
0
0
0
0
0
0
0
0
0
0
0
0
0
0
0
19
19
19
19
19
19
19
39
69
68
59
24
19
19
19
19
19
19
19
19
19
19
19
44
67
68
68
68
44
23
87
138
133
56
19
19
144
238
81
21
27
60
169
231
187
62
93
127
111
34
8
6
0
0
57
241
169
6
175
126
0
0
0
0
60
204
128
158
255
240
104
3
0
0
0
0
0
0
9
144
0
0
0
0
0
0
0
0
0
0
0
0
0
0
0
0
0
0
0
0
0
0
0
0
0
0
0
0
0
0
0
0
0
0
0
0
0
0
0
0
0
0
0
0
0
0
0
0
19
19
19
19
19
19
20
44
68
67
46
20
19
19
19
19
19
19
19
19
20
21
20
22
25
47
73
68
65
29
78
139
130
41
19
34
215
178
19
19
19
19
38
144
245
171
86
117
130
102
53
19
3
0
38
225
221
39
111
162
5
0
0
1
16
120
211
112
208
253
168
8
0
0
0
0
0
0
0
36
0
0
0
0
0
0
0
0
0
0
0
0
0
0
0
0
0
0
0
0
0
0
0
0
0
0
0
0
0
0
0
0
0
0
0
0
0
0
0
0
0
0
0
0
0
0
0
0
19
19
19
19
19
19
19
40
66
67
42
19
19
19
19
19
19
19
19
19
19
21
28
22
19
23
62
68
69
53
76
140
139
52
21
58
239
135
19
19
19
20
19
26
122
251
144
88
126
127
104
46
11
1
11
155
255
139
62
178
47
0
0
0
5
25
189
149
128
255
183
16
0
0
0
0
0
0
0
0
0
0
0
0
0
0
0
0
0
0
0
0
0
0
0
0
0
0
0
0
0
0
0
0
0
0
0
0
0
0
0
0
0
0
0
0
0
0
0
0
0
0
0
0
0
0
0
0
19
19
19
19
19
19
19
40
66
69
58
24
19
19
19
19
19
19
19
19
19
19
20
28
21
19
42
68
67
67
53
116
140
97
27
47
233
148
19
19
19
19
19
19
31
180
237
113
115
127
131
93
30
8
0
47
221
235
80
139
146
7
0
0
0
0
80
198
99
197
247
90
0
0
0
0
0
0
0
0
0
0
0
0
0
0
0
0
0
0
0
0
0
0
0
0
0
0
0
0
0
0
0
0
0
0
0
0
0
0
0
0
0
0
0
0
0
0
0
0
0
0
0
0
0
0
0
0
19
19
19
19
19
19
19
34
66
68
65
32
19
19
19
19
19
19
19
19
19
19
19
21
22
21
30
53
68
70
57
82
142
104
25
41
235
177
27
19
19
19
19
19
31
104
234
227
135
120
127
121
65
17
1
0
131
255
162
108
222
73
2
0
0
0
6
162
114
96
253
199
40
0
0
0
0
0
0
0
0
0
0
0
0
0
0
0
0
0
0
0
0
0
0
0
0
0
0
0
0
0
0
0
0
0
0
0
0
0
0
0
0
0
0
0
0
0
0
0
0
0
0
0
0
0
0
0
19
19
19
19
19
19
19
29
66
69
59
21
19
20
20
19
19
19
19
19
19
19
19
19
19
21
24
38
64
68
69
89
146
133
42
22
182
219
39
19
19
19
19
19
23
62
156
255
187
119
121
128
77
7
0
0
120
251
237
121
177
187
29
0
0
0
0
113
159
25
177
252
85
0
0
0
0
0
0
0
0
0
0
0
0
0
0
0
0
0
0
0
0
0
0
0
0
0
0
0
0
0
0
0
0
0
0
0
0
0
0
0
0
0
0
0
0
0
0
0
0
0
0
0
0
0
0
0
19
19
19
19
19
19
19
32
67
68
71
26
19
19
21
19
19
19
19
19
19
19
19
19
19
19
19
22
47
70
69
93
152
149
103
26
114
246
77
19
19
19
19
19
19
33
83
215
229
105
114
127
75
4
0
0
71
223
255
194
86
182
104
0
0
0
0
76
211
26
105
251
103
0
0
0
0
0
0
0
0
0
0
0
0
0
0
0
0
0
0
0
0
0
0
0
0
0
0
0
0
0
0
0
0
0
0
0
0
0
0
0
0
0
0
0
0
0
0
0
0
0
0
0
0
0
0
0
19
19
19
19
19
19
19
22
52
68
73
54
19
19
20
19
19
19
19
19
19
19
19
19
19
19
19
19
27
60
68
74
132
159
141
56
68
244
174
31
19
19
19
19
19
19
26
129
248
124
99
126
109
29
0
0
8
136
251
254
128
85
174
75
0
0
0
53
207
36
90
254
191
31
0
0
0
0
0
0
0
0
0
0
0
0
0
0
0
0
0
0
0
0
0
0
0
0
0
0
0
0
0
0
0
0
0
0
0
0
0
0
0
0
0
0
0
0
0
0
0
0
0
0
0
0
0
0
19
19
19
19
19
19
19
19
31
61
68
56
19
19
19
19
19
19
19
19
19
19
19
19
19
19
19
19
20
42
68
68
86
150
153
112
37
138
246
97
22
19
19
19
19
19
0
32
188
221
88
117
129
82
7
0
0
38
148
239
229
63
87
213
106
22
0
90
205
18
39
220
235
61
0
0
0
0
0
0
0
0
0
0
0
0
0
0
0
0
0
0
0
0
0
0
0
0
0
0
0
0
0
0
0
0
0
0
0
0
0
0
0
0
0
0
0
0
0
0
0
0
0
0
0
0
0
0
19
19
19
19
19
19
19
19
23
57
68
61
27
19
19
19
19
19
19
19
19
19
19
19
19
19
19
19
19
26
55
67
66
113
159
138
68
100
255
187
56
19
19
19
19
19
0
0
96
241
76
86
126
121
45
0
0
0
11
130
255
166
12
85
204
187
135
206
157
0
23
195
245
78
0
0
0
0
0
0
0
0
0
0
0
0
0
0
0
0
0
0
0
0
0
0
0
0
0
0
0
0
0
0
0
0
0
0
0
0
0
0
0
0
0
0
0
0
0
0
0
0
0
0
0
0
0
0
19
19
19
19
19
19
19
19
22
62
68
69
46
21
19
19
19
19
19
19
19
19
19
19
19
19
19
19
19
19
36
64
65
112
156
139
107
98
227
251
123
20
19
19
19
19
1
0
62
242
128
49
111
129
75
3
0
0
0
30
202
254
113
0
26
104
169
173
51
0
0
133
253
93
0
0
0
0
0
0
0
0
0
0
0
0
0
0
0
0
0
0
0
0
0
0
0
0
0
0
0
0
0
0
0
0
0
0
0
0
0
0
0
0
0
0
0
0
0
0
0
0
0
0
0
0
0
0
19
19
19
19
19
19
19
19
19
40
71
67
63
34
19
19
19
19
19
19
19
19
19
19
19
19
19
19
19
19
25
51
76
121
157
142
131
87
140
247
211
53
19
19
19
19
2
1
36
227
188
11
76
130
70
1
0
0
0
0
86
229
243
142
11
0
4
7
0
0
0
141
255
103
0
0
0
0
0
0
0
0
0
0
0
0
0
0
0
0
0
0
0
0
0
0
0
0
0
0
0
0
0
0
0
0
0
0
0
0
0
0
0
0
0
0
0
0
0
0
0
0
0
0
0
0
0
0
19
19
19
19
19
19
19
19
19
23
61
70
69
52
22
19
19
19
19
19
19
19
19
19
19
19
19
19
19
19
19
34
62
97
141
152
139
113
71
115
250
145
19
19
19
19
1
0
15
193
193
14
81
128
98
17
0
0
0
0
2
63
217
255
138
35
0
0
0
0
12
185
241
67
0
0
0
0
0
0
0
0
0
0
0
0
0
0
0
0
0
0
0
0
0
0
0
0
0
0
0
0
0
0
0
0
0
0
0
0
0
0
0
0
0
0
0
0
0
0
0
0
0
0
0
0
0
0
19
19
19
19
19
19
19
19
19
20
32
68
68
65
37
19
19
19
19
19
19
19
19
19
19
19
19
19
19
19
19
24
45
73
113
154
145
137
88
42
184
242
100
19
19
19
1
0
4
186
189
10
60
128
130
67
3
0
0
0
0
0
94
232
249
163
37
11
0
0
58
234
210
27
0
0
0
0
0
0
0
0
0
0
0
0
0
0
0
0
0
0
0
0
0
0
0
0
0
0
0
0
0
0
0
0
0
0
0
0
0
0
0
0
0
0
0
0
0
0
0
0
0
0
0
0
0
0
19
19
19
19
19
19
19
19
19
19
19
49
69
68
58
27
19
19
19
19
19
19
19
19
19
19
19
19
19
19
19
19
30
59
90
135
156
142
130
62
55
185
243
124
33
19
0
0
32
224
146
0
28
119
129
81
4
0
0
0
0
0
7
74
196
252
218
165
102
110
206
255
165
8
0
0
0
0
0
0
0
0
0
0
0
0
0
0
0
0
0
0
0
0
0
0
0
0
0
0
0
0
0
0
0
0
0
0
0
0
0
0
0
0
0
0
0
0
0
0
0
0
0
0
0
0
0
0
19
19
19
19
19
19
19
19
19
19
19
40
69
68
66
46
24
19
19
19
19
19
19
19
19
19
19
19
19
19
19
19
19
39
70
89
105
133
139
112
26
37
205
253
162
64
18
16
133
249
71
0
29
125
128
79
8
0
0
0
0
0
0
0
32
137
230
253
251
255
255
224
65
0
0
0
0
0
0
0
0
0
0
0
0
0
0
0
0
0
0
0
0
0
0
0
0
0
0
0
0
0
0
0
0
0
0
0
0
0
0
0
0
0
0
0
0
0
0
0
0
0
0
0
0
0
0
0
19
19
19
19
19
19
19
19
19
19
23
52
68
68
68
58
38
22
19
19
19
19
19
19
19
19
19
19
19
19
19
19
19
23
49
69
65
78
143
139
71
20
41
148
235
239
193
200
255
186
11
0
15
94
131
90
8
0
0
0
0
0
0
0
0
9
41
89
145
176
170
120
10
0
0
0
0
0
0
0
0
0
0
0
0
0
0
0
0
0
0
0
0
0
0
0
0
0
0
0
0
0
0
0
0
0
0
0
0
0
0
0
0
0
0
0
0
0
0
0
0
0
0
0
0
0
0
0
19
19
19
19
19
19
19
19
19
19
28
45
64
68
68
66
50
31
20
19
19
19
19
19
19
19
19
19
19
19
19
19
19
20
49
69
66
50
117
138
126
42
19
20
82
138
176
200
174
56
0
0
0
56
131
94
9
0
0
0
0
0
0
0
0
0
0
0
7
16
18
18
4
0
0
0
0
0
0
0
0
0
0
0
0
0
0
0
0
0
0
0
0
0
0
0
0
0
0
0
0
0
0
0
0
0
0
0
0
0
0
0
0
0
0
0
0
0
0
0
0
0
0
0
0
0
0
0
19
19
19
19
19
19
19
19
19
19
20
33
52
67
68
68
61
41
23
19
19
19
19
19
19
19
19
19
19
19
19
19
19
20
54
70
69
59
74
139
138
123
66
23
19
19
4
12
15
1
0
0
3
69
128
100
14
0
0
0
0
0
0
0
0
0
0
0
0
0
0
0
0
0
0
0
0
0
0
0
0
0
0
0
0
0
0
0
0
0
0
0
0
0
0
0
0
0
0
0
0
0
0
0
0
0
0
0
0
0
0
0
0
0
0
0
0
0
0
0
0
0
0
0
0
0
0
0
19
19
19
19
19
19
19
19
19
19
19
24
39
60
68
68
68
55
32
21
20
19
19
19
19
19
19
19
19
19
19
19
19
19
32
66
68
69
53
73
117
137
132
61
25
19
0
0
0
0
0
0
16
86
128
80
5
0
0
0
0
0
0
0
0
0
0
0
0
0
0
0
0
0
0
0
0
0
0
0
0
0
0
0
0
0
0
0
0
0
0
0
0
0
0
0
0
0
0
0
0
0
0
0
0
0
0
0
0
0
0
0
0
0
0
0
0
0
0
0
0
0
0
0
0
0
0
0
19
19
19
19
19
19
19
19
19
19
19
19
30
49
68
70
68
65
46
24
20
20
19
19
19
19
19
19
19
19
19
19
19
19
25
58
68
68
40
20
55
126
137
126
90
33
0
0
0
0
0
0
31
105
128
48
0
0
0
0
0
0
0
0
0
0
0
0
0
0
0
0
0
0
0
0
0
0
0
0
0
0
0
0
0
0
0
0
0
0
0
0
0
0
0
0
0
0
0
0
0
0
0
0
0
0
0
0
0
0
0
0
0
0
0
0
0
0
0
0
0
0
0
0
0
0
0
0
19
19
19
19
19
19
19
19
19
19
19
19
23
33
35
51
70
68
61
30
19
19
19
19
19
19
19
19
19
19
19
19
19
19
27
66
68
69
42
20
25
88
134
137
139
75
12
5
0
0
0
8
65
127
118
27
0
0
0
0
0
0
0
0
0
0
0
0
0
0
0
0
0
0
0
0
0
0
0
0
0
0
0
0
0
0
0
0
0
0
0
0
0
0
0
0
0
0
0
0
0
0
0
0
0
0
0
0
0
0
0
0
0
0
0
0
0
0
0
0
0
0
0
0
0
0
0
0
19
19
19
19
19
19
19
19
19
19
19
19
19
20
19
21
59
69
69
52
22
19
19
19
19
19
19
19
19
19
19
19
19
19
21
50
70
69
49
21
19
33
70
123
138
130
94
79
48
26
35
85
122
131
99
13
0
0
0
0
0
0
0
0
0
0
0
0
0
0
0
0
0
0
0
0
0
0
0
0
0
0
0
0
0
0
0
0
0
0
0
0
0
0
0
0
0
0
0
0
0
0
0
0
0
0
0
0
0
0
0
0
0
0
0
0
0
0
0
0
0
0
0
0
0
0
0
0
19
19
19
19
19
19
19
19
19
19
19
19
19
19
19
19
36
69
68
65
37
19
19
19
19
19
19
19
19
19
19
19
19
19
19
26
61
70
45
21
19
19
21
51
99
137
130
129
129
114
118
129
128
120
53
2
0
0
0
0
0
0
0
0
0
0
0
0
0
0
0
0
0
0
0
0
0
0
0
0
0
0
0
0
0
0
0
0
0
0
0
0
0
0
0
0
0
0
0
0
0
0
0
0
0
0
0
0
0
0
0
0
0
0
0
0
0
0
0
0
0
0
0
0
0
0
0
0
19
19
19
19
19
19
19
19
19
19
19
19
19
19
19
19
23
53
70
69
58
35
21
19
19
19
19
19
19
19
19
19
19
19
19
27
58
70
49
22
19
19
19
19
32
74
92
110
126
129
129
128
130
74
7
0
0
0
0
0
0
0
0
0
0
0
0
0
0
0
0
0
0
0
0
0
0
0
0
0
0
0
0
0
0
0
0
0
0
0
0
0
0
0
0
0
0
0
0
0
0
0
0
0
0
0
0
0
0
0
0
0
0
0
0
0
0
0
0
0
0
0
0
0
0
0
0
0
19
19
19
19
19
19
19
19
19
19
19
19
19
19
19
19
19
34
69
68
68
70
43
20
19
19
19
19
19
19
19
19
19
19
19
30
62
70
48
20
19
19
19
19
19
21
11
24
44
71
83
74
81
33
0
0
0
0
0
0
0
0
0
0
0
0
0
0
0
0
0
0
0
0
0
0
0
0
0
0
0
0
0
0
0
0
0
0
0
0
0
0
0
0
0
0
0
0
0
0
0
0
0
0
0
0
0
0
0
0
0
0
0
0
0
0
0
0
0
0
0
0
0
0
0
0
0
0
19
19
19
19
19
19
19
19
19
19
19
19
19
19
19
19
19
20
31
50
66
69
68
38
25
19
19
19
19
19
19
19
19
19
21
32
59
67
35
19
19
19
19
19
19
19
0
0
0
4
9
5
9
5
0
0
0
0
0
0
0
0
0
0
0
0
0
0
0
0
0
0
0
0
0
0
0
0
0
0
0
0
0
0
0
0
0
0
0
0
0
0
0
0
0
0
0
0
0
0
0
0
0
0
0
0
0
0
0
0
0
0
0
0
0
0
0
0
0
0
0
0
0
0
0
0
0
0
19
19
19
19
19
19
19
19
19
19
19
19
19
19
19
19
19
19
19
24
54
68
69
65
58
29
19
19
19
19
19
19
19
19
22
43
70
58
24
19
19
19
19
19
19
19
0
0
0
0
0
0
0
0
0
0
0
0
0
0
0
0
0
0
0
0
0
0
0
0
0
0
0
0
0
0
0
0
0
0
0
0
0
0
0
0
0
0
0
0
0
0
0
0
0
0
0
0
0
0
0
0
0
0
0
0
0
0
0
0
0
0
0
0
0
0
0
0
0
0
0
0
0
0
0
0
0
0
19
19
19
19
19
19
19
19
19
19
19
19
19
19
19
19
19
19
19
19
35
65
69
68
70
53
23
19
19
19
19
19
19
22
37
66
69
50
21
19
19
19
19
19
19
19
0
0
0
0
0
0
0
0
0
0
0
0
0
0
0
0
0
0
0
0
0
0
0
0
0
0
0
0
0
0
0
0
0
0
