P2
# CREATOR: GIMP PNM Filter Version 1.1
128 32
255
0
0
0
0
0
0
0
0
0
0
0
0
0
0
0
0
0
0
0
0
0
0
0
0
0
0
0
0
0
0
0
0
0
0
0
0
0
0
0
0
0
0
0
0
0
0
0
0
0
0
0
0
0
0
0
0
0
0
0
0
0
0
0
0
0
0
0
49
0
165
244
165
165
165
165
165
92
92
49
165
165
244
244
244
244
244
165
165
92
165
165
165
165
165
244
244
244
92
49
165
244
244
244
244
244
244
244
244
244
244
244
244
165
244
165
165
165
49
49
49
0
0
0
0
0
0
0
0
0
0
0
0
0
0
0
0
0
0
0
0
0
0
0
0
0
0
0
0
0
0
0
0
0
0
0
0
0
0
0
0
0
0
0
0
0
0
0
0
0
0
0
0
0
0
0
0
0
0
0
0
0
0
0
0
0
0
0
0
0
0
0
0
0
49
49
0
92
244
165
165
92
92
49
49
49
92
165
244
244
244
244
165
165
92
92
165
165
165
244
244
244
244
244
244
244
0
92
49
244
244
244
244
244
244
244
244
244
244
244
165
92
244
165
92
92
49
0
0
0
0
0
0
0
0
0
0
0
0
0
0
0
0
0
0
0
0
0
0
0
0
0
0
0
0
0
0
0
0
0
0
0
0
0
0
0
0
0
0
0
0
0
0
0
0
0
0
0
0
0
0
0
0
0
0
0
0
0
0
0
0
0
0
0
0
0
0
0
0
0
49
92
0
92
244
244
244
92
49
49
49
49
49
165
244
244
244
244
165
92
92
165
165
165
165
244
165
244
244
244
244
244
244
244
49
0
49
244
244
244
244
244
244
244
244
244
165
165
92
165
49
49
49
92
0
0
0
0
0
0
0
0
0
0
0
0
0
0
0
0
0
0
0
0
0
0
0
0
0
0
0
0
0
0
0
0
0
0
0
0
0
0
0
0
0
0
0
0
0
0
0
0
0
0
0
0
0
0
0
0
0
0
0
0
0
0
0
0
0
0
0
0
0
0
0
0
49
92
0
92
244
244
165
92
49
49
49
49
92
165
244
165
244
244
244
92
92
165
165
165
165
165
49
92
244
244
244
244
244
244
244
244
244
165
244
244
244
244
244
244
244
244
165
165
165
165
244
92
92
92
92
0
0
0
0
0
0
0
0
0
0
0
0
0
0
0
0
0
0
0
0
0
0
0
0
0
0
0
0
0
0
0
0
0
0
0
0
0
0
0
0
0
0
0
0
0
0
0
0
0
0
0
0
0
0
0
0
0
0
0
0
0
0
0
0
0
0
0
0
0
0
0
49
92
0
165
244
244
92
49
49
49
49
49
92
165
165
165
165
244
165
165
92
92
165
165
165
244
244
0
92
49
165
244
244
244
244
244
244
244
244
244
244
244
244
244
244
244
165
165
165
165
244
165
49
92
92
165
0
0
0
0
0
0
0
0
0
0
0
0
0
0
0
0
0
0
0
0
0
0
0
0
0
0
0
0
0
0
0
0
0
0
0
0
0
0
0
0
0
0
0
0
0
0
0
0
0
0
0
0
0
0
0
0
0
0
0
0
0
0
0
0
0
0
0
0
0
0
49
92
49
92
165
165
49
49
49
49
49
49
92
165
244
165
244
165
165
92
165
92
165
165
165
165
244
244
244
92
0
0
244
244
244
244
244
244
244
244
244
244
244
244
244
244
165
165
165
165
165
165
49
49
165
49
0
0
0
0
0
0
0
0
0
0
0
0
0
0
0
0
0
0
0
0
0
0
0
0
0
0
0
0
0
0
0
0
0
0
0
0
0
0
0
0
0
0
0
0
0
0
0
0
0
0
0
0
0
0
0
0
0
0
0
0
0
0
0
0
0
0
0
0
0
0
49
92
49
92
165
165
92
49
92
49
49
49
92
165
244
244
165
244
165
165
165
165
165
165
244
165
244
244
244
244
244
244
165
244
244
244
244
244
244
244
244
244
244
244
244
244
165
165
92
92
165
244
165
49
49
165
0
0
0
0
0
0
0
0
0
0
0
0
0
0
0
0
0
0
0
0
0
0
0
0
0
0
0
0
0
0
0
0
0
0
0
0
0
0
0
0
0
0
0
0
0
0
0
0
0
0
0
0
0
0
0
0
0
0
0
0
0
0
0
0
0
0
0
0
0
0
0
92
49
92
165
165
92
49
49
49
49
49
92
165
244
244
244
244
165
92
165
165
165
165
165
244
244
244
244
244
244
244
244
244
244
244
244
244
244
244
244
244
244
244
244
244
165
92
92
92
92
244
165
0
49
92
165
49
0
0
0
0
0
0
0
0
0
0
0
0
0
0
0
0
0
0
0
0
0
0
0
0
0
0
0
0
0
0
0
0
0
0
0
0
0
0
0
0
0
0
0
0
0
0
0
0
0
0
0
0
0
0
0
0
0
0
0
0
0
0
0
0
0
0
0
0
49
92
92
165
165
165
49
49
49
49
92
92
165
244
244
244
244
165
165
92
165
165
165
165
244
244
244
244
244
244
244
244
244
244
165
244
244
244
244
244
244
244
244
244
165
165
92
49
49
49
165
165
165
49
49
49
244
165
0
0
0
0
0
0
0
0
0
0
0
0
0
0
0
0
0
0
0
0
0
0
0
0
0
0
0
0
0
0
0
0
0
0
0
0
0
0
0
0
0
0
0
0
0
0
0
0
0
0
0
0
0
0
0
0
0
0
0
0
0
0
0
0
0
0
0
0
0
92
92
92
165
165
49
49
92
49
92
92
165
244
244
165
244
244
165
165
165
165
165
244
244
244
244
244
244
244
244
244
244
244
165
244
244
165
244
244
244
244
244
165
165
92
49
92
49
92
165
165
165
49
0
49
165
165
165
49
0
0
0
0
0
0
0
0
0
0
0
0
0
0
0
0
0
0
0
0
0
0
0
0
0
0
0
0
0
0
0
0
0
0
0
0
0
0
0
0
0
0
0
0
0
0
0
0
0
0
0
0
0
0
0
0
0
0
0
0
0
0
0
0
0
0
0
0
0
92
49
0
0
0
0
0
0
92
165
244
244
244
244
244
165
165
165
165
244
244
244
244
244
244
244
244
244
244
244
244
165
244
244
244
244
244
244
165
165
92
49
92
49
49
49
165
165
244
92
49
0
49
92
92
165
49
0
0
0
0
0
0
0
0
0
0
0
0
0
0
0
0
0
0
0
0
0
0
0
0
0
0
0
0
0
0
0
0
0
0
0
0
0
0
0
0
0
0
0
0
0
0
0
0
0
0
0
0
0
0
0
0
0
0
0
0
0
0
0
0
0
0
0
0
0
0
0
0
0
0
0
0
0
0
92
165
165
244
244
244
165
165
165
244
244
244
244
244
244
244
244
244
244
244
244
244
244
244
244
244
244
244
244
165
92
92
92
49
49
49
92
165
244
165
49
0
49
0
92
165
165
49
49
0
0
0
0
0
0
0
0
0
0
0
0
0
0
0
0
0
0
0
0
0
0
0
0
0
0
0
0
0
0
0
0
0
0
0
0
0
0
0
0
0
0
0
0
0
0
0
0
0
0
0
0
0
0
0
0
0
0
0
0
0
0
0
0
0
0
0
0
0
0
0
0
0
0
0
0
0
244
165
92
244
244
165
244
165
165
244
244
244
244
244
244
244
244
244
244
244
244
244
244
244
244
244
244
244
165
92
92
49
92
49
49
165
165
165
165
92
0
0
49
49
49
165
165
92
0
0
0
0
0
0
0
0
0
0
0
0
0
0
0
0
0
0
0
0
0
0
0
0
0
0
0
0
0
0
0
0
0
0
0
0
0
0
0
0
0
0
0
0
0
0
0
0
0
0
0
0
0
0
0
0
0
0
0
0
0
0
0
0
0
0
0
0
0
0
0
0
0
0
0
0
0
0
0
0
49
0
92
244
165
165
165
244
244
244
244
244
244
244
244
244
244
244
244
244
244
244
244
244
165
92
92
92
92
92
49
92
165
165
165
92
49
49
49
49
49
49
92
165
165
92
49
0
0
0
0
0
0
0
0
0
0
0
0
0
0
0
0
0
0
0
0
0
0
0
0
0
0
0
0
0
0
0
0
0
0
0
0
0
0
0
0
0
0
0
0
0
0
0
0
0
0
0
0
0
0
0
0
0
0
0
0
0
0
0
0
0
0
0
0
0
0
0
0
0
0
0
0
0
0
0
0
0
0
0
92
165
165
165
244
244
244
244
244
244
244
244
244
244
244
244
244
244
165
165
165
165
92
165
165
92
92
244
165
92
92
49
49
49
92
49
49
92
92
92
165
92
0
0
0
0
0
0
0
0
0
0
0
0
0
0
0
0
0
0
0
0
0
0
0
0
0
0
0
0
0
0
0
0
0
0
0
0
0
0
0
0
0
0
0
0
0
0
0
0
0
0
0
0
0
0
0
0
0
0
0
0
0
0
0
0
0
0
0
0
0
0
0
0
0
0
0
0
0
0
4
0
0
0
0
0
49
92
49
244
244
244
244
244
244
244
244
244
244
244
244
244
165
165
165
92
92
92
92
49
92
92
92
49
0
165
244
49
49
92
49
49
92
92
165
92
92
49
0
0
0
0
0
0
0
0
0
0
0
0
0
0
0
0
0
0
0
0
0
0
0
0
0
0
0
0
0
0
0
0
0
0
0
0
0
0
0
0
0
0
0
0
0
0
0
0
0
0
0
0
0
0
0
0
0
0
0
0
0
0
0
0
0
0
0
0
0
0
0
0
0
0
0
0
0
0
1
50
121
65
20
0
0
0
92
92
49
165
244
165
244
244
244
244
244
244
244
165
165
92
165
92
49
49
49
49
92
92
92
49
0
49
244
244
92
49
92
92
165
165
165
92
92
49
49
0
0
0
0
0
0
0
0
0
0
0
0
0
0
0
0
0
0
0
0
0
0
0
0
0
0
0
0
0
0
0
0
0
0
0
0
0
0
0
0
0
0
0
0
0
0
0
0
0
0
0
0
0
0
0
0
0
0
1
25
28
11
0
0
0
0
0
0
0
0
0
0
0
0
0
0
0
0
0
10
128
88
106
108
10
0
0
92
92
49
165
244
92
244
244
244
244
244
92
92
49
49
49
49
92
92
92
92
92
92
49
49
49
165
244
244
92
92
92
165
92
49
49
49
49
0
0
0
0
0
0
0
0
0
0
0
0
0
0
0
0
0
0
0
0
0
0
0
0
0
0
0
0
0
0
0
0
0
0
0
0
0
0
0
0
0
0
0
0
0
0
0
0
0
0
0
0
0
0
0
0
0
0
0
0
0
84
213
217
182
105
14
0
0
0
0
0
0
0
0
0
0
0
0
0
0
0
21
117
47
83
109
91
0
0
49
92
92
49
244
92
165
244
92
49
49
49
49
92
49
92
92
49
92
49
92
49
0
49
165
244
244
244
92
49
92
49
49
49
49
0
0
0
0
0
0
0
0
0
0
0
0
0
0
0
0
0
0
0
0
0
0
0
0
0
0
0
0
0
0
0
0
0
0
0
0
0
0
0
0
0
0
0
0
0
0
0
0
0
0
0
0
0
0
0
0
0
0
0
0
0
0
0
15
202
201
104
147
226
197
46
0
0
0
0
0
0
0
0
0
0
0
0
0
0
16
116
91
65
69
161
52
0
0
92
92
49
92
92
92
92
92
92
49
92
92
92
92
92
92
92
49
92
49
49
244
244
244
165
92
49
49
92
49
0
0
0
0
0
0
0
0
0
0
0
0
0
0
0
0
0
0
0
0
0
0
0
0
0
0
0
0
0
0
0
0
0
0
0
0
0
0
0
0
0
0
0
0
0
0
0
0
0
0
0
0
0
0
0
0
0
0
0
0
0
0
0
0
0
0
0
64
231
50
0
0
48
200
209
44
0
0
0
0
0
0
0
0
0
0
0
0
0
0
97
142
41
27
112
152
7
0
49
49
49
0
92
92
92
49
92
92
49
92
92
49
92
92
92
92
49
244
165
165
92
49
92
92
49
49
49
0
0
0
0
0
0
0
0
0
0
0
0
0
0
0
0
0
0
0
0
0
0
0
0
0
0
0
0
0
0
0
0
0
0
0
0
0
0
0
0
0
0
0
0
0
0
0
0
0
0
0
0
0
0
0
0
0
0
0
0
0
0
0
0
0
0
0
0
107
211
8
36
147
69
69
175
211
25
0
0
0
0
0
0
0
0
0
0
0
0
0
61
175
123
14
64
141
52
0
0
0
0
0
165
92
92
49
92
49
92
92
92
92
92
92
92
92
49
165
92
92
92
49
49
49
49
49
0
0
0
0
0
0
0
0
0
0
0
0
0
0
0
0
0
0
0
0
0
0
0
0
0
0
0
0
0
0
0
0
0
0
0
0
0
0
0
0
0
0
0
0
0
0
0
0
0
0
0
0
0
0
0
0
0
0
0
0
0
0
0
0
0
0
0
0
0
94
215
17
121
132
76
136
85
226
154
11
0
0
0
0
0
0
0
0
0
0
0
0
6
121
146
78
70
104
79
0
0
0
0
92
92
49
92
92
92
92
92
92
49
92
92
49
49
49
49
49
49
49
49
49
49
49
0
0
0
0
0
0
0
0
0
0
0
0
0
0
0
0
0
0
0
0
0
0
0
0
0
0
0
0
0
0
0
0
0
0
0
0
0
0
0
0
0
0
0
0
0
0
0
0
0
0
0
0
0
0
0
0
0
0
0
0
0
0
0
0
0
0
0
0
0
0
0
72
235
60
131
34
7
72
140
151
250
141
7
0
0
0
0
0
0
0
0
0
0
0
0
43
94
149
61
88
84
11
0
92
92
92
49
92
92
92
49
49
49
49
49
49
49
49
49
49
49
49
49
49
49
49
92
0
0
0
0
0
0
0
0
0
0
0
0
0
0
0
0
0
0
0
0
0
0
0
0
0
0
0
0
0
0
0
0
0
0
0
0
0
0
0
0
0
0
0
0
0
0
0
0
0
0
0
0
0
0
0
0
0
0
0
0
0
0
0
0
0
0
0
0
0
0
0
0
20
208
107
118
50
0
0
80
137
201
236
53
0
0
0
0
0
0
0
0
0
0
0
0
2
16
85
99
170
23
56
92
49
92
92
49
49
49
49
49
49
49
49
49
49
49
49
49
49
49
49
49
49
49
0
0
0
0
0
0
0
0
0
0
0
0
0
0
0
0
0
0
0
0
0
0
0
0
0
0
0
0
0
0
0
0
0
0
0
0
0
0
0
0
0
0
0
0
0
0
0
0
0
0
0
0
0
0
0
0
0
0
0
0
0
0
0
0
0
0
0
0
0
0
0
0
0
0
2
165
186
97
86
0
0
9
128
145
246
98
0
0
0
0
0
0
0
0
0
0
0
0
0
0
7
20
10
92
92
49
49
0
0
0
0
92
49
49
49
49
49
49
49
49
0
0
0
0
0
0
0
0
0
0
0
0
0
0
0
0
0
0
0
0
0
0
0
0
0
0
0
0
0
0
0
0
0
0
0
0
0
0
0
0
0
0
0
0
0
0
0
0
0
0
0
0
0
0
0
0
0
0
0
0
0
0
0
0
0
0
0
0
0
0
0
0
0
0
0
0
0
0
0
0
0
0
0
62
222
135
135
31
0
0
83
132
174
201
22
0
0
0
0
0
0
0
0
0
0
0
0
0
0
0
0
0
0
0
0
0
0
49
49
0
49
0
0
0
0
0
0
0
0
0
0
0
0
0
0
0
0
0
0
0
0
0
0
0
0
0
0
0
0
0
0
0
0
0
0
0
0
0
0
0
0
0
0
0
0
0
0
0
0
0
0
0
0
0
0
0
0
0
0
0
0
0
0
0
0
0
0
0
0
0
0
0
0
0
0
0
0
0
0
0
0
0
0
0
0
0
0
0
0
0
0
23
205
205
154
93
0
0
26
122
82
222
71
0
0
0
0
0
0
0
0
0
0
0
0
0
0
0
0
0
0
0
0
0
0
0
0
0
0
0
0
0
0
0
0
0
0
0
0
0
0
0
0
0
0
0
0
0
0
0
0
0
0
0
0
0
0
0
0
0
0
0
0
0
0
0
0
0
0
0
0
0
0
0
0
0
0
0
0
0
0
0
0
0
0
0
0
0
0
0
0
0
0
0
0
0
0
0
0
0
0
0
0
0
0
0
0
0
0
0
0
0
0
0
0
0
0
0
0
9
144
253
147
115
44
0
0
118
61
203
133
0
0
0
0
0
0
0
0
0
0
0
0
0
0
0
0
0
0
0
0
0
0
0
0
0
0
0
0
0
0
0
0
0
0
0
0
0
0
0
0
0
0
0
0
0
0
0
0
0
0
0
0
0
0
0
0
0
0
0
0
0
0
0
0
0
0
0
0
0
0
0
0
0
0
0
0
0
0
0
0
0
0
0
0
0
0
0
0
0
0
0
0
0
0
0
0
0
0
0
0
0
0
0
0
0
0
0
0
0
0
0
0
0
0
0
0
0
36
157
222
86
114
81
38
137
12
172
183
4
0
0
0
0
0
0
0
0
0
0
0
0
0
0
0
0
0
0
0
0
0
0
0
0
0
0
0
0
0
0
0
0
0
0
0
0
0
0
0
0
0
0
0
0
0
0
0
0
0
0
0
0
0
0
0
0
0
0
0
0
0
0
0
0
0
0
0
0
0
0
0
0
0
0
0
0
0
0
0
0
0
0
0
0
0
0
0
0
0
0
0
0
0
0
0
0
0
0
0
0
0
0
0
0
0
0
0
0
0
0
0
0
0
0
0
0
0
13
192
188
29
65
130
93
0
131
194
6
0
0
0
0
0
0
0
0
0
0
0
0
0
0
0
0
0
0
0
0
0
0
0
0
0
0
0
0
0
0
0
0
0
0
0
0
0
0
0
0
0
0
0
0
0
0
0
0
0
0
0
0
0
0
0
0
0
0
0
0
0
0
0
0
0
0
0
0
0
0
0
0
0
0
0
0
0
0
0
0
0
0
0
0
0
0
0
0
0
0
0
0
0
0
0
0
0
0
0
0
0
0
0
0
0
0
0
0
0
0
0
0
0
0
0
0
0
0
56
205
192
30
0
0
0
154
173
0
0
0
0
0
0
0
0
0
0
0
0
0
0
0
0
0
0
0
0
0
0
0
0
0
0
0
0
0
0
0
0
0
0
0
0
0
0
0
0
0
0
0
0
0
0
0
0
0
0
0
0
0
0
0
0
0
0
0
0
0
0
0
0
0
0
0
0
0
0
0
0
0
0
0
0
0
0
0
0
0
0
0
0
0
0
0
0
0
0
