P2
# CREATOR: GIMP PNM Filter Version 1.1
128 32
255
0
0
0
0
0
0
0
0
0
0
0
0
0
0
0
0
0
0
0
0
0
0
0
0
0
0
0
0
0
0
0
0
0
0
0
0
0
0
0
0
0
0
0
0
0
0
0
0
0
0
0
0
0
0
0
0
0
0
0
0
0
0
0
0
0
0
0
0
0
0
0
0
0
0
0
0
0
0
0
0
0
0
0
0
0
0
0
0
0
0
92
49
0
0
0
0
0
0
92
165
244
244
244
244
244
165
165
165
165
244
244
244
244
244
244
244
244
244
244
244
244
165
244
244
244
244
244
244
0
0
0
0
0
0
0
0
0
0
0
0
0
0
0
0
0
0
0
0
0
0
0
0
0
0
0
0
0
0
0
0
0
0
0
0
0
0
0
0
0
0
0
0
0
0
0
0
0
0
0
0
0
0
0
0
0
0
0
0
0
0
0
0
0
0
0
0
0
0
0
0
0
0
0
0
0
0
0
0
0
0
0
0
0
0
0
0
0
0
0
0
0
0
0
0
0
92
165
165
244
244
244
165
165
165
244
244
244
244
244
244
244
244
244
244
244
244
244
244
244
244
244
244
244
244
165
92
0
0
0
0
0
0
0
0
0
0
0
0
0
0
0
0
0
0
0
0
0
0
0
0
0
0
0
0
0
0
0
0
0
0
0
0
0
0
0
0
0
0
0
0
0
0
0
0
0
0
0
0
0
0
0
0
0
0
0
0
0
0
0
0
0
0
0
0
0
0
0
0
0
0
0
0
0
0
0
0
0
0
0
0
0
0
0
0
0
0
0
0
0
0
0
244
165
92
244
244
165
244
165
165
244
244
244
244
244
244
244
244
244
244
244
244
244
244
244
244
244
244
244
165
92
92
49
92
0
0
0
0
0
0
0
0
0
0
0
0
0
0
0
0
0
0
0
0
0
0
0
0
0
0
0
0
0
0
0
0
0
0
0
0
0
0
0
0
0
0
0
0
0
0
0
0
0
0
0
0
0
0
0
0
0
0
0
0
0
0
0
0
0
0
0
0
0
0
0
0
0
0
0
0
0
0
0
0
0
0
0
0
0
0
0
0
0
0
0
0
0
0
0
49
0
92
244
165
165
165
244
244
244
244
244
244
244
244
244
244
244
244
244
244
244
244
244
165
92
92
92
92
92
49
92
165
0
0
0
0
0
0
0
0
0
0
0
0
0
0
0
0
0
0
0
0
0
0
0
0
0
0
0
0
0
0
0
0
0
0
0
0
0
0
0
0
0
0
0
0
0
0
0
0
0
0
0
0
0
0
0
0
0
0
0
0
0
0
0
0
0
0
0
0
0
0
0
0
0
0
0
0
0
0
0
0
0
0
0
0
0
0
0
0
0
0
0
0
0
0
0
0
0
92
165
165
165
244
244
244
244
244
244
244
244
244
244
244
244
244
244
165
165
165
165
92
165
165
92
92
244
165
92
92
0
0
0
0
0
0
0
0
0
0
0
0
0
0
0
0
0
0
0
0
0
0
0
0
0
0
0
0
0
0
0
0
0
0
0
0
0
0
0
0
0
0
0
0
0
0
0
0
0
0
0
0
0
0
0
0
0
0
0
0
0
0
0
0
0
0
0
0
0
0
0
0
0
0
0
0
0
0
0
0
0
0
0
0
0
0
0
0
0
4
0
0
0
0
0
49
92
49
244
244
244
244
244
244
244
244
244
244
244
244
244
165
165
165
92
92
92
92
49
92
92
92
49
0
165
244
49
49
0
0
0
0
0
0
0
0
0
0
0
0
0
0
0
0
0
0
0
0
0
0
0
0
0
0
0
0
0
0
0
0
0
0
0
0
0
0
0
0
0
0
0
0
0
0
0
0
0
0
0
0
0
0
0
0
0
0
0
0
0
0
0
0
0
0
0
0
0
0
0
0
0
0
0
0
0
0
0
0
0
0
0
0
0
0
0
1
50
121
65
20
0
0
0
92
92
49
165
244
165
244
244
244
244
244
244
244
165
165
92
165
92
49
49
49
49
92
92
92
49
0
49
244
244
92
49
92
0
0
0
0
0
0
0
0
0
0
0
0
0
0
0
0
0
0
0
0
0
0
0
2
0
0
0
0
0
0
0
0
0
0
0
0
0
0
0
0
0
0
0
5
15
15
8
0
0
0
0
0
0
0
0
0
0
0
0
0
0
0
0
0
0
0
1
25
28
11
0
0
0
0
0
0
0
0
0
0
0
0
0
0
0
0
0
10
128
88
106
108
10
0
0
92
92
49
165
244
92
244
244
244
244
244
92
92
49
49
49
49
92
92
92
92
92
92
49
49
49
165
244
244
92
92
92
165
0
0
0
0
0
0
0
0
0
0
0
0
0
0
0
0
0
0
0
0
10
35
42
59
46
23
10
0
0
0
0
0
0
0
0
0
0
0
0
0
0
0
0
79
161
172
153
92
42
14
0
0
0
0
0
0
0
0
0
0
0
0
0
0
0
0
84
213
217
182
105
14
0
0
0
0
0
0
0
0
0
0
0
0
0
0
0
21
117
47
83
109
91
0
0
49
92
92
49
244
92
165
244
92
49
49
49
49
92
49
92
92
49
92
49
92
49
0
49
165
244
244
244
92
49
92
49
49
0
0
0
0
0
0
0
0
0
0
0
0
0
0
0
0
0
0
0
1
48
111
127
130
127
112
88
66
42
7
0
0
0
0
0
0
0
0
0
0
0
0
29
193
254
255
253
252
231
159
49
0
0
0
0
0
0
0
0
0
0
0
0
0
0
15
202
201
104
147
226
197
46
0
0
0
0
0
0
0
0
0
0
0
0
0
0
16
116
91
65
69
161
52
0
0
92
92
49
92
92
92
92
92
92
49
92
92
92
92
92
92
92
49
92
49
49
244
244
244
165
92
49
49
92
49
0
0
0
0
0
0
0
0
0
0
0
0
0
0
0
0
0
0
0
0
1
33
109
129
129
129
126
130
130
129
119
67
18
0
0
0
0
0
0
0
0
0
0
0
101
254
234
146
96
149
214
253
215
93
16
0
0
0
0
0
0
0
0
0
0
0
0
64
231
50
0
0
48
200
209
44
0
0
0
0
0
0
0
0
0
0
0
0
0
0
97
142
41
27
112
152
7
0
49
49
49
0
92
92
92
49
92
92
49
92
92
49
92
92
92
92
49
244
165
165
92
49
92
92
49
49
49
0
0
0
0
0
0
0
0
0
0
0
0
0
0
0
0
0
0
0
0
0
4
80
130
129
105
58
43
71
93
117
129
127
99
38
8
0
0
0
0
0
0
0
0
6
164
250
102
2
0
7
30
141
249
247
135
12
0
0
0
0
0
0
0
0
0
0
0
107
211
8
36
147
69
69
175
211
25
0
0
0
0
0
0
0
0
0
0
0
0
0
61
175
123
14
64
141
52
0
0
0
0
0
165
92
92
49
92
49
92
92
92
92
92
92
92
92
49
165
92
92
92
49
49
49
49
49
0
0
0
0
0
0
0
0
0
0
0
0
0
0
0
0
0
0
0
0
0
0
14
101
129
95
25
1
0
3
13
30
81
131
128
116
70
6
0
0
0
0
0
0
0
32
212
230
44
0
0
0
0
18
120
237
239
92
8
0
0
0
0
0
0
0
0
0
0
94
215
17
121
132
76
136
85
226
154
11
0
0
0
0
0
0
0
0
0
0
0
0
6
121
146
78
70
104
79
0
0
0
0
92
92
49
92
92
92
92
92
92
49
92
92
49
49
49
49
49
49
49
49
49
49
49
0
0
0
0
0
0
0
0
0
0
0
0
0
0
0
0
0
0
0
0
0
0
0
0
37
121
129
53
0
0
0
0
0
0
20
97
128
127
118
36
0
0
0
0
0
0
0
61
239
195
18
0
13
70
57
18
0
110
234
243
126
9
0
0
0
0
0
0
0
0
0
72
235
60
131
34
7
72
140
151
250
141
7
0
0
0
0
0
0
0
0
0
0
0
0
43
94
149
61
88
84
11
0
92
92
92
49
92
92
92
49
49
49
49
49
49
49
49
49
49
49
49
49
49
49
49
92
0
0
0
0
0
0
0
0
0
0
0
0
0
0
0
0
0
0
0
0
0
0
0
0
1
65
129
123
34
0
0
0
0
0
0
0
16
50
128
128
94
42
6
0
0
0
0
0
49
228
180
13
0
76
242
229
185
117
15
71
236
241
71
0
0
0
0
0
0
0
0
0
20
208
107
118
50
0
0
80
137
201
236
53
0
0
0
0
0
0
0
0
0
0
0
0
2
16
85
99
170
23
56
92
49
92
92
49
49
49
49
49
49
49
49
49
49
49
49
49
49
49
49
49
49
49
0
0
0
0
0
0
0
0
0
0
0
0
0
0
0
0
0
0
0
0
0
0
0
0
0
0
9
90
128
102
15
0
0
0
0
17
31
10
0
4
72
117
131
121
50
1
0
0
0
0
34
212
232
47
0
145
195
68
103
206
175
28
112
255
176
22
0
0
0
0
0
0
0
0
2
165
186
97
86
0
0
9
128
145
246
98
0
0
0
0
0
0
0
0
0
0
0
0
0
0
7
20
10
92
92
49
49
0
0
0
0
92
49
49
49
49
49
49
49
49
0
0
0
0
0
0
0
0
0
0
0
0
0
0
0
0
0
0
0
0
0
0
0
0
0
0
0
0
0
0
0
0
0
0
7
90
128
80
2
0
0
0
88
211
228
185
142
64
11
22
109
131
103
17
0
0
0
0
23
200
246
65
1
186
113
0
0
34
174
165
73
188
252
166
56
0
0
0
0
0
0
0
0
62
222
135
135
31
0
0
83
132
174
201
22
0
0
0
0
0
0
0
0
0
0
0
0
0
0
0
0
0
0
0
0
0
0
49
49
0
49
0
0
0
0
0
0
0
0
0
0
0
0
0
0
0
0
0
0
0
0
0
0
0
0
0
0
0
0
0
0
0
0
0
0
0
0
0
0
0
0
0
4
79
130
93
12
0
0
53
240
236
166
185
221
231
113
21
62
126
129
63
1
0
0
0
10
153
255
130
10
186
97
0
3
0
21
167
163
103
232
252
169
24
0
0
0
0
0
0
0
23
205
205
154
93
0
0
26
122
82
222
71
0
0
0
0
0
0
0
0
0
0
0
0
0
0
0
0
0
0
0
0
0
0
0
0
0
0
0
0
0
0
0
0
0
0
0
0
0
0
0
0
0
0
0
0
0
0
0
0
0
0
0
0
0
0
0
0
0
0
0
0
0
0
0
0
0
0
0
4
73
129
123
40
0
0
135
237
67
2
9
44
162
229
181
47
93
127
111
34
8
6
0
0
57
241
169
6
175
126
0
0
0
0
60
204
128
158
255
240
104
3
0
0
0
0
0
0
9
144
253
147
115
44
0
0
118
61
203
133
0
0
0
0
0
0
0
0
0
0
0
0
0
0
0
0
0
0
0
0
0
0
0
0
0
0
0
0
0
0
0
0
0
0
0
0
0
0
0
0
0
0
0
0
0
0
0
0
0
0
0
0
0
0
0
0
0
0
0
0
0
0
0
0
0
0
0
2
64
130
120
24
0
16
212
172
0
0
0
0
20
135
244
164
86
117
130
102
53
19
3
0
38
225
221
39
111
162
5
0
0
1
16
120
211
112
208
253
168
8
0
0
0
0
0
0
0
36
157
222
86
114
81
38
137
12
172
183
4
0
0
0
0
0
0
0
0
0
0
0
0
0
0
0
0
0
0
0
0
0
0
0
0
0
0
0
0
0
0
0
0
0
0
0
0
0
0
0
0
0
0
0
0
0
0
0
0
0
0
0
0
0
0
0
0
0
0
0
0
0
0
0
0
0
0
1
61
131
130
36
2
42
238
125
0
0
0
1
0
8
111
251
144
88
126
127
104
46
11
1
11
155
255
139
62
178
47
0
0
0
5
25
189
149
128
255
183
16
0
0
0
0
0
0
0
0
13
192
188
29
65
130
93
0
131
194
6
0
0
0
0
0
0
0
0
0
0
0
0
0
0
0
0
0
0
0
0
0
0
0
0
0
0
0
0
0
0
0
0
0
0
0
0
0
0
0
0
0
0
0
0
0
0
0
0
0
0
0
0
0
0
0
0
0
0
0
0
0
0
0
0
0
0
0
23
105
131
84
9
30
231
139
0
0
0
0
0
0
13
174
237
113
115
127
131
93
30
8
0
47
221
235
80
139
146
7
0
0
0
0
80
198
99
197
247
90
0
0
0
0
0
0
0
0
0
56
205
192
30
0
0
0
154
173
0
0
0
0
0
0
0
0
0
0
0
0
0
0
0
0
0
0
0
0
0
0
0
0
0
0
0
0
0
0
0
0
0
0
0
0
0
0
0
0
0
0
0
0
0
0
0
0
0
0
0
0
0
0
0
0
0
0
0
0
0
0
0
0
0
0
0
0
1
61
131
90
7
24
233
171
9
0
0
0
0
0
13
92
234
227
135
120
127
121
65
17
1
0
131
255
162
108
222
73
2
0
0
0
6
162
114
96
253
199
40
0
0
0
0
0
0
0
0
0
47
212
212
94
29
64
226
113
0
0
0
0
0
0
0
0
0
0
0
0
0
0
0
0
0
0
0
0
0
0
0
0
0
0
0
0
0
0
0
0
0
0
0
0
0
0
0
0
0
0
0
0
0
0
0
0
0
0
0
0
0
0
0
0
0
0
0
0
0
0
0
0
0
0
0
0
0
54
133
121
24
3
176
216
22
0
0
0
0
0
4
47
156
255
187
119
121
128
77
7
0
0
120
251
237
121
177
187
29
0
0
0
0
113
159
25
177
252
85
0
0
0
0
0
0
0
0
0
0
26
154
219
215
244
214
35
0
0
0
0
0
0
0
0
0
0
0
0
0
0
0
0
0
0
0
0
0
0
0
0
0
0
0
0
0
0
0
0
0
0
0
0
0
0
0
0
0
0
0
0
0
0
0
0
0
0
0
0
0
0
0
0
0
0
0
0
0
0
0
0
0
0
0
0
0
37
124
130
86
8
103
245
63
0
0
0
0
0
0
15
83
215
229
105
114
127
75
4
0
0
71
223
255
194
86
182
104
0
0
0
0
76
211
26
105
251
103
0
0
0
0
0
0
0
0
0
0
0
4
38
89
108
59
0
0
0
0
0
0
0
0
0
0
0
0
0
0
0
0
0
0
0
0
0
0
0
0
0
0
0
0
0
0
0
0
0
0
0
0
0
0
0
0
0
0
0
0
0
0
0
0
0
0
0
0
0
0
0
0
0
0
0
0
0
0
0
0
0
0
0
0
0
0
7
84
132
123
37
53
243
167
13
0
0
0
0
0
0
26
129
248
124
99
126
109
29
0
0
8
136
251
254
128
85
174
75
0
0
0
53
207
36
90
254
191
31
0
0
0
0
0
0
0
0
0
0
0
0
0
0
0
0
0
0
0
0
0
0
0
0
0
0
0
0
0
0
0
0
0
0
0
0
0
0
0
0
0
0
0
0
0
0
0
0
0
0
0
0
0
0
0
0
0
0
0
0
0
0
0
0
0
0
0
0
0
0
0
0
0
0
0
0
0
0
0
0
0
0
0
0
0
0
24
113
130
94
19
129
245
84
3
0
0
0
0
0
0
32
188
221
88
117
129
82
7
0
0
38
148
239
229
63
87
213
106
22
0
90
205
18
39
220
235
61
0
0
0
0
0
0
0
0
0
0
0
0
0
0
0
0
0
0
0
0
0
0
0
0
0
0
0
0
0
0
0
0
0
0
0
0
0
0
0
0
0
0
0
0
0
0
0
0
0
0
0
0
0
0
0
0
0
0
0
0
0
0
0
0
0
0
0
0
0
0
0
0
0
0
0
0
0
0
0
0
0
0
0
0
0
0
1
61
132
124
53
87
255
181
40
0
0
0
0
0
0
0
96
241
76
86
126
121
45
0
0
0
11
130
255
166
12
85
204
187
135
206
157
0
23
195
245
78
0
0
0
0
0
0
0
0
0
0
0
0
0
0
0
0
0
0
0
0
0
0
0
0
0
0
0
0
0
0
0
0
0
0
0
0
0
0
0
0
0
0
0
0
0
0
0
0
0
0
0
0
0
0
0
0
0
0
0
0
0
0
0
0
0
0
0
0
0
0
0
0
0
0
0
0
0
0
0
0
0
0
0
0
0
0
1
61
130
128
95
85
225
251
112
1
0
0
0
0
1
0
62
242
128
49
111
129
75
3
0
0
0
30
202
254
113
0
26
104
169
173
51
0
0
133
253
93
0
0
0
0
0
0
0
0
0
0
0
0
0
0
0
0
0
0
0
0
0
0
0
0
0
0
0
0
0
0
0
0
0
0
0
0
0
0
0
0
0
0
0
0
0
0
0
0
0
0
0
0
0
0
0
0
0
0
0
0
0
0
0
0
0
0
0
0
0
0
0
0
0
0
0
0
0
0
0
0
0
0
0
0
0
0
12
72
125
128
121
73
131
246
207
37
0
0
0
0
2
1
36
227
188
11
76
130
70
1
0
0
0
0
86
229
243
142
11
0
4
7
0
0
0
141
255
103
0
0
0
0
0
0
0
0
0
0
0
0
0
0
0
0
0
0
0
0
0
0
0
0
0
0
0
0
0
0
0
0
0
0
0
0
0
0
0
0
0
0
0
0
0
0
0
0
0
0
0
0
0
0
0
0
0
0
0
0
0
0
0
0
0
0
0
0
0
0
0
0
0
0
0
0
0
0
0
0
0
0
0
0
0
0
3
39
100
128
128
102
56
104
250
136
0
0
0
0
1
0
15
193
193
14
81
128
98
17
0
0
0
0
2
63
217
255
138
35
0
0
0
0
12
185
241
67
0
0
0
0
0
0
0
0
0
0
0
0
0
0
0
0
0
0
0
0
0
0
0
0
0
0
0
0
0
0
0
0
0
0
0
0
0
0
0
0
0
0
0
0
0
0
0
0
0
0
0
0
0
0
0
0
0
0
0
0
0
0
0
0
0
0
0
0
0
0
0
0
0
0
0
0
0
0
0
0
0
0
0
0
0
0
0
10
62
119
128
128
75
25
178
241
88
0
0
0
1
0
4
186
189
10
60
128
130
67
3
0
0
0
0
0
94
232
249
163
37
11
0
0
58
234
210
27
0
0
0
0
0
0
0
0
0
0
0
0
0
0
0
0
0
0
0
0
0
0
0
0
0
0
0
0
0
0
0
0
0
0
0
0
0
0
0
0
0
0
0
0
0
0
0
0
0
0
0
0
0
0
0
0
0
0
0
0
0
0
0
0
0
0
