P2
# CREATOR: GIMP PNM Filter Version 1.1
128 32
255
0
0
0
0
0
0
0
0
0
0
0
0
0
0
0
0
0
0
0
0
0
0
0
0
0
0
0
0
0
0
0
0
0
0
0
0
0
0
0
0
0
0
0
0
0
0
0
0
0
0
0
0
0
0
0
0
0
0
0
0
0
0
0
0
0
0
0
0
0
0
0
0
0
49
49
92
92
92
165
165
92
92
92
92
49
49
0
0
0
0
0
0
0
0
0
0
0
0
0
0
0
0
0
0
0
0
0
0
0
0
0
0
0
0
0
0
0
0
0
0
0
0
0
0
0
0
0
0
0
0
0
0
0
0
0
0
0
0
0
0
0
0
0
0
0
0
0
0
0
0
0
0
0
0
0
0
0
0
0
0
0
0
0
0
0
0
0
0
0
0
0
0
0
0
0
0
0
0
0
0
0
0
0
0
0
0
0
0
0
0
0
0
0
0
0
0
49
92
165
244
244
244
165
244
244
244
244
244
244
244
244
244
244
244
244
244
165
92
0
0
92
0
49
0
0
0
0
0
0
0
0
0
0
0
0
0
0
0
0
0
0
0
0
0
0
0
0
0
0
0
0
0
0
0
0
0
0
0
0
0
0
0
0
0
0
0
0
0
0
0
0
0
0
0
0
0
0
0
0
0
0
0
0
0
0
0
0
0
0
0
0
0
0
0
0
0
0
0
0
0
0
0
0
0
0
0
0
0
0
0
0
0
0
0
0
0
0
0
0
0
0
49
244
244
244
244
244
244
244
244
244
244
244
244
244
244
244
244
244
244
244
244
244
244
244
244
244
244
165
244
244
244
0
0
0
0
0
0
92
165
244
244
92
0
0
0
0
0
0
0
0
0
0
0
0
0
0
0
0
0
0
0
0
0
0
0
0
0
0
0
0
0
0
0
0
0
0
0
0
0
0
0
0
0
0
0
0
0
0
0
0
0
0
0
0
0
0
0
0
0
0
0
0
0
0
0
0
0
0
0
0
0
0
0
0
0
92
244
244
244
244
165
92
0
0
0
0
92
244
244
244
244
244
244
244
244
244
165
244
165
165
244
244
244
244
244
244
244
244
244
244
244
244
244
244
165
92
165
165
244
244
165
92
244
244
244
244
165
49
0
0
0
0
0
0
0
0
0
0
0
0
0
0
0
0
0
0
0
0
0
0
0
0
0
0
0
0
0
0
0
0
0
0
0
0
0
0
0
0
0
0
0
0
0
0
0
0
0
0
0
0
0
0
0
0
0
0
0
0
0
0
0
0
0
0
0
0
0
0
0
0
49
165
244
244
244
165
244
244
244
244
244
49
92
244
244
244
244
244
244
244
165
92
165
165
165
165
165
244
244
244
244
244
244
244
244
244
244
244
244
244
244
244
244
165
244
165
244
165
244
165
92
92
49
0
0
0
0
0
0
0
0
0
0
0
0
0
0
0
0
0
0
0
0
0
0
0
0
0
0
0
0
0
0
0
0
0
0
0
0
0
0
0
0
0
0
0
0
0
0
0
0
0
0
0
0
0
0
0
0
0
0
0
0
0
0
0
0
0
0
0
0
0
0
0
0
0
49
0
165
244
165
165
165
165
165
92
92
49
165
165
244
244
244
244
244
165
165
92
165
165
165
165
165
244
244
244
92
49
165
244
244
244
244
244
244
244
244
244
244
244
244
165
244
165
165
165
49
49
49
0
0
0
0
0
0
0
0
0
0
0
0
0
0
0
0
0
0
0
0
0
0
0
0
0
0
0
0
0
0
0
0
0
0
0
0
0
0
0
0
0
0
0
0
0
0
0
0
0
0
0
0
0
0
0
0
0
0
0
0
0
0
0
0
0
0
0
0
0
0
0
0
0
49
49
0
92
244
165
165
92
92
49
49
49
92
165
244
244
244
244
165
165
92
92
165
165
165
244
244
244
244
244
244
244
0
92
49
244
244
244
244
244
244
244
244
244
244
244
165
92
244
165
92
92
49
0
0
0
0
0
0
0
0
0
0
0
0
0
0
0
0
0
0
0
0
0
0
0
0
0
0
0
0
0
0
0
0
0
0
0
0
0
0
0
0
0
0
0
0
0
0
0
0
0
0
0
0
0
0
0
0
0
0
0
0
0
0
0
0
0
0
0
0
0
0
0
0
0
49
92
0
92
244
244
244
92
49
49
49
49
49
165
244
244
244
244
165
92
92
165
165
165
165
244
165
244
244
244
244
244
244
244
49
0
49
244
244
244
244
244
244
244
244
244
165
165
92
165
49
49
49
92
0
0
0
0
0
0
0
0
0
0
0
0
0
0
0
0
0
0
0
0
0
0
0
0
0
0
0
0
0
0
0
0
0
0
0
0
0
0
0
0
0
0
0
0
0
0
0
0
0
0
0
0
0
0
0
0
0
0
0
0
0
0
0
0
0
0
0
0
0
0
0
0
49
92
0
92
244
244
165
92
49
49
49
49
92
165
244
165
244
244
244
92
92
165
165
165
165
165
49
92
244
244
244
244
244
244
244
244
244
165
244
244
244
244
244
244
244
244
165
165
165
165
244
92
92
92
92
0
0
0
0
0
0
0
0
0
0
0
0
0
0
0
0
0
0
0
0
0
0
0
0
0
0
0
0
0
0
0
0
0
0
0
0
0
0
0
0
0
0
0
0
0
0
0
0
0
0
0
0
0
0
0
0
0
0
0
0
0
0
0
0
0
0
0
0
0
0
0
49
92
0
165
244
244
92
49
49
49
49
49
92
165
165
165
165
244
165
165
92
92
165
165
165
244
244
0
92
49
165
244
244
244
244
244
244
244
244
244
244
244
244
244
244
244
165
165
165
165
244
165
49
92
92
165
0
0
0
0
0
0
0
0
0
0
0
0
0
0
0
0
0
0
0
0
0
0
0
0
0
0
0
0
0
0
0
0
0
0
0
0
0
0
0
0
0
0
0
0
0
0
0
0
0
0
0
0
0
0
0
0
0
0
0
0
0
0
0
0
0
0
0
0
0
0
49
92
49
92
165
165
49
49
49
49
49
49
92
165
244
165
244
165
165
92
165
92
165
165
165
165
244
244
244
92
0
0
244
244
244
244
244
244
244
244
244
244
244
244
244
244
165
165
165
165
165
165
49
49
165
49
0
0
0
0
0
0
0
0
0
0
0
0
0
0
0
0
0
0
0
0
0
0
0
0
0
0
0
0
0
0
0
0
0
0
0
0
0
0
0
0
0
0
0
0
0
0
0
0
0
0
0
0
0
0
0
0
0
0
0
0
0
0
0
0
0
0
0
0
0
0
49
92
49
92
165
165
92
49
92
49
49
49
92
165
244
244
165
244
165
165
165
165
165
165
244
165
244
244
244
244
244
244
165
244
244
244
244
244
244
244
244
244
244
244
244
244
165
165
92
92
165
244
165
49
49
165
0
0
0
0
0
0
0
0
0
0
0
0
0
0
0
0
0
0
0
0
0
0
0
0
0
0
0
0
0
0
0
0
0
0
0
0
0
0
0
0
0
0
0
0
0
0
0
0
0
0
0
0
0
0
0
0
0
0
0
0
0
0
0
0
0
0
0
0
0
0
0
92
49
92
165
165
92
49
49
49
49
49
92
165
244
244
244
244
165
92
165
165
165
165
165
244
244
244
244
244
244
244
244
244
244
244
244
244
244
244
244
244
244
244
244
244
165
92
92
92
92
244
165
0
49
92
165
49
0
0
0
0
0
0
0
0
0
0
0
0
0
0
0
0
0
0
0
0
0
0
0
0
0
0
0
0
0
0
0
0
0
0
0
0
0
0
0
0
0
0
0
0
0
0
0
0
0
0
0
0
0
0
0
0
0
0
0
0
0
0
0
0
0
0
0
0
49
92
92
165
165
165
49
49
49
49
92
92
165
244
244
244
244
165
165
92
165
165
165
165
244
244
244
244
244
244
244
244
244
244
165
244
244
244
244
244
244
244
244
244
165
165
92
49
49
49
165
165
165
49
49
49
244
165
0
0
0
0
0
0
0
0
0
0
0
0
0
0
0
0
0
0
0
0
0
0
0
0
0
0
0
0
0
0
0
0
0
0
0
0
0
0
0
0
0
0
0
0
0
0
0
0
0
0
0
0
0
0
0
0
0
0
0
0
0
0
0
0
0
0
0
0
0
92
92
92
165
165
49
49
92
49
92
92
165
244
244
165
244
244
165
165
165
165
165
244
244
244
244
244
244
244
244
244
244
244
165
244
244
165
244
244
244
244
244
165
165
92
49
92
49
92
165
165
165
49
0
49
165
165
165
49
0
0
0
0
0
0
0
0
0
0
0
0
0
0
0
0
0
0
0
0
0
0
0
0
0
0
0
0
0
0
0
0
0
0
0
0
0
0
0
0
0
0
0
0
0
0
0
0
0
0
0
0
0
0
0
0
0
0
0
0
0
0
0
0
0
0
0
0
0
92
49
0
0
0
0
0
0
92
165
244
244
244
244
244
165
165
165
165
244
244
244
244
244
244
244
244
244
244
244
244
165
244
244
244
244
244
244
165
165
92
49
92
49
49
49
165
165
244
92
49
0
49
92
92
165
49
0
0
0
0
0
0
0
0
0
0
0
0
0
0
0
0
0
0
0
0
0
0
0
0
0
0
0
0
0
0
0
0
0
0
0
0
0
0
0
0
0
0
0
0
0
0
0
0
0
0
0
0
0
0
0
0
0
0
0
0
0
0
0
0
0
0
0
0
0
0
0
0
0
0
0
0
0
0
92
165
165
244
244
244
165
165
165
244
244
244
244
244
244
244
244
244
244
244
244
244
244
244
244
244
244
244
244
165
92
92
92
49
49
49
92
165
244
165
49
0
49
0
92
165
165
49
49
0
0
0
0
0
0
0
0
0
0
0
0
0
0
0
0
0
0
0
0
0
0
0
0
0
0
0
0
0
0
0
0
0
0
0
0
0
0
0
0
0
0
0
0
0
0
0
0
0
0
0
0
0
0
0
0
0
0
0
0
0
0
0
0
0
0
0
0
0
0
0
0
0
0
0
0
0
244
165
92
244
244
165
244
165
165
244
244
244
244
244
244
244
244
244
244
244
244
244
244
244
244
244
244
244
165
92
92
49
92
49
49
165
165
165
165
92
0
0
49
49
49
165
165
92
0
0
0
0
0
0
0
0
0
0
0
0
0
0
0
0
0
0
0
0
0
0
0
0
0
0
0
0
0
0
0
0
0
0
0
0
0
0
0
0
0
0
0
0
0
0
0
0
0
0
0
0
0
0
0
0
0
0
0
0
0
0
0
0
0
0
0
0
0
0
0
0
0
0
0
0
0
0
0
0
49
0
92
244
165
165
165
244
244
244
244
244
244
244
244
244
244
244
244
244
244
244
244
244
165
92
92
92
92
92
49
92
165
165
165
92
49
49
49
49
49
49
92
165
165
92
49
0
0
0
0
0
0
0
0
0
0
0
0
0
0
0
0
0
0
0
0
0
0
0
0
0
0
0
0
0
0
0
0
0
0
0
0
0
0
0
0
0
0
0
0
0
0
0
0
0
0
0
0
0
0
0
0
0
0
0
0
0
0
0
0
0
0
0
0
0
0
0
0
0
0
0
0
0
0
0
0
0
0
0
92
165
165
165
244
244
244
244
244
244
244
244
244
244
244
244
244
244
165
165
165
165
92
165
165
92
92
244
165
92
92
49
49
49
92
49
49
92
92
92
165
92
0
0
0
0
0
0
0
0
0
0
0
0
0
0
0
0
0
0
0
0
0
0
0
0
0
0
0
0
0
0
0
0
0
0
0
0
0
0
0
0
0
0
0
0
0
0
0
0
0
0
0
0
0
0
0
0
0
0
0
0
0
0
0
0
0
0
0
0
0
0
0
0
0
0
0
0
0
0
4
0
0
0
0
0
49
92
49
244
244
244
244
244
244
244
244
244
244
244
244
244
165
165
165
92
92
92
92
49
92
92
92
49
0
165
244
49
49
92
49
49
92
92
165
92
92
49
0
0
0
0
0
0
0
0
0
0
0
0
0
0
0
0
0
0
0
0
0
0
0
0
0
0
0
0
0
0
0
0
0
0
0
0
0
0
0
0
0
0
0
0
0
0
0
0
0
0
0
0
0
0
0
0
0
0
0
0
0
0
0
0
0
0
0
0
0
0
0
0
0
0
0
0
0
0
1
50
121
65
20
0
0
0
92
92
49
165
244
165
244
244
244
244
244
244
244
165
165
92
165
92
49
49
49
49
92
92
92
49
0
49
244
244
92
49
92
92
165
165
165
92
92
49
49
0
0
0
0
0
0
0
0
0
0
0
0
0
0
0
0
0
0
0
0
0
0
0
0
0
0
0
0
0
0
0
0
0
0
0
0
0
0
0
0
0
0
0
0
0
0
0
0
0
0
0
0
0
0
0
0
0
0
0
0
0
0
0
0
0
0
0
0
0
0
0
0
0
0
0
0
0
0
0
10
128
88
106
108
10
0
0
92
92
49
165
244
92
244
244
244
244
244
92
92
49
49
49
49
92
92
92
92
92
92
49
49
49
165
244
244
92
92
92
165
92
49
49
49
49
0
0
0
0
0
0
0
0
0
0
0
0
0
0
0
0
0
0
0
0
0
0
0
0
0
0
0
0
0
0
0
0
0
0
0
0
0
0
0
0
0
0
0
0
0
0
0
0
0
0
0
0
0
0
0
0
0
0
0
0
0
0
0
0
0
0
0
0
0
0
0
0
0
0
0
0
0
0
0
0
0
0
21
117
47
83
109
91
0
0
49
92
92
49
244
92
165
244
92
49
49
49
49
92
49
92
92
49
92
49
92
49
0
49
165
244
244
244
92
49
92
49
49
49
49
0
0
0
0
0
0
0
0
0
0
0
0
0
0
0
0
0
0
0
0
0
0
0
0
0
0
0
0
0
0
0
0
0
0
0
0
0
0
0
0
0
0
0
0
0
0
0
0
0
0
0
0
0
0
0
0
0
0
0
0
0
0
0
0
0
0
0
0
0
0
0
0
0
0
0
0
0
0
0
0
0
0
0
0
0
16
116
91
65
69
161
52
0
0
92
92
49
92
92
92
92
92
92
49
92
92
92
92
92
92
92
49
92
49
49
244
244
244
165
92
49
49
92
49
0
0
0
0
0
0
0
0
0
0
0
0
0
0
0
0
0
0
0
0
0
0
0
0
0
0
0
0
0
0
0
0
0
0
0
0
0
0
0
0
0
0
0
0
0
0
0
0
0
0
0
0
0
0
0
0
0
0
0
0
0
0
0
0
0
0
0
0
0
0
0
0
0
0
0
0
0
0
0
0
0
0
0
0
0
0
0
0
0
0
97
142
41
27
112
152
7
0
49
49
49
0
92
92
92
49
92
92
49
92
92
49
92
92
92
92
49
244
165
165
92
49
92
92
49
49
49
0
0
0
0
0
0
0
0
0
0
0
0
0
0
0
0
0
0
0
0
0
0
0
0
0
0
0
0
0
0
0
0
0
0
0
0
0
0
0
0
0
0
0
0
0
0
0
0
0
0
0
0
0
0
0
0
0
0
0
0
0
0
0
0
0
0
0
0
0
0
0
0
0
0
0
0
0
0
0
0
0
0
0
0
0
0
0
0
0
0
0
61
175
123
14
64
141
52
0
0
0
0
0
165
92
92
49
92
49
92
92
92
92
92
92
92
92
49
165
92
92
92
49
49
49
49
49
0
0
0
0
0
0
0
0
0
0
0
0
0
0
0
0
0
0
0
0
0
0
0
0
0
0
0
0
0
0
0
0
0
0
0
0
0
0
0
0
0
0
0
0
0
0
0
0
0
0
0
0
0
0
0
0
0
0
0
0
0
0
0
0
0
0
0
0
0
0
0
0
0
0
0
0
0
0
0
0
0
0
0
0
0
0
0
0
0
0
0
0
6
121
146
78
70
104
79
0
0
0
0
92
92
49
92
92
92
92
92
92
49
92
92
49
49
49
49
49
49
49
49
49
49
49
0
0
0
0
0
0
0
0
0
0
0
0
0
0
0
0
0
0
0
0
0
0
0
0
0
0
0
0
0
0
0
0
0
0
0
0
0
0
0
0
0
0
0
0
0
0
0
0
0
0
0
0
0
0
0
0
0
0
0
0
0
0
0
0
0
0
0
0
0
0
0
0
0
0
0
0
0
0
0
0
0
0
0
0
0
0
0
0
0
0
0
0
0
0
0
43
94
149
61
88
84
11
0
92
92
92
49
92
92
92
49
49
49
49
49
49
49
49
49
49
49
49
49
49
49
49
92
0
0
0
0
0
0
0
0
0
0
0
0
0
0
0
0
0
0
0
0
0
0
0
0
0
0
0
0
0
0
0
0
0
0
0
0
0
0
0
0
0
0
0
0
0
0
0
0
0
0
0
0
0
0
0
0
0
0
0
0
0
0
0
0
0
0
0
0
0
0
0
0
0
0
0
0
0
0
0
0
0
0
0
0
0
0
0
0
0
0
0
0
0
0
0
0
2
16
85
99
170
23
56
92
49
92
92
49
49
49
49
49
49
49
49
49
49
49
49
49
49
49
49
49
49
49
0
0
0
0
0
0
0
0
0
0
0
0
0
0
0
0
0
0
0
0
0
0
0
0
0
0
0
0
0
0
0
0
0
0
0
0
0
0
0
0
0
0
0
0
0
0
0
0
0
0
0
0
0
0
0
0
0
0
0
0
0
0
0
0
0
0
0
0
0
0
0
0
0
0
0
0
0
0
0
0
0
0
0
0
0
0
0
0
0
0
0
0
0
0
0
0
0
0
0
0
7
20
10
92
92
49
49
0
0
0
0
92
49
49
49
49
49
49
49
49
0
0
0
0
0
0
0
0
0
0
0
0
0
0
0
0
0
0
0
0
0
0
0
0
0
0
0
0
0
0
0
0
0
0
0
0
0
0
0
0
0
0
0
0
0
0
0
0
0
0
0
0
0
0
0
0
0
0
0
0
0
0
0
0
0
0
0
0
0
0
0
0
0
0
0
0
0
0
0
0
0
0
0
0
0
0
0
0
0
0
0
0
0
0
0
0
0
0
0
0
0
0
0
0
0
0
0
0
0
0
0
0
0
0
0
0
0
49
49
0
49
0
0
0
0
0
0
0
0
0
0
0
0
0
0
0
0
0
0
0
0
0
0
0
0
0
0
0
0
0
0
0
0
0
0
0
0
0
0
0
0
0
0
0
0
0
0
0
0
0
0
0
0
0
0
0
0
0
0
0
0
0
0
0
0
0
0
0
0
0
0
0
0
0
0
0
0
0
0
0
0
0
0
0
0
