P2
# CREATOR: GIMP PNM Filter Version 1.1
128 32
255
0
0
0
0
0
0
0
0
0
52
0
74
101
68
0
0
0
0
0
0
0
0
0
0
66
181
212
137
0
0
0
0
0
0
0
0
0
133
126
126
126
143
139
149
93
0
0
0
0
0
0
0
0
210
201
206
206
208
210
211
214
217
217
219
222
221
221
221
222
222
223
192
0
157
218
192
162
0
161
198
228
220
210
209
217
225
230
227
226
226
229
228
226
228
228
215
141
0
0
0
0
0
0
24
28
0
0
0
0
0
0
0
0
0
0
0
132
177
185
180
163
175
177
0
0
0
0
241
0
0
0
0
0
0
0
0
0
55
0
55
53
0
0
0
0
0
0
0
0
0
0
0
0
0
147
141
0
0
0
0
0
0
0
0
0
130
127
129
124
128
134
150
0
0
0
0
0
0
0
0
0
207
197
205
206
207
209
209
213
218
219
219
220
220
221
222
221
219
225
198
0
0
0
0
0
0
0
0
0
150
225
234
228
226
227
224
220
218
218
216
213
218
193
0
0
0
0
0
0
0
0
0
0
0
0
0
0
0
0
0
0
0
0
0
149
179
193
0
0
0
219
208
209
222
216
245
0
0
0
0
0
0
0
0
0
56
47
0
0
0
0
0
0
0
0
0
0
0
0
0
0
0
0
94
0
0
0
0
0
0
0
80
0
125
124
125
120
124
132
142
0
0
0
0
0
0
0
0
0
206
199
202
204
206
208
208
211
217
219
221
221
220
220
221
221
221
219
175
0
0
0
0
0
0
0
0
0
0
149
212
227
222
221
218
217
218
222
231
227
228
0
0
0
0
0
0
0
0
0
0
0
0
0
0
0
0
0
0
0
0
0
0
124
184
198
0
0
0
217
205
210
208
0
241
0
0
0
0
0
0
52
51
50
61
42
0
0
0
0
0
0
0
0
0
0
0
0
0
0
0
0
0
0
0
65
0
0
0
74
0
99
123
119
121
115
116
121
131
0
0
0
0
0
0
0
0
0
205
195
202
204
207
209
212
214
217
219
220
222
221
222
222
219
225
219
0
0
0
0
0
0
0
0
0
0
0
0
0
222
222
226
230
231
231
227
224
198
0
0
0
0
0
0
0
0
0
0
0
0
0
0
0
0
0
0
0
0
0
0
0
0
153
209
141
0
160
206
195
0
0
0
238
0
0
0
0
53
53
54
56
57
58
0
0
0
0
33
0
0
0
0
0
0
0
0
0
0
0
0
0
0
0
60
0
159
85
74
0
96
121
117
116
111
117
121
128
0
0
0
0
0
0
0
0
0
190
200
201
203
208
211
213
216
219
220
222
224
223
222
223
223
228
0
0
0
0
0
0
0
0
0
0
0
0
0
0
211
224
225
227
224
222
222
214
0
0
0
0
0
0
0
0
0
0
0
0
0
0
0
0
0
0
0
0
0
0
0
0
0
0
149
130
0
166
191
190
207
205
0
242
0
0
0
55
55
55
54
59
60
49
0
0
0
0
0
0
0
0
0
0
0
0
0
0
0
0
0
0
0
0
0
0
100
0
72
0
93
119
114
112
106
111
114
125
0
0
0
0
0
0
0
0
0
169
202
201
203
208
212
213
215
220
222
224
224
224
223
223
229
223
0
0
0
0
0
0
0
0
0
0
0
0
0
0
171
222
222
221
224
225
229
135
0
0
0
0
0
0
0
0
0
0
0
0
0
0
0
0
0
0
0
0
0
0
0
0
0
0
0
136
0
180
219
214
208
0
0
239
0
0
0
0
0
57
59
58
65
0
0
0
0
0
0
0
0
0
0
0
0
0
0
0
0
0
0
0
0
0
89
0
0
0
82
0
0
111
108
106
102
103
102
118
0
0
0
0
0
0
0
0
0
142
203
202
205
206
211
214
216
220
222
223
228
223
227
224
229
159
0
0
0
0
0
0
0
0
0
0
0
0
0
0
0
230
227
226
228
229
215
0
0
0
0
0
0
0
0
0
0
0
0
0
0
0
0
94
72
0
0
0
0
0
0
0
0
0
0
0
0
185
217
207
210
212
0
239
0
0
0
62
64
65
69
72
64
0
0
0
0
0
0
0
0
0
0
0
0
123
178
211
200
184
129
101
0
0
0
0
0
0
83
0
0
112
109
104
99
103
103
114
0
0
0
0
0
0
0
0
0
120
199
201
203
206
216
214
219
213
212
0
0
207
208
226
162
0
0
150
166
157
0
0
0
0
0
0
0
0
0
0
0
222
226
226
225
225
181
0
0
0
0
0
0
0
0
0
0
0
0
0
0
0
103
136
172
112
0
0
0
0
0
0
0
0
0
162
171
156
0
0
0
0
0
233
0
0
65
65
69
71
73
77
56
0
0
0
0
38
41
51
0
0
0
0
186
236
237
234
228
223
210
195
116
0
0
104
0
147
84
0
87
109
106
104
100
100
104
112
0
0
0
0
0
0
0
0
0
0
203
195
200
205
0
0
0
0
0
0
0
0
0
199
0
0
0
205
219
229
218
122
0
0
0
0
0
0
0
0
0
150
229
227
225
224
169
0
0
0
0
0
0
0
0
0
0
0
0
0
0
0
126
201
176
182
96
0
0
0
0
0
0
0
0
0
0
207
214
215
220
0
0
238
0
0
69
0
72
76
78
74
0
43
0
0
0
41
47
0
0
0
0
114
209
235
234
235
231
227
215
192
111
0
0
86
110
0
98
86
88
112
106
102
96
97
108
111
0
0
0
0
0
0
0
0
0
0
199
206
209
0
0
0
0
0
0
0
0
0
0
0
0
0
0
208
229
228
225
194
117
0
0
0
0
0
0
0
0
0
225
224
221
220
186
0
0
0
0
0
0
0
0
0
0
0
0
0
0
137
177
202
180
185
128
0
0
0
0
0
0
0
0
0
0
202
210
207
202
202
0
236
78
72
72
78
82
82
92
70
0
0
0
0
0
0
0
0
0
0
126
217
230
220
236
233
227
224
220
204
128
0
0
0
84
72
91
0
89
110
106
102
99
104
109
111
0
0
0
0
0
0
0
0
0
0
204
176
0
0
0
0
0
0
0
0
194
0
0
0
219
0
0
208
222
217
218
231
212
0
0
0
0
0
0
0
0
144
229
225
222
219
209
0
0
0
0
0
0
0
0
0
0
0
0
125
230
223
220
201
187
184
154
0
0
0
0
0
0
0
0
0
151
197
190
191
0
0
0
239
81
81
74
76
84
84
106
56
0
0
0
0
0
0
0
0
0
0
195
209
173
0
0
0
175
184
226
208
0
0
0
0
0
0
0
0
89
109
112
107
101
105
104
110
0
0
0
0
0
0
0
0
0
0
201
156
0
0
0
0
0
191
187
0
192
196
183
192
211
218
0
193
207
222
224
219
231
223
198
178
151
0
0
0
0
171
226
220
216
217
204
0
0
0
0
0
0
0
0
0
120
214
242
241
238
220
214
201
189
185
157
0
0
0
0
0
0
0
0
0
132
205
197
201
205
202
0
233
86
78
77
83
92
96
108
0
0
0
0
0
0
0
0
0
0
0
211
216
200
192
162
0
0
0
196
121
0
0
0
0
0
0
0
0
94
108
111
110
106
109
110
110
0
0
0
0
0
0
0
0
0
0
199
167
0
0
0
0
0
203
205
194
200
207
201
194
213
219
0
0
170
209
225
215
227
225
200
177
162
110
0
0
0
220
218
212
208
209
196
0
0
0
0
0
0
0
0
169
234
237
238
230
230
217
214
199
196
189
180
129
0
0
0
0
0
133
0
0
0
224
210
207
204
0
0
228
91
93
93
0
0
73
0
0
0
0
0
0
0
0
0
0
0
136
224
194
182
182
0
0
157
196
157
117
0
0
0
0
0
82
0
0
97
115
108
107
111
112
116
106
0
0
0
0
0
0
0
0
0
0
194
186
179
176
206
195
211
218
217
221
217
205
200
183
191
186
173
0
0
0
0
212
171
0
0
0
0
0
0
0
0
227
217
214
215
211
169
0
0
0
0
181
208
233
231
235
226
230
226
224
223
218
217
196
179
175
173
163
117
0
0
0
0
132
114
0
0
212
213
213
212
205
0
236
99
90
100
0
83
87
0
0
0
0
0
0
0
0
0
0
129
237
234
226
200
0
0
0
0
165
171
0
0
0
0
0
0
158
0
0
95
117
112
115
113
111
118
101
0
0
0
0
0
0
0
0
0
0
182
191
186
189
200
208
215
216
217
219
217
208
205
189
0
191
175
170
0
0
0
213
0
174
0
0
204
167
0
0
0
209
205
199
206
187
0
0
0
0
153
225
232
231
227
225
230
226
228
228
226
222
222
198
182
175
158
134
157
0
0
0
124
171
0
0
0
160
170
0
0
0
0
230
0
100
104
88
116
89
0
0
0
0
0
0
0
0
0
0
136
230
228
223
219
215
214
218
211
214
217
0
0
0
0
0
0
0
0
0
98
121
118
123
115
116
121
104
0
0
0
0
0
0
0
0
0
196
169
154
164
181
208
213
219
221
225
222
223
213
200
185
0
175
181
176
199
195
171
202
161
200
217
217
213
154
0
0
226
223
220
214
217
204
0
0
0
0
181
218
221
226
236
232
223
223
234
222
228
238
219
170
0
0
0
170
145
0
0
0
114
135
0
0
166
219
203
198
214
0
0
227
0
96
98
90
126
103
0
0
0
0
0
0
0
128
0
0
0
228
222
235
229
227
230
235
238
236
236
141
0
0
0
0
0
0
0
0
101
126
121
124
116
122
125
89
0
0
0
0
0
0
0
0
199
204
151
0
0
176
216
218
225
225
229
223
219
213
201
180
0
0
177
168
189
193
0
201
169
202
208
207
193
0
0
190
240
230
229
224
227
218
189
155
0
0
156
207
223
221
218
220
222
232
224
230
232
198
0
0
0
0
166
218
0
0
0
0
0
0
0
0
159
199
201
203
206
0
0
225
86
102
103
0
78
83
57
0
0
0
0
0
0
92
0
0
0
217
225
226
230
227
220
216
226
235
222
157
0
0
125
206
0
0
0
0
112
137
129
130
125
133
138
0
0
0
0
0
0
0
0
225
206
194
159
0
0
178
206
212
224
217
220
218
213
210
198
179
0
0
213
195
0
0
170
209
178
180
201
205
157
0
0
216
223
200
203
200
200
195
184
188
0
0
0
199
220
229
225
224
226
223
213
212
0
0
0
201
167
0
217
176
0
135
0
0
113
116
168
175
186
189
183
180
187
0
0
245
100
114
105
91
0
0
45
0
0
0
0
0
0
0
139
211
225
226
223
233
232
229
225
215
187
173
231
143
0
0
205
211
0
0
0
0
125
143
133
136
133
139
145
0
0
0
0
0
0
0
148
231
212
169
177
0
0
181
200
211
225
215
215
219
223
212
200
186
0
0
185
171
0
158
0
153
0
197
183
186
0
0
228
228
216
213
215
227
229
227
229
229
177
0
0
0
0
181
207
205
196
212
185
0
0
0
0
0
0
0
0
0
0
175
0
0
0
164
0
0
199
205
200
201
199
0
0
224
0
0
107
66
60
0
0
0
0
0
0
0
0
0
119
168
214
219
218
227
226
186
149
0
0
0
0
0
0
153
215
180
0
0
0
0
122
163
154
144
148
145
151
0
0
0
0
0
0
174
219
224
198
188
0
0
0
0
206
210
227
216
219
218
211
178
0
0
0
154
0
171
0
0
145
149
182
165
157
171
0
0
205
184
199
199
194
197
190
188
198
209
164
0
0
0
0
145
0
0
0
0
0
0
0
161
0
172
213
221
150
0
172
150
0
0
0
165
0
145
196
199
193
200
184
0
0
227
0
0
0
82
0
0
0
0
0
0
0
0
0
114
0
0
201
217
218
216
0
0
0
0
0
0
0
0
103
185
215
155
0
0
0
0
0
110
171
170
144
148
150
0
0
0
0
0
194
234
212
224
189
210
0
0
0
0
170
201
212
190
203
184
0
0
0
0
0
172
0
135
0
0
0
0
0
0
0
0
0
0
194
0
221
211
211
209
217
212
206
217
163
0
139
138
0
0
0
0
0
0
0
0
191
221
207
202
211
201
184
0
185
139
133
0
0
137
155
166
194
203
180
171
171
0
0
239
0
0
0
63
44
0
0
0
0
0
0
0
0
190
181
0
163
197
202
0
0
0
0
0
0
0
0
0
0
209
231
131
0
0
0
0
0
0
0
0
146
152
143
0
0
0
0
211
233
226
212
220
189
203
179
0
0
0
0
0
0
0
184
0
0
0
0
0
204
188
0
0
0
0
0
0
0
0
0
0
0
232
219
0
0
219
218
227
222
223
230
228
193
0
0
0
0
132
0
0
186
0
194
0
0
223
222
218
208
208
0
0
180
159
0
0
0
0
0
0
168
151
0
0
0
0
0
233
50
0
0
0
41
0
0
0
0
0
0
0
134
193
223
197
0
163
0
0
0
0
0
0
0
97
0
0
0
85
242
120
0
0
0
0
0
0
0
0
0
146
133
0
0
0
204
222
227
225
208
216
189
193
199
0
0
182
0
0
169
0
179
0
0
193
199
219
210
172
0
0
0
0
0
0
144
0
0
0
222
238
200
0
0
0
146
224
201
197
203
203
184
0
0
0
0
162
199
199
222
0
227
231
0
0
0
0
0
0
0
201
165
165
150
0
0
155
0
0
175
162
179
184
0
0
0
235
71
0
0
0
0
0
0
0
0
0
0
86
171
194
215
211
0
0
168
0
162
133
0
140
142
144
89
0
0
91
228
139
0
0
0
0
0
0
0
0
0
121
139
0
0
141
193
222
225
221
205
216
182
207
194
0
0
220
203
199
202
0
0
0
0
207
217
210
193
145
0
0
0
0
121
153
146
0
0
218
245
235
170
0
0
0
0
125
218
228
227
220
226
178
0
0
0
0
193
206
185
0
226
220
200
173
0
170
186
210
228
181
162
165
143
0
0
214
0
0
0
181
184
170
0
0
0
233
0
0
0
0
29
0
0
0
0
0
0
0
202
201
191
212
206
0
0
0
200
225
231
224
220
198
0
0
0
0
0
0
0
0
0
0
0
0
0
0
0
0
137
0
144
174
177
218
210
207
212
209
183
199
192
0
0
168
186
193
212
0
187
170
0
193
220
210
180
142
0
0
0
227
125
0
0
185
246
237
240
233
0
0
0
0
0
0
0
0
181
225
235
230
221
0
0
0
0
0
0
161
221
219
171
0
192
226
225
229
222
194
0
0
0
0
132
224
146
0
0
0
168
159
169
179
187
244
0
35
35
28
0
0
0
0
0
0
0
0
160
220
219
202
210
215
204
160
0
144
195
204
208
159
0
0
0
0
0
0
0
0
0
0
0
0
0
0
0
0
0
0
198
121
180
217
212
211
209
208
178
206
178
200
0
157
190
223
178
188
200
212
0
178
195
193
168
171
0
0
0
0
163
116
0
237
226
239
238
231
0
0
0
0
0
0
0
0
0
0
0
0
122
178
149
126
190
215
214
147
0
0
187
212
222
210
212
215
214
181
161
166
0
0
216
216
189
0
0
0
0
137
117
0
0
227
35
28
0
0
0
0
0
0
0
0
0
0
0
215
209
207
216
181
205
217
195
0
107
0
0
0
0
0
0
0
0
0
0
0
0
0
0
0
0
0
0
0
0
143
191
159
184
220
215
200
217
207
179
204
183
178
0
141
182
194
207
169
180
197
0
181
162
166
164
145
132
0
0
0
0
0
136
207
242
233
229
199
0
0
0
0
0
0
0
0
0
0
0
0
0
0
0
102
179
209
207
181
190
214
211
212
196
0
0
182
210
168
0
0
0
199
233
227
107
0
0
0
0
0
0
0
0
224
25
0
0
0
0
0
0
0
0
0
0
0
0
193
223
223
191
203
170
179
139
164
205
163
0
0
0
0
0
0
0
0
0
0
0
0
0
0
0
0
0
0
0
173
175
133
0
151
0
0
200
210
189
155
0
0
0
0
155
156
190
189
169
163
163
0
0
175
155
123
123
0
0
0
0
0
0
0
240
231
229
171
0
0
0
0
0
0
0
0
0
0
0
0
0
0
0
0
147
191
214
153
165
187
180
0
0
0
174
184
198
0
0
0
0
229
228
227
0
0
0
0
0
0
0
0
0
221
0
0
0
0
0
0
38
0
0
0
0
0
0
136
215
204
227
198
0
0
0
0
113
193
0
0
0
0
0
0
0
0
25
0
21
20
0
0
0
0
0
0
0
124
0
0
119
155
158
121
0
0
0
0
0
0
0
0
141
179
168
0
0
0
0
180
186
185
128
0
0
0
0
0
0
0
0
0
0
151
230
106
0
0
0
0
0
0
0
0
0
0
0
0
0
0
0
0
110
128
207
176
0
0
0
168
0
176
207
188
0
0
0
0
203
236
233
153
0
0
0
0
0
0
0
0
0
211
0
0
0
0
0
30
36
0
0
0
0
0
0
0
209
225
210
151
0
0
0
0
0
77
0
0
0
0
0
0
0
27
33
22
23
23
19
0
0
0
0
0
0
0
0
0
155
215
113
0
0
0
0
0
0
0
0
0
0
146
183
199
160
0
172
200
197
0
0
0
0
0
0
0
0
0
0
0
0
0
0
0
0
0
0
0
0
0
0
0
0
0
0
0
0
0
0
0
104
0
132
181
0
0
0
0
0
210
213
200
0
0
0
165
237
230
226
0
0
0
0
0
0
0
0
0
0
212
0
0
28
29
0
34
37
36
0
0
0
0
0
0
195
208
211
0
0
0
0
0
0
110
0
0
0
0
30
28
0
28
32
23
23
22
21
0
0
0
0
0
0
114
123
105
176
183
0
0
0
0
0
0
0
0
0
0
0
0
157
204
207
221
200
195
0
0
180
0
0
0
0
0
0
0
0
0
0
0
0
0
0
0
0
0
0
0
0
0
0
0
0
0
0
0
0
0
0
0
0
161
172
170
166
185
217
226
210
188
0
0
0
230
235
238
150
0
0
0
0
0
0
0
0
0
0
212
29
31
32
29
0
32
37
39
40
0
0
0
0
0
107
203
185
0
0
0
0
0
0
143
0
0
0
0
0
31
28
29
31
0
20
19
20
0
0
0
0
0
0
131
112
107
158
148
0
0
0
0
0
0
0
0
0
0
239
237
206
0
0
150
0
0
0
220
0
0
0
0
0
0
78
77
0
0
0
0
0
63
55
63
67
32
0
0
0
0
0
0
0
0
0
0
0
0
0
0
0
0
125
168
206
219
225
204
168
0
0
0
237
235
245
154
0
0
0
0
0
0
0
0
0
0
0
213
