P2
# CREATOR: GIMP PNM Filter Version 1.1
128 32
255
244
89
2
0
0
0
0
0
0
0
105
238
255
255
255
255
117
10
0
0
0
0
0
0
0
111
241
255
255
255
212
61
0
0
0
0
0
0
0
69
219
255
255
254
182
18
0
0
0
0
0
0
0
0
32
172
255
255
250
231
119
42
0
0
0
0
0
0
0
0
0
0
0
0
0
0
1
8
36
105
204
249
255
255
255
255
214
70
0
0
0
0
0
0
0
0
0
0
43
207
255
255
255
255
250
125
1
0
0
0
0
0
0
0
0
2
71
247
255
255
255
255
241
88
0
0
0
0
232
72
0
0
0
0
0
0
0
0
137
250
255
255
255
255
103
5
0
0
0
0
0
0
18
169
253
255
255
255
191
44
0
0
0
0
0
0
8
128
247
255
255
249
133
4
0
0
0
0
0
0
0
21
125
248
255
246
184
67
11
0
0
0
0
0
0
0
0
0
0
0
0
0
0
0
0
0
0
0
54
173
253
255
255
255
255
214
80
0
0
0
0
0
0
0
0
0
0
105
241
255
255
255
255
221
61
0
0
0
0
0
0
0
0
0
26
180
255
255
255
255
253
158
2
0
0
0
218
65
0
0
0
0
0
0
0
10
150
255
255
255
255
248
89
0
0
0
0
0
0
0
28
193
253
255
255
255
168
22
0
0
0
0
0
0
19
172
253
255
255
231
86
0
0
0
0
0
0
0
0
72
213
255
246
175
51
3
0
0
0
0
0
0
0
0
0
0
0
0
0
0
0
0
0
0
0
0
0
40
191
255
255
255
255
255
216
66
0
0
0
0
0
0
0
0
0
20
200
255
255
255
255
253
162
15
0
0
0
0
0
0
0
0
0
110
248
255
255
255
255
223
26
0
0
0
208
59
0
0
0
0
0
0
0
16
140
255
255
255
255
227
73
0
0
0
0
0
0
0
43
204
254
255
255
247
117
3
0
0
0
0
0
0
30
199
253
255
255
180
35
0
0
0
0
0
0
0
4
137
247
255
175
50
0
0
0
0
0
0
0
0
0
0
0
0
0
0
0
0
0
0
0
0
0
0
0
1
46
162
251
255
255
255
254
186
26
0
0
0
0
0
0
0
0
1
107
249
255
255
255
255
241
83
0
0
0
0
0
0
0
0
0
51
215
255
255
255
255
244
97
0
0
0
198
40
0
0
0
0
0
0
0
13
149
255
255
255
255
221
72
0
0
0
0
0
0
0
57
222
255
255
255
221
58
0
0
0
0
0
0
2
58
229
255
255
255
135
3
0
0
0
0
0
0
0
56
209
255
229
73
0
0
0
0
0
0
0
0
0
0
0
0
0
0
0
0
0
0
0
0
0
0
0
0
0
2
33
164
251
255
255
255
250
139
12
0
0
0
0
0
0
0
0
31
193
255
255
255
255
255
165
12
0
0
0
0
0
0
0
0
5
142
251
255
255
255
251
176
8
0
0
213
54
0
0
0
0
0
0
0
23
173
255
255
255
255
212
65
0
0
0
0
0
0
0
40
199
255
255
255
205
48
0
0
0
0
0
0
8
99
248
255
255
237
94
0
0
0
0
0
0
0
6
124
250
255
157
15
0
0
0
0
0
0
0
0
0
0
0
0
2
0
0
0
0
0
0
0
0
0
0
0
0
0
0
35
178
251
255
255
255
238
104
4
0
0
0
0
0
0
0
1
100
245
255
255
255
254
225
59
0
0
0
0
0
0
0
0
1
71
247
255
255
255
255
215
34
0
0
205
37
0
0
0
0
0
0
0
31
203
255
255
255
255
214
54
0
0
0
0
0
0
0
25
182
255
255
255
217
64
0
0
0
0
0
0
8
124
254
255
255
197
48
0
0
0
0
0
0
0
48
201
255
236
93
0
0
0
0
0
0
0
0
0
0
36
66
62
51
30
5
0
0
0
0
0
0
0
0
0
0
0
0
0
46
200
255
255
255
255
222
59
0
0
0
0
0
0
0
0
32
195
255
255
255
255
251
147
5
0
0
0
0
0
0
0
0
34
213
255
255
255
255
238
79
0
0
199
27
0
0
0
0
0
0
0
23
205
254
255
255
255
243
67
2
0
0
0
0
0
0
38
196
255
255
255
210
44
0
0
0
0
0
0
2
126
251
255
255
190
37
0
0
0
0
0
0
0
73
226
255
206
46
0
0
0
0
0
0
0
11
45
114
190
215
225
228
197
156
114
42
3
0
0
0
0
0
0
0
0
0
0
0
84
230
255
255
255
255
153
13
0
0
0
0
0
0
0
4
125
251
255
255
255
255
218
57
0
0
0
0
0
0
0
0
7
133
252
255
255
255
249
131
0
0
212
53
0
0
0
0
0
0
0
13
154
255
255
255
255
228
59
0
0
0
0
0
0
0
34
211
255
255
255
209
41
2
0
0
0
0
0
0
144
243
255
255
182
33
0
0
0
0
0
0
0
89
229
255
157
22
0
0
0
0
0
0
23
105
207
245
255
255
255
255
254
250
239
176
67
4
0
0
0
0
0
0
0
0
0
0
3
135
255
255
255
255
239
61
0
0
0
0
0
0
0
0
55
221
255
255
255
255
255
121
5
0
0
0
0
0
0
0
0
71
232
255
255
255
253
181
4
0
192
41
0
0
0
0
0
0
0
18
133
255
255
255
255
202
41
0
0
0
0
0
0
1
52
232
255
255
255
229
63
0
0
0
0
0
0
3
158
251
255
255
172
20
0
0
0
0
0
0
0
117
237
255
150
16
0
0
0
0
0
18
141
240
255
230
159
157
195
224
242
255
255
255
213
120
31
0
0
0
0
0
0
0
0
0
0
46
221
255
255
255
251
160
2
0
0
0
0
0
0
0
16
201
254
255
255
255
255
163
11
0
0
0
0
0
0
0
0
41
203
255
255
255
254
223
32
0
194
37
0
0
0
0
0
0
0
19
165
255
255
255
255
221
67
0
0
0
0
0
0
0
62
228
255
255
255
219
61
0
0
0
0
0
0
9
133
255
255
253
192
16
0
0
0
0
0
0
0
115
246
255
164
18
0
0
0
0
12
139
248
224
153
76
27
17
38
58
78
136
216
255
255
250
178
51
0
0
0
0
0
0
0
0
0
6
128
253
255
255
255
219
48
0
0
0
0
0
0
0
2
124
255
255
255
255
255
226
70
0
0
0
0
0
0
0
0
10
175
252
255
255
255
246
94
0
228
54
2
0
0
0
0
0
0
8
166
254
255
255
255
249
101
0
0
0
0
0
0
0
46
206
255
255
255
201
48
0
0
0
0
0
0
17
130
255
255
252
178
8
0
0
0
0
0
0
5
103
253
252
148
6
0
0
0
0
97
247
195
52
14
4
0
0
0
0
5
18
80
182
245
255
250
188
42
0
0
0
0
0
0
0
0
0
36
198
255
255
255
252
130
4
0
0
0
0
0
0
0
53
229
255
255
255
255
251
146
0
0
0
0
0
0
0
0
0
105
255
255
255
255
252
140
0
249
75
1
0
0
0
0
0
0
0
131
247
255
255
255
255
132
9
0
0
0
0
0
0
17
183
255
255
255
209
56
0
0
0
0
0
0
14
150
255
255
255
161
11
0
0
0
0
0
0
10
125
255
250
154
0
0
0
0
25
175
191
37
0
0
0
0
0
0
0
0
0
0
40
134
231
255
254
164
30
0
0
0
0
0
0
0
0
2
105
242
255
255
255
203
42
0
0
0
0
0
0
0
24
179
255
255
255
255
255
160
8
0
0
0
0
0
0
0
2
57
246
255
255
255
253
174
2
229
61
0
0
0
0
0
0
0
1
85
253
255
255
255
254
164
10
0
0
0
0
0
0
2
152
250
255
255
197
39
0
0
0
0
0
0
3
138
253
255
255
179
29
0
0
0
0
0
0
5
118
255
254
183
18
0
0
0
75
208
91
0
0
9
53
48
1
0
0
0
0
0
0
5
105
245
255
252
143
9
0
0
0
0
0
0
0
0
21
198
254
255
255
247
129
6
0
0
0
0
0
0
3
158
255
255
255
255
255
185
28
0
0
0
0
0
0
0
0
52
211
255
255
255
254
207
8
214
56
0
0
0
0
0
0
0
2
49
229
255
255
255
246
144
5
0
0
0
0
0
0
2
131
250
255
255
226
54
2
0
0
0
0
0
0
107
242
255
255
213
44
0
0
0
0
0
0
0
87
237
255
233
77
0
0
0
86
217
83
0
0
26
127
173
80
8
0
0
0
0
0
0
15
148
255
255
236
70
0
0
0
0
0
0
0
0
0
151
254
255
255
255
200
16
0
0
0
0
0
0
0
121
246
255
255
255
255
225
53
0
0
0
0
0
0
0
0
29
190
255
255
255
255
221
20
233
73
0
0
0
0
0
0
0
0
58
217
255
255
255
244
130
0
0
0
0
0
0
0
9
120
255
255
255
243
105
0
0
0
0
0
0
0
56
228
255
255
241
53
0
0
0
0
0
0
0
23
186
253
255
155
15
0
0
36
181
102
1
0
5
46
134
204
105
0
0
0
0
0
0
0
51
208
255
255
166
2
0
0
0
0
0
0
0
4
93
253
255
255
255
224
35
0
0
0
0
0
0
0
56
229
255
255
255
255
248
78
2
0
0
0
0
0
0
0
4
167
252
255
255
255
225
32
254
109
6
0
0
0
0
0
0
0
62
214
255
255
255
255
185
33
0
0
0
0
0
0
2
90
241
255
255
251
152
5
0
0
0
0
0
0
8
151
255
255
249
107
3
0
0
0
0
0
0
0
105
255
255
221
53
0
0
3
73
64
6
17
7
0
10
165
228
65
0
0
0
0
0
0
4
121
247
255
227
65
0
0
0
0
0
0
0
0
39
211
255
255
255
246
124
2
0
0
0
0
0
0
22
185
255
255
255
255
250
104
2
0
0
0
0
0
0
0
0
125
247
255
255
255
233
58
255
150
9
0
0
0
0
0
0
0
27
200
255
255
255
255
235
73
0
0
0
0
0
0
0
41
200
255
255
255
201
38
0
0
0
0
0
0
1
79
253
255
253
193
33
0
0
0
0
0
0
0
35
201
255
255
137
2
0
0
0
5
0
88
83
2
0
45
238
153
12
0
0
0
0
0
0
51
218
255
255
140
12
0
0
0
0
0
0
0
10
147
255
255
255
255
200
34
0
0
0
0
0
0
23
161
255
255
255
255
250
149
0
0
0
0
0
0
0
0
2
94
251
255
255
255
245
113
253
181
7
0
0
0
0
0
0
0
3
165
251
255
255
255
255
83
3
0
0
0
0
0
0
6
163
253
255
255
236
77
0
0
0
0
0
0
0
49
212
255
255
244
93
1
0
0
0
0
0
0
2
77
198
254
229
83
2
0
0
0
12
117
125
1
0
10
200
208
12
0
0
0
0
0
0
7
159
253
255
199
25
0
0
0
0
0
0
0
0
110
241
255
255
255
221
64
0
0
0
0
0
0
21
168
255
255
255
255
254
181
20
0
0
0
0
0
0
0
2
69
234
255
255
255
251
165
255
202
29
0
0
0
0
0
0
0
4
124
255
255
255
255
255
137
0
0
0
0
0
0
0
0
128
246
255
255
253
104
4
0
0
0
0
0
0
0
135
248
255
255
167
19
0
0
0
0
0
0
0
5
62
179
247
242
149
65
36
40
71
160
90
0
0
12
147
236
45
0
0
0
0
0
0
0
80
250
255
237
66
0
0
0
0
0
0
0
0
75
235
255
255
255
248
84
2
0
0
0
0
0
3
150
251
255
255
255
255
210
55
0
0
0
0
0
0
0
0
45
205
255
255
255
254
201
255
221
64
0
0
0
0
0
0
0
1
69
238
255
255
255
254
197
15
0
0
0
0
0
0
2
94
253
255
255
255
134
5
0
0
0
0
0
0
0
75
239
255
255
243
81
0
0
0
0
0
0
0
0
0
42
131
212
246
227
197
187
218
142
23
0
0
9
132
254
106
0
0
0
0
0
0
2
67
243
255
242
117
0
0
0
0
0
0
0
0
35
218
255
255
255
255
118
4
0
0
0
0
0
0
116
242
255
255
255
255
230
68
0
0
0
0
0
0
0
0
40
192
255
255
255
255
224
255
245
91
0
0
0
0
0
0
0
0
40
196
255
255
255
255
218
57
0
0
0
0
0
0
2
71
244
255
255
255
187
19
0
0
0
0
0
0
0
15
168
255
255
255
193
24
0
0
0
0
0
0
0
0
0
0
39
101
158
182
165
98
25
0
0
0
8
160
255
128
3
0
0
0
0
0
0
90
240
255
253
151
4
0
0
0
0
0
0
0
30
188
255
255
255
243
119
1
0
0
0
0
0
1
71
242
255
255
255
255
218
49
1
0
0
0
0
0
0
0
17
188
254
255
255
255
242
255
255
140
11
0
0
0
0
0
0
0
11
162
255
255
255
255
239
86
0
0
0
0
0
0
0
33
189
255
255
255
241
100
1
0
0
0
0
0
0
0
65
227
255
255
252
133
5
0
0
0
0
0
0
0
0
0
2
7
19
12
0
0
1
0
0
0
18
181
255
142
13
0
0
0
0
0
0
87
232
255
255
162
17
0
0
0
0
0
0
0
60
211
255
255
255
234
89
0
0
0
0
0
0
0
42
229
255
255
255
255
216
35
0
0
0
0
0
0
0
0
0
167
253
255
255
255
251
255
255
225
52
0
0
0
0
0
0
0
1
136
252
255
255
255
254
112
6
0
0
0
0
0
0
0
99
244
255
255
255
187
20
0
0
0
0
0
0
0
6
129
248
255
255
235
107
12
0
0
0
0
0
0
0
0
0
0
0
0
0
0
0
0
0
0
54
211
255
134
12
0
0
0
0
0
0
66
219
255
255
171
29
0
0
0
0
0
0
0
60
216
255
255
255
243
117
0
0
0
0
0
0
0
33
193
255
255
255
255
227
67
0
0
0
0
0
0
0
0
8
144
254
255
255
255
254
255
255
255
102
0
0
0
0
0
0
0
0
68
225
255
255
255
255
148
6
0
0
0
0
0
0
0
56
222
255
255
255
243
87
0
0
0
0
0
0
0
0
31
186
254
255
255
232
116
13
0
0
0
0
0
0
0
0
0
0
0
0
0
0
0
0
9
127
252
245
98
1
0
0
0
0
0
0
72
227
255
255
191
34
0
0
0
0
0
0
0
21
192
255
255
255
255
122
5
0
0
0
0
0
0
42
187
255
255
255
255
227
87
0
0
0
0
0
0
0
0
17
144
255
255
255
255
252
255
255
247
138
0
0
0
0
0
0
0
0
17
166
255
255
255
255
211
40
0
0
0
0
0
0
0
9
165
250
255
255
255
140
9
0
0
0
0
0
0
0
0
71
221
255
255
255
234
120
21
0
0
0
0
0
0
0
0
0
0
0
0
0
0
0
78
218
255
210
56
0
0
0
0
0
0
5
98
253
255
252
185
22
0
0
0
0
0
0
0
25
197
253
255
255
250
90
6
0
0
0
0
0
0
44
208
255
255
255
255
218
70
0
0
0
0
0
0
0
0
17
153
255
255
255
255
251
255
255
255
168
10
0
0
0
0
0
0
0
4
122
255
255
255
255
247
121
0
0
0
0
0
0
0
0
77
255
255
255
255
224
59
0
0
0
0
0
0
0
0
0
104
236
255
255
255
248
162
50
0
0
0
0
0
0
0
0
0
0
0
0
0
81
198
255
254
155
18
0
0
0
0
0
0
11
122
255
255
251
166
5
0
0
0
0
0
0
2
50
217
255
255
255
242
96
1
0
0
0
0
0
0
18
194
255
255
255
255
228
63
0
0
0
0
0
0
0
0
3
143
252
255
255
255
252
255
255
255
213
52
0
0
0
0
0
0
0
2
78
238
255
255
255
255
174
6
0
0
0
0
0
0
0
41
209
255
255
255
250
144
0
0
0
0
0
0
0
0
0
3
105
221
255
255
255
255
198
96
18
0
0
0
0
0
0
0
0
0
27
115
212
255
252
218
85
1
0
0
0
0
0
0
19
149
255
255
251
146
8
0
0
0
0
0
0
1
72
231
255
255
255
227
72
0
0
0
0
0
0
1
19
186
254
255
255
255
236
71
3
0
0
0
0
0
0
0
0
134
245
255
255
255
254
255
255
255
255
136
14
0
0
0
0
0
0
0
16
162
254
255
255
255
214
53
2
0
0
0
0
0
0
5
137
255
255
255
255
228
80
0
0
0
0
0
0
0
0
0
8
76
205
255
255
255
253
223
147
80
47
15
7
0
4
32
30
98
188
235
255
255
203
88
16
0
0
0
0
0
0
0
33
181
255
255
241
109
3
0
0
0
0
0
0
1
109
249
255
255
255
213
59
0
0
0
0
0
0
0
45
206
255
255
255
255
222
47
0
0
0
0
0
0
0
0
1
137
249
255
255
255
254
255
255
255
255
199
20
0
0
0
0
0
0
0
0
79
232
255
255
255
253
132
8
0
0
0
0
0
0
0
76
237
255
255
255
254
195
65
11
0
0
0
0
0
0
0
0
6
71
165
225
252
255
255
251
232
201
170
163
133
140
174
205
238
254
255
251
206
83
8
0
0
0
0
0
0
0
0
76
221
255
255
234
78
2
0
0
0
0
0
0
2
132
250
255
255
255
194
48
0
0
0
0
0
0
0
57
212
255
255
255
255
210
42
0
0
0
0
0
0
0
0
11
136
255
255
255
255
249
255
255
255
255
217
29
0
0
0
0
0
0
0
0
17
177
252
255
255
255
197
26
0
0
0
0
0
0
0
14
133
249
255
255
255
251
211
103
8
0
0
0
0
0
0
0
0
0
18
78
184
240
255
255
255
255
255
248
246
255
255
255
255
255
214
138
49
0
0
0
0
0
0
0
0
0
5
141
252
255
255
213
43
1
0
0
0
0
2
0
3
143
245
255
255
255
168
30
0
0
0
0
0
0
0
79
219
255
255
255
255
197
46
0
0
0
0
0
0
0
0
20
149
255
255
255
255
237
255
255
255
255
244
117
0
0
0
0
0
0
0
0
1
113
255
255
255
255
246
95
0
0
0
0
0
0
0
0
23
182
253
255
255
255
255
226
57
0
0
0
0
0
0
0
0
0
0
0
31
95
149
199
226
245
251
255
255
255
239
239
220
129
61
5
0
0
0
0
0
0
0
0
0
0
34
192
255
255
249
140
10
0
0
0
0
0
2
0
16
174
252
255
255
255
139
12
0
0
0
0
0
0
0
104
235
255
255
255
255
196
44
0
0
0
0
0
0
0
0
19
159
255
255
255
255
224
