P2
# CREATOR: GIMP PNM Filter Version 1.1
128 32
255
0
0
0
0
0
0
0
0
0
0
0
0
0
0
0
0
0
0
0
0
0
0
0
0
0
0
0
0
0
0
0
0
0
0
0
0
0
0
0
0
0
0
0
0
0
0
0
0
0
0
0
0
0
0
0
0
0
0
0
0
0
0
0
0
0
0
0
0
0
0
0
0
0
0
0
0
0
0
0
0
0
0
0
0
0
0
0
0
0
0
0
0
0
0
0
0
0
0
0
0
0
0
0
0
0
0
0
0
0
0
0
0
0
0
0
0
0
0
0
0
0
0
0
0
0
0
0
0
0
0
0
0
0
0
0
0
0
0
0
0
0
0
0
0
0
0
0
0
0
0
0
0
0
0
0
0
0
0
0
0
0
0
0
0
0
0
0
0
0
0
0
0
0
0
0
0
0
0
0
0
0
0
0
0
0
0
0
0
0
0
0
0
0
0
0
0
0
0
0
0
0
0
0
0
0
0
0
0
0
0
0
0
0
0
0
0
0
0
0
0
0
0
0
0
0
0
0
0
0
0
0
0
0
0
0
0
0
0
0
0
0
0
0
0
0
0
0
0
0
0
0
0
0
0
0
0
0
0
0
0
0
0
0
0
0
0
0
0
0
0
0
0
0
0
0
0
0
0
0
0
0
0
0
0
0
0
0
0
0
0
0
0
0
0
0
0
0
0
0
0
0
0
0
0
0
0
0
0
0
0
0
0
0
0
0
0
0
0
0
0
0
0
0
0
0
0
0
0
0
0
0
0
0
0
0
0
0
0
0
0
0
0
0
0
0
0
0
0
0
0
0
0
0
0
0
0
0
0
0
0
0
0
0
0
0
0
0
0
0
0
0
0
0
0
0
0
0
0
0
0
0
0
0
0
0
0
0
0
0
0
0
0
0
0
0
0
0
0
0
0
0
0
0
0
0
0
0
0
0
0
0
0
0
0
0
0
0
0
0
0
0
0
0
0
0
0
0
0
0
0
0
0
0
0
0
0
0
0
0
0
0
0
0
0
0
0
0
0
0
0
0
0
0
0
0
0
0
0
0
0
0
0
0
0
0
0
0
0
0
0
0
0
0
0
0
0
0
0
0
0
0
0
0
0
0
0
0
0
0
0
0
0
0
0
0
0
0
0
0
0
0
0
0
0
0
0
0
0
0
0
0
0
0
0
0
0
0
0
0
0
0
0
0
0
0
0
0
0
0
0
0
0
0
0
0
0
0
0
0
0
0
0
0
0
0
0
0
0
0
0
0
0
0
0
0
0
0
0
0
0
0
0
0
0
0
0
0
0
0
0
0
0
0
0
0
0
0
0
0
0
0
0
0
0
0
0
0
0
0
0
0
0
0
0
0
0
0
0
0
0
0
0
0
0
0
0
0
0
0
0
0
0
0
0
0
0
0
0
0
0
0
0
0
0
0
0
0
0
0
0
0
0
0
0
0
0
0
0
0
0
0
0
0
0
0
0
0
0
0
0
0
0
0
0
0
0
0
0
0
0
0
0
0
0
0
0
0
0
0
0
0
0
0
0
0
0
0
0
0
0
0
0
0
0
0
0
0
0
0
0
0
0
0
0
0
0
0
0
0
0
0
0
0
0
0
0
0
0
0
0
0
0
0
0
0
0
0
0
0
0
0
0
0
0
0
0
0
0
0
0
0
0
0
0
0
0
0
0
0
0
0
0
0
0
0
0
0
0
0
0
0
0
0
0
0
0
0
0
0
0
0
0
0
0
0
0
0
0
0
0
0
0
0
0
0
0
0
0
0
0
0
0
0
0
0
0
0
0
0
0
0
0
0
0
0
0
0
0
0
0
0
0
0
0
0
0
0
0
0
0
0
0
0
0
0
0
0
0
0
0
0
0
0
0
0
0
0
2
38
71
72
65
61
69
74
48
8
0
0
0
0
0
0
0
0
0
0
0
0
0
0
0
0
0
0
0
0
0
0
0
0
0
0
0
0
0
0
0
0
0
0
0
0
0
0
0
0
0
0
0
0
0
0
0
0
0
0
0
0
0
0
0
0
0
0
0
0
0
0
0
0
0
0
0
0
0
0
0
0
0
0
0
0
0
0
0
0
0
0
0
0
0
0
0
0
0
0
0
0
0
0
0
0
0
0
0
0
0
0
0
0
0
0
0
0
0
0
0
0
0
0
0
0
0
42
86
58
26
8
14
13
3
0
18
61
48
0
0
0
0
0
0
0
0
0
0
0
0
0
0
0
0
0
0
0
0
0
0
0
0
0
0
0
0
0
0
0
0
0
0
0
0
0
0
0
0
0
0
0
0
0
0
0
0
0
0
0
0
0
0
0
0
0
0
0
0
0
0
0
0
0
0
0
0
0
0
0
0
0
0
0
0
0
0
0
0
0
0
0
0
0
0
0
0
0
0
0
0
0
0
0
0
0
0
0
0
0
0
0
0
0
0
0
0
0
0
0
0
0
0
0
68
71
14
9
9
5
15
22
5
0
14
7
31
70
9
0
0
0
0
0
0
0
0
0
0
0
0
0
0
0
0
0
0
0
0
0
0
0
0
0
0
0
0
0
0
0
0
0
0
0
0
0
0
0
0
0
0
0
0
0
0
0
0
0
0
0
0
0
0
0
0
0
0
0
0
0
0
0
0
0
0
0
0
0
0
0
0
0
0
0
0
0
0
0
0
0
0
0
0
0
0
0
0
0
0
0
0
0
0
0
0
0
0
0
0
0
0
0
0
0
0
0
0
0
0
0
0
66
68
8
0
0
0
0
0
0
0
0
56
92
33
21
75
5
0
0
0
0
0
0
0
0
0
0
0
0
0
0
0
0
0
0
0
0
0
0
0
0
0
0
0
0
0
0
0
0
0
0
0
0
0
0
0
0
0
0
0
0
0
0
0
0
0
0
0
0
0
0
0
0
182
227
214
142
182
227
182
0
142
182
142
182
118
0
182
227
182
163
142
142
118
163
227
182
163
163
182
182
237
237
182
163
227
214
33
0
0
0
0
0
0
142
33
0
0
0
0
0
0
0
0
0
0
0
36
89
70
68
17
0
0
0
0
0
2
0
7
71
90
25
39
67
0
0
0
0
0
0
0
0
0
0
0
0
0
182
163
182
142
0
0
0
0
0
0
0
0
163
0
0
0
0
0
182
227
199
182
0
0
0
118
182
237
182
0
0
0
0
0
0
0
0
0
0
0
0
0
33
0
227
237
0
0
92
237
92
0
163
250
245
0
0
0
199
118
0
250
182
118
214
254
118
63
199
182
0
182
254
0
0
92
255
237
0
0
0
0
0
0
245
182
0
0
0
0
0
0
0
0
0
0
2
81
78
115
72
2
0
0
0
4
5
3
2
0
0
31
24
14
86
23
0
0
0
0
0
0
0
0
0
0
142
237
254
33
0
163
254
92
0
0
0
0
0
33
255
92
0
0
0
0
33
254
214
0
0
0
0
0
142
254
163
0
0
0
0
0
0
0
0
0
0
0
0
0
0
0
250
237
0
0
0
0
33
0
0
199
255
182
0
163
163
0
63
142
0
0
163
254
118
0
33
163
0
182
254
0
0
0
245
250
33
0
0
0
0
63
255
227
0
0
0
0
0
0
0
0
0
0
26
85
68
67
12
0
0
0
7
13
9
11
7
0
7
24
6
10
64
72
0
0
0
0
0
0
0
0
0
0
0
199
254
0
0
0
250
255
0
0
0
0
0
163
254
182
0
0
0
0
33
254
182
0
0
0
0
0
118
255
118
0
0
0
0
0
0
0
0
0
0
0
0
0
0
0
250
237
0
0
33
163
0
0
0
0
245
245
214
182
0
0
0
0
0
0
182
255
92
0
0
0
0
237
237
0
0
0
254
250
0
0
0
0
0
237
214
254
63
0
0
0
0
0
0
0
0
0
52
80
31
2
0
0
0
3
16
34
36
33
18
0
3
19
17
10
55
101
0
0
0
0
0
0
0
0
0
0
0
227
255
63
0
0
250
250
0
0
0
0
92
227
237
245
0
0
0
0
118
250
182
0
0
0
0
0
182
250
118
0
0
0
0
0
0
0
0
0
0
0
0
0
0
0
255
245
163
182
245
118
0
0
0
0
92
250
250
0
0
0
0
0
0
0
182
227
142
0
0
0
0
227
227
163
33
182
182
33
0
0
0
0
142
33
63
250
214
63
0
0
0
0
0
0
0
0
67
89
22
0
0
0
0
3
28
89
144
90
31
14
9
2
2
10
62
107
0
0
0
0
0
0
0
0
0
0
0
214
237
182
118
237
237
118
0
0
0
0
163
0
163
250
182
33
0
0
0
255
214
0
0
0
0
0
118
254
182
0
0
0
0
0
0
0
0
0
0
0
0
0
0
63
255
214
0
0
182
118
0
0
0
0
0
214
227
227
0
0
0
0
0
0
182
227
142
0
0
0
0
214
237
118
214
245
142
0
0
0
0
0
199
33
142
237
255
142
0
0
0
0
0
0
0
0
76
97
52
9
0
0
0
6
36
208
255
212
56
33
20
0
0
45
86
106
0
0
0
0
0
0
0
0
0
0
0
214
250
63
63
33
214
237
0
0
0
33
182
63
163
250
255
33
0
0
33
255
182
0
0
0
0
0
142
255
118
0
0
0
0
0
0
0
0
0
0
0
0
0
0
118
237
163
0
0
63
63
0
0
0
0
182
63
199
199
92
0
0
0
0
0
182
237
163
0
0
0
0
182
245
0
92
237
237
0
0
0
0
63
182
182
142
142
182
92
0
0
0
0
0
0
0
0
76
103
81
59
30
4
1
8
38
170
255
176
52
17
17
2
45
98
103
111
0
0
0
0
0
0
0
0
0
0
0
182
250
0
0
0
63
254
182
0
0
142
182
142
182
142
182
33
0
0
92
227
163
0
0
0
0
0
163
214
118
0
0
0
0
0
0
0
0
0
0
0
0
0
0
92
254
199
0
0
0
0
92
0
0
163
199
0
63
250
245
33
0
0
0
0
227
250
92
0
0
0
0
227
227
92
0
214
255
163
0
0
0
199
0
0
0
0
254
254
0
0
0
0
0
0
0
0
67
106
95
90
93
80
58
39
44
83
101
72
28
12
12
31
98
112
111
120
0
0
0
0
0
0
0
0
0
0
0
182
254
92
0
0
33
237
237
0
0
199
0
0
0
92
255
227
0
0
0
250
182
0
0
0
63
0
118
245
118
0
0
0
63
0
0
0
0
0
0
0
0
0
0
33
254
237
0
0
0
163
182
0
92
237
0
0
0
118
255
227
0
0
0
0
182
255
92
0
0
0
0
214
250
118
0
33
250
254
33
0
0
237
33
0
0
0
199
255
163
0
0
0
0
0
0
0
51
107
104
103
108
120
134
147
170
208
206
156
122
102
98
112
121
117
116
123
0
0
0
0
0
0
0
0
0
0
0
182
254
118
0
0
163
245
182
0
63
227
0
0
0
0
245
255
63
0
92
250
214
0
0
0
227
0
163
254
163
0
0
33
214
0
0
0
0
0
0
0
0
0
0
182
254
245
199
182
237
255
92
142
227
227
182
33
63
182
227
245
214
63
0
142
227
237
182
63
0
0
182
227
237
199
63
0
163
237
245
182
214
227
182
33
0
92
214
237
250
163
0
0
0
0
0
0
28
101
111
109
115
126
141
165
196
255
255
244
185
156
142
130
124
121
125
98
0
0
0
0
0
0
0
0
0
0
163
245
254
214
63
163
237
182
0
142
227
214
182
0
0
142
227
237
245
163
182
255
237
182
182
245
254
92
214
254
227
182
199
250
227
0
0
0
0
0
0
0
0
0
0
33
118
33
33
118
0
0
0
0
0
0
0
0
0
0
33
63
0
0
0
0
0
63
92
0
0
0
0
0
0
0
33
0
0
0
0
0
0
0
33
33
0
0
0
0
0
0
0
0
0
0
0
0
5
81
119
116
121
128
137
155
182
233
255
207
168
150
139
133
126
124
140
43
0
0
0
0
0
0
0
0
0
0
0
0
0
33
118
92
0
0
0
0
0
0
63
0
0
0
0
0
0
0
63
118
0
63
92
0
0
0
92
92
33
63
63
0
0
0
0
0
0
0
0
0
0
0
0
0
0
0
0
0
0
0
0
0
0
0
0
0
0
0
0
0
0
0
0
0
0
0
0
0
0
0
0
0
0
0
0
0
0
0
0
0
0
0
0
0
0
0
0
0
0
0
0
0
0
0
0
0
0
39
111
125
126
128
135
148
167
202
214
189
166
152
141
130
129
133
109
0
0
0
0
0
0
0
0
0
0
0
0
0
0
0
0
0
0
0
0
0
0
0
0
0
0
0
0
0
0
0
0
0
0
0
0
0
0
0
0
0
0
0
0
0
0
0
0
0
0
0
0
0
0
0
0
0
0
0
0
0
0
0
0
0
0
0
0
0
0
0
0
0
0
0
0
0
0
0
0
0
0
0
0
0
0
0
0
0
0
0
0
0
0
0
0
0
0
0
0
0
0
0
0
0
0
0
0
0
0
0
73
122
130
129
133
140
155
173
177
170
155
148
139
132
134
139
17
0
0
0
0
0
0
0
0
0
0
0
0
0
0
0
0
0
0
0
0
0
0
0
0
0
0
0
0
0
0
0
0
0
0
0
0
0
0
0
0
0
0
0
0
0
0
0
0
0
0
0
0
0
0
0
0
0
0
0
0
0
0
0
0
0
0
0
0
0
0
0
0
0
0
0
0
0
0
0
0
0
0
0
0
0
0
0
0
0
0
0
0
0
0
0
0
0
0
0
0
0
0
0
0
0
0
0
0
0
0
0
9
91
131
136
135
136
146
155
156
156
152
144
140
144
137
38
0
0
0
0
0
0
0
0
0
0
0
0
0
0
0
0
0
0
0
0
0
0
0
0
0
0
0
0
0
0
0
0
0
0
0
0
0
0
0
0
0
0
0
0
0
0
0
0
0
0
0
0
0
0
0
0
0
0
0
0
0
0
0
0
0
0
0
0
0
0
0
0
0
0
0
0
0
0
0
0
0
0
0
0
0
0
0
0
0
0
0
0
0
0
0
0
0
0
0
0
0
0
0
0
0
0
0
0
0
0
0
0
0
5
82
141
145
147
148
153
154
155
152
151
160
114
19
0
0
0
0
0
0
0
0
0
0
0
0
0
0
0
0
0
0
0
0
0
0
0
0
0
0
0
0
0
0
0
0
0
0
0
0
0
0
0
0
0
0
0
0
0
0
0
0
0
0
0
0
0
0
0
0
0
0
0
0
0
0
0
0
0
0
0
0
0
0
0
0
0
0
0
0
0
0
0
0
0
0
0
0
0
0
0
0
0
0
0
0
0
0
0
0
0
0
0
0
0
0
0
0
0
0
0
0
0
0
0
0
0
0
0
0
32
93
137
156
157
158
161
156
116
51
0
0
0
0
0
0
0
0
0
0
0
0
0
0
0
0
0
0
0
0
0
0
0
0
0
0
0
0
0
0
0
0
0
0
0
0
0
0
0
0
0
0
0
0
0
0
0
0
0
0
0
0
0
0
0
0
0
0
0
0
0
0
0
0
0
0
0
0
0
0
0
0
0
0
0
0
0
0
0
0
0
0
0
0
0
0
0
0
0
0
0
0
0
0
0
0
0
0
0
0
0
0
0
0
0
0
0
0
0
0
0
0
0
0
0
0
0
0
0
0
0
0
0
0
0
0
0
0
0
0
0
0
0
0
0
0
0
0
0
0
0
0
0
0
0
0
0
0
0
0
0
0
0
0
0
0
0
0
0
0
0
0
0
0
0
0
0
0
0
0
0
0
0
0
0
0
0
0
0
0
0
0
0
0
0
0
0
0
0
0
0
0
0
0
0
0
0
0
0
0
0
0
0
0
0
0
0
0
0
0
0
0
0
0
0
0
0
0
0
0
0
0
0
0
0
0
0
0
0
0
0
0
0
0
0
0
0
0
0
0
0
0
0
0
0
0
0
0
0
0
0
0
0
0
0
0
0
0
0
0
0
0
0
0
0
0
0
0
0
0
0
0
0
0
0
0
0
0
0
0
0
0
0
0
0
0
0
0
0
0
0
0
0
0
0
0
0
0
0
0
0
0
0
0
0
0
0
0
0
0
0
0
0
0
0
0
0
0
0
0
0
0
0
0
0
0
0
0
0
0
0
0
0
0
0
0
0
0
0
0
0
0
0
0
0
0
0
0
0
0
0
0
0
0
0
0
0
0
0
0
0
0
0
0
0
0
0
0
0
0
0
0
0
0
0
0
0
0
0
0
0
0
0
0
0
0
0
0
0
0
0
0
0
0
0
0
0
0
0
0
0
0
0
0
0
0
0
0
0
0
0
0
0
0
0
0
0
0
0
0
0
0
0
0
0
0
0
0
0
0
0
0
0
0
0
0
0
0
0
0
0
0
0
0
0
0
0
0
0
0
0
0
0
0
0
0
0
0
0
0
0
0
0
0
0
0
0
0
0
0
0
0
0
0
0
0
0
0
0
0
0
0
0
0
0
0
0
0
0
0
0
0
0
0
0
0
0
0
0
0
0
0
0
0
0
0
0
0
0
0
0
0
0
0
0
0
0
0
0
0
0
0
0
0
0
0
0
0
0
0
0
0
0
0
0
0
0
0
0
0
0
0
0
0
0
0
0
0
0
0
0
0
0
0
0
0
0
0
0
0
0
0
0
0
0
0
0
0
0
0
0
0
0
0
0
0
0
0
0
0
0
0
0
0
0
0
0
0
0
0
0
0
0
0
0
0
0
0
0
0
0
0
0
0
0
0
0
0
0
0
0
0
0
0
0
0
0
0
0
0
0
0
0
0
0
0
0
0
0
0
0
0
0
0
0
0
0
0
0
0
0
0
0
0
0
0
0
0
0
0
0
0
0
0
0
0
0
0
0
0
0
0
0
0
0
0
0
0
0
0
0
0
0
0
0
0
0
0
0
0
0
0
0
0
0
0
0
0
0
0
0
0
0
0
0
0
0
0
0
0
0
0
0
0
0
0
0
0
0
0
0
0
0
0
0
0
0
0
0
0
0
0
0
0
0
0
0
0
0
0
0
0
0
0
0
0
0
0
0
0
0
0
0
0
0
0
0
0
0
0
0
0
0
0
0
0
0
0
0
0
0
0
0
0
0
0
0
0
0
0
0
0
0
0
0
0
0
0
0
0
0
0
0
0
0
0
0
0
0
0
0
0
0
0
0
0
0
0
0
0
0
0
0
0
0
0
0
0
0
0
0
0
0
0
0
0
0
0
0
0
0
0
0
0
0
0
0
