P2
# CREATOR: GIMP PNM Filter Version 1.1
128 32
255
0
0
0
0
0
0
0
0
0
0
0
0
0
0
0
0
0
1
46
183
252
255
255
255
255
255
255
206
56
0
0
0
0
0
0
0
0
0
0
0
0
0
0
0
0
0
0
0
2
63
196
255
255
255
255
224
152
58
2
0
0
0
0
0
0
0
0
0
0
0
0
0
0
0
0
0
0
0
0
0
0
0
0
0
0
0
0
0
0
0
0
0
0
0
0
0
0
0
0
0
0
0
0
0
0
0
0
3
88
192
236
254
255
255
255
255
255
255
255
255
253
244
189
58
0
0
0
0
0
0
0
0
0
0
0
0
0
0
0
0
0
0
0
0
0
1
35
181
255
255
255
255
255
255
255
229
98
8
0
0
0
0
0
0
0
0
0
0
0
0
0
0
0
0
0
0
0
40
184
255
255
255
249
153
37
3
0
0
0
0
0
0
0
0
0
0
0
0
0
0
0
0
0
0
0
0
0
0
0
0
0
0
0
0
0
0
0
0
0
0
0
0
0
0
0
0
0
0
0
0
0
0
0
0
0
0
9
42
134
231
255
255
255
255
255
255
255
255
255
255
254
136
11
0
0
0
0
0
0
0
0
0
0
0
0
0
0
0
0
0
0
0
0
3
78
218
255
255
255
255
255
255
255
241
124
4
0
0
0
0
0
0
0
0
0
0
0
0
0
0
0
0
0
0
1
103
223
255
255
255
225
85
7
0
0
0
0
0
0
0
0
0
0
0
0
0
0
0
0
0
0
0
0
0
0
0
0
0
0
0
0
0
0
0
0
0
0
0
0
0
0
0
0
0
0
0
0
0
0
0
0
0
0
0
0
0
37
151
244
255
255
255
255
255
255
255
255
255
255
216
52
0
0
0
0
0
0
0
0
0
0
0
0
0
0
0
0
0
0
0
0
1
72
207
255
255
255
255
255
255
255
218
78
0
0
0
0
0
0
0
0
0
0
0
0
0
0
0
0
0
0
0
17
163
252
255
255
254
183
33
1
0
0
0
0
0
0
0
0
0
0
0
0
0
0
0
0
0
0
0
0
0
0
0
0
0
0
0
0
0
0
0
0
0
0
0
0
0
0
0
0
0
0
0
0
0
0
0
0
0
0
0
0
0
2
43
183
255
255
255
255
255
255
255
255
255
255
254
139
29
0
0
0
0
0
0
0
0
0
0
0
0
0
0
0
0
0
0
0
0
37
179
255
255
255
255
255
255
255
210
78
4
0
0
0
0
0
0
0
0
0
0
0
0
0
0
0
0
0
0
31
162
255
255
255
254
183
42
0
0
0
0
0
0
0
0
0
0
0
0
0
0
0
14
3
0
2
14
5
1
0
0
0
0
0
0
0
0
0
0
0
0
0
0
0
0
0
0
0
0
0
0
0
0
0
0
0
0
0
0
0
0
0
5
103
221
250
255
255
255
255
255
255
255
255
255
237
110
3
0
0
0
0
0
0
0
0
0
0
0
0
0
0
0
0
0
0
0
9
148
245
255
255
255
255
255
255
250
135
18
0
0
0
0
0
0
0
0
0
0
0
0
0
0
0
0
0
0
12
119
236
255
255
255
235
105
0
0
0
0
0
0
0
0
0
0
0
0
0
15
61
122
112
70
107
136
100
49
10
0
0
0
0
2
0
0
0
0
0
0
0
0
0
0
0
0
0
0
0
0
0
0
0
0
0
0
0
0
0
0
0
0
12
85
209
255
255
255
255
255
255
255
255
255
255
211
91
5
0
0
0
0
0
0
0
0
0
0
0
0
0
0
0
0
0
0
0
74
220
255
255
255
255
255
255
255
133
12
0
0
0
0
0
0
0
0
0
0
0
0
0
0
0
0
0
0
11
121
238
255
255
255
226
96
0
0
0
0
0
0
0
0
0
0
5
17
74
143
203
255
242
220
228
250
241
200
142
79
35
27
49
34
0
0
0
0
0
0
0
0
0
0
0
0
0
0
0
0
0
0
0
0
0
0
0
0
0
0
0
0
0
9
120
237
255
255
255
255
255
255
255
255
255
253
192
46
0
0
0
0
0
0
0
0
0
0
0
0
0
0
0
0
0
0
7
80
235
255
255
255
255
255
255
245
136
15
0
0
0
0
0
0
0
0
0
0
0
0
0
0
0
0
0
0
25
168
251
255
255
255
179
49
0
0
0
0
0
0
0
0
4
26
74
168
230
255
255
254
255
255
255
255
255
255
253
228
178
157
177
132
19
0
0
0
0
0
0
0
0
0
0
0
0
0
0
0
0
0
0
0
0
0
0
0
0
0
0
0
0
0
25
144
242
255
255
255
255
255
255
255
255
255
247
113
0
0
0
0
0
0
0
0
0
0
0
0
0
0
0
0
0
0
9
106
239
255
255
255
255
255
255
253
185
46
0
0
0
0
0
0
0
0
0
0
0
0
0
0
0
0
0
0
9
113
231
254
255
244
117
14
0
0
0
0
0
0
0
16
93
173
241
255
203
186
217
200
164
171
217
241
251
254
255
255
255
255
255
222
130
49
21
6
1
0
0
0
0
0
0
0
0
0
0
0
0
0
0
0
0
0
0
0
0
0
0
0
0
0
0
44
171
249
255
255
255
255
255
255
255
255
255
188
0
0
0
0
0
0
0
0
0
0
0
0
0
0
0
0
0
0
0
35
181
255
255
255
255
255
255
255
177
36
0
0
0
0
0
0
0
0
0
0
0
0
0
0
0
0
0
0
2
69
228
255
255
226
77
1
0
0
0
0
0
0
0
83
226
252
202
120
51
30
65
62
23
32
75
134
179
221
251
255
255
255
255
255
246
205
149
98
52
8
0
0
0
0
0
0
0
0
0
0
0
0
0
0
0
0
0
0
0
0
0
0
0
0
0
1
64
207
255
255
255
255
255
255
255
255
255
243
0
0
0
0
0
0
0
0
0
0
0
0
0
0
0
0
0
0
0
0
98
224
255
255
255
255
255
255
182
40
2
0
0
0
0
0
0
0
0
0
0
0
0
0
0
0
0
0
9
111
249
255
255
242
142
19
0
0
0
0
0
0
12
136
225
129
29
12
0
0
0
0
1
0
1
12
42
82
143
192
227
247
255
255
255
255
252
236
208
126
18
0
0
0
0
0
0
0
0
0
0
0
0
0
0
0
0
0
0
0
0
0
0
0
0
0
6
143
255
255
255
255
255
255
255
255
255
255
0
0
0
0
0
0
0
0
0
0
0
0
0
0
0
0
0
0
0
0
42
207
254
255
255
255
255
255
238
105
5
0
0
0
0
0
0
0
0
0
0
0
0
0
0
0
0
0
2
75
218
255
255
252
169
23
0
0
0
0
0
0
19
102
116
12
1
0
0
0
0
0
0
0
0
0
0
0
18
55
106
177
245
255
255
255
255
255
255
211
67
4
0
0
0
0
0
0
0
0
0
0
0
0
0
0
0
0
0
0
0
0
0
0
0
0
0
64
231
255
255
255
255
255
255
255
255
254
0
0
0
0
0
0
0
0
0
0
0
0
0
0
0
0
0
0
0
0
88
241
255
255
255
255
255
255
255
139
13
0
0
0
0
0
0
0
0
0
0
0
0
0
0
0
0
0
0
6
138
246
255
247
135
11
0
0
0
0
0
0
6
27
21
0
0
0
0
0
0
0
0
0
0
0
0
0
0
0
10
77
201
255
255
255
255
255
255
248
188
121
43
2
0
0
0
0
0
0
0
0
0
0
0
0
0
0
0
0
0
0
0
0
0
0
0
19
154
254
255
255
255
255
255
255
255
255
0
0
0
0
0
0
0
0
0
0
0
0
0
0
0
0
0
0
0
4
72
217
255
255
255
255
255
255
250
151
20
0
0
0
0
0
0
0
0
0
0
0
0
0
0
0
0
0
0
0
58
215
254
255
196
54
1
0
0
0
0
0
0
0
0
0
0
0
0
0
0
0
0
0
0
0
0
0
0
0
0
14
106
192
235
253
255
255
255
255
251
234
145
27
0
0
0
0
0
0
0
0
0
0
0
0
0
0
0
0
0
0
0
0
0
0
0
0
78
226
255
255
255
255
255
255
255
255
0
0
0
0
0
0
0
0
0
0
0
0
0
0
0
0
0
0
0
0
17
142
252
255
255
255
255
255
253
182
20
0
0
0
0
0
0
0
0
0
0
0
0
0
0
0
0
0
0
0
32
190
255
255
241
97
5
0
0
0
0
0
0
0
0
0
0
0
0
0
0
0
0
0
0
0
0
0
0
0
0
0
0
31
80
184
255
255
255
255
255
255
230
109
9
0
0
0
0
0
0
0
0
0
0
0
0
0
0
0
0
0
0
0
0
0
0
0
11
159
255
255
255
255
255
255
255
255
0
0
0
0
0
0
0
0
0
0
0
0
0
0
0
0
0
0
0
0
1
63
217
255
255
255
255
255
255
217
69
0
0
0
0
0
0
0
0
0
0
0
0
0
0
0
0
0
0
2
31
162
254
255
238
121
9
0
0
0
0
0
0
0
0
0
0
0
0
0
0
0
0
0
0
0
0
0
0
0
0
0
0
2
5
85
220
255
255
255
255
255
255
210
60
0
0
0
0
0
0
0
0
0
0
0
0
0
0
0
0
0
0
0
0
0
0
0
2
79
228
255
255
255
255
255
255
255
0
0
0
0
0
0
0
0
0
0
0
0
0
0
0
0
0
0
0
0
0
8
144
248
255
255
255
255
255
253
147
12
0
0
0
0
0
0
0
0
0
0
0
0
0
0
0
0
0
0
11
107
231
255
246
134
0
0
0
0
0
0
0
0
0
0
0
14
67
62
25
2
0
0
0
0
0
0
0
0
0
0
0
0
0
13
117
232
255
255
255
255
255
242
160
65
10
0
0
0
0
0
0
0
0
0
0
0
0
0
0
0
0
0
0
0
0
0
0
25
162
255
255
255
255
255
255
255
0
0
0
0
0
0
0
0
0
0
0
0
0
0
0
0
0
0
0
0
0
0
60
219
255
255
255
255
255
255
220
68
0
0
0
0
0
0
0
0
0
0
0
0
0
0
0
0
0
0
0
34
155
248
251
173
53
11
0
0
0
0
0
0
0
0
0
35
159
209
152
79
12
0
0
0
0
0
0
0
0
0
0
0
0
0
27
146
244
255
255
255
255
255
255
190
49
1
0
0
0
0
0
0
0
0
0
0
0
0
0
0
0
0
0
0
0
0
0
3
91
234
255
255
255
255
255
255
0
0
0
0
0
0
0
0
0
0
0
0
0
0
0
0
0
0
0
0
0
0
15
161
254
255
255
255
255
255
255
147
25
0
0
0
0
0
0
0
0
0
0
0
0
0
0
0
0
0
0
0
37
174
255
243
187
80
5
0
0
0
0
0
0
0
0
19
98
182
222
211
81
0
0
0
0
0
0
0
0
0
0
0
0
0
0
40
174
255
255
255
255
255
255
251
119
4
0
0
0
0
0
0
0
0
0
0
0
0
0
0
0
0
0
0
0
0
0
0
42
189
255
255
255
255
255
255
0
0
0
0
0
0
0
0
0
0
0
0
0
0
0
0
0
0
0
0
0
0
1
78
238
255
255
255
255
255
255
235
119
2
0
0
0
0
0
0
0
0
0
0
0
0
0
0
0
0
0
0
0
82
218
255
255
174
54
5
0
0
0
0
0
0
0
1
6
17
64
191
199
55
0
0
0
0
0
0
0
0
0
0
0
0
0
1
97
245
255
255
255
255
255
255
197
48
0
0
0
0
0
0
0
0
0
0
0
0
0
0
0
0
0
0
0
0
0
0
25
169
254
255
255
255
255
255
15
0
0
0
0
0
0
0
0
0
0
0
0
0
0
0
0
0
0
0
0
0
0
22
168
255
255
255
255
255
255
254
213
85
5
0
0
0
0
0
0
0
0
0
0
0
0
0
0
0
0
0
2
11
52
191
255
246
184
125
67
38
18
5
1
0
0
0
0
0
0
120
252
165
24
0
0
0
0
0
0
0
0
0
0
0
0
0
39
197
255
255
255
255
255
255
240
124
5
0
0
0
0
0
0
0
0
0
0
0
0
0
0
0
0
0
0
0
0
0
13
148
248
255
255
255
255
255
55
1
0
0
0
0
0
0
0
0
0
0
0
0
0
0
0
0
0
0
0
0
0
0
82
221
255
255
255
255
255
255
253
195
51
0
0
0
0
0
0
0
0
0
0
0
0
0
0
0
0
0
0
0
6
105
225
249
255
255
234
200
151
54
2
0
0
0
0
0
0
43
220
244
86
2
0
0
0
0
0
0
0
0
0
0
0
0
4
112
240
255
255
255
255
255
240
127
10
0
0
0
0
0
0
0
0
0
0
0
0
0
0
0
0
0
0
0
0
0
4
114
251
255
255
255
255
255
127
2
0
0
0
0
0
0
0
0
0
0
0
0
0
0
0
0
0
0
0
0
0
0
14
65
182
250
255
255
255
255
255
242
147
42
4
0
0
0
0
0
0
0
0
0
0
0
0
0
0
0
0
0
0
24
96
144
197
234
207
175
199
100
2
0
0
0
0
0
0
5
115
249
165
23
0
0
0
0
0
0
0
0
0
0
0
0
0
42
193
254
255
255
255
255
239
103
1
0
0
0
0
0
0
0
0
0
0
0
0
0
0
0
0
0
0
0
0
0
1
49
198
255
255
255
255
255
203
45
0
0
0
0
0
0
0
0
0
0
0
0
0
0
0
0
0
0
0
0
0
0
0
3
84
229
254
255
255
255
255
253
239
183
50
0
0
0
0
0
0
0
0
0
0
0
0
0
0
0
0
0
0
0
0
17
52
81
54
34
66
45
0
0
0
0
0
0
0
2
65
230
234
76
0
0
0
0
0
0
0
0
0
0
0
0
0
21
160
246
255
255
255
255
250
160
26
0
0
0
0
0
0
0
0
0
0
0
0
0
0
0
0
0
0
0
0
0
0
20
159
255
255
255
255
255
243
117
0
0
0
0
0
0
0
0
0
0
0
0
0
0
0
0
0
0
0
0
0
0
0
0
25
181
255
255
255
255
255
255
255
253
128
24
1
1
0
0
0
0
0
0
0
0
0
0
0
0
0
0
0
0
0
0
0
0
2
0
0
0
0
0
0
0
0
0
0
14
113
243
246
121
0
0
0
0
0
0
0
0
0
0
0
0
0
13
141
251
255
255
255
255
255
228
85
3
0
0
0
0
0
0
0
0
0
0
0
0
0
0
0
0
0
0
0
0
0
17
135
243
255
255
255
255
255
194
37
0
0
0
0
0
0
0
0
0
0
0
0
0
0
0
0
0
0
0
0
0
0
0
7
98
215
244
255
255
255
255
255
255
249
177
34
0
0
0
0
0
0
0
0
0
0
0
0
0
0
0
0
0
0
0
0
0
0
0
0
0
0
0
0
0
0
0
0
36
171
255
200
65
0
0
0
0
0
0
0
0
0
0
0
0
0
11
120
250
255
255
255
255
255
251
156
21
0
0
0
0
0
0
0
0
0
0
0
0
0
0
0
0
0
0
0
0
0
0
113
238
255
255
255
255
255
247
111
5
0
0
0
0
0
0
0
0
0
0
0
0
0
0
0
0
0
0
0
0
0
0
2
18
76
180
255
255
255
255
255
255
255
237
116
27
9
2
0
0
0
0
0
0
0
0
0
0
0
0
0
0
0
0
0
0
0
0
0
0
0
0
0
0
0
0
2
73
219
255
152
19
0
0
0
0
0
0
0
0
0
0
0
0
0
2
59
207
255
255
255
255
255
239
138
7
0
0
0
0
0
0
0
0
0
0
0
0
0
0
0
0
0
0
0
0
0
0
107
235
255
255
255
255
255
255
183
35
0
0
0
0
0
0
0
0
0
0
0
0
0
0
0
0
0
0
0
0
0
0
0
0
0
105
238
255
255
255
255
255
255
251
218
156
107
49
7
0
0
0
0
0
0
0
0
0
0
0
0
0
0
0
0
0
0
0
0
0
0
0
0
0
0
12
58
161
247
254
149
28
0
0
0
0
0
0
0
0
0
0
0
0
0
0
50
189
255
255
255
255
255
242
144
20
0
0
0
0
0
0
0
0
0
0
0
0
0
0
0
0
0
0
0
0
0
3
72
216
255
255
255
255
255
255
241
93
0
0
0
0
0
0
0
0
0
0
0
0
0
0
0
0
0
0
0
0
0
0
0
0
0
34
195
255
255
255
255
255
255
255
255
255
244
209
160
81
6
0
0
0
0
0
0
0
0
0
0
0
0
0
0
0
0
0
0
0
0
0
0
0
4
82
187
242
255
208
118
26
1
0
0
0
0
0
0
0
0
0
0
0
0
0
69
209
253
255
255
255
255
255
210
64
0
0
0
0
0
0
0
0
0
0
0
0
0
0
0
0
0
0
0
0
0
0
58
211
255
255
255
255
255
255
253
176
39
1
0
0
0
0
0
0
0
0
0
0
0
0
0
0
0
0
0
0
0
0
0
0
0
5
100
197
242
255
255
255
255
255
255
255
255
255
249
185
49
2
0
0
0
0
0
0
0
0
0
0
0
0
0
0
0
0
0
0
0
0
0
0
32
162
255
255
242
131
18
0
0
0
0
0
0
0
0
0
0
0
0
0
0
0
26
153
248
255
255
255
255
252
184
37
0
0
0
0
0
0
0
0
0
0
0
0
0
0
0
0
0
0
0
0
0
0
69
212
255
255
255
255
255
255
255
241
143
31
1
0
0
0
0
0
0
0
0
0
0
0
0
0
0
0
0
0
0
0
0
0
0
0
8
54
150
248
255
255
255
255
255
255
255
255
255
242
147
78
33
3
0
0
0
0
0
0
0
0
0
0
0
0
0
0
0
0
0
0
9
63
126
217
255
255
226
78
0
0
0
0
0
0
0
0
0
0
0
0
0
0
0
0
6
132
255
255
255
255
255
237
105
2
0
0
0
0
0
0
0
0
0
0
0
0
0
0
0
0
0
0
0
0
0
0
45
182
252
255
255
255
255
255
255
255
230
117
18
0
0
0
0
0
0
0
0
0
0
0
0
0
0
0
0
0
0
0
0
0
0
0
0
2
57
185
241
252
255
255
255
255
255
255
255
255
240
216
175
112
61
26
5
9
20
13
0
0
0
0
1
0
0
0
0
3
12
59
136
207
247
255
255
254
173
37
0
0
0
0
0
0
0
0
0
0
0
0
0
0
0
2
58
197
255
255
255
255
255
235
112
8
0
0
0
0
0
0
0
0
0
0
0
0
0
0
0
0
0
0
0
0
0
0
18
160
248
255
255
255
