P2
# CREATOR: GIMP PNM Filter Version 1.1
128 32
255
19
144
255
255
255
255
255
248
151
6
0
0
0
0
0
0
0
0
0
0
0
1
68
225
255
255
255
255
255
182
28
0
0
0
0
0
0
0
0
0
0
0
8
141
246
255
255
255
152
22
0
0
0
0
0
0
0
0
0
0
0
0
0
0
0
4
32
62
83
101
119
135
113
67
33
11
0
0
0
0
0
0
0
0
0
0
0
0
0
0
0
0
0
0
0
0
0
0
4
97
238
255
255
255
255
255
255
255
208
112
23
0
0
0
0
0
0
0
0
0
0
0
6
107
244
255
255
255
5
130
250
255
255
255
255
249
149
10
0
0
0
0
0
0
0
0
0
0
0
10
100
239
255
255
255
255
252
172
16
0
0
0
0
0
0
0
0
0
0
0
34
187
251
255
255
216
80
6
0
0
0
0
0
0
0
0
0
0
0
0
8
16
52
121
167
216
246
237
240
245
245
219
184
137
106
85
44
13
0
0
0
0
0
0
0
0
0
0
0
0
0
0
0
0
0
0
0
22
164
249
255
255
255
255
255
255
255
242
118
8
0
0
0
0
0
0
0
0
0
0
0
21
172
254
255
255
0
111
238
255
255
255
255
242
113
6
0
0
0
0
0
0
0
0
0
0
0
17
138
252
255
255
255
255
238
123
3
0
0
0
0
0
0
0
0
0
0
3
68
224
255
255
247
138
14
0
0
0
0
0
0
0
0
0
0
0
0
0
63
151
204
238
255
255
255
255
255
255
255
255
255
245
232
222
188
131
76
12
0
0
0
0
0
0
0
0
0
0
0
0
0
0
0
0
0
0
47
187
253
255
255
255
255
255
255
255
210
54
0
0
0
0
0
0
0
0
0
0
0
0
78
228
255
255
0
102
236
255
255
255
255
250
105
7
0
0
0
0
0
0
0
0
0
0
0
10
137
253
255
255
255
255
219
80
0
0
0
0
0
0
0
0
0
0
0
1
74
234
255
255
226
86
0
0
0
0
0
0
0
0
0
0
0
0
0
23
139
241
255
255
255
255
255
255
255
255
255
255
255
255
255
255
255
255
217
135
51
11
0
0
0
0
0
0
0
0
0
0
0
0
0
0
0
0
0
65
214
255
255
255
255
255
255
255
248
140
9
0
0
0
0
0
0
0
0
0
0
0
9
151
252
255
2
89
242
255
255
255
255
255
130
8
0
0
0
0
0
0
0
0
0
0
0
4
146
249
255
255
255
255
226
79
0
0
0
0
0
0
0
0
0
0
0
0
69
223
255
255
215
62
0
0
0
0
0
0
0
0
0
0
0
0
55
158
231
255
255
255
255
248
251
233
219
213
229
244
255
255
255
255
255
255
254
241
190
111
44
4
0
0
0
0
0
0
0
0
0
0
0
0
0
0
0
8
95
221
255
255
255
255
255
255
255
224
73
1
0
0
0
0
0
0
0
0
0
0
0
48
218
255
6
90
245
255
255
255
255
249
145
2
0
0
0
0
0
0
0
0
0
0
0
11
156
247
255
255
255
255
249
87
4
0
0
0
0
0
0
0
0
0
0
0
102
227
255
255
207
56
0
0
0
0
0
0
0
0
0
0
0
37
159
255
255
252
224
196
195
160
123
82
65
72
96
136
172
216
237
244
252
255
255
255
255
237
178
64
0
0
0
0
0
0
0
0
0
0
0
0
0
0
0
0
0
129
245
255
255
255
255
255
255
255
173
25
0
0
0
0
0
0
0
0
0
0
0
6
114
247
2
98
241
255
255
255
255
251
159
4
0
0
0
0
0
0
0
0
0
0
0
13
152
255
255
255
255
255
249
104
3
0
0
0
0
0
0
0
0
0
0
0
118
239
255
255
196
43
0
0
0
0
0
0
0
0
0
0
15
123
235
255
247
176
74
51
38
9
3
5
0
0
0
8
31
61
103
135
185
237
255
255
255
255
255
182
80
11
0
0
0
0
0
0
0
0
0
0
0
0
0
0
0
38
202
255
255
255
255
255
255
255
242
90
1
0
0
0
0
0
0
0
0
0
0
0
47
202
0
81
226
255
255
255
255
255
194
41
0
0
0
0
0
0
0
0
0
0
0
17
154
255
255
255
255
255
243
114
0
0
0
0
0
0
0
0
0
0
0
0
112
244
255
255
195
35
1
0
0
0
0
0
0
0
0
0
84
211
255
252
218
84
0
0
0
0
0
0
0
0
0
0
0
1
4
14
45
130
228
255
255
255
255
255
206
76
0
0
0
0
0
0
0
0
0
0
0
0
0
0
0
2
99
236
255
255
255
255
255
255
255
128
11
0
0
0
0
0
0
0
0
0
0
0
27
189
0
51
208
255
255
255
255
255
221
71
0
0
0
0
0
0
0
0
0
0
0
18
149
255
255
255
255
255
242
128
0
0
0
0
0
0
0
0
0
0
0
11
136
252
255
254
202
40
1
0
0
0
0
0
0
0
0
19
172
253
246
192
103
23
0
0
0
0
0
0
0
0
0
0
0
0
0
0
0
9
76
186
252
255
255
255
253
195
79
11
0
0
0
0
0
0
0
0
0
0
0
0
0
0
23
158
253
255
255
255
255
255
254
159
6
0
0
0
0
0
0
0
0
0
0
0
5
150
0
36
206
255
255
255
255
255
236
83
1
0
0
0
0
0
0
0
0
0
0
10
150
255
255
255
255
255
232
103
0
0
0
0
0
0
0
0
0
0
0
19
147
255
255
255
215
52
0
0
0
0
0
0
0
0
1
56
221
255
187
50
3
1
0
0
0
0
0
0
0
0
0
0
0
0
0
0
0
0
5
58
154
234
255
255
255
254
217
85
2
0
0
0
0
0
0
0
0
0
0
0
0
0
0
62
219
255
255
255
255
255
253
214
59
0
0
0
0
0
0
0
0
0
0
0
0
62
0
28
192
254
255
255
255
255
255
160
21
0
0
0
0
0
0
0
0
0
0
0
136
246
255
255
255
255
240
91
3
0
0
0
0
0
0
0
0
0
0
5
122
250
255
255
217
59
0
0
0
0
0
0
0
0
19
129
249
228
91
0
0
0
0
0
0
0
0
0
0
0
0
0
0
0
0
0
0
0
0
2
23
148
245
255
255
255
255
192
38
0
0
0
0
0
0
0
0
0
0
0
0
0
0
22
174
255
255
255
255
255
255
254
160
16
0
0
0
0
0
0
0
0
0
0
0
11
0
25
166
255
255
255
255
255
255
219
44
0
0
0
0
0
0
0
0
0
0
0
99
243
255
255
255
255
254
141
9
0
0
0
0
0
0
0
0
0
0
0
82
227
255
255
231
84
0
0
0
0
0
0
0
0
44
195
255
165
24
0
0
0
0
0
3
2
0
0
0
0
0
0
0
0
0
0
0
0
0
0
0
51
202
255
255
255
255
252
133
14
0
0
0
0
0
0
0
0
0
0
0
0
0
15
167
255
255
255
255
255
255
255
211
61
0
0
0
0
0
0
0
0
0
0
0
0
0
28
164
255
255
255
255
255
255
216
60
0
0
0
0
0
0
0
0
0
0
2
58
228
255
255
255
255
254
166
12
0
0
0
0
0
0
0
0
0
0
0
35
198
255
255
251
158
21
0
0
0
0
0
0
0
56
222
219
82
4
0
0
0
31
83
84
46
14
0
0
0
0
0
0
0
0
0
0
0
0
0
0
1
76
202
255
255
255
255
235
114
7
0
0
0
0
0
0
0
0
0
0
0
0
2
120
240
255
255
255
255
255
255
227
70
0
0
0
0
0
0
0
0
0
0
0
0
0
19
165
255
255
255
255
255
255
238
108
0
0
0
0
0
0
0
0
0
0
0
52
209
255
255
255
255
250
162
9
0
0
0
0
0
0
0
0
0
0
0
16
181
251
255
255
232
73
1
0
0
0
0
0
0
53
225
167
26
0
0
0
8
81
181
217
192
157
115
50
4
0
0
0
0
0
0
0
0
0
0
0
0
0
69
208
255
255
255
255
204
48
0
0
0
0
0
0
0
0
0
0
0
0
0
25
175
255
255
255
255
255
255
253
130
13
0
0
0
0
0
0
0
0
0
0
0
0
9
159
252
255
255
255
255
255
255
132
12
0
0
0
0
0
0
0
0
0
0
34
179
255
255
255
255
254
175
21
0
0
0
0
0
0
0
0
0
0
0
14
149
253
255
255
249
113
0
0
0
0
0
0
0
40
228
174
11
0
0
0
7
48
89
105
135
209
247
196
76
8
0
0
0
0
0
0
0
0
0
0
0
0
4
116
242
255
255
255
248
141
16
0
0
0
0
0
0
0
0
0
0
0
0
0
77
234
255
255
255
255
255
254
198
31
0
0
0
0
0
0
0
0
0
0
0
0
8
156
249
255
255
255
255
255
255
144
16
0
0
0
0
0
0
0
0
0
0
10
155
252
255
255
255
255
221
72
1
0
0
0
0
0
0
0
0
0
0
3
67
218
255
255
250
151
6
0
0
0
0
0
2
39
222
218
22
0
0
0
1
1
0
0
4
81
183
255
212
102
13
0
0
0
0
0
0
0
0
0
0
0
0
54
206
255
255
255
255
226
77
1
0
0
0
0
0
0
0
0
0
0
0
0
33
202
255
255
255
255
255
255
213
50
0
0
0
0
0
0
0
0
0
0
0
0
8
136
255
255
255
255
255
255
255
161
11
0
0
0
0
0
0
0
0
0
0
0
127
249
255
255
255
255
252
127
7
0
0
0
0
0
0
0
0
0
0
0
13
155
255
255
255
220
68
0
0
0
0
0
0
18
160
255
113
5
0
0
0
0
0
0
0
5
46
175
255
222
59
0
0
0
0
0
0
0
0
0
0
0
0
13
174
254
255
255
255
255
130
5
0
0
0
0
0
0
0
0
0
0
0
0
30
177
255
255
255
255
255
255
234
96
0
0
0
0
0
0
0
0
0
0
0
0
4
83
240
255
255
255
255
255
250
167
12
0
0
0
0
0
0
0
0
0
0
0
62
217
255
255
255
255
255
151
16
0
0
0
0
0
0
0
0
0
0
0
0
125
247
255
255
255
162
17
0
0
0
0
0
1
56
196
204
56
0
0
12
33
15
0
0
0
0
67
223
254
141
0
0
0
0
0
0
0
0
0
0
0
0
1
121
246
255
255
255
255
192
37
0
0
0
0
0
0
0
0
0
0
0
0
0
126
245
255
255
255
255
255
253
138
9
0
0
0
0
0
0
0
0
0
0
0
0
40
199
255
255
255
255
255
255
185
22
0
0
0
0
0
0
0
0
0
0
0
16
160
255
255
255
255
255
200
40
0
0
0
0
0
0
0
0
0
0
0
0
74
227
255
255
255
234
116
24
0
0
0
0
0
3
61
142
87
2
0
33
128
87
4
0
0
0
10
130
251
226
88
13
0
0
0
0
0
0
0
0
0
0
0
46
207
255
255
255
255
247
122
5
0
0
0
0
0
0
0
0
0
0
0
0
98
240
255
255
255
255
255
255
169
25
0
0
0
0
0
0
0
0
0
0
0
0
29
182
255
255
255
255
255
255
228
84
0
0
0
0
0
0
0
0
0
0
0
10
132
255
255
255
255
255
251
127
1
0
0
0
0
0
0
0
0
0
0
0
12
154
255
255
255
255
238
150
24
0
0
0
0
0
0
26
25
4
0
12
154
158
29
0
0
0
0
38
199
254
209
66
0
0
0
0
0
0
0
0
0
0
0
3
115
248
255
255
255
255
196
35
0
0
0
0
0
0
0
0
0
0
0
0
69
232
255
255
255
255
255
255
206
41
0
0
0
0
0
0
0
0
0
0
0
0
3
128
248
255
255
255
255
255
252
168
23
0
0
0
0
0
0
0
0
0
0
3
91
235
255
255
255
255
255
203
38
0
0
0
0
0
0
0
0
0
0
0
1
66
228
255
255
255
255
236
99
7
0
0
0
0
0
0
0
0
0
0
113
176
33
0
0
0
0
0
127
246
255
128
5
0
0
0
0
0
0
0
0
0
0
0
63
223
255
255
255
255
216
60
0
0
0
0
0
0
0
0
0
0
0
0
44
215
255
255
255
255
255
255
222
55
0
0
0
0
0
0
0
0
0
0
0
0
0
35
196
255
255
255
255
255
255
214
44
0
0
0
0
0
0
0
0
0
0
0
19
161
253
255
255
255
255
213
54
0
0
0
0
0
0
0
0
0
0
0
0
14
112
211
250
255
255
255
201
96
23
0
0
0
0
0
0
0
0
1
114
187
29
0
0
0
0
0
98
245
255
206
50
1
0
0
0
0
0
0
0
0
0
0
48
201
255
255
255
255
237
103
2
0
0
0
0
0
0
0
0
0
0
0
27
172
255
255
255
255
255
255
230
92
0
0
0
0
0
0
0
0
0
0
0
0
0
3
95
237
255
255
255
255
255
229
70
0
0
0
0
0
0
0
0
0
0
0
0
77
232
255
255
255
255
238
107
3
0
0
0
0
0
0
0
0
0
0
0
0
10
75
205
255
255
255
255
226
115
7
0
0
0
0
0
0
0
36
175
183
23
0
0
0
0
1
62
223
255
254
138
11
0
0
0
0
0
0
0
0
0
0
11
157
248
255
255
255
255
167
22
0
0
0
0
0
0
0
0
0
0
0
4
117
246
255
255
255
255
255
249
135
1
0
0
0
0
0
0
0
0
0
0
0
0
0
44
213
255
255
255
255
255
248
147
11
0
0
0
0
0
0
0
0
0
0
0
46
221
254
255
255
255
255
193
39
0
0
0
0
0
0
0
0
0
0
0
0
0
0
109
227
255
255
255
255
217
136
87
54
29
20
26
28
81
177
237
138
6
0
0
0
0
0
27
180
255
255
198
26
0
0
0
0
0
0
0
0
0
0
0
120
252
255
255
255
255
193
30
0
0
0
0
0
0
0
0
0
0
0
0
89
227
255
255
255
255
255
255
158
19
0
0
0
0
0
0
0
0
0
0
0
0
0
37
191
255
255
255
255
255
255
229
82
1
0
0
0
0
0
0
0
0
0
1
26
186
255
255
255
255
255
251
129
2
0
0
0
0
0
0
0
0
0
0
0
0
0
14
89
184
230
245
255
255
251
231
204
165
148
170
212
237
244
166
51
0
0
0
0
0
0
27
164
255
255
199
39
0
0
0
0
0
0
0
0
0
0
3
84
242
255
255
255
254
205
40
0
0
0
0
0
0
0
0
0
2
0
0
64
224
255
255
255
255
255
255
195
41
0
0
0
0
0
0
0
0
0
0
0
0
0
5
128
246
255
255
255
255
255
255
158
17
0
0
0
0
0
0
0
0
0
0
5
98
242
255
255
255
255
255
215
54
0
0
0
0
0
0
0
0
0
0
0
0
0
0
0
45
88
142
200
237
255
255
255
255
255
255
249
200
116
27
0
0
0
0
0
0
0
27
170
255
255
216
68
0
0
0
0
0
0
0
0
0
0
0
63
218
255
255
255
255
219
58
0
0
0
0
0
0
0
0
0
0
0
1
41
204
254
255
255
255
255
255
196
28
0
0
0
0
0
0
0
0
0
0
0
0
0
0
72
227
255
255
255
255
255
255
177
30
0
0
0
0
0
0
0
0
0
0
0
23
171
255
255
255
255
255
252
145
5
0
0
0
0
0
0
0
0
0
0
0
0
0
0
2
3
18
66
102
132
147
156
155
165
163
98
44
7
0
0
0
0
0
0
0
0
28
176
252
255
227
75
0
0
0
0
0
0
0
0
0
0
0
53
202
255
255
255
255
233
95
0
0
0
0
0
0
0
0
0
0
0
0
27
175
255
255
255
255
255
253
182
14
0
0
0
0
0
0
0
0
0
0
0
0
0
0
48
215
255
255
255
255
255
255
211
52
0
0
0
0
0
0
0
0
0
0
0
0
81
229
255
255
255
255
255
221
85
12
1
0
0
0
0
0
0
0
0
0
0
0
0
0
0
0
0
0
8
23
24
12
5
5
6
0
0
0
0
0
0
0
0
0
0
49
201
253
255
225
70
4
0
0
0
0
0
0
0
0
0
0
32
187
255
255
255
255
248
115
5
0
0
0
0
0
0
0
0
0
0
0
21
151
255
255
255
255
255
254
210
59
0
0
0
0
0
0
0
0
0
0
0
0
0
0
19
157
253
255
255
255
255
255
255
147
8
0
0
0
0
0
0
0
0
0
0
0
11
128
231
255
255
255
255
254
208
114
21
0
0
0
0
0
0
0
0
0
0
0
0
0
0
0
0
0
0
0
0
0
0
0
0
0
0
0
0
0
0
0
0
0
7
87
241
255
255
226
68
0
0
0
0
0
0
0
0
0
0
0
32
187
252
255
255
255
255
132
14
0
0
0
0
0
0
0
0
0
0
0
11
146
254
255
255
255
255
255
234
93
0
0
0
0
0
0
0
0
0
0
0
0
0
0
1
61
218
255
255
255
255
255
255
207
39
0
0
0
0
0
0
0
0
0
0
0
0
24
114
227
255
255
255
255
255
237
96
1
0
0
0
0
0
0
0
0
0
0
0
0
0
0
0
0
0
0
0
0
0
0
0
0
0
0
0
0
0
0
0
0
35
152
255
255
255
218
65
0
0
0
0
0
0
0
0
0
0
0
35
201
254
255
255
255
245
106
7
0
0
0
0
0
0
0
0
0
0
0
1
129
246
255
255
255
255
255
243
103
2
0
0
0
0
0
0
0
0
0
0
0
0
0
0
5
130
254
255
255
255
255
255
220
60
0
0
0
0
0
0
0
0
0
0
0
0
0
11
122
253
255
255
255
255
255
187
57
0
0
0
0
0
0
0
0
0
0
0
0
0
0
0
0
0
0
0
0
0
0
0
0
0
0
0
0
0
0
0
1
92
221
255
255
255
186
46
0
0
0
0
0
0
0
0
0
0
0
32
187
255
255
255
255
229
78
0
0
0
0
0
0
0
0
0
0
0
0
0
115
240
255
255
255
255
255
251
101
5
0
0
0
0
0
0
0
0
0
0
0
0
0
0
0
46
205
255
255
255
255
255
243
136
23
0
0
0
0
0
0
0
0
0
0
0
0
0
36
198
255
255
255
255
255
254
200
82
0
0
0
0
0
0
0
0
0
0
0
0
0
0
0
0
0
0
0
0
0
0
0
0
0
0
0
0
0
0
30
164
248
255
255
225
107
15
0
0
0
0
0
0
0
0
0
0
0
33
177
255
255
255
255
232
90
0
0
0
0
0
0
0
0
0
0
0
0
5
120
247
255
255
255
255
255
239
90
4
0
0
0
0
0
0
0
0
