P2
# CREATOR: GIMP PNM Filter Version 1.1
128 32
255
0
0
0
0
116
239
255
255
255
255
255
255
250
129
9
0
0
0
0
0
0
0
0
0
0
0
0
0
0
0
6
74
200
255
255
255
255
244
157
26
0
0
0
0
0
0
0
0
0
0
0
0
0
0
0
10
75
214
254
255
255
251
250
169
71
19
0
0
0
0
0
0
0
0
0
0
0
0
0
0
0
0
0
0
0
0
23
100
170
208
243
255
255
255
255
255
255
255
242
189
104
18
0
0
0
0
0
0
0
0
0
0
0
0
0
0
0
0
0
0
0
0
64
218
255
255
255
255
0
0
0
0
95
237
255
255
255
255
255
255
255
154
21
0
0
0
0
0
0
0
0
0
0
0
0
0
0
0
6
120
244
255
255
255
255
235
112
1
0
0
0
0
0
0
0
0
0
0
0
0
0
0
4
75
189
249
255
255
238
177
124
42
0
0
0
0
0
0
0
0
0
0
0
0
0
0
0
0
0
0
0
0
0
0
0
9
36
80
138
224
255
255
255
255
255
255
255
255
206
71
0
0
0
0
0
0
0
0
0
0
0
0
0
0
0
0
0
0
0
0
18
127
225
255
255
255
0
0
0
1
94
242
255
255
255
255
255
255
255
168
23
0
0
0
0
0
0
0
0
0
0
0
0
0
0
0
0
105
233
255
255
255
255
239
116
9
0
0
0
0
0
0
0
0
0
0
0
0
0
0
15
138
253
255
255
229
136
29
4
1
0
0
0
0
0
0
0
0
0
0
0
0
0
0
0
0
0
0
0
0
0
0
0
0
0
0
12
83
205
255
255
255
255
255
255
255
251
159
34
0
0
0
0
0
0
0
0
0
0
0
0
0
0
0
0
0
0
0
0
20
120
239
255
255
0
0
0
6
91
239
255
255
255
255
255
255
253
180
23
0
0
0
0
0
0
0
0
0
0
0
0
0
0
0
0
76
227
255
255
255
255
233
102
9
0
0
0
0
0
0
0
0
0
0
0
0
0
0
35
160
255
255
252
173
37
0
0
0
0
0
0
0
0
0
0
0
0
0
0
0
0
0
0
0
0
0
0
0
0
0
0
0
0
0
0
5
98
220
255
255
255
255
255
255
255
247
166
60
2
0
0
0
0
0
0
0
0
0
0
0
0
0
0
0
0
0
0
0
49
210
255
255
0
0
0
0
77
227
255
255
255
255
255
255
254
190
29
0
0
0
0
0
0
0
0
0
0
0
0
0
0
0
0
61
224
254
255
255
255
212
63
4
0
0
0
0
0
0
0
0
0
0
0
0
0
0
85
211
255
255
255
153
22
0
0
0
0
0
0
0
0
0
0
0
0
0
0
0
0
0
0
0
0
0
0
0
0
0
0
0
0
0
0
0
22
138
241
255
255
255
255
255
255
255
251
199
80
8
0
0
0
0
0
0
0
0
0
0
0
0
0
0
0
0
1
0
17
132
243
255
0
0
0
0
63
210
255
255
255
255
255
255
255
198
49
0
0
0
0
0
0
0
0
0
0
0
0
0
0
0
2
56
216
255
255
255
255
201
37
0
0
0
0
0
0
0
0
0
0
0
0
0
0
2
127
242
255
255
247
128
20
0
0
0
0
0
0
0
0
0
0
0
0
0
0
0
0
0
0
0
0
0
0
0
0
0
0
0
0
0
0
0
0
47
186
252
255
255
255
255
255
255
255
253
194
39
0
0
0
0
0
0
0
0
0
0
0
0
0
0
0
0
1
0
0
41
199
255
0
0
0
0
38
197
255
255
255
255
255
255
255
214
65
0
0
0
0
0
0
0
0
0
0
0
0
0
0
0
0
51
202
255
255
255
254
202
51
0
0
0
0
0
0
0
0
0
0
0
0
0
1
25
150
250
255
235
154
45
2
0
0
0
0
0
0
0
0
0
0
0
0
0
0
0
0
0
0
0
0
0
0
0
0
0
0
0
0
0
0
0
0
2
78
203
255
255
255
255
255
255
255
255
241
102
5
0
0
0
0
0
0
0
0
0
0
0
0
0
0
0
0
0
0
3
123
239
0
0
0
0
28
191
254
255
255
255
255
255
255
229
74
2
0
0
0
0
0
0
0
0
0
0
0
0
0
0
0
36
188
255
255
255
255
217
67
0
0
0
0
0
0
0
0
0
0
0
0
0
1
59
207
255
250
179
48
0
0
0
0
0
0
0
0
0
0
0
0
0
0
0
0
0
0
0
0
0
0
0
0
0
0
0
0
0
0
0
0
0
0
0
1
62
170
244
255
255
255
255
255
255
251
191
72
4
0
0
0
0
0
0
0
0
0
0
0
0
0
0
0
0
0
0
35
175
0
0
0
0
27
180
254
255
255
255
255
255
255
239
85
5
0
0
0
0
0
0
0
0
0
0
0
0
0
0
0
17
158
255
255
255
255
241
101
2
0
0
0
0
0
0
0
0
0
0
0
0
0
54
205
255
249
165
17
0
0
0
0
0
0
0
4
0
0
2
12
19
6
0
0
0
0
0
0
0
0
0
0
0
0
0
0
0
0
0
0
0
0
0
0
0
34
167
248
255
255
255
255
255
255
255
198
64
0
0
0
0
0
0
0
0
0
0
0
0
0
0
0
0
0
0
5
104
0
0
0
0
21
162
255
255
255
255
255
255
255
244
121
0
0
0
0
0
0
0
0
0
0
0
0
0
0
0
0
0
85
223
254
255
255
255
157
15
0
0
0
0
0
0
0
0
0
0
0
0
0
34
179
255
238
124
12
0
0
0
0
0
17
60
76
93
121
133
138
143
100
23
11
3
0
0
0
0
0
0
0
0
0
0
0
0
0
0
0
0
0
0
0
0
1
94
238
255
255
255
255
255
255
255
255
116
5
0
0
0
0
0
0
0
0
0
0
0
0
0
0
0
0
0
0
44
0
0
0
0
15
141
253
255
255
255
255
255
255
252
173
21
0
0
0
0
0
0
0
0
0
0
0
0
0
0
0
0
23
183
255
255
255
255
209
45
1
0
0
0
0
0
0
0
0
0
0
0
0
47
193
255
227
86
2
0
0
0
0
11
104
202
244
236
223
240
255
255
228
167
138
88
12
0
0
0
0
0
0
0
0
0
0
0
0
0
0
0
0
0
0
0
0
41
165
243
255
255
255
255
255
255
255
197
53
1
0
0
0
0
0
0
0
0
0
0
0
0
0
0
0
0
0
6
0
0
0
0
0
124
246
255
255
255
255
255
255
255
221
67
0
0
0
0
0
0
0
0
0
0
0
0
0
0
0
0
18
168
255
255
255
255
234
79
0
0
0
0
0
0
0
0
0
0
0
0
0
72
219
255
229
80
3
0
0
0
0
35
143
185
150
105
97
142
196
223
250
252
243
213
101
15
0
0
0
0
0
0
0
0
0
0
0
0
0
0
0
0
0
0
0
5
51
170
255
255
255
255
255
255
255
253
143
4
0
0
0
0
0
0
0
0
0
0
0
0
0
0
0
0
0
0
0
0
0
0
0
98
231
255
255
255
255
255
255
255
243
109
4
0
0
0
0
0
0
0
0
0
0
0
0
0
0
0
14
133
252
255
255
255
247
148
17
0
0
0
0
0
0
0
0
0
0
0
1
61
216
255
204
56
2
0
0
0
0
21
54
23
0
6
6
16
49
66
129
223
255
255
226
112
24
0
0
0
0
0
0
0
0
0
0
0
0
0
0
0
0
0
0
0
0
87
233
255
255
255
255
255
255
255
205
56
2
0
0
0
0
0
0
0
0
0
0
0
0
0
0
0
0
0
0
0
0
0
0
36
186
253
255
255
255
255
255
255
254
118
10
0
0
0
0
0
0
0
0
0
0
0
0
0
0
0
0
58
204
255
255
255
255
213
61
0
0
0
0
0
0
0
0
0
0
0
1
25
174
255
169
22
0
0
0
0
0
1
0
0
0
0
0
0
0
0
14
105
203
253
255
228
150
106
42
1
0
0
0
0
0
0
0
0
0
0
0
0
0
0
0
0
0
27
164
255
255
255
255
255
255
255
249
155
21
0
0
0
0
0
0
0
0
0
0
0
0
0
0
0
0
0
0
0
0
0
0
8
135
254
255
255
255
255
255
255
255
120
4
0
0
0
0
0
0
0
0
0
0
0
0
0
0
0
0
17
167
253
255
255
255
250
133
10
0
0
0
0
0
0
0
0
0
0
0
6
118
255
200
47
0
0
0
0
0
0
0
0
0
0
0
0
0
0
0
14
79
185
248
255
251
228
118
4
0
0
0
0
0
0
0
0
0
0
0
0
0
0
0
0
0
0
56
211
255
255
255
255
255
255
255
224
70
1
0
0
0
0
0
0
0
0
0
0
0
0
0
0
0
0
0
0
0
0
0
9
117
254
255
255
255
255
255
255
249
154
11
0
0
0
0
0
0
0
0
0
0
0
0
0
0
0
0
5
157
253
255
255
255
255
209
48
0
0
0
0
0
0
0
0
0
0
0
0
61
220
248
119
4
0
0
0
0
0
0
0
1
0
0
0
0
0
0
0
6
62
173
248
255
255
202
70
8
0
0
0
0
0
0
0
0
0
0
0
0
0
0
0
0
0
5
158
254
255
255
255
255
255
255
250
145
16
0
0
0
0
0
0
0
0
0
0
0
0
0
0
0
0
0
0
0
0
0
4
103
242
255
255
255
255
255
255
255
216
68
0
0
0
0
0
0
0
0
0
0
0
0
0
0
0
0
4
98
231
255
255
255
255
240
112
14
0
0
0
0
0
0
0
0
0
0
0
6
156
255
199
48
0
0
0
0
0
0
16
29
7
0
0
0
0
0
0
0
0
50
174
253
255
252
195
91
12
0
0
0
0
0
0
0
0
0
0
0
0
0
0
0
0
0
75
215
255
255
255
255
255
255
255
208
47
0
0
0
0
0
0
0
0
0
0
0
0
0
0
0
0
0
0
0
0
0
0
69
215
255
255
255
255
255
255
255
252
141
11
0
0
0
0
0
0
0
0
0
0
0
0
0
0
0
0
25
158
254
255
255
255
251
206
101
12
0
0
0
0
0
0
0
0
0
0
0
96
231
255
171
55
5
0
0
0
0
46
146
112
18
0
0
0
0
0
0
0
0
89
235
255
255
255
221
117
17
0
0
0
0
0
0
0
0
0
0
0
0
0
0
0
0
16
148
255
255
255
255
255
255
255
218
53
0
0
0
0
0
0
0
0
0
0
0
0
0
0
0
0
0
0
0
0
1
0
19
162
251
255
255
255
255
255
255
255
215
62
0
0
0
0
0
0
0
0
0
0
0
0
0
0
0
0
0
72
225
255
255
255
255
255
226
113
15
0
0
0
0
0
0
0
0
0
0
22
121
224
255
203
103
19
1
0
0
34
158
213
93
4
0
0
0
0
0
0
0
31
172
255
255
255
255
218
60
0
0
0
0
0
0
0
0
0
0
0
0
0
0
0
0
2
87
234
255
255
255
255
255
255
231
91
0
0
0
0
0
0
0
0
0
0
0
0
0
0
0
0
0
0
0
0
0
0
0
102
244
255
255
255
255
255
255
255
253
121
11
0
0
0
0
0
0
0
0
0
0
0
0
0
0
0
0
17
122
236
255
255
255
255
255
227
82
0
0
0
0
0
0
0
0
0
0
1
20
91
158
190
175
57
0
0
0
2
46
170
174
22
0
0
0
0
0
0
0
0
42
176
250
255
255
249
118
6
0
0
0
0
0
0
0
0
0
0
0
0
0
0
0
0
47
202
255
255
255
255
255
255
253
179
30
0
0
0
0
0
0
0
0
0
0
0
0
0
0
0
0
0
0
0
0
0
2
57
221
255
255
255
255
255
255
255
255
187
47
0
0
0
0
0
0
0
0
0
0
0
0
0
0
0
0
0
13
169
254
255
255
255
255
254
154
19
0
0
0
0
0
0
0
0
0
0
0
2
10
42
87
40
0
0
0
0
6
99
222
76
0
0
0
0
0
0
0
0
4
88
235
255
255
255
216
74
1
0
0
0
0
0
0
0
0
0
0
0
0
0
0
0
8
138
248
255
255
255
255
255
255
219
62
0
0
0
0
0
0
0
0
0
0
0
0
0
0
0
0
0
0
0
0
0
0
22
160
255
255
255
255
255
255
255
255
235
101
0
0
0
0
0
0
0
0
0
0
0
0
0
0
0
0
0
0
108
246
255
255
255
255
255
228
127
28
0
0
0
0
0
0
0
0
0
0
0
0
0
4
8
0
0
0
0
0
84
232
137
1
0
0
0
0
0
0
0
0
43
204
255
255
255
248
152
11
0
0
0
0
0
0
0
0
0
0
0
0
0
0
0
0
61
217
255
255
255
255
255
255
232
75
0
0
0
0
0
0
0
0
0
0
0
0
0
0
0
0
0
0
0
0
0
0
1
101
242
255
255
255
255
255
255
255
243
126
0
0
0
0
0
0
0
0
0
0
0
0
0
0
0
0
0
0
32
148
229
255
255
255
255
255
235
150
41
2
0
0
0
0
0
0
0
0
0
0
0
0
0
0
0
0
0
0
60
218
163
13
0
0
0
0
0
0
0
0
18
149
252
255
255
255
195
36
0
0
0
0
0
0
0
0
0
0
0
0
0
0
0
0
19
175
253
255
255
255
255
255
252
106
5
0
0
0
0
0
0
0
0
0
0
0
0
0
0
0
0
0
0
0
0
0
0
55
206
255
255
255
255
255
255
255
250
160
22
0
0
0
0
0
0
0
0
0
0
0
0
0
0
0
0
0
2
31
118
220
255
255
255
255
255
245
164
53
11
8
0
0
0
0
0
0
0
0
0
0
0
0
0
0
0
0
80
235
179
27
0
0
0
0
0
0
0
0
2
98
235
255
255
255
223
77
1
0
0
0
0
0
0
0
0
0
0
0
0
0
0
0
6
118
253
255
255
255
255
255
254
167
17
0
0
0
0
0
0
0
0
0
0
0
0
0
0
0
0
0
0
0
0
0
0
9
143
248
255
255
255
255
255
255
255
232
123
18
0
0
0
0
0
0
0
0
0
0
0
0
0
0
0
0
0
0
16
129
250
255
255
255
255
255
245
188
140
118
45
0
0
0
0
0
0
0
0
0
0
0
0
0
3
62
187
255
164
22
0
0
0
0
0
0
0
0
0
62
214
255
255
255
248
144
18
0
0
0
0
0
0
0
0
0
0
0
0
0
0
0
2
72
226
255
255
255
255
255
255
214
55
0
0
0
0
0
0
0
0
0
0
0
0
0
0
0
0
0
0
0
0
0
0
0
84
240
255
255
255
255
255
255
255
255
224
61
1
0
0
0
0
0
0
0
0
0
0
0
0
0
0
0
0
0
0
53
207
254
255
255
255
255
255
255
245
234
166
47
7
0
0
0
0
0
0
0
0
0
1
24
74
178
253
202
71
1
0
0
0
0
0
0
0
0
0
45
207
255
255
255
255
205
48
0
0
0
0
0
0
0
0
0
0
0
0
0
0
0
0
50
200
255
255
255
255
255
255
232
97
0
0
0
0
0
0
0
0
0
0
0
0
0
0
0
0
0
0
0
0
0
0
0
29
174
254
255
255
255
255
255
255
255
245
116
3
0
0
0
0
0
0
0
0
0
0
0
0
0
0
0
0
0
0
14
116
229
255
255
255
255
255
255
255
255
249
175
100
90
43
0
0
1
4
0
0
8
63
157
216
253
242
107
0
0
0
0
0
0
0
0
0
0
0
27
189
255
255
255
255
231
66
2
0
0
0
0
0
0
0
0
0
0
0
0
0
0
0
36
189
255
255
255
255
255
255
244
115
4
0
0
0
0
0
0
0
0
0
0
0
0
0
0
0
0
0
0
0
0
0
0
4
74
227
255
255
255
255
255
255
255
253
190
29
0
0
0
0
0
0
0
0
0
0
0
0
0
0
0
0
0
0
0
15
99
208
255
255
255
255
255
255
255
255
255
240
230
160
67
50
69
80
100
119
130
192
255
255
228
147
45
0
0
0
0
0
0
0
0
0
0
0
32
184
255
255
255
255
234
88
0
0
0
0
0
0
0
0
0
0
0
0
0
0
0
0
18
177
252
255
255
255
255
255
254
126
12
0
0
0
0
0
0
0
0
0
0
0
0
0
0
0
0
0
0
0
0
0
0
0
18
148
248
255
255
255
255
255
255
255
227
91
0
0
0
0
0
0
0
0
0
0
0
0
0
0
0
0
0
0
0
0
8
80
201
252
249
252
255
255
255
255
255
255
254
244
204
200
219
232
236
240
249
255
254
236
124
33
5
0
0
0
0
0
0
0
0
0
0
0
65
203
255
255
255
254
200
67
0
0
0
0
0
0
0
0
0
0
0
0
0
0
0
0
12
168
255
255
255
255
255
255
255
138
11
0
0
0
0
0
0
0
0
0
0
0
0
0
0
0
0
0
0
0
0
0
0
0
0
51
199
255
255
255
255
255
255
255
251
194
75
8
0
0
0
0
0
0
0
0
0
0
0
0
0
0
0
0
0
0
0
9
72
151
158
199
255
255
255
255
255
255
255
255
255
255
255
255
255
255
255
233
204
123
29
0
0
0
0
0
0
0
0
0
0
0
0
0
89
224
255
255
255
253
148
18
0
0
0
0
0
0
0
0
0
0
0
0
0
0
0
0
18
145
255
255
255
255
255
255
251
147
10
0
0
0
0
0
0
0
0
0
0
0
0
0
0
0
0
0
0
0
0
0
0
0
0
0
135
246
255
255
255
255
255
255
255
253
207
63
0
0
0
0
0
0
0
0
0
0
0
0
0
0
0
0
0
0
0
0
4
22
21
75
197
255
254
255
255
253
255
255
255
255
252
251
252
197
138
104
47
12
0
0
0
0
0
0
0
0
0
0
0
0
0
0
96
230
255
255
255
254
151
21
0
0
0
0
0
0
0
0
0
0
0
0
0
0
0
0
13
129
254
255
255
255
255
255
250
166
18
0
0
0
0
0
0
0
0
0
0
0
0
0
0
0
0
0
0
0
0
0
0
0
0
0
58
190
249
255
255
255
255
255
255
255
255
136
14
0
0
0
0
0
0
0
0
0
0
0
0
0
0
0
0
0
0
0
0
0
0
3
73
137
157
191
217
202
204
220
218
211
189
155
105
62
12
0
0
0
0
0
0
0
0
0
0
0
0
0
0
0
0
12
134
236
255
255
255
255
175
30
0
0
0
0
0
0
0
0
0
0
0
0
0
0
0
0
2
113
238
255
255
255
255
255
250
161
20
0
0
0
0
0
0
0
0
0
0
0
0
0
