P2
# CREATOR: GIMP PNM Filter Version 1.1
128 32
255
0
0
0
0
0
0
0
0
0
0
0
60
128
60
0
0
61
192
255
192
0
0
0
0
0
0
0
0
0
0
0
0
0
0
0
0
0
0
60
0
0
0
0
0
0
0
0
0
0
0
0
0
0
0
0
0
0
0
0
0
0
0
0
0
0
0
0
0
0
0
0
0
0
0
0
0
0
0
0
0
0
0
0
0
128
255
255
128
0
61
192
192
192
128
0
0
0
60
193
255
255
192
0
0
61
193
192
193
193
193
192
192
192
193
192
60
128
192
192
60
61
61
128
128
128
193
193
192
0
0
0
0
0
0
0
0
0
0
0
0
0
0
0
0
61
193
255
193
0
0
0
0
0
0
0
0
0
0
0
0
0
0
0
0
0
0
0
0
0
0
0
0
0
0
0
0
0
0
0
0
0
0
0
0
0
0
0
0
0
0
0
0
0
0
0
0
0
0
0
0
0
0
0
0
0
0
0
0
0
0
0
0
0
255
255
192
61
128
193
192
128
0
0
0
61
192
255
255
255
193
0
0
128
255
192
128
128
193
193
192
193
192
192
128
193
255
255
193
193
193
192
128
192
193
193
128
0
0
0
0
0
0
0
0
0
0
0
0
0
0
0
0
0
192
255
192
0
0
0
0
0
0
0
0
0
0
0
0
0
0
0
0
0
0
0
0
0
0
0
0
0
0
0
0
0
0
0
0
0
0
0
0
0
0
0
0
0
0
0
0
0
0
0
0
0
0
0
0
0
0
0
0
0
0
0
0
0
0
0
0
0
192
255
255
192
193
128
61
0
0
0
0
128
255
193
61
0
0
0
0
192
255
128
0
0
61
60
61
128
192
128
128
192
255
255
255
255
193
128
193
193
192
128
0
60
0
128
128
0
0
61
128
128
61
0
0
0
0
0
0
0
192
255
192
0
0
0
0
0
0
0
0
0
0
0
0
0
0
0
0
0
0
0
0
0
0
0
0
0
0
0
0
0
0
0
0
0
0
0
0
0
0
0
0
0
0
0
0
0
0
0
0
0
0
0
0
0
0
0
0
0
0
0
0
0
0
0
0
0
192
255
255
193
128
61
61
61
0
0
0
128
255
192
61
0
0
0
128
192
192
128
0
60
128
128
0
60
128
128
128
128
192
255
255
255
128
61
192
193
192
192
0
193
128
192
193
192
192
255
255
255
193
61
0
0
0
0
0
0
192
255
192
0
0
0
0
0
0
0
0
0
0
0
0
0
0
0
0
0
0
0
0
0
0
0
0
0
0
0
0
0
0
0
0
0
0
0
0
0
0
0
0
0
0
0
0
0
0
0
0
0
0
0
0
0
0
0
0
0
0
0
0
0
0
0
0
60
255
255
192
61
0
0
128
192
128
0
0
128
192
193
193
61
60
61
128
192
192
61
61
193
192
193
61
128
193
193
128
128
128
255
255
255
61
0
192
193
193
192
128
255
255
255
255
192
255
255
255
255
255
128
0
0
0
0
0
0
192
192
128
0
61
61
61
60
61
61
61
60
61
60
60
61
61
61
60
61
61
61
0
0
0
0
61
61
61
61
60
61
61
60
61
61
61
60
61
60
61
61
61
61
0
0
0
60
61
61
61
60
60
61
60
61
61
61
60
60
60
61
60
60
61
60
0
61
255
255
60
0
0
0
193
255
193
0
0
61
192
255
192
61
60
128
193
193
192
128
128
193
193
192
0
128
192
192
193
61
61
193
255
255
61
0
128
128
0
60
193
255
255
255
192
128
192
255
255
255
255
128
0
0
0
0
0
61
193
192
192
0
128
128
128
128
128
128
129
128
128
128
128
128
128
128
128
128
128
60
0
0
0
61
128
128
128
128
128
128
128
128
128
128
128
128
128
128
128
128
128
60
0
0
0
128
128
128
128
128
128
128
128
128
128
128
128
128
128
128
128
128
128
61
0
61
255
255
60
0
0
60
255
255
255
60
0
61
192
255
193
0
0
128
193
193
193
128
192
193
193
128
0
128
192
192
192
61
60
193
255
255
61
0
0
0
0
0
192
255
193
193
128
0
61
192
255
255
193
61
0
0
0
0
0
60
192
193
128
0
193
192
192
192
192
128
128
128
192
128
128
128
192
193
192
192
192
61
0
0
0
61
192
192
193
193
128
128
128
193
192
193
128
128
192
193
193
192
192
61
0
0
0
128
193
192
192
193
128
128
128
128
128
128
193
192
193
192
192
193
192
60
0
61
255
255
61
0
0
61
255
255
192
128
128
128
193
193
128
0
0
128
193
192
192
192
128
128
193
60
0
192
193
193
128
61
128
255
255
255
193
0
0
0
0
0
128
192
128
192
192
0
61
193
255
255
193
0
0
0
0
0
0
60
193
193
128
0
255
255
255
255
193
192
192
193
193
192
192
193
193
255
255
255
192
61
0
0
0
128
255
255
255
255
193
192
192
192
193
193
192
192
192
255
255
255
255
61
0
0
0
192
255
255
255
193
193
193
193
192
192
192
192
192
255
255
255
255
193
60
0
61
255
255
60
0
0
128
192
128
61
128
128
61
128
193
192
61
0
61
128
192
193
128
61
128
192
193
192
192
193
193
128
128
128
255
255
255
255
193
61
60
128
192
128
192
61
192
193
128
128
192
255
255
193
0
0
0
0
0
0
60
193
192
128
0
255
255
255
255
255
193
193
192
193
192
193
255
255
255
255
255
255
61
0
0
0
128
255
255
255
255
193
193
192
192
192
192
192
193
255
255
255
255
255
61
0
0
0
255
255
255
255
255
192
192
192
192
193
192
193
255
255
255
255
255
193
61
0
61
255
255
60
0
0
128
192
0
0
128
128
61
61
193
255
192
128
128
128
129
192
61
61
60
128
192
193
192
193
128
128
128
192
193
255
255
255
255
128
193
255
255
128
192
128
255
192
128
128
193
255
255
255
61
0
0
0
0
0
61
192
192
128
60
255
255
255
255
255
255
192
193
192
192
192
255
255
255
255
255
255
61
0
0
0
128
255
255
255
255
193
193
192
193
193
192
192
193
255
255
255
255
255
61
0
0
0
255
255
255
255
255
193
193
192
193
192
192
192
255
255
255
255
255
192
61
0
61
255
255
60
0
0
60
192
0
61
192
193
128
128
192
192
193
193
128
128
61
61
128
128
128
128
128
61
60
60
128
192
193
192
192
128
192
255
255
60
192
255
255
128
255
192
255
255
128
128
255
255
255
255
128
0
0
0
0
0
128
192
192
128
61
255
255
255
255
255
192
192
192
192
192
193
192
255
255
255
255
255
60
0
0
0
128
255
255
255
255
192
192
192
192
193
192
192
193
192
255
255
255
255
61
0
0
0
255
255
255
255
255
128
193
192
193
192
192
192
193
255
255
255
255
193
61
0
61
192
255
60
0
0
128
193
60
128
193
193
192
128
60
192
193
193
192
193
61
61
128
128
128
60
0
0
0
61
128
192
193
193
61
61
128
255
255
61
128
255
255
128
255
128
255
193
128
128
255
255
255
255
128
0
0
0
0
0
128
193
192
128
61
255
255
255
255
193
193
192
128
193
192
192
192
255
255
255
255
255
60
0
0
0
128
255
255
255
255
192
192
193
192
192
193
192
192
193
255
255
255
255
61
0
0
0
255
255
255
255
255
128
128
128
128
128
192
192
192
255
255
255
255
192
61
0
60
193
192
192
61
128
128
192
192
193
255
193
128
61
0
60
193
255
193
192
193
128
192
128
61
61
0
0
61
61
128
128
128
61
0
0
128
255
255
61
128
255
255
192
255
128
192
193
128
128
193
255
255
193
0
0
0
0
0
0
128
255
192
128
61
255
255
255
192
192
192
192
128
192
192
192
192
255
255
255
255
255
61
0
0
0
128
255
255
255
255
192
128
128
192
192
192
128
192
192
255
255
255
255
61
0
0
0
255
255
255
255
255
128
128
128
128
128
128
128
192
255
255
255
255
192
61
0
61
192
193
193
193
192
192
192
193
255
255
192
128
60
61
128
192
192
193
192
192
193
193
128
61
61
128
128
128
128
128
128
60
0
0
0
192
255
255
61
128
255
255
192
255
128
193
193
128
193
255
255
255
192
0
0
0
0
0
0
128
192
193
128
61
255
255
255
193
193
193
192
128
192
192
128
193
255
255
255
255
255
60
0
0
0
128
255
255
255
255
193
128
128
193
192
128
128
128
192
255
255
255
255
60
0
0
0
255
255
255
255
255
128
128
128
128
128
128
128
128
255
255
255
255
192
60
0
61
128
193
192
128
128
128
192
192
192
192
192
128
193
192
255
193
193
192
193
193
193
192
128
128
128
193
193
192
192
192
192
192
61
0
128
193
255
255
128
193
255
255
255
255
193
255
255
192
255
255
255
255
192
0
0
0
0
0
0
60
192
193
128
61
255
255
255
192
192
192
192
128
128
192
128
192
255
255
255
255
255
60
0
0
0
128
255
255
255
255
193
128
128
128
128
128
128
128
193
255
255
255
255
60
0
0
0
255
255
255
255
255
128
128
128
128
128
128
128
128
255
255
255
255
193
60
0
61
128
192
192
128
61
61
128
192
192
128
61
128
193
255
255
193
60
60
128
192
192
193
193
193
192
193
192
128
128
193
255
255
192
129
193
192
255
255
255
255
255
255
255
255
192
255
255
255
255
255
255
255
192
0
0
0
0
0
0
60
192
192
192
61
255
255
255
192
193
193
192
128
128
193
128
193
255
255
255
255
255
61
0
0
0
128
255
255
255
255
192
128
128
128
128
128
128
128
193
255
255
255
255
61
0
0
0
255
255
255
255
255
128
128
128
128
128
128
128
128
255
255
255
255
192
60
0
61
128
193
192
192
61
0
61
128
128
0
0
61
193
255
255
193
128
128
192
193
192
255
255
193
192
192
192
0
0
61
255
255
192
192
193
192
193
255
255
255
255
255
128
255
193
255
255
192
192
255
255
255
193
60
0
0
0
0
0
0
193
255
255
128
255
255
255
192
192
192
192
128
128
192
128
193
255
255
255
255
255
61
0
0
0
128
255
255
255
255
193
128
128
128
128
128
128
128
193
255
255
255
255
61
0
0
0
255
255
255
255
255
128
128
128
128
128
128
128
128
255
255
255
255
193
61
0
61
128
192
255
192
128
0
61
193
128
0
0
0
193
255
255
192
128
128
192
193
193
255
255
255
128
192
193
0
0
0
193
192
128
128
192
192
193
193
192
255
255
193
0
193
128
255
255
61
61
255
255
255
192
0
0
0
0
0
0
0
128
255
255
255
255
255
255
192
192
192
192
128
128
192
128
192
255
255
255
255
255
60
0
0
0
128
255
255
255
255
192
128
128
128
128
128
128
128
192
255
255
255
255
61
0
0
0
255
255
255
255
255
128
128
128
128
128
128
128
128
255
255
255
255
193
61
0
61
192
255
255
255
192
128
128
193
192
128
0
0
0
192
255
128
61
128
128
128
193
255
255
193
128
192
255
128
0
0
61
61
0
0
0
61
192
193
128
193
255
192
61
128
60
192
193
0
0
193
255
255
128
0
0
0
0
0
0
0
192
255
255
192
255
255
255
192
193
192
192
128
128
193
128
192
255
255
255
255
255
60
0
0
0
128
255
255
255
255
192
192
128
192
193
128
128
128
193
255
255
255
255
61
0
0
0
255
255
255
255
255
128
128
128
128
128
128
128
128
255
255
255
255
193
61
0
60
192
255
255
255
192
192
193
255
255
193
61
0
0
128
192
128
61
60
60
128
192
255
255
192
60
192
255
255
192
61
0
0
0
0
0
0
128
193
128
192
255
255
128
128
0
192
192
0
0
255
255
192
61
0
0
0
0
0
0
0
192
255
192
60
255
255
255
192
192
192
192
128
192
193
192
192
255
255
255
255
255
61
0
0
0
128
255
255
255
255
193
192
192
192
192
128
128
128
193
255
255
255
255
61
0
0
0
255
255
255
255
255
128
128
128
128
128
128
128
128
255
255
255
255
192
61
0
61
193
255
255
192
128
128
128
128
193
193
61
0
0
128
192
192
128
128
128
192
192
192
193
61
0
128
255
255
255
192
128
61
61
60
128
193
255
193
128
192
255
255
192
128
0
128
192
0
128
255
255
193
0
0
0
0
0
0
0
61
192
192
128
61
255
255
255
192
192
255
192
128
192
193
192
255
255
255
255
255
255
60
0
0
0
128
255
255
255
255
192
192
193
192
192
192
128
192
192
255
255
255
255
61
0
0
0
255
255
255
255
255
128
128
128
128
128
128
128
192
255
255
255
255
192
61
0
61
128
192
193
60
0
0
0
0
128
128
0
0
0
128
255
192
192
192
193
192
192
192
128
0
0
128
255
255
255
255
255
255
255
255
255
255
255
255
193
193
255
255
255
128
0
192
193
61
128
255
255
193
0
0
0
0
0
0
0
60
192
193
128
60
255
255
255
192
193
255
255
128
192
192
192
255
255
255
255
255
255
60
0
0
0
128
255
255
255
255
193
192
192
192
192
192
192
193
192
255
255
255
255
60
0
0
0
255
255
255
255
255
193
193
128
192
192
193
193
192
255
255
255
255
193
60
0
61
128
192
193
193
61
0
0
61
128
192
192
128
128
192
192
193
192
128
193
192
193
128
128
128
193
255
255
255
255
255
255
255
255
255
128
128
255
255
255
192
192
193
128
192
60
255
255
128
192
255
255
192
61
0
0
0
0
0
0
128
192
193
128
61
255
255
255
255
193
255
255
192
192
255
192
255
255
255
255
255
255
61
0
0
0
128
255
255
255
255
255
192
193
192
193
192
193
192
192
255
255
255
255
60
0
0
0
255
255
255
255
255
193
193
193
193
193
193
193
192
255
255
255
255
192
61
0
61
128
255
255
193
128
128
128
128
192
192
255
255
255
193
128
128
128
128
128
192
193
128
193
255
255
255
255
192
192
128
128
193
255
128
0
0
128
255
255
192
128
61
128
255
192
255
255
193
193
255
255
255
192
0
0
0
0
0
0
128
192
193
128
61
255
255
255
255
255
255
255
193
192
255
193
255
255
255
255
255
255
61
0
0
0
128
255
255
255
255
255
255
255
255
255
192
192
255
192
255
255
255
255
60
0
0
0
255
255
255
255
255
192
192
192
192
192
193
193
192
255
255
255
255
192
61
0
61
192
255
255
192
192
192
193
193
193
255
255
255
192
192
128
60
0
0
61
128
128
128
128
255
255
255
61
61
61
0
0
0
128
128
60
61
128
192
193
192
128
61
193
255
255
255
255
193
255
255
255
255
192
0
0
0
0
0
0
61
193
193
128
0
255
255
255
255
255
255
255
192
255
255
255
255
255
255
255
255
255
60
0
0
0
128
255
255
255
255
255
255
255
255
255
255
193
255
255
255
255
255
255
60
0
0
0
255
255
255
255
255
255
192
192
192
193
193
193
192
255
255
255
255
193
61
0
61
128
192
255
192
192
193
192
128
193
255
192
128
61
129
128
128
0
0
0
61
129
0
0
128
255
193
0
128
192
128
0
0
128
192
192
193
193
192
193
128
128
192
255
255
255
255
255
255
255
255
255
255
193
61
0
0
0
0
0
60
193
192
128
0
255
255
255
255
255
255
255
192
255
255
255
255
255
255
255
255
255
61
0
0
0
128
255
255
255
255
255
255
255
255
193
193
192
255
255
255
255
255
255
61
0
0
0
192
255
255
255
255
255
192
192
193
192
192
193
192
255
255
255
255
193
61
0
60
193
193
192
128
128
128
128
61
128
192
193
61
0
128
192
192
192
192
128
192
192
128
0
0
128
60
0
128
255
192
128
0
0
60
128
128
128
128
128
128
128
255
255
255
255
255
255
255
255
255
255
255
192
61
0
0
0
0
0
61
192
192
128
0
255
192
193
192
193
192
192
193
192
192
192
192
192
193
255
192
193
60
0
0
0
128
255
192
192
193
192
192
192
193
192
193
192
193
193
192
193
255
192
61
0
0
0
193
255
193
192
192
192
193
192
193
193
192
192
192
193
193
192
192
192
61
0
61
192
255
192
0
0
0
0
0
128
192
193
128
61
128
192
192
255
255
255
255
255
255
128
0
0
0
0
128
255
255
255
128
0
0
0
0
61
128
192
193
192
192
255
192
0
193
255
192
192
255
255
255
192
0
0
0
0
0
0
60
192
192
128
0
192
192
192
192
193
193
192
128
128
128
128
192
193
192
192
192
192
60
0
0
0
61
193
193
192
193
192
192
192
128
128
128
128
192
192
192
193
193
192
61
0
0
0
128
192
193
193
192
192
193
128
128
128
128
128
128
193
193
193
192
192
60
0
61
192
255
193
128
61
0
0
0
128
192
193
192
128
128
192
192
192
255
255
255
255
255
192
0
0
61
192
193
255
255
255
255
128
61
0
0
0
128
255
255
255
192
192
128
0
61
128
0
60
192
255
255
128
0
0
0
0
0
0
128
192
192
128
0
128
128
128
128
128
128
128
128
128
128
128
128
128
128
128
128
128
61
0
0
0
61
128
128
128
128
128
128
128
128
128
128
128
128
128
128
128
128
128
61
0
0
0
61
128
128
128
128
128
128
128
128
128
128
128
128
128
128
128
128
128
61
0
61
192
255
255
255
192
128
60
60
128
193
255
255
192
128
61
0
0
61
193
255
255
255
128
61
128
193
255
255
255
255
255
255
255
255
192
193
128
128
255
255
255
255
192
128
0
0
61
0
61
193
255
255
128
0
0
0
0
0
0
128
193
193
128
0
61
61
61
60
61
60
61
61
61
60
61
61
60
61
60
60
61
61
0
0
0
0
61
60
61
61
61
61
60
61
61
60
60
61
61
61
61
61
61
61
0
0
0
61
61
60
61
61
60
60
61
61
61
61
60
61
61
61
61
61
61
0
0
61
192
255
255
255
255
193
60
61
128
193
255
255
255
128
0
0
0
0
61
255
255
193
128
193
255
255
255
255
192
192
255
255
255
255
255
255
193
192
255
255
255
255
255
255
128
128
192
193
193
255
255
255
192
61
0
0
0
0
0
128
192
193
128
0
0
0
0
0
0
0
0
0
0
0
0
0
0
0
0
0
0
0
0
0
0
0
0
0
0
0
0
0
0
0
0
0
0
0
0
0
0
0
0
0
0
0
0
0
0
0
0
0
0
0
0
0
0
0
0
0
0
0
0
0
0
0
0
60
128
193
255
255
255
128
0
0
0
128
192
255
255
193
60
61
61
128
255
255
255
255
192
192
255
255
255
255
128
61
128
192
192
192
255
255
193
193
193
128
128
255
255
