P2
# CREATOR: GIMP PNM Filter Version 1.1
128 32
255
0
0
0
0
0
0
71
145
55
0
0
0
0
0
0
0
0
0
0
0
0
0
0
0
0
0
0
0
0
0
0
0
3
11
11
11
15
16
17
41
50
21
77
64
80
101
28
27
7
31
65
54
12
0
0
0
0
0
0
0
0
0
0
0
0
0
2
1
0
0
0
0
0
0
0
29
135
136
209
195
127
79
91
136
112
106
163
55
37
52
27
14
28
16
13
18
19
57
6
2
0
0
0
0
0
0
0
0
0
0
0
0
0
0
0
0
0
0
0
0
0
0
0
0
0
0
0
0
0
0
0
0
0
0
0
22
120
2
0
0
0
0
0
0
0
0
0
0
0
0
0
0
0
47
50
50
50
50
8
0
6
14
1
0
0
0
0
2
29
37
46
53
116
93
62
14
0
5
60
14
0
0
0
0
0
0
0
0
0
0
0
0
0
3
5
1
0
0
0
0
0
0
0
9
108
148
191
200
136
76
101
128
144
126
148
45
40
3
0
3
2
3
14
16
61
52
15
20
3
0
0
0
0
0
0
0
0
0
0
0
0
0
0
4
55
86
86
86
78
50
21
0
0
0
0
0
0
0
0
0
0
0
0
0
93
94
0
0
0
0
0
0
0
0
0
0
0
0
25
59
126
107
97
97
96
107
122
54
0
0
0
0
0
0
0
2
7
54
50
71
149
77
106
36
11
38
82
6
0
0
0
0
0
0
0
0
0
0
2
2
2
7
3
2
0
0
0
0
0
0
0
6
97
182
188
200
164
106
141
139
186
165
123
73
26
15
6
0
6
12
45
34
77
13
34
42
13
2
0
0
0
0
0
0
0
0
0
0
0
0
0
76
115
48
48
47
66
87
110
120
62
51
51
2
0
0
0
0
0
0
0
0
63
101
0
0
0
0
0
0
0
0
0
0
0
9
112
91
38
0
0
0
2
34
71
139
131
44
0
0
0
0
0
7
14
37
93
80
147
98
88
95
45
88
49
2
0
0
0
0
0
0
0
3
6
5
37
40
39
39
40
37
2
3
4
0
0
0
0
8
57
153
206
213
178
115
118
174
203
186
153
58
38
39
22
4
7
13
35
68
85
19
53
41
20
7
0
0
0
0
0
0
0
0
0
0
0
35
116
100
8
0
0
0
0
0
0
47
100
101
118
121
0
0
0
0
0
0
0
0
92
48
0
0
0
0
0
0
0
0
0
0
0
48
109
9
0
0
0
0
0
2
6
53
69
127
9
0
0
0
0
1
27
80
154
99
157
152
141
123
85
121
37
12
1
0
0
0
0
0
1
41
75
40
23
22
22
22
22
20
0
39
55
3
0
0
0
0
37
154
223
226
211
195
187
232
209
176
180
107
82
28
26
42
12
2
44
108
94
78
69
7
1
0
0
0
0
0
0
0
0
0
0
0
57
113
43
1
0
0
0
0
0
0
0
0
0
0
0
0
0
0
0
0
0
0
0
0
92
49
0
0
0
0
0
0
0
0
0
0
0
109
84
0
0
0
0
0
0
0
7
90
51
106
126
47
4
0
0
8
20
32
51
122
174
207
206
149
141
139
64
20
1
0
0
0
1
4
73
66
42
21
2
1
1
1
1
1
4
24
33
51
18
0
0
1
32
188
221
222
221
190
239
219
222
163
133
99
74
63
17
37
8
29
81
125
92
95
33
0
0
0
0
0
0
0
0
0
0
0
0
8
126
26
0
0
0
0
0
0
0
0
0
0
0
0
0
0
0
0
0
0
0
0
0
0
92
48
0
0
0
0
0
0
0
0
0
0
0
117
0
0
0
0
0
0
0
1
13
23
5
16
78
146
89
15
8
30
20
37
5
31
117
159
204
229
197
170
88
22
1
0
0
0
3
82
90
27
2
1
0
0
0
0
0
1
41
74
10
31
65
13
0
12
134
216
222
231
229
234
243
186
151
105
76
105
102
97
72
66
79
146
127
66
20
19
18
1
0
0
0
0
0
0
0
0
0
0
0
112
95
0
0
0
0
0
0
0
0
0
0
0
0
0
0
0
0
0
0
0
0
0
0
0
82
135
66
12
0
0
0
0
0
0
0
19
112
94
0
0
0
0
0
0
0
0
1
0
0
0
3
34
123
135
93
60
39
57
41
36
85
112
150
239
248
173
139
43
18
0
0
0
36
120
72
39
1
0
0
0
0
0
0
0
25
79
73
4
36
68
3
8
132
225
241
237
253
247
189
138
126
58
79
143
157
143
152
154
123
118
61
21
29
85
87
86
87
86
87
32
0
0
0
0
0
3
85
124
2
0
0
0
0
0
0
0
0
0
0
0
0
0
0
0
0
0
0
0
0
0
0
0
0
14
104
123
86
118
85
54
80
97
107
127
64
0
0
0
0
0
0
0
0
0
0
0
0
0
0
13
32
109
132
103
25
39
100
90
136
116
110
143
208
227
159
107
25
1
0
5
79
92
133
62
2
0
0
0
0
0
0
0
2
24
40
0
6
107
36
30
187
248
255
254
243
176
130
132
140
109
149
169
156
173
149
151
144
123
28
35
126
71
47
47
47
47
62
143
25
0
0
0
67
144
91
0
0
0
0
0
0
0
0
0
0
0
0
0
0
0
0
0
0
0
0
0
0
0
0
0
0
0
0
25
47
33
100
100
70
50
47
0
0
0
0
0
0
0
0
0
0
0
0
0
0
1
12
19
2
0
81
122
116
81
148
184
176
187
182
139
138
243
188
170
53
29
2
27
105
69
96
27
0
0
0
0
0
0
0
0
0
0
2
0
3
86
91
36
203
255
255
253
211
182
195
197
197
229
228
193
181
169
100
108
130
62
69
121
55
0
0
0
0
0
0
53
118
111
67
65
111
16
0
0
0
0
0
0
0
0
0
0
0
0
0
0
0
0
0
0
0
0
0
0
0
0
0
0
0
0
0
0
0
0
0
0
0
0
0
0
0
0
0
0
0
0
0
0
0
0
0
0
0
0
2
2
2
3
32
87
130
137
120
130
109
78
70
167
190
244
243
240
152
73
5
58
84
25
22
2
0
0
0
0
3
8
3
0
0
0
0
0
2
66
117
25
221
255
255
254
247
246
195
195
210
220
167
191
167
139
127
159
67
58
151
43
1
0
0
0
0
0
0
0
0
28
99
102
40
0
0
0
0
0
0
0
0
0
0
0
0
0
0
0
0
0
0
0
0
0
0
0
0
0
0
0
0
0
0
0
0
0
0
0
0
0
0
0
0
0
0
0
0
0
0
0
0
0
0
0
0
0
5
7
22
27
63
96
154
133
133
200
224
209
222
225
193
230
253
255
250
176
20
88
100
8
0
0
0
0
0
4
87
159
87
6
0
0
0
0
2
67
116
19
237
255
255
255
255
255
249
235
248
250
231
180
197
199
200
136
111
130
79
5
0
0
0
0
0
0
0
0
0
0
0
0
0
0
0
0
0
0
0
0
0
0
0
0
0
0
0
0
0
0
0
0
0
0
0
0
0
0
0
0
0
0
0
0
0
0
0
0
0
0
0
0
0
0
0
0
0
0
0
0
0
0
0
0
0
0
1
8
5
12
18
58
102
150
216
202
134
102
76
127
202
201
224
250
255
232
58
108
122
45
2
0
0
0
0
12
201
254
205
48
0
0
0
0
9
102
121
21
240
255
255
255
255
254
255
250
222
237
248
229
247
238
229
172
131
98
28
0
0
0
5
2
2
0
0
0
0
0
28
47
58
150
106
62
0
0
0
0
0
0
0
0
0
0
0
0
0
0
0
0
0
0
0
0
0
0
0
0
0
0
0
0
0
0
0
0
0
0
0
0
0
0
0
0
32
100
144
44
0
0
0
0
0
0
2
26
30
3
19
74
172
227
162
49
28
27
38
163
179
191
244
239
198
207
97
113
127
102
44
5
1
0
0
12
234
251
235
66
0
0
0
7
82
130
156
25
228
250
255
255
249
244
248
232
239
243
238
251
231
203
203
136
171
139
26
1
4
2
1
12
17
1
0
8
86
102
119
86
84
34
55
98
106
0
0
0
0
0
0
0
0
0
0
0
0
0
0
0
0
0
0
0
0
0
0
0
0
0
0
0
0
0
0
0
0
0
0
0
0
4
34
92
104
63
39
113
84
0
0
0
1
6
0
18
42
59
120
200
199
146
17
1
14
50
163
202
230
238
201
99
43
30
18
75
125
127
105
80
48
43
9
19
168
179
135
33
3
3
10
86
161
140
175
17
75
139
215
252
255
254
252
242
195
177
155
202
240
245
250
171
142
161
100
61
76
21
0
1
2
0
13
86
89
48
18
0
0
0
0
13
132
4
0
0
0
0
0
0
0
0
0
0
0
0
0
0
0
0
0
0
0
0
0
0
0
0
0
0
0
0
0
0
0
0
0
0
12
88
121
90
13
0
0
28
119
91
4
0
1
6
1
13
97
171
158
165
143
72
33
28
72
126
199
238
242
194
44
3
0
0
3
47
123
128
126
129
143
147
163
168
208
212
187
127
88
88
124
168
189
174
173
11
2
7
42
165
252
254
221
218
230
152
119
113
153
178
241
229
183
151
150
156
124
29
3
3
18
103
115
87
14
0
0
0
0
0
0
0
116
30
0
0
0
0
0
0
0
0
0
0
0
0
0
0
0
0
0
0
0
0
0
0
0
0
0
0
0
0
0
0
0
0
0
15
97
86
14
0
0
0
0
0
7
112
101
5
0
1
47
133
158
66
50
20
41
35
69
43
109
168
191
236
208
78
1
0
0
0
1
43
122
130
132
169
188
194
249
253
253
253
251
231
209
205
190
191
191
191
149
13
0
0
0
42
208
246
205
228
244
160
138
106
69
36
85
192
250
217
176
135
122
123
126
124
120
85
50
0
0
0
0
0
0
0
0
0
89
48
0
0
0
0
0
0
0
0
0
0
0
0
0
0
0
0
0
0
0
0
0
0
0
0
0
0
0
0
0
0
36
85
111
150
67
0
0
0
0
0
0
0
0
5
113
110
0
10
127
147
131
14
15
1
7
24
28
77
172
174
146
228
190
31
0
0
0
0
0
23
111
163
170
190
191
196
253
255
255
255
255
255
253
214
193
191
191
187
97
11
0
0
0
11
143
247
222
238
250
229
185
126
48
25
53
145
227
231
224
116
76
9
3
3
1
0
0
0
0
0
0
0
0
0
0
0
86
69
0
0
0
0
0
0
0
0
0
0
0
0
0
0
0
0
0
0
0
0
0
0
0
0
0
0
0
9
71
118
106
67
42
3
0
0
0
0
0
0
0
0
0
0
5
114
103
120
156
135
106
2
35
32
8
23
105
123
113
137
153
150
200
42
0
0
0
0
0
5
86
148
189
192
190
195
249
255
255
255
255
255
252
196
189
190
195
163
34
4
0
0
0
8
160
248
186
169
166
207
224
178
115
118
158
67
108
203
232
167
54
11
0
0
0
0
0
0
0
0
0
0
0
0
0
0
39
99
0
0
0
0
0
0
0
0
0
0
0
0
0
0
0
0
0
0
0
0
0
0
0
0
0
22
101
115
89
26
3
0
0
0
0
0
0
0
0
0
0
0
0
0
0
19
52
123
137
50
1
0
11
30
25
67
52
32
51
32
26
138
94
7
0
0
0
0
0
53
111
125
189
191
190
191
214
253
255
255
255
255
251
194
191
195
198
76
2
0
0
0
0
0
46
220
100
31
55
98
195
216
180
116
87
15
22
147
213
211
65
2
0
0
0
0
0
0
0
0
0
0
0
0
0
0
12
107
34
0
0
0
0
0
0
0
0
0
0
0
0
0
0
0
0
0
0
0
0
0
0
0
0
89
82
0
0
0
0
0
0
0
0
0
0
0
0
0
0
0
0
0
0
0
11
126
43
20
1
1
11
5
34
48
7
17
4
0
11
172
82
8
0
0
0
0
0
150
20
55
148
189
193
192
197
251
255
255
255
255
250
200
228
200
108
12
0
0
0
0
0
0
54
197
134
5
1
29
64
107
175
90
82
10
10
58
173
234
124
11
0
0
0
0
0
0
0
0
0
0
0
0
0
0
0
89
47
0
0
0
0
0
0
0
0
0
0
0
0
0
0
0
0
0
0
0
0
0
0
0
0
27
144
27
0
0
0
0
0
0
0
0
0
0
0
0
0
0
0
0
0
1
36
114
16
16
2
20
39
53
67
16
1
5
0
0
27
189
84
4
0
0
0
0
0
0
0
7
56
148
216
230
233
254
255
255
255
255
251
228
186
93
21
0
0
0
0
0
0
0
47
199
190
16
0
11
13
28
110
166
185
96
36
58
131
211
172
72
34
6
0
0
0
0
0
0
0
0
0
0
0
0
0
88
48
0
0
0
0
0
0
0
0
0
0
0
0
0
0
0
0
0
0
0
0
0
0
0
0
0
49
135
108
100
101
54
47
0
0
0
0
0
0
0
0
0
0
0
0
0
45
121
10
27
32
45
49
26
24
0
0
0
0
2
79
178
38
0
0
0
0
0
0
0
0
0
5
48
111
170
214
236
237
237
237
224
186
128
59
12
0
0
0
0
0
0
0
0
15
142
222
40
0
1
0
0
31
79
105
158
112
63
53
171
151
55
55
50
2
0
0
0
0
0
0
0
0
0
0
0
0
88
47
0
0
0
0
0
0
0
0
0
0
0
0
0
0
0
0
0
0
0
0
0
0
0
0
0
0
0
49
51
57
98
104
136
51
0
0
0
0
0
0
0
0
0
0
31
124
68
10
42
43
61
17
0
0
0
1
4
0
41
173
180
29
0
0
0
0
0
0
0
0
0
0
0
17
48
73
85
85
85
85
79
56
24
2
0
0
0
0
0
0
0
0
0
9
137
235
89
5
0
4
1
6
8
12
115
113
53
42
137
192
98
24
71
33
1
0
0
0
0
0
0
0
0
0
0
0
88
48
0
0
0
0
0
0
0
0
0
0
0
0
0
0
0
0
0
0
0
0
0
0
0
0
0
0
0
0
0
0
0
0
69
98
0
0
0
0
0
0
0
0
0
7
97
81
10
16
24
33
55
3
0
0
0
1
2
28
109
171
79
15
0
0
0
0
0
0
0
0
0
0
0
0
0
0
0
0
0
0
0
0
0
0
0
0
0
0
0
0
0
0
0
7
66
205
172
51
5
2
1
2
3
0
55
137
33
40
74
173
177
14
23
81
6
0
0
0
0
0
0
0
0
0
0
17
125
16
0
0
0
0
0
0
0
0
0
0
0
0
0
0
0
0
0
0
0
0
0
0
0
0
0
0
0
0
0
0
0
27
123
44
0
0
0
0
0
0
0
0
0
8
115
50
2
18
22
54
17
1
0
0
0
0
8
95
183
92
5
0
0
0
10
0
0
0
0
0
0
0
0
0
0
0
0
0
0
0
0
0
0
0
0
0
0
0
0
0
0
0
0
1
4
93
222
170
28
0
0
0
0
0
13
108
112
41
39
97
200
28
0
67
51
2
0
0
0
0
0
0
0
0
0
51
104
0
0
0
0
0
0
0
0
0
0
0
0
0
0
0
0
0
0
0
0
0
0
0
0
0
0
0
0
0
0
0
2
120
53
0
0
0
0
0
0
0
0
0
0
7
107
79
25
10
57
24
0
0
0
0
0
0
5
91
196
49
0
0
0
22
0
0
0
0
0
0
0
0
0
0
0
0
0
0
0
0
0
0
0
0
0
0
0
0
0
0
0
0
0
0
0
35
184
237
55
0
0
0
0
0
0
37
106
127
60
72
204
91
28
17
68
37
2
0
0
0
0
0
0
0
0
94
97
0
0
0
0
0
0
0
0
0
0
0
0
0
0
0
0
0
0
0
0
0
0
0
0
0
0
0
0
0
0
17
109
79
1
0
0
0
0
0
0
0
0
0
3
67
118
59
25
18
48
2
0
0
0
0
0
0
17
145
158
32
0
0
0
91
0
0
0
0
0
0
0
0
0
0
0
0
0
0
0
0
0
0
0
0
0
0
0
0
0
0
0
0
0
0
0
15
118
241
151
57
2
0
0
0
0
3
28
121
133
95
155
182
145
24
25
100
8
0
0
0
0
0
0
0
0
118
2
0
0
0
0
0
0
0
0
0
0
0
0
0
0
0
0
0
0
0
0
0
0
0
0
0
0
0
0
0
14
107
69
0
0
0
0
0
0
0
0
0
0
9
95
129
45
9
51
60
18
1
0
0
0
0
0
0
43
183
83
17
0
0
0
82
0
0
0
0
0
0
0
0
0
0
0
0
1
0
0
0
0
0
0
0
0
0
0
0
0
0
0
0
0
0
0
2
62
180
175
178
121
10
0
0
0
0
2
67
122
147
92
145
208
49
0
90
88
4
0
0
0
0
0
0
67
109
0
0
0
0
0
0
0
0
0
0
0
0
0
0
0
0
0
0
0
0
0
0
0
0
0
0
0
0
0
65
118
77
0
0
0
0
0
0
0
0
0
0
20
102
109
70
4
29
53
37
4
0
0
0
0
0
0
4
67
187
51
6
0
0
0
1
0
0
0
0
0
0
0
0
0
0
0
0
3
0
0
0
0
0
0
0
0
0
0
0
0
0
0
0
0
0
0
0
32
143
147
125
124
109
58
47
2
0
1
24
58
158
106
85
188
121
48
27
75
61
0
0
0
0
0
0
87
48
0
0
0
0
0
0
0
0
0
0
0
0
0
0
0
0
0
0
0
0
0
0
0
0
0
0
0
29
104
111
19
0
0
0
0
0
0
0
0
0
16
98
122
112
33
0
3
57
18
0
0
0
0
0
0
0
0
10
123
148
25
0
0
0
0
0
0
0
0
0
0
0
0
0
0
0
0
1
14
0
0
0
0
0
0
0
0
0
0
0
0
0
0
0
0
0
0
0
8
93
163
26
27
102
129
186
40
0
0
0
7
106
126
38
133
110
130
102
58
84
75
9
0
0
0
0
87
48
0
0
0
0
0
0
0
0
0
0
0
0
0
0
0
0
0
0
0
0
0
0
0
0
0
0
5
130
50
0
0
0
0
0
0
0
0
0
2
37
118
132
87
12
0
0
4
48
2
0
0
0
0
0
0
0
0
14
153
104
3
0
0
0
0
0
0
0
0
0
0
0
0
0
0
0
0
1
10
0
0
0
0
0
0
0
0
0
0
0
0
0
0
0
0
0
0
0
0
53
185
36
0
0
57
162
134
7
0
0
1
62
120
21
60
76
71
112
129
94
110
102
22
3
0
0
87
48
0
0
0
0
0
0
0
0
0
0
0
0
0
0
0
