P2
# CREATOR: GIMP PNM Filter Version 1.1
128 32
255
0
0
0
0
0
0
0
0
0
0
0
0
0
0
0
0
7
74
125
77
10
0
0
0
0
0
0
0
0
0
0
0
0
0
3
18
75
28
4
42
70
34
41
92
95
13
56
23
18
64
10
0
0
1
0
0
0
0
0
0
0
0
0
0
0
0
2
1
0
0
0
0
0
0
0
37
137
137
233
219
194
208
198
207
170
189
213
133
77
62
26
21
48
28
26
18
22
56
11
18
18
7
11
11
1
0
0
0
0
0
0
0
0
0
0
0
0
0
0
0
2
100
0
0
0
0
0
0
0
0
0
0
0
0
0
0
0
0
0
0
0
0
0
0
0
0
33
114
124
91
24
0
0
0
0
0
0
0
0
0
0
0
0
0
17
75
40
5
15
79
104
84
128
64
73
24
32
68
38
2
0
11
1
0
0
0
0
0
0
0
0
0
0
8
6
1
0
0
0
0
0
0
0
11
114
147
199
214
190
234
207
197
201
222
204
83
46
6
6
12
28
31
36
24
74
54
26
24
9
21
28
24
1
0
0
0
0
0
0
0
0
0
0
0
0
0
0
27
120
79
0
0
0
0
0
0
0
0
0
0
0
0
0
0
0
0
0
0
0
0
0
0
0
0
0
0
39
94
120
91
0
0
0
0
0
0
0
0
0
0
0
0
2
18
98
55
74
83
80
120
151
110
43
24
59
63
23
1
6
7
0
0
0
0
0
0
0
0
2
2
2
20
4
2
0
0
0
0
0
0
0
11
101
183
189
209
216
227
217
195
241
227
172
84
33
28
26
7
11
28
56
52
89
27
49
50
37
35
8
0
0
0
0
0
0
0
0
0
0
0
0
0
0
0
78
128
52
1
0
0
0
0
0
0
0
0
0
0
0
0
0
0
0
0
0
0
0
0
0
0
0
0
0
0
0
0
50
97
0
0
0
0
0
0
0
0
0
0
0
1
24
48
76
92
62
70
47
90
194
154
90
57
59
77
12
2
11
1
0
0
0
0
0
3
6
5
37
40
39
39
40
37
2
3
4
0
0
0
0
7
57
153
214
242
241
215
188
209
252
227
180
72
61
49
30
12
10
40
51
79
87
43
75
71
60
54
11
0
0
0
0
0
0
0
0
0
0
0
0
0
16
123
107
2
0
0
0
0
0
0
0
0
0
0
0
0
0
0
0
0
0
0
0
0
0
0
0
0
0
0
0
0
0
0
47
108
18
0
0
0
0
0
0
0
0
0
0
2
9
3
16
80
78
73
85
116
129
212
153
111
81
86
13
22
3
0
0
0
0
0
1
41
75
40
23
22
22
22
22
20
0
39
58
4
0
0
0
0
37
161
244
255
254
248
221
240
251
205
190
116
90
58
52
84
30
43
59
108
94
87
87
69
72
48
25
1
0
0
0
0
0
0
0
0
0
0
0
0
102
72
2
0
0
0
0
0
0
0
0
0
0
0
0
0
0
0
0
0
0
0
0
0
0
0
0
0
0
0
0
0
0
0
1
85
113
14
1
0
0
0
0
0
0
0
0
19
22
7
53
92
167
171
130
81
120
201
207
170
117
104
8
17
2
0
0
0
1
4
73
66
42
21
2
1
1
1
1
1
4
24
33
51
18
0
0
1
32
197
255
255
254
240
252
254
238
206
165
144
123
94
61
85
34
52
91
129
103
127
67
30
40
13
20
1
0
0
0
0
0
0
0
0
0
0
0
44
120
0
0
0
0
0
0
0
0
0
0
0
0
0
0
0
0
0
0
0
0
0
0
0
0
0
0
0
0
0
0
0
0
0
0
15
118
108
68
1
0
0
0
0
0
0
3
21
21
69
122
132
93
102
144
97
116
153
246
230
144
115
23
19
9
0
0
0
3
82
90
27
2
1
0
0
0
0
0
1
41
74
10
31
65
13
0
11
135
238
255
255
255
254
250
239
199
201
141
130
119
113
90
104
134
175
164
110
62
41
47
48
20
16
45
8
115
99
86
86
86
43
0
1
2
0
0
64
89
0
0
0
0
0
0
0
0
0
0
0
0
0
0
0
0
0
0
0
0
0
0
0
0
0
0
0
0
0
0
0
0
0
0
0
3
82
134
98
36
0
0
1
1
4
41
62
72
123
130
104
78
96
171
72
93
106
197
242
197
158
71
42
26
1
0
0
36
120
72
39
1
0
0
0
0
0
0
0
25
79
73
4
36
68
3
8
140
249
251
254
255
252
253
237
216
149
104
164
173
169
176
190
131
124
65
24
3
1
7
3
4
41
87
105
117
41
48
48
48
153
72
14
23
2
4
143
15
0
0
0
0
0
0
0
0
0
0
0
0
0
0
0
0
0
0
0
0
0
0
0
0
0
0
0
0
0
0
0
0
0
0
0
0
1
41
92
51
4
0
6
20
42
73
92
104
141
169
163
142
115
157
126
119
120
147
216
200
200
84
51
34
3
2
5
79
92
133
62
2
0
0
0
0
0
0
0
2
24
40
0
6
107
36
36
201
255
255
255
246
220
242
252
240
215
192
202
185
222
204
166
149
123
32
3
1
14
11
10
40
124
123
113
68
16
5
18
15
30
136
19
3
0
54
113
0
0
0
0
0
0
0
0
0
0
0
0
0
0
0
0
0
0
0
0
0
0
0
0
0
0
0
0
0
0
0
0
0
0
0
0
0
0
0
9
72
53
7
1
20
51
47
38
77
127
193
226
212
159
192
213
176
170
165
233
222
202
98
43
46
26
17
28
105
69
96
27
0
0
0
0
0
0
0
0
0
0
2
0
3
86
91
38
220
255
255
254
243
245
245
241
242
252
251
239
220
240
200
166
175
135
125
83
60
56
62
71
112
109
56
13
5
31
41
11
19
20
116
73
2
48
111
34
0
0
0
0
0
0
0
0
0
0
0
0
0
0
0
0
0
0
0
0
0
0
0
0
0
0
0
0
0
0
0
0
0
0
0
0
0
0
0
0
18
50
69
26
9
31
23
24
79
107
151
151
132
93
104
179
247
243
236
252
242
225
175
126
92
39
5
58
84
25
22
2
0
0
0
0
3
8
3
0
0
0
0
0
2
66
117
29
223
255
255
255
254
253
226
234
242
242
228
252
228
205
219
240
188
143
140
145
147
137
126
120
69
12
0
0
0
2
4
1
1
1
36
115
93
125
39
0
0
0
0
0
0
0
0
0
0
0
0
0
0
0
0
0
0
0
0
0
0
0
0
0
0
0
0
0
0
0
0
0
0
0
0
0
2
6
18
60
27
27
54
68
67
64
93
111
139
142
152
114
119
126
161
229
255
226
231
253
255
253
233
206
182
112
28
88
100
8
0
0
0
0
0
4
87
159
87
6
0
0
0
0
2
67
116
20
239
255
255
255
255
255
252
248
253
254
252
253
247
239
220
191
190
139
119
28
26
17
1
0
0
0
0
0
0
0
0
0
0
0
0
38
48
13
0
0
0
0
0
0
0
0
0
0
0
0
0
0
0
0
0
0
0
0
0
0
0
0
0
0
0
0
0
0
0
0
0
0
1
2
0
8
64
99
179
218
115
16
3
3
5
5
21
66
106
84
98
148
160
174
224
253
246
244
253
255
255
255
255
253
251
195
77
108
122
45
2
0
0
0
0
12
201
254
205
48
0
0
0
0
9
102
121
22
240
255
255
255
255
255
255
255
255
255
249
239
254
252
240
222
168
178
82
25
17
9
6
1
1
0
0
0
0
0
0
0
0
0
0
0
0
0
0
0
0
0
0
0
0
0
0
0
0
0
0
0
0
0
0
0
0
0
0
0
0
0
0
0
0
0
0
0
0
0
0
0
7
23
28
39
148
105
79
107
154
105
51
17
1
0
0
33
98
88
119
144
176
217
252
231
204
223
250
254
242
252
254
255
255
249
140
113
127
102
44
5
1
0
0
12
234
251
235
66
0
0
0
7
82
130
156
26
233
252
255
255
255
255
254
250
254
255
252
253
253
226
226
185
187
185
55
16
25
32
14
12
16
1
0
0
0
0
0
0
0
0
0
0
0
0
0
0
0
0
0
0
0
0
0
0
0
0
0
0
0
0
0
0
0
0
0
0
0
0
0
0
0
0
0
0
0
0
0
0
0
15
169
134
61
9
2
4
32
172
174
137
63
22
8
38
89
117
153
154
173
217
251
198
210
217
239
200
182
190
200
244
238
202
139
85
125
127
105
80
48
43
9
19
168
179
135
33
3
3
10
86
161
140
175
17
105
158
216
251
255
255
254
248
255
244
226
241
250
254
251
198
161
194
69
61
89
29
0
1
2
0
0
0
0
0
0
0
0
0
0
0
0
0
0
0
0
0
0
0
0
0
0
0
0
0
0
0
0
0
0
0
0
0
0
0
0
0
0
0
0
0
0
0
0
0
0
0
1
66
146
22
2
0
0
0
0
13
14
42
131
130
67
49
109
163
123
163
207
246
249
216
201
151
134
45
73
117
100
95
64
20
11
50
123
128
126
129
143
147
163
168
208
212
187
127
88
88
124
168
189
174
173
11
9
8
47
168
252
255
251
239
249
196
218
238
237
249
254
236
199
168
141
157
98
10
3
3
11
1
0
0
0
0
0
0
0
0
0
0
0
0
0
0
0
0
0
0
0
0
0
0
0
0
0
0
0
0
0
0
0
0
0
0
0
0
0
0
0
0
0
0
0
0
0
0
24
150
37
0
0
0
0
0
0
0
0
0
24
95
178
175
168
198
185
201
242
233
156
90
102
117
47
14
38
64
14
3
5
0
1
45
125
130
132
169
188
194
249
253
253
253
251
231
209
205
190
191
191
191
149
13
2
0
0
71
215
247
225
243
250
160
158
217
141
133
224
215
249
223
179
124
78
38
36
30
13
0
0
0
0
0
0
0
0
0
0
0
0
0
0
0
0
0
0
0
0
0
0
0
0
0
0
0
0
0
0
0
0
0
0
0
0
0
0
0
0
0
0
0
0
0
0
13
105
86
4
0
0
0
0
0
0
0
0
0
0
30
64
101
147
175
145
153
203
135
75
85
115
52
15
24
59
13
0
0
0
5
1
31
112
163
170
190
191
196
253
255
255
255
255
255
253
214
193
191
191
187
97
11
0
0
0
26
144
247
230
253
251
227
189
205
113
57
195
194
227
230
224
129
76
9
3
3
1
0
0
0
0
0
0
0
0
0
0
0
0
0
0
0
0
0
0
0
0
0
0
0
0
0
0
0
0
0
0
0
0
0
0
0
0
0
0
0
0
0
0
0
0
0
9
110
121
17
0
0
0
0
0
0
0
0
0
9
22
39
44
106
170
168
118
139
207
114
67
104
75
9
18
33
36
2
0
0
0
0
0
6
86
148
189
192
190
195
249
255
255
255
255
255
252
196
189
190
195
163
34
4
0
0
0
25
162
246
190
221
171
205
224
218
217
142
210
135
120
203
232
158
143
89
48
33
0
0
0
0
0
0
0
0
0
0
0
0
0
0
0
0
0
0
0
0
0
0
0
0
0
0
0
0
0
0
0
0
0
0
0
0
0
0
0
0
0
0
0
0
0
0
38
128
18
0
0
0
0
0
0
0
0
0
1
37
63
79
115
129
134
155
140
220
186
75
53
48
22
40
9
4
29
10
2
0
0
0
0
43
100
123
189
191
190
191
214
253
255
255
255
255
251
194
191
195
198
76
2
0
0
0
0
2
58
220
106
109
100
111
194
221
231
162
185
126
67
162
214
210
73
66
87
110
114
100
87
75
51
2
0
0
0
0
0
0
0
0
0
0
21
47
30
0
0
0
0
0
0
0
0
0
0
0
0
0
0
0
0
0
0
0
0
0
0
0
0
0
0
0
18
119
8
0
0
0
0
0
0
0
1
1
5
37
100
98
47
86
136
124
155
194
116
20
8
13
13
20
1
0
4
25
26
3
0
0
0
15
9
43
146
189
193
192
197
251
255
255
255
255
250
200
228
200
108
12
0
0
0
0
0
1
67
209
134
16
81
114
67
113
233
142
161
148
67
101
176
233
124
11
0
0
10
39
47
106
123
40
0
0
0
0
0
0
0
0
0
60
119
86
106
93
36
0
0
0
0
0
0
0
0
0
0
0
0
0
0
0
0
0
0
0
0
0
0
0
0
3
36
104
10
0
0
0
0
0
0
1
11
17
56
80
65
51
27
61
132
113
215
146
74
4
0
0
1
1
0
0
0
4
26
19
1
0
0
1
20
5
51
148
216
230
233
254
255
255
255
255
251
228
186
93
21
0
0
0
0
0
0
1
51
207
190
13
33
133
47
69
180
189
220
154
54
74
132
211
172
72
34
6
0
0
0
0
69
130
32
0
0
0
0
0
0
28
106
98
56
0
19
45
139
5
0
0
0
0
0
0
0
0
0
0
0
0
0
0
0
0
0
0
0
1
2
0
8
64
110
117
32
2
0
0
0
0
1
13
16
25
17
7
11
31
13
76
115
119
190
98
35
1
0
0
0
0
0
0
0
0
6
7
0
0
0
0
6
10
4
48
111
170
214
236
237
237
237
224
186
128
59
12
0
0
0
0
0
0
0
0
14
148
224
38
0
49
101
128
93
81
133
212
118
62
54
171
151
55
55
50
2
0
0
0
0
72
127
51
51
51
51
65
119
128
60
6
0
0
0
0
108
57
0
0
0
0
0
0
0
0
0
0
0
0
0
0
0
0
0
0
0
7
23
28
39
148
105
68
47
12
0
0
0
0
3
24
19
3
0
0
1
24
26
102
67
90
179
74
14
0
0
0
0
0
0
0
1
2
0
1
12
2
15
0
1
0
0
0
17
48
73
85
85
85
85
79
56
24
2
0
0
0
0
0
0
0
0
0
9
139
236
89
5
0
53
182
47
14
66
189
119
51
42
137
192
98
24
71
33
1
0
0
0
0
98
100
100
100
100
101
25
0
0
0
0
0
0
0
63
89
0
0
0
0
0
0
0
0
0
0
0
0
0
0
0
0
0
0
0
0
15
169
134
61
9
2
3
7
3
0
0
2
17
9
1
0
0
0
1
32
83
79
25
72
180
35
0
0
0
0
0
0
0
0
9
4
1
0
12
1
3
0
0
0
0
0
0
0
0
0
0
0
0
0
0
0
0
0
0
0
0
0
0
0
0
0
8
70
205
172
50
5
35
160
120
128
146
111
138
32
40
74
173
177
14
23
81
6
0
0
0
0
0
0
0
0
0
0
0
0
0
0
0
0
0
0
32
110
0
0
0
0
0
0
0
0
0
0
0
0
0
0
0
0
0
0
0
1
66
146
22
2
0
0
0
0
1
0
0
1
7
1
0
0
1
2
6
62
56
11
13
111
164
23
0
0
0
0
0
0
0
0
11
0
0
0
0
0
0
0
0
0
0
0
0
0
0
0
0
0
0
0
0
0
0
0
0
0
0
0
0
0
0
0
1
6
93
222
168
35
91
67
50
117
187
139
173
114
39
39
97
200
28
0
67
51
2
0
0
0
0
0
0
0
0
0
0
0
0
0
0
0
0
0
0
129
0
0
0
0
0
0
0
0
0
0
0
0
0
0
0
0
0
0
0
24
150
37
0
0
0
0
0
0
0
0
0
0
0
0
0
1
11
19
31
43
22
0
58
198
115
6
0
0
0
0
0
0
0
0
4
1
0
0
0
0
0
0
0
0
0
0
0
0
0
0
0
0
0
0
0
0
0
0
0
0
0
0
0
0
0
0
0
0
35
184
235
64
103
14
0
82
87
53
99
136
129
59
72
204
91
28
17
68
37
2
0
0
0
0
0
0
0
0
0
0
0
0
0
0
0
0
0
128
2
0
0
0
0
0
0
0
0
0
0
0
0
0
0
0
0
0
13
105
86
4
0
0
0
0
0
0
0
0
0
0
0
0
0
0
1
2
5
38
33
31
132
151
42
0
0
0
0
0
0
0
0
0
0
2
0
0
0
0
0
0
0
0
0
0
0
0
0
0
0
0
0
0
0
0
0
0
0
0
0
0
0
0
0
0
0
0
15
118
239
159
152
23
2
51
73
0
15
85
165
140
94
155
182
145
24
25
100
8
0
0
0
0
0
0
0
0
0
0
0
0
0
0
0
0
0
121
22
0
0
0
0
0
0
0
0
0
0
0
0
0
0
0
0
9
110
121
17
0
0
0
0
0
0
0
0
0
0
0
0
0
0
0
0
0
0
28
70
131
194
76
3
0
0
0
0
0
0
0
0
0
10
2
0
0
0
0
0
0
0
0
0
0
0
0
0
1
0
0
0
0
0
0
0
0
0
0
0
0
0
0
0
0
0
0
2
62
179
182
227
131
7
8
119
13
0
21
111
170
148
91
145
208
49
0
90
88
4
0
0
0
0
0
0
0
0
0
0
0
0
0
0
0
0
69
104
0
0
0
0
0
0
0
0
0
0
0
0
0
0
0
0
38
128
18
0
0
0
0
0
0
0
0
0
0
0
0
0
0
0
0
0
0
2
41
131
189
121
21
0
0
0
0
0
0
0
0
0
0
30
0
0
0
0
0
0
0
0
0
0
0
0
0
0
3
0
0
0
0
0
0
0
0
0
0
0
0
0
0
0
0
0
0
0
32
143
169
192
129
105
63
144
63
2
0
42
142
174
104
85
188
121
48
27
75
61
0
0
0
0
0
0
0
0
0
0
0
0
0
0
0
0
0
116
0
0
0
0
0
0
0
0
0
0
0
0
0
0
0
0
19
120
8
0
0
0
0
0
0
0
0
0
0
0
0
0
0
0
0
0
0
31
127
199
144
26
26
2
0
0
0
0
0
0
0
1
21
1
0
0
0
0
0
0
0
0
0
0
0
0
0
1
14
0
0
0
0
0
0
0
0
0
0
0
0
0
0
0
0
0
0
0
8
95
199
132
35
99
129
212
155
8
0
0
60
166
137
37
132
110
130
102
58
84
75
9
0
0
0
0
0
0
0
0
0
0
0
0
0
0
0
122
64
0
0
0
0
0
0
0
0
0
0
0
0
0
0
2
47
115
9
0
0
0
0
0
0
0
0
0
0
0
0
0
0
0
0
0
10
90
192
127
52
1
6
1
0
0
0
0
0
0
0
14
35
0
0
0
0
0
0
0
0
0
0
0
0
0
0
1
10
0
0
0
0
0
0
0
0
0
0
0
0
0
0
0
0
0
0
0
0
61
217
112
0
0
55
166
218
40
0
0
5
143
133
19
59
76
71
112
129
94
110
102
22
3
0
0
0
0
0
0
0
0
0
0
0
0
0
48
106
0
0
0
0
