P2
# CREATOR: GIMP PNM Filter Version 1.1
128 32
255
0
0
0
0
0
0
0
0
0
0
0
0
0
141
0
0
0
0
0
0
0
0
0
0
0
5
13
7
10
23
14
11
60
16
23
26
32
42
19
36
73
79
169
219
182
177
190
224
201
185
233
215
126
108
17
0
0
0
0
0
0
0
1
1
0
0
0
0
0
0
0
0
0
0
0
1
10
0
4
56
52
19
44
58
74
135
74
82
77
21
7
57
62
10
0
0
0
0
0
0
0
0
0
0
0
0
0
0
0
0
0
0
0
0
0
0
0
8
145
24
0
0
0
0
0
0
0
0
0
0
0
0
0
0
0
0
0
0
0
0
0
123
111
0
0
0
0
0
0
0
0
0
0
11
29
24
12
9
34
28
71
50
21
46
26
23
11
5
10
55
126
210
237
184
202
215
227
178
232
183
157
56
3
0
0
0
0
0
0
0
1
9
5
0
0
0
0
0
0
0
0
0
0
1
7
1
3
54
62
22
20
79
126
156
103
69
77
54
58
91
16
0
0
0
0
0
0
0
0
0
0
0
0
0
0
0
0
0
0
0
0
0
0
0
0
82
100
0
0
0
0
0
0
0
0
0
0
0
0
0
0
0
0
0
0
0
0
0
0
6
119
1
0
0
0
0
0
0
0
0
0
0
2
24
29
37
55
43
40
80
50
63
11
8
18
24
30
47
99
200
242
219
207
207
239
194
234
174
167
61
1
0
0
0
0
0
0
0
2
13
13
2
2
2
0
0
0
0
0
0
0
0
6
10
4
33
73
48
72
105
160
170
70
48
78
68
95
62
28
7
1
0
0
0
0
0
0
0
0
0
0
0
0
0
0
0
0
0
0
0
0
0
18
106
13
0
0
0
0
0
0
0
0
0
0
0
0
0
0
0
0
0
0
0
0
0
0
0
89
92
8
0
0
0
0
0
0
0
0
0
1
24
61
60
76
64
49
99
56
60
29
5
18
36
55
65
97
194
248
246
190
189
237
232
246
211
102
40
2
0
0
0
0
1
3
5
37
40
39
39
40
37
2
3
3
0
0
0
0
0
2
18
9
24
94
88
120
162
197
124
85
67
55
67
58
5
12
20
1
0
0
0
0
0
0
0
0
0
0
1
0
8
49
43
0
0
0
0
0
0
65
81
0
0
0
0
0
0
0
0
0
0
0
0
0
0
0
0
0
0
0
0
0
0
0
0
10
96
150
51
47
19
0
0
0
0
0
0
3
43
55
68
74
90
87
104
85
55
38
52
71
50
67
105
139
180
238
254
233
226
252
254
251
240
107
15
0
0
0
0
1
23
39
38
23
22
22
22
22
20
1
37
37
3
0
0
0
0
0
2
15
22
116
99
155
219
173
120
105
135
133
127
58
21
4
13
1
0
0
0
0
0
0
0
0
1
14
90
93
131
99
113
106
70
0
0
0
1
115
34
0
0
0
0
0
0
0
0
0
0
0
0
0
0
0
0
0
0
0
0
0
0
0
0
0
0
64
86
86
118
97
0
0
0
0
0
2
27
14
49
29
104
108
102
128
80
36
54
79
63
112
131
153
179
213
245
253
243
249
255
255
250
138
11
0
0
0
2
37
48
24
20
2
1
1
1
1
1
4
21
25
49
9
0
0
0
1
13
11
34
120
156
239
235
140
109
93
162
133
135
126
79
42
22
13
2
0
0
0
0
0
0
1
33
108
96
54
26
2
8
38
130
118
19
43
114
91
4
0
0
0
0
0
0
0
0
0
0
0
0
0
0
0
0
0
0
0
0
0
0
0
0
0
0
1
2
0
22
117
117
95
51
1
2
19
44
4
31
49
49
41
77
120
186
162
118
93
107
121
113
130
171
195
204
246
255
255
255
255
251
228
74
2
0
2
43
63
26
1
1
0
0
0
0
0
2
37
40
6
31
58
10
0
0
3
32
51
84
136
219
234
182
116
89
102
157
60
71
121
136
92
56
41
20
1
0
0
0
0
0
46
136
82
4
0
0
0
0
0
2
68
136
132
44
0
0
0
0
0
0
0
0
0
0
0
0
0
0
0
0
0
0
0
0
0
0
0
0
0
0
0
0
7
23
9
1
0
1
101
115
97
102
121
117
75
2
3
7
0
4
37
90
118
152
189
183
163
165
147
119
177
214
247
253
253
254
250
255
245
66
1
0
24
64
65
41
2
0
0
0
0
0
0
1
23
57
37
2
34
46
2
2
24
21
35
128
204
229
212
111
117
80
130
147
128
139
135
152
115
86
70
38
11
2
0
0
3
67
128
60
2
0
0
0
0
0
0
0
0
0
0
0
0
0
0
0
0
0
0
0
0
0
0
0
0
0
0
0
0
0
0
0
0
0
0
0
0
0
0
0
1
9
24
20
10
19
13
21
66
76
93
93
145
132
130
96
9
1
4
59
146
143
178
227
202
188
206
188
229
247
252
230
224
253
255
255
251
142
12
5
71
69
98
60
3
0
0
0
0
0
0
0
2
22
21
0
3
60
20
9
27
23
58
124
195
238
210
131
144
148
208
189
186
211
201
161
120
91
73
75
50
23
6
49
143
146
36
1
0
0
0
0
0
0
0
0
0
0
0
0
0
0
0
0
0
0
0
0
0
0
0
0
0
0
0
0
0
0
0
0
0
0
0
0
0
0
0
0
0
0
3
19
19
14
16
46
23
4
4
12
50
52
64
117
131
71
63
74
117
188
164
216
239
222
245
250
247
247
236
249
237
253
255
255
254
178
17
25
73
64
78
25
0
0
0
0
0
0
0
0
0
1
1
0
2
62
60
16
51
62
129
177
224
241
234
233
246
238
145
93
109
164
198
145
111
42
64
73
64
68
116
133
85
19
0
0
0
0
0
0
0
0
0
0
0
0
0
0
0
0
0
0
0
0
0
0
0
0
0
0
0
0
0
0
0
0
0
0
0
0
0
0
0
0
0
0
0
0
0
1
1
1
1
4
1
0
0
0
2
4
5
26
124
146
125
135
158
211
240
202
207
245
249
232
230
246
224
242
254
255
255
255
255
201
50
35
60
25
21
2
0
0
0
0
0
3
0
0
0
0
0
0
4
62
68
12
94
144
192
227
253
254
247
231
229
246
179
114
86
117
144
129
126
117
133
122
115
127
102
38
8
17
23
4
0
0
0
0
0
0
0
0
0
0
0
0
0
0
0
0
0
0
0
0
0
0
0
0
0
0
0
0
0
0
0
0
0
0
0
0
0
0
0
0
0
0
0
0
0
0
0
0
0
0
0
0
0
0
0
7
21
63
117
145
154
190
206
215
249
250
252
252
253
253
248
253
255
255
255
255
255
247
119
45
58
6
0
0
0
0
0
2
48
84
49
4
0
0
0
0
2
63
96
12
178
248
252
254
255
255
250
252
249
252
243
204
174
143
138
118
118
90
69
42
33
18
5
16
47
125
172
79
35
19
0
0
1
0
0
0
0
0
0
0
0
0
0
0
0
0
0
0
0
0
0
0
0
0
0
0
0
0
0
0
0
0
0
0
0
0
0
0
0
0
0
0
0
0
0
0
0
0
0
0
1
1
2
7
13
16
32
126
176
182
229
246
254
254
239
249
255
255
255
255
255
255
255
255
255
255
192
58
64
40
3
0
0
0
0
11
177
213
179
47
0
0
0
0
4
67
116
19
240
255
255
255
255
255
255
245
201
220
247
244
176
128
90
87
98
85
21
2
0
0
9
23
91
193
149
147
185
70
12
4
12
1
0
0
0
0
0
0
0
0
0
0
0
0
0
0
0
0
0
0
0
0
0
0
0
0
0
0
0
0
0
0
0
0
0
0
0
0
0
0
0
0
0
0
0
0
0
0
6
12
18
15
27
25
28
86
207
178
188
244
233
253
252
252
255
254
250
254
255
255
255
255
250
247
226
75
100
65
38
3
1
1
0
10
196
246
201
63
0
0
0
2
44
105
118
21
232
252
252
234
217
220
241
239
214
214
219
245
201
200
173
163
99
73
20
0
6
41
132
183
162
29
11
11
40
143
153
84
15
0
0
0
0
0
0
0
0
0
0
0
0
0
0
0
0
0
0
0
0
0
0
0
0
0
0
0
0
0
0
0
0
0
0
0
0
0
0
0
0
0
0
0
0
0
19
77
128
124
44
7
42
97
59
99
198
157
227
255
250
254
241
219
251
254
249
254
255
255
246
196
134
103
94
67
119
70
63
44
43
40
5
12
112
139
111
30
1
1
5
44
102
128
119
10
75
150
162
116
117
79
111
204
206
222
225
252
223
179
117
151
140
74
31
50
110
145
66
40
30
0
0
0
0
13
74
146
15
0
0
0
0
0
0
0
0
0
0
0
0
0
0
0
0
0
0
0
0
0
0
0
0
0
0
0
0
0
0
0
0
0
0
0
0
0
0
0
0
0
0
0
10
65
104
80
23
52
116
68
24
126
149
165
171
204
250
253
247
234
240
198
218
246
243
252
255
246
114
26
11
8
23
50
120
107
105
104
104
102
87
124
186
189
148
86
47
44
81
105
126
129
117
7
7
7
16
48
68
24
20
122
91
106
155
226
248
205
180
183
138
137
142
168
113
28
2
0
0
0
0
0
0
0
10
121
81
2
0
0
0
0
0
0
0
0
0
0
0
0
0
0
0
0
0
0
0
0
0
0
0
0
0
0
0
0
0
0
0
0
0
0
0
0
0
0
0
47
50
90
143
88
32
0
2
23
59
138
75
97
129
204
236
238
213
203
135
165
200
148
195
247
242
232
246
181
25
0
0
27
19
29
84
125
127
127
126
129
166
192
250
252
230
170
140
107
124
127
127
127
100
8
0
0
0
4
45
57
26
41
120
100
76
107
195
202
174
176
192
168
116
88
12
0
0
0
0
0
0
0
0
0
0
25
150
29
0
0
0
0
0
0
0
0
0
0
0
0
0
0
0
0
0
0
0
0
0
0
0
0
0
0
0
0
0
0
0
0
0
38
84
88
88
129
128
107
98
69
7
0
0
0
0
2
2
54
139
116
152
239
228
210
206
145
69
158
198
195
233
250
243
242
240
86
7
0
0
2
1
11
59
123
128
127
126
131
184
197
250
255
250
193
149
128
128
127
127
125
64
7
0
0
0
0
6
46
17
4
34
96
89
72
158
174
113
137
182
153
72
20
23
4
0
0
0
0
0
0
0
0
0
2
83
142
30
1
0
0
0
0
0
0
0
0
0
0
0
0
0
0
0
0
0
0
0
0
0
0
0
0
0
0
0
0
0
0
0
114
63
48
47
17
0
0
0
0
0
0
0
0
0
0
0
0
44
153
172
222
186
111
166
180
159
213
224
231
180
187
209
216
235
101
14
0
0
0
0
2
80
144
128
127
127
128
151
190
216
249
216
189
132
126
127
126
131
115
21
3
0
0
0
1
11
41
11
29
42
26
93
75
129
229
175
134
151
131
124
98
59
56
5
0
0
0
0
0
0
0
0
0
4
51
132
10
0
0
0
0
0
0
0
0
0
0
0
0
0
0
0
0
0
0
0
0
0
0
0
0
0
0
0
0
0
0
0
118
0
0
0
0
0
0
0
0
0
0
0
0
0
0
0
0
12
114
183
163
149
127
154
173
168
228
222
155
110
122
74
163
172
30
1
0
0
0
25
111
123
115
126
127
127
126
131
185
195
211
194
185
131
125
126
131
143
58
1
0
0
0
1
15
29
4
1
5
36
10
26
9
59
159
199
130
127
130
85
94
76
86
31
2
1
0
0
0
0
0
0
0
0
22
128
10
0
0
0
0
0
0
0
0
0
0
0
0
0
0
0
0
0
0
0
0
0
0
0
0
0
0
0
0
0
0
0
118
0
0
0
0
0
0
0
0
0
0
0
0
0
0
0
0
34
181
226
151
69
85
173
151
173
199
90
56
138
50
31
191
167
32
0
0
0
38
0
0
1
38
98
126
127
126
127
149
186
193
189
149
128
128
130
143
81
10
0
0
0
1
20
26
4
0
0
0
2
1
0
0
25
115
202
179
114
132
54
42
88
93
67
23
18
6
0
0
0
0
0
0
0
17
118
8
0
0
0
0
0
0
0
0
0
0
0
0
0
0
0
0
0
0
0
0
0
0
0
0
0
0
0
0
0
0
0
118
0
0
0
0
0
0
0
0
0
0
0
0
0
0
12
50
94
198
194
110
65
72
193
209
190
164
30
71
116
17
58
223
154
24
0
0
67
0
0
0
0
5
39
103
120
126
129
131
152
190
188
132
130
159
122
68
16
0
0
0
0
3
42
10
0
0
0
0
0
0
0
0
12
72
151
187
102
125
26
23
48
30
47
27
11
3
4
1
0
0
0
0
1
18
93
27
0
0
1
0
0
0
0
0
0
0
0
0
0
0
0
0
0
0
0
0
0
0
0
0
0
0
0
0
0
0
0
120
4
0
0
0
0
0
0
0
0
0
0
0
0
6
74
45
67
185
125
61
73
153
203
108
73
128
102
84
29
1
101
234
80
5
0
66
123
0
0
0
0
0
3
35
65
106
140
155
157
178
178
148
120
95
43
8
0
0
0
0
0
1
16
5
1
0
0
0
0
0
0
0
3
49
126
175
98
108
56
9
32
0
9
9
17
24
9
0
0
0
0
0
9
67
182
70
12
4
12
1
0
0
0
0
0
0
0
0
0
0
0
0
0
0
0
0
0
0
0
0
0
0
0
0
0
0
0
117
51
0
0
0
0
0
0
0
0
0
0
0
4
59
55
25
141
194
86
50
59
159
178
33
7
96
140
34
0
18
150
236
72
1
0
88
50
0
0
0
0
0
0
0
12
36
54
63
63
64
64
59
42
18
1
0
0
0
0
0
0
0
0
2
0
0
0
0
0
0
0
0
0
15
87
176
57
72
82
33
20
1
0
0
7
12
21
1
0
0
0
0
3
10
40
143
153
84
15
0
0
0
0
0
0
0
0
0
0
0
0
0
0
0
0
0
0
0
0
0
0
0
0
0
0
0
0
98
79
0
0
0
0
0
0
0
0
0
0
1
33
67
10
52
209
137
40
41
55
152
132
141
111
123
141
12
9
87
210
165
39
1
0
66
109
0
0
0
0
0
0
0
0
0
0
0
0
0
0
0
0
0
0
0
0
0
0
0
0
0
0
0
0
0
0
0
0
0
0
0
0
0
68
178
44
20
59
76
26
1
0
0
0
0
17
6
0
0
0
0
0
0
0
13
74
146
15
0
0
0
0
0
0
0
0
0
0
0
0
0
0
0
0
0
0
0
0
0
0
0
0
0
0
0
0
2
127
64
0
0
0
0
0
0
0
0
0
5
78
37
2
83
193
60
30
56
147
166
158
196
61
45
114
37
61
210
197
50
3
0
0
8
93
0
0
0
0
0
0
0
0
0
0
0
0
0
0
0
0
0
0
0
0
0
0
0
0
0
0
1
4
1
0
0
0
0
0
0
0
1
41
175
114
8
12
55
49
18
14
5
0
0
3
2
0
0
0
0
0
0
0
0
10
121
81
2
0
0
0
0
0
0
0
0
0
0
0
0
0
0
0
0
0
0
0
0
0
0
0
0
0
0
0
0
19
112
98
50
2
0
0
0
0
0
4
62
49
9
47
138
173
59
70
146
139
63
57
135
14
0
72
53
125
249
130
4
0
0
0
0
0
0
0
0
0
0
0
0
0
0
0
0
0
0
0
0
0
0
0
0
0
0
0
0
0
0
0
1
2
1
0
0
0
0
0
0
0
0
18
118
177
44
0
28
45
10
6
2
0
0
0
0
0
0
0
0
0
0
0
0
0
25
150
29
0
0
0
0
0
0
0
0
0
0
0
0
0
0
0
0
0
0
0
0
0
0
0
0
0
0
0
0
0
0
63
114
115
34
0
0
0
1
29
90
15
68
148
190
133
106
133
166
59
0
2
113
13
3
84
125
203
217
73
1
0
0
0
0
0
0
0
0
0
0
0
0
0
0
0
0
0
0
0
0
0
0
0
0
0
0
0
0
0
0
0
0
0
0
0
0
0
0
0
0
0
0
4
44
163
131
46
53
18
0
0
0
0
0
0
0
0
0
0
0
0
0
0
0
0
2
83
142
30
1
0
0
0
0
0
0
0
0
0
0
0
0
0
0
0
0
0
0
0
0
0
0
0
0
0
0
0
0
0
4
53
109
0
0
0
24
104
54
2
109
204
126
88
155
171
75
8
2
64
74
0
34
185
210
202
129
33
0
0
0
0
0
0
0
0
0
0
0
0
0
0
0
0
0
0
0
0
0
0
0
0
0
0
0
0
0
0
0
0
0
0
0
0
0
0
0
0
0
0
0
0
6
98
192
122
89
8
0
0
0
0
0
0
0
0
0
0
0
0
0
0
0
0
0
4
51
132
10
0
0
0
0
0
0
0
0
0
0
0
0
0
0
0
0
0
0
0
0
0
0
0
0
0
0
0
0
0
0
0
110
32
0
8
83
61
20
78
147
164
78
127
175
113
16
0
9
131
85
79
110
138
197
193
89
11
0
0
0
0
0
0
0
0
0
0
0
0
0
0
0
0
0
0
0
0
0
0
0
0
0
0
0
0
0
0
0
0
0
0
0
0
0
0
0
0
0
0
0
0
0
52
142
181
124
28
0
0
0
0
0
0
0
0
0
0
0
0
0
0
0
0
0
0
22
128
10
0
0
0
0
0
0
0
0
0
0
0
0
0
0
0
0
0
0
0
0
0
0
0
0
0
0
0
0
0
0
0
86
47
33
78
77
72
108
128
130
84
60
159
149
23
0
1
44
196
175
129
76
23
182
193
54
0
0
0
0
0
0
0
44
0
0
0
0
0
0
0
0
0
0
0
0
0
0
0
0
0
0
0
0
0
0
0
0
0
0
0
0
0
0
0
0
0
0
0
0
0
1
24
45
160
180
101
12
0
0
0
0
0
0
0
0
0
0
0
0
0
0
0
0
0
17
125
10
0
0
0
0
0
0
0
0
0
0
0
0
0
0
0
0
0
0
0
0
0
0
0
0
0
0
0
0
0
0
59
124
53
121
97
105
130
100
49
102
32
67
123
104
3
0
2
110
215
121
35
0
7
181
180
25
0
0
0
0
0
0
0
85
0
0
0
0
0
0
0
0
0
0
0
0
0
0
0
0
0
0
0
0
0
0
0
0
0
0
0
0
0
0
0
0
0
0
0
0
0
1
8
5
64
163
182
70
6
0
0
0
0
0
0
0
0
0
0
0
0
0
0
0
0
12
141
93
9
0
0
0
0
0
0
0
0
0
