P2
# CREATOR: GIMP PNM Filter Version 1.1
128 32
255
255
255
255
255
255
255
255
255
255
255
255
232
50
17
20
20
20
20
20
20
20
20
20
20
20
20
20
20
20
20
20
20
20
20
20
20
24
29
29
34
97
110
168
109
100
105
179
254
255
255
255
255
255
255
255
255
255
255
255
255
255
255
255
255
255
255
255
255
255
255
255
255
255
255
255
255
255
255
255
255
255
255
255
255
255
255
255
255
255
255
255
255
255
255
255
255
255
255
255
255
255
255
255
255
255
255
255
255
255
255
255
255
249
120
27
93
99
98
98
98
98
97
103
172
178
178
171
115
255
255
255
255
255
255
255
255
255
255
252
160
6
0
0
0
0
0
0
0
0
0
0
0
0
0
0
0
0
0
0
0
0
4
11
16
88
159
164
163
167
168
171
165
165
164
174
247
255
255
255
255
255
255
255
255
255
255
255
255
255
255
255
255
255
255
255
255
255
255
255
255
255
255
255
255
255
255
255
255
255
255
255
255
255
255
255
255
255
255
255
255
255
255
255
255
255
255
255
255
255
255
255
255
255
255
255
255
255
255
255
255
254
197
13
75
86
85
85
85
85
84
90
165
171
171
165
100
255
255
255
255
255
255
255
255
255
255
243
70
0
0
0
0
0
0
0
0
0
0
0
0
0
0
0
0
0
4
10
10
14
86
153
157
156
162
163
163
161
161
165
171
172
171
173
194
255
255
255
255
255
255
255
255
255
255
255
255
255
255
255
255
255
255
255
255
255
255
255
255
255
255
255
255
255
255
255
255
255
255
255
255
255
255
255
255
255
255
255
255
255
255
255
255
255
255
255
255
255
255
255
255
255
255
255
255
255
255
255
255
255
243
63
10
80
86
85
85
85
84
90
166
171
171
165
103
255
255
255
255
255
255
255
255
255
255
198
14
0
0
0
0
0
0
0
0
0
0
0
0
0
0
0
0
7
85
156
161
162
158
94
80
13
7
7
7
7
13
90
166
171
168
163
231
254
255
255
255
255
255
255
255
255
255
255
255
255
255
255
255
255
255
255
255
255
255
255
255
255
255
255
255
255
255
255
255
255
255
255
255
255
255
255
255
255
255
255
255
255
255
255
255
255
255
255
255
255
255
255
255
255
255
255
255
255
255
255
255
255
250
162
15
78
86
85
85
85
84
90
160
171
171
165
103
255
255
255
255
255
255
255
255
255
252
111
3
0
0
0
0
0
0
0
0
0
0
0
0
0
0
0
7
85
163
174
174
164
85
5
7
7
9
9
9
8
5
82
166
174
161
21
23
188
252
255
255
255
255
255
255
255
255
255
255
255
255
255
255
255
255
255
255
255
255
255
255
255
255
255
255
255
255
255
255
255
255
255
255
255
255
255
255
255
255
255
255
255
255
255
255
255
255
255
255
255
255
255
255
255
255
255
255
255
255
255
255
255
254
214
22
77
86
85
85
85
85
84
95
165
173
165
103
255
255
255
255
255
255
255
255
255
244
40
0
0
0
0
0
0
0
0
0
0
0
0
0
0
0
3
85
163
172
171
166
89
9
10
85
159
157
156
157
152
89
94
165
173
166
85
4
47
243
255
255
255
255
255
255
255
255
255
255
255
255
255
255
255
255
255
255
255
255
255
255
255
255
255
255
255
255
255
255
255
255
255
255
255
255
255
255
255
255
156
124
176
85
160
255
255
255
151
151
255
255
255
255
255
255
255
255
255
255
255
255
255
255
248
29
75
86
85
85
85
85
84
89
165
173
165
103
255
255
255
255
255
255
255
255
255
188
13
0
0
0
0
0
0
0
0
0
0
0
0
0
0
0
14
157
174
170
171
165
92
89
158
165
158
92
87
87
93
163
166
170
170
170
150
83
153
237
255
255
255
255
255
255
255
255
255
255
255
255
255
255
255
255
255
255
255
255
255
255
255
255
255
255
255
255
255
255
255
255
255
255
255
255
255
255
234
129
26
12
35
0
28
133
199
239
121
24
165
255
255
255
164
71
71
71
72
164
255
255
255
255
251
30
75
86
85
85
85
85
84
90
165
173
165
103
255
255
255
255
255
255
255
255
255
129
5
0
0
0
0
0
0
0
0
0
0
0
0
0
0
2
79
167
171
170
170
170
165
162
159
87
13
4
4
4
13
157
174
170
173
161
17
7
99
251
255
255
255
255
255
255
255
255
255
255
255
255
255
255
255
255
255
255
255
255
255
255
255
255
255
255
255
255
255
255
255
255
255
255
255
255
255
233
118
14
0
0
28
34
0
15
44
132
108
0
100
141
72
72
30
0
0
0
0
30
128
233
255
255
251
37
76
86
85
85
85
85
84
90
165
173
165
103
255
255
255
255
255
255
255
255
255
127
5
0
0
0
0
0
0
0
0
0
0
0
0
0
0
8
91
166
171
170
170
171
168
90
11
2
0
0
0
0
0
88
166
171
173
161
16
0
22
249
255
255
255
255
255
255
255
255
255
255
255
255
255
255
255
255
255
255
255
255
255
255
255
255
255
255
255
255
255
255
255
255
255
255
185
190
233
188
77
0
0
31
86
46
0
0
0
21
25
0
26
20
0
0
0
31
71
32
0
0
75
188
225
255
246
97
83
85
85
85
85
85
84
90
165
173
165
103
255
255
255
255
255
255
255
255
255
127
5
0
0
0
0
0
0
0
0
0
0
0
0
0
3
85
162
171
170
170
170
171
166
89
11
3
4
4
4
4
14
89
166
171
170
172
151
4
25
248
255
255
255
255
255
255
255
255
255
255
255
255
255
255
255
255
255
255
255
255
255
255
255
255
255
255
255
255
255
255
255
255
255
190
123
169
184
170
155
57
18
118
95
13
62
128
162
128
19
0
66
65
0
0
31
80
97
45
0
0
85
178
185
159
162
108
83
85
85
85
85
85
84
90
165
173
165
103
255
255
255
255
255
255
255
255
255
127
5
0
0
0
0
0
0
0
0
0
0
0
0
0
16
159
174
170
170
170
170
170
170
166
156
89
84
85
84
89
156
166
170
170
171
175
162
29
156
253
255
255
255
255
255
255
255
255
255
255
255
255
255
255
255
255
255
255
255
255
255
255
255
165
72
71
163
255
255
255
255
225
190
164
153
172
168
169
177
147
134
137
76
98
93
57
73
125
114
25
30
66
30
26
84
59
25
12
0
61
155
174
170
151
151
46
73
86
85
85
85
85
84
90
165
173
165
103
255
255
255
255
255
255
255
255
255
127
5
0
0
0
0
0
0
0
0
0
0
0
0
4
76
162
171
170
170
170
170
170
170
172
173
167
166
166
166
167
173
172
170
171
165
165
163
153
171
254
255
255
255
255
255
255
255
255
255
255
255
255
255
255
255
255
255
255
255
255
255
255
199
44
46
121
149
237
167
71
132
189
164
170
172
170
170
170
170
176
180
167
80
44
26
0
0
22
46
12
21
112
110
72
59
9
0
0
61
159
178
169
170
172
165
43
10
82
86
85
85
85
84
90
165
173
165
103
255
255
255
255
255
255
255
255
255
130
5
0
0
0
0
0
0
0
0
0
0
0
0
0
10
89
166
171
170
170
170
170
170
170
170
171
172
171
172
171
170
170
173
161
93
88
97
97
104
238
254
255
255
255
255
255
255
255
255
255
255
255
255
255
255
255
255
255
255
255
255
163
46
1
26
159
183
116
88
81
143
172
170
170
170
170
166
202
233
233
232
239
188
48
23
35
0
0
55
130
134
165
164
159
71
0
0
26
123
182
169
170
170
170
168
61
2
75
87
85
85
85
84
90
165
173
165
103
255
255
255
255
255
255
255
255
255
165
10
0
0
0
0
0
0
0
0
0
0
0
0
0
0
88
166
171
170
170
170
170
170
170
170
170
170
170
170
170
170
170
156
94
86
95
156
162
158
151
249
255
255
255
255
255
255
255
255
255
255
255
255
255
255
255
255
255
255
255
163
30
0
0
0
36
114
145
142
164
176
169
170
170
170
170
164
227
170
73
75
168
254
117
12
86
71
1
28
156
220
167
167
210
210
87
13
107
166
171
169
169
170
170
170
75
4
6
76
87
85
85
84
90
165
173
165
103
255
255
255
255
255
255
255
255
255
169
10
0
0
0
0
0
0
0
0
0
0
0
4
0
18
156
172
170
170
170
170
170
170
170
170
170
170
170
170
170
173
159
23
83
163
151
88
87
176
245
255
255
255
255
255
225
190
190
225
255
255
255
255
255
255
255
255
255
255
255
214
87
0
0
0
55
150
178
174
172
170
170
170
170
170
170
177
126
31
0
0
30
73
38
0
30
97
105
10
124
252
229
138
61
175
205
124
164
173
169
171
174
171
176
234
166
90
9
7
76
87
86
84
90
165
173
165
103
255
255
255
255
255
255
255
255
255
160
10
0
0
0
0
0
0
0
0
0
0
6
68
25
150
173
170
170
170
170
170
170
170
170
170
170
170
170
170
170
173
158
8
78
155
27
8
27
237
255
254
255
255
255
255
214
160
164
176
236
210
96
72
167
255
255
255
255
195
184
255
137
0
0
15
165
232
171
169
170
170
167
164
164
164
164
171
135
162
174
45
0
0
0
0
0
22
47
6
34
174
255
125
0
128
233
159
209
249
240
205
184
183
242
234
177
233
161
8
2
73
81
85
90
165
173
165
103
216
212
212
213
247
255
255
233
255
111
4
0
0
0
0
0
0
0
0
0
0
4
87
159
174
172
171
170
170
170
170
170
170
170
170
170
170
170
170
170
173
161
19
11
78
76
87
160
253
244
210
213
213
213
213
192
167
170
164
208
136
6
0
91
247
240
216
161
74
167
250
97
0
15
100
147
114
128
180
167
161
189
213
213
213
221
206
186
157
182
170
128
128
64
0
27
23
0
0
0
58
179
147
11
136
251
206
172
134
146
174
178
234
167
37
94
181
242
97
16
13
9
74
91
165
173
165
102
147
171
163
164
198
214
248
122
100
79
2
0
0
0
0
0
0
0
0
0
0
1
79
163
165
166
164
170
170
170
170
170
170
170
170
170
170
170
170
170
170
170
157
82
14
90
162
179
253
246
167
164
164
164
161
164
171
170
177
128
27
0
37
125
192
185
161
106
79
172
196
115
88
64
78
36
0
52
149
191
209
237
255
255
255
197
110
89
23
114
255
255
255
146
0
27
27
0
0
0
0
34
74
11
60
195
255
141
143
172
230
159
96
93
148
159
176
255
248
238
158
9
6
85
166
173
165
98
56
159
182
171
161
163
196
107
63
50
1
0
0
0
0
0
0
0
0
0
5
10
13
83
94
85
99
166
171
170
170
170
170
170
170
170
170
170
170
170
170
170
173
160
93
159
172
176
246
251
199
171
169
173
209
209
176
170
174
87
48
96
134
202
208
209
212
219
223
212
208
219
216
79
9
15
0
49
173
240
255
255
255
255
255
110
0
0
0
129
255
219
145
64
0
0
0
55
55
0
0
0
0
0
0
110
189
174
109
156
95
31
82
78
83
86
156
236
255
255
244
87
5
84
166
173
165
96
0
57
115
154
201
179
193
219
224
56
0
0
0
0
0
0
0
0
0
4
82
152
89
101
154
23
151
172
170
170
170
170
170
170
170
170
170
170
170
170
170
170
170
172
169
173
167
166
182
250
217
171
183
130
109
109
99
185
233
199
187
135
154
245
255
255
255
255
255
255
255
255
221
94
24
60
92
124
225
255
255
255
255
255
255
192
64
0
0
137
255
145
0
0
0
0
0
51
39
0
0
0
0
0
0
60
80
90
82
87
92
144
149
24
13
19
25
20
160
249
255
165
12
82
166
173
165
100
1
0
79
194
250
228
250
255
255
56
0
0
0
0
0
0
0
0
0
4
82
169
173
240
226
29
157
173
170
170
170
170
170
170
170
170
170
170
170
170
170
170
171
167
168
156
87
85
158
250
233
175
122
19
0
0
0
82
133
217
189
4
37
186
255
238
206
207
207
203
231
255
236
171
87
121
183
164
209
255
255
255
255
255
255
255
141
0
0
59
197
134
0
0
0
37
31
13
106
113
33
0
0
0
14
92
17
73
90
98
145
36
93
154
169
237
224
21
14
173
255
238
19
81
167
173
165
103
98
80
144
240
255
255
222
204
206
36
0
0
0
0
0
0
0
0
0
0
14
157
175
167
92
83
164
171
170
170
170
170
170
170
170
170
170
170
170
170
170
171
160
90
77
13
9
9
28
241
242
221
165
135
167
142
98
31
0
65
149
123
119
183
231
176
179
207
207
203
231
255
255
240
219
219
212
210
234
255
255
255
255
255
255
240
95
3
34
15
154
132
0
55
106
183
179
173
255
255
136
11
33
113
145
204
19
84
165
151
103
152
162
182
249
255
255
225
19
148
248
238
19
81
162
173
165
103
190
222
228
246
255
255
220
204
206
25
0
0
0
0
0
0
0
0
0
0
3
86
163
94
19
91
166
171
170
170
170
170
170
170
170
170
170
170
170
170
171
166
89
11
7
6
72
78
93
245
246
255
255
184
188
164
91
85
112
135
218
255
255
255
231
203
237
255
255
255
255
255
255
255
255
255
255
255
255
255
255
255
190
181
255
219
121
139
191
180
242
202
138
201
252
255
255
227
251
255
158
3
99
254
183
153
20
161
153
33
153
172
181
246
255
255
255
242
13
20
173
162
15
75
96
166
166
103
138
168
181
239
255
255
255
255
255
101
5
0
0
0
0
0
0
0
0
0
0
13
161
166
159
165
170
170
170
170
170
170
170
170
170
170
170
170
170
170
171
165
93
83
84
85
90
89
160
246
184
229
151
17
52
113
50
103
250
255
255
255
255
255
255
255
255
255
255
255
255
255
255
255
255
255
255
240
243
255
255
191
37
102
255
190
97
119
194
196
132
200
255
255
255
197
121
100
104
173
130
63
180
255
185
76
31
211
35
80
165
181
246
255
255
255
246
158
10
82
231
96
6
77
91
166
166
103
52
32
30
161
255
255
255
255
255
196
18
0
0
0
0
0
0
0
0
0
0
8
157
174
173
172
170
170
170
170
170
170
170
170
170
170
170
170
170
170
170
170
165
166
166
167
160
93
111
241
150
116
88
17
9
118
149
77
114
210
255
255
234
233
246
201
149
128
128
183
183
128
192
255
255
255
224
145
125
128
173
125
57
176
255
213
49
0
24
32
0
119
255
255
198
52
0
10
0
80
117
71
203
255
236
38
146
100
87
159
181
246
255
255
255
253
175
15
1
96
238
87
11
78
92
166
166
103
7
0
0
125
184
206
255
170
128
158
89
3
0
0
0
0
0
0
0
0
0
4
85
167
171
170
170
170
171
170
170
170
170
170
170
170
170
170
170
170
170
170
171
172
171
172
170
170
242
245
79
15
49
49
49
91
126
24
63
212
255
234
178
225
183
55
3
0
0
31
35
0
119
255
255
195
79
31
10
0
79
117
71
219
207
112
57
73
98
28
4
134
255
231
73
0
6
30
64
119
55
39
176
244
252
169
154
96
158
182
246
255
255
255
248
254
234
11
0
88
230
28
71
85
90
166
166
93
0
0
0
48
41
99
133
20
0
15
61
28
4
0
0
0
0
0
0
3
0
0
13
156
172
170
170
170
166
172
172
171
170
170
170
170
170
170
170
170
170
170
170
170
170
170
169
178
255
246
78
4
0
22
49
39
42
9
104
245
255
209
163
192
81
0
0
18
46
40
5
8
134
255
255
100
0
0
0
37
123
55
52
147
61
9
71
97
125
118
81
69
104
85
0
32
147
167
167
142
16
117
233
248
250
155
30
152
183
246
255
255
255
229
109
247
246
15
0
32
222
23
76
85
90
166
166
83
0
0
70
89
44
33
0
26
49
9
0
0
101
24
2
0
0
0
3
74
10
0
3
89
166
171
171
164
97
151
165
167
170
170
171
170
170
170
170
170
170
170
171
171
170
171
170
170
246
249
121
6
0
0
21
21
0
17
100
226
234
218
156
60
12
0
25
73
97
97
94
94
82
107
111
27
32
119
139
173
149
23
69
63
0
25
50
2
0
111
160
125
45
0
64
146
201
157
126
112
28
66
213
254
160
24
80
170
247
255
255
255
233
24
12
243
240
11
17
162
156
13
77
85
90
167
166
89
0
0
70
138
144
34
0
71
67
14
0
0
90
113
71
20
14
18
27
158
87
2
2
84
166
171
171
166
89
28
82
91
168
174
167
171
172
171
171
172
173
171
167
167
172
168
160
99
174
242
77
3
0
0
27
27
0
42
141
200
216
231
103
0
0
0
25
76
69
39
101
102
37
9
2
67
145
201
194
142
63
40
70
72
25
0
11
70
62
124
219
255
167
80
155
119
57
82
116
88
72
76
238
231
24
79
162
181
252
255
255
244
94
0
21
238
165
22
152
220
21
6
80
85
90
162
166
91
0
0
0
23
114
44
0
31
10
0
0
0
0
16
163
206
189
225
242
249
166
3
0
85
166
171
170
170
165
154
85
22
149
153
93
158
167
166
166
164
160
161
88
88
149
90
79
85
174
223
28
0
0
0
0
0
0
19
88
154
203
213
81
0
0
0
0
18
21
0
18
15
22
25
14
100
126
57
31
9
0
22
49
49
25
0
43
125
109
151
255
205
85
68
70
8
0
46
73
39
56
178
242
92
13
154
177
246
255
255
255
161
7
5
163
243
107
81
82
24
7
75
86
85
84
95
160
86
0
0
0
0
25
12
0
0
0
0
0
0
0
31
137
215
157
117
235
255
241
32
13
84
166
171
171
172
173
175
162
80
19
21
15
85
85
84
85
84
26
72
12
6
12
7
14
101
236
131
7
0
0
0
0
0
0
0
12
88
137
140
67
0
0
0
27
24
0
0
0
0
0
0
25
45
15
0
0
0
0
0
0
0
0
0
46
94
85
110
141
58
0
0
0
0
0
0
0
2
78
178
154
14
83
167
183
252
255
255
233
22
5
20
241
255
156
77
16
70
81
86
85
85
84
96
160
85
0
0
0
0
0
0
0
0
0
35
16
0
0
33
113
133
62
27
88
245
246
222
149
99
164
170
164
165
165
166
162
90
82
143
84
77
13
9
12
78
72
20
83
89
86
92
164
243
244
73
3
0
0
0
0
0
0
0
0
15
40
39
16
0
0
0
24
27
0
0
0
0
0
0
27
24
0
0
0
0
0
0
0
0
0
0
22
46
43
43
8
0
0
0
0
0
27
27
0
23
156
229
20
9
151
176
241
255
255
239
93
3
66
91
245
240
25
10
75
87
87
85
85
84
89
157
165
83
