P2
# CREATOR: GIMP PNM Filter Version 1.1
128 32
255
0
0
0
0
0
0
0
0
0
0
0
0
0
0
0
0
0
0
0
0
0
0
0
0
0
0
0
0
0
0
0
0
0
0
0
0
0
0
0
0
0
0
0
0
0
0
0
0
0
0
0
0
0
0
0
0
0
0
0
0
0
0
0
0
0
0
0
0
0
0
0
0
0
0
0
0
0
0
0
0
0
0
0
0
0
0
0
0
0
0
0
0
0
0
0
0
0
0
0
0
0
0
0
0
0
0
0
0
0
0
0
0
0
0
0
0
0
0
0
0
0
0
0
0
0
0
0
0
0
0
0
0
0
0
0
0
0
0
0
0
0
0
0
0
0
0
0
0
0
0
0
0
0
0
0
0
0
0
0
0
0
0
0
0
0
0
0
0
0
0
0
0
0
0
0
0
0
0
0
0
0
0
0
0
0
0
0
0
0
0
0
0
0
0
0
0
0
0
0
0
0
0
0
0
0
0
0
0
0
0
0
0
0
0
0
0
0
0
0
0
0
0
0
0
0
0
0
0
0
0
0
0
0
0
0
0
0
0
0
0
0
0
0
0
0
0
0
0
0
0
0
0
0
0
0
0
0
0
0
0
0
0
0
0
0
0
0
0
0
0
0
0
0
0
0
0
0
0
0
0
0
0
0
0
0
0
0
0
0
0
0
0
0
0
0
0
0
0
0
0
0
0
0
0
0
0
0
0
0
0
0
0
0
0
0
0
0
0
0
0
0
0
0
0
0
0
0
0
0
0
0
0
0
0
0
0
0
0
0
0
0
0
0
0
0
0
0
0
0
0
0
0
0
0
0
0
0
0
0
0
0
0
0
0
0
0
0
0
0
0
0
0
0
0
0
0
0
0
0
0
0
0
0
0
0
0
0
0
0
0
0
0
0
0
0
0
0
0
0
0
0
0
0
0
0
0
0
0
0
0
0
0
0
0
0
0
0
0
0
0
0
0
0
0
0
0
0
0
0
0
0
0
0
0
0
0
0
0
0
0
0
0
0
0
0
0
0
0
0
0
0
0
0
0
0
0
0
0
0
0
0
0
0
0
0
0
0
0
0
0
0
0
0
0
0
0
0
0
0
0
0
0
0
0
0
0
0
0
0
0
0
0
0
0
0
0
0
0
0
0
0
0
0
0
0
0
0
0
0
0
0
0
0
0
0
0
0
0
0
0
0
0
0
0
0
0
0
0
0
0
0
0
0
0
0
0
0
0
0
0
0
0
0
0
0
0
0
0
0
0
0
0
0
0
0
0
0
0
0
0
0
0
0
0
0
0
0
0
0
0
0
0
0
0
0
0
0
0
0
0
0
0
0
0
0
0
0
0
0
0
0
0
0
0
0
0
0
0
0
0
0
0
0
0
0
0
0
0
0
0
0
0
0
0
0
0
0
0
0
0
0
0
0
0
0
0
0
0
0
0
0
0
0
0
0
0
0
0
0
0
0
0
0
0
0
0
0
0
0
0
0
0
0
0
0
0
0
0
0
0
0
0
0
0
0
0
0
0
0
0
0
0
0
0
0
0
0
0
0
0
0
0
0
0
0
0
0
0
0
0
0
0
0
0
0
0
0
0
0
0
0
0
0
0
0
0
0
0
0
0
0
0
0
0
0
0
0
0
0
0
0
0
0
0
0
0
0
0
0
0
0
0
0
0
0
0
0
0
0
0
0
0
0
0
0
0
0
0
0
0
0
0
0
0
0
0
0
0
0
0
0
0
0
0
0
0
0
0
0
0
0
0
0
0
0
0
0
0
0
0
0
0
0
0
0
0
0
0
0
0
0
0
0
0
0
0
0
0
0
0
0
0
0
0
0
0
0
0
0
0
0
0
0
0
0
0
0
0
0
0
0
0
0
0
0
0
0
0
0
0
0
0
0
0
0
0
0
0
0
0
0
0
0
0
0
0
0
0
0
0
0
0
0
0
0
0
0
0
0
0
0
0
0
0
0
0
0
0
0
0
0
0
0
0
0
0
0
0
0
0
0
0
0
0
0
0
0
0
0
0
0
0
0
0
0
0
0
0
0
0
0
0
0
0
0
0
0
0
0
0
0
0
0
0
0
0
0
0
0
0
0
0
0
0
0
0
0
0
0
0
0
0
0
0
0
0
0
0
0
0
0
0
0
0
0
0
0
0
0
0
0
0
0
0
0
0
0
0
0
0
0
0
0
0
0
0
0
0
0
0
0
0
0
0
0
0
0
0
0
0
0
0
0
0
0
0
0
0
0
0
0
0
0
0
0
0
0
0
0
0
0
0
0
0
0
0
0
0
0
0
0
0
0
0
0
0
0
0
0
0
0
0
0
0
0
0
1
0
0
0
0
0
0
0
0
0
0
0
0
0
0
0
0
0
0
0
0
0
0
0
0
0
0
0
0
0
0
0
0
0
0
0
0
0
0
0
0
0
0
0
0
0
0
0
0
0
0
0
0
0
0
0
0
0
0
0
0
2
2
2
2
2
2
1
2
1
1
2
2
2
2
2
2
2
2
2
2
2
2
2
2
2
2
2
2
2
2
2
2
2
2
2
2
2
2
2
2
2
2
2
1
2
2
2
2
2
2
2
2
2
2
13
18
29
0
0
0
0
0
0
0
0
0
17
3
0
0
0
0
0
0
0
0
0
0
0
0
0
0
0
0
1
0
11
13
13
35
35
24
39
53
53
35
96
72
53
72
46
53
35
35
35
35
27
27
1
1
1
0
0
0
0
0
0
0
0
0
0
0
0
0
0
0
0
0
2
2
2
2
2
1
2
1
2
2
2
2
2
2
2
2
2
2
2
2
2
2
2
2
2
2
2
2
2
2
2
2
2
2
2
2
2
2
2
2
2
2
2
2
1
2
3
12
3
2
3
3
18
30
18
17
3
0
0
0
0
0
0
0
0
39
34
33
0
0
0
0
0
0
0
0
0
0
0
0
0
0
0
29
96
255
255
108
255
255
255
104
108
108
96
75
67
78
96
108
108
108
108
255
108
255
255
108
35
35
0
0
0
0
0
0
0
0
0
0
0
0
0
0
0
0
0
0
2
2
2
2
2
2
2
2
2
2
2
2
2
2
2
2
2
2
2
2
2
2
2
2
2
2
2
2
1
2
2
2
2
2
2
2
3
17
3
2
13
2
2
2
18
18
18
34
35
35
35
18
17
17
3
3
0
0
0
0
0
0
0
0
0
0
0
0
0
0
0
0
0
0
0
0
0
0
0
0
0
0
13
73
18
1
0
0
0
0
0
0
1
0
1
0
0
2
0
0
0
0
1
0
1
0
1
13
35
59
0
0
0
0
0
0
0
0
0
0
0
0
0
0
0
0
0
0
2
2
2
2
2
2
2
2
2
2
2
2
2
2
2
2
2
2
2
2
2
2
2
2
2
2
2
2
2
2
2
2
9
2
2
2
2
16
2
2
2
2
18
18
18
18
16
1
27
3
0
0
0
0
0
0
0
0
0
0
0
0
0
0
0
0
0
0
0
0
0
0
0
0
0
0
0
0
0
0
0
1
49
1
0
0
0
1
1
0
0
1
0
0
0
1
2
1
0
0
0
0
0
0
1
2
0
1
0
1
33
0
0
0
0
0
0
0
0
0
0
0
0
0
0
0
0
0
2
2
2
2
2
2
2
2
2
2
2
2
2
2
2
2
2
2
2
2
2
2
1
2
2
2
2
2
2
2
2
2
2
2
2
2
2
1
0
1
2
16
2
2
16
13
1
11
0
0
0
0
0
0
0
0
0
0
0
0
0
0
0
0
0
0
0
0
0
0
0
0
0
0
0
0
0
0
0
0
0
13
13
0
0
0
0
1
0
0
1
1
1
13
27
9
27
53
35
27
11
27
24
2
1
0
0
0
0
1
18
0
0
0
0
0
0
0
0
0
0
0
0
0
0
0
0
0
2
18
2
2
2
2
1
2
2
2
2
2
2
2
2
2
2
2
2
2
2
2
3
2
2
12
18
18
16
17
24
1
11
0
11
0
0
0
0
0
0
0
0
11
11
0
0
11
0
0
0
0
11
3
0
0
0
0
0
0
0
0
0
0
0
0
0
0
0
0
0
0
0
0
0
0
0
0
0
0
0
2
1
1
0
2
17
67
53
30
27
75
72
108
108
108
72
27
108
255
108
108
96
35
35
9
1
2
0
1
0
0
0
0
1
0
16
1
1
0
1
1
1
0
0
0
0
0
34
18
18
18
18
18
22
34
36
36
39
50
39
35
53
53
53
53
53
67
67
53
59
53
50
46
53
13
11
0
0
11
11
0
0
0
11
11
0
11
11
11
11
11
11
11
11
0
11
11
0
0
0
0
0
0
0
0
0
0
0
0
0
0
0
0
0
0
0
0
0
0
0
0
0
0
0
0
0
0
0
2
1
1
0
1
1
0
1
72
93
39
33
0
0
1
0
2
1
1
1
17
49
80
93
11
0
13
1
0
1
1
0
27
108
46
13
1
1
0
1
0
1
1
0
0
0
0
0
1
0
0
16
46
67
86
86
89
89
89
89
87
93
104
104
104
104
104
93
82
66
72
29
16
11
11
0
0
0
0
11
0
11
0
0
0
11
11
11
11
11
11
0
0
0
0
0
0
0
0
0
0
0
0
0
0
0
0
0
0
0
0
0
0
0
0
0
0
0
0
1
0
0
0
0
0
0
0
1
0
1
0
0
0
1
0
0
1
13
18
29
18
13
2
66
89
11
17
75
104
89
13
11
18
1
0
0
0
0
27
68
50
108
67
0
1
1
0
0
1
0
1
0
0
10
10
3
0
10
0
0
0
3
29
37
37
50
37
65
50
37
29
33
3
33
16
11
17
3
0
11
0
0
11
0
11
0
11
0
11
0
0
11
0
0
0
0
0
0
0
0
0
0
0
0
0
0
0
0
0
0
0
0
0
0
0
0
0
0
0
0
0
0
0
0
0
1
0
0
1
0
1
0
0
0
0
0
0
0
0
13
0
1
1
0
0
16
17
17
75
108
24
104
104
34
24
108
173
108
11
0
13
0
0
0
0
0
11
49
1
0
9
16
0
13
27
11
13
13
13
0
0
10
3
0
3
0
0
0
0
0
0
3
3
3
3
3
0
3
0
0
0
0
0
0
0
0
0
0
0
11
0
0
0
0
0
0
11
11
11
11
0
11
0
0
0
0
0
0
0
0
0
0
0
0
0
0
0
0
0
0
0
0
0
0
0
0
0
0
0
0
0
0
0
0
64
104
104
104
128
104
135
72
53
108
108
108
255
255
255
108
23
17
1
13
2
0
1
13
0
72
108
11
0
16
108
108
16
11
0
1
1
255
108
108
108
108
53
53
72
35
35
255
108
255
255
108
35
16
0
0
0
1
0
13
1
1
0
0
0
0
0
0
0
0
0
0
0
0
0
0
0
0
0
0
0
0
0
0
11
0
0
0
11
0
11
0
0
0
0
0
0
0
0
0
0
0
0
0
0
0
0
0
0
0
0
0
0
0
0
0
0
0
0
0
0
0
0
0
0
0
0
36
255
104
104
104
104
128
108
0
1
1
11
11
11
11
13
13
13
27
13
24
27
27
35
53
35
35
27
27
35
27
108
255
35
13
30
108
45
0
11
1
27
27
67
55
3
66
255
255
255
255
255
255
135
27
0
0
0
0
0
0
3
0
0
0
0
0
0
0
0
0
0
0
0
0
0
0
0
0
0
0
0
0
0
0
0
0
0
0
0
0
0
0
0
0
0
0
0
0
0
0
0
0
0
0
0
0
0
0
0
0
0
0
0
0
0
0
0
0
0
0
0
0
0
0
0
0
0
33
255
168
255
154
255
104
104
11
30
108
108
108
108
108
108
96
108
108
108
108
108
255
108
108
96
72
72
108
108
108
255
108
255
108
255
108
108
108
108
108
108
108
75
46
27
104
104
255
173
108
255
255
108
65
0
0
0
0
0
0
0
0
0
0
0
0
0
0
0
0
0
0
0
0
0
0
0
0
0
0
0
0
0
0
0
0
0
0
0
0
0
0
0
0
0
11
0
0
0
0
0
0
0
0
0
0
0
0
0
0
0
0
0
0
0
0
0
0
11
0
0
0
0
0
0
0
0
0
45
81
104
104
139
69
23
108
108
46
17
29
16
33
17
108
72
34
16
17
75
75
17
16
17
49
67
29
33
50
59
67
59
56
66
68
67
72
59
67
68
75
108
108
96
45
61
255
255
255
255
104
69
31
0
0
0
0
18
31
17
0
0
0
0
0
0
0
0
0
0
0
0
0
0
0
0
0
0
0
0
0
0
0
0
0
0
0
0
0
0
0
0
0
0
0
0
0
0
0
0
0
0
0
0
0
0
0
0
0
0
0
0
0
0
0
0
0
0
0
0
0
0
0
0
0
0
0
0
16
69
73
45
11
24
108
0
27
27
11
0
0
0
108
78
0
1
1
80
75
0
0
0
17
108
0
1
0
0
34
0
0
0
0
67
0
0
1
0
1
66
45
255
22
35
104
104
128
255
96
61
32
0
0
0
0
3
3
0
0
0
0
0
0
0
0
0
0
0
0
0
0
0
0
0
0
0
0
0
0
0
0
0
0
0
0
0
0
0
0
0
0
0
0
0
0
0
0
0
0
0
0
0
0
0
0
0
0
0
0
0
0
0
0
0
0
0
0
0
0
0
0
0
0
13
108
108
255
108
255
108
108
108
46
96
96
96
96
96
108
108
108
108
255
108
108
108
108
108
108
108
49
49
108
108
255
255
255
255
255
255
255
108
255
255
255
108
104
108
108
27
108
255
108
255
108
108
255
108
108
0
0
0
0
18
72
0
0
0
0
0
0
0
0
0
0
0
0
0
0
0
0
0
0
0
0
0
0
0
0
0
0
0
0
0
0
0
0
0
0
0
0
0
0
0
0
0
0
0
0
0
3
0
0
0
0
0
0
0
0
0
0
0
0
0
0
0
0
0
0
0
0
0
104
255
168
108
255
173
108
255
24
89
47
46
72
11
0
35
108
46
0
0
1
108
80
0
0
0
27
78
0
1
2
13
25
0
0
0
0
108
35
27
0
104
104
61
75
32
255
255
255
108
255
108
255
108
35
0
0
0
0
65
87
0
0
0
0
0
0
0
0
0
0
0
0
0
0
0
0
0
0
0
0
0
0
0
0
0
0
0
0
0
0
0
0
0
0
0
0
0
0
0
0
0
0
0
0
0
0
0
0
0
0
0
0
0
0
0
0
0
0
0
0
0
0
0
0
0
0
0
108
104
104
108
96
96
96
96
35
27
27
11
11
11
53
108
108
255
11
11
11
68
53
27
24
24
35
96
35
27
27
27
72
35
35
27
27
59
255
108
24
27
16
35
35
53
255
108
108
108
255
255
108
96
35
0
0
0
0
31
0
0
0
0
0
0
0
0
0
0
0
0
0
0
0
0
0
0
0
0
0
0
0
0
0
0
0
0
0
0
0
0
0
0
0
0
0
0
0
0
0
0
0
0
0
0
0
0
0
0
0
0
0
0
0
0
0
0
0
0
0
0
0
0
0
0
11
39
13
108
108
72
72
96
35
46
49
96
53
72
53
35
108
108
75
108
39
72
53
53
53
53
53
53
53
53
72
96
72
96
96
96
108
75
53
108
108
255
72
96
53
108
108
108
108
255
108
96
108
108
96
72
35
0
0
0
0
0
0
0
0
0
0
0
0
0
0
0
0
0
0
0
0
0
0
0
0
0
0
0
0
0
0
0
0
0
0
0
0
0
0
0
0
0
0
0
0
0
0
0
0
0
0
0
0
0
0
0
0
0
0
0
0
0
0
0
0
0
0
0
0
0
0
0
58
108
69
108
108
108
108
108
255
108
108
108
108
108
108
96
108
17
0
0
49
96
96
96
96
96
96
96
96
96
72
96
96
96
68
96
96
35
96
56
33
46
96
108
108
255
108
108
108
108
108
108
108
108
108
35
49
0
0
0
0
96
31
0
0
0
0
0
0
0
0
0
0
0
0
0
0
0
0
0
0
0
0
0
0
0
0
0
0
0
0
0
0
0
0
0
0
0
0
0
0
0
0
0
0
0
0
0
0
0
0
0
0
0
0
0
0
0
0
0
0
0
0
0
0
0
0
0
104
104
173
173
255
104
255
255
108
255
108
108
108
122
96
108
95
0
49
108
255
255
255
255
108
108
255
108
96
72
108
255
255
108
255
255
255
255
255
108
35
11
255
255
108
255
255
255
255
255
255
255
108
255
255
255
255
0
0
0
118
168
3
0
0
0
0
0
0
0
0
0
0
0
0
0
0
0
0
0
0
0
0
0
0
0
0
0
0
0
0
0
0
0
0
0
0
0
0
0
0
0
0
0
0
0
0
0
0
0
0
0
0
0
0
0
0
0
0
0
0
0
0
0
0
0
0
0
0
16
33
33
50
61
49
58
66
66
82
75
89
89
72
3
0
33
86
67
72
89
89
89
108
96
108
96
11
16
104
108
96
96
96
96
96
89
96
96
45
11
16
96
108
108
108
108
108
108
108
108
108
108
108
108
108
0
0
0
158
158
31
0
0
0
0
0
0
0
0
0
0
0
0
0
0
0
0
0
0
0
0
0
0
0
0
0
0
0
0
0
0
0
0
0
0
0
0
0
0
0
0
0
0
0
0
0
0
0
0
0
0
0
0
0
0
0
0
0
0
0
0
0
0
0
0
0
0
0
0
0
0
0
0
0
0
0
0
0
0
0
0
0
0
0
0
0
0
0
0
1
1
1
0
0
0
0
1
0
1
0
1
0
0
0
0
0
0
0
0
0
0
0
0
0
0
0
0
0
0
0
0
0
0
0
0
0
118
143
9
0
0
0
0
0
0
0
0
0
0
0
0
0
0
0
0
0
0
0
0
0
0
0
0
0
0
0
0
0
0
0
0
0
0
0
0
0
0
0
0
0
0
0
0
0
0
0
0
0
0
0
0
0
0
0
0
0
0
0
0
0
0
0
0
0
0
0
0
0
0
0
0
0
0
0
0
0
0
0
0
0
0
0
0
0
0
0
0
0
0
0
1
0
0
1
0
1
0
1
0
0
0
0
0
0
0
0
0
0
0
0
0
0
0
0
0
0
0
0
0
0
0
0
0
0
0
0
0
0
0
0
0
0
0
0
0
0
0
0
0
0
0
0
0
0
0
0
0
0
0
0
0
0
0
0
0
0
0
0
0
0
0
0
0
0
0
0
0
0
0
0
0
0
0
0
0
0
0
0
0
0
0
0
0
0
0
0
0
0
0
