P2
# CREATOR: GIMP PNM Filter Version 1.1
128 32
255
0
0
0
0
0
0
0
0
0
0
0
0
5
122
249
255
255
255
255
255
255
255
255
255
255
255
255
255
255
255
255
255
255
255
255
255
255
255
255
255
255
255
255
255
255
255
255
255
255
255
255
255
255
255
255
255
255
255
255
255
255
255
255
255
255
255
255
255
255
255
255
255
255
255
255
255
255
255
255
255
255
255
255
255
255
255
255
255
255
255
255
255
255
255
255
255
255
255
255
255
255
255
255
255
255
255
255
255
255
255
255
255
255
255
255
194
12
0
0
0
0
0
0
0
0
0
0
0
0
0
0
0
0
0
0
0
0
0
0
0
16
203
255
255
255
255
249
250
247
250
250
248
250
248
255
255
255
254
247
250
249
248
252
255
251
250
248
250
249
255
255
249
250
247
250
250
248
251
248
250
250
247
250
248
249
250
247
254
255
255
255
249
250
247
250
250
248
250
248
250
251
255
255
255
255
255
251
249
248
250
247
250
250
248
253
255
255
255
249
250
247
250
250
255
255
255
255
255
255
255
255
252
249
249
250
248
254
255
255
255
255
255
255
240
60
0
0
0
0
0
0
0
0
0
0
0
0
0
0
0
0
0
0
0
0
0
0
0
67
244
255
255
255
247
127
133
103
134
135
107
135
117
240
255
255
216
106
133
126
113
186
246
155
134
105
132
120
243
247
128
131
102
136
128
110
138
107
134
134
103
135
112
126
132
106
217
255
255
246
127
131
102
136
129
107
130
108
132
157
250
255
255
255
252
172
126
112
134
102
129
135
108
201
255
255
246
127
131
102
133
140
247
255
255
255
255
255
255
251
172
119
118
134
109
227
255
255
255
255
255
255
252
141
6
0
0
0
0
0
0
0
0
0
0
0
0
0
0
0
0
0
0
0
0
0
6
142
251
255
255
255
239
21
10
5
13
14
5
11
19
211
255
253
167
13
11
9
9
113
234
54
11
5
11
20
219
235
23
10
4
11
12
6
15
6
11
13
4
11
7
10
10
13
173
254
255
238
22
10
4
11
12
5
12
6
10
67
244
255
255
255
246
94
11
6
13
4
12
11
10
140
251
255
238
22
10
4
10
35
241
255
255
255
255
255
255
246
94
11
7
11
14
181
254
255
255
255
255
255
255
213
18
0
0
0
0
0
0
0
0
0
0
0
0
0
0
0
0
0
0
0
0
0
15
208
255
255
254
225
189
31
52
15
62
60
18
59
31
185
222
252
183
17
53
43
24
154
240
87
59
12
58
36
238
241
40
53
12
54
59
19
65
20
53
64
11
58
29
39
53
16
161
208
254
238
40
53
12
54
59
15
51
21
51
92
186
238
255
245
187
94
45
21
65
13
49
62
15
143
198
253
239
40
53
11
51
80
243
255
255
255
255
255
255
247
111
42
23
52
24
218
255
255
255
255
255
255
255
244
60
0
0
0
0
0
0
0
0
0
0
0
0
0
0
0
0
0
0
0
0
0
50
242
255
255
246
101
26
9
28
8
26
26
8
30
10
30
94
244
173
13
20
21
13
129
234
58
26
6
25
28
229
236
29
20
7
26
24
8
27
10
25
30
6
27
13
18
25
5
24
49
246
239
28
20
7
26
25
7
22
11
25
28
21
163
255
190
20
21
23
11
28
7
21
30
6
28
34
231
238
29
20
6
23
53
242
255
255
255
255
255
255
246
98
20
9
25
18
196
255
255
255
255
255
255
255
250
124
5
0
0
0
0
0
0
0
0
0
0
0
0
0
0
0
0
0
0
0
3
104
248
255
255
246
95
26
14
39
11
32
35
10
41
17
28
99
244
173
17
30
32
15
137
235
64
37
10
36
36
233
235
30
32
11
34
33
10
35
16
34
40
9
37
20
23
39
9
27
49
245
237
30
32
11
34
33
8
28
16
34
37
12
169
255
188
12
29
34
12
37
11
26
40
10
34
32
233
236
30
32
11
31
62
243
255
255
255
255
255
255
246
97
29
14
36
21
202
255
255
255
255
255
255
255
254
180
10
0
0
0
0
0
0
0
0
0
0
0
0
0
0
0
0
0
0
0
8
151
252
255
255
246
99
41
20
51
15
46
51
9
48
25
43
110
245
172
19
45
42
20
152
237
70
46
10
52
42
238
235
33
48
14
46
49
12
51
18
42
59
10
46
28
33
47
11
39
67
247
235
33
48
14
46
49
9
40
20
42
56
16
178
255
189
17
45
43
17
52
15
37
51
10
52
42
238
234
33
48
14
43
77
244
255
255
255
255
255
255
246
99
41
20
48
25
215
255
255
255
255
255
255
255
255
222
18
0
0
0
0
0
0
0
0
0
0
0
0
0
0
0
0
0
0
0
12
196
255
255
255
245
81
12
4
13
5
17
19
3
13
6
12
89
243
157
11
10
11
8
127
229
44
11
2
12
28
228
228
19
11
4
12
16
8
18
6
11
16
3
14
11
9
12
3
8
44
245
230
18
11
4
12
16
7
15
6
11
13
10
162
255
177
9
10
13
4
18
11
13
14
2
12
28
228
228
19
11
4
10
50
242
255
255
255
255
255
255
245
81
12
4
10
15
195
255
255
255
255
255
255
255
255
242
46
0
0
0
0
0
0
0
0
0
0
0
0
0
0
0
0
0
0
0
17
227
255
255
255
246
106
60
32
74
32
143
143
21
75
40
55
128
247
179
28
68
66
25
169
239
78
72
20
76
58
242
236
42
77
27
61
82
127
112
35
60
81
20
133
140
48
67
19
58
89
247
234
42
77
27
61
82
129
115
34
60
80
23
195
255
193
26
68
66
23
121
137
85
73
20
76
58
242
234
42
77
27
60
95
245
255
255
255
255
255
255
246
106
60
32
72
36
225
255
255
255
255
255
255
255
255
245
80
1
0
0
0
0
0
0
0
0
0
0
0
0
0
0
0
0
0
0
37
242
255
255
255
244
76
13
6
14
18
194
172
10
11
4
12
93
243
153
11
11
13
9
131
225
40
13
4
16
32
231
225
19
12
6
13
57
230
105
9
13
16
12
167
217
21
12
4
10
50
245
225
19
12
6
13
56
240
139
6
13
16
12
167
255
174
9
11
13
9
129
236
87
11
4
16
32
230
224
19
12
6
13
55
243
255
255
255
255
255
255
244
76
13
6
14
17
199
255
255
255
255
255
255
255
255
248
112
4
0
0
0
0
0
0
0
0
0
0
0
0
0
0
0
0
0
0
59
243
255
255
255
246
102
50
23
67
42
223
212
57
87
64
70
147
248
174
26
51
57
28
168
236
71
63
17
64
60
243
234
39
60
25
54
98
242
141
36
45
66
25
200
232
42
64
23
53
82
247
231
39
60
26
55
92
189
144
34
45
66
25
197
255
191
24
51
58
27
150
197
99
60
17
64
60
242
231
39
60
25
54
96
246
255
255
255
255
255
255
246
102
50
23
67
41
220
255
255
255
255
255
255
255
255
250
133
6
0
0
0
0
0
0
0
0
0
0
0
0
0
0
0
0
0
1
74
245
255
255
255
244
73
22
8
23
25
213
253
243
247
244
244
251
251
146
14
20
22
12
150
229
46
28
5
28
41
238
224
19
23
10
19
76
236
112
16
20
29
14
183
221
26
20
8
18
62
245
220
20
23
11
21
33
14
30
16
21
28
10
180
255
171
11
20
24
7
37
25
24
31
5
28
41
237
220
20
23
10
19
73
244
255
255
255
255
255
255
244
73
22
8
23
25
213
255
255
255
255
255
255
255
255
251
149
7
0
0
0
0
0
0
0
0
0
0
0
0
0
0
0
0
0
2
85
246
255
255
255
244
73
24
10
31
26
213
255
240
246
240
239
251
251
146
16
22
29
15
150
229
47
28
8
28
47
239
223
21
26
14
23
77
237
113
20
19
30
17
187
219
26
26
11
21
69
246
219
22
26
15
25
30
2
25
19
20
32
25
187
255
171
13
22
31
10
30
14
21
32
8
28
47
237
218
22
26
14
23
74
244
255
255
255
255
255
255
244
73
24
10
31
26
212
255
255
255
255
255
255
255
255
252
160
8
0
0
0
0
0
0
0
0
0
0
0
0
0
0
0
0
0
2
89
246
255
255
255
245
90
52
24
68
40
224
246
96
99
76
75
158
248
163
29
51
61
26
173
235
64
64
18
60
67
244
228
34
63
32
50
103
240
133
41
41
63
26
205
225
40
64
24
53
94
248
224
34
63
33
52
59
13
53
41
43
119
188
248
255
182
27
51
63
22
64
35
43
68
18
60
68
243
224
34
63
32
50
101
246
255
255
255
255
255
255
245
90
52
24
68
42
224
255
255
255
255
255
255
255
255
253
164
9
0
0
0
0
0
0
0
0
0
0
0
0
0
0
0
0
0
2
87
246
255
255
255
243
61
11
4
13
18
211
244
54
14
6
9
107
242
138
12
10
12
11
144
218
32
14
4
13
41
235
216
16
12
6
9
71
234
91
12
9
13
13
180
209
19
12
5
10
64
245
210
16
12
7
11
15
2
13
10
12
103
242
255
255
162
8
10
14
5
16
9
10
18
4
13
41
233
210
17
12
6
9
68
244
255
255
255
255
255
255
243
61
11
4
13
20
211
255
255
255
255
255
255
255
255
253
161
8
0
0
0
0
0
0
0
0
0
0
0
0
0
0
0
0
0
1
78
245
255
255
255
245
97
69
25
81
52
233
245
63
82
53
42
155
249
170
38
60
73
29
190
239
68
82
24
73
85
246
230
38
79
38
59
120
242
138
55
48
78
32
218
229
42
78
35
59
107
249
226
39
79
38
61
77
15
63
57
49
111
130
237
255
187
35
60
74
25
80
44
51
85
24
73
85
245
226
39
79
38
59
119
247
255
255
255
255
255
255
245
97
69
25
81
54
232
255
255
255
255
255
255
255
255
252
153
8
0
0
0
0
0
0
0
0
0
0
0
0
0
0
0
0
0
0
64
244
255
255
255
242
54
11
4
12
20
217
244
50
15
10
11
115
243
131
12
8
12
10
150
216
30
13
3
14
47
238
212
15
11
7
10
77
235
87
11
8
14
14
188
204
17
11
6
9
70
245
203
16
11
8
10
16
1
12
12
9
15
17
187
255
157
8
8
14
4
15
8
10
17
3
14
47
236
203
16
11
7
10
75
245
255
255
255
255
255
255
242
54
11
4
12
22
217
255
255
255
255
255
255
255
255
250
138
6
0
0
0
0
0
0
0
0
0
0
0
0
0
0
0
0
0
0
44
242
255
255
255
244
76
47
17
56
43
230
244
52
57
41
30
145
246
150
29
39
54
21
177
233
52
55
16
51
73
244
221
26
54
33
35
106
239
119
40
30
56
26
210
217
31
55
24
42
95
248
215
27
54
34
37
63
42
59
41
31
55
25
209
255
171
26
39
56
17
75
67
42
57
16
51
73
243
215
27
54
33
35
104
247
255
255
255
255
255
255
244
76
47
17
56
44
228
255
255
255
255
255
255
255
255
249
119
5
0
0
0
0
0
0
0
0
0
0
0
0
0
0
0
0
0
0
23
234
255
255
255
243
59
30
11
37
35
234
245
46
36
28
22
136
244
134
20
26
36
17
173
228
41
35
11
35
65
244
213
20
35
23
25
99
238
103
26
19
36
22
204
209
24
34
17
26
89
246
204
21
35
23
25
96
224
130
23
19
36
21
203
255
160
17
26
36
17
160
217
82
30
11
35
66
241
204
21
35
23
25
97
250
255
255
255
255
255
255
243
59
30
11
37
35
230
255
255
255
255
255
255
255
255
246
92
2
0
0
0
0
0
0
0
0
0
0
0
0
0
0
0
0
0
0
13
207
255
255
255
242
47
19
6
19
29
220
220
30
24
18
14
130
243
123
16
14
20
12
160
210
29
24
5
23
58
244
208
13
21
14
12
92
236
88
20
11
21
16
202
201
18
16
10
14
83
245
196
15
21
14
12
90
239
123
15
11
21
15
201
255
152
12
14
20
12
165
235
79
17
5
23
59
240
196
15
21
14
12
87
235
247
246
245
247
245
254
242
47
19
6
19
28
217
247
244
247
246
244
251
255
255
243
58
0
0
0
0
0
0
0
0
0
0
0
0
0
0
0
0
0
0
0
9
167
253
255
255
244
76
59
17
72
52
75
95
21
69
56
34
162
248
149
37
43
67
21
95
83
40
71
20
66
91
248
221
27
65
41
44
129
241
118
53
31
70
35
223
217
32
67
36
46
113
249
214
28
65
42
44
83
58
73
55
32
70
35
222
255
172
35
43
65
26
194
246
98
63
20
66
92
246
214
28
65
42
44
82
61
102
92
72
100
74
231
245
77
59
17
72
51
75
102
63
101
90
71
179
253
255
232
25
0
0
0
0
0
0
0
0
0
0
0
0
0
0
0
0
0
0
0
5
121
249
255
255
241
39
11
3
16
10
6
12
3
15
13
11
127
242
115
11
8
16
3
14
9
6
15
4
15
56
241
202
12
12
10
9
89
235
73
12
6
14
17
198
191
15
12
6
10
83
245
190
13
12
11
8
14
1
11
13
6
14
16
198
255
146
8
8
13
12
160
221
70
12
4
15
56
238
190
13
12
11
8
14
1
12
11
4
11
14
200
242
40
11
3
16
10
6
12
1
13
10
8
123
250
255
196
12
0
0
0
0
0
0
0
0
0
0
0
0
0
0
0
0
0
0
0
0
66
244
255
255
243
68
69
18
74
51
36
72
17
75
67
30
162
247
141
44
46
72
15
73
58
29
75
22
71
92
248
217
24
76
51
36
131
240
111
60
31
77
33
225
218
30
63
33
44
122
249
208
25
76
52
37
70
13
57
64
31
77
31
223
255
166
41
46
70
22
201
249
92
67
22
71
92
246
208
25
76
52
37
69
18
71
62
31
77
31
226
245
69
69
18
74
51
36
71
17
75
67
30
160
254
252
141
7
0
0
0
0
0
0
0
0
0
0
0
0
0
0
0
0
0
0
0
0
22
224
255
255
241
32
12
4
18
16
9
19
4
18
15
11
134
243
109
11
8
16
3
20
17
7
18
4
14
59
245
199
11
15
11
9
99
236
73
14
6
15
16
204
188
15
11
8
11
91
246
185
13
15
12
8
20
3
15
15
7
14
13
205
255
142
10
8
13
12
170
224
70
9
4
16
62
240
185
13
15
12
8
19
5
20
15
7
15
15
208
242
35
13
4
18
16
9
19
4
18
15
11
131
253
248
82
1
0
0
0
0
0
0
0
0
0
0
0
0
0
0
0
0
0
0
0
0
9
166
253
255
243
71
59
9
45
37
20
45
9
42
43
17
153
245
135
58
27
42
8
48
42
14
40
13
65
102
248
204
15
45
31
22
122
239
88
35
13
44
25
219
202
19
36
22
24
112
248
191
17
45
32
21
46
6
36
39
14
56
53
223
255
150
28
24
40
17
193
238
78
32
11
43
82
243
192
17
45
32
21
46
9
47
38
14
44
24
223
244
46
41
9
46
37
20
45
9
42
43
17
151
255
230
28
0
0
0
0
0
0
0
0
0
0
0
0
0
0
0
0
0
0
0
0
0
2
93
247
255
254
243
175
14
40
31
15
43
9
43
37
15
155
251
248
230
37
38
7
40
37
14
41
21
207
246
255
201
14
36
30
19
122
238
83
36
13
39
24
221
194
18
39
22
23
110
248
191
15
36
32
17
39
4
34
38
17
143
239
253
255
149
22
19
39
16
192
233
76
35
10
37
83
244
192
15
36
32
17
38
7
43
38
13
39
23
225
244
44
34
7
43
31
15
43
9
43
37
15
156
250
169
9
0
0
0
0
0
0
0
0
0
0
0
0
0
0
0
0
0
0
0
0
0
0
28
224
255
255
255
177
19
23
23
14
25
13
27
23
18
147
251
255
244
32
22
12
26
24
13
23
25
215
255
255
193
18
20
21
18
116
236
67
24
11
21
27
216
185
20
22
18
19
106
246
180
19
20
23
16
25
11
22
24
17
144
254
255
255
140
18
15
23
21
183
218
70
18
12
24
79
243
181
19
20
23
16
25
12
25
26
12
21
26
220
243
35
19
12
26
23
14
25
13
27
23
18
150
243
89
2
0
0
0
0
0
0
0
0
0
0
0
0
0
0
0
0
0
0
0
0
0
0
7
149
253
255
255
232
172
190
188
175
192
174
193
190
173
227
255
255
250
182
190
171
193
190
174
194
177
248
255
255
239
172
188
184
177
219
250
203
192
173
190
179
249
240
172
189
182
178
212
253
237
172
188
185
177
193
170
186
193
174
225
255
255
255
221
181
177
190
174
243
252
196
192
174
189
202
252
237
172
188
185
177
193
172
191
193
173
190
179
249
252
185
187
170
191
188
175
192
174
193
190
173
230
216
23
0
0
0
0
0
0
0
0
0
0
0
0
0
0
0
0
0
0
0
0
0
0
0
0
59
239
255
255
255
253
255
255
254
255
254
255
255
253
255
255
255
255
254
255
253
255
255
254
255
254
255
255
255
255
253
255
254
254
255
255
255
255
254
255
254
255
255
253
255
254
254
255
255
255
253
255
254
254
255
253
255
255
254
255
255
255
255
255
254
254
255
253
255
255
254
255
254
255
255
255
255
253
255
254
254
255
253
255
255
254
255
254
255
255
254
255
253
255
255
254
255
254
255
255
253
251
129
5
0
0
0
0
0
0
0
0
0
0
0
0
0
0
0
0
0
0
0
0
0
0
0
0
11
172
253
255
255
255
255
255
255
255
255
255
255
255
255
255
255
255
255
255
255
255
255
255
255
255
255
255
255
255
255
255
255
255
255
255
255
255
255
255
255
255
255
255
255
255
255
255
255
255
255
255
255
255
255
255
255
255
255
255
255
255
255
255
255
255
255
255
255
255
255
255
255
255
255
255
255
255
255
255
255
255
255
255
255
255
255
255
255
255
255
255
255
255
255
255
255
255
255
255
255
226
38
0
0
0
0
0
0
0
0
0
0
0
0
0
0
0
0
0
0
0
0
0
0
0
0
0
0
74
244
255
255
255
255
255
255
255
255
255
255
255
255
255
255
255
255
255
255
255
255
255
255
255
255
255
255
255
255
255
255
255
255
255
255
255
255
255
255
255
255
255
255
255
255
255
255
255
255
255
255
255
255
255
255
255
255
255
255
255
255
255
255
255
255
255
255
255
255
255
255
255
255
255
255
255
255
255
255
255
255
255
255
255
255
255
255
255
255
255
255
255
255
255
255
255
255
255
251
147
7
0
0
0
0
0
0
0
0
0
0
0
0
