P2
# CREATOR: GIMP PNM Filter Version 1.1
128 32
255
0
0
0
0
0
0
0
0
0
0
0
0
5
122
249
255
255
255
255
255
255
255
255
255
255
255
255
255
255
255
255
255
255
255
255
255
255
255
255
255
255
255
255
255
255
255
255
255
255
255
255
255
255
255
255
255
255
255
255
255
255
255
255
255
255
255
255
255
255
255
255
255
255
255
255
255
255
255
255
255
255
255
255
255
255
255
255
255
255
255
255
255
255
255
255
255
255
255
255
255
255
255
255
255
255
255
255
255
255
255
255
255
255
255
255
194
12
0
0
0
0
0
0
0
0
0
0
0
0
0
0
0
0
0
0
0
0
0
0
0
16
203
255
255
255
255
249
250
247
250
250
248
250
248
255
255
255
254
247
250
249
248
252
255
251
250
248
250
249
255
255
249
250
247
250
250
248
251
248
250
250
247
250
248
249
250
247
254
255
255
255
249
250
247
250
250
248
250
248
250
251
255
255
255
255
255
251
249
248
250
247
250
250
248
253
255
255
255
249
250
247
250
250
255
255
255
255
255
255
255
255
252
249
249
250
248
254
255
255
255
255
255
255
240
60
0
0
0
0
0
0
0
0
0
0
0
0
0
0
0
0
0
0
0
0
0
0
0
67
244
255
255
255
247
127
133
103
134
135
107
135
117
240
255
255
216
44
133
126
74
186
246
155
134
40
132
108
243
247
0
0
0
0
0
0
0
0
0
0
0
0
0
0
0
0
217
255
255
246
0
0
0
0
0
0
0
0
0
108
250
255
255
255
252
172
22
0
60
0
35
65
0
201
255
255
246
0
0
0
0
14
247
255
255
255
255
255
255
251
172
0
0
32
0
227
255
255
255
255
255
255
252
141
6
0
0
0
0
0
0
0
0
0
0
0
0
0
0
0
0
0
0
0
0
0
6
142
251
255
255
255
239
0
0
0
0
0
0
0
0
211
255
253
167
0
0
0
0
74
234
0
0
0
0
0
219
235
0
0
0
0
0
0
0
0
0
0
0
0
0
0
0
0
173
254
255
238
0
4
2
4
4
3
4
3
4
0
244
255
255
255
246
0
0
0
0
0
0
0
0
92
251
255
238
0
4
2
4
0
241
255
255
255
255
255
255
246
0
0
1
0
0
181
254
255
255
255
255
255
255
213
18
0
0
0
0
0
0
0
0
0
0
0
0
0
0
0
0
0
0
0
0
0
15
208
255
255
254
225
189
0
0
0
0
0
0
0
0
185
222
252
183
0
0
0
0
154
240
0
0
0
0
0
238
241
0
0
0
0
0
0
0
0
0
0
0
0
0
0
0
0
161
208
254
238
0
0
4
0
0
3
0
0
0
0
186
238
255
245
187
0
0
0
0
0
0
0
0
109
198
253
239
0
0
4
0
0
243
255
255
255
255
255
255
247
0
0
0
0
0
218
255
255
255
255
255
255
255
244
60
0
0
0
0
0
0
0
0
0
0
0
0
0
0
0
0
0
0
0
0
0
50
242
255
255
246
101
0
0
0
0
0
0
0
0
0
0
94
244
173
0
0
0
0
129
234
0
0
0
0
0
229
236
0
0
0
0
0
0
0
0
0
0
0
0
0
0
0
0
0
0
246
239
0
1
3
0
0
3
0
4
0
0
0
146
255
190
0
0
0
0
0
0
0
0
0
0
0
231
238
0
1
3
0
0
242
255
255
255
255
255
255
246
0
0
1
0
0
196
255
255
255
255
255
255
255
250
124
5
0
0
0
0
0
0
0
0
0
0
0
0
0
0
0
0
0
0
0
3
104
248
255
255
246
0
0
0
0
0
0
0
0
0
0
0
99
244
173
0
0
0
0
137
235
0
0
0
0
0
233
235
0
0
0
0
0
0
0
0
0
0
0
0
0
0
0
0
0
0
245
237
0
0
4
0
0
4
0
3
0
0
4
169
255
188
0
0
0
0
0
0
0
0
0
0
0
233
236
0
0
4
0
0
243
255
255
255
255
255
255
246
0
0
0
0
0
202
255
255
255
255
255
255
255
254
180
10
0
0
0
0
0
0
0
0
0
0
0
0
0
0
0
0
0
0
0
8
151
252
255
255
246
0
0
0
0
0
0
0
0
0
0
0
110
245
172
0
0
0
0
152
237
0
0
0
0
0
238
235
0
0
0
0
0
0
0
0
0
0
0
0
0
0
0
0
0
0
247
235
0
0
3
0
0
4
0
1
0
0
3
178
255
189
0
0
0
0
0
0
0
0
0
0
0
238
234
0
0
3
0
0
244
255
255
255
255
255
255
246
0
0
0
0
0
215
255
255
255
255
255
255
255
255
222
18
0
0
0
0
0
0
0
0
0
0
0
0
0
0
0
0
0
0
0
12
196
255
255
255
245
0
0
0
0
0
0
0
0
0
0
0
89
243
157
0
0
0
0
127
229
0
0
0
0
0
228
228
0
0
0
0
0
0
0
0
0
0
0
0
0
0
0
0
0
0
245
230
2
4
2
4
3
3
3
3
4
4
4
140
255
177
0
0
0
0
0
0
0
0
0
0
0
228
228
1
4
2
4
0
242
255
255
255
255
255
255
245
0
0
1
0
0
195
255
255
255
255
255
255
255
255
242
46
0
0
0
0
0
0
0
0
0
0
0
0
0
0
0
0
0
0
0
17
227
255
255
255
246
0
0
24
0
0
143
143
0
0
0
0
128
247
179
0
0
0
0
169
239
0
0
0
0
0
242
236
0
0
0
0
0
0
0
0
0
0
0
0
0
0
0
0
0
0
247
234
0
0
0
0
0
0
0
0
0
0
0
195
255
193
0
0
0
0
0
76
0
0
0
0
0
242
234
0
0
0
0
0
245
255
255
255
255
255
255
246
0
0
0
0
0
225
255
255
255
255
255
255
255
255
245
80
1
0
0
0
0
0
0
0
0
0
0
0
0
0
0
0
0
0
0
37
242
255
255
255
244
0
0
0
0
0
194
172
0
0
0
0
93
243
153
0
0
0
0
131
225
0
0
0
0
0
231
225
0
0
0
0
0
230
0
0
0
0
0
167
217
0
0
0
0
0
245
225
1
4
3
4
0
240
9
3
4
3
4
167
255
174
0
0
0
0
35
236
0
0
0
0
0
230
224
1
4
3
4
0
243
255
255
255
255
255
255
244
0
0
1
0
0
199
255
255
255
255
255
255
255
255
248
112
4
0
0
0
0
0
0
0
0
0
0
0
0
0
0
0
0
0
0
59
243
255
255
255
246
0
0
0
0
41
223
212
57
87
64
70
147
248
174
0
0
0
0
168
236
0
0
0
0
0
243
234
0
0
0
0
0
242
0
0
0
0
0
200
232
0
0
0
0
0
247
231
0
0
0
0
0
189
34
0
0
0
0
197
255
191
0
0
0
0
150
197
0
0
0
0
0
242
231
0
0
0
0
0
246
255
255
255
255
255
255
246
0
0
0
0
0
220
255
255
255
255
255
255
255
255
250
133
6
0
0
0
0
0
0
0
0
0
0
0
0
0
0
0
0
0
1
74
245
255
255
255
244
0
0
0
0
0
213
253
243
247
244
244
251
251
146
0
0
0
0
150
229
0
0
0
0
0
238
224
0
0
0
0
0
236
0
0
0
0
0
183
221
0
0
0
0
0
245
220
1
0
4
0
0
3
0
3
0
0
4
180
255
171
0
0
0
0
0
0
0
0
0
0
0
237
220
1
0
4
1
0
244
255
255
255
255
255
255
244
0
0
1
0
0
213
255
255
255
255
255
255
255
255
251
149
7
0
0
0
0
0
0
0
0
0
0
0
0
0
0
0
0
0
2
85
246
255
255
255
244
0
0
0
0
0
213
255
240
246
240
239
251
251
146
0
0
0
0
150
229
0
0
0
0
0
239
223
0
0
0
0
0
237
0
0
0
0
0
187
219
0
0
0
0
0
246
219
0
0
3
0
0
1
0
1
1
0
0
187
255
171
0
0
0
0
0
0
0
0
0
0
0
237
218
0
0
3
0
0
244
255
255
255
255
255
255
244
0
0
0
0
0
212
255
255
255
255
255
255
255
255
252
160
8
0
0
0
0
0
0
0
0
0
0
0
0
0
0
0
0
0
2
89
246
255
255
255
245
0
0
0
0
40
224
246
0
0
0
0
158
248
163
0
0
0
0
173
235
0
0
0
0
0
244
228
0
0
0
0
0
240
0
0
0
0
0
205
225
0
0
0
0
0
248
224
0
0
0
0
0
4
0
0
0
0
188
248
255
182
0
0
0
0
0
0
0
0
0
0
0
243
224
0
0
0
0
0
246
255
255
255
255
255
255
245
0
0
0
0
0
224
255
255
255
255
255
255
255
255
253
164
9
0
0
0
0
0
0
0
0
0
0
0
0
0
0
0
0
0
2
87
246
255
255
255
243
0
0
0
0
0
211
244
0
0
0
0
107
242
138
0
0
0
0
144
218
0
0
0
0
0
235
216
0
0
0
0
0
234
0
0
0
0
0
180
209
0
0
0
0
0
245
210
3
4
3
4
3
1
4
4
4
0
242
255
255
162
0
0
0
0
0
0
0
0
0
0
0
233
210
2
4
3
4
0
244
255
255
255
255
255
255
243
0
0
1
0
0
211
255
255
255
255
255
255
255
255
253
161
8
0
0
0
0
0
0
0
0
0
0
0
0
0
0
0
0
0
1
78
245
255
255
255
245
0
0
0
0
52
233
245
0
0
0
0
155
249
170
0
0
0
0
190
239
0
0
0
0
0
246
230
0
0
0
0
0
242
0
0
0
0
0
218
229
0
0
0
0
0
249
226
0
0
0
0
0
3
0
0
0
0
0
237
255
187
0
0
0
0
0
0
0
0
0
0
0
245
226
0
0
0
0
0
247
255
255
255
255
255
255
245
0
0
0
0
0
232
255
255
255
255
255
255
255
255
252
153
8
0
0
0
0
0
0
0
0
0
0
0
0
0
0
0
0
0
0
64
244
255
255
255
242
0
0
0
0
0
217
244
0
0
0
0
115
243
131
0
0
0
0
150
216
0
0
0
0
0
238
212
0
0
0
0
0
235
0
0
0
0
0
188
204
0
0
0
0
0
245
203
3
4
4
4
3
1
4
4
4
3
2
187
255
157
0
0
0
0
0
0
0
0
0
0
0
236
203
3
4
3
4
0
245
255
255
255
255
255
255
242
0
0
1
0
0
217
255
255
255
255
255
255
255
255
250
138
6
0
0
0
0
0
0
0
0
0
0
0
0
0
0
0
0
0
0
44
242
255
255
255
244
0
0
0
0
43
230
244
0
0
0
0
145
246
150
0
0
0
0
177
233
0
0
0
0
0
244
221
0
0
0
0
0
239
0
0
0
0
0
210
217
0
0
0
0
0
248
215
0
0
0
0
0
0
0
0
0
0
0
209
255
171
0
0
0
0
0
0
0
0
0
0
0
243
215
0
0
0
0
0
247
255
255
255
255
255
255
244
0
0
0
0
0
228
255
255
255
255
255
255
255
255
249
119
5
0
0
0
0
0
0
0
0
0
0
0
0
0
0
0
0
0
0
23
234
255
255
255
243
0
0
0
0
35
234
245
0
0
0
0
136
244
134
0
0
0
0
173
228
0
0
0
0
0
244
213
0
0
0
0
0
238
0
0
0
0
0
204
209
0
0
0
0
0
246
204
0
0
0
0
0
224
0
0
1
0
0
203
255
160
0
0
0
0
160
217
0
0
0
0
0
241
204
0
0
0
0
0
250
255
255
255
255
255
255
243
0
0
0
0
0
230
255
255
255
255
255
255
255
255
246
92
2
0
0
0
0
0
0
0
0
0
0
0
0
0
0
0
0
0
0
13
207
255
255
255
242
0
0
0
0
0
220
220
0
0
0
0
130
243
123
0
0
0
0
160
210
0
0
0
0
0
244
208
0
0
0
0
0
236
0
0
0
0
0
202
201
0
0
0
0
0
245
196
3
0
3
4
0
239
0
3
4
0
3
201
255
152
0
0
0
0
165
235
0
0
0
0
0
240
196
3
0
3
4
0
235
247
246
245
247
245
254
242
0
0
1
0
0
217
247
244
247
246
244
251
255
255
243
58
0
0
0
0
0
0
0
0
0
0
0
0
0
0
0
0
0
0
0
9
167
253
255
255
244
0
0
0
0
0
0
0
0
0
0
34
162
248
149
0
0
0
0
3
0
0
0
0
0
0
248
221
0
0
0
0
0
241
0
0
0
0
0
223
217
0
0
0
0
0
249
214
0
0
0
0
0
0
0
0
0
0
0
222
255
172
0
0
0
0
194
246
0
0
0
0
0
246
214
0
0
0
0
0
0
0
0
0
0
0
231
245
0
0
0
0
0
0
0
0
0
0
0
179
253
255
232
25
0
0
0
0
0
0
0
0
0
0
0
0
0
0
0
0
0
0
0
5
121
249
255
255
241
0
0
0
0
0
0
0
0
0
0
0
127
242
83
0
0
0
0
0
0
0
0
0
0
0
241
202
0
0
0
0
0
235
0
0
0
0
0
198
191
0
0
0
0
0
245
190
4
4
4
4
3
1
4
4
3
3
3
198
255
126
0
0
0
0
160
221
0
0
0
0
0
238
190
4
4
4
4
3
1
4
4
2
4
3
200
242
0
0
1
0
0
1
0
0
0
0
1
0
250
255
196
12
0
0
0
0
0
0
0
0
0
0
0
0
0
0
0
0
0
0
0
0
66
244
255
255
243
0
0
0
0
0
0
0
0
0
0
2
162
247
141
0
0
0
0
0
0
0
0
0
0
0
248
217
0
0
0
0
0
240
0
0
0
0
0
225
218
0
0
0
0
0
249
208
0
0
0
0
0
4
0
0
0
0
0
223
255
166
0
0
0
0
201
249
0
0
0
0
0
246
208
0
0
0
0
0
2
0
0
0
0
0
226
245
0
0
0
0
0
0
0
0
0
0
0
160
254
252
141
7
0
0
0
0
0
0
0
0
0
0
0
0
0
0
0
0
0
0
0
0
22
224
255
255
241
0
0
0
0
0
0
0
0
0
0
0
134
243
56
0
0
0
0
0
0
0
0
0
0
0
245
199
0
0
0
0
0
236
0
0
0
0
0
204
188
0
0
0
0
0
246
185
4
3
4
4
1
2
3
3
3
3
4
205
255
103
0
0
0
0
170
224
0
0
0
0
0
240
185
4
3
4
4
1
3
1
3
3
3
3
208
242
0
0
1
0
0
1
0
1
0
0
0
18
253
248
82
1
0
0
0
0
0
0
0
0
0
0
0
0
0
0
0
0
0
0
0
0
9
166
253
255
243
0
0
0
0
0
0
0
0
0
0
0
153
245
135
0
0
0
0
0
0
0
0
0
0
28
248
204
0
0
0
0
0
239
0
0
0
0
0
219
202
0
0
0
0
0
248
191
2
0
0
0
0
3
0
0
3
0
0
223
255
150
0
0
0
0
193
238
0
0
0
0
0
243
192
2
0
0
0
0
4
0
0
3
0
0
223
244
0
0
1
0
0
0
0
1
0
0
0
125
255
230
28
0
0
0
0
0
0
0
0
0
0
0
0
0
0
0
0
0
0
0
0
0
2
93
247
255
254
243
175
0
0
0
0
0
0
0
0
0
155
251
248
230
0
0
0
0
0
0
0
0
207
246
255
201
0
0
0
0
0
238
0
0
0
0
0
221
194
0
0
0
0
0
248
191
3
0
0
2
0
2
0
0
2
29
239
253
255
144
0
0
0
0
192
233
0
0
0
0
0
244
192
3
0
0
2
0
3
0
0
4
0
0
225
244
0
0
1
0
0
0
0
1
0
0
0
156
250
169
9
0
0
0
0
0
0
0
0
0
0
0
0
0
0
0
0
0
0
0
0
0
0
28
224
255
255
255
177
0
0
0
0
0
0
0
0
0
147
251
255
244
0
0
0
0
0
0
0
0
215
255
255
193
0
0
0
0
0
236
0
0
0
0
0
216
185
0
0
0
0
0
246
180
1
1
0
3
0
4
0
0
2
34
254
255
255
92
0
0
0
0
183
218
0
0
0
0
0
243
181
1
1
0
3
0
4
0
0
4
0
0
220
243
0
0
0
0
0
0
0
0
0
0
0
119
243
89
2
0
0
0
0
0
0
0
0
0
0
0
0
0
0
0
0
0
0
0
0
0
0
7
149
253
255
255
232
172
190
188
175
192
174
193
190
173
227
255
255
250
182
190
171
193
190
174
194
177
248
255
255
239
172
188
184
177
219
250
203
192
173
190
179
249
240
172
189
182
178
212
253
237
172
188
185
177
193
170
186
193
174
225
255
255
255
221
181
177
190
174
243
252
196
192
174
189
202
252
237
172
188
185
177
193
172
191
193
173
190
179
249
252
185
187
170
191
188
175
192
174
193
190
173
230
216
23
0
0
0
0
0
0
0
0
0
0
0
0
0
0
0
0
0
0
0
0
0
0
0
0
59
239
255
255
255
253
255
255
254
255
254
255
255
253
255
255
255
255
254
255
253
255
255
254
255
254
255
255
255
255
253
255
254
254
255
255
255
255
254
255
254
255
255
253
255
254
254
255
255
255
253
255
254
254
255
253
255
255
254
255
255
255
255
255
254
254
255
253
255
255
254
255
254
255
255
255
255
253
255
254
254
255
253
255
255
254
255
254
255
255
254
255
253
255
255
254
255
254
255
255
253
251
129
5
0
0
0
0
0
0
0
0
0
0
0
0
0
0
0
0
0
0
0
0
0
0
0
0
11
172
253
255
255
255
255
255
255
255
255
255
255
255
255
255
255
255
255
255
255
255
255
255
255
255
255
255
255
255
255
255
255
255
255
255
255
255
255
255
255
255
255
255
255
255
255
255
255
255
255
255
255
255
255
255
255
255
255
255
255
255
255
255
255
255
255
255
255
255
255
255
255
255
255
255
255
255
255
255
255
255
255
255
255
255
255
255
255
255
255
255
255
255
255
255
255
255
255
255
255
226
38
0
0
0
0
0
0
0
0
0
0
0
0
0
0
0
0
0
0
0
0
0
0
0
0
0
0
74
244
255
255
255
255
255
255
255
255
255
255
255
255
255
255
255
255
255
255
255
255
255
255
255
255
255
255
255
255
255
255
255
255
255
255
255
255
255
255
255
255
255
255
255
255
255
255
255
255
255
255
255
255
255
255
255
255
255
255
255
255
255
255
255
255
255
255
255
255
255
255
255
255
255
255
255
255
255
255
255
255
255
255
255
255
255
255
255
255
255
255
255
255
255
255
255
255
255
251
147
7
0
0
0
0
0
0
0
0
0
0
0
0
