P2
# CREATOR: GIMP PNM Filter Version 1.1
128 32
255
0
0
0
0
0
0
0
0
0
0
0
0
0
0
0
0
0
0
0
0
0
0
0
0
15
241
255
255
255
255
255
255
255
255
255
255
255
255
255
250
120
5
0
0
0
0
0
0
0
0
0
0
0
4
59
64
63
63
63
63
63
63
63
63
63
63
63
62
64
147
70
2
0
0
0
0
3
63
124
128
127
127
127
127
127
127
127
127
127
127
126
129
194
252
255
255
255
255
255
255
255
255
255
255
250
202
254
242
15
0
0
0
0
0
0
0
0
0
0
0
0
0
0
0
0
0
0
0
0
0
0
0
0
0
0
0
0
0
0
0
0
0
0
0
0
0
0
0
0
0
0
0
15
239
255
255
255
255
255
255
255
255
255
255
255
255
255
236
21
0
0
0
0
0
0
0
0
0
0
0
0
4
60
64
63
63
63
63
63
63
63
63
63
63
63
62
69
147
20
0
0
0
0
0
0
63
124
128
127
127
127
127
127
127
127
127
127
127
125
138
244
255
255
255
255
255
255
255
255
255
255
255
255
252
255
239
15
0
0
0
0
0
0
0
0
0
0
0
0
0
0
0
0
0
0
0
0
0
0
0
0
0
0
0
0
0
0
0
0
0
0
0
0
0
0
0
0
0
0
0
10
181
253
255
255
255
255
255
255
255
255
255
255
255
248
127
3
0
0
0
0
0
0
0
0
0
0
0
0
4
56
64
63
63
63
63
63
63
63
63
63
63
62
65
127
158
10
8
15
15
15
15
17
64
123
128
127
127
127
127
127
127
127
127
127
126
129
187
253
255
255
255
255
255
255
255
255
255
255
255
255
255
254
181
10
0
0
0
0
0
0
0
0
0
0
0
0
0
0
0
0
0
0
0
0
0
0
0
0
0
0
0
0
0
0
0
0
0
0
0
0
0
0
0
0
0
0
0
1
73
245
255
249
255
255
255
255
255
255
255
255
248
175
13
0
0
0
0
0
0
0
0
0
0
0
0
0
0
7
60
64
63
63
63
63
63
63
63
63
63
60
74
179
99
19
113
166
169
168
170
160
75
128
128
127
127
127
127
127
127
127
127
127
125
133
196
252
255
255
255
255
255
255
255
255
255
255
255
255
255
244
73
1
0
0
0
0
0
0
0
0
0
0
0
0
0
0
0
0
0
0
0
0
0
0
0
0
0
0
0
0
0
0
0
0
0
0
0
0
0
0
0
0
0
0
0
0
16
240
249
147
231
249
255
255
255
255
249
238
131
18
2
4
4
4
4
4
3
0
0
0
0
0
0
0
0
3
56
65
63
63
63
63
63
63
63
62
60
70
127
131
93
154
70
17
15
15
15
16
65
166
138
126
127
127
127
127
127
127
127
125
132
192
251
255
255
255
255
255
255
255
255
255
255
255
255
255
255
241
17
0
0
0
0
0
0
0
0
0
0
0
0
0
0
0
0
0
0
0
0
0
0
0
0
0
0
0
0
0
0
0
0
0
0
0
0
0
0
0
0
0
0
0
0
0
9
188
249
132
25
121
185
238
238
184
125
76
64
56
59
59
59
59
59
60
56
7
0
0
0
0
0
0
0
0
7
56
65
64
63
62
62
62
61
66
75
126
174
134
112
21
3
0
0
0
0
0
4
23
164
138
127
126
126
126
126
125
124
134
194
249
251
255
255
255
255
255
255
255
255
255
255
255
255
255
255
238
14
0
0
0
0
0
0
0
0
0
0
0
0
0
0
0
0
0
0
0
0
0
0
0
0
0
0
0
0
0
0
0
0
0
0
0
0
0
0
0
0
0
0
0
0
0
5
123
254
235
12
5
11
15
15
10
12
57
63
64
64
64
64
64
64
64
65
56
11
0
0
0
0
0
0
0
0
7
56
60
62
66
66
65
73
123
171
121
81
117
40
0
0
0
0
0
0
0
0
0
23
168
132
133
134
133
133
137
142
191
238
183
138
247
255
255
255
255
255
255
255
255
255
255
255
255
254
181
10
0
0
0
0
0
0
0
0
0
0
0
0
0
0
0
0
0
0
0
0
0
0
0
0
0
0
0
0
0
0
0
0
0
0
0
0
0
0
0
0
0
0
0
0
0
0
21
242
251
73
0
0
0
0
4
54
64
63
63
63
63
63
63
63
63
62
69
106
15
1
0
0
0
0
0
0
0
2
4
68
128
130
135
181
137
70
17
106
17
1
0
0
0
0
0
0
0
0
0
1
67
131
174
176
179
184
234
232
178
74
10
19
239
255
255
255
255
255
255
255
255
255
255
255
255
247
74
1
0
0
0
0
0
0
0
0
0
0
0
0
0
0
0
0
0
0
0
0
0
0
0
0
0
0
0
0
0
0
0
0
0
0
0
0
0
0
0
0
0
0
0
0
0
0
8
182
255
182
7
0
0
4
56
65
63
63
63
63
63
63
63
63
63
63
63
74
109
7
0
0
0
0
0
0
0
2
19
117
175
178
177
183
170
64
22
112
8
0
0
0
0
0
0
0
0
0
0
0
16
165
26
13
63
69
68
20
10
0
0
6
180
255
255
255
255
255
255
255
255
255
255
255
255
231
16
0
0
0
0
0
0
0
0
0
0
0
0
0
0
0
0
0
0
0
0
0
0
0
0
0
0
0
0
0
0
0
0
0
0
0
0
0
0
0
0
0
0
0
0
0
0
0
1
73
247
242
24
0
0
4
60
64
63
63
63
63
63
63
63
63
63
63
62
68
117
12
0
0
0
0
0
0
5
70
158
69
14
13
13
12
14
64
163
129
5
0
0
0
0
0
0
0
0
0
0
0
14
169
12
0
5
6
4
0
1
3
4
4
76
239
255
255
255
255
255
255
255
255
255
255
243
78
0
0
0
0
0
0
0
0
0
0
0
0
0
0
0
0
0
0
0
0
0
0
0
0
0
0
0
0
0
0
0
0
0
0
0
0
0
0
0
0
0
0
0
0
0
0
0
0
0
11
182
255
178
11
0
4
59
64
63
63
63
63
63
63
63
63
63
63
62
68
120
64
3
0
0
0
0
1
66
109
22
3
0
0
0
0
0
4
27
156
27
3
0
0
0
0
0
0
0
0
0
0
15
168
13
2
55
59
58
59
59
59
59
58
63
133
238
255
255
255
255
255
255
251
255
255
181
10
0
0
0
0
0
0
0
0
0
0
0
0
0
0
0
0
0
0
0
0
0
0
0
0
0
0
0
0
0
0
0
0
0
0
0
0
0
0
0
0
0
0
0
0
0
0
0
0
0
0
73
248
248
73
0
3
59
64
63
63
63
63
63
63
63
63
63
63
62
67
125
118
8
0
0
0
1
16
104
17
0
0
0
0
0
0
0
0
0
23
164
53
0
0
0
0
0
0
0
0
0
0
14
168
19
41
66
64
64
64
64
64
64
64
63
62
83
229
249
255
255
255
248
205
253
246
73
0
0
0
0
0
0
0
0
0
0
0
0
0
0
0
0
0
0
0
0
0
0
0
0
0
0
0
0
0
0
0
0
0
0
0
0
0
0
0
0
0
0
0
0
0
0
0
0
0
0
0
11
178
255
182
13
0
59
64
63
63
63
63
63
63
63
63
63
63
62
67
124
122
8
0
0
0
9
107
17
0
0
0
0
0
0
0
0
0
0
2
67
65
5
0
0
0
0
0
0
0
0
0
15
169
70
61
63
63
63
63
63
63
63
63
63
63
60
26
122
185
238
236
196
247
255
177
11
0
0
0
0
0
0
0
0
0
0
0
0
0
0
0
0
0
0
0
0
0
0
0
0
0
0
0
0
0
0
0
0
0
0
0
0
0
0
0
0
0
0
0
0
0
0
0
0
0
0
0
0
24
238
253
126
10
57
64
63
63
63
63
63
63
63
63
63
63
62
67
128
118
8
0
0
0
13
111
8
0
0
0
0
0
0
0
0
0
0
0
3
122
19
0
0
0
0
0
0
0
0
2
68
121
69
62
63
63
63
63
63
63
63
63
62
67
113
59
8
11
15
17
137
255
238
24
0
0
0
0
0
0
0
0
0
0
0
0
0
0
0
0
0
0
0
0
0
0
0
0
0
0
0
0
0
0
0
0
0
0
0
0
0
0
0
0
0
0
0
0
0
0
0
0
0
0
0
0
0
2
127
253
241
77
58
63
63
63
63
63
63
63
63
63
63
63
61
71
174
68
0
0
0
2
57
63
4
0
0
0
0
0
0
0
0
0
0
0
1
127
18
0
0
0
0
0
0
0
0
21
165
76
61
63
63
63
63
63
63
63
63
63
63
62
74
117
7
0
0
19
235
253
127
2
0
0
0
0
0
0
0
0
0
0
0
0
0
0
0
0
0
0
0
0
0
0
0
0
0
0
0
0
0
0
0
0
0
0
0
0
0
0
0
0
0
0
0
0
0
0
0
0
0
0
0
0
0
0
14
178
255
187
75
61
63
63
63
63
63
63
63
63
63
63
61
79
169
20
10
15
15
14
60
58
4
0
0
0
0
0
0
0
0
0
0
0
2
127
28
0
0
0
0
0
0
0
16
112
126
66
62
63
63
63
63
63
63
63
63
63
63
61
73
166
12
0
14
178
255
178
14
0
0
0
0
0
0
0
0
0
0
0
0
0
0
0
0
0
0
0
0
0
0
0
0
0
0
0
0
0
0
0
0
0
0
0
0
0
0
0
0
0
0
0
0
0
0
0
0
0
0
0
0
0
0
0
0
23
233
255
184
71
60
63
63
63
63
63
63
63
63
60
73
182
138
66
111
166
166
112
72
61
4
0
0
0
0
0
0
0
0
0
0
0
0
135
124
20
10
4
4
4
8
17
102
70
65
63
63
63
63
63
63
63
63
63
63
63
63
62
69
119
10
4
127
254
234
23
0
0
0
0
0
0
0
0
0
0
0
0
0
0
0
0
0
0
0
0
0
0
0
0
0
0
0
0
0
0
0
0
0
0
0
0
0
0
0
0
0
0
0
0
0
0
0
0
0
0
0
0
0
0
0
0
0
0
77
243
251
135
67
61
63
63
63
63
63
62
60
67
138
236
174
63
12
15
15
17
113
123
6
0
0
0
0
0
0
0
0
0
0
0
2
128
88
157
114
63
58
60
98
108
15
5
58
64
63
63
63
63
63
63
63
63
63
63
63
62
68
121
64
80
243
244
77
0
0
0
0
0
0
0
0
0
0
0
0
0
0
0
0
0
0
0
0
0
0
0
0
0
0
0
0
0
0
0
0
0
0
0
0
0
0
0
0
0
0
0
0
0
0
0
0
0
0
0
0
0
0
0
0
0
0
0
6
127
252
246
134
67
62
63
62
62
62
67
75
139
224
80
13
4
0
0
0
0
22
161
21
0
0
0
0
0
0
0
0
0
0
2
67
101
14
13
11
55
64
59
25
8
0
2
60
64
63
63
63
63
63
63
63
63
63
63
63
61
71
173
144
240
253
127
6
0
0
0
0
0
0
0
0
0
0
0
0
0
0
0
0
0
0
0
0
0
0
0
0
0
0
0
0
0
0
0
0
0
0
0
0
0
0
0
0
0
0
0
0
0
0
0
0
0
0
0
0
0
0
0
0
0
0
0
0
14
177
255
246
134
62
62
69
68
71
119
180
231
80
1
0
0
0
0
0
0
2
69
113
11
0
0
0
0
0
0
0
0
0
20
168
57
0
0
6
16
60
17
43
12
7
6
54
63
63
63
63
63
63
63
63
63
63
63
63
60
72
191
251
255
177
14
0
0
0
0
0
0
0
0
0
0
0
0
0
0
0
0
0
0
0
0
0
0
0
0
0
0
0
0
0
0
0
0
0
0
0
0
0
0
0
0
0
0
0
0
0
0
0
0
0
0
0
0
0
0
0
0
0
0
0
0
0
0
19
177
255
241
84
61
110
117
112
67
80
118
9
0
0
0
0
0
0
0
0
10
112
67
10
0
0
0
0
0
0
0
17
108
74
16
7
63
117
120
122
119
122
121
117
63
17
58
64
63
63
63
63
63
63
63
63
63
61
67
134
248
255
177
19
0
0
0
0
0
0
0
0
0
0
0
0
0
0
0
0
0
0
0
0
0
0
0
0
0
0
0
0
0
0
0
0
0
0
0
0
0
0
0
0
0
0
0
0
0
0
0
0
0
0
0
0
0
0
0
0
0
0
0
0
0
0
0
0
19
177
255
239
82
14
6
8
13
110
14
0
0
0
0
0
0
0
0
0
0
14
113
116
21
10
4
4
4
10
17
104
66
1
12
113
126
129
129
128
129
129
129
129
125
115
69
61
63
63
63
63
63
63
63
63
60
67
134
246
255
177
19
0
0
0
0
0
0
0
0
0
0
0
0
0
0
0
0
0
0
0
0
0
0
0
0
0
0
0
0
0
0
0
0
0
0
0
0
0
0
0
0
0
0
0
0
0
0
0
0
0
0
0
0
0
0
0
0
0
0
0
0
0
0
0
0
0
0
19
177
252
243
125
13
0
12
165
13
0
0
0
0
0
0
0
0
0
0
0
14
121
167
112
61
58
62
109
105
15
2
1
87
134
128
127
127
127
127
127
127
127
128
130
124
70
63
63
63
63
63
63
62
59
71
135
247
251
177
19
0
0
0
0
0
0
0
0
0
0
0
0
0
0
0
0
0
0
0
0
0
0
0
0
0
0
0
0
0
0
0
0
0
0
0
0
0
0
0
0
0
0
0
0
0
0
0
0
0
0
0
0
0
0
0
0
0
0
0
0
0
0
0
0
0
0
0
0
14
127
245
253
188
57
9
169
15
0
0
0
0
0
0
1
2
2
2
1
4
67
73
19
58
63
59
15
11
0
3
58
110
129
126
126
126
126
126
126
126
126
125
130
177
131
80
61
64
63
62
61
63
80
184
252
243
127
14
0
0
0
0
0
0
0
0
0
0
0
0
0
0
0
0
0
0
0
0
0
0
0
0
0
0
0
0
0
0
0
0
0
0
0
0
0
0
0
0
0
0
0
0
0
0
0
0
0
0
0
0
0
0
0
0
0
0
0
0
0
0
0
0
0
0
0
0
0
0
5
78
233
255
234
91
168
10
0
0
0
0
0
8
63
71
70
70
69
74
126
125
72
73
74
74
68
68
69
74
128
134
134
134
134
134
134
134
134
134
134
134
134
143
186
98
54
59
62
64
71
134
240
255
233
78
5
0
0
0
0
0
0
0
0
0
0
0
0
0
0
0
0
0
0
0
0
0
0
0
0
0
0
0
0
0
0
0
0
0
0
0
0
0
0
0
0
0
0
0
0
0
0
0
0
0
0
0
0
0
0
0
0
0
0
0
0
0
0
0
0
0
0
0
0
0
0
0
0
1
28
227
250
248
188
25
5
0
0
0
2
63
177
175
173
173
173
173
177
177
173
172
172
172
173
173
173
173
176
176
176
176
176
176
176
176
176
176
176
176
175
177
193
98
1
1
64
130
189
249
252
228
28
1
0
0
0
0
0
0
0
0
0
0
0
0
0
0
0
0
0
0
0
0
0
0
0
0
0
0
0
0
0
0
0
0
0
0
0
0
0
0
0
0
0
0
0
0
0
0
0
0
0
0
0
0
0
0
0
0
0
0
0
0
0
0
0
0
0
0
0
0
0
0
0
0
0
0
0
14
103
246
250
237
127
19
5
0
0
71
176
27
14
14
14
14
13
13
14
14
14
14
14
14
14
14
13
13
13
13
13
13
13
13
13
13
13
13
13
24
183
137
7
17
131
246
253
241
127
19
0
0
0
0
0
0
0
0
0
0
0
0
0
0
0
0
0
0
0
0
0
0
0
0
0
0
0
0
0
0
0
0
0
0
0
0
0
0
0
0
0
0
0
0
0
0
0
0
0
0
0
0
0
0
0
0
0
0
0
0
0
0
0
0
0
0
0
0
0
0
0
0
0
0
0
0
0
0
5
73
182
252
253
238
127
18
6
67
172
11
0
0
0
0
0
0
0
0
0
0
0
0
0
0
0
0
0
0
0
0
0
0
0
0
0
0
0
9
180
152
132
236
252
245
182
73
7
0
0
0
0
0
0
0
0
0
0
0
0
0
0
0
0
0
0
0
0
0
0
0
0
0
0
0
0
0
0
0
0
0
0
0
0
0
0
0
0
0
0
0
0
0
0
0
0
0
0
0
0
0
0
0
0
0
0
0
0
0
0
0
0
0
0
0
0
0
0
0
0
0
0
0
0
0
0
0
0
1
15
127
237
249
253
237
130
86
172
14
0
0
0
0
0
0
0
0
0
0
0
0
0
0
0
0
0
0
0
0
0
0
0
0
0
0
0
11
180
238
254
249
232
78
10
1
0
0
0
0
0
0
0
0
0
0
0
0
0
0
0
0
0
0
0
0
0
0
0
0
0
0
0
0
0
0
0
0
0
0
0
0
0
0
0
0
0
0
0
0
0
0
0
0
0
0
0
0
0
0
0
0
0
0
0
0
0
0
0
0
0
0
0
0
0
0
0
0
0
0
0
0
0
0
0
0
0
0
0
5
15
78
232
249
249
248
184
10
0
0
0
0
0
0
0
0
0
0
0
0
0
0
0
0
0
0
0
0
0
0
0
0
0
0
0
11
178
237
235
78
15
1
0
0
0
0
0
0
0
0
0
0
0
0
0
0
0
0
0
0
0
0
0
0
0
0
0
0
0
0
0
0
0
0
0
0
0
0
0
0
0
0
0
0
0
0
0
0
0
0
0
0
0
0
0
0
0
0
0
0
0
0
0
0
0
0
0
0
0
0
0
0
0
0
0
0
0
0
0
0
0
0
0
0
0
0
0
0
0
1
16
74
184
241
180
10
0
0
0
0
0
0
0
0
0
0
0
0
0
0
0
0
0
0
0
0
0
0
0
0
0
0
0
8
117
84
16
1
0
0
0
0
0
0
0
0
0
0
0
0
0
0
0
0
0
0
0
0
0
0
0
0
0
0
0
0
0
0
0
0
0
0
0
0
0
0
0
0
0
0
0
0
0
0
0
0
0
0
0
0
0
0
0
0
0
0
0
0
0
0
0
0
0
0
0
0
0
0
0
0
0
0
0
0
0
0
0
0
0
0
0
0
0
0
0
0
0
0
0
1
10
25
116
10
0
0
0
0
0
0
0
0
0
0
0
0
0
0
0
0
0
0
0
0
0
0
0
0
0
0
0
0
6
2
0
0
0
0
0
0
0
0
0
0
0
0
0
0
0
0
0
0
0
0
0
0
0
0
0
0
0
0
0
0
0
0
0
0
0
0
0
0
0
0
0
0
0
0
