P2
# CREATOR: GIMP PNM Filter Version 1.1
128 32
255
0
0
0
0
0
0
0
0
0
0
0
0
0
0
0
0
0
0
0
0
0
0
9
173
255
247
80
6
58
64
63
63
63
63
63
63
63
63
63
63
63
63
63
61
72
177
69
4
7
59
64
63
63
63
64
59
8
3
0
0
0
0
0
0
2
25
167
123
62
16
0
0
7
116
179
190
152
123
126
126
126
126
127
128
123
123
123
124
120
63
7
4
4
13
172
255
255
255
255
255
255
255
255
255
255
251
255
255
247
120
5
0
0
0
0
0
0
0
0
0
0
0
0
0
0
0
0
0
0
0
0
0
0
0
0
0
0
0
0
0
0
0
0
0
0
0
0
0
0
0
1
25
236
255
233
76
59
63
63
63
63
63
63
63
63
63
63
63
63
63
63
61
75
177
73
57
59
63
63
63
63
63
63
63
60
56
7
0
0
0
0
4
75
154
23
8
4
1
0
0
0
7
18
118
201
147
131
133
132
132
129
121
70
66
67
67
67
63
59
59
60
53
32
233
255
255
255
255
255
255
255
255
246
205
252
255
181
16
0
0
0
0
0
0
0
0
0
0
0
0
0
0
0
0
0
0
0
0
0
0
0
0
0
0
0
0
0
0
0
0
0
0
0
0
0
0
0
0
0
2
127
250
255
185
71
61
63
63
63
63
63
63
63
63
63
63
63
63
62
65
129
179
72
62
64
63
63
63
63
63
63
63
64
65
56
11
0
0
1
74
159
26
0
0
0
0
0
0
0
0
0
6
66
231
188
180
186
182
127
81
60
62
62
62
62
63
64
64
64
62
60
138
242
255
255
255
255
255
255
251
205
246
255
240
73
0
0
0
0
0
0
0
0
0
0
0
0
0
0
0
0
0
0
0
0
0
0
0
0
0
0
0
0
0
0
0
0
0
0
0
0
0
0
0
0
0
0
0
14
177
255
249
134
62
62
63
63
63
63
63
63
63
63
63
63
63
60
74
181
129
66
62
63
63
63
63
63
63
63
63
63
62
69
106
15
1
19
158
26
0
0
0
0
0
0
0
0
0
0
0
8
123
133
75
120
125
71
62
63
63
63
63
63
63
63
63
63
62
67
117
141
237
254
255
255
255
255
255
251
255
248
127
7
0
0
0
0
0
0
0
0
0
0
0
0
0
0
0
0
0
0
0
0
0
0
0
0
0
0
0
0
0
0
0
0
0
0
0
0
0
0
0
0
0
0
0
0
23
232
255
238
84
59
63
63
63
63
63
63
63
63
63
63
61
68
130
175
74
61
63
63
63
63
63
63
63
63
63
63
63
63
74
108
15
112
70
1
0
0
0
0
0
0
0
0
0
0
0
0
19
163
17
10
62
63
63
63
63
63
63
63
63
63
63
63
63
62
71
117
84
179
243
249
252
250
255
255
253
177
14
0
0
0
0
0
0
0
0
0
0
0
0
0
0
0
0
0
0
0
0
0
0
0
0
0
0
0
0
0
0
0
0
0
0
0
0
0
0
0
0
0
0
0
0
0
0
77
240
255
234
80
59
63
63
63
63
63
63
63
62
60
66
118
178
78
61
63
63
63
63
63
63
63
63
63
63
63
63
62
68
111
29
162
16
0
0
0
0
0
0
0
0
0
0
0
0
0
7
113
71
57
61
63
63
63
63
63
63
63
63
63
63
63
63
62
67
116
63
15
69
127
185
203
253
254
177
19
0
0
0
0
0
0
0
0
0
0
0
0
0
0
0
0
0
0
0
0
0
0
0
0
0
0
0
0
0
0
0
0
0
0
0
0
0
0
0
0
0
0
0
0
0
0
0
6
127
246
255
185
75
60
63
62
62
61
61
62
66
76
123
161
129
64
62
63
63
63
63
63
63
63
63
63
63
63
63
63
62
70
122
124
7
0
0
0
0
0
0
0
0
0
0
0
0
0
0
19
167
74
61
63
63
63
63
63
63
63
63
63
63
63
63
63
62
72
115
5
0
11
136
247
255
177
19
0
0
0
0
0
0
0
0
0
0
0
0
0
0
0
0
0
0
0
0
0
0
0
0
0
0
0
0
0
0
0
0
0
0
0
0
0
0
0
0
0
0
0
0
0
0
0
0
0
10
128
250
254
184
75
60
68
69
74
73
72
125
167
125
46
58
64
63
63
63
63
63
63
63
63
63
63
63
63
63
63
61
71
180
124
7
0
0
0
0
0
0
0
0
0
0
0
0
0
0
12
174
74
61
63
63
63
63
63
63
63
63
63
63
63
63
63
61
73
171
16
5
75
237
255
228
23
0
0
0
0
0
0
0
0
0
0
0
0
0
0
0
0
0
0
0
0
0
0
0
0
0
0
0
0
0
0
0
0
0
0
0
0
0
0
0
0
0
0
0
0
0
0
0
0
0
0
0
14
177
255
254
183
79
106
120
169
169
121
113
20
8
4
57
64
63
63
63
63
63
63
63
63
63
63
63
63
63
63
61
72
183
124
7
0
0
0
0
0
0
0
0
0
0
0
0
0
0
13
173
74
61
63
63
63
63
63
63
63
63
63
63
63
63
63
61
73
171
73
128
239
255
232
27
0
0
0
0
0
0
0
0
0
0
0
0
0
0
0
0
0
0
0
0
0
0
0
0
0
0
0
0
0
0
0
0
0
0
0
0
0
0
0
0
0
0
0
0
0
0
0
0
0
0
0
0
0
19
177
255
255
181
31
6
12
14
9
7
0
0
3
59
64
63
63
63
63
63
63
63
63
63
63
63
63
63
63
61
71
182
128
7
0
0
0
0
0
0
0
0
0
0
0
0
0
0
15
170
74
61
63
63
63
63
63
63
63
63
63
63
63
63
63
62
65
127
140
243
255
236
77
0
0
0
0
0
0
0
0
0
0
0
0
0
0
0
0
0
0
0
0
0
0
0
0
0
0
0
0
0
0
0
0
0
0
0
0
0
0
0
0
0
0
0
0
0
0
0
0
0
0
0
0
0
0
0
19
177
250
254
225
25
0
0
0
0
0
0
4
59
64
63
63
63
63
63
63
63
63
63
63
63
63
63
63
61
74
188
180
9
0
0
0
0
0
0
0
0
0
0
0
0
0
3
69
121
68
62
63
63
63
63
63
63
63
63
63
63
63
63
63
59
76
186
248
255
231
77
1
0
0
0
0
0
0
0
0
0
0
0
0
0
0
0
0
0
0
0
0
0
0
0
0
0
0
0
0
0
0
0
0
0
0
0
0
0
0
0
0
0
0
0
0
0
0
0
0
0
0
0
0
0
0
0
0
14
127
245
255
231
77
5
0
0
0
0
4
60
64
63
63
63
63
63
63
63
63
63
63
63
63
63
62
65
127
189
176
22
0
0
0
0
0
0
0
0
0
0
0
0
0
15
164
71
61
63
63
63
63
63
63
63
63
63
63
63
63
62
59
80
184
251
255
227
28
1
0
0
0
0
0
0
0
0
0
0
0
0
0
0
0
0
0
0
0
0
0
0
0
0
0
0
0
0
0
0
0
0
0
0
0
0
0
0
0
0
0
0
0
0
0
0
0
0
0
0
0
0
0
0
0
0
0
0
10
127
240
255
241
127
14
0
0
0
4
56
64
63
63
63
63
61
61
61
61
61
61
61
61
61
59
74
179
125
81
161
15
1
2
11
16
17
16
12
11
2
1
1
5
69
116
17
55
62
61
61
61
61
63
63
63
63
63
63
60
62
84
234
255
254
177
23
0
0
0
0
0
0
0
0
0
0
0
0
0
0
0
0
0
0
0
0
0
0
0
0
0
0
0
0
0
0
0
0
0
0
0
0
0
0
0
0
0
0
0
0
0
0
0
0
0
0
0
0
0
0
0
0
0
0
0
0
0
6
77
231
255
251
177
24
5
0
0
7
60
64
63
63
63
70
73
74
74
74
74
74
74
73
77
133
186
83
80
183
80
67
76
179
237
239
236
188
175
77
69
69
79
174
85
68
74
74
74
74
72
70
63
63
63
63
61
60
75
134
239
255
250
177
19
0
0
0
0
0
0
0
0
0
0
0
0
0
0
0
0
0
0
0
0
0
0
0
0
0
0
0
0
0
0
0
0
0
0
0
0
0
0
0
0
0
0
0
0
0
0
0
0
0
0
0
0
0
0
0
0
0
0
0
0
0
0
0
1
23
177
251
255
236
127
20
4
0
54
65
63
61
71
175
178
172
172
172
172
172
172
172
172
177
179
171
172
179
172
170
171
180
185
186
187
183
182
173
173
173
174
180
172
172
172
172
172
172
182
176
71
61
61
60
67
85
233
251
255
240
127
14
0
0
0
0
0
0
0
0
0
0
0
0
0
0
0
0
0
0
0
0
0
0
0
0
0
0
0
0
0
0
0
0
0
0
0
0
0
0
0
0
0
0
0
0
0
0
0
0
0
0
0
0
0
0
0
0
0
0
0
0
0
0
0
0
0
0
14
127
236
255
253
240
115
10
7
53
62
61
73
179
79
16
14
14
14
14
14
14
14
13
12
14
11
8
14
19
19
17
16
12
7
10
12
14
14
14
14
12
14
14
14
14
14
20
128
184
70
58
68
81
183
244
255
250
181
73
7
0
0
0
0
0
0
0
0
0
0
0
0
0
0
0
0
0
0
0
0
0
0
0
0
0
0
0
0
0
0
0
0
0
0
0
0
0
0
0
0
0
0
0
0
0
0
0
0
0
0
0
0
0
0
0
0
0
0
0
0
0
0
0
0
0
0
0
0
5
24
176
246
255
249
181
72
18
60
59
71
177
67
0
0
0
0
0
0
0
0
0
0
0
2
14
67
121
125
125
125
80
8
0
0
0
0
0
0
0
0
0
0
0
0
0
71
178
78
78
183
243
255
255
235
127
15
1
0
0
0
0
0
0
0
0
0
0
0
0
0
0
0
0
0
0
0
0
0
0
0
0
0
0
0
0
0
0
0
0
0
0
0
0
0
0
0
0
0
0
0
0
0
0
0
0
0
0
0
0
0
0
0
0
0
0
0
0
0
0
0
0
0
0
0
0
0
0
0
10
78
230
250
255
244
184
130
75
79
177
69
2
0
0
0
0
0
0
0
0
0
14
127
235
244
249
250
250
250
244
181
73
7
0
0
0
0
0
0
0
0
0
0
2
66
183
193
241
255
255
245
176
24
5
0
0
0
0
0
0
0
0
0
0
0
0
0
0
0
0
0
0
0
0
0
0
0
0
0
0
0
0
0
0
0
0
0
0
0
0
0
0
0
0
0
0
0
0
0
0
0
0
0
0
0
0
0
0
0
0
0
0
0
0
0
0
0
0
0
0
0
0
0
0
0
0
0
0
1
15
102
239
253
255
252
241
193
183
67
2
0
0
0
0
0
0
0
0
19
177
249
255
255
255
255
255
255
255
254
239
127
10
0
0
0
0
0
0
0
0
0
2
66
189
255
255
244
181
73
12
0
0
0
0
0
0
0
0
0
0
0
0
0
0
0
0
0
0
0
0
0
0
0
0
0
0
0
0
0
0
0
0
0
0
0
0
0
0
0
0
0
0
0
0
0
0
0
0
0
0
0
0
0
0
0
0
0
0
0
0
0
0
0
0
0
0
0
0
0
0
0
0
0
0
0
0
0
0
3
20
127
236
247
255
255
188
66
2
0
0
0
0
0
0
0
19
177
253
255
255
255
255
255
255
255
255
255
255
244
127
7
0
0
0
0
0
0
0
0
2
66
185
238
182
73
12
1
0
0
0
0
0
0
0
0
0
0
0
0
0
0
0
0
0
0
0
0
0
0
0
0
0
0
0
0
0
0
0
0
0
0
0
0
0
0
0
0
0
0
0
0
0
0
0
0
0
0
0
0
0
0
0
0
0
0
0
0
0
0
0
0
0
0
0
0
0
0
0
0
0
0
0
0
0
0
0
0
0
5
17
73
182
239
188
66
2
0
0
0
0
0
0
11
176
253
255
255
255
255
255
255
255
255
255
255
255
255
240
73
0
0
0
0
0
0
0
0
3
65
121
24
10
1
0
0
0
0
0
0
0
0
0
0
0
0
0
0
0
0
0
0
0
0
0
0
0
0
0
0
0
0
0
0
0
0
0
0
0
0
0
0
0
0
0
0
0
0
0
0
0
0
0
0
0
0
0
0
0
0
0
0
0
0
0
0
0
0
0
0
0
0
0
0
0
0
0
0
0
0
0
0
0
0
0
0
0
0
0
1
10
28
174
70
2
0
0
0
0
0
1
73
244
255
255
255
255
255
255
255
255
255
255
255
255
255
255
181
12
1
0
0
0
0
0
0
3
65
116
5
0
0
0
0
0
0
0
0
0
0
0
0
0
0
0
0
0
0
0
0
0
0
0
0
0
0
0
0
0
0
0
0
0
0
0
0
0
0
0
0
0
0
0
0
0
0
0
0
0
0
0
0
0
0
0
0
0
0
0
0
0
0
0
0
0
0
0
0
0
0
0
0
0
0
0
0
0
0
0
0
0
0
0
0
0
0
0
0
0
10
173
70
2
0
0
0
0
0
9
181
255
255
255
255
255
255
255
255
255
255
255
255
255
255
255
242
74
15
0
0
0
0
0
0
3
65
117
9
0
0
0
0
0
0
0
0
0
0
0
0
0
0
0
0
0
0
0
0
0
0
0
0
0
0
0
0
0
0
0
0
0
0
0
0
0
0
0
0
0
0
0
0
0
0
0
0
0
0
0
0
0
0
0
0
0
0
0
0
0
0
0
0
0
0
0
0
0
0
0
0
0
0
0
0
0
0
0
0
0
0
0
0
0
0
0
0
0
14
173
70
2
0
0
0
0
0
18
239
255
255
255
255
255
255
255
255
255
255
255
255
255
255
255
249
135
33
0
0
0
0
0
0
3
65
117
9
0
0
0
0
0
0
0
0
0
0
0
0
0
0
0
0
0
0
0
0
0
0
0
0
0
0
0
0
0
0
0
0
0
0
0
0
0
0
0
0
0
0
0
0
0
0
0
0
0
0
0
0
0
0
0
0
0
0
0
0
0
0
0
0
0
0
0
0
0
0
0
0
0
0
0
0
0
0
0
0
0
0
0
0
0
0
0
0
0
14
173
70
2
0
0
0
4
4
68
245
255
255
255
255
255
255
255
255
255
255
255
255
255
255
255
253
198
56
3
4
0
0
0
0
3
65
117
9
0
0
0
0
0
0
0
0
0
0
0
0
0
0
0
0
0
0
0
0
0
0
0
0
0
0
0
0
0
0
0
0
0
0
0
0
0
0
0
0
0
0
0
0
0
0
0
0
0
0
0
0
0
0
0
0
0
0
0
0
0
0
0
0
0
0
0
0
0
0
0
0
0
0
0
0
0
0
0
0
0
0
0
0
0
0
0
0
0
14
173
70
2
0
0
4
55
57
76
243
255
255
255
255
255
255
255
255
255
255
255
255
255
255
255
255
249
112
53
55
3
0
0
0
3
65
117
9
0
0
0
0
0
0
0
0
0
0
0
0
0
0
0
0
0
0
0
0
0
0
0
0
0
0
0
0
0
0
0
0
0
0
0
0
0
0
0
0
0
0
0
0
0
0
0
0
0
0
0
0
0
0
0
0
0
0
0
0
0
0
0
0
0
0
0
0
0
0
0
0
0
0
0
0
0
0
0
0
0
0
0
0
0
0
0
0
0
14
173
70
2
0
0
3
60
62
75
244
255
255
255
255
255
255
255
255
255
255
255
255
255
255
255
252
202
101
59
60
7
0
0
0
3
65
117
9
0
0
0
0
0
0
0
0
0
0
0
0
0
0
0
0
0
0
0
0
0
0
0
0
0
0
0
0
0
0
0
0
0
0
0
0
0
0
0
0
0
0
0
0
0
0
0
0
0
0
0
0
0
0
0
0
0
0
0
0
0
0
0
0
0
0
0
0
0
0
0
0
0
0
0
0
0
0
0
0
0
0
0
0
0
0
0
0
0
14
173
70
2
0
0
7
59
61
75
242
255
255
255
255
255
255
255
255
255
255
255
255
255
255
255
253
192
97
57
64
56
3
0
0
3
65
117
9
0
0
0
0
0
0
0
0
0
0
0
0
0
0
0
0
0
0
0
0
0
0
0
0
0
0
0
0
0
0
0
0
0
0
0
0
0
0
0
0
0
0
0
0
0
0
0
0
0
0
0
0
0
0
0
0
0
0
0
0
0
0
0
0
0
0
0
0
0
0
0
0
0
0
0
0
0
0
0
0
0
0
0
0
0
0
0
0
0
14
173
70
2
0
4
56
64
61
70
184
254
255
255
255
255
255
255
255
255
255
255
255
255
255
255
246
135
79
60
64
60
7
0
0
3
65
117
9
0
0
0
0
0
0
0
0
0
0
0
0
0
0
0
0
0
0
0
0
0
0
0
0
0
0
0
0
0
0
0
0
0
0
0
0
0
0
0
0
0
0
0
0
0
0
0
0
0
0
0
0
0
0
0
0
0
0
0
0
0
0
0
0
0
0
0
0
0
0
0
0
0
0
0
0
0
0
0
0
0
0
0
0
0
0
0
0
0
14
173
70
2
0
3
60
64
63
61
81
242
255
255
255
255
255
255
255
255
255
255
255
255
255
255
188
73
62
63
63
64
56
4
0
3
65
117
9
0
0
0
0
0
0
0
0
0
0
0
0
0
0
0
0
0
0
0
0
0
0
0
0
0
0
0
0
0
0
0
0
0
0
0
0
0
0
0
0
0
0
0
0
0
0
0
0
0
0
0
0
0
0
0
0
0
0
0
0
0
0
0
0
0
0
0
0
0
0
0
0
0
0
0
0
0
0
0
0
0
0
0
0
0
0
0
0
0
14
173
70
2
0
7
59
64
63
61
68
183
249
255
255
255
255
255
255
255
255
255
255
255
255
241
129
64
62
63
63
64
60
4
0
3
65
117
9
0
0
0
0
0
0
0
0
0
0
0
0
0
0
0
0
0
0
0
0
0
0
0
0
0
0
0
0
0
0
0
0
0
0
0
0
0
0
0
0
0
0
0
0
0
0
0
0
0
0
0
0
0
0
0
0
0
0
0
0
0
0
0
0
0
0
0
0
0
0
0
0
0
0
0
0
0
0
0
0
0
0
0
0
0
0
0
0
0
14
173
70
0
3
56
64
63
63
63
61
76
191
253
255
255
255
255
255
255
255
255
255
255
248
138
68
62
63
63
63
64
59
4
0
3
65
117
9
0
0
0
0
0
0
0
0
0
0
0
0
0
0
0
0
0
0
0
0
0
0
0
0
0
0
0
0
0
0
0
0
0
0
0
0
0
0
0
0
0
