P2
# CREATOR: GIMP PNM Filter Version 1.1
128 32
255
0
0
0
0
0
0
0
0
0
0
0
0
0
0
0
0
0
0
0
0
0
0
0
0
0
10
184
249
133
11
113
181
238
238
180
118
65
62
63
63
63
63
63
63
64
59
7
0
0
0
0
0
0
0
0
0
0
0
0
0
0
0
0
0
0
0
0
0
0
0
0
8
119
129
127
127
127
127
127
127
127
127
127
127
126
131
187
184
12
0
20
240
255
255
255
255
255
255
255
255
255
255
255
246
151
244
184
10
0
0
0
0
0
0
0
0
0
0
0
0
0
0
0
0
0
0
0
0
0
0
0
0
0
0
0
0
0
0
0
0
0
0
0
0
0
0
0
0
0
0
0
0
0
5
124
254
235
16
7
12
15
15
11
15
60
64
63
63
63
63
63
63
63
64
56
11
0
0
0
0
0
0
0
0
0
0
0
0
0
0
0
0
0
0
0
0
0
0
0
8
119
129
127
127
127
127
127
127
127
127
127
127
127
125
141
229
15
2
127
249
255
255
255
255
255
255
255
255
255
255
255
254
248
249
124
5
0
0
0
0
0
0
0
0
0
0
0
0
0
0
0
0
0
0
0
0
0
0
0
0
0
0
0
0
0
0
0
0
0
0
0
0
0
0
0
0
0
0
0
0
0
0
21
242
251
73
0
0
0
0
4
54
64
63
63
63
63
63
63
63
63
62
69
106
15
1
0
0
0
0
0
0
0
0
0
0
0
0
0
0
0
0
0
0
0
0
0
8
119
129
127
127
127
127
127
127
127
127
127
127
127
125
141
233
13
9
235
255
255
255
255
255
255
255
255
255
255
255
255
255
255
239
21
0
0
0
0
0
0
0
0
0
0
0
0
0
0
0
0
0
0
0
0
0
0
0
0
0
0
0
0
0
0
0
0
0
0
0
0
0
0
0
0
0
0
0
0
0
0
0
8
182
255
182
7
0
0
4
56
65
63
63
63
63
63
63
63
63
63
63
63
74
109
7
0
0
0
0
0
0
0
0
0
0
0
0
0
0
0
0
0
0
0
0
0
8
119
129
127
127
127
127
127
127
127
127
127
127
126
130
191
239
13
14
242
255
255
255
255
255
255
255
255
255
255
255
255
255
254
180
8
0
0
0
0
0
0
0
0
0
0
0
0
0
0
0
0
0
0
0
0
0
0
0
0
0
0
0
0
0
0
0
0
0
0
0
0
0
0
0
0
0
0
0
0
0
0
0
1
73
247
242
24
0
0
4
60
64
63
63
63
63
63
63
63
63
63
63
62
68
117
12
0
0
0
0
0
0
0
0
0
0
0
0
0
0
0
0
0
0
0
0
0
8
120
129
127
127
127
127
127
127
127
127
127
127
126
129
199
232
16
64
244
255
255
255
255
255
255
255
255
255
255
255
255
255
247
74
1
0
0
0
0
0
0
0
0
0
0
0
0
0
0
0
0
0
0
0
0
0
0
0
0
0
0
0
0
0
0
0
0
0
0
0
0
0
0
0
0
0
0
0
0
0
0
0
0
11
182
255
178
11
0
4
59
64
63
63
63
63
63
63
63
63
63
63
62
68
120
64
3
0
0
0
0
0
0
0
0
0
0
0
0
0
0
0
0
0
0
0
0
5
115
129
127
127
127
127
127
127
127
127
127
127
124
139
241
128
6
67
244
255
255
255
255
255
255
255
255
255
255
251
255
255
231
16
0
0
0
0
0
0
0
0
0
0
0
0
0
0
0
0
0
0
0
0
0
0
0
0
0
0
0
0
0
0
0
0
0
0
0
0
0
0
0
0
0
0
0
0
0
0
0
0
0
0
73
248
248
73
0
3
59
64
63
63
63
63
63
63
63
63
63
63
62
67
125
118
8
0
0
0
0
0
0
0
0
0
0
0
0
0
0
0
0
0
9
14
15
13
71
123
127
127
127
127
127
127
127
127
127
126
135
197
233
21
0
18
242
255
255
255
255
255
255
255
255
255
252
206
253
249
78
0
0
0
0
0
0
0
0
0
0
0
0
0
0
0
0
0
0
0
0
0
0
0
0
0
0
0
0
0
0
0
0
0
0
0
0
0
0
0
0
0
0
0
0
0
0
0
0
0
0
0
11
178
255
182
13
0
59
64
63
63
63
63
63
63
63
63
63
63
62
67
124
122
7
0
4
4
4
4
4
4
0
0
0
0
0
0
0
0
9
16
105
155
167
115
119
133
133
126
127
127
127
127
127
127
127
131
186
238
131
3
0
13
235
255
255
255
255
255
255
255
255
255
250
250
255
231
15
0
0
0
0
0
0
0
0
0
0
0
0
0
0
0
0
0
0
0
0
0
0
0
0
0
0
0
0
0
0
0
0
0
0
0
0
0
0
0
0
0
0
0
0
0
0
0
0
0
0
0
0
24
238
253
126
10
57
64
63
63
63
63
63
63
63
63
63
63
62
67
128
117
10
6
56
60
59
59
60
56
7
3
0
0
0
0
0
20
108
108
16
14
15
12
68
170
179
136
127
127
126
125
128
128
123
123
129
129
65
7
4
9
126
251
255
255
255
255
255
255
255
251
206
254
246
78
0
0
0
0
0
0
0
0
0
0
0
0
0
0
0
0
0
0
0
0
0
0
0
0
0
0
0
0
0
0
0
0
0
0
0
0
0
0
0
0
0
0
0
0
0
0
0
0
0
0
0
0
0
2
127
253
241
77
58
63
63
63
63
63
63
63
63
63
63
63
61
71
174
76
58
59
64
64
64
64
64
64
60
56
7
0
0
0
25
149
23
9
0
0
0
0
3
14
72
175
147
127
134
137
125
119
70
66
66
65
62
59
60
52
26
233
255
255
255
255
255
255
255
255
251
255
177
10
0
0
0
0
0
0
0
0
0
0
0
0
0
0
0
0
0
0
0
0
0
0
0
0
0
0
0
0
0
0
0
0
0
0
0
0
0
0
0
0
0
0
0
0
0
0
0
0
0
0
0
0
0
0
14
178
255
187
75
61
63
63
63
63
63
63
63
63
63
63
61
80
175
72
62
64
63
63
63
63
63
63
64
65
56
6
1
19
154
26
0
0
0
0
0
0
0
0
5
65
148
129
177
223
78
64
62
62
62
62
63
64
64
63
60
133
237
254
255
255
255
255
255
255
255
232
23
0
0
0
0
0
0
0
0
0
0
0
0
0
0
0
0
0
0
0
0
0
0
0
0
0
0
0
0
0
0
0
0
0
0
0
0
0
0
0
0
0
0
0
0
0
0
0
0
0
0
0
0
0
0
0
0
23
233
255
184
71
60
63
63
63
63
63
63
63
63
60
74
176
129
66
62
63
63
63
63
63
63
63
63
63
65
58
11
113
71
1
0
0
0
0
0
0
0
0
0
3
84
25
14
72
64
62
63
63
63
63
63
63
63
63
64
64
83
179
243
254
255
251
255
255
240
77
0
0
0
0
0
0
0
0
0
0
0
0
0
0
0
0
0
0
0
0
0
0
0
0
0
0
0
0
0
0
0
0
0
0
0
0
0
0
0
0
0
0
0
0
0
0
0
0
0
0
0
0
0
0
0
0
0
0
77
243
251
135
67
61
63
63
63
63
63
62
60
70
132
177
74
61
63
63
63
63
63
63
63
63
63
62
68
107
29
163
16
0
0
0
0
0
0
0
0
0
0
0
14
106
14
54
64
63
63
63
63
63
63
63
63
63
62
67
109
22
72
180
235
206
253
246
127
6
0
0
0
0
0
0
0
0
0
0
0
0
0
0
0
0
0
0
0
0
0
0
0
0
0
0
0
0
0
0
0
0
0
0
0
0
0
0
0
0
0
0
0
0
0
0
0
0
0
0
0
0
0
0
0
0
0
0
6
127
252
246
134
67
62
63
62
62
62
67
76
127
169
78
61
63
63
63
63
63
63
63
63
63
63
63
62
71
122
121
7
0
0
0
0
0
0
0
0
0
0
0
12
170
71
61
63
63
63
63
63
63
63
63
63
63
62
68
117
60
2
11
92
245
252
128
10
0
0
0
0
0
0
0
0
0
0
0
0
0
0
0
0
0
0
0
0
0
0
0
0
0
0
0
0
0
0
0
0
0
0
0
0
0
0
0
0
0
0
0
0
0
0
0
0
0
0
0
0
0
0
0
0
0
0
0
0
14
177
255
246
134
62
62
69
68
72
121
169
117
21
56
64
63
63
63
63
63
63
63
63
63
63
63
61
72
176
70
2
0
0
0
0
0
0
0
0
0
0
0
14
173
75
61
63
63
63
63
63
63
63
63
63
63
63
62
72
115
9
72
234
254
177
14
0
0
0
0
0
0
0
0
0
0
0
0
0
0
0
0
0
0
0
0
0
0
0
0
0
0
0
0
0
0
0
0
0
0
0
0
0
0
0
0
0
0
0
0
0
0
0
0
0
0
0
0
0
0
0
0
0
0
0
0
0
0
19
177
255
241
84
61
110
117
113
64
16
7
1
59
64
63
63
63
63
63
63
63
63
63
63
63
61
73
178
70
2
0
0
0
0
0
0
0
0
0
0
0
14
172
74
61
63
63
63
63
63
63
63
63
63
63
63
61
71
169
91
235
255
177
19
0
0
0
0
0
0
0
0
0
0
0
0
0
0
0
0
0
0
0
0
0
0
0
0
0
0
0
0
0
0
0
0
0
0
0
0
0
0
0
0
0
0
0
0
0
0
0
0
0
0
0
0
0
0
0
0
0
0
0
0
0
0
0
0
19
177
255
239
82
14
6
8
3
0
0
4
59
64
63
63
63
63
63
63
63
63
63
63
63
61
71
183
126
6
0
0
0
0
0
0
0
0
0
0
0
13
174
74
61
63
63
63
63
63
63
63
63
63
63
63
59
72
191
248
255
177
19
0
0
0
0
0
0
0
0
0
0
0
0
0
0
0
0
0
0
0
0
0
0
0
0
0
0
0
0
0
0
0
0
0
0
0
0
0
0
0
0
0
0
0
0
0
0
0
0
0
0
0
0
0
0
0
0
0
0
0
0
0
0
0
0
0
0
19
177
252
243
125
13
0
0
0
0
4
59
64
63
63
63
63
63
63
63
63
63
63
63
61
73
184
177
13
0
0
0
0
0
0
0
0
0
0
0
17
166
73
61
63
63
63
63
63
63
63
63
63
62
59
71
135
249
252
177
19
0
0
0
0
0
0
0
0
0
0
0
0
0
0
0
0
0
0
0
0
0
0
0
0
0
0
0
0
0
0
0
0
0
0
0
0
0
0
0
0
0
0
0
0
0
0
0
0
0
0
0
0
0
0
0
0
0
0
0
0
0
0
0
0
0
0
0
0
14
127
245
253
188
61
1
0
0
4
60
64
63
63
63
61
61
61
61
61
61
61
60
65
123
127
123
67
5
2
6
11
15
17
11
2
1
1
3
86
76
60
61
61
61
61
62
63
63
63
63
61
63
80
184
251
247
127
14
0
0
0
0
0
0
0
0
0
0
0
0
0
0
0
0
0
0
0
0
0
0
0
0
0
0
0
0
0
0
0
0
0
0
0
0
0
0
0
0
0
0
0
0
0
0
0
0
0
0
0
0
0
0
0
0
0
0
0
0
0
0
0
0
0
0
0
0
0
0
5
78
233
255
237
78
10
0
2
56
65
63
63
63
70
74
74
74
74
74
74
72
83
178
84
84
174
78
71
126
180
225
239
179
76
69
69
72
151
84
72
74
74
74
71
65
63
63
62
59
71
134
239
255
242
127
10
0
0
0
0
0
0
0
0
0
0
0
0
0
0
0
0
0
0
0
0
0
0
0
0
0
0
0
0
0
0
0
0
0
0
0
0
0
0
0
0
0
0
0
0
0
0
0
0
0
0
0
0
0
0
0
0
0
0
0
0
0
0
0
0
0
0
0
0
0
0
0
0
1
28
227
250
247
177
24
6
3
54
64
61
71
175
174
172
172
172
172
172
172
172
179
171
171
178
170
168
173
179
184
188
182
173
173
173
173
178
173
172
172
172
173
183
97
56
60
63
80
184
250
255
232
77
6
0
0
0
0
0
0
0
0
0
0
0
0
0
0
0
0
0
0
0
0
0
0
0
0
0
0
0
0
0
0
0
0
0
0
0
0
0
0
0
0
0
0
0
0
0
0
0
0
0
0
0
0
0
0
0
0
0
0
0
0
0
0
0
0
0
0
0
0
0
0
0
0
0
0
0
14
103
246
253
238
127
18
11
56
59
73
175
27
14
14
14
14
14
14
14
12
11
10
17
24
29
28
23
17
6
9
14
14
14
14
12
14
14
14
14
26
183
100
58
76
134
241
255
246
176
23
1
0
0
0
0
0
0
0
0
0
0
0
0
0
0
0
0
0
0
0
0
0
0
0
0
0
0
0
0
0
0
0
0
0
0
0
0
0
0
0
0
0
0
0
0
0
0
0
0
0
0
0
0
0
0
0
0
0
0
0
0
0
0
0
0
0
0
0
0
0
0
0
0
0
0
0
0
0
5
73
182
247
253
237
130
76
67
76
172
11
0
0
0
0
0
0
0
0
2
18
119
182
234
234
185
132
16
2
0
0
0
0
0
0
0
0
0
10
179
112
129
240
252
248
231
78
10
0
0
0
0
0
0
0
0
0
0
0
0
0
0
0
0
0
0
0
0
0
0
0
0
0
0
0
0
0
0
0
0
0
0
0
0
0
0
0
0
0
0
0
0
0
0
0
0
0
0
0
0
0
0
0
0
0
0
0
0
0
0
0
0
0
0
0
0
0
0
0
0
0
0
0
0
0
0
0
0
1
10
78
232
249
253
244
187
140
174
13
0
0
0
0
0
0
0
10
127
235
249
255
255
255
255
250
235
127
10
0
0
0
0
0
0
0
0
11
179
235
253
252
232
78
15
1
0
0
0
0
0
0
0
0
0
0
0
0
0
0
0
0
0
0
0
0
0
0
0
0
0
0
0
0
0
0
0
0
0
0
0
0
0
0
0
0
0
0
0
0
0
0
0
0
0
0
0
0
0
0
0
0
0
0
0
0
0
0
0
0
0
0
0
0
0
0
0
0
0
0
0
0
0
0
0
0
0
0
0
1
15
78
232
248
253
251
183
10
0
0
0
0
0
0
10
127
244
255
255
255
255
255
255
255
255
244
127
10
0
0
0
0
0
0
0
11
179
236
239
127
19
1
0
0
0
0
0
0
0
0
0
0
0
0
0
0
0
0
0
0
0
0
0
0
0
0
0
0
0
0
0
0
0
0
0
0
0
0
0
0
0
0
0
0
0
0
0
0
0
0
0
0
0
0
0
0
0
0
0
0
0
0
0
0
0
0
0
0
0
0
0
0
0
0
0
0
0
0
0
0
0
0
0
0
0
0
0
0
0
1
16
74
183
244
183
10
0
0
0
0
0
4
126
244
255
255
255
255
255
255
255
255
255
255
244
126
4
0
0
0
0
0
0
13
181
107
15
5
0
0
0
0
0
0
0
0
0
0
0
0
0
0
0
0
0
0
0
0
0
0
0
0
0
0
0
0
0
0
0
0
0
0
0
0
0
0
0
0
0
0
0
0
0
0
0
0
0
0
0
0
0
0
0
0
0
0
0
0
0
0
0
0
0
0
0
0
0
0
0
0
0
0
0
0
0
0
0
0
0
0
0
0
0
0
0
0
0
0
0
1
12
81
174
14
0
0
0
0
0
17
235
255
255
255
255
255
255
255
255
255
255
255
255
235
17
0
0
0
0
0
0
13
181
95
0
0
0
0
0
0
0
0
0
0
0
0
0
0
0
0
0
0
0
0
0
0
0
0
0
0
0
0
0
0
0
0
0
0
0
0
0
0
0
0
0
0
0
0
0
0
0
0
0
0
0
0
0
0
0
0
0
0
0
0
0
0
0
0
0
0
0
0
0
0
0
0
0
0
0
0
0
0
0
0
0
0
0
0
0
0
0
0
0
0
0
0
0
0
0
67
173
14
0
0
0
0
0
70
246
255
255
255
255
255
255
255
255
255
255
255
255
246
70
0
0
0
0
0
0
13
181
98
0
0
0
0
0
0
0
0
0
0
0
0
0
0
0
0
0
0
0
0
0
0
0
0
0
0
0
0
0
0
0
0
0
0
0
0
0
0
0
0
0
0
0
0
0
0
0
0
0
0
0
0
0
0
0
0
0
0
0
0
0
0
0
0
0
0
0
0
0
0
0
0
0
0
0
0
0
0
0
0
0
0
0
0
0
0
0
0
0
0
0
0
0
0
2
70
173
14
0
0
0
3
9
128
249
255
255
255
255
255
255
255
255
255
255
255
255
249
128
9
3
0
0
0
0
13
181
98
0
0
0
0
0
0
0
0
0
0
0
0
0
0
0
0
0
0
0
0
0
0
0
0
0
0
0
0
0
0
0
0
0
0
0
0
0
0
0
0
0
0
0
0
0
0
0
0
0
0
0
0
0
0
0
0
0
0
0
0
0
0
0
0
0
0
0
0
0
0
0
0
0
0
0
0
0
0
0
0
0
0
0
0
0
0
0
0
0
0
0
0
0
0
2
70
173
14
0
0
4
54
67
185
253
255
255
255
255
255
255
255
255
255
255
255
255
253
185
67
54
7
0
0
0
13
181
98
0
0
0
0
0
0
0
0
0
0
0
0
0
0
0
0
0
0
0
0
0
0
0
0
0
0
0
0
0
0
0
0
0
0
0
0
0
0
0
0
0
0
0
0
0
0
0
0
0
0
0
0
0
0
0
0
0
0
0
0
0
0
0
0
0
0
0
0
0
0
0
0
0
0
0
0
0
0
0
0
0
0
0
0
0
0
0
0
0
0
0
0
0
0
2
70
173
14
0
0
4
58
72
185
253
255
255
255
255
255
255
255
255
255
255
255
255
253
185
71
63
56
4
0
0
13
181
98
0
0
0
0
0
0
0
0
0
0
0
0
0
0
0
0
0
0
0
0
0
0
0
0
0
0
0
0
0
0
0
0
0
0
0
0
0
0
0
0
0
0
0
0
0
0
0
0
0
0
0
0
0
0
0
0
0
0
0
0
0
0
0
0
0
0
0
0
0
0
0
0
0
0
0
0
0
0
0
0
0
0
0
0
0
0
0
0
0
0
0
0
0
0
2
70
173
14
0
0
4
58
66
134
248
255
255
255
255
255
255
255
255
255
255
255
255
248
134
65
63
60
4
0
0
13
181
98
0
0
0
0
0
0
0
0
0
0
0
0
0
0
0
0
0
0
0
0
0
0
0
0
0
0
0
0
0
0
0
0
0
0
0
0
0
0
0
0
0
0
0
0
