P2
# CREATOR: GIMP PNM Filter Version 1.1
128 32
255
0
0
0
0
0
0
0
0
0
0
0
0
0
0
0
0
0
0
0
0
0
0
0
0
15
241
255
255
255
255
255
255
255
255
255
255
255
255
255
250
120
5
0
0
0
0
0
0
0
0
0
0
0
0
0
0
0
0
0
0
0
0
0
0
0
0
0
0
0
0
0
0
0
0
0
0
3
63
124
128
127
127
127
127
127
127
127
127
127
127
126
131
193
179
11
0
0
0
0
0
0
0
0
0
0
17
244
245
15
0
0
0
0
0
0
0
0
0
0
0
0
0
0
0
0
0
0
0
0
0
0
0
0
0
0
0
0
0
0
0
0
0
0
0
0
0
0
0
0
0
0
0
15
239
255
255
255
255
255
255
255
255
255
255
255
255
255
236
21
0
0
0
0
0
0
0
0
0
0
0
0
0
0
0
0
0
0
0
0
0
0
0
0
0
0
0
0
0
0
0
0
0
0
0
0
63
124
128
127
127
127
127
127
127
127
127
127
127
125
136
238
126
6
10
15
15
15
10
1
0
0
0
0
69
249
242
15
0
0
0
0
0
0
0
0
0
0
0
0
0
0
0
0
0
0
0
0
0
0
0
0
0
0
0
0
0
0
0
0
0
0
0
0
0
0
0
0
0
0
0
10
181
253
255
255
255
255
255
255
255
255
255
255
255
248
127
3
0
0
0
0
0
0
0
0
0
0
0
0
0
0
0
4
4
4
4
4
4
4
4
0
0
0
0
0
0
0
8
15
15
15
15
17
64
123
128
127
127
127
127
127
127
127
127
127
127
124
140
238
88
74
180
238
240
238
181
73
12
0
0
5
132
249
183
10
0
0
0
0
0
0
0
0
0
0
0
0
0
0
0
0
0
0
0
0
0
0
0
0
0
0
0
0
0
0
0
0
0
0
0
0
0
0
0
0
0
0
0
1
73
245
255
249
255
255
255
255
255
255
255
255
248
175
13
0
0
0
0
0
0
0
0
0
0
0
0
0
0
3
7
56
60
59
59
59
59
60
56
7
3
0
0
0
3
20
113
166
169
168
170
160
75
128
128
127
127
127
127
127
127
127
127
127
125
132
191
251
243
245
254
255
255
255
254
244
176
23
0
12
237
250
74
1
0
0
0
0
0
0
0
0
0
0
0
0
0
0
0
0
0
0
0
0
0
0
0
0
0
0
0
0
0
0
0
0
0
0
0
0
0
0
0
0
0
0
0
0
16
240
249
147
231
249
255
255
255
255
249
238
131
18
2
4
4
4
4
4
3
0
0
0
0
0
0
0
7
56
60
64
64
64
64
64
64
64
64
60
56
6
0
3
57
159
70
17
15
15
15
16
65
166
138
126
127
127
127
127
127
127
127
125
132
191
249
255
255
255
255
255
255
255
255
255
254
227
24
18
246
242
16
0
0
0
0
0
0
0
0
0
0
0
0
0
0
0
0
0
0
0
0
0
0
0
0
0
0
0
0
0
0
0
0
0
0
0
0
0
0
0
0
0
0
0
0
0
9
188
249
132
25
121
185
238
238
184
125
76
64
56
59
59
59
59
59
60
56
7
0
0
0
0
0
3
56
65
64
63
63
63
63
63
63
63
63
64
65
58
4
62
97
24
3
0
0
0
0
0
4
23
164
138
127
126
126
126
126
125
124
134
194
250
255
255
255
255
255
255
255
255
255
255
255
255
232
143
244
188
9
0
0
0
0
0
0
0
0
0
0
0
0
0
0
0
0
0
0
0
0
0
0
0
0
0
0
0
0
0
0
0
0
0
0
0
0
0
0
0
0
0
0
0
0
0
5
123
254
235
12
5
11
15
15
10
12
57
63
64
64
64
64
64
64
64
65
56
11
0
0
0
0
7
60
64
63
63
63
63
63
63
63
63
63
62
69
113
27
109
40
0
0
0
0
0
0
0
0
0
23
168
132
133
134
133
133
137
142
190
240
255
255
255
255
255
255
255
255
255
255
255
255
255
255
251
249
123
5
0
0
0
0
0
0
0
0
0
0
0
0
0
0
0
0
0
0
0
0
0
0
0
0
0
0
0
0
0
0
0
0
0
0
0
0
0
0
0
0
0
0
0
0
0
0
21
242
251
73
0
0
0
0
4
54
64
63
63
63
63
63
63
63
63
62
69
106
15
1
0
4
56
64
63
63
63
63
63
63
63
63
63
63
62
66
126
168
21
1
0
0
0
0
0
0
0
0
0
1
67
131
174
176
179
184
234
232
174
87
242
255
255
255
255
255
255
255
255
255
255
255
255
255
255
239
21
0
0
0
0
0
0
0
0
0
0
0
0
0
0
0
0
0
0
0
0
0
0
0
0
0
0
0
0
0
0
0
0
0
0
0
0
0
0
0
0
0
0
0
0
0
0
0
8
182
255
182
7
0
0
4
56
65
63
63
63
63
63
63
63
63
63
63
63
74
109
7
0
4
60
64
63
63
63
63
63
63
63
63
63
63
63
62
81
173
12
0
0
0
0
0
0
0
0
0
0
0
16
165
26
13
64
70
69
21
11
19
240
255
255
255
255
255
255
255
255
255
255
255
255
255
254
180
8
0
0
0
0
0
0
0
0
0
0
0
0
0
0
0
0
0
0
0
0
0
0
0
0
0
0
0
0
0
0
0
0
0
0
0
0
0
0
0
0
0
0
0
0
0
0
0
1
73
247
242
24
0
0
4
60
64
63
63
63
63
63
63
63
63
63
63
62
68
117
12
0
4
59
64
63
63
63
63
63
63
63
63
63
63
62
67
121
120
8
0
0
0
0
0
0
0
0
0
0
0
14
169
12
0
1
2
0
0
0
67
244
255
255
255
255
255
255
255
255
255
255
255
255
255
247
74
1
0
0
0
0
0
0
0
0
0
0
0
0
0
0
0
0
0
0
0
0
0
0
0
0
0
0
0
0
0
0
0
0
0
0
0
0
0
0
0
0
0
0
0
0
0
0
0
0
11
182
255
178
11
0
4
59
64
63
63
63
63
63
63
63
63
63
63
62
68
120
64
2
3
59
64
63
63
63
63
63
63
63
63
63
63
62
68
121
65
3
0
0
0
0
0
0
0
0
0
0
0
15
168
15
0
0
0
0
0
0
69
244
255
255
255
255
255
255
255
255
255
255
251
255
255
231
16
0
0
0
0
0
0
0
0
0
0
0
0
0
0
0
0
0
0
0
0
0
0
0
0
0
0
0
0
0
0
0
0
0
0
0
0
0
0
0
0
0
0
0
0
0
0
0
0
0
0
73
248
248
73
0
3
59
64
63
63
63
63
63
63
63
63
63
63
62
67
125
118
7
2
59
64
63
63
63
63
63
63
63
63
63
63
62
68
119
65
3
0
0
0
0
0
0
0
0
0
0
0
14
169
15
0
0
0
0
0
0
19
242
255
255
255
255
255
255
255
255
255
252
206
253
249
78
0
0
0
0
0
0
0
0
0
0
0
0
0
0
0
0
0
0
0
0
0
0
0
0
0
0
0
0
0
0
0
0
0
0
0
0
0
0
0
0
0
0
0
0
0
0
0
0
0
0
0
11
178
255
182
13
0
59
64
63
63
63
63
63
63
63
63
63
63
62
67
124
122
7
2
60
64
63
63
63
63
63
63
63
63
63
63
62
66
129
122
6
0
0
0
0
0
0
0
0
0
0
0
16
166
14
0
0
0
0
0
0
13
235
255
255
255
255
255
255
255
255
255
250
250
255
231
15
0
0
0
0
0
0
0
0
0
0
0
0
0
0
0
0
0
0
0
0
0
0
0
0
0
0
0
0
0
0
0
0
0
0
0
0
0
0
0
0
0
0
0
0
0
0
0
0
0
0
0
0
24
238
253
126
10
57
64
63
63
63
63
63
63
63
63
63
63
62
67
128
118
7
2
56
64
63
63
63
63
63
63
63
63
63
63
60
73
185
174
19
2
0
0
0
0
0
0
0
0
0
2
69
118
12
4
4
4
4
4
4
9
126
251
255
255
255
255
255
255
255
251
206
254
246
78
0
0
0
0
0
0
0
0
0
0
0
0
0
0
0
0
0
0
0
0
0
0
0
0
0
0
0
0
0
0
0
0
0
0
0
0
0
0
0
0
0
0
0
0
0
0
0
0
0
0
0
0
0
2
127
253
241
77
58
63
63
63
63
63
63
63
63
63
63
63
61
71
174
68
0
0
4
58
64
63
63
63
63
63
63
63
63
61
69
131
175
81
117
37
0
0
0
0
0
0
0
0
0
20
165
75
58
59
59
59
59
59
60
52
26
233
255
255
255
255
255
255
255
255
251
255
177
10
0
0
0
0
0
0
0
0
0
0
0
0
0
0
0
0
0
0
0
0
0
0
0
0
0
0
0
0
0
0
0
0
0
0
0
0
0
0
0
0
0
0
0
0
0
0
0
0
0
0
0
0
0
0
14
178
255
187
75
61
63
63
63
63
63
63
63
63
63
63
61
79
169
20
10
15
18
65
63
61
62
63
63
63
63
62
60
70
132
174
69
12
114
78
8
0
0
0
0
0
0
0
15
115
126
66
63
64
64
64
64
64
64
63
60
133
237
254
255
255
255
255
255
255
255
232
23
0
0
0
0
0
0
0
0
0
0
0
0
0
0
0
0
0
0
0
0
0
0
0
0
0
0
0
0
0
0
0
0
0
0
0
0
0
0
0
0
0
0
0
0
0
0
0
0
0
0
0
0
0
0
0
0
23
233
255
184
71
60
63
63
63
63
63
63
63
63
60
73
182
138
66
111
166
166
116
72
73
66
63
62
62
62
67
76
127
169
71
1
0
11
92
119
19
7
3
4
4
8
17
110
123
69
62
63
63
63
63
63
63
63
63
64
64
83
179
243
254
255
251
255
255
240
77
0
0
0
0
0
0
0
0
0
0
0
0
0
0
0
0
0
0
0
0
0
0
0
0
0
0
0
0
0
0
0
0
0
0
0
0
0
0
0
0
0
0
0
0
0
0
0
0
0
0
0
0
0
0
0
0
0
0
77
243
251
135
67
61
63
63
63
63
63
62
60
67
138
236
174
63
12
15
15
15
113
169
129
65
67
68
72
121
169
118
16
5
13
13
54
70
127
174
127
66
58
60
98
111
72
66
62
63
63
63
63
63
63
63
63
63
62
67
109
22
72
180
235
206
253
246
127
6
0
0
0
0
0
0
0
0
0
0
0
0
0
0
0
0
0
0
0
0
0
0
0
0
0
0
0
0
0
0
0
0
0
0
0
0
0
0
0
0
0
0
0
0
0
0
0
0
0
0
0
0
0
0
0
0
0
0
6
127
252
246
134
67
62
63
62
62
62
67
75
139
224
80
13
4
0
0
0
0
9
26
160
85
109
117
113
64
16
6
7
68
161
114
63
57
66
127
174
127
66
58
23
11
59
63
63
63
63
63
63
63
63
63
63
63
62
68
117
60
2
11
92
245
252
128
10
0
0
0
0
0
0
0
0
0
0
0
0
0
0
0
0
0
0
0
0
0
0
0
0
0
0
0
0
0
0
0
0
0
0
0
0
0
0
0
0
0
0
0
0
0
0
0
0
0
0
0
0
0
0
0
0
0
0
0
0
14
177
255
246
134
62
62
69
68
71
119
180
231
80
1
0
0
0
0
0
0
0
0
25
157
28
9
9
3
0
12
112
113
21
10
4
4
3
7
20
112
70
9
0
1
59
64
63
63
63
63
63
63
63
63
63
63
63
62
72
115
9
72
234
254
177
14
0
0
0
0
0
0
0
0
0
0
0
0
0
0
0
0
0
0
0
0
0
0
0
0
0
0
0
0
0
0
0
0
0
0
0
0
0
0
0
0
0
0
0
0
0
0
0
0
0
0
0
0
0
0
0
0
0
0
0
0
0
0
19
177
255
241
84
61
110
117
112
67
80
118
9
0
0
0
0
0
0
0
0
0
1
70
113
7
0
0
10
112
67
11
0
0
0
0
0
0
0
15
107
73
16
1
59
64
63
63
63
63
63
63
63
63
63
63
63
61
71
169
91
235
255
177
19
0
0
0
0
0
0
0
0
0
0
0
0
0
0
0
0
0
0
0
0
0
0
0
0
0
0
0
0
0
0
0
0
0
0
0
0
0
0
0
0
0
0
0
0
0
0
0
0
0
0
0
0
0
0
0
0
0
0
0
0
0
0
0
0
19
177
255
239
82
14
6
8
13
110
14
0
0
0
0
0
0
0
0
0
0
0
16
164
14
0
4
69
113
11
0
0
0
0
0
0
0
0
0
20
168
56
1
59
64
63
63
63
63
63
63
63
63
63
63
63
59
72
191
248
255
177
19
0
0
0
0
0
0
0
0
0
0
0
0
0
0
0
0
0
0
0
0
0
0
0
0
0
0
0
0
0
0
0
0
0
0
0
0
0
0
0
0
0
0
0
0
0
0
0
0
0
0
0
0
0
0
0
0
0
0
0
0
0
0
0
0
0
0
19
177
252
243
125
13
0
12
165
13
0
0
0
0
0
0
0
0
0
0
0
8
112
12
0
13
159
20
0
0
0
0
0
0
0
0
0
0
1
65
100
13
57
64
63
63
63
63
63
63
63
63
63
62
59
71
135
249
252
177
19
0
0
0
0
0
0
0
0
0
0
0
0
0
0
0
0
0
0
0
0
0
0
0
0
0
0
0
0
0
0
0
0
0
0
0
0
0
0
0
0
0
0
0
0
0
0
0
0
0
0
0
0
0
0
0
0
0
0
0
0
0
0
0
0
0
0
0
0
14
127
245
253
188
57
9
169
15
0
0
0
0
0
0
1
2
2
2
1
6
65
60
4
11
116
10
1
2
2
2
2
2
2
2
2
2
1
5
125
25
54
62
61
61
61
62
63
63
63
63
61
63
80
184
251
247
127
14
0
0
0
0
0
0
0
0
0
0
0
0
0
0
0
0
0
0
0
0
0
0
0
0
0
0
0
0
0
0
0
0
0
0
0
0
0
0
0
0
0
0
0
0
0
0
0
0
0
0
0
0
0
0
0
0
0
0
0
0
0
0
0
0
0
0
0
0
0
0
5
78
233
255
234
91
168
10
0
0
0
0
0
8
63
71
70
70
69
74
127
128
73
74
125
75
69
70
70
70
70
70
70
70
70
70
69
71
152
83
72
74
74
74
71
65
63
63
62
59
71
134
239
255
242
127
10
0
0
0
0
0
0
0
0
0
0
0
0
0
0
0
0
0
0
0
0
0
0
0
0
0
0
0
0
0
0
0
0
0
0
0
0
0
0
0
0
0
0
0
0
0
0
0
0
0
0
0
0
0
0
0
0
0
0
0
0
0
0
0
0
0
0
0
0
0
0
0
0
1
28
227
250
248
188
25
5
0
0
0
2
63
177
175
173
173
173
173
177
177
173
173
175
173
173
173
173
173
173
173
173
173
173
173
173
173
177
173
172
172
172
173
183
97
56
60
63
80
184
250
255
232
77
6
0
0
0
0
0
0
0
0
0
0
0
0
0
0
0
0
0
0
0
0
0
0
0
0
0
0
0
0
0
0
0
0
0
0
0
0
0
0
0
0
0
0
0
0
0
0
0
0
0
0
0
0
0
0
0
0
0
0
0
0
0
0
0
0
0
0
0
0
0
0
0
0
0
0
0
14
103
246
250
237
127
19
5
0
0
71
176
27
14
14
14
14
13
13
14
14
13
14
14
14
14
14
14
14
14
14
14
14
14
14
12
14
14
14
14
26
183
100
58
76
134
241
255
246
176
23
1
0
0
0
0
0
0
0
0
0
0
0
0
0
0
0
0
0
0
0
0
0
0
0
0
0
0
0
0
0
0
0
0
0
0
0
0
0
0
0
0
0
0
0
0
0
0
0
0
0
0
0
0
0
0
0
0
0
0
0
0
0
0
0
0
0
0
0
0
0
0
0
0
0
0
0
0
0
5
73
182
252
253
238
127
18
6
67
172
11
0
0
0
0
0
0
0
0
0
0
0
0
0
0
0
0
0
0
0
0
0
0
0
0
0
0
0
10
179
112
129
240
252
248
231
78
10
0
0
0
0
0
0
0
0
0
0
0
0
0
0
0
0
0
0
0
0
0
0
0
0
0
0
0
0
0
0
0
0
0
0
0
0
0
0
0
0
0
0
0
0
0
0
0
0
0
0
0
0
0
0
0
0
0
0
0
0
0
0
0
0
0
0
0
0
0
0
0
0
0
0
0
0
0
0
0
0
1
15
127
237
249
253
237
130
86
172
14
0
0
0
0
0
0
0
0
0
0
0
0
0
0
0
0
0
0
0
0
0
0
0
0
0
0
0
11
180
235
253
252
232
78
15
1
0
0
0
0
0
0
0
0
0
0
0
0
0
0
0
0
0
0
0
0
0
0
0
0
0
0
0
0
0
0
0
0
0
0
0
0
0
0
0
0
0
0
0
0
0
0
0
0
0
0
0
0
0
0
0
0
0
0
0
0
0
0
0
0
0
0
0
0
0
0
0
0
0
0
0
0
0
0
0
0
0
0
0
5
15
78
232
249
249
248
184
10
0
0
0
0
0
0
0
0
0
0
0
0
0
0
0
0
0
0
0
0
0
0
0
0
0
0
0
11
178
237
239
127
19
1
0
0
0
0
0
0
0
0
0
0
0
0
0
0
0
0
0
0
0
0
0
0
0
0
0
0
0
0
0
0
0
0
0
0
0
0
0
0
0
0
0
0
0
0
0
0
0
0
0
0
0
0
0
0
0
0
0
0
0
0
0
0
0
0
0
0
0
0
0
0
0
0
0
0
0
0
0
0
0
0
0
0
0
0
0
0
0
1
16
74
184
241
180
10
0
0
0
0
0
0
0
0
0
0
0
0
0
0
0
0
0
0
0
0
0
0
0
0
0
0
0
8
117
84
16
5
0
0
0
0
0
0
0
0
0
0
0
0
0
0
0
0
0
0
0
0
0
0
0
0
0
0
0
0
0
0
0
0
0
0
0
0
0
0
0
0
0
0
0
0
0
0
0
0
0
0
0
0
0
0
0
0
0
0
0
0
0
0
0
0
0
0
0
0
0
0
0
0
0
0
0
0
0
0
0
0
0
0
0
0
0
0
0
0
0
0
0
1
10
25
116
10
0
0
0
0
0
0
0
0
0
0
0
0
0
0
0
0
0
0
0
0
0
0
0
0
0
0
0
0
6
2
0
0
0
0
0
0
0
0
0
0
0
0
0
0
0
0
0
0
0
0
0
0
0
0
0
0
0
0
0
0
0
0
0
0
0
0
0
0
0
0
0
0
0
0
