P2
# CREATOR: GIMP PNM Filter Version 1.1
128 32
255
0
0
0
0
0
0
0
0
0
0
0
0
0
0
0
0
0
0
0
0
0
0
0
0
0
68
245
254
243
254
255
255
255
255
255
255
255
238
118
8
4
4
4
4
0
0
0
0
0
0
0
0
0
0
0
0
0
0
0
0
0
0
0
0
0
0
0
0
0
0
0
3
66
124
128
127
127
127
127
127
127
127
127
127
126
134
176
19
0
0
0
1
81
245
255
255
255
255
255
255
255
245
81
1
15
243
250
68
0
0
0
0
0
0
0
0
0
0
0
0
0
0
0
0
0
0
0
0
0
0
0
0
0
0
0
0
0
0
0
0
0
0
0
0
0
0
0
0
0
0
0
0
0
18
241
247
97
178
238
249
250
254
250
244
229
80
15
55
60
59
60
56
7
4
0
0
0
0
0
0
0
0
0
0
0
0
0
0
0
0
0
0
0
0
0
0
0
0
0
7
116
129
127
127
127
127
127
127
127
127
127
127
126
132
186
120
7
0
0
77
234
254
255
255
255
255
255
255
255
254
233
77
74
248
242
18
0
0
0
0
0
0
0
0
0
0
0
0
0
0
0
0
0
0
0
0
0
0
0
0
0
0
0
0
0
0
0
0
0
0
0
0
0
0
0
0
0
0
0
0
0
9
182
253
178
17
19
119
133
177
129
68
24
56
58
64
64
64
64
64
60
56
7
3
0
0
0
0
0
0
0
0
0
0
0
0
0
0
0
0
0
0
0
0
0
0
0
12
120
129
127
127
127
127
127
127
127
127
127
127
126
131
187
183
12
0
23
232
255
255
255
255
255
255
255
255
255
255
255
241
197
249
182
9
0
0
0
0
0
0
0
0
0
0
0
0
0
0
0
0
0
0
0
0
0
0
0
0
0
0
0
0
0
0
0
0
0
0
0
0
0
0
0
0
0
0
0
0
0
1
74
251
242
12
0
5
6
10
5
7
52
63
64
63
63
63
63
63
64
64
61
60
2
0
0
0
0
0
0
0
0
0
0
0
0
0
0
0
0
0
0
0
0
0
3
55
123
128
127
127
127
127
127
127
127
127
127
127
127
125
141
230
14
6
177
255
255
255
255
255
255
255
255
255
255
255
255
255
254
246
74
1
0
0
0
0
0
0
0
0
0
0
0
0
0
0
0
0
0
0
0
0
0
0
0
0
0
0
0
0
0
0
0
0
0
0
0
0
0
0
0
0
0
0
0
0
0
0
16
238
250
78
0
0
0
0
5
55
65
63
63
63
63
63
63
63
63
62
69
110
15
1
0
0
0
0
0
0
0
0
0
0
0
0
0
0
0
0
0
0
0
0
0
17
120
129
127
127
127
127
127
127
127
127
127
127
127
125
142
234
13
10
239
255
255
255
255
255
255
255
255
255
255
255
255
255
255
235
16
0
0
0
0
0
0
0
0
0
0
0
0
0
0
0
0
0
0
0
0
0
0
0
0
0
0
0
0
0
0
0
0
0
0
0
0
0
0
0
0
0
0
0
0
0
0
0
4
127
255
233
15
0
0
4
56
65
63
63
63
63
63
63
63
63
63
63
63
73
109
7
0
0
0
0
0
0
0
0
0
0
0
0
0
0
0
0
0
0
0
0
3
55
123
128
127
127
127
127
127
127
127
127
127
127
126
130
190
234
12
14
241
255
255
255
255
255
255
255
255
255
255
255
255
255
249
127
4
0
0
0
0
0
0
0
0
0
0
0
0
0
0
0
0
0
0
0
0
0
0
0
0
0
0
0
0
0
0
0
0
0
0
0
0
0
0
0
0
0
0
0
0
0
0
0
0
19
239
252
74
0
0
4
60
64
63
63
63
63
63
63
63
63
63
63
62
68
117
12
0
0
0
0
0
0
0
0
0
0
0
0
0
0
0
0
0
0
0
0
0
12
120
129
127
127
127
127
127
127
127
127
127
127
126
130
195
181
12
65
244
255
255
255
255
255
255
255
255
255
255
255
255
255
244
20
0
0
0
0
0
0
0
0
0
0
0
0
0
0
0
0
0
0
0
0
0
0
0
0
0
0
0
0
0
0
0
0
0
0
0
0
0
0
0
0
0
0
0
0
0
0
0
0
0
3
128
251
184
10
0
4
59
64
63
63
63
63
63
63
63
63
63
63
62
68
120
64
3
0
0
0
0
0
0
0
0
0
0
0
0
0
0
0
0
0
0
0
0
3
113
128
127
127
127
127
127
127
127
127
127
127
124
139
241
124
6
67
245
255
255
255
255
255
255
255
255
255
255
255
255
255
226
12
0
0
0
0
0
0
0
0
0
0
0
0
0
0
0
0
0
0
0
0
0
0
0
0
0
0
0
0
0
0
0
0
0
0
0
0
0
0
0
0
0
0
0
0
0
0
0
0
0
0
19
238
248
78
0
3
59
64
63
63
63
63
63
63
63
63
63
63
62
67
125
118
8
0
0
0
0
0
0
0
0
0
0
0
0
0
0
0
0
8
15
15
15
18
78
130
127
127
127
127
127
127
127
127
127
127
136
198
228
21
0
18
239
255
255
255
255
255
255
255
255
255
255
255
255
240
28
1
0
0
0
0
0
0
0
0
0
0
0
0
0
0
0
0
0
0
0
0
0
0
0
0
0
0
0
0
0
0
0
0
0
0
0
0
0
0
0
0
0
0
0
0
0
0
0
0
0
0
3
127
255
234
22
0
59
64
63
63
63
63
63
63
63
63
63
63
62
67
124
122
7
3
4
4
4
4
4
4
0
0
0
0
0
0
0
3
20
113
166
169
168
168
172
177
137
126
126
126
127
127
127
128
127
127
182
229
81
3
3
8
180
254
255
255
255
255
255
255
255
255
251
255
255
176
6
0
0
0
0
0
0
0
0
0
0
0
0
0
0
0
0
0
0
0
0
0
0
0
0
0
0
0
0
0
0
0
0
0
0
0
0
0
0
0
0
0
0
0
0
0
0
0
0
0
0
0
0
19
233
255
176
18
57
64
63
63
63
63
63
63
63
63
63
63
62
66
128
116
15
54
60
59
59
59
60
56
7
3
0
0
0
0
5
70
158
70
17
15
15
15
16
72
167
138
131
132
127
126
128
124
123
83
69
75
61
60
55
8
76
242
255
255
255
255
255
255
255
246
206
254
237
24
1
0
0
0
0
0
0
0
0
0
0
0
0
0
0
0
0
0
0
0
0
0
0
0
0
0
0
0
0
0
0
0
0
0
0
0
0
0
0
0
0
0
0
0
0
0
0
0
0
0
0
0
0
0
77
242
251
131
62
62
63
63
63
63
63
63
63
63
63
63
61
75
174
76
58
64
64
64
64
64
64
64
60
56
7
0
0
2
66
109
22
3
0
0
0
0
0
2
22
166
188
177
133
132
120
70
66
63
60
60
63
64
64
57
68
188
252
255
255
255
255
255
251
205
248
254
127
2
0
0
0
0
0
0
0
0
0
0
0
0
0
0
0
0
0
0
0
0
0
0
0
0
0
0
0
0
0
0
0
0
0
0
0
0
0
0
0
0
0
0
0
0
0
0
0
0
0
0
0
0
0
0
6
128
255
242
85
59
63
63
63
63
63
63
63
63
63
62
64
130
180
71
62
63
63
63
63
63
63
63
64
65
56
10
0
16
104
17
0
0
0
0
0
0
0
0
0
13
130
86
120
170
75
60
62
63
63
63
63
63
63
63
66
125
187
247
255
255
255
255
255
251
255
227
19
0
0
0
0
0
0
0
0
0
0
0
0
0
0
0
0
0
0
0
0
0
0
0
0
0
0
0
0
0
0
0
0
0
0
0
0
0
0
0
0
0
0
0
0
0
0
0
0
0
0
0
0
0
0
0
0
19
227
255
234
80
59
63
63
63
63
63
63
63
62
60
79
177
128
66
62
63
63
63
63
63
63
63
63
62
69
108
19
104
17
0
0
0
0
0
0
0
0
0
0
0
49
67
15
66
64
63
63
63
63
63
63
63
63
63
63
65
75
129
233
244
247
250
255
255
228
28
0
0
0
0
0
0
0
0
0
0
0
0
0
0
0
0
0
0
0
0
0
0
0
0
0
0
0
0
0
0
0
0
0
0
0
0
0
0
0
0
0
0
0
0
0
0
0
0
0
0
0
0
0
0
0
0
0
0
27
233
255
185
75
60
63
62
62
62
62
61
65
80
173
129
69
62
63
63
63
63
63
63
63
63
63
62
68
117
77
113
7
0
0
0
0
0
0
0
0
0
0
0
15
161
20
54
64
63
63
63
63
63
63
63
63
63
62
67
107
20
15
68
133
200
255
233
27
0
0
0
0
0
0
0
0
0
0
0
0
0
0
0
0
0
0
0
0
0
0
0
0
0
0
0
0
0
0
0
0
0
0
0
0
0
0
0
0
0
0
0
0
0
0
0
0
0
0
0
0
0
0
0
0
0
0
0
0
77
237
254
184
75
61
69
69
68
68
76
126
173
126
68
61
63
63
63
63
63
63
63
63
63
63
63
61
76
172
72
2
0
0
0
0
0
0
0
0
0
0
0
13
174
71
61
63
63
63
63
63
63
63
63
63
63
63
63
73
105
0
8
132
250
238
77
0
0
0
0
0
0
0
0
0
0
0
0
0
0
0
0
0
0
0
0
0
0
0
0
0
0
0
0
0
0
0
0
0
0
0
0
0
0
0
0
0
0
0
0
0
0
0
0
0
0
0
0
0
0
0
0
0
0
0
0
0
1
78
243
255
183
74
107
116
119
121
166
122
67
13
57
64
63
63
63
63
63
63
63
63
63
63
63
61
72
179
67
2
0
0
0
0
0
0
0
0
0
0
0
14
172
75
61
63
63
63
63
63
63
63
63
63
63
63
62
68
119
19
124
248
243
78
1
0
0
0
0
0
0
0
0
0
0
0
0
0
0
0
0
0
0
0
0
0
0
0
0
0
0
0
0
0
0
0
0
0
0
0
0
0
0
0
0
0
0
0
0
0
0
0
0
0
0
0
0
0
0
0
0
0
0
0
0
0
0
6
127
248
253
132
22
8
61
26
13
8
1
2
59
64
63
63
63
63
63
63
63
63
63
63
63
61
72
178
71
2
0
0
0
0
0
0
0
0
0
0
0
13
173
74
61
63
63
63
63
63
63
63
63
63
63
63
61
69
173
141
246
249
127
6
0
0
0
0
0
0
0
0
0
0
0
0
0
0
0
0
0
0
0
0
0
0
0
0
0
0
0
0
0
0
0
0
0
0
0
0
0
0
0
0
0
0
0
0
0
0
0
0
0
0
0
0
0
0
0
0
0
0
0
0
0
0
0
0
10
127
243
251
175
17
0
0
0
0
0
4
59
64
63
63
63
63
63
63
63
63
63
63
63
61
75
179
127
5
0
0
0
0
0
0
0
0
0
0
0
15
171
74
61
63
63
63
63
63
63
63
63
63
63
62
59
80
192
253
243
127
10
0
0
0
0
0
0
0
0
0
0
0
0
0
0
0
0
0
0
0
0
0
0
0
0
0
0
0
0
0
0
0
0
0
0
0
0
0
0
0
0
0
0
0
0
0
0
0
0
0
0
0
0
0
0
0
0
0
0
0
0
0
0
0
0
0
0
5
78
239
255
178
23
4
0
0
0
4
60
64
63
63
63
62
62
62
62
62
62
62
61
65
118
137
167
18
0
0
0
1
2
1
0
0
0
0
0
53
117
66
61
62
62
62
63
63
63
63
63
63
61
62
85
233
253
237
78
5
0
0
0
0
0
0
0
0
0
0
0
0
0
0
0
0
0
0
0
0
0
0
0
0
0
0
0
0
0
0
0
0
0
0
0
0
0
0
0
0
0
0
0
0
0
0
0
0
0
0
0
0
0
0
0
0
0
0
0
0
0
0
0
0
0
0
0
0
1
77
232
252
243
115
10
0
0
4
56
64
63
63
63
66
67
67
67
67
67
67
66
71
129
123
84
111
14
6
14
62
68
64
16
8
8
8
9
121
35
61
68
67
67
66
64
63
63
63
62
59
71
134
239
255
237
77
1
0
0
0
0
0
0
0
0
0
0
0
0
0
0
0
0
0
0
0
0
0
0
0
0
0
0
0
0
0
0
0
0
0
0
0
0
0
0
0
0
0
0
0
0
0
0
0
0
0
0
0
0
0
0
0
0
0
0
0
0
0
0
0
0
0
0
0
0
0
0
1
23
178
253
249
176
23
1
0
6
60
64
62
67
123
126
125
125
125
125
125
124
130
178
130
124
184
131
130
180
189
188
180
172
125
121
122
122
130
121
125
125
125
126
127
81
60
62
60
63
80
184
250
255
231
77
1
0
0
0
0
0
0
0
0
0
0
0
0
0
0
0
0
0
0
0
0
0
0
0
0
0
0
0
0
0
0
0
0
0
0
0
0
0
0
0
0
0
0
0
0
0
0
0
0
0
0
0
0
0
0
0
0
0
0
0
0
0
0
0
0
0
0
0
0
0
0
0
0
0
16
120
217
255
233
78
10
3
52
62
61
71
176
127
120
120
120
120
120
120
121
121
123
143
245
250
250
254
254
246
148
130
119
121
122
122
119
121
121
120
120
126
185
98
55
64
76
134
240
255
246
176
23
1
0
0
0
0
0
0
0
0
0
0
0
0
0
0
0
0
0
0
0
0
0
0
0
0
0
0
0
0
0
0
0
0
0
0
0
0
0
0
0
0
0
0
0
0
0
0
0
0
0
0
0
0
0
0
0
0
0
0
0
0
0
0
0
0
0
0
0
0
0
0
0
0
0
0
0
5
63
233
253
247
183
73
18
60
59
76
174
21
8
8
8
8
8
8
6
21
134
243
255
255
255
255
255
255
241
133
22
6
8
8
8
8
8
8
8
20
181
103
65
134
239
253
252
231
78
10
0
0
0
0
0
0
0
0
0
0
0
0
0
0
0
0
0
0
0
0
0
0
0
0
0
0
0
0
0
0
0
0
0
0
0
0
0
0
0
0
0
0
0
0
0
0
0
0
0
0
0
0
0
0
0
0
0
0
0
0
0
0
0
0
0
0
0
0
0
0
0
0
0
0
0
0
0
0
1
19
127
238
249
246
186
129
80
129
177
11
0
0
0
0
0
0
12
174
246
255
255
255
255
255
255
255
255
246
174
12
0
0
0
0
0
0
0
10
179
154
187
250
255
237
127
19
1
0
0
0
0
0
0
0
0
0
0
0
0
0
0
0
0
0
0
0
0
0
0
0
0
0
0
0
0
0
0
0
0
0
0
0
0
0
0
0
0
0
0
0
0
0
0
0
0
0
0
0
0
0
0
0
0
0
0
0
0
0
0
0
0
0
0
0
0
0
0
0
0
0
0
0
0
0
0
0
0
0
5
19
128
238
249
252
244
199
178
12
0
0
0
0
0
4
127
248
255
255
255
255
255
255
255
255
255
255
248
127
4
0
0
0
0
0
0
11
179
234
247
241
176
24
5
0
0
0
0
0
0
0
0
0
0
0
0
0
0
0
0
0
0
0
0
0
0
0
0
0
0
0
0
0
0
0
0
0
0
0
0
0
0
0
0
0
0
0
0
0
0
0
0
0
0
0
0
0
0
0
0
0
0
0
0
0
0
0
0
0
0
0
0
0
0
0
0
0
0
0
0
0
0
0
0
0
0
0
0
0
5
19
128
237
248
250
183
10
0
0
0
0
0
17
235
255
255
255
255
255
255
255
255
255
255
255
255
235
17
0
0
0
0
0
0
12
181
192
125
22
10
0
0
0
0
0
0
0
0
0
0
0
0
0
0
0
0
0
0
0
0
0
0
0
0
0
0
0
0
0
0
0
0
0
0
0
0
0
0
0
0
0
0
0
0
0
0
0
0
0
0
0
0
0
0
0
0
0
0
0
0
0
0
0
0
0
0
0
0
0
0
0
0
0
0
0
0
0
0
0
0
0
0
0
0
0
0
0
0
0
5
17
75
186
182
12
0
0
0
0
0
70
246
255
255
255
255
255
255
255
255
255
255
255
255
246
70
0
0
0
0
0
0
13
181
103
5
0
0
0
0
0
0
0
0
0
0
0
0
0
0
0
0
0
0
0
0
0
0
0
0
0
0
0
0
0
0
0
0
0
0
0
0
0
0
0
0
0
0
0
0
0
0
0
0
0
0
0
0
0
0
0
0
0
0
0
0
0
0
0
0
0
0
0
0
0
0
0
0
0
0
0
0
0
0
0
0
0
0
0
0
0
0
0
0
0
0
0
0
0
3
76
174
14
0
0
0
0
5
128
249
255
255
255
255
255
255
255
255
255
255
255
255
249
128
5
0
0
0
0
0
13
181
96
0
0
0
0
0
0
0
0
0
0
0
0
0
0
0
0
0
0
0
0
0
0
0
0
0
0
0
0
0
0
0
0
0
0
0
0
0
0
0
0
0
0
0
0
0
0
0
0
0
0
0
0
0
0
0
0
0
0
0
0
0
0
0
0
0
0
0
0
0
0
0
0
0
0
0
0
0
0
0
0
0
0
0
0
0
0
0
0
0
0
0
0
0
0
1
68
173
14
0
0
0
0
9
182
254
255
255
255
255
255
255
255
255
255
255
255
255
254
182
9
0
0
0
0
0
13
181
98
0
0
0
0
0
0
0
0
0
0
0
0
0
0
0
0
0
0
0
0
0
0
0
0
0
0
0
0
0
0
0
0
0
0
0
0
0
0
0
0
0
0
0
0
0
0
0
0
0
0
0
0
0
0
0
0
0
0
0
0
0
0
0
0
0
0
0
0
0
0
0
0
0
0
0
0
0
0
0
0
0
0
0
0
0
0
0
0
0
0
0
0
0
0
2
70
173
14
0
0
0
4
13
181
254
255
255
255
255
255
255
255
255
255
255
255
255
254
181
13
4
0
0
0
0
13
181
98
0
0
0
0
0
0
0
0
0
0
0
0
0
0
0
0
0
0
0
0
0
0
0
0
0
0
0
0
0
0
0
0
0
0
0
0
0
0
0
0
0
0
0
0
0
0
0
0
0
0
0
0
0
0
0
0
0
0
0
0
0
0
0
0
0
0
0
0
0
0
0
0
0
0
0
0
0
0
0
0
0
0
0
0
0
0
0
0
0
0
0
0
0
0
2
70
173
14
0
0
4
54
63
134
248
255
255
255
255
255
255
255
255
255
255
255
255
248
134
63
54
4
0
0
0
13
181
98
0
0
0
0
0
0
0
0
0
0
0
0
0
0
0
0
0
0
0
0
0
0
0
0
0
0
0
0
0
0
0
0
0
0
0
0
0
0
0
0
0
0
0
0
