P2
# CREATOR: GIMP PNM Filter Version 1.1
128 32
255
0
0
0
0
0
0
0
0
0
0
0
0
0
0
0
0
0
0
0
0
0
0
0
0
15
241
255
255
255
255
255
255
255
255
255
255
255
255
255
250
120
5
0
0
0
0
0
0
0
0
0
0
0
0
0
0
0
0
0
0
0
0
0
0
0
0
0
0
0
0
0
0
0
0
0
0
3
63
124
128
127
127
127
127
127
127
127
127
127
127
126
131
193
179
11
0
0
0
0
0
0
0
0
0
0
17
244
245
15
0
0
0
0
0
0
0
0
0
0
0
0
0
0
0
0
0
0
0
0
0
0
0
0
0
0
0
0
0
0
0
0
0
0
0
0
0
0
0
0
0
0
0
15
239
255
255
255
255
255
255
255
255
255
255
255
255
255
236
21
0
0
0
0
0
0
0
0
0
0
0
0
0
0
0
0
0
0
0
0
0
0
0
0
0
0
0
0
0
0
0
0
0
0
0
3
64
124
128
127
127
127
127
127
127
127
127
127
127
125
136
238
126
6
10
15
15
15
10
1
0
0
0
0
69
249
242
15
0
0
0
0
0
0
0
0
0
0
0
0
0
0
0
0
0
0
0
0
0
0
0
0
0
0
0
0
0
0
0
0
0
0
0
0
0
0
0
0
0
0
0
10
181
253
255
255
255
255
255
255
255
255
255
255
255
248
127
3
0
0
0
0
0
0
0
0
0
0
0
0
0
0
0
0
0
0
0
0
0
0
0
0
0
0
0
0
0
0
0
0
0
0
0
3
60
125
128
127
127
127
127
127
127
127
127
127
127
124
140
238
88
74
180
238
240
238
181
73
12
0
0
5
132
249
183
10
0
0
0
0
0
0
0
0
0
0
0
0
0
0
0
0
0
0
0
0
0
0
0
0
0
0
0
0
0
0
0
0
0
0
0
0
0
0
0
0
0
0
0
1
73
245
255
249
255
255
255
255
255
255
255
255
248
175
13
0
0
0
0
0
0
0
0
0
0
0
0
0
0
0
0
0
0
0
0
0
0
0
0
0
0
0
0
0
0
0
0
0
0
0
0
0
11
117
129
127
127
127
127
127
127
127
127
127
125
132
191
251
243
245
254
255
255
255
254
244
176
23
0
12
237
250
74
1
0
0
0
0
0
0
0
0
0
0
0
0
0
0
0
0
0
0
0
0
0
0
0
0
0
0
0
0
0
0
0
0
0
0
0
0
0
0
0
0
0
0
0
0
16
240
249
147
231
249
255
255
255
255
249
238
131
18
2
4
4
4
4
4
3
0
0
0
0
0
0
4
4
4
4
4
4
0
0
0
0
0
0
0
0
0
0
0
0
0
0
0
0
0
0
0
2
63
126
128
127
127
127
127
127
127
127
125
132
191
249
255
255
255
255
255
255
255
255
255
254
227
24
18
246
242
16
0
0
0
0
0
0
0
0
0
0
0
0
0
0
0
0
0
0
0
0
0
0
0
0
0
0
0
0
0
0
0
0
0
0
0
0
0
0
0
0
0
0
0
0
0
9
188
249
132
25
121
185
238
238
184
125
76
64
56
59
59
59
59
59
60
56
7
0
0
0
3
7
56
60
59
59
60
56
7
3
0
0
0
0
0
0
0
0
0
0
0
0
0
0
0
0
0
0
10
113
130
128
126
126
126
126
125
124
134
194
250
255
255
255
255
255
255
255
255
255
255
255
255
232
143
244
188
9
0
0
0
0
0
0
0
0
0
0
0
0
0
0
0
0
0
0
0
0
0
0
0
0
0
0
0
0
0
0
0
0
0
0
0
0
0
0
0
0
0
0
0
0
0
5
123
254
235
12
5
11
15
15
10
12
57
63
64
64
64
64
64
64
64
65
56
11
0
7
56
60
64
64
64
64
64
64
60
56
7
0
0
0
0
0
0
0
2
8
15
15
10
3
0
0
0
0
0
14
113
126
134
134
133
133
137
142
190
240
255
255
255
255
255
255
255
255
255
255
255
255
255
255
251
249
123
5
0
0
0
0
0
0
0
0
0
0
0
0
0
0
0
0
0
0
0
0
0
0
0
0
0
0
0
0
0
0
0
0
0
0
0
0
0
0
0
0
0
0
0
0
0
0
21
242
251
73
0
0
0
0
4
54
64
63
63
63
63
63
63
63
63
62
69
105
19
55
65
64
63
63
63
63
63
63
64
65
56
11
0
0
0
0
3
17
61
103
168
166
113
64
17
3
0
0
0
0
9
67
169
178
179
184
234
232
174
87
242
255
255
255
255
255
255
255
255
255
255
255
255
255
255
239
21
0
0
0
0
0
0
0
0
0
0
0
0
0
0
0
0
0
0
0
0
0
0
0
0
0
0
0
0
0
0
0
0
0
0
0
0
0
0
0
0
0
0
0
0
0
0
0
8
182
255
182
7
0
0
4
56
65
63
63
63
63
63
63
63
63
63
63
63
73
113
67
62
63
63
63
63
63
63
63
63
62
69
105
11
0
0
5
69
161
122
40
15
15
16
115
161
73
19
0
0
0
0
3
12
16
64
70
69
21
11
19
240
255
255
255
255
255
255
255
255
255
255
255
255
255
254
180
8
0
0
0
0
0
0
0
0
0
0
0
0
0
0
0
0
0
0
0
0
0
0
0
0
0
0
0
0
0
0
0
0
0
0
0
0
0
0
0
0
0
0
0
0
0
0
0
1
73
247
242
24
0
0
4
60
64
63
63
63
63
63
63
63
63
63
63
62
67
121
72
62
63
63
63
63
63
63
63
63
63
63
69
59
3
4
66
109
22
9
1
0
0
0
9
21
112
77
3
0
0
0
0
0
0
1
2
0
0
0
67
244
255
255
255
255
255
255
255
255
255
255
255
255
255
247
74
1
0
0
0
0
0
0
0
0
0
0
0
0
0
0
0
0
0
0
0
0
0
0
0
0
0
0
0
0
0
0
0
0
0
0
0
0
0
0
0
0
0
0
0
0
0
0
0
0
11
182
255
178
11
0
4
59
64
63
63
63
63
63
63
63
63
63
63
62
67
124
121
67
62
63
63
63
63
63
63
63
63
62
68
111
10
66
109
16
0
0
0
0
0
0
0
0
9
85
72
3
0
0
0
0
0
0
0
0
0
0
69
244
255
255
255
255
255
255
255
255
255
255
251
255
255
231
16
0
0
0
0
0
0
0
0
0
0
0
0
0
0
0
0
0
0
0
0
0
0
0
0
0
0
0
0
0
0
0
0
0
0
0
0
0
0
0
0
0
0
0
0
0
0
0
0
0
0
73
248
248
73
0
3
59
64
63
63
63
63
63
63
63
63
63
63
62
67
124
125
67
62
63
63
63
63
63
63
63
63
62
69
114
29
160
22
0
0
0
0
0
0
0
0
0
0
19
162
17
0
0
0
0
0
0
0
0
0
0
19
242
255
255
255
255
255
255
255
255
255
252
206
253
249
78
0
0
0
0
0
0
0
0
0
0
0
0
0
0
0
0
0
0
0
0
0
0
0
0
0
0
0
0
0
0
0
0
0
0
0
0
0
0
0
0
0
0
0
0
0
0
0
0
0
0
0
11
178
255
182
13
0
59
64
63
63
63
63
63
63
63
63
63
63
62
67
123
124
67
62
63
63
63
63
63
63
63
63
62
67
122
126
117
6
0
0
0
0
0
0
0
0
0
0
8
115
64
3
0
0
0
0
0
0
0
0
0
13
235
255
255
255
255
255
255
255
255
255
250
250
255
231
15
0
0
0
0
0
0
0
0
0
0
0
0
0
0
0
0
0
0
0
0
0
0
0
0
0
0
0
0
0
0
0
0
0
0
0
0
0
0
0
0
0
0
0
0
0
0
0
0
0
0
0
0
24
238
253
126
10
57
64
63
63
63
63
63
63
63
63
63
63
62
67
128
125
67
62
63
63
63
63
63
63
63
63
62
66
134
181
19
0
0
0
0
0
0
0
0
0
0
0
0
16
113
10
0
0
4
4
4
4
4
4
4
9
126
251
255
255
255
255
255
255
255
251
206
254
246
78
0
0
0
0
0
0
0
0
0
0
0
0
0
0
0
0
0
0
0
0
0
0
0
0
0
0
0
0
0
0
0
0
0
0
0
0
0
0
0
0
0
0
0
0
0
0
0
0
0
0
0
0
0
2
127
253
241
77
58
63
63
63
63
63
63
63
63
63
63
63
61
70
178
125
66
62
63
63
63
63
63
63
63
63
61
69
189
233
15
0
0
0
0
0
0
0
0
0
0
0
0
13
166
14
3
7
56
60
59
59
59
59
60
52
26
233
255
255
255
255
255
255
255
255
251
255
177
10
0
0
0
0
0
0
0
0
0
0
0
0
0
0
0
0
0
0
0
0
0
0
0
0
0
0
0
0
0
0
0
0
0
0
0
0
0
0
0
0
0
0
0
0
0
0
0
0
0
0
0
0
0
0
14
178
255
187
75
61
63
63
63
63
63
63
63
63
63
63
61
80
175
76
61
63
63
63
63
63
63
63
63
63
60
73
187
184
10
0
0
0
0
0
0
0
0
0
0
0
0
13
166
22
53
60
64
64
64
64
64
64
64
63
60
133
237
254
255
255
255
255
255
255
255
232
23
0
0
0
0
0
0
0
0
0
0
0
0
0
0
0
0
0
0
0
0
0
0
0
0
0
0
0
0
0
0
0
0
0
0
0
0
0
0
0
0
0
0
0
0
0
0
0
0
0
0
0
0
0
0
0
0
23
233
255
184
71
60
63
63
63
63
63
63
63
63
60
74
177
130
65
62
63
63
63
63
63
63
63
63
61
70
125
127
119
14
0
0
0
0
0
0
0
0
0
0
0
0
15
115
66
63
64
63
63
63
63
63
63
63
63
64
64
83
179
243
254
255
251
255
255
240
77
0
0
0
0
0
0
0
0
0
0
0
0
0
0
0
0
0
0
0
0
0
0
0
0
0
0
0
0
0
0
0
0
0
0
0
0
0
0
0
0
0
0
0
0
0
0
0
0
0
0
0
0
0
0
0
0
0
0
77
243
251
135
67
61
63
63
63
63
63
62
60
70
132
173
70
62
63
63
63
63
63
63
63
62
60
67
129
167
20
62
115
7
0
0
0
0
0
0
0
0
0
0
7
114
71
63
63
63
63
63
63
63
63
63
63
63
62
67
109
22
72
180
235
206
253
246
127
6
0
0
0
0
0
0
0
0
0
0
0
0
0
0
0
0
0
0
0
0
0
0
0
0
0
0
0
0
0
0
0
0
0
0
0
0
0
0
0
0
0
0
0
0
0
0
0
0
0
0
0
0
0
0
0
0
0
0
6
127
252
246
134
67
62
63
62
62
62
67
76
128
165
22
3
56
65
63
62
62
62
61
61
67
77
137
184
75
0
13
162
22
0
0
0
0
0
0
0
0
0
0
19
166
72
61
63
63
63
63
63
63
63
63
63
63
62
68
117
60
2
11
92
245
252
128
10
0
0
0
0
0
0
0
0
0
0
0
0
0
0
0
0
0
0
0
0
0
0
0
0
0
0
0
0
0
0
0
0
0
0
0
0
0
0
0
0
0
0
0
0
0
0
0
0
0
0
0
0
0
0
0
0
0
0
0
0
14
177
255
246
134
62
62
69
68
72
121
169
118
18
0
0
7
56
65
69
68
66
73
76
120
174
230
178
66
14
10
67
109
16
0
0
0
0
0
0
0
0
9
84
75
63
63
63
63
63
63
63
63
63
63
63
63
63
62
72
115
9
72
234
254
177
14
0
0
0
0
0
0
0
0
0
0
0
0
0
0
0
0
0
0
0
0
0
0
0
0
0
0
0
0
0
0
0
0
0
0
0
0
0
0
0
0
0
0
0
0
0
0
0
0
0
0
0
0
0
0
0
0
0
0
0
0
0
0
19
177
255
241
84
61
110
117
113
64
16
7
0
0
0
0
6
59
113
118
132
171
167
68
16
17
13
64
161
114
18
63
109
22
9
1
0
0
0
9
21
112
76
7
58
64
63
63
63
63
63
63
63
63
63
63
63
61
71
169
91
235
255
177
19
0
0
0
0
0
0
0
0
0
0
0
0
0
0
0
0
0
0
0
0
0
0
0
0
0
0
0
0
0
0
0
0
0
0
0
0
0
0
0
0
0
0
0
0
0
0
0
0
0
0
0
0
0
0
0
0
0
0
0
0
0
0
0
0
19
177
255
239
82
14
6
8
3
0
0
0
0
0
0
0
4
9
82
162
26
13
3
0
0
0
4
17
67
106
19
67
161
122
40
15
15
16
115
161
73
18
0
59
64
63
63
63
63
63
63
63
63
63
63
63
59
72
191
248
255
177
19
0
0
0
0
0
0
0
0
0
0
0
0
0
0
0
0
0
0
0
0
0
0
0
0
0
0
0
0
0
0
0
0
0
0
0
0
0
0
0
0
0
0
0
0
0
0
0
0
0
0
0
0
0
0
0
0
0
0
0
0
0
0
0
0
0
0
19
177
252
243
125
13
0
0
0
0
0
0
0
0
0
0
17
155
24
0
0
0
0
0
0
0
0
4
66
110
9
13
58
99
163
163
112
63
16
2
0
3
59
64
63
63
63
63
63
63
63
63
63
62
59
71
135
249
252
177
19
0
0
0
0
0
0
0
0
0
0
0
0
0
0
0
0
0
0
0
0
0
0
0
0
0
0
0
0
0
0
0
0
0
0
0
0
0
0
0
0
0
0
0
0
0
0
0
0
0
0
0
0
0
0
0
0
0
0
0
0
0
0
0
0
0
0
0
0
14
127
245
253
188
61
1
0
0
0
0
0
0
0
8
114
71
2
1
2
2
2
2
2
2
2
1
13
109
14
4
13
24
31
26
12
4
0
0
1
5
57
62
61
61
61
62
63
63
63
63
61
63
80
184
251
247
127
14
0
0
0
0
0
0
0
0
0
0
0
0
0
0
0
0
0
0
0
0
0
0
0
0
0
0
0
0
0
0
0
0
0
0
0
0
0
0
0
0
0
0
0
0
0
0
0
0
0
0
0
0
0
0
0
0
0
0
0
0
0
0
0
0
0
0
0
0
0
0
5
78
233
255
237
78
10
0
0
0
0
0
0
17
171
82
69
70
70
70
70
70
70
70
70
70
69
81
123
130
178
223
236
176
74
67
70
70
70
71
74
74
74
74
71
65
63
63
62
59
71
134
239
255
242
127
10
0
0
0
0
0
0
0
0
0
0
0
0
0
0
0
0
0
0
0
0
0
0
0
0
0
0
0
0
0
0
0
0
0
0
0
0
0
0
0
0
0
0
0
0
0
0
0
0
0
0
0
0
0
0
0
0
0
0
0
0
0
0
0
0
0
0
0
0
0
0
0
0
1
28
227
250
247
177
24
5
0
0
0
2
64
184
175
173
173
173
173
173
173
173
173
173
173
173
171
177
178
182
187
188
182
173
173
173
173
173
173
172
172
172
173
183
97
56
60
63
80
184
250
255
232
77
6
0
0
0
0
0
0
0
0
0
0
0
0
0
0
0
0
0
0
0
0
0
0
0
0
0
0
0
0
0
0
0
0
0
0
0
0
0
0
0
0
0
0
0
0
0
0
0
0
0
0
0
0
0
0
0
0
0
0
0
0
0
0
0
0
0
0
0
0
0
0
0
0
0
0
0
14
103
246
253
238
127
19
5
0
0
71
174
27
14
14
14
14
14
14
14
14
14
14
14
14
13
13
12
11
10
12
14
14
14
14
14
14
14
14
14
26
183
100
58
76
134
241
255
246
176
23
1
0
0
0
0
0
0
0
0
0
0
0
0
0
0
0
0
0
0
0
0
0
0
0
0
0
0
0
0
0
0
0
0
0
0
0
0
0
0
0
0
0
0
0
0
0
0
0
0
0
0
0
0
0
0
0
0
0
0
0
0
0
0
0
0
0
0
0
0
0
0
0
0
0
0
0
0
0
5
73
182
247
253
238
127
18
6
67
172
11
0
0
0
0
0
0
0
0
0
0
0
0
0
0
0
0
0
0
0
0
0
0
0
0
0
0
0
10
179
112
129
240
252
248
231
78
10
0
0
0
0
0
0
0
0
0
0
0
0
0
0
0
0
0
0
0
0
0
0
0
0
0
0
0
0
0
0
0
0
0
0
0
0
0
0
0
0
0
0
0
0
0
0
0
0
0
0
0
0
0
0
0
0
0
0
0
0
0
0
0
0
0
0
0
0
0
0
0
0
0
0
0
0
0
0
0
0
1
10
78
232
249
253
237
130
86
172
14
0
0
0
0
0
0
0
0
0
0
0
0
0
0
0
0
0
0
0
0
0
0
0
0
0
0
0
11
180
235
253
252
232
78
15
1
0
0
0
0
0
0
0
0
0
0
0
0
0
0
0
0
0
0
0
0
0
0
0
0
0
0
0
0
0
0
0
0
0
0
0
0
0
0
0
0
0
0
0
0
0
0
0
0
0
0
0
0
0
0
0
0
0
0
0
0
0
0
0
0
0
0
0
0
0
0
0
0
0
0
0
0
0
0
0
0
0
0
0
1
15
78
232
249
249
248
184
10
0
0
0
0
0
0
0
0
0
0
0
0
0
0
0
0
0
0
0
0
0
0
0
0
0
0
0
11
178
237
239
127
19
1
0
0
0
0
0
0
0
0
0
0
0
0
0
0
0
0
0
0
0
0
0
0
0
0
0
0
0
0
0
0
0
0
0
0
0
0
0
0
0
0
0
0
0
0
0
0
0
0
0
0
0
0
0
0
0
0
0
0
0
0
0
0
0
0
0
0
0
0
0
0
0
0
0
0
0
0
0
0
0
0
0
0
0
0
0
0
0
1
16
74
184
241
180
10
0
0
0
0
0
0
0
0
0
0
0
0
0
0
0
0
0
0
0
0
0
0
0
0
0
0
0
8
117
84
16
5
0
0
0
0
0
0
0
0
0
0
0
0
0
0
0
0
0
0
0
0
0
0
0
0
0
0
0
0
0
0
0
0
0
0
0
0
0
0
0
0
0
0
0
0
0
0
0
0
0
0
0
0
0
0
0
0
0
0
0
0
0
0
0
0
0
0
0
0
0
0
0
0
0
0
0
0
0
0
0
0
0
0
0
0
0
0
0
0
0
0
0
1
10
25
116
10
0
0
0
0
0
0
0
0
0
0
0
0
0
0
0
0
0
0
0
0
0
0
0
0
0
0
0
0
6
2
0
0
0
0
0
0
0
0
0
0
0
0
0
0
0
0
0
0
0
0
0
0
0
0
0
0
0
0
0
0
0
0
0
0
0
0
0
0
0
0
0
0
0
0
