P2
# CREATOR: GIMP PNM Filter Version 1.1
128 32
255
0
0
0
0
0
0
0
0
0
0
0
0
5
122
249
255
255
255
249
250
247
250
250
248
250
248
255
255
255
254
248
250
250
248
252
255
251
250
248
250
249
255
255
249
250
247
251
250
248
251
248
250
250
247
251
248
250
250
248
254
255
255
255
249
250
247
251
250
248
250
248
250
251
255
255
255
255
255
252
250
248
250
247
250
251
248
253
255
255
255
249
250
247
250
250
255
255
255
255
255
255
255
255
252
249
249
250
248
255
255
255
255
255
255
255
194
12
0
0
0
0
0
0
0
0
0
0
0
0
0
0
0
0
0
0
0
0
0
0
0
16
203
255
255
255
246
128
136
104
137
137
108
138
118
240
255
255
218
108
135
128
114
187
246
157
137
106
134
121
244
247
130
135
102
139
131
110
141
108
137
137
104
139
113
129
135
108
219
255
255
246
129
135
102
139
131
108
132
109
135
159
249
255
255
255
251
174
129
113
137
103
130
138
109
202
254
255
246
129
135
102
136
142
247
255
255
255
255
255
255
251
174
121
119
136
109
229
255
255
255
255
255
255
240
60
0
0
0
0
0
0
0
0
0
0
0
0
0
0
0
0
0
0
0
0
0
0
0
67
244
255
255
255
241
22
9
4
13
15
6
9
19
213
255
253
168
13
10
9
9
112
234
55
10
4
9
20
218
235
24
9
4
12
13
7
15
6
12
14
5
12
7
11
9
13
173
255
255
238
22
9
4
12
13
5
12
5
11
67
246
255
255
255
249
96
12
5
13
4
12
11
10
141
253
255
238
22
9
4
9
35
241
255
255
255
255
255
255
246
95
12
6
9
14
181
254
255
255
255
255
255
252
141
6
0
0
0
0
0
0
0
0
0
0
0
0
0
0
0
0
0
0
0
0
0
6
142
251
255
255
243
215
29
40
12
51
48
14
45
29
204
241
253
176
14
43
34
19
145
238
80
47
9
47
32
235
240
34
42
8
43
47
14
52
15
43
53
9
45
24
32
41
15
174
233
254
238
33
42
8
43
47
12
41
16
41
87
217
249
255
252
219
97
35
16
52
9
39
50
13
149
226
254
238
33
42
8
40
70
244
255
255
255
255
255
255
247
104
35
18
41
21
211
255
255
255
255
255
255
255
213
18
0
0
0
0
0
0
0
0
0
0
0
0
0
0
0
0
0
0
0
0
0
15
208
255
255
247
118
45
17
45
13
44
43
13
48
18
53
111
246
183
15
36
36
21
143
237
71
44
11
43
35
236
239
38
36
11
43
42
15
46
17
42
48
9
44
22
29
42
10
47
67
246
240
38
36
11
43
42
12
37
18
41
48
34
175
255
200
34
39
37
18
47
13
34
48
11
51
50
237
240
38
36
10
40
68
243
255
255
255
255
255
255
247
108
32
16
43
23
207
255
255
255
255
255
255
255
244
60
0
0
0
0
0
0
0
0
0
0
0
0
0
0
0
0
0
0
0
0
0
50
242
255
255
245
85
9
4
14
5
12
14
3
14
6
10
80
243
164
11
10
11
7
119
231
47
12
2
12
25
226
232
20
9
5
13
12
4
13
5
13
15
3
13
7
9
13
2
6
33
245
237
19
9
5
13
12
2
10
6
13
13
7
154
255
181
6
9
13
4
13
4
10
14
3
10
22
226
235
20
9
4
10
41
241
255
255
255
255
255
255
245
88
12
4
11
15
187
254
255
255
255
255
255
255
250
124
5
0
0
0
0
0
0
0
0
0
0
0
0
0
0
0
0
0
0
0
3
104
248
255
255
247
115
57
30
79
24
69
75
16
78
37
61
123
247
186
25
67
66
28
166
240
85
74
18
77
53
242
239
47
72
23
71
71
22
75
30
66
83
17
74
45
46
77
17
63
81
248
238
47
72
23
71
71
17
59
32
66
81
22
190
255
200
24
67
67
26
77
23
54
79
18
77
53
241
239
47
72
23
67
94
245
255
255
255
255
255
255
247
115
57
30
76
33
225
255
255
255
255
255
255
255
254
180
10
0
0
0
0
0
0
0
0
0
0
0
0
0
0
0
0
0
0
0
8
151
252
255
255
245
83
16
5
17
6
14
16
3
16
8
16
88
243
159
11
15
13
10
128
229
45
13
3
16
28
227
229
20
14
5
16
16
1
17
6
14
20
4
13
8
12
15
4
12
45
245
231
20
14
5
16
16
1
12
7
14
17
11
160
255
179
9
15
15
6
17
3
13
17
3
16
28
227
230
20
14
5
13
50
242
255
255
255
255
255
255
245
83
16
5
13
16
196
255
255
255
255
255
255
255
255
222
18
0
0
0
0
0
0
0
0
0
0
0
0
0
0
0
0
0
0
0
12
196
255
255
255
245
91
36
16
41
17
45
51
12
43
24
32
109
245
166
19
38
35
16
147
235
63
39
11
42
43
236
232
29
42
15
34
41
24
48
19
32
47
12
44
36
27
38
11
32
67
246
231
29
42
15
34
41
22
40
21
32
44
18
179
255
184
17
38
36
13
48
30
35
41
12
42
43
236
231
29
42
15
31
72
244
255
255
255
255
255
255
245
91
36
16
38
26
209
255
255
255
255
255
255
255
255
242
46
0
0
0
0
0
0
0
0
0
0
0
0
0
0
0
0
0
0
0
17
227
255
255
255
246
96
45
22
54
28
186
179
19
56
28
45
119
246
170
22
50
51
19
158
237
68
55
13
58
49
241
233
33
55
20
46
81
193
123
25
45
61
18
167
193
39
48
13
42
74
247
231
34
55
20
46
80
200
141
24
45
61
19
188
255
187
19
50
52
18
140
204
97
53
13
58
49
240
231
34
55
20
45
83
245
255
255
255
255
255
255
246
96
45
22
54
29
219
255
255
255
255
255
255
255
255
245
80
1
0
0
0
0
0
0
0
0
0
0
0
0
0
0
0
0
0
0
37
242
255
255
255
244
74
9
4
11
17
195
172
12
9
5
9
93
243
151
10
9
11
8
128
224
37
11
3
11
30
230
224
18
11
5
9
54
235
103
7
8
11
11
169
221
20
11
3
9
47
244
224
18
11
5
9
52
243
137
5
8
11
10
166
255
173
7
9
11
8
127
237
86
10
3
11
30
229
222
18
11
5
9
51
243
255
255
255
255
255
255
244
74
9
4
11
15
196
255
255
255
255
255
255
255
255
248
112
4
0
0
0
0
0
0
0
0
0
0
0
0
0
0
0
0
0
0
59
243
255
255
255
247
109
63
29
81
49
229
223
85
122
95
99
167
250
181
32
64
69
33
181
239
79
77
20
79
67
244
236
44
77
31
65
111
242
149
43
54
81
27
205
234
50
80
28
67
94
248
234
44
77
31
66
100
158
137
44
54
82
27
202
255
196
30
64
69
32
148
170
97
76
20
79
67
243
235
44
77
31
65
109
246
255
255
255
255
255
255
247
109
63
29
81
48
227
255
255
255
255
255
255
255
255
250
133
6
0
0
0
0
0
0
0
0
0
0
0
0
0
0
0
0
0
1
74
245
255
255
255
244
70
16
6
15
22
210
254
248
251
249
249
253
251
142
13
14
16
9
144
226
41
21
4
21
38
237
223
17
16
7
13
70
236
106
14
16
23
13
180
217
22
13
6
13
58
245
219
17
16
8
15
25
10
22
13
17
22
10
177
255
168
10
14
18
5
28
17
19
24
4
21
38
235
218
18
16
7
13
68
244
255
255
255
255
255
255
244
70
16
6
15
22
210
255
255
255
255
255
255
255
255
251
149
7
0
0
0
0
0
0
0
0
0
0
0
0
0
0
0
0
0
2
85
246
255
255
255
244
72
22
9
27
24
212
255
243
248
243
243
253
251
145
15
21
27
13
149
229
46
26
7
26
46
239
223
20
24
14
21
75
236
112
19
18
27
16
187
218
25
23
10
20
67
246
219
20
24
15
23
28
3
24
18
19
28
22
186
255
169
12
21
29
8
28
13
19
30
7
26
46
237
218
21
24
14
21
73
244
255
255
255
255
255
255
244
72
22
9
27
25
212
255
255
255
255
255
255
255
255
252
160
8
0
0
0
0
0
0
0
0
0
0
0
0
0
0
0
0
0
2
89
246
255
255
255
245
97
62
28
79
45
228
247
106
118
91
90
169
248
169
32
61
72
30
180
237
70
75
21
71
74
245
231
38
75
37
58
110
241
140
47
48
74
28
210
227
45
76
29
63
101
248
226
38
75
37
61
71
17
62
48
49
121
173
246
255
186
30
61
73
26
74
41
50
79
21
71
74
244
227
38
75
37
58
108
247
255
255
255
255
255
255
245
97
62
28
79
47
228
255
255
255
255
255
255
255
255
253
164
9
0
0
0
0
0
0
0
0
0
0
0
0
0
0
0
0
0
2
87
246
255
255
255
243
61
10
4
13
18
209
244
56
13
6
8
102
242
138
11
10
11
10
141
217
30
13
4
11
39
233
215
16
12
6
9
68
234
88
10
9
12
13
176
207
19
12
5
10
63
245
210
16
12
7
10
12
3
11
8
11
101
244
255
255
162
7
10
12
4
13
7
9
16
4
11
39
231
210
16
12
6
9
65
244
255
255
255
255
255
255
243
61
10
4
13
18
209
255
255
255
255
255
255
255
255
253
161
8
0
0
0
0
0
0
0
0
0
0
0
0
0
0
0
0
0
1
78
245
255
255
255
245
93
62
22
73
48
231
245
63
77
48
39
153
248
165
34
54
65
28
184
236
66
77
22
66
82
246
229
36
71
35
53
114
240
134
52
45
71
31
216
226
39
71
32
53
100
248
224
37
71
35
55
71
14
58
53
47
126
180
248
255
183
32
54
67
24
73
40
47
80
22
66
82
245
224
37
71
35
53
112
247
255
255
255
255
255
255
245
93
62
21
73
50
229
255
255
255
255
255
255
255
255
252
153
8
0
0
0
0
0
0
0
0
0
0
0
0
0
0
0
0
0
0
64
244
255
255
255
243
64
24
8
27
27
223
244
53
32
19
19
128
244
140
18
19
26
15
161
225
41
30
8
29
57
242
217
20
26
15
21
88
237
104
22
19
29
18
200
211
23
25
12
20
77
246
209
21
26
16
22
30
2
25
23
19
32
25
199
255
164
15
19
28
9
32
16
20
34
8
29
57
240
210
21
26
15
21
85
245
255
255
255
255
255
255
243
64
24
8
27
30
222
255
255
255
255
255
255
255
255
250
138
6
0
0
0
0
0
0
0
0
0
0
0
0
0
0
0
0
0
0
44
242
255
255
255
242
53
12
4
15
22
221
244
48
20
11
13
118
243
130
12
8
16
10
152
219
32
18
4
16
48
239
211
13
12
11
10
78
236
91
15
11
16
14
190
203
18
12
6
11
72
245
203
14
12
12
11
20
8
19
15
11
15
12
189
255
157
9
8
18
4
22
19
14
21
4
16
48
236
203
14
12
11
10
75
244
255
255
255
255
255
255
242
53
12
4
15
22
219
255
255
255
255
255
255
255
255
249
119
5
0
0
0
0
0
0
0
0
0
0
0
0
0
0
0
0
0
0
23
234
255
255
255
245
92
75
29
87
62
239
245
55
80
62
43
161
249
164
42
65
82
31
197
238
65
80
26
77
91
247
227
36
88
50
56
129
242
132
56
45
85
37
221
227
43
90
39
65
117
249
222
36
88
50
58
113
141
121
57
45
85
36
220
255
182
38
65
83
28
153
162
82
79
26
77
91
245
222
36
88
50
56
127
249
255
255
255
255
255
255
245
92
75
29
87
61
235
255
255
255
255
255
255
255
255
246
92
2
0
0
0
0
0
0
0
0
0
0
0
0
0
0
0
0
0
0
13
207
255
255
255
241
43
10
3
11
21
227
244
40
10
8
10
120
242
121
10
8
10
11
155
212
26
10
3
11
50
239
205
13
11
7
8
82
234
77
9
5
11
15
190
196
16
11
5
8
76
245
194
14
11
7
8
81
244
119
7
5
11
14
191
255
149
6
8
10
11
151
221
72
10
3
11
50
236
194
14
11
7
8
79
246
255
255
255
255
255
255
241
43
10
3
11
21
223
255
255
255
255
255
255
255
255
243
58
0
0
0
0
0
0
0
0
0
0
0
0
0
0
0
0
0
0
0
9
167
253
255
255
243
64
45
13
48
46
197
191
25
52
41
25
149
246
138
30
33
46
18
163
196
41
53
12
49
78
246
215
21
50
31
30
114
239
110
43
23
51
25
215
214
27
47
25
34
102
248
206
22
50
31
30
105
202
127
40
23
51
25
214
255
163
27
33
46
19
183
245
91
46
13
49
78
243
207
22
50
31
30
103
200
227
219
211
225
211
253
243
64
45
13
48
45
195
227
208
223
218
209
241
255
255
232
25
0
0
0
0
0
0
0
0
0
0
0
0
0
0
0
0
0
0
0
5
121
249
255
255
243
63
38
11
53
36
37
54
14
50
41
27
154
246
137
27
28
49
15
56
45
27
52
14
48
81
247
214
21
43
31
31
114
239
104
39
23
50
29
216
207
26
45
24
32
101
248
205
22
43
32
31
53
22
44
41
23
50
28
216
255
163
24
28
47
22
181
240
89
43
14
48
82
244
205
22
43
32
31
53
24
56
49
34
55
38
219
245
63
38
11
53
36
37
56
26
57
48
35
154
252
255
196
12
0
0
0
0
0
0
0
0
0
0
0
0
0
0
0
0
0
0
0
0
66
244
255
255
241
39
11
3
17
12
5
13
3
16
14
11
129
243
115
12
8
16
3
13
10
6
17
4
15
57
242
202
11
12
11
8
91
235
74
13
6
14
16
198
190
15
10
6
10
84
245
189
13
12
12
8
14
0
11
15
7
14
15
200
255
146
8
8
13
11
162
223
70
9
4
15
57
238
189
13
12
12
8
14
0
13
11
4
11
12
202
243
40
11
3
17
12
5
12
0
13
11
7
124
251
253
141
7
0
0
0
0
0
0
0
0
0
0
0
0
0
0
0
0
0
0
0
0
22
224
255
255
243
72
75
20
80
56
40
80
19
81
73
32
165
247
145
49
51
77
16
80
65
33
83
26
76
96
248
218
26
83
55
40
135
241
114
65
34
84
35
227
221
33
70
37
49
128
250
209
27
83
55
41
77
16
63
69
34
84
35
226
255
168
46
51
75
24
204
250
94
74
26
76
96
246
210
27
83
55
41
77
21
79
67
34
84
35
229
245
73
75
20
80
56
40
80
19
81
73
32
164
255
248
82
1
0
0
0
0
0
0
0
0
0
0
0
0
0
0
0
0
0
0
0
0
9
166
253
255
241
30
8
3
14
13
7
17
3
15
12
10
133
242
107
9
6
13
3
17
15
6
15
3
11
57
244
197
11
12
9
8
97
236
70
11
5
12
16
203
186
14
9
7
9
90
246
183
12
12
10
7
17
2
13
13
6
11
12
204
255
141
8
7
10
11
167
223
69
8
3
13
61
240
184
12
12
10
7
17
3
17
13
6
12
15
207
242
33
10
3
14
13
7
17
3
15
12
10
131
253
230
28
0
0
0
0
0
0
0
0
0
0
0
0
0
0
0
0
0
0
0
0
0
2
93
247
255
242
56
45
8
38
31
16
38
6
37
37
15
149
244
124
43
21
36
7
42
35
12
35
10
50
88
247
202
14
38
26
19
118
238
85
30
11
38
23
216
198
18
29
18
21
108
247
188
16
38
27
19
39
5
31
33
12
43
40
219
255
147
24
20
34
15
189
235
75
25
9
38
78
243
189
16
38
27
19
39
8
39
32
12
38
22
220
243
42
35
8
38
31
16
38
6
37
37
15
148
249
169
9
0
0
0
0
0
0
0
0
0
0
0
0
0
0
0
0
0
0
0
0
0
0
28
224
255
254
229
172
18
57
43
23
57
15
59
53
21
162
251
243
216
44
54
11
56
49
20
57
26
202
238
255
207
19
52
43
27
131
239
94
49
20
56
31
226
202
21
55
31
32
117
248
198
20
52
44
26
54
8
46
52
23
144
224
253
255
156
33
29
55
19
201
240
82
51
17
52
93
245
199
20
52
44
26
54
12
58
52
20
56
30
230
245
54
49
11
59
43
23
57
15
59
53
21
165
244
88
2
0
0
0
0
0
0
0
0
0
0
0
0
0
0
0
0
0
0
0
0
0
0
7
149
253
255
255
172
13
10
10
5
12
4
13
10
10
137
250
255
243
24
10
4
12
11
5
10
16
209
255
255
188
11
9
9
9
104
234
55
11
5
10
19
209
178
14
10
7
9
96
245
174
13
9
11
7
12
4
10
11
10
135
253
255
255
134
7
6
10
14
172
209
63
10
5
11
68
242
175
13
9
11
7
12
4
12
13
5
10
18
214
242
26
9
4
13
10
5
12
4
13
10
11
140
211
25
0
0
0
0
0
0
0
0
0
0
0
0
0
0
0
0
0
0
0
0
0
0
0
0
59
239
255
255
208
101
129
125
105
130
101
131
127
102
198
254
255
246
115
126
99
131
125
103
132
108
238
255
255
222
101
123
120
108
183
246
152
131
100
126
111
241
222
102
125
114
110
171
251
216
101
123
120
107
131
97
121
132
102
194
254
255
255
189
113
106
127
104
227
248
143
128
101
124
155
249
217
101
123
120
107
131
100
130
132
100
126
111
243
248
122
122
97
130
125
105
130
101
131
127
104
194
128
6
0
0
0
0
0
0
0
0
0
0
0
0
0
0
0
0
0
0
0
0
0
0
0
0
11
172
253
255
253
247
250
249
248
250
247
250
250
247
253
255
255
254
248
249
247
250
249
247
250
248
255
255
255
254
247
249
249
248
252
255
251
250
247
249
248
255
254
247
249
248
248
251
255
254
247
249
249
248
250
247
249
250
247
253
255
255
255
252
248
248
250
247
255
255
250
250
247
249
251
255
254
247
249
249
248
250
247
250
250
247
249
248
255
255
249
249
247
250
249
248
250
247
250
250
247
224
38
0
0
0
0
0
0
0
0
0
0
0
0
0
0
0
0
0
0
0
0
0
0
0
0
0
0
74
244
255
255
255
255
255
255
255
255
255
255
255
255
255
255
255
255
255
255
255
255
255
255
255
255
255
255
255
255
255
255
255
255
255
255
255
255
255
255
255
255
255
255
255
255
255
255
255
255
255
255
255
255
255
255
255
255
255
255
255
255
255
255
255
255
255
255
255
255
255
255
255
255
255
255
255
255
255
255
255
255
255
255
255
255
255
255
255
255
255
255
255
255
255
255
255
255
255
254
148
7
0
0
0
0
0
0
0
0
0
0
0
0
