P2
# CREATOR: GIMP PNM Filter Version 1.1
128 32
255
0
0
0
0
0
0
0
0
0
0
0
0
0
0
0
0
0
0
0
0
0
0
0
0
15
245
241
28
173
254
255
255
255
255
255
255
255
255
255
255
255
255
208
175
10
0
0
0
0
0
0
0
0
0
0
0
0
13
165
19
53
65
63
63
63
63
63
62
62
60
78
184
176
63
2
0
0
0
5
121
228
142
129
137
138
142
195
242
172
12
4
59
64
63
63
62
67
119
128
172
121
58
3
0
0
17
244
245
15
0
0
0
0
0
0
0
0
0
0
0
0
0
0
0
0
0
0
0
0
0
0
0
0
0
0
0
0
0
0
0
0
0
0
0
0
0
0
0
0
0
0
0
15
242
248
69
74
243
255
255
255
255
255
255
255
255
255
255
255
255
125
105
15
1
0
0
0
0
0
0
0
0
0
0
1
16
109
9
5
56
64
63
63
62
62
67
66
78
178
122
17
4
0
0
0
0
0
8
25
167
191
219
232
230
177
72
19
55
60
63
63
63
63
63
63
67
64
18
7
4
0
0
0
69
249
242
15
0
0
0
0
0
0
0
0
0
0
0
0
0
0
0
0
0
0
0
0
0
0
0
0
0
0
0
0
0
0
0
0
0
0
0
0
0
0
0
0
0
0
0
10
183
249
130
17
174
253
255
255
255
255
255
255
255
255
255
251
187
49
7
106
7
0
0
0
0
0
0
0
0
0
0
7
107
15
0
0
3
56
61
60
65
73
121
122
169
174
17
0
0
0
0
0
0
0
0
0
23
176
69
18
17
12
8
53
64
64
63
63
63
63
63
63
62
62
53
4
0
0
0
5
132
249
183
10
0
0
0
0
0
0
0
0
0
0
0
0
0
0
0
0
0
0
0
0
0
0
0
0
0
0
0
0
0
0
0
0
0
0
0
0
0
0
0
0
0
0
0
1
74
250
237
9
15
177
249
255
255
255
255
255
255
255
248
180
23
6
11
112
21
0
0
0
0
0
0
0
0
0
0
22
107
4
10
15
18
71
75
78
122
114
114
70
143
27
0
0
0
0
0
0
0
0
0
0
1
64
61
0
0
0
55
65
63
63
63
63
63
63
63
63
63
63
65
60
2
0
0
12
237
250
74
1
0
0
0
0
0
0
0
0
0
0
0
0
0
0
0
0
0
0
0
0
0
0
0
0
0
0
0
0
0
0
0
0
0
0
0
0
0
0
0
0
0
0
0
0
16
242
246
20
0
14
127
235
244
249
253
253
248
237
134
71
56
58
58
76
161
24
3
0
0
0
0
0
0
3
26
148
18
21
176
239
240
243
243
243
185
32
9
6
85
10
0
0
0
0
0
0
0
0
0
0
0
3
122
19
0
7
60
64
63
63
63
63
63
63
63
63
63
62
68
110
15
0
0
20
246
242
16
0
0
0
0
0
0
0
0
0
0
0
0
0
0
0
0
0
0
0
0
0
0
0
0
0
0
0
0
0
0
0
0
0
0
0
0
0
0
0
0
0
0
0
0
0
9
188
249
128
4
0
5
18
70
127
185
185
131
77
64
61
64
64
63
66
131
169
68
16
10
4
4
10
16
71
153
26
72
230
254
255
255
255
255
255
252
228
79
63
61
4
0
0
0
0
0
0
0
0
0
0
0
1
127
19
0
56
64
63
63
63
63
63
63
63
63
63
63
63
63
73
108
6
2
128
249
188
9
0
0
0
0
0
0
0
0
0
0
0
0
0
0
0
0
0
0
0
0
0
0
0
0
0
0
0
0
0
0
0
0
0
0
0
0
0
0
0
0
0
0
0
0
0
5
123
254
237
16
0
0
0
0
13
66
70
65
60
62
63
63
63
63
62
70
125
129
161
113
62
62
113
165
113
17
73
235
255
255
255
255
255
255
255
255
255
243
193
92
0
0
0
0
0
0
0
0
0
0
0
0
2
126
19
0
60
64
63
63
63
63
63
63
63
63
63
63
63
62
68
120
5
14
237
254
123
5
0
0
0
0
0
0
0
0
0
0
0
0
0
0
0
0
0
0
0
0
0
0
0
0
0
0
0
0
0
0
0
0
0
0
0
0
0
0
0
0
0
0
0
0
0
0
21
242
251
74
1
0
0
6
54
61
61
62
63
63
63
63
63
63
63
61
71
118
24
12
58
58
14
15
9
21
231
255
255
255
255
255
255
255
255
255
255
255
254
114
0
0
0
0
0
0
0
0
0
0
0
0
1
126
19
0
59
64
63
63
63
63
63
63
63
63
63
63
63
61
74
167
14
70
251
242
21
0
0
0
0
0
0
0
0
0
0
0
0
0
0
0
0
0
0
0
0
0
0
0
0
0
0
0
0
0
0
0
0
0
0
0
0
0
0
0
0
0
0
0
0
0
0
0
8
182
255
182
7
0
4
56
65
63
63
63
63
63
63
63
63
63
63
62
67
116
60
1
4
4
0
0
8
176
255
255
255
255
255
255
255
255
255
255
255
255
255
158
1
0
0
0
0
0
0
0
0
0
0
0
3
125
19
0
59
64
63
63
63
63
63
63
63
63
63
63
63
61
73
170
21
178
255
182
8
0
0
0
0
0
0
0
0
0
0
0
0
0
0
0
0
0
0
0
0
0
0
0
0
0
0
0
0
0
0
0
0
0
0
0
0
0
0
0
0
0
0
0
0
0
0
0
1
73
247
242
24
0
4
60
64
63
63
63
63
63
63
63
63
63
63
63
62
72
116
9
0
0
0
0
14
239
255
255
255
255
255
255
255
255
255
255
255
255
255
236
20
0
0
0
0
0
0
0
0
0
0
2
67
101
9
2
59
64
63
63
63
63
63
63
63
63
63
63
63
61
76
165
38
239
247
73
1
0
0
0
0
0
0
0
0
0
0
0
0
0
0
0
0
0
0
0
0
0
0
0
0
0
0
0
0
0
0
0
0
0
0
0
0
0
0
0
0
0
0
0
0
0
0
0
0
11
182
255
178
10
0
59
64
63
63
63
63
63
63
63
63
63
63
63
61
73
169
14
0
0
0
0
18
241
255
255
255
255
255
255
255
255
255
255
255
255
255
250
126
7
0
0
0
0
0
0
0
0
0
20
168
57
0
4
60
64
63
63
63
63
63
63
63
63
63
63
62
66
123
133
186
253
182
11
0
0
0
0
0
0
0
0
0
0
0
0
0
0
0
0
0
0
0
0
0
0
0
0
0
0
0
0
0
0
0
0
0
0
0
0
0
0
0
0
0
0
0
0
0
0
0
0
0
0
73
248
248
72
2
58
64
63
63
63
63
63
63
63
63
63
63
63
61
73
174
14
0
0
0
0
69
244
255
255
255
255
255
255
255
255
255
255
255
255
255
252
181
68
10
0
0
0
0
0
0
0
15
106
72
15
0
2
55
65
63
63
63
63
63
63
63
63
63
63
60
74
172
142
250
247
73
0
0
0
0
0
0
0
0
0
0
0
0
0
0
0
0
0
0
0
0
0
0
0
0
0
0
0
0
0
0
0
0
0
0
0
0
0
0
0
0
0
0
0
0
0
0
0
0
0
0
0
11
178
255
181
19
56
64
63
63
63
63
63
63
63
63
63
63
63
61
77
169
14
0
0
0
0
69
245
255
255
255
255
255
255
255
255
255
255
255
255
255
243
83
112
111
21
10
4
4
4
8
20
112
74
13
8
8
8
10
54
63
63
63
63
63
63
63
63
63
60
70
125
133
193
254
178
11
0
0
0
0
0
0
0
0
0
0
0
0
0
0
0
0
0
0
0
0
0
0
0
0
0
0
0
0
0
0
0
0
0
0
0
0
0
0
0
0
0
0
0
0
0
0
0
0
0
0
0
0
24
238
252
131
63
62
63
63
63
63
63
63
63
63
63
63
62
67
121
125
9
0
0
0
0
18
239
255
255
255
255
255
255
255
255
255
255
255
255
255
239
16
8
69
161
114
63
58
61
120
170
133
121
118
119
120
117
62
17
57
64
63
62
62
62
62
61
61
75
126
171
145
250
238
24
0
0
0
0
0
0
0
0
0
0
0
0
0
0
0
0
0
0
0
0
0
0
0
0
0
0
0
0
0
0
0
0
0
0
0
0
0
0
0
0
0
0
0
0
0
0
0
0
0
0
0
0
0
2
127
253
242
80
59
63
63
63
63
63
63
63
63
63
63
62
66
131
113
6
0
0
0
0
9
181
255
255
255
255
255
255
255
255
255
255
255
255
255
196
8
0
3
14
14
57
59
71
126
134
128
128
129
129
129
129
125
116
74
61
64
69
69
68
68
72
81
168
118
90
240
253
127
2
0
0
0
0
0
0
0
0
0
0
0
0
0
0
0
0
0
0
0
0
0
0
0
0
0
0
0
0
0
0
0
0
0
0
0
0
0
0
0
0
0
0
0
0
0
0
0
0
0
0
0
0
0
0
14
178
255
186
75
61
63
63
63
63
63
63
63
63
63
60
81
162
17
4
10
15
15
9
0
71
244
255
255
255
255
255
255
255
255
255
255
255
255
115
0
0
0
0
0
3
16
117
128
126
127
127
127
127
127
127
127
134
170
77
60
112
117
119
124
170
167
68
24
179
255
178
14
0
0
0
0
0
0
0
0
0
0
0
0
0
0
0
0
0
0
0
0
0
0
0
0
0
0
0
0
0
0
0
0
0
0
0
0
0
0
0
0
0
0
0
0
0
0
0
0
0
0
0
0
0
0
0
0
23
233
255
184
71
60
63
63
63
63
63
63
62
60
79
167
80
17
59
113
166
167
109
12
18
174
252
255
255
255
255
255
255
255
255
255
252
188
52
0
0
0
0
0
0
85
133
127
127
127
127
127
127
127
127
127
127
139
171
21
9
12
61
62
17
12
7
125
253
234
23
0
0
0
0
0
0
0
0
0
0
0
0
0
0
0
0
0
0
0
0
0
0
0
0
0
0
0
0
0
0
0
0
0
0
0
0
0
0
0
0
0
0
0
0
0
0
0
0
0
0
0
0
0
0
0
0
0
0
77
243
251
135
67
61
63
62
62
61
62
65
81
171
141
124
158
65
12
15
15
17
107
104
39
173
248
255
255
255
255
255
255
255
248
175
19
1
0
0
0
0
0
7
96
133
127
127
127
127
127
127
127
127
127
126
131
184
123
5
0
2
2
0
0
76
244
244
77
0
0
0
0
0
0
0
0
0
0
0
0
0
0
0
0
0
0
0
0
0
0
0
0
0
0
0
0
0
0
0
0
0
0
0
0
0
0
0
0
0
0
0
0
0
0
0
0
0
0
0
0
0
0
0
0
0
0
0
6
127
252
246
134
67
62
69
70
73
73
125
167
141
169
69
16
4
0
0
0
0
9
22
145
39
123
234
244
249
253
253
248
238
131
18
1
3
4
0
0
0
8
112
127
127
127
127
127
127
127
127
127
127
127
127
125
142
227
16
0
0
0
1
77
239
254
127
6
0
0
0
0
0
0
0
0
0
0
0
0
0
0
0
0
0
0
0
0
0
0
0
0
0
0
0
0
0
0
0
0
0
0
0
0
0
0
0
0
0
0
0
0
0
0
0
0
0
0
0
0
0
0
0
0
0
0
0
0
14
177
255
246
133
66
109
121
168
134
109
27
116
70
6
0
0
0
0
0
0
0
0
26
151
24
15
70
127
185
185
131
77
64
56
59
60
56
7
3
0
8
121
130
127
127
127
127
127
127
127
127
127
127
127
125
138
234
22
0
0
1
77
238
255
177
14
0
0
0
0
0
0
0
0
0
0
0
0
0
0
0
0
0
0
0
0
0
0
0
0
0
0
0
0
0
0
0
0
0
0
0
0
0
0
0
0
0
0
0
0
0
0
0
0
0
0
0
0
0
0
0
0
0
0
0
0
0
0
19
177
255
242
81
9
7
13
10
7
13
105
11
0
0
0
0
0
0
0
0
0
1
71
113
4
0
13
66
70
65
60
62
64
64
64
64
60
56
4
7
119
129
127
127
127
127
127
127
127
127
127
127
127
125
138
237
69
0
1
77
238
255
177
19
0
0
0
0
0
0
0
0
0
0
0
0
0
0
0
0
0
0
0
0
0
0
0
0
0
0
0
0
0
0
0
0
0
0
0
0
0
0
0
0
0
0
0
0
0
0
0
0
0
0
0
0
0
0
0
0
0
0
0
0
0
0
0
0
19
177
255
238
75
3
0
0
8
109
16
0
0
0
0
0
0
0
0
0
0
0
16
164
12
2
54
61
61
62
63
63
63
63
63
63
64
65
58
10
118
129
127
127
127
127
127
127
127
127
127
127
127
125
137
237
71
6
77
239
255
177
19
0
0
0
0
0
0
0
0
0
0
0
0
0
0
0
0
0
0
0
0
0
0
0
0
0
0
0
0
0
0
0
0
0
0
0
0
0
0
0
0
0
0
0
0
0
0
0
0
0
0
0
0
0
0
0
0
0
0
0
0
0
0
0
0
0
0
19
177
252
245
127
15
0
13
166
13
0
0
0
0
0
0
0
0
0
0
0
8
111
20
54
65
63
63
63
63
63
63
63
63
63
62
68
108
22
118
129
127
127
127
127
127
127
127
127
127
127
127
125
141
236
85
128
244
252
177
19
0
0
0
0
0
0
0
0
0
0
0
0
0
0
0
0
0
0
0
0
0
0
0
0
0
0
0
0
0
0
0
0
0
0
0
0
0
0
0
0
0
0
0
0
0
0
0
0
0
0
0
0
0
0
0
0
0
0
0
0
0
0
0
0
0
0
0
0
14
127
245
253
188
57
9
169
15
0
0
0
0
0
0
1
2
2
2
1
5
68
113
66
60
61
61
61
61
61
61
61
61
61
61
60
69
120
127
126
126
126
126
126
126
126
127
127
127
127
126
129
188
246
196
250
244
127
14
0
0
0
0
0
0
0
0
0
0
0
0
0
0
0
0
0
0
0
0
0
0
0
0
0
0
0
0
0
0
0
0
0
0
0
0
0
0
0
0
0
0
0
0
0
0
0
0
0
0
0
0
0
0
0
0
0
0
0
0
0
0
0
0
0
0
0
0
0
0
5
78
233
255
234
91
168
10
0
0
0
0
0
8
63
71
70
70
69
74
127
133
78
73
74
74
74
74
74
74
74
74
74
74
72
81
182
140
133
134
134
134
134
134
131
128
127
127
126
124
133
196
254
255
233
78
5
0
0
0
0
0
0
0
0
0
0
0
0
0
0
0
0
0
0
0
0
0
0
0
0
0
0
0
0
0
0
0
0
0
0
0
0
0
0
0
0
0
0
0
0
0
0
0
0
0
0
0
0
0
0
0
0
0
0
0
0
0
0
0
0
0
0
0
0
0
0
0
0
1
28
227
250
248
188
25
5
0
0
0
2
63
177
175
173
173
173
173
176
175
172
172
172
172
172
172
172
172
172
172
172
172
172
172
180
176
175
176
176
176
176
177
186
144
123
125
129
137
192
251
249
228
28
1
0
0
0
0
0
0
0
0
0
0
0
0
0
0
0
0
0
0
0
0
0
0
0
0
0
0
0
0
0
0
0
0
0
0
0
0
0
0
0
0
0
0
0
0
0
0
0
0
0
0
0
0
0
0
0
0
0
0
0
0
0
0
0
0
0
0
0
0
0
0
0
0
0
0
0
14
103
246
250
237
127
19
5
0
0
71
176
27
14
14
14
14
13
13
14
14
14
14
14
14
14
14
14
14
14
14
14
14
12
13
13
13
13
13
13
24
182
147
126
137
191
248
251
240
127
19
0
0
0
0
0
0
0
0
0
0
0
0
0
0
0
0
0
0
0
0
0
0
0
0
0
0
0
0
0
0
0
0
0
0
0
0
0
0
0
0
0
0
0
0
0
0
0
0
0
0
0
0
0
0
0
0
0
0
0
0
0
0
0
0
0
0
0
0
0
0
0
0
0
0
0
0
0
0
5
73
182
252
253
238
127
18
6
67
172
11
0
0
0
0
0
0
0
0
0
0
0
0
0
0
0
0
0
0
0
0
0
0
0
0
0
0
0
9
179
156
188
248
255
245
182
73
7
0
0
0
0
0
0
0
0
0
0
0
0
0
0
0
0
0
0
0
0
0
0
0
0
0
0
0
0
0
0
0
0
0
0
0
0
0
0
0
0
0
0
0
0
0
0
0
0
0
0
0
0
0
0
0
0
0
0
0
0
0
0
0
0
0
0
0
0
0
0
0
0
0
0
0
0
0
0
0
0
1
15
127
237
249
253
237
130
86
172
14
0
0
0
0
0
0
0
0
0
0
0
0
0
0
0
0
0
0
0
0
0
0
0
0
0
0
0
11
180
238
255
247
231
78
10
1
0
0
0
0
0
0
0
0
0
0
0
0
0
0
0
0
0
0
0
0
0
0
0
0
0
0
0
0
0
0
0
0
0
0
0
0
0
0
0
0
0
0
0
0
0
0
0
0
0
0
0
0
0
0
0
0
0
0
0
0
0
0
0
0
0
0
0
0
0
0
0
0
0
0
0
0
0
0
0
0
0
0
0
5
15
78
232
249
249
248
184
10
0
0
0
0
0
0
0
0
0
0
0
0
0
0
0
0
0
0
0
0
0
0
0
0
0
0
0
11
178
237
234
78
15
1
0
0
0
0
0
0
0
0
0
0
0
0
0
0
0
0
0
0
0
0
0
0
0
0
0
0
0
0
0
0
0
0
0
0
0
0
0
0
0
0
0
0
0
0
0
0
0
0
0
0
0
0
0
0
0
0
0
0
0
0
0
0
0
0
0
0
0
0
0
0
0
0
0
0
0
0
0
0
0
0
0
0
0
0
0
0
0
1
16
74
184
241
180
10
0
0
0
0
0
0
0
0
0
0
0
0
0
0
0
0
0
0
0
0
0
0
0
0
0
0
0
8
117
84
16
1
0
0
0
0
0
0
0
0
0
0
0
0
0
0
0
0
0
0
0
0
0
0
0
0
0
0
0
0
0
0
0
0
0
0
0
0
0
0
0
0
0
0
0
0
0
0
0
0
0
0
0
0
0
0
0
0
0
0
0
0
0
0
0
0
0
0
0
0
0
0
0
0
0
0
0
0
0
0
0
0
0
0
0
0
0
0
0
0
0
0
0
1
10
25
116
10
0
0
0
0
0
0
0
0
0
0
0
0
0
0
0
0
0
0
0
0
0
0
0
0
0
0
0
0
6
2
0
0
0
0
0
0
0
0
0
0
0
0
0
0
0
0
0
0
0
0
0
0
0
0
0
0
0
0
0
0
0
0
0
0
0
0
0
0
0
0
0
0
0
0
