P2
# CREATOR: GIMP PNM Filter Version 1.1
128 32
255
0
0
0
0
0
0
0
0
0
0
0
0
0
0
0
0
0
0
0
0
0
0
0
0
10
182
254
255
255
255
255
255
255
255
255
255
255
255
255
173
9
0
0
0
0
0
0
0
0
0
0
0
0
0
0
0
0
0
0
0
0
0
0
0
0
0
0
0
0
0
0
0
0
15
120
129
127
127
127
127
127
127
127
127
129
120
14
0
0
0
0
0
0
5
18
74
137
190
137
74
18
5
0
0
5
130
249
184
10
0
0
0
0
0
0
0
0
0
0
0
0
0
0
0
0
0
0
0
0
0
0
0
0
0
0
0
0
0
0
0
0
0
0
0
0
0
0
0
0
0
0
0
5
124
249
255
254
255
255
255
255
255
255
255
255
255
226
23
0
0
0
0
0
0
0
0
0
0
0
0
0
0
0
0
0
0
0
0
0
0
0
0
0
0
0
0
0
0
0
0
10
112
128
127
127
127
127
127
127
127
127
127
127
129
116
6
0
0
0
0
14
127
234
243
247
251
247
243
234
127
14
0
9
186
249
125
5
0
0
0
0
0
0
0
0
0
0
0
0
0
0
0
0
0
0
0
0
0
0
0
0
0
0
0
0
0
0
0
0
0
0
0
0
0
0
0
0
0
0
0
0
21
244
254
193
240
254
255
255
255
255
255
248
226
31
2
4
4
4
4
4
0
0
0
0
0
0
0
0
0
0
0
0
0
0
0
0
0
0
0
0
0
0
0
0
0
0
3
63
126
128
127
127
127
127
127
127
127
127
127
126
134
176
18
0
0
0
19
177
249
255
255
255
255
255
255
255
249
177
15
14
242
246
21
0
0
0
0
0
0
0
0
0
0
0
0
0
0
0
0
0
0
0
0
0
0
0
0
0
0
0
0
0
0
0
0
0
0
0
0
0
0
0
0
0
0
0
0
0
13
238
248
85
74
180
238
244
244
240
233
130
26
51
60
59
59
59
60
56
7
3
0
0
0
0
0
0
0
0
0
0
0
0
0
0
0
0
0
0
0
0
0
0
0
0
8
117
129
127
127
127
127
127
127
127
127
127
127
126
132
183
124
7
0
11
176
253
255
255
255
255
255
255
255
255
255
252
177
83
247
238
12
0
0
0
0
0
0
0
0
0
0
0
0
0
0
0
0
0
0
0
0
0
0
0
0
0
0
0
0
0
0
0
0
0
0
0
0
0
0
0
0
0
0
0
0
0
5
128
250
180
8
10
19
68
68
18
21
61
57
63
64
64
64
64
64
64
60
56
7
0
0
0
0
0
0
0
0
0
0
0
0
0
0
0
0
0
0
0
0
0
0
0
8
120
129
127
127
127
127
127
127
127
127
127
127
127
125
142
227
16
0
73
244
255
255
255
255
255
255
255
255
255
255
255
249
198
245
128
5
0
0
0
0
0
0
0
0
0
0
0
0
0
0
0
0
0
0
0
0
0
0
0
0
0
0
0
0
0
0
0
0
0
0
0
0
0
0
0
0
0
0
0
0
0
0
20
243
243
19
0
0
0
0
0
51
63
64
63
63
63
63
63
63
63
64
65
56
6
0
0
0
0
0
0
0
0
0
0
0
0
0
0
0
0
0
0
0
0
0
0
8
119
129
127
127
127
127
127
127
127
127
127
127
127
125
137
234
14
5
181
255
255
255
255
255
255
255
255
255
255
255
255
255
254
239
20
0
0
0
0
0
0
0
0
0
0
0
0
0
0
0
0
0
0
0
0
0
0
0
0
0
0
0
0
0
0
0
0
0
0
0
0
0
0
0
0
0
0
0
0
0
0
0
8
183
250
128
3
0
0
0
7
60
64
63
63
63
63
63
63
63
63
63
63
65
59
3
0
0
0
0
0
0
0
0
0
0
0
0
0
0
0
0
0
0
0
0
0
8
119
129
127
127
127
127
127
127
127
127
127
127
127
125
141
233
13
14
239
255
255
255
255
255
255
255
255
255
255
255
255
255
254
181
8
0
0
0
0
0
0
0
0
0
0
0
0
0
0
0
0
0
0
0
0
0
0
0
0
0
0
0
0
0
0
0
0
0
0
0
0
0
0
0
0
0
0
0
0
0
0
0
1
74
252
239
19
0
0
4
56
64
63
63
63
63
63
63
63
63
63
63
62
69
113
11
0
0
0
0
0
0
0
0
0
0
0
0
0
0
0
0
0
0
0
0
0
8
119
129
127
127
127
127
127
127
127
127
127
127
126
130
195
235
17
64
245
255
255
255
255
255
255
255
255
255
255
255
255
255
245
73
1
0
0
0
0
0
0
0
0
0
0
0
0
0
0
0
0
0
0
0
0
0
0
0
0
0
0
0
0
0
0
0
0
0
0
0
0
0
0
0
0
0
0
0
0
0
0
0
0
15
233
255
127
3
0
4
60
64
63
63
63
63
63
63
63
63
63
63
62
68
121
64
3
0
0
0
0
0
0
0
0
0
0
0
0
0
0
0
0
0
0
0
0
7
120
129
127
127
127
127
127
127
127
127
127
127
125
134
245
182
11
65
244
255
255
255
255
255
255
255
255
255
255
255
255
255
240
16
0
0
0
0
0
0
0
0
0
0
0
0
0
0
0
0
0
0
0
0
0
0
0
0
0
0
0
0
0
0
0
0
0
0
0
0
0
0
0
0
0
0
0
0
0
0
0
0
0
0
78
252
239
19
0
4
59
64
63
63
63
63
63
63
63
63
63
63
62
67
125
118
8
0
0
0
0
0
0
0
0
0
0
0
0
0
0
0
0
0
0
2
4
11
115
127
126
127
127
127
127
127
127
127
127
127
125
146
238
75
1
17
241
255
255
255
255
255
255
255
255
255
255
251
255
255
176
9
0
0
0
0
0
0
0
0
0
0
0
0
0
0
0
0
0
0
0
0
0
0
0
0
0
0
0
0
0
0
0
0
0
0
0
0
0
0
0
0
0
0
0
0
0
0
0
0
0
0
14
233
255
128
5
1
59
64
63
63
63
63
63
63
63
63
63
63
62
67
125
122
8
0
0
0
0
0
0
0
0
0
0
0
0
0
0
0
3
14
10
47
63
60
76
130
132
126
127
127
127
127
127
127
128
127
141
239
182
10
0
14
239
255
255
255
255
255
255
255
255
255
246
206
254
237
24
1
0
0
0
0
0
0
0
0
0
0
0
0
0
0
0
0
0
0
0
0
0
0
0
0
0
0
0
0
0
0
0
0
0
0
0
0
0
0
0
0
0
0
0
0
0
0
0
0
0
0
0
78
248
243
76
6
58
64
63
63
63
63
63
63
63
63
63
63
62
67
124
116
7
3
4
4
4
4
4
4
4
0
0
0
0
0
0
10
69
160
117
74
57
63
115
174
187
136
127
126
126
126
127
128
123
126
178
183
73
5
4
9
175
255
255
255
255
255
255
255
255
252
205
248
253
127
2
0
0
0
0
0
0
0
0
0
0
0
0
0
0
0
0
0
0
0
0
0
0
0
0
0
0
0
0
0
0
0
0
0
0
0
0
0
0
0
0
0
0
0
0
0
0
0
0
0
0
0
0
10
177
255
236
76
59
63
63
63
63
63
63
63
63
63
63
63
62
67
124
67
10
55
60
59
59
59
59
60
56
7
3
0
0
0
14
112
113
21
10
5
3
4
9
23
171
189
147
131
133
132
129
120
70
66
72
69
61
60
56
4
26
234
255
255
255
255
255
255
255
250
251
255
232
19
0
0
0
0
0
0
0
0
0
0
0
0
0
0
0
0
0
0
0
0
0
0
0
0
0
0
0
0
0
0
0
0
0
0
0
0
0
0
0
0
0
0
0
0
0
0
0
0
0
0
0
0
0
0
23
233
255
185
71
61
63
63
63
63
63
63
63
63
63
63
60
75
175
72
58
64
64
64
64
64
64
64
64
60
56
6
0
10
112
67
11
0
0
0
0
0
0
0
17
118
172
178
181
181
124
69
61
62
61
61
63
64
64
58
59
138
242
255
255
255
255
255
251
206
255
241
77
0
0
0
0
0
0
0
0
0
0
0
0
0
0
0
0
0
0
0
0
0
0
0
0
0
0
0
0
0
0
0
0
0
0
0
0
0
0
0
0
0
0
0
0
0
0
0
0
0
0
0
0
0
0
0
0
77
242
251
134
62
62
63
63
63
63
63
63
63
63
61
68
130
175
72
62
63
63
63
63
63
63
63
63
64
65
58
6
68
113
11
0
0
0
0
0
0
0
0
0
8
125
39
66
121
71
61
63
63
63
63
63
63
63
63
67
117
141
233
254
255
255
255
255
252
248
127
6
0
0
0
0
0
0
0
0
0
0
0
0
0
0
0
0
0
0
0
0
0
0
0
0
0
0
0
0
0
0
0
0
0
0
0
0
0
0
0
0
0
0
0
0
0
0
0
0
0
0
0
0
0
0
0
0
6
127
253
241
85
58
63
63
63
63
63
63
63
61
69
131
177
78
62
63
63
63
63
63
63
63
63
63
62
69
111
29
159
21
0
0
0
0
0
0
0
0
0
0
0
53
112
17
60
63
63
63
63
63
63
63
63
63
63
62
72
113
34
175
239
242
254
255
254
177
14
0
0
0
0
0
0
0
0
0
0
0
0
0
0
0
0
0
0
0
0
0
0
0
0
0
0
0
0
0
0
0
0
0
0
0
0
0
0
0
0
0
0
0
0
0
0
0
0
0
0
0
0
0
0
0
0
0
0
14
177
255
236
84
58
62
62
62
62
61
61
71
131
178
128
64
62
63
63
63
63
63
63
63
63
63
62
67
120
127
121
6
0
0
0
0
0
0
0
0
0
0
0
15
170
69
60
63
63
63
63
63
63
63
63
63
63
62
67
116
59
11
13
88
247
255
177
19
0
0
0
0
0
0
0
0
0
0
0
0
0
0
0
0
0
0
0
0
0
0
0
0
0
0
0
0
0
0
0
0
0
0
0
0
0
0
0
0
0
0
0
0
0
0
0
0
0
0
0
0
0
0
0
0
0
0
0
0
23
228
255
234
84
59
68
69
69
72
72
122
168
76
64
63
63
63
63
63
63
63
63
63
63
63
63
61
76
176
71
2
0
0
0
0
0
0
0
0
0
0
0
13
173
75
61
63
63
63
63
63
63
63
63
63
63
63
62
73
116
0
12
178
255
228
23
0
0
0
0
0
0
0
0
0
0
0
0
0
0
0
0
0
0
0
0
0
0
0
0
0
0
0
0
0
0
0
0
0
0
0
0
0
0
0
0
0
0
0
0
0
0
0
0
0
0
0
0
0
0
0
0
0
0
0
0
0
0
27
228
255
233
87
106
115
116
153
119
63
14
5
58
64
63
63
63
63
63
63
63
63
63
63
63
61
72
178
67
2
0
0
0
0
0
0
0
0
0
0
0
14
172
74
61
63
63
63
63
63
63
63
63
63
63
63
61
72
166
37
175
255
229
28
0
0
0
0
0
0
0
0
0
0
0
0
0
0
0
0
0
0
0
0
0
0
0
0
0
0
0
0
0
0
0
0
0
0
0
0
0
0
0
0
0
0
0
0
0
0
0
0
0
0
0
0
0
0
0
0
0
0
0
0
0
0
0
0
27
228
255
232
36
10
8
12
9
3
0
3
59
64
63
63
63
63
63
63
63
63
63
63
63
61
72
178
72
2
0
0
0
0
0
0
0
0
0
0
0
13
173
74
61
63
63
63
63
63
63
63
63
63
63
63
60
68
190
240
255
229
28
0
0
0
0
0
0
0
0
0
0
0
0
0
0
0
0
0
0
0
0
0
0
0
0
0
0
0
0
0
0
0
0
0
0
0
0
0
0
0
0
0
0
0
0
0
0
0
0
0
0
0
0
0
0
0
0
0
0
0
0
0
0
0
0
0
0
27
228
255
230
75
0
0
0
0
0
4
59
64
63
63
63
63
63
63
63
63
63
63
63
61
74
180
123
5
0
0
0
0
0
0
0
0
0
0
0
15
171
74
61
63
63
63
63
63
63
63
63
63
63
61
62
85
242
255
229
27
0
0
0
0
0
0
0
0
0
0
0
0
0
0
0
0
0
0
0
0
0
0
0
0
0
0
0
0
0
0
0
0
0
0
0
0
0
0
0
0
0
0
0
0
0
0
0
0
0
0
0
0
0
0
0
0
0
0
0
0
0
0
0
0
0
0
0
0
27
227
255
238
81
24
0
0
0
4
60
64
63
63
63
61
61
61
61
61
61
61
60
65
123
127
111
13
0
0
1
6
10
12
6
0
0
0
0
52
116
65
60
61
61
61
62
63
63
63
63
62
59
71
134
239
254
227
27
0
0
0
0
0
0
0
0
0
0
0
0
0
0
0
0
0
0
0
0
0
0
0
0
0
0
0
0
0
0
0
0
0
0
0
0
0
0
0
0
0
0
0
0
0
0
0
0
0
0
0
0
0
0
0
0
0
0
0
0
0
0
0
0
0
0
0
0
0
0
23
177
252
248
191
22
1
0
4
56
64
63
63
63
70
73
73
72
72
72
72
70
81
177
78
28
110
19
12
66
122
167
182
122
20
14
14
16
127
41
67
74
73
73
71
65
63
63
63
61
63
80
184
252
255
177
23
0
0
0
0
0
0
0
0
0
0
0
0
0
0
0
0
0
0
0
0
0
0
0
0
0
0
0
0
0
0
0
0
0
0
0
0
0
0
0
0
0
0
0
0
0
0
0
0
0
0
0
0
0
0
0
0
0
0
0
0
0
0
0
0
0
0
0
0
0
0
0
0
14
127
242
255
233
78
10
0
5
60
64
61
71
175
179
177
177
177
177
177
177
178
185
177
177
187
179
178
183
183
187
187
182
173
173
173
173
182
173
176
177
176
178
184
97
57
61
59
71
134
240
255
246
176
19
0
0
0
0
0
0
0
0
0
0
0
0
0
0
0
0
0
0
0
0
0
0
0
0
0
0
0
0
0
0
0
0
0
0
0
0
0
0
0
0
0
0
0
0
0
0
0
0
0
0
0
0
0
0
0
0
0
0
0
0
0
0
0
0
0
0
0
0
0
0
0
0
0
0
7
66
194
253
248
178
23
5
52
61
60
72
178
78
72
136
142
141
141
141
141
138
144
195
197
198
199
194
144
134
76
67
70
70
70
70
68
70
69
69
67
78
187
100
54
68
81
185
250
252
231
78
10
0
0
0
0
0
0
0
0
0
0
0
0
0
0
0
0
0
0
0
0
0
0
0
0
0
0
0
0
0
0
0
0
0
0
0
0
0
0
0
0
0
0
0
0
0
0
0
0
0
0
0
0
0
0
0
0
0
0
0
0
0
0
0
0
0
0
0
0
0
0
0
0
0
0
0
0
0
16
127
238
253
238
127
27
64
64
76
172
11
13
234
246
246
246
246
246
246
246
251
251
251
251
251
247
236
65
1
2
2
2
2
2
2
2
2
1
14
180
105
75
185
245
252
241
127
19
1
0
0
0
0
0
0
0
0
0
0
0
0
0
0
0
0
0
0
0
0
0
0
0
0
0
0
0
0
0
0
0
0
0
0
0
0
0
0
0
0
0
0
0
0
0
0
0
0
0
0
0
0
0
0
0
0
0
0
0
0
0
0
0
0
0
0
0
0
0
0
0
0
0
0
0
0
0
0
0
5
24
178
248
249
241
189
132
132
176
7
10
237
255
255
255
255
255
255
255
255
255
255
255
255
255
241
18
0
0
0
0
0
0
0
0
0
0
11
178
196
244
252
246
182
73
7
0
0
0
0
0
0
0
0
0
0
0
0
0
0
0
0
0
0
0
0
0
0
0
0
0
0
0
0
0
0
0
0
0
0
0
0
0
0
0
0
0
0
0
0
0
0
0
0
0
0
0
0
0
0
0
0
0
0
0
0
0
0
0
0
0
0
0
0
0
0
0
0
0
0
0
0
0
0
0
0
0
0
0
12
73
183
242
248
249
201
178
9
2
127
252
255
255
255
255
255
255
255
255
255
255
255
255
196
8
0
0
0
0
0
0
0
0
0
0
11
179
236
243
182
73
12
1
0
0
0
0
0
0
0
0
0
0
0
0
0
0
0
0
0
0
0
0
0
0
0
0
0
0
0
0
0
0
0
0
0
0
0
0
0
0
0
0
0
0
0
0
0
0
0
0
0
0
0
0
0
0
0
0
0
0
0
0
0
0
0
0
0
0
0
0
0
0
0
0
0
0
0
0
0
0
0
0
0
0
0
0
0
1
10
20
128
238
246
183
10
0
19
231
255
255
255
255
255
255
255
255
255
255
255
250
113
0
0
0
0
0
0
0
0
0
0
0
12
182
145
20
10
1
0
0
0
0
0
0
0
0
0
0
0
0
0
0
0
0
0
0
0
0
0
0
0
0
0
0
0
0
0
0
0
0
0
0
0
0
0
0
0
0
0
0
0
0
0
0
0
0
0
0
0
0
0
0
0
0
0
0
0
0
0
0
0
0
0
0
0
0
0
0
0
0
0
0
0
0
0
0
0
0
0
0
0
0
0
0
0
0
0
0
5
21
132
178
13
0
0
77
235
255
255
255
255
255
255
255
255
255
247
134
34
0
0
0
0
0
0
0
0
0
0
0
13
181
99
0
0
0
0
0
0
0
0
0
0
0
0
0
0
0
0
0
0
0
0
0
0
0
0
0
0
0
0
0
0
0
0
0
0
0
0
0
0
0
0
0
0
0
0
0
0
0
0
0
0
0
0
0
0
0
0
0
0
0
0
0
0
0
0
0
0
0
0
0
0
0
0
0
0
0
0
0
0
0
0
0
0
0
0
0
0
0
0
0
0
0
0
0
0
0
71
173
14
0
0
1
77
234
251
255
255
255
255
255
255
247
180
19
4
4
4
4
4
4
4
4
0
0
0
0
13
181
97
0
0
0
0
0
0
0
0
0
0
0
0
0
0
0
0
0
0
0
0
0
0
0
0
0
0
0
0
0
0
0
0
0
0
0
0
0
0
0
0
0
0
0
0
0
0
0
0
0
0
0
0
0
0
0
0
0
0
0
0
0
0
0
0
0
0
0
0
0
0
0
0
0
0
0
0
0
0
0
0
0
0
0
0
0
0
0
0
0
0
0
0
0
0
2
69
173
14
0
0
0
3
77
192
253
255
255
255
255
248
138
71
57
59
59
59
59
59
59
60
55
4
0
0
0
13
181
98
0
0
0
0
0
0
0
0
0
0
0
0
0
0
0
0
0
0
0
0
0
0
0
0
0
0
0
0
0
0
0
0
0
0
0
0
0
0
0
0
0
0
0
0
