P2
# CREATOR: GIMP PNM Filter Version 1.1
128 32
255
255
255
255
255
255
255
255
255
255
255
255
255
255
255
255
255
255
255
255
255
255
255
255
255
255
255
255
255
255
255
255
255
255
255
255
255
255
255
255
255
255
255
255
255
255
255
255
255
255
255
255
255
255
255
255
255
255
255
255
255
255
255
255
255
255
255
255
255
255
255
255
255
255
255
255
255
255
255
255
255
255
255
255
255
255
255
255
255
255
255
255
255
255
255
255
255
255
255
255
255
255
255
255
255
255
255
255
255
255
255
255
255
255
255
255
255
255
255
255
255
255
255
255
255
255
255
255
255
255
255
255
255
255
255
255
255
255
255
255
255
255
255
255
255
255
255
255
255
255
255
255
255
255
255
255
255
255
255
255
255
255
255
255
255
255
255
255
255
255
255
255
181
140
24
0
0
0
0
0
0
0
0
0
0
0
0
0
0
0
0
0
0
0
0
0
0
0
0
0
0
0
0
0
0
82
140
255
255
255
255
255
255
255
255
255
255
255
255
255
255
255
255
255
255
255
255
255
255
255
255
255
255
255
255
255
255
255
255
255
255
255
255
255
255
255
255
255
255
255
255
255
255
255
255
255
255
255
255
255
255
255
255
255
255
255
255
255
255
255
255
255
255
255
255
255
255
255
255
255
255
255
255
255
255
255
255
255
255
255
255
24
0
0
0
0
0
0
0
0
0
0
0
0
0
0
0
0
0
0
0
0
0
0
0
0
0
0
0
0
0
0
0
0
0
0
0
0
0
0
0
0
0
0
0
0
0
0
0
0
0
0
0
24
181
255
255
255
255
255
255
255
255
255
255
255
255
255
255
255
255
255
255
255
255
255
255
255
255
255
255
255
255
255
255
255
255
255
255
255
255
255
255
255
255
255
255
255
255
255
255
255
255
255
255
255
255
255
255
255
255
255
255
255
255
255
255
255
255
255
255
255
255
0
0
0
0
0
0
0
0
0
0
0
0
0
0
0
0
0
0
0
0
0
0
0
0
0
0
0
0
24
82
82
82
82
82
115
82
82
24
24
0
0
0
0
0
0
0
0
0
0
0
0
0
0
0
0
0
0
0
0
0
0
0
0
0
0
24
255
255
255
255
255
255
255
255
255
255
255
255
255
255
255
255
255
255
255
255
255
255
255
255
255
255
255
255
255
255
255
255
255
255
255
255
255
255
255
255
255
255
255
255
255
255
255
255
255
255
255
255
255
255
255
255
255
0
0
0
0
0
0
0
0
0
0
0
0
0
0
0
0
0
0
82
181
255
255
255
255
255
255
255
255
255
255
255
255
255
255
255
255
255
255
255
255
255
255
255
255
255
255
255
255
255
255
255
255
255
255
255
255
255
82
0
0
0
0
0
0
0
0
0
0
0
0
0
0
0
0
0
24
181
255
255
255
255
255
255
255
255
255
255
255
255
255
255
255
255
255
255
255
255
255
255
255
255
255
255
255
255
255
255
255
255
255
255
255
255
255
255
255
255
255
255
255
255
255
255
255
0
0
0
0
0
0
0
0
0
0
0
0
0
0
115
255
255
255
255
255
255
255
255
255
255
255
255
255
255
255
255
255
255
255
255
255
255
255
255
255
255
255
255
255
255
255
255
255
255
255
255
255
255
255
255
255
255
255
255
255
255
255
255
255
255
255
255
255
255
231
0
0
0
0
0
0
0
0
0
0
0
0
0
0
140
255
255
255
255
255
255
255
255
255
255
255
255
255
255
255
255
255
255
255
255
255
255
255
255
255
255
255
255
255
255
255
255
255
255
255
255
255
255
255
255
0
0
0
0
0
0
0
0
0
0
0
0
255
255
255
255
255
255
255
255
255
255
255
255
255
255
255
255
255
115
24
0
0
0
0
0
0
0
0
0
0
0
0
0
0
0
0
0
0
0
0
0
0
0
0
0
0
0
0
0
0
115
255
255
255
255
255
255
255
255
255
255
255
255
255
255
255
181
0
0
0
0
0
0
0
0
0
0
0
0
0
255
255
255
255
255
255
255
255
255
255
255
255
255
255
255
255
255
255
255
255
255
255
255
255
255
255
255
255
255
255
255
255
255
255
0
0
0
0
0
0
0
0
0
0
24
181
255
255
255
255
255
255
255
255
255
255
255
255
181
82
0
0
0
0
0
0
0
0
0
0
0
0
0
0
0
0
0
0
0
0
0
0
0
0
0
0
0
0
0
0
0
0
0
0
0
0
0
0
0
0
0
0
0
0
0
115
255
255
255
255
255
255
255
255
255
255
255
255
231
0
0
0
0
0
0
0
0
0
0
0
24
231
255
255
255
255
255
255
255
255
255
255
255
255
255
255
255
255
255
255
255
255
255
255
255
255
255
255
255
0
0
0
0
0
0
0
0
0
0
24
255
255
255
255
255
255
255
255
255
255
255
231
82
0
0
0
0
0
0
0
0
0
0
0
0
0
24
231
255
255
255
255
255
255
255
255
255
255
255
255
255
255
255
255
255
255
255
255
255
255
255
255
255
181
115
0
0
0
0
0
0
0
0
0
0
0
0
0
231
255
255
255
255
255
255
255
255
255
255
181
0
0
0
0
0
0
0
0
0
0
0
255
255
255
255
255
255
255
255
255
255
255
255
255
255
255
255
255
255
255
255
255
255
255
255
0
0
0
0
0
0
0
0
0
115
255
255
255
255
255
255
255
255
255
255
255
115
0
0
0
0
0
0
0
0
0
0
0
181
255
255
255
255
255
255
255
255
255
255
255
255
255
255
255
255
255
255
255
255
255
255
255
255
255
255
255
255
255
255
255
255
255
255
255
255
255
255
255
82
0
0
0
0
0
0
0
0
0
0
115
255
255
255
255
255
255
255
255
255
255
0
0
0
0
0
0
0
0
0
0
0
255
255
255
255
255
255
255
255
255
255
255
255
255
255
255
255
255
255
255
255
255
0
0
0
0
0
0
0
0
24
255
255
255
255
255
255
255
255
255
255
181
0
0
0
0
0
0
0
0
0
0
255
255
255
255
255
255
255
255
255
255
255
231
140
0
0
0
0
0
0
0
0
0
0
0
0
0
0
0
0
0
0
0
0
0
0
0
0
231
255
255
255
255
255
255
255
255
255
255
140
0
0
0
0
0
0
0
0
0
82
255
255
255
255
255
255
255
255
255
0
0
0
0
0
0
0
0
0
0
24
255
255
255
255
255
255
255
255
255
255
255
255
255
255
255
255
255
0
0
0
0
0
0
0
0
82
255
255
255
255
255
255
255
255
255
140
0
0
0
0
0
0
0
0
0
82
255
255
255
255
255
255
255
255
255
24
0
0
0
0
0
0
0
0
0
0
0
0
82
140
255
255
255
255
255
255
255
255
231
82
24
0
0
0
0
0
0
0
0
0
0
0
255
255
255
255
255
255
255
255
255
0
0
0
0
0
0
0
0
0
255
255
255
255
255
255
255
255
255
0
0
0
0
0
0
0
0
0
0
181
255
255
255
255
255
255
255
255
255
255
255
255
255
255
255
0
0
0
0
0
0
0
255
255
255
255
255
255
255
255
255
181
24
0
0
0
0
0
0
0
24
181
255
255
255
255
255
255
255
231
0
0
0
0
0
0
0
0
0
82
255
255
255
255
255
255
255
255
255
255
255
255
255
255
255
255
255
255
255
255
255
255
255
255
0
0
0
0
0
0
0
0
24
255
255
255
255
255
255
255
255
0
0
0
0
0
0
0
0
82
255
255
255
255
255
255
255
255
140
0
0
0
0
0
0
0
0
0
255
255
255
255
255
255
255
255
255
255
255
255
255
0
0
0
0
0
0
0
82
255
255
255
255
255
255
255
255
255
181
0
0
0
0
0
0
0
0
115
255
255
255
255
255
255
255
115
0
0
0
0
0
0
0
24
181
255
255
255
255
255
255
255
255
140
0
0
0
0
0
0
0
0
0
0
0
0
24
255
255
255
255
255
255
255
255
115
0
0
0
0
0
0
0
255
255
255
255
255
255
255
0
0
0
0
0
0
0
0
140
255
255
255
255
255
255
255
255
0
0
0
0
0
0
0
0
0
82
255
255
255
255
255
255
255
255
255
255
255
255
0
0
0
0
0
0
0
255
255
255
255
255
255
255
255
255
82
0
0
0
0
0
0
0
0
255
255
255
255
255
255
255
255
24
0
0
0
0
0
0
24
255
255
255
255
255
255
255
140
0
0
0
0
0
0
0
0
0
24
24
0
0
0
0
0
0
0
0
0
255
255
255
255
255
255
231
24
0
0
0
0
0
82
255
255
255
255
255
255
231
24
0
0
0
0
0
0
0
255
255
255
255
255
255
255
255
140
0
0
0
0
0
0
0
0
0
181
255
255
255
255
255
255
255
255
255
255
255
0
0
0
0
0
0
82
255
255
255
255
255
255
255
255
255
0
0
0
0
0
0
0
0
115
255
255
255
255
255
255
255
140
0
0
0
0
0
0
24
255
255
255
255
255
255
140
0
0
0
0
0
0
181
255
255
255
255
255
255
255
255
255
255
24
0
0
0
0
0
181
255
255
255
255
255
231
0
0
0
0
0
0
140
255
255
255
255
255
255
140
0
0
0
0
0
0
0
255
255
255
255
255
255
255
255
140
0
0
0
0
0
0
0
0
0
181
255
255
255
255
255
255
255
255
255
255
255
0
0
0
0
0
0
181
255
255
255
255
255
255
255
255
181
0
0
0
0
0
0
0
0
231
255
255
255
255
255
255
231
24
0
0
0
0
0
0
181
255
255
255
255
255
140
0
0
0
0
0
0
140
255
255
255
255
255
0
0
0
0
0
0
0
0
0
0
0
255
255
255
255
255
255
231
0
0
0
0
0
0
82
255
255
255
255
255
255
231
24
0
0
0
0
0
0
24
255
255
255
255
255
255
255
255
82
0
0
0
0
0
0
0
0
24
255
255
255
255
255
255
255
255
255
255
255
255
0
0
0
0
0
0
181
255
255
255
255
255
255
255
255
231
0
0
0
0
0
0
0
0
181
255
255
255
255
255
255
255
115
0
0
0
0
0
0
82
255
255
255
255
255
255
115
0
0
0
0
0
0
255
255
255
255
255
255
255
255
231
140
140
231
255
255
255
255
255
255
255
255
255
82
0
0
0
0
0
0
82
255
255
255
255
255
255
255
0
0
0
0
0
0
0
0
255
255
255
255
255
255
255
255
255
0
0
0
0
0
0
0
0
0
231
255
255
255
255
255
255
255
255
255
255
255
255
0
0
0
0
0
0
82
255
255
255
255
255
255
255
255
255
0
0
0
0
0
0
0
0
0
255
255
255
255
255
255
255
255
0
0
0
0
0
0
0
140
255
255
255
255
255
255
231
0
0
0
0
0
0
0
0
181
255
255
255
255
255
255
255
255
255
255
255
255
231
82
0
0
0
0
0
0
0
0
115
255
255
255
255
255
255
255
255
0
0
0
0
0
0
0
0
181
255
255
255
255
255
255
255
181
0
0
0
0
0
0
0
0
0
24
255
255
255
255
255
255
255
255
255
255
255
255
255
255
255
0
0
0
0
0
255
255
255
255
255
255
255
255
255
231
0
0
0
0
0
0
0
0
82
255
255
255
255
255
255
255
255
0
0
0
0
0
0
0
0
181
255
255
255
255
255
255
255
255
0
0
0
0
0
0
0
0
0
0
0
0
0
0
0
0
0
0
0
0
0
0
0
0
24
181
255
255
255
255
255
255
255
255
181
0
0
0
0
0
0
0
0
115
255
255
255
255
255
255
255
255
181
0
0
0
0
0
0
0
0
0
181
255
255
255
255
255
255
255
255
255
255
255
255
255
255
255
255
0
0
0
0
0
24
181
255
255
255
255
255
255
255
255
255
0
0
0
0
0
0
0
0
0
231
255
255
255
255
255
255
255
255
0
0
0
0
0
0
0
0
0
255
255
255
255
255
255
255
255
255
255
255
231
115
24
0
0
0
0
0
0
0
0
24
24
181
255
255
255
255
255
255
255
255
255
255
255
255
0
0
0
0
0
0
0
0
0
24
231
255
255
255
255
255
255
255
255
231
0
0
0
0
0
0
0
0
0
24
255
255
255
255
255
255
255
255
255
255
255
255
255
255
255
255
255
255
255
255
0
0
0
0
0
140
255
255
255
255
255
255
255
255
255
255
0
0
0
0
0
0
0
0
0
115
255
255
255
255
255
255
255
255
255
181
0
0
0
0
0
0
0
0
0
0
24
231
255
255
255
255
255
255
255
255
255
255
255
255
255
255
255
255
255
255
255
255
255
255
255
231
140
0
0
0
0
0
0
0
0
0
0
0
140
255
255
255
255
255
255
255
255
255
231
0
0
0
0
0
0
0
0
0
0
82
255
255
255
255
255
255
255
255
255
255
255
255
255
255
255
255
255
255
255
255
255
255
255
0
0
0
0
0
0
255
255
255
255
255
255
255
255
255
255
255
0
0
0
0
0
0
0
0
0
0
82
255
255
255
255
255
255
255
255
255
255
181
0
0
0
0
0
0
0
0
0
0
0
0
0
0
0
0
0
0
0
0
0
0
0
0
0
0
0
0
0
0
0
0
0
0
0
0
0
0
0
0
255
255
255
255
255
255
255
255
255
255
255
255
82
0
0
0
0
0
0
0
0
0
0
0
255
255
255
255
255
255
255
255
255
255
255
255
255
255
255
255
255
255
255
255
255
255
255
255
255
255
255
0
0
0
0
0
0
255
255
255
255
255
255
255
255
255
255
255
115
0
0
0
0
0
0
0
0
0
0
24
255
255
255
255
255
255
255
255
255
255
255
255
255
140
24
0
0
0
0
0
0
0
0
0
0
0
0
0
0
0
0
0
0
0
0
0
0
0
0
0
0
115
255
255
255
255
255
255
255
255
255
255
255
255
255
255
140
0
0
0
0
0
0
0
0
0
0
0
82
231
255
255
255
255
255
255
255
255
255
255
255
255
255
255
255
255
255
255
255
255
255
255
255
255
255
255
255
255
255
255
255
255
0
0
0
0
0
140
255
255
255
255
255
255
255
255
255
255
255
82
0
0
0
0
0
0
0
0
0
0
0
0
140
255
255
255
255
255
255
255
255
255
255
255
255
255
255
255
255
255
255
255
255
255
255
255
255
255
255
255
255
255
255
255
255
255
255
255
255
255
255
255
255
255
255
255
255
255
255
181
0
0
0
0
0
0
0
0
0
0
0
0
0
82
255
255
255
255
255
255
255
255
255
255
255
255
255
255
255
255
255
255
255
255
255
255
255
255
255
255
255
255
255
255
255
255
255
255
255
255
255
255
255
0
0
0
0
0
255
255
255
255
255
255
255
255
255
255
255
255
255
82
0
0
0
0
0
0
0
0
0
0
0
0
0
0
0
140
255
255
255
255
255
255
255
255
255
255
255
255
255
255
255
255
255
255
255
255
255
255
255
255
255
255
255
255
255
255
255
231
82
0
0
0
0
0
0
0
0
0
0
0
0
0
0
0
0
181
255
255
255
255
255
255
255
255
255
255
255
255
255
255
255
255
255
255
255
255
255
255
255
255
255
255
255
255
255
255
255
255
255
255
255
255
255
255
255
255
255
255
255
255
255
255
0
0
0
0
0
82
255
255
255
255
255
255
255
255
255
255
255
255
255
255
24
0
0
0
0
0
0
0
0
0
0
0
0
0
0
0
0
0
0
0
0
0
0
0
0
0
0
0
0
0
0
0
0
0
0
0
0
0
0
0
0
0
0
0
0
0
0
0
0
0
0
0
0
0
0
24
140
255
255
255
255
255
255
255
255
255
255
255
255
255
255
255
255
255
255
255
255
255
255
255
255
255
255
255
255
255
255
255
255
255
255
255
255
255
255
255
255
255
255
255
255
255
255
255
255
255
255
255
255
255
255
255
0
0
0
0
0
24
181
255
255
255
255
255
255
255
255
255
255
255
255
255
255
255
255
255
140
0
0
0
0
0
0
0
0
0
0
0
0
0
0
0
0
0
0
0
0
0
0
0
0
0
0
0
0
0
0
0
0
0
0
0
0
0
0
82
255
255
255
255
255
255
255
255
255
255
255
255
255
255
255
255
255
255
255
255
255
255
255
255
255
255
255
255
255
255
255
255
255
255
255
255
255
255
255
255
255
255
255
255
255
255
255
255
255
255
255
255
255
255
255
255
255
255
255
255
255
255
255
255
255
255
255
255
255
0
0
0
0
0
0
181
255
255
255
255
255
255
255
255
255
255
255
255
255
255
255
255
255
255
255
255
255
255
255
255
255
255
181
140
140
115
82
82
115
82
115
140
140
181
231
255
255
255
255
255
255
255
255
255
255
255
255
255
255
255
255
255
255
255
255
255
255
255
255
255
255
255
255
255
255
255
255
255
255
255
255
255
255
255
255
255
255
255
255
255
255
255
255
255
255
255
255
255
255
255
255
255
255
255
255
255
255
255
255
255
255
255
255
255
255
255
255
255
255
255
255
255
255
255
255
255
255
255
255
255
255
255
255
0
0
0
0
0
0
82
255
255
255
255
255
255
255
255
255
255
255
255
255
255
255
255
255
255
255
255
255
255
255
255
255
255
255
255
255
255
255
255
255
255
255
255
255
255
255
255
255
255
255
255
255
255
255
255
255
255
255
255
255
255
255
255
255
255
255
255
255
255
255
255
255
255
255
255
255
255
255
255
255
255
255
255
255
255
255
255
255
255
255
255
255
255
255
255
255
255
255
255
255
255
255
255
255
255
255
255
255
255
255
255
255
255
255
255
255
255
255
255
255
255
255
255
255
255
255
255
255
255
255
255
255
255
255
255
255
255
0
0
0
0
0
0
0
140
181
255
255
255
255
255
255
255
255
255
255
255
255
255
255
255
255
255
255
255
255
255
255
255
255
255
255
255
255
255
255
255
181
140
255
255
255
255
255
255
255
255
255
255
255
255
255
255
255
255
255
255
255
255
255
255
255
255
255
255
255
255
255
255
255
255
255
255
255
255
255
255
255
255
255
255
255
255
255
255
255
255
255
255
255
255
255
255
255
255
255
255
255
255
255
255
255
255
255
255
255
255
255
255
255
255
255
255
255
255
255
255
255
255
255
255
255
255
255
255
255
255
255
255
255
255
255
255
255
255
255
255
255
255
255
255
255
255
255
255
255
255
255
255
255
255
255
255
255
255
255
255
255
255
255
255
255
255
255
255
255
255
255
255
255
255
255
255
255
255
255
255
255
255
255
255
255
255
255
255
255
255
255
255
255
255
255
255
255
255
255
255
255
255
255
255
255
255
255
255
255
255
255
255
255
