P2
# CREATOR: GIMP PNM Filter Version 1.1
128 32
255
41
41
41
41
41
41
41
41
41
41
41
41
41
41
41
41
41
41
41
41
41
41
41
41
41
41
41
41
41
41
41
41
41
41
41
41
41
41
41
41
41
41
41
41
41
41
41
41
41
41
41
41
41
41
41
41
41
41
41
41
41
41
41
41
41
41
41
41
41
41
41
41
41
41
41
41
41
41
41
41
41
41
41
41
41
41
41
41
41
41
41
41
41
41
41
41
41
41
41
41
41
41
41
41
41
41
41
41
41
41
41
41
41
41
41
41
41
41
41
41
41
41
41
41
41
41
41
41
41
41
41
41
41
41
41
41
41
41
41
41
41
41
41
41
41
41
41
41
41
41
41
41
41
41
41
41
41
41
41
41
41
41
41
41
41
41
41
41
41
41
41
41
41
41
41
41
41
41
41
41
41
41
41
41
41
41
41
41
41
41
41
41
41
41
41
41
41
41
41
41
41
41
41
41
41
41
41
41
41
41
41
41
41
41
41
41
41
41
41
41
41
41
41
41
41
41
41
41
41
41
41
41
41
41
41
41
41
41
41
41
41
41
41
41
41
41
41
41
41
41
41
41
41
41
41
41
41
41
41
41
41
41
41
41
41
41
41
41
41
41
41
41
41
41
41
41
41
41
41
41
41
41
41
41
41
41
41
41
41
41
41
41
41
41
41
41
41
41
41
41
41
41
41
41
41
41
41
41
41
41
41
41
41
41
41
41
41
41
255
255
255
255
41
41
41
41
41
41
41
41
41
41
41
41
41
41
41
41
41
41
41
41
41
41
41
41
41
41
41
41
41
41
41
41
41
41
41
41
41
41
41
41
41
41
41
41
41
41
41
41
41
41
41
41
41
41
41
41
41
41
41
41
41
41
41
41
41
41
41
41
41
41
41
41
41
41
41
41
41
41
41
41
41
41
41
41
41
41
41
41
41
41
41
41
41
41
41
41
41
41
41
41
41
41
41
41
41
41
41
41
41
41
41
41
41
41
41
41
41
41
41
41
151
151
255
255
255
255
255
255
255
255
151
151
41
41
41
41
41
41
41
41
41
41
41
41
41
41
41
41
41
41
41
41
41
41
41
41
41
41
41
41
41
41
41
41
41
41
41
41
41
41
41
41
41
41
41
41
41
41
41
41
41
41
41
41
41
41
41
41
41
41
41
41
41
41
41
41
41
41
41
41
41
41
41
41
41
41
41
41
41
41
41
41
41
41
41
41
41
41
41
41
41
41
41
41
41
41
41
41
41
41
41
41
41
41
41
41
41
41
41
41
41
41
41
41
41
41
41
41
230
230
230
230
255
255
255
255
230
230
230
230
41
41
41
41
41
41
41
41
41
41
41
41
41
41
41
41
41
41
41
41
41
41
41
41
41
41
41
41
41
41
41
41
41
41
41
41
41
41
41
41
41
41
41
41
41
41
41
41
41
41
41
41
41
41
41
41
41
41
41
41
41
41
41
41
41
41
41
41
41
41
41
41
41
41
41
41
41
41
41
41
41
41
41
41
41
41
41
41
41
41
41
41
41
41
41
41
41
41
41
41
41
41
41
41
41
41
41
41
41
41
41
41
41
41
41
41
117
117
151
151
151
151
230
230
151
151
117
117
41
41
41
41
41
41
41
41
41
41
41
41
41
41
41
41
41
41
41
41
41
41
41
41
41
41
41
41
41
41
41
41
41
41
41
41
41
41
41
41
41
41
41
41
41
41
41
41
41
41
41
41
41
41
41
41
41
41
41
41
41
41
41
41
41
41
41
41
41
41
41
41
41
41
41
41
41
41
41
41
41
41
41
41
41
41
41
41
41
41
41
41
41
41
41
41
41
41
41
41
41
41
41
41
41
41
41
41
41
41
41
41
41
41
41
41
41
41
117
117
117
117
117
117
117
117
41
41
41
41
41
41
41
41
41
41
41
41
41
41
41
41
41
41
41
41
41
41
41
41
41
41
41
41
41
41
41
41
41
41
41
41
41
41
41
41
41
41
41
41
41
41
41
41
41
41
41
41
41
41
41
41
41
41
41
41
41
41
41
41
41
41
41
41
41
41
41
41
41
41
41
41
41
41
41
41
41
41
41
41
41
41
41
41
41
41
41
41
41
41
41
41
41
41
41
41
41
41
41
41
41
41
41
41
41
41
41
41
41
41
41
41
41
41
41
41
41
41
117
117
41
41
41
41
41
41
41
41
41
41
41
41
41
41
41
41
41
41
41
41
41
41
41
41
41
41
41
41
41
41
41
41
41
41
41
41
41
41
41
41
41
41
41
41
41
41
41
41
41
41
41
41
41
41
41
41
41
41
41
41
41
41
41
41
41
41
41
41
41
41
41
41
41
41
41
41
41
41
41
41
41
41
41
41
41
41
41
41
41
41
41
41
41
41
41
41
41
41
41
41
41
41
41
41
73
73
73
73
117
117
151
151
151
151
117
117
73
73
41
41
41
41
41
41
41
41
41
41
117
117
41
41
41
41
41
41
41
41
73
73
117
117
151
151
151
151
117
117
73
73
73
73
41
41
41
41
41
41
41
41
41
41
41
41
41
41
41
41
41
41
41
41
41
41
41
41
41
41
41
41
41
41
41
41
41
41
41
41
41
41
41
41
41
41
41
41
41
41
41
41
41
41
41
41
41
41
41
41
41
41
41
41
41
41
41
41
41
41
41
41
41
41
41
41
73
73
117
117
230
230
230
230
230
230
230
230
255
255
255
255
255
255
255
255
255
255
255
255
230
230
230
230
230
230
117
117
230
230
230
230
230
230
230
230
255
255
255
255
255
255
255
255
255
255
255
255
230
230
230
230
230
230
230
230
117
117
73
73
41
41
41
41
41
41
41
41
41
41
41
41
41
41
41
41
41
41
41
41
41
41
41
41
41
41
41
41
41
41
41
41
41
41
41
41
41
41
41
41
41
41
41
41
41
41
41
41
41
41
41
41
41
41
41
41
41
41
41
41
151
151
230
230
230
230
230
230
255
255
255
255
255
255
230
230
230
230
230
230
230
230
255
255
255
255
255
255
255
255
255
255
255
255
255
255
255
255
255
255
255
255
255
255
255
255
255
255
255
255
230
230
230
230
230
230
230
230
255
255
255
255
255
255
230
230
230
230
230
230
151
151
41
41
41
41
41
41
41
41
41
41
41
41
41
41
41
41
41
41
41
41
41
41
41
41
41
41
41
41
41
41
41
41
41
41
41
41
41
41
41
41
41
41
41
41
41
41
41
41
41
41
41
41
117
117
230
230
230
230
230
230
230
230
230
230
230
230
230
230
230
230
230
230
255
255
255
255
255
255
255
255
255
255
255
255
151
151
177
177
230
230
117
117
230
230
230
230
177
177
151
151
255
255
255
255
255
255
255
255
255
255
255
255
230
230
230
230
230
230
230
230
230
230
230
230
230
230
230
230
230
230
117
117
41
41
41
41
41
41
41
41
41
41
41
41
41
41
41
41
41
41
41
41
41
41
41
41
41
41
41
41
41
41
41
41
41
41
41
41
41
41
41
41
41
41
41
41
41
41
203
203
230
230
230
230
230
230
230
230
230
230
230
230
230
230
230
230
230
230
230
230
230
230
230
230
255
255
255
255
255
255
255
255
117
117
151
151
177
177
177
177
177
177
177
177
151
151
117
117
255
255
255
255
255
255
255
255
230
230
230
230
230
230
230
230
230
230
230
230
230
230
230
230
230
230
230
230
230
230
230
230
203
203
41
41
41
41
41
41
41
41
41
41
41
41
41
41
41
41
41
41
41
41
41
41
41
41
41
41
41
41
41
41
41
41
41
41
41
41
41
41
41
41
41
41
203
203
230
230
230
230
230
230
230
230
230
230
230
230
230
230
230
230
230
230
230
230
255
255
230
230
230
230
230
230
230
230
255
255
255
255
255
255
230
230
151
151
151
151
151
151
151
151
230
230
255
255
255
255
255
255
230
230
230
230
230
230
230
230
255
255
230
230
230
230
230
230
230
230
230
230
230
230
230
230
230
230
230
230
230
230
203
203
41
41
41
41
41
41
41
41
41
41
41
41
41
41
41
41
41
41
41
41
41
41
41
41
41
41
41
41
41
41
41
41
41
41
41
41
41
41
203
203
230
230
230
230
230
230
230
230
230
230
203
203
230
230
230
230
230
230
230
230
230
230
230
230
230
230
230
230
230
230
230
230
230
230
230
230
230
230
255
255
230
230
255
255
255
255
230
230
255
255
230
230
230
230
230
230
230
230
230
230
230
230
230
230
230
230
230
230
230
230
230
230
230
230
230
230
203
203
230
230
230
230
230
230
230
230
230
230
203
203
41
41
41
41
41
41
41
41
41
41
41
41
41
41
41
41
41
41
41
41
41
41
41
41
41
41
41
41
41
41
41
41
41
41
117
117
203
203
230
230
230
230
203
203
151
151
203
203
230
230
230
230
230
230
230
230
230
230
230
230
203
203
230
230
230
230
230
230
230
230
230
230
230
230
230
230
230
230
255
255
230
230
230
230
255
255
230
230
230
230
230
230
230
230
230
230
230
230
230
230
230
230
203
203
230
230
230
230
230
230
230
230
230
230
230
230
203
203
151
151
203
203
230
230
230
230
203
203
117
117
41
41
41
41
41
41
41
41
41
41
41
41
41
41
41
41
41
41
41
41
41
41
41
41
41
41
41
41
41
41
41
41
151
151
203
203
203
203
151
151
117
117
230
230
230
230
151
151
230
230
230
230
230
230
230
230
151
151
230
230
230
230
230
230
230
230
203
203
230
230
230
230
230
230
230
230
230
230
230
230
230
230
230
230
230
230
230
230
230
230
230
230
203
203
230
230
230
230
230
230
230
230
151
151
230
230
230
230
230
230
230
230
151
151
230
230
230
230
117
117
151
151
203
203
203
203
151
151
41
41
41
41
41
41
41
41
41
41
41
41
41
41
41
41
41
41
41
41
41
41
41
41
41
41
41
41
41
41
41
41
117
117
203
203
117
117
73
73
151
151
203
203
73
73
230
230
230
230
230
230
230
230
117
117
203
203
230
230
230
230
203
203
203
203
230
230
230
230
230
230
203
203
230
230
230
230
230
230
230
230
230
230
230
230
203
203
230
230
230
230
230
230
203
203
203
203
230
230
230
230
203
203
117
117
230
230
230
230
230
230
230
230
73
73
203
203
151
151
73
73
117
117
203
203
117
117
41
41
41
41
41
41
41
41
41
41
41
41
41
41
41
41
41
41
41
41
41
41
41
41
41
41
41
41
41
41
41
41
117
117
151
151
73
73
151
151
117
117
73
73
151
151
230
230
230
230
230
230
151
151
203
203
230
230
230
230
203
203
117
117
230
230
230
230
230
230
203
203
230
230
230
230
230
230
230
230
230
230
230
230
230
230
230
230
203
203
230
230
230
230
230
230
117
117
203
203
230
230
230
230
203
203
151
151
230
230
230
230
230
230
151
151
73
73
117
117
151
151
73
73
151
151
117
117
41
41
41
41
41
41
41
41
41
41
41
41
41
41
41
41
41
41
41
41
41
41
41
41
41
41
41
41
41
41
41
41
73
73
117
117
73
73
117
117
73
73
117
117
151
151
203
203
230
230
151
151
117
117
230
230
230
230
230
230
117
117
203
203
230
230
230
230
203
203
151
151
230
230
230
230
230
230
203
203
203
203
230
230
230
230
230
230
151
151
203
203
230
230
230
230
203
203
117
117
230
230
230
230
230
230
117
117
151
151
230
230
203
203
151
151
117
117
73
73
117
117
73
73
117
117
73
73
41
41
41
41
41
41
41
41
41
41
41
41
41
41
41
41
41
41
41
41
41
41
41
41
41
41
41
41
41
41
41
41
61
61
117
117
61
61
73
73
73
73
117
117
151
151
203
203
230
230
117
117
73
73
230
230
230
230
151
151
73
73
203
203
230
230
230
230
117
117
151
151
230
230
230
230
230
230
151
151
151
151
230
230
230
230
230
230
151
151
117
117
230
230
230
230
203
203
73
73
151
151
230
230
230
230
73
73
117
117
230
230
203
203
151
151
117
117
73
73
73
73
61
61
117
117
61
61
41
41
41
41
41
41
41
41
41
41
41
41
41
41
41
41
41
41
41
41
41
41
41
41
41
41
41
41
41
41
41
41
61
61
73
73
61
61
61
61
73
73
117
117
151
151
151
151
230
230
73
73
117
117
230
230
203
203
73
73
117
117
203
203
230
230
151
151
117
117
117
117
230
230
230
230
230
230
151
151
151
151
230
230
230
230
230
230
117
117
117
117
151
151
230
230
203
203
117
117
73
73
203
203
230
230
117
117
73
73
230
230
151
151
151
151
117
117
73
73
61
61
61
61
73
73
61
61
41
41
41
41
41
41
41
41
41
41
41
41
41
41
41
41
41
41
41
41
41
41
41
41
41
41
41
41
41
41
41
41
41
41
73
73
61
61
61
61
73
73
117
117
61
61
117
117
203
203
73
73
117
117
203
203
151
151
73
73
117
117
203
203
230
230
151
151
73
73
117
117
203
203
230
230
230
230
151
151
151
151
230
230
230
230
203
203
117
117
73
73
151
151
230
230
203
203
117
117
73
73
151
151
203
203
117
117
73
73
203
203
117
117
61
61
117
117
73
73
61
61
61
61
73
73
41
41
41
41
41
41
41
41
41
41
41
41
41
41
41
41
41
41
41
41
41
41
41
41
41
41
41
41
41
41
41
41
41
41
41
41
61
61
73
73
61
61
61
61
73
73
61
61
61
61
117
117
61
61
117
117
203
203
61
61
73
73
117
117
203
203
203
203
117
117
73
73
117
117
151
151
230
230
230
230
73
73
73
73
230
230
230
230
151
151
117
117
73
73
117
117
203
203
203
203
117
117
73
73
61
61
203
203
117
117
61
61
117
117
61
61
61
61
73
73
61
61
61
61
73
73
61
61
41
41
41
41
41
41
41
41
41
41
41
41
41
41
41
41
41
41
41
41
41
41
41
41
41
41
41
41
41
41
41
41
41
41
41
41
41
41
41
41
73
73
61
61
73
73
61
61
61
61
61
61
61
61
73
73
117
117
61
61
73
73
117
117
151
151
203
203
117
117
73
73
61
61
117
117
203
203
230
230
73
73
73
73
230
230
203
203
117
117
61
61
73
73
117
117
203
203
151
151
117
117
73
73
61
61
117
117
73
73
61
61
61
61
61
61
61
61
73
73
61
61
73
73
41
41
41
41
41
41
41
41
41
41
41
41
41
41
41
41
41
41
41
41
41
41
41
41
41
41
41
41
41
41
41
41
41
41
41
41
41
41
41
41
41
41
41
41
41
41
61
61
41
41
61
61
61
61
61
61
61
61
61
61
117
117
61
61
61
61
73
73
117
117
151
151
117
117
61
61
61
61
117
117
151
151
203
203
73
73
73
73
203
203
151
151
117
117
61
61
61
61
117
117
151
151
117
117
73
73
61
61
61
61
117
117
61
61
61
61
61
61
61
61
61
61
41
41
61
61
41
41
41
41
41
41
41
41
41
41
41
41
41
41
41
41
41
41
41
41
41
41
41
41
41
41
41
41
41
41
41
41
41
41
41
41
41
41
41
41
41
41
41
41
41
41
41
41
41
41
41
41
41
41
61
61
41
41
41
41
61
61
73
73
41
41
61
61
61
61
73
73
117
117
61
61
61
61
255
255
61
61
117
117
151
151
61
61
61
61
151
151
117
117
61
61
255
255
61
61
61
61
117
117
73
73
61
61
61
61
41
41
73
73
61
61
41
41
41
41
61
61
41
41
41
41
41
41
41
41
41
41
41
41
41
41
41
41
41
41
41
41
41
41
41
41
41
41
41
41
41
41
41
41
41
41
41
41
41
41
41
41
41
41
41
41
41
41
41
41
41
41
41
41
41
41
41
41
41
41
41
41
41
41
41
41
41
41
41
41
61
61
41
41
41
41
41
41
61
61
41
41
61
61
41
41
61
61
255
255
61
61
61
61
73
73
73
73
61
61
61
61
255
255
61
61
41
41
61
61
41
41
61
61
41
41
41
41
41
41
61
61
41
41
41
41
41
41
41
41
41
41
41
41
41
41
41
41
41
41
41
41
41
41
41
41
41
41
41
41
41
41
41
41
41
41
41
41
41
41
41
41
41
41
41
41
41
41
41
41
41
41
41
41
41
41
41
41
41
41
41
41
41
41
41
41
41
41
41
41
41
41
41
41
41
41
41
41
41
41
41
41
41
41
41
41
41
41
41
41
41
41
41
41
41
41
61
61
41
41
41
41
61
61
61
61
41
41
41
41
61
61
41
41
41
41
41
41
41
41
41
41
41
41
41
41
41
41
41
41
41
41
41
41
41
41
41
41
41
41
41
41
41
41
41
41
41
41
41
41
41
41
41
41
41
41
41
41
41
41
41
41
41
41
41
41
41
41
41
41
41
41
41
41
41
41
41
41
41
41
41
41
41
41
41
41
41
41
41
41
41
41
41
41
41
41
41
41
41
41
41
41
41
41
41
41
41
41
41
41
41
41
41
41
41
41
41
41
41
41
41
41
41
41
41
41
41
41
41
41
41
41
41
41
41
41
41
41
41
41
41
41
41
41
41
41
41
41
41
41
41
41
41
41
41
41
41
41
41
41
41
41
41
41
41
41
41
41
41
41
41
41
41
41
41
41
41
41
41
41
41
41
41
41
41
41
41
41
41
41
41
41
41
41
41
41
41
41
41
41
41
41
41
41
41
41
41
41
41
41
41
41
41
41
41
41
41
41
41
41
41
41
41
41
41
41
41
41
41
41
41
41
41
41
41
41
41
41
41
41
41
41
41
41
41
41
41
41
41
41
41
41
41
41
41
41
41
41
41
41
41
41
41
41
41
41
41
41
41
41
41
41
41
41
41
41
41
41
41
41
41
41
41
41
41
41
41
41
41
41
41
41
41
41
41
41
41
41
41
41
41
41
41
41
41
41
41
41
41
41
41
41
41
41
41
41
41
41
41
41
41
41
41
41
41
41
41
41
41
41
41
41
41
41
41
41
41
41
41
41
41
41
41
41
41
41
41
41
41
41
41
41
41
41
41
41
41
41
41
41
41
41
41
41
41
41
41
41
41
41
41
41
41
41
41
41
41
41
41
41
41
41
41
41
41
41
41
41
41
41
41
41
41
41
41
41
41
41
41
41
41
41
41
41
41
41
41
41
41
41
41
41
41
41
41
41
41
41
41
41
41
41
41
41
41
41
41
41
41
41
41
41
41
41
41
41
41
41
41
41
41
41
41
41
41
41
41
41
41
41
41
41
