P2
# CREATOR: GIMP PNM Filter Version 1.1
128 32
255
0
0
0
0
0
0
0
0
0
0
0
0
0
0
0
0
255
235
230
238
242
246
241
236
255
255
255
255
255
255
255
255
255
255
255
255
255
255
255
255
255
255
255
255
255
255
255
255
255
255
255
255
234
237
236
235
236
236
236
236
236
237
238
240
243
243
242
242
241
239
236
235
255
255
255
255
255
255
255
255
255
255
255
255
255
255
255
255
255
255
255
255
255
255
255
255
255
255
255
237
255
255
255
255
255
255
255
255
255
255
0
0
0
0
0
0
0
0
0
0
0
0
0
0
0
0
0
0
0
0
0
0
0
0
0
0
0
0
0
0
0
0
0
0
255
0
0
0
0
0
0
242
236
233
220
236
242
232
218
0
0
0
0
255
0
0
0
0
152
232
228
230
232
215
0
0
0
0
197
235
242
243
241
240
241
241
241
241
243
244
245
247
246
182
5
5
245
241
243
242
255
244
248
0
0
0
0
0
228
233
234
234
221
0
0
0
0
197
255
255
255
255
238
0
0
0
0
0
155
0
0
0
0
0
0
0
0
255
0
0
0
0
0
0
0
0
0
0
0
0
0
0
0
0
0
0
0
0
0
0
0
0
0
0
0
0
0
0
0
0
0
0
255
0
85
85
85
85
85
0
0
241
230
245
243
239
220
127
85
85
32
177
139
85
85
85
41
216
227
232
241
218
130
155
146
29
201
224
241
247
246
245
246
246
246
246
246
249
248
224
130
204
204
204
5
5
246
244
247
248
248
85
85
85
85
33
200
227
236
239
225
0
85
85
107
0
255
255
255
255
235
0
85
85
85
30
149
0
85
85
85
85
85
85
85
255
0
0
0
0
0
0
0
0
0
0
0
0
0
0
0
0
0
0
0
0
0
0
0
0
0
0
0
0
0
0
0
0
0
0
255
0
85
85
85
85
85
85
85
0
209
241
246
246
223
132
85
85
32
178
140
85
85
85
63
158
229
237
247
219
135
163
153
29
199
221
244
252
249
249
250
250
250
251
249
250
209
122
204
204
204
204
218
5
248
250
252
252
248
85
85
85
85
51
0
222
240
244
228
0
85
85
85
46
255
255
255
255
170
0
85
85
85
30
149
0
85
85
85
85
85
85
85
255
0
0
0
0
0
0
0
0
0
0
0
0
0
0
0
0
0
0
0
0
0
0
0
0
0
0
0
0
0
0
0
0
0
0
255
0
85
85
85
85
85
85
85
85
93
182
240
245
223
139
85
85
34
178
142
85
85
85
85
81
232
239
250
222
140
197
160
27
199
223
246
250
248
250
252
252
253
253
250
202
127
204
204
204
204
204
215
5
250
253
252
252
0
0
85
85
85
82
0
226
237
249
229
0
85
85
85
0
98
255
255
255
85
85
85
85
85
31
151
0
85
85
56
0
0
0
0
255
0
0
0
0
0
0
0
0
0
0
0
0
0
0
0
0
0
0
0
0
0
0
0
0
0
0
0
0
0
0
0
0
0
0
255
0
85
85
85
32
85
85
85
85
173
73
189
242
222
144
85
85
33
178
143
85
85
85
85
41
213
232
250
223
149
197
197
29
200
223
255
240
246
251
251
251
252
252
219
129
179
204
204
204
204
204
212
5
252
253
254
253
0
85
85
85
179
116
0
229
238
247
230
0
85
85
85
85
49
255
255
255
85
85
85
85
85
32
151
0
85
85
81
204
255
255
255
255
0
0
0
0
0
0
0
0
0
0
0
0
0
0
0
0
0
0
0
0
0
0
0
0
0
0
0
0
0
0
0
0
0
0
255
0
85
85
85
35
255
186
85
85
85
164
64
226
215
152
85
85
35
177
145
85
85
85
85
81
145
229
247
223
155
165
150
49
188
214
69
228
239
250
188
217
241
240
132
185
204
204
204
204
190
204
204
5
255
255
255
254
0
85
85
85
85
154
0
228
233
246
230
0
85
85
187
85
111
112
255
147
0
85
85
85
85
31
153
0
85
85
82
225
255
255
255
255
0
0
0
0
0
0
0
0
0
0
0
0
0
0
0
0
0
0
0
0
0
0
0
0
0
0
0
0
0
0
0
0
0
0
255
0
85
85
85
35
255
212
85
85
85
85
102
0
215
157
85
85
34
177
147
85
85
85
85
85
70
229
241
221
161
196
133
221
97
0
0
0
0
0
0
211
236
161
179
193
204
204
204
213
204
204
5
255
255
254
254
253
0
85
85
194
85
184
0
203
227
244
231
0
85
85
188
85
182
51
197
0
85
85
85
85
85
31
153
0
85
85
82
226
255
255
255
255
0
0
0
0
0
0
0
0
0
0
0
0
0
0
0
0
0
0
0
0
0
0
0
0
0
0
0
0
0
0
0
0
0
0
255
0
85
85
85
36
255
255
222
85
85
85
85
51
205
166
85
85
36
177
148
85
85
85
85
85
41
203
222
168
147
191
144
194
238
143
180
96
97
91
150
0
0
132
205
202
204
204
197
204
5
5
204
255
255
254
253
251
0
85
85
205
85
197
0
0
225
242
230
0
85
85
96
204
85
106
0
85
85
197
85
85
85
31
155
0
85
85
82
231
255
255
255
255
0
0
0
0
0
0
0
0
0
0
0
0
0
0
0
0
0
0
0
0
0
0
0
0
0
0
0
0
0
0
0
0
0
0
255
0
85
85
85
36
255
255
255
222
155
85
85
57
158
169
85
85
36
176
148
85
85
85
85
85
94
134
229
183
58
63
135
162
250
251
239
199
155
172
202
210
198
85
123
185
204
142
204
5
208
234
253
255
254
255
252
0
85
85
85
0
85
197
85
0
228
238
229
0
85
85
35
182
212
85
85
85
85
197
85
85
85
29
155
0
85
85
80
230
255
255
255
255
0
0
0
0
0
0
0
0
0
0
0
0
0
0
0
0
0
0
0
0
0
0
0
0
0
0
0
0
0
0
0
0
0
0
255
0
85
85
85
36
255
255
255
243
152
85
85
85
100
179
85
85
36
177
151
85
85
85
85
85
166
61
230
211
178
153
96
219
250
253
252
225
87
179
200
192
170
201
112
49
0
204
5
210
233
252
254
254
255
253
250
0
85
85
85
0
85
197
85
0
232
235
229
0
85
85
33
110
197
85
85
85
197
32
85
85
85
30
157
0
85
85
81
227
255
255
255
255
0
0
0
0
0
0
0
0
0
0
0
0
0
0
0
0
0
0
0
0
0
0
0
0
0
0
0
0
0
0
0
0
0
0
255
0
85
85
85
36
255
255
255
248
162
85
85
85
0
186
85
85
37
179
154
85
85
149
85
85
85
47
196
204
187
149
134
117
200
251
251
237
177
96
77
140
185
168
202
0
134
5
216
233
252
254
254
254
255
253
251
0
85
85
150
0
85
85
85
0
223
230
228
0
85
85
28
143
188
85
85
85
109
38
85
85
85
30
156
0
85
85
82
228
255
255
255
255
0
0
0
0
0
0
0
0
0
0
0
0
0
0
0
0
0
0
0
0
0
0
0
0
0
0
0
0
0
0
0
0
0
0
255
0
85
85
85
37
255
255
255
251
165
85
85
85
0
194
85
85
35
178
157
85
85
115
85
85
85
113
122
208
177
87
223
130
200
158
219
120
181
227
245
235
212
186
164
0
71
204
228
246
254
254
255
255
254
254
252
0
85
85
114
0
211
85
85
0
202
226
227
0
85
85
28
187
148
197
85
197
40
0
85
85
85
31
158
0
85
85
82
227
255
255
255
255
0
0
0
0
0
0
0
0
0
0
0
0
0
0
0
0
0
0
0
0
0
0
0
0
0
0
0
0
0
0
0
0
0
0
255
0
85
85
85
38
255
255
249
253
166
85
85
85
0
198
85
85
35
178
158
85
85
120
115
85
85
191
54
209
111
151
182
69
111
174
126
125
250
252
253
240
220
195
171
0
88
196
235
247
254
255
255
255
254
254
249
0
85
85
75
94
185
85
85
0
0
227
225
0
85
85
30
189
0
196
197
144
41
0
85
85
85
30
158
0
85
85
82
230
255
255
255
255
0
0
0
0
0
0
0
0
0
0
0
0
0
0
0
0
0
0
0
0
0
0
0
0
0
0
0
0
0
0
0
0
0
0
255
0
85
85
85
36
255
255
247
232
181
85
85
85
0
199
85
85
38
178
158
85
85
120
136
197
85
85
56
166
48
202
124
99
224
247
171
109
249
252
252
241
221
199
167
104
0
0
234
240
253
255
255
255
254
254
0
0
85
85
45
154
166
85
85
85
0
225
223
0
85
85
31
189
211
0
197
55
123
0
85
85
85
31
156
0
85
85
81
229
255
255
251
255
0
0
0
0
0
0
0
0
0
0
0
0
0
0
0
0
0
0
0
0
0
0
0
0
0
0
0
0
0
0
0
0
0
0
255
0
85
85
85
37
255
255
244
166
85
85
85
85
0
193
85
85
37
178
158
85
85
118
136
189
85
85
125
93
35
194
129
226
244
248
243
188
249
250
230
151
198
169
96
81
161
0
236
238
253
253
253
254
255
255
0
85
85
85
31
197
160
85
85
85
0
229
219
0
85
85
29
189
212
191
0
39
211
0
85
85
85
29
157
0
85
85
82
230
255
246
253
255
0
0
0
0
0
0
0
0
0
0
0
0
0
0
0
0
0
0
0
0
0
0
0
0
0
0
0
0
0
0
0
0
0
0
255
0
85
85
85
36
220
225
203
85
85
85
85
28
0
186
85
85
36
179
157
85
85
115
136
158
197
85
200
33
31
189
114
119
136
140
105
101
172
169
91
109
73
83
122
81
167
0
237
233
250
253
250
252
253
253
0
85
85
165
39
222
162
85
85
85
0
228
215
0
85
85
31
189
213
228
255
255
232
0
85
85
85
31
156
0
85
85
0
0
0
0
252
255
0
0
0
0
0
0
0
0
0
0
0
0
0
0
0
0
0
0
0
0
0
0
0
0
0
0
0
0
0
0
0
0
0
0
255
0
85
85
85
35
220
197
85
85
85
85
76
81
255
183
85
85
36
178
155
85
85
112
136
178
197
85
197
66
25
192
115
193
181
172
237
218
132
155
223
212
166
158
140
92
160
0
0
0
0
0
0
0
250
252
0
85
85
123
66
233
195
190
85
85
0
255
255
0
85
85
30
189
217
237
255
255
255
0
85
85
85
30
156
0
85
85
85
85
85
0
251
255
0
0
0
0
0
0
0
0
0
0
0
0
0
0
0
0
0
0
0
0
0
0
0
0
0
0
0
0
0
0
0
0
0
0
255
0
85
85
85
34
159
85
85
85
85
131
36
255
255
174
85
85
37
179
152
85
85
110
136
223
161
85
85
131
48
174
130
196
215
225
230
233
233
224
208
188
170
153
138
131
204
118
195
204
204
204
204
0
243
246
0
85
85
79
110
226
223
158
85
85
0
255
255
0
85
85
28
189
220
239
255
255
255
0
85
85
85
30
156
0
85
85
85
85
85
0
255
255
0
0
0
0
0
0
0
0
0
0
0
0
0
0
0
0
0
0
0
0
0
0
0
0
0
0
0
0
0
0
0
0
0
0
255
0
85
85
85
85
85
85
85
85
204
33
155
170
255
172
85
85
38
178
151
85
85
105
136
229
148
197
85
189
129
96
166
175
198
216
220
223
218
204
187
169
153
141
124
189
50
178
188
204
204
204
204
0
238
0
85
85
85
45
153
222
232
153
85
85
0
0
255
0
85
85
30
189
221
242
251
255
255
0
85
85
85
31
157
0
85
85
85
85
85
32
255
255
0
0
0
0
0
0
0
0
0
0
0
0
0
0
0
0
0
0
0
0
0
0
0
0
0
0
0
0
0
0
0
0
0
0
255
0
85
85
85
85
85
85
85
118
36
170
170
170
255
164
85
85
38
179
150
85
85
103
136
229
179
178
85
85
204
62
181
157
175
193
203
204
199
184
168
154
142
132
165
132
204
204
204
204
204
204
204
0
236
0
85
85
85
29
193
219
238
161
85
85
85
0
255
0
85
85
31
189
220
243
254
251
255
0
85
85
85
31
155
0
85
85
117
119
109
30
255
255
0
0
0
0
0
0
0
0
0
0
0
0
0
0
0
0
0
0
0
0
0
0
0
0
0
0
0
0
0
0
0
0
0
0
255
0
85
85
85
85
85
157
62
62
170
170
170
255
255
157
85
85
37
179
149
85
85
102
136
230
223
144
85
85
200
163
85
199
160
167
179
177
169
160
149
139
133
155
172
28
204
204
204
204
204
197
204
0
234
0
85
85
85
36
223
219
244
190
177
85
85
0
255
0
85
85
31
189
218
241
254
254
254
0
85
85
85
32
154
0
85
85
76
222
223
220
255
255
0
0
0
0
0
0
0
0
0
0
0
0
0
0
0
0
0
0
0
0
0
0
0
0
0
0
0
0
0
0
0
0
0
0
255
0
85
85
85
85
63
62
154
170
170
170
255
255
255
153
85
85
35
179
146
85
85
100
136
232
233
153
190
85
191
191
85
55
182
183
156
150
147
139
134
133
178
154
47
161
65
185
204
204
204
190
204
0
236
0
85
85
85
63
232
221
245
226
150
85
85
0
255
0
85
85
31
190
218
240
255
254
254
0
85
85
85
31
153
0
85
85
82
234
255
255
255
255
0
0
0
0
0
0
0
0
0
0
0
0
0
0
0
0
0
0
0
0
0
0
0
0
0
0
0
0
0
0
0
0
0
0
255
0
85
85
85
31
179
170
170
170
255
255
255
252
255
148
85
85
35
179
144
85
85
97
136
230
234
204
155
85
85
183
85
30
54
104
180
189
183
181
181
162
0
0
163
183
170
76
215
210
204
183
204
0
237
0
85
85
85
0
0
0
0
0
135
85
85
0
255
0
85
85
30
190
217
239
254
254
254
0
85
85
85
31
152
0
85
85
82
228
255
255
255
255
0
0
0
0
0
0
0
0
0
0
0
0
0
0
0
0
0
0
0
0
0
0
0
0
0
0
0
0
0
0
0
0
0
0
255
0
85
85
85
35
170
170
170
255
255
255
251
253
255
143
85
85
33
179
144
85
85
93
136
231
234
245
134
177
85
176
85
31
195
151
0
0
0
0
0
97
181
214
0
178
179
157
95
184
204
204
204
0
229
0
85
85
85
85
85
85
85
85
85
85
85
0
255
0
85
85
30
190
217
240
253
254
254
0
85
85
85
29
151
0
85
85
83
230
233
248
255
255
0
0
0
0
0
0
0
0
0
0
0
0
0
0
0
0
0
0
0
0
0
0
0
0
0
0
0
0
0
0
0
0
0
0
255
0
85
85
85
37
170
170
255
255
255
252
254
255
255
136
85
85
33
178
142
85
85
90
136
229
236
250
162
163
85
170
85
29
202
170
170
170
170
170
170
170
170
170
209
0
168
169
169
120
150
170
204
0
255
0
85
85
85
85
85
85
85
85
85
85
85
85
255
0
85
85
31
190
217
240
253
254
254
0
85
85
85
30
150
0
85
85
85
206
213
225
255
255
0
0
0
0
0
0
0
0
0
0
0
0
0
0
0
0
0
0
0
0
0
0
0
0
0
0
0
0
0
0
0
0
0
0
255
0
85
85
85
35
170
170
255
255
254
254
254
254
255
132
85
85
33
177
140
85
85
85
136
231
236
252
220
129
85
163
85
29
202
170
170
170
170
170
170
170
170
170
170
218
0
149
164
162
162
162
117
0
255
0
85
85
85
90
89
87
88
89
85
85
85
0
255
0
85
85
30
190
216
239
254
254
254
0
85
85
85
30
151
0
85
85
85
85
85
103
255
255
0
0
0
0
0
0
0
0
0
0
0
0
0
0
0
0
0
0
0
0
0
0
0
0
0
0
0
0
0
0
0
0
0
0
255
0
85
85
85
33
170
170
255
254
254
254
254
254
255
126
85
85
33
178
138
85
85
81
136
230
237
254
246
132
85
154
85
28
203
170
245
252
247
255
255
255
246
251
170
170
170
170
0
148
156
157
112
0
255
0
85
96
85
238
244
244
243
244
228
122
85
0
255
0
85
85
29
190
217
239
254
254
254
0
85
85
85
30
150
0
85
85
85
85
85
102
255
255
0
0
0
0
0
0
0
0
0
0
0
0
0
0
0
0
0
0
0
0
0
0
0
0
0
0
0
0
0
0
0
0
0
0
255
0
85
85
85
35
170
170
255
254
254
254
254
254
255
114
85
85
33
177
134
85
85
80
136
230
232
251
251
175
85
85
85
30
202
170
243
254
255
255
254
255
255
255
255
251
236
229
228
0
0
0
0
255
255
0
85
85
85
231
216
218
219
216
219
123
85
0
255
0
85
85
0
190
255
255
254
254
254
0
85
85
85
31
148
0
85
85
85
85
85
95
255
255
0
0
0
0
0
0
0
0
0
0
0
0
0
0
0
0
0
0
0
0
0
0
0
0
0
0
0
0
0
0
0
0
0
0
255
0
0
0
0
0
223
255
255
254
255
255
255
254
241
0
0
0
0
200
0
0
0
0
0
222
223
251
252
236
0
0
0
0
213
255
255
254
255
255
254
254
254
254
255
255
255
255
255
255
255
255
255
255
255
0
0
0
0
222
222
231
230
255
255
136
85
0
255
0
0
0
0
207
255
255
254
254
254
0
0
0
0
0
199
0
0
0
0
0
0
0
255
255
0
0
0
0
0
0
0
0
0
0
0
0
0
0
0
0
0
0
0
0
0
0
0
0
0
0
0
0
0
0
0
0
0
0
255
136
136
136
136
136
136
136
136
136
136
136
136
136
136
136
136
136
136
136
136
136
136
136
136
136
136
136
136
136
136
136
136
136
136
136
136
136
136
136
136
136
136
136
136
136
136
136
136
136
136
136
136
136
136
136
136
136
136
136
136
136
136
136
136
136
136
136
136
136
136
136
136
136
136
136
136
136
136
136
136
136
136
136
136
136
136
136
136
136
136
136
255
255
0
0
0
0
0
0
0
0
0
0
0
0
0
0
0
0
0
0
0
0
0
0
0
0
0
0
0
0
0
0
0
0
0
0
255
255
255
255
255
255
255
255
255
255
255
255
255
255
255
255
255
255
255
255
255
255
255
255
255
255
255
255
255
255
255
255
255
255
255
255
255
255
255
255
255
255
255
255
255
255
255
255
255
255
255
255
255
255
255
255
255
255
255
255
255
253
254
254
254
255
255
255
255
255
255
255
255
255
255
255
255
254
254
253
255
255
255
255
255
255
255
255
255
255
255
255
255
255
0
0
0
0
0
0
0
0
0
0
0
0
0
0
0
0
0
0
