P2
# http://www.richardrosenman.com
128 32
255
255 255 255 255 255 255 255 255 
255 255 255 232 50 17 20 20 
20 20 20 20 20 20 20 20 
20 20 20 20 20 20 20 20 
20 20 20 20 24 29 29 34 
97 110 168 109 100 105 179 254 
255 255 255 255 255 255 255 255 
255 255 255 255 255 255 255 255 
255 255 255 255 255 255 255 255 
255 255 255 255 255 255 255 255 
255 255 255 255 255 255 255 255 
255 255 255 255 255 255 255 255 
255 255 255 255 255 255 255 255 
255 255 255 255 255 255 255 255 
249 120 27 93 99 98 98 98 
98 97 103 172 178 178 171 115 
255 255 255 255 255 255 255 255 
255 255 252 160 6 0 0 0 
0 0 0 0 0 0 0 0 
0 0 0 0 0 0 0 0 
0 4 11 16 88 159 164 163 
167 168 171 165 165 164 174 247 
255 255 255 255 255 255 255 255 
255 255 255 255 255 255 255 255 
255 255 255 255 255 255 255 255 
255 255 255 255 255 255 255 255 
255 255 255 255 255 255 255 255 
255 255 255 255 255 255 255 255 
255 255 255 255 255 255 255 255 
255 255 255 255 255 255 255 255 
254 197 13 75 86 85 85 85 
85 84 90 165 171 171 165 100 
255 255 255 255 255 255 255 255 
255 255 243 70 0 0 0 0 
0 0 0 0 0 0 0 0 
0 0 0 0 0 4 10 10 
14 86 153 157 156 162 163 163 
161 161 165 171 172 171 173 194 
255 255 255 255 255 255 255 255 
255 255 255 255 255 255 255 255 
255 255 255 255 255 255 255 255 
255 255 255 255 255 255 255 255 
255 255 255 255 255 255 255 255 
255 255 255 255 255 255 255 255 
255 255 255 255 255 255 255 255 
255 255 255 255 255 255 255 255 
255 243 63 10 80 86 85 85 
85 84 90 166 171 171 165 103 
255 255 255 255 255 255 255 255 
255 255 198 14 0 0 0 0 
0 0 0 0 0 0 0 0 
0 0 0 0 7 85 156 161 
162 158 94 80 13 7 7 7 
7 13 90 166 171 168 163 231 
254 255 255 255 255 255 255 255 
255 255 255 255 255 255 255 255 
255 255 255 255 255 255 255 255 
255 255 255 255 255 255 255 255 
255 255 255 255 255 255 255 255 
255 255 255 255 255 255 255 255 
255 255 255 255 255 255 255 255 
255 255 255 255 255 255 255 255 
255 250 162 15 78 86 85 85 
85 84 90 160 171 171 165 103 
255 255 255 255 255 255 255 255 
255 252 111 3 0 0 0 0 
0 0 0 0 0 0 0 0 
0 0 0 7 85 163 174 174 
164 85 5 7 7 9 9 9 
8 5 82 166 174 161 21 23 
188 252 255 255 255 255 255 255 
255 255 255 255 255 255 255 255 
255 255 255 255 255 255 255 255 
255 255 255 255 255 255 255 255 
255 255 255 255 255 255 255 255 
255 255 255 255 255 255 255 255 
255 255 255 255 255 255 255 255 
255 255 255 255 255 255 255 255 
255 254 214 22 77 86 85 85 
85 85 84 95 165 173 165 103 
255 255 255 255 255 255 255 254 
255 244 40 0 0 0 0 0 
0 0 0 0 0 0 0 0 
0 0 3 85 163 172 171 166 
89 9 10 85 159 157 156 157 
152 89 94 165 173 166 85 4 
47 243 255 255 255 255 255 255 
255 255 255 255 255 255 255 255 
255 255 255 255 255 255 255 255 
255 255 255 255 255 255 255 255 
255 255 255 255 255 255 255 255 
255 255 255 255 255 255 255 255 
255 255 255 255 255 255 255 255 
255 255 255 255 255 255 255 255 
255 255 248 29 75 86 85 85 
85 85 84 89 165 173 165 103 
71 71 71 72 205 255 255 123 
72 129 13 0 0 0 0 0 
0 0 0 0 0 0 0 0 
0 0 14 157 174 170 171 165 
92 89 158 165 158 92 87 87 
93 163 166 170 170 170 150 83 
153 237 255 255 255 255 255 255 
255 255 255 255 255 255 255 255 
255 255 255 255 255 255 255 255 
255 255 255 255 255 255 255 255 
255 255 255 255 255 255 255 255 
255 255 255 255 255 255 255 255 
255 255 255 255 255 255 255 255 
255 255 255 255 255 255 255 255 
255 255 251 30 75 86 85 85 
85 85 84 90 165 173 165 93 
0 0 0 0 48 70 206 197 
39 15 4 0 0 0 0 0 
0 0 0 0 0 0 0 0 
0 2 79 167 171 170 170 170 
165 162 159 87 13 4 4 4 
13 157 174 170 173 161 17 7 
99 251 255 255 255 255 255 255 
255 255 255 255 255 255 255 255 
255 255 255 255 255 255 255 255 
255 255 255 255 255 255 255 255 
255 255 255 255 255 255 255 255 
255 255 255 255 255 255 255 255 
255 255 255 255 255 255 255 255 
255 255 255 255 255 255 255 255 
255 255 251 37 76 86 85 85 
85 85 84 90 165 173 165 84 
44 65 18 0 0 0 48 79 
23 0 1 0 0 0 0 0 
0 0 0 0 0 0 0 0 
0 8 91 166 171 170 170 171 
168 90 11 2 0 0 0 0 
0 88 166 171 173 161 16 0 
22 249 255 255 255 255 255 255 
255 255 255 255 255 255 255 255 
255 255 255 255 255 255 255 255 
255 255 255 255 255 255 255 255 
255 255 255 255 255 255 255 255 
255 255 255 255 255 255 255 255 
255 255 255 255 255 255 255 255 
255 255 255 255 255 255 255 255 
255 255 246 97 83 85 85 85 
85 85 84 90 165 173 165 83 
64 93 24 0 46 110 30 0 
0 0 0 0 0 0 0 0 
0 0 0 0 0 0 0 0 
3 85 162 171 170 170 170 171 
166 89 11 3 4 4 4 4 
14 89 166 171 170 172 151 4 
25 248 255 255 255 255 255 255 
255 255 255 255 255 255 255 255 
255 255 255 255 255 255 255 255 
255 255 255 255 255 255 255 255 
255 255 255 255 255 255 255 255 
255 255 255 255 255 255 255 255 
255 255 255 255 255 255 255 255 
255 255 255 255 255 255 255 255 
255 255 254 104 83 85 85 85 
85 85 84 90 165 173 165 93 
144 57 6 90 59 49 151 61 
0 0 3 0 0 0 0 0 
0 0 0 0 0 0 0 0 
16 159 174 170 170 170 170 170 
170 166 156 89 84 85 84 89 
156 166 170 170 171 175 162 29 
156 253 255 255 255 255 255 255 
255 255 255 255 255 255 255 255 
255 255 255 255 255 255 255 255 
255 255 255 255 255 255 255 255 
255 255 255 255 255 255 255 255 
255 255 255 255 255 255 255 255 
255 255 255 255 255 255 255 255 
255 165 72 71 163 255 255 255 
255 225 190 43 73 86 85 85 
85 85 84 90 165 173 165 87 
176 89 56 55 13 0 59 116 
39 0 1 0 0 0 0 0 
0 0 0 0 0 0 0 4 
76 162 171 170 170 170 170 170 
170 172 173 167 166 166 166 167 
173 172 170 171 165 165 163 153 
171 254 255 255 255 255 255 255 
255 255 255 255 255 255 255 255 
255 255 255 255 255 255 255 255 
255 255 255 255 255 255 255 255 
255 255 255 255 255 255 255 255 
255 255 255 255 255 255 255 255 
255 255 255 255 255 255 255 255 
199 44 46 121 149 237 167 71 
132 189 157 44 10 82 86 85 
85 85 84 90 165 173 165 83 
172 158 62 3 0 0 0 36 
63 56 2 0 0 0 0 0 
0 0 0 0 0 0 0 0 
10 89 166 171 170 170 170 170 
170 170 170 171 172 171 172 171 
170 170 173 161 93 88 97 97 
104 238 254 255 255 255 255 255 
255 255 255 255 255 255 255 255 
255 255 255 255 255 255 255 255 
255 255 255 255 255 255 255 255 
255 255 255 255 255 255 255 255 
255 255 255 255 255 255 255 255 
255 255 255 255 255 255 255 163 
46 1 26 159 183 116 88 81 
143 172 168 61 2 75 87 85 
85 85 84 90 165 173 165 86 
213 236 197 184 97 13 0 0 
150 135 8 0 0 0 0 0 
0 0 0 0 0 0 0 0 
0 88 166 171 170 170 170 170 
170 170 170 170 170 170 170 170 
170 170 156 94 86 95 156 162 
158 151 249 255 255 255 255 255 
255 255 255 255 255 255 255 255 
255 255 255 255 255 255 255 255 
255 255 255 255 255 255 255 255 
255 255 255 255 255 255 255 255 
255 255 255 255 255 255 255 255 
255 255 255 255 255 255 163 30 
0 0 0 36 114 145 142 164 
176 169 170 75 4 6 76 87 
85 85 84 90 165 173 165 90 
67 164 120 83 44 95 40 0 
57 137 9 0 0 0 0 0 
0 0 0 0 0 0 4 0 
18 156 172 170 170 170 170 170 
170 170 170 170 170 170 170 170 
173 159 23 83 163 151 88 87 
176 245 255 255 255 255 255 255 
255 255 255 255 255 255 255 255 
255 255 255 255 255 255 255 255 
255 255 255 255 255 255 255 255 
255 255 255 255 255 255 255 225 
190 190 225 255 255 255 255 255 
255 255 255 255 255 255 214 87 
0 0 0 55 150 178 174 176 
171 176 234 166 90 9 7 76 
87 86 84 90 165 173 165 85 
0 23 5 0 0 39 66 69 
58 141 10 0 0 0 0 0 
0 0 0 0 0 6 68 25 
150 173 170 170 170 170 170 170 
170 170 170 170 170 170 170 170 
173 158 8 78 155 27 8 27 
237 241 191 194 238 255 255 255 
255 255 255 255 255 255 255 255 
255 255 255 255 255 255 255 255 
255 255 255 255 255 255 255 255 
255 255 255 255 255 255 255 214 
160 164 176 236 210 96 72 167 
255 255 255 255 195 184 255 137 
0 0 15 165 232 174 171 172 
181 242 234 177 233 161 8 2 
73 81 85 90 165 173 165 83 
58 21 0 0 0 0 31 47 
46 48 4 0 0 0 0 0 
0 0 0 0 0 4 87 159 
174 172 171 170 170 170 170 170 
170 170 170 170 170 170 170 170 
173 161 19 11 78 76 87 160 
253 239 164 166 234 255 255 255 
255 255 255 255 255 255 255 255 
255 255 255 255 255 255 255 255 
255 255 255 255 255 255 255 255 
237 209 213 213 213 213 213 192 
167 170 164 208 136 6 0 91 
247 240 216 161 74 167 250 97 
0 15 100 147 118 117 171 178 
234 167 37 94 181 242 97 16 
13 9 74 91 165 173 165 85 
203 172 120 25 0 0 0 0 
0 0 1 0 0 0 0 0 
0 0 0 0 0 1 79 163 
165 166 164 170 170 170 170 170 
170 170 170 170 170 170 170 170 
170 170 157 82 14 90 162 179 
253 246 171 170 201 213 213 213 
213 213 212 213 247 255 255 255 
255 255 255 255 255 255 255 255 
255 237 209 213 213 209 240 240 
185 161 164 164 164 164 161 164 
171 170 177 128 27 0 37 125 
192 185 161 106 79 172 196 115 
88 64 78 53 143 171 230 159 
96 93 148 159 176 255 248 238 
158 9 6 85 166 173 165 85 
255 255 151 25 0 0 0 0 
0 0 0 0 0 0 0 0 
0 0 0 0 5 10 13 83 
94 85 99 166 171 170 170 170 
170 170 170 170 170 170 170 170 
170 170 173 160 93 159 172 176 
246 251 202 171 166 160 162 164 
164 164 163 163 199 247 228 246 
255 226 210 247 255 255 255 255 
237 185 161 164 164 161 191 191 
164 170 170 170 169 173 209 209 
176 170 174 87 48 96 134 202 
208 209 212 219 223 212 208 219 
216 79 31 157 109 156 95 31 
82 78 83 86 156 236 255 255 
244 87 5 84 166 173 165 83 
198 137 27 0 0 0 0 0 
0 0 0 0 0 0 0 0 
0 0 0 4 82 152 89 101 
154 23 151 172 170 170 170 170 
170 170 170 170 170 170 170 170 
170 170 170 172 169 173 167 166 
182 249 217 178 182 217 194 169 
170 170 170 169 166 199 179 197 
213 177 161 199 243 255 255 237 
185 164 170 170 170 170 167 167 
170 170 170 169 183 130 109 109 
99 185 233 199 187 135 154 245 
255 255 255 255 255 255 255 255 
221 107 76 91 82 87 92 144 
149 24 13 19 25 20 160 249 
255 165 12 82 166 173 165 83 
101 0 0 0 0 0 0 22 
0 0 0 0 0 0 0 0 
0 0 0 4 82 169 173 240 
226 29 157 173 170 170 170 170 
170 170 170 170 170 170 170 170 
170 170 171 167 168 156 87 85 
158 250 249 131 85 116 134 160 
172 170 170 170 170 166 168 166 
164 168 169 166 234 228 210 189 
164 170 170 170 170 173 177 173 
170 170 167 171 122 19 0 0 
0 82 133 217 189 4 37 186 
255 238 206 207 207 203 231 255 
235 170 19 73 90 98 145 36 
93 154 169 237 224 21 14 173 
255 238 19 81 167 173 165 86 
51 0 0 17 102 128 128 128 
129 16 0 0 0 0 0 0 
0 0 0 0 14 157 175 167 
92 83 164 171 170 170 170 170 
170 170 170 170 170 170 170 170 
170 171 160 90 77 13 9 9 
28 241 231 32 0 0 18 124 
170 164 168 170 170 174 172 170 
170 170 170 170 201 185 161 166 
180 182 182 182 185 155 120 155 
185 173 191 219 165 135 167 142 
98 31 0 65 149 123 119 183 
231 176 179 207 207 203 231 255 
244 225 19 84 165 151 103 152 
162 182 249 255 255 225 19 148 
248 238 19 81 162 173 165 97 
153 128 128 162 248 255 255 248 
255 34 0 0 0 0 0 0 
0 0 0 0 3 86 163 94 
19 91 166 171 170 170 170 170 
170 170 170 170 170 170 170 170 
171 166 89 11 7 6 72 78 
93 245 200 72 136 171 153 190 
216 213 186 179 182 143 160 183 
182 182 182 178 167 130 184 192 
103 78 78 85 88 86 85 86 
88 124 228 255 255 184 188 164 
91 85 112 135 218 255 255 255 
231 203 237 255 255 255 255 254 
183 156 20 161 153 33 153 172 
181 246 255 255 255 242 13 20 
173 162 15 75 96 166 166 103 
255 255 255 255 255 204 206 161 
191 100 5 0 0 0 0 0 
0 0 0 0 0 13 161 166 
159 165 170 170 170 170 170 170 
170 170 170 170 170 170 170 170 
171 165 93 83 84 85 90 89 
160 246 160 82 128 206 174 233 
255 255 167 91 85 86 120 101 
85 85 81 119 171 107 109 95 
0 30 37 0 0 16 50 16 
0 55 189 232 151 17 52 113 
50 103 250 255 255 255 255 255 
255 255 255 255 255 255 255 255 
185 76 31 211 35 80 165 181 
246 255 255 255 246 158 10 82 
231 96 6 77 91 166 166 98 
154 231 255 255 169 58 61 11 
75 136 9 0 0 0 0 0 
0 0 0 0 0 8 157 174 
173 172 170 170 170 170 170 170 
170 170 170 170 170 170 170 170 
170 170 165 166 166 167 160 93 
111 241 168 9 43 80 13 113 
207 226 125 9 0 28 41 1 
0 0 13 27 71 96 27 0 
30 161 102 0 0 0 0 0 
0 16 60 114 88 17 9 118 
149 77 114 210 255 255 234 233 
246 201 149 128 128 183 184 173 
233 38 146 100 87 159 181 246 
255 255 255 253 175 15 1 96 
238 87 11 78 92 166 166 87 
79 234 255 167 23 0 0 0 
88 100 25 2 0 0 0 0 
0 0 0 0 0 4 85 167 
171 170 170 170 171 170 170 170 
170 170 170 170 170 170 170 170 
170 170 171 172 171 172 170 170 
242 245 92 76 128 28 0 56 
119 96 53 10 0 0 0 0 
0 29 120 102 4 45 83 115 
170 143 57 49 22 0 0 0 
0 0 0 11 49 49 49 91 
126 24 63 212 255 234 178 225 
183 55 3 0 0 31 46 186 
252 169 154 96 158 182 246 255 
255 255 248 254 234 11 0 88 
230 28 71 85 90 166 166 83 
121 168 176 32 0 57 125 138 
135 27 20 48 4 0 0 0 
0 0 0 3 0 0 13 156 
172 170 170 170 166 172 172 171 
170 170 170 170 170 170 170 170 
170 170 170 170 170 170 169 178 
255 246 81 99 105 55 48 45 
40 1 0 0 0 0 0 0 
31 83 95 157 115 107 156 226 
198 39 27 104 46 0 0 0 
0 0 0 0 0 22 49 39 
42 9 104 245 255 209 163 192 
81 0 0 18 46 40 68 242 
250 155 30 152 183 246 255 255 
255 229 109 247 246 15 0 32 
222 23 76 85 90 166 166 85 
84 25 25 35 77 167 230 197 
105 12 66 172 25 5 1 0 
0 0 3 74 10 0 3 89 
166 171 171 164 97 151 165 167 
170 170 171 170 170 170 170 170 
170 170 171 171 170 171 170 170 
246 250 130 28 74 62 48 9 
0 0 0 0 0 0 0 0 
66 54 0 119 197 189 161 102 
81 64 67 100 46 0 0 0 
0 0 0 0 0 0 21 21 
0 17 100 226 234 218 156 60 
12 0 25 73 97 101 194 254 
160 24 80 170 247 255 255 255 
233 24 12 243 240 11 17 162 
156 13 77 85 90 167 166 94 
168 148 32 95 152 101 113 131 
97 52 42 104 73 5 0 8 
11 18 27 158 87 2 2 84 
166 171 171 166 89 28 82 91 
168 174 167 171 172 171 171 172 
173 171 167 167 172 168 160 99 
174 246 92 3 64 26 0 0 
0 0 0 0 0 0 0 0 
66 59 47 110 102 125 90 5 
12 50 46 45 22 0 0 0 
0 0 0 0 0 0 27 27 
0 42 141 200 216 231 103 0 
0 0 25 76 69 76 242 231 
24 79 162 181 252 255 255 244 
94 0 21 238 165 22 152 220 
21 6 80 85 90 162 166 92 
255 185 70 76 56 0 21 78 
94 95 23 22 47 14 2 41 
103 208 242 249 166 3 0 85 
166 171 170 170 165 154 85 22 
149 153 93 158 167 166 166 164 
160 161 88 88 149 90 79 85 
174 238 70 0 31 14 0 0 
0 0 0 0 0 0 0 0 
30 49 49 40 1 24 17 0 
0 0 0 0 0 0 0 0 
0 0 0 0 0 0 0 0 
0 19 88 154 203 213 81 0 
0 0 0 18 33 161 242 92 
13 154 177 246 255 255 255 161 
7 5 163 243 107 81 82 24 
7 75 86 85 84 95 160 85 
157 23 24 8 0 0 0 0 
27 45 12 0 0 0 0 0 
6 46 235 255 241 32 13 84 
166 171 171 172 173 175 162 80 
19 21 15 85 85 84 85 84 
26 72 12 6 12 7 14 101 
237 167 43 0 0 0 0 0 
0 0 0 0 0 0 0 0 
0 0 0 0 0 0 0 0 
0 0 0 0 0 0 0 0 
0 0 0 0 0 0 0 0 
0 0 12 88 137 140 67 0 
0 0 27 26 78 178 154 14 
83 167 183 252 255 255 233 22 
5 20 241 255 156 77 16 70 
81 86 85 85 84 96 160 85 
7 0 0 0 0 0 0 0 
0 0 0 0 0 0 35 16 
0 1 90 245 246 222 149 99 
164 170 164 165 165 166 162 90 
82 143 84 77 13 9 12 78 
72 20 83 89 86 92 164 243 
246 93 12 0 0 0 0 0 
0 0 0 0 0 0 0 0 
0 0 0 0 0 0 0 0 
0 0 0 0 0 0 0 0 
0 0 0 0 0 0 0 0 
0 0 0 15 40 39 16 0 
0 0 24 43 156 229 20 9 
151 176 241 255 255 239 93 3 
66 91 245 240 25 10 75 87 
87 85 85 84 89 157 165 83 
