P2
# http://www.richardrosenman.com
128 32
255
255 255 255 255 255 255 255 255 
255 255 255 232 50 17 20 20 
20 20 20 20 20 20 20 20 
20 20 20 20 20 20 20 20 
20 20 20 20 24 29 29 34 
97 110 168 109 100 105 179 254 
255 255 255 255 255 255 255 255 
255 255 255 255 255 255 255 255 
255 255 255 255 255 255 255 255 
255 255 255 255 255 255 255 255 
255 255 255 255 255 255 255 255 
255 255 255 255 255 255 255 255 
255 255 255 255 255 255 255 255 
255 255 255 255 255 255 255 255 
249 120 27 93 99 98 98 98 
98 97 103 172 178 178 171 115 
255 255 255 255 255 255 255 255 
255 255 252 160 6 0 0 0 
0 0 0 0 0 0 0 0 
0 0 0 0 0 0 0 0 
0 4 11 16 88 159 164 163 
167 168 171 165 165 164 174 247 
255 255 255 255 255 255 255 255 
255 255 255 255 255 255 255 255 
255 255 255 255 255 255 255 255 
255 255 255 255 255 255 255 255 
255 255 255 255 255 255 255 255 
255 255 255 255 255 255 255 255 
255 255 255 255 255 255 255 255 
255 255 255 255 255 255 255 255 
254 197 13 75 86 85 85 85 
85 84 90 165 171 171 165 100 
255 255 255 255 255 255 255 255 
255 255 243 70 0 0 0 0 
0 0 0 0 0 0 0 0 
0 0 0 0 0 4 10 10 
14 86 153 157 156 162 163 163 
161 161 165 171 172 171 173 194 
255 255 255 255 255 255 255 255 
255 255 255 255 255 255 255 255 
255 255 255 255 255 255 255 255 
255 255 255 255 255 255 255 255 
255 255 255 255 255 255 255 255 
255 255 255 255 255 255 255 255 
255 255 255 255 255 255 255 255 
255 255 255 255 255 255 255 255 
255 243 63 10 80 86 85 85 
85 84 90 166 171 171 165 103 
255 255 255 255 255 255 255 255 
255 255 198 14 0 0 0 0 
0 0 0 0 0 0 0 0 
0 0 0 0 7 85 156 161 
162 158 94 80 13 7 7 7 
7 13 90 166 171 168 163 231 
254 255 255 255 255 255 255 255 
255 255 255 255 255 255 255 255 
255 255 255 255 255 255 255 255 
255 255 255 255 255 255 255 255 
255 255 255 255 255 255 255 255 
255 255 255 255 255 255 255 255 
255 255 255 255 255 255 255 255 
255 255 255 255 255 255 255 255 
255 250 162 15 78 86 85 85 
85 84 90 160 171 171 165 103 
255 255 255 255 255 255 255 255 
255 252 111 3 0 0 0 0 
0 0 0 0 0 0 0 0 
0 0 0 7 85 163 174 174 
164 85 5 7 7 9 9 9 
8 5 82 166 174 161 21 23 
188 252 255 255 255 255 255 255 
255 255 255 255 255 255 255 255 
255 255 255 255 255 255 255 255 
255 255 255 255 255 255 255 255 
255 255 255 255 255 255 255 255 
255 255 255 255 255 255 255 255 
255 255 255 255 255 255 255 255 
255 255 255 255 255 255 255 255 
255 254 214 22 77 86 85 85 
85 85 84 95 165 173 165 103 
255 255 255 255 255 255 255 255 
255 244 40 0 0 0 0 0 
0 0 0 0 0 0 0 0 
0 0 3 85 163 172 171 166 
89 9 10 85 159 157 156 157 
152 89 94 165 173 166 85 4 
47 243 255 255 255 255 255 255 
255 255 255 255 255 255 255 255 
255 255 255 255 255 255 255 255 
255 255 255 255 255 255 255 255 
255 255 255 255 255 255 255 255 
255 255 255 255 255 255 255 255 
255 255 255 255 255 255 255 255 
255 255 255 255 255 255 255 255 
255 255 248 29 75 86 85 85 
85 85 84 89 165 173 165 103 
255 255 255 255 255 255 255 255 
255 188 13 0 0 0 0 0 
0 0 0 0 0 0 0 0 
0 0 14 157 174 170 171 165 
92 89 158 165 158 92 87 87 
93 163 166 170 170 170 150 83 
145 163 245 255 255 255 167 216 
171 82 203 255 255 255 255 255 
255 255 255 255 255 255 255 255 
255 255 255 255 255 255 255 255 
255 255 255 255 255 255 255 255 
255 255 255 255 255 255 255 255 
255 255 255 255 255 255 255 255 
255 255 255 255 255 255 255 255 
255 255 251 30 75 86 85 85 
85 85 84 90 165 173 165 103 
255 255 255 255 255 255 255 255 
255 129 5 0 0 0 0 0 
0 0 0 0 0 0 0 0 
0 2 79 167 171 170 170 170 
165 162 159 87 13 4 4 4 
13 157 174 170 173 161 17 7 
91 96 200 255 255 123 32 54 
33 0 180 255 255 255 255 255 
255 255 255 255 255 255 255 255 
255 255 255 255 255 255 255 255 
255 255 255 255 255 255 255 255 
255 255 255 255 255 255 255 255 
255 255 255 255 255 255 255 255 
255 255 255 255 255 255 255 255 
255 255 251 37 76 86 85 85 
85 85 84 90 165 173 165 103 
255 255 255 255 255 255 255 255 
255 127 5 0 0 0 0 0 
0 0 0 0 0 0 0 0 
0 8 91 166 171 170 170 171 
168 90 11 2 0 0 0 0 
0 88 166 171 173 161 16 0 
15 101 50 70 71 11 38 55 
11 0 52 71 204 255 255 255 
255 255 255 255 255 255 255 255 
255 255 255 255 255 255 255 255 
255 255 255 255 255 255 255 255 
255 255 255 255 255 255 255 255 
255 255 255 255 255 255 255 255 
255 255 255 255 255 255 255 255 
255 255 246 97 83 85 85 85 
85 85 84 90 165 173 165 103 
255 255 255 255 255 255 255 255 
255 127 5 0 0 0 0 0 
0 0 0 0 0 0 0 0 
3 85 162 171 170 170 170 171 
166 89 11 3 4 4 4 4 
14 89 166 171 170 172 151 4 
20 124 6 0 0 0 20 74 
73 17 0 32 156 196 194 238 
255 255 255 255 255 255 255 255 
255 255 255 255 255 255 255 255 
255 255 255 255 255 255 255 255 
255 255 255 255 255 255 255 255 
255 255 255 255 255 255 255 255 
255 255 255 255 255 255 255 255 
255 255 254 111 83 85 85 85 
85 85 84 90 165 173 165 103 
255 255 255 255 255 255 255 255 
255 127 5 0 0 0 0 0 
0 0 0 0 0 0 0 0 
16 159 174 170 170 170 170 170 
170 166 156 89 84 85 84 89 
156 166 170 170 171 175 162 29 
153 151 137 148 75 59 59 79 
89 24 0 108 168 167 166 185 
194 238 255 255 255 255 255 255 
255 255 255 255 255 255 255 255 
255 255 255 255 255 255 255 255 
255 255 255 255 255 255 255 255 
255 255 255 255 255 255 255 255 
255 255 255 255 255 255 255 255 
255 255 252 60 73 86 85 85 
85 85 84 90 165 173 165 103 
255 255 255 255 255 255 255 255 
255 127 5 0 0 0 0 0 
0 0 0 0 0 0 0 4 
76 162 171 170 170 170 170 170 
170 172 173 167 166 166 166 167 
173 172 170 171 165 165 163 153 
170 179 67 66 33 24 72 45 
24 6 87 165 173 170 170 167 
166 185 194 238 255 255 255 255 
255 255 255 255 255 255 255 255 
255 255 255 255 255 255 255 255 
255 255 255 255 255 255 255 255 
255 255 255 255 255 255 255 255 
255 255 255 255 255 255 255 255 
255 255 244 66 10 82 86 85 
85 85 84 90 165 173 165 103 
255 255 255 255 255 255 255 255 
255 130 5 0 0 0 0 0 
0 0 0 0 0 0 0 0 
10 89 166 171 170 170 170 170 
170 170 170 171 172 171 172 171 
170 170 173 161 93 88 97 97 
104 205 123 114 120 31 15 4 
0 42 148 177 170 170 170 170 
170 166 166 230 255 255 255 255 
255 255 255 255 255 255 255 255 
255 255 255 255 255 255 255 255 
255 255 255 255 255 255 255 255 
255 255 255 255 255 255 255 255 
255 255 255 255 255 255 255 255 
255 255 251 91 3 75 87 85 
85 85 84 90 165 173 165 103 
255 255 255 255 255 255 255 255 
255 165 10 0 0 0 0 0 
0 0 0 0 0 0 0 0 
0 88 166 171 170 170 170 170 
170 170 170 170 170 170 170 170 
170 170 156 94 86 95 156 162 
158 134 172 178 225 200 49 0 
0 108 171 171 170 170 170 170 
170 169 170 231 255 255 255 255 
255 255 255 255 255 255 255 255 
255 255 255 255 255 255 255 255 
255 255 255 255 255 255 255 255 
255 255 255 255 255 255 255 255 
255 255 255 255 255 255 255 255 
255 253 247 106 5 6 76 87 
85 85 84 90 165 173 165 103 
255 255 255 255 255 255 211 191 
238 169 10 0 0 0 0 0 
0 0 0 0 0 0 4 0 
18 156 172 170 170 170 170 170 
170 170 170 170 170 170 170 170 
173 159 23 83 163 151 88 87 
174 221 197 167 103 208 171 119 
122 159 173 170 170 170 170 170 
170 170 170 187 238 255 255 255 
255 255 255 255 255 255 255 255 
255 255 255 255 255 255 255 255 
255 255 255 255 255 255 255 255 
255 255 255 255 255 255 255 255 
255 255 255 255 255 255 254 254 
234 214 247 168 90 9 7 76 
87 86 84 90 165 173 165 101 
255 255 255 255 255 213 170 165 
234 160 10 0 0 0 0 0 
0 0 0 0 0 6 68 25 
150 173 170 170 170 170 170 170 
170 170 170 170 170 170 170 170 
173 158 8 78 155 27 8 27 
236 242 247 145 18 140 190 174 
178 172 165 164 164 164 168 170 
170 170 170 167 186 193 194 242 
255 255 255 255 255 255 255 255 
255 255 255 255 255 255 255 255 
255 213 190 194 238 255 255 255 
255 255 255 255 255 255 255 255 
255 255 255 255 255 254 218 188 
185 243 234 177 233 161 8 2 
73 81 85 90 165 173 165 100 
255 255 226 246 228 177 166 171 
205 68 2 0 0 0 0 0 
0 0 0 0 0 4 87 159 
174 172 171 170 170 170 170 170 
170 170 170 170 170 170 170 170 
173 161 19 11 78 76 87 160 
253 228 231 108 5 53 177 184 
170 181 208 214 213 213 178 162 
164 164 168 170 163 160 169 210 
216 212 212 213 247 255 255 233 
255 255 255 255 229 150 128 232 
236 177 163 166 234 255 255 255 
255 255 255 255 255 255 255 255 
255 255 255 255 249 172 174 178 
234 167 37 94 181 242 97 16 
13 9 74 91 165 173 165 98 
213 213 178 193 178 166 171 171 
141 8 0 0 0 0 0 0 
0 0 0 0 0 1 79 163 
165 166 164 170 170 170 170 170 
170 170 170 170 170 170 170 170 
170 170 157 82 14 90 162 179 
253 236 105 73 14 24 214 237 
152 94 183 255 255 255 226 210 
213 213 177 170 217 231 156 88 
147 171 163 164 198 214 248 122 
100 220 233 246 159 8 0 87 
169 173 169 170 201 213 213 213 
213 213 212 213 247 255 255 255 
255 255 255 255 243 176 230 159 
96 93 148 159 176 255 248 238 
158 9 6 85 166 173 165 96 
164 163 168 206 195 172 171 171 
66 0 0 0 0 0 0 0 
0 0 0 0 5 10 13 83 
94 85 99 166 171 170 170 170 
170 170 170 170 170 170 170 170 
170 170 173 160 93 159 172 176 
246 246 91 27 15 33 109 237 
110 0 73 221 255 255 255 255 
255 255 226 154 130 133 99 12 
56 159 182 171 161 163 196 107 
63 165 179 192 144 56 0 0 
49 149 174 170 166 160 162 164 
164 164 163 163 199 247 228 246 
255 226 213 239 114 156 95 31 
82 78 83 86 156 236 255 255 
244 87 5 84 166 173 165 99 
170 170 179 182 112 151 178 166 
98 21 0 0 0 0 0 0 
0 0 0 4 82 152 89 101 
154 23 151 172 170 170 170 170 
170 170 170 170 170 170 170 170 
170 170 170 172 169 173 167 166 
182 247 173 33 0 0 0 88 
29 0 115 231 255 255 255 255 
255 255 255 89 0 0 17 8 
0 57 115 154 201 179 193 219 
224 212 210 209 215 159 99 52 
21 122 170 176 182 217 194 169 
170 170 170 169 166 199 179 197 
213 182 119 92 82 87 92 144 
149 24 13 19 25 20 160 249 
255 165 12 82 166 173 165 91 
166 165 104 31 0 47 157 222 
239 44 0 0 0 0 0 0 
0 0 0 4 82 169 173 240 
226 29 157 173 170 170 170 170 
170 170 170 170 170 170 170 170 
170 170 171 167 168 156 87 85 
158 250 207 41 0 0 0 0 
64 97 218 255 255 255 255 255 
255 255 233 162 131 131 60 31 
1 0 79 194 250 228 250 255 
255 255 255 255 255 209 153 138 
165 215 232 125 85 116 134 160 
172 170 170 170 170 166 168 166 
164 168 21 73 90 98 145 36 
93 154 169 237 224 21 14 173 
255 238 19 81 167 173 165 83 
201 213 77 91 135 66 58 121 
130 27 0 0 0 0 0 0 
0 0 0 0 14 157 175 167 
92 83 164 171 170 170 170 170 
170 170 170 170 170 170 170 170 
170 171 160 90 77 13 9 9 
28 241 206 12 19 103 40 0 
53 118 221 255 255 255 255 255 
255 255 127 121 240 255 171 133 
98 80 144 240 255 255 222 204 
206 211 248 255 255 119 30 91 
244 180 133 21 0 0 18 124 
170 164 168 170 170 174 172 170 
170 217 19 84 165 151 103 152 
162 182 249 255 255 225 19 148 
248 238 19 81 162 173 165 94 
248 255 180 245 214 82 69 0 
0 24 0 0 0 0 0 0 
0 0 0 0 3 86 163 94 
19 91 166 171 170 170 170 170 
170 170 170 170 170 170 170 170 
171 166 89 11 7 6 72 78 
93 245 212 60 155 248 67 54 
114 150 245 255 255 200 229 255 
255 255 56 1 170 128 85 157 
190 222 228 246 255 255 220 204 
206 172 190 211 243 154 120 153 
128 9 0 63 136 171 153 190 
216 213 186 179 182 143 160 183 
144 155 20 161 153 33 153 172 
181 246 255 255 255 242 13 20 
173 162 15 75 96 166 166 96 
255 233 124 116 125 20 59 125 
159 103 5 0 0 0 0 0 
0 0 0 0 0 13 161 166 
159 165 170 170 170 170 170 170 
170 170 170 170 170 170 170 170 
171 165 93 83 84 85 90 89 
160 246 157 150 255 255 161 121 
234 255 166 192 227 84 197 255 
255 199 112 123 99 14 0 86 
138 168 181 239 255 255 255 255 
255 226 205 172 226 255 255 255 
154 122 67 77 128 206 174 233 
255 255 167 91 85 86 120 112 
155 76 31 211 35 80 165 181 
246 255 255 255 246 158 10 82 
231 96 6 77 91 166 166 92 
178 137 17 0 92 104 52 182 
255 196 18 0 0 0 0 0 
0 0 0 0 0 8 157 174 
173 172 170 170 170 170 170 170 
170 170 170 170 170 170 170 170 
170 170 165 166 166 167 160 93 
111 241 155 194 255 255 255 195 
226 255 46 41 83 17 86 155 
200 74 103 147 26 0 34 77 
52 32 30 161 255 255 255 255 
255 255 255 228 245 255 255 255 
255 255 151 1 43 80 13 113 
207 226 125 9 0 28 43 92 
227 38 146 100 87 159 181 246 
255 255 255 253 175 15 1 96 
238 87 11 78 92 166 166 92 
33 70 56 7 54 162 90 64 
206 247 106 3 0 0 0 0 
0 0 0 0 0 4 85 167 
171 170 170 170 171 170 170 170 
170 170 170 170 170 170 170 170 
170 170 171 172 171 172 170 170 
242 245 90 189 255 255 255 255 
255 255 164 15 0 0 0 88 
161 109 47 38 41 45 47 46 
7 0 0 125 184 206 255 170 
128 162 213 255 229 208 243 255 
255 154 63 76 128 28 0 56 
119 96 53 10 0 0 13 186 
252 169 154 96 158 182 246 255 
255 255 248 254 234 11 0 88 
230 28 71 85 90 166 166 90 
0 29 83 64 78 124 33 18 
194 255 227 46 5 0 0 0 
0 0 0 3 0 0 13 156 
172 170 170 170 166 172 172 171 
170 170 170 170 170 170 170 170 
170 170 170 170 170 170 169 178 
255 246 83 195 168 191 255 255 
255 255 255 175 129 128 26 62 
158 154 28 0 67 102 23 0 
0 0 0 48 41 99 133 20 
0 15 68 117 186 179 232 255 
255 123 15 100 105 55 48 45 
40 1 0 0 0 0 64 242 
250 155 30 152 183 246 255 255 
255 229 109 247 246 15 0 32 
222 23 76 85 90 166 166 86 
0 0 29 49 41 36 5 57 
211 255 255 187 75 3 0 0 
0 0 3 74 10 0 3 89 
166 171 171 164 97 151 165 167 
170 170 171 170 170 170 170 170 
170 170 171 171 170 171 170 170 
246 249 140 188 49 44 118 128 
128 232 235 218 255 255 141 15 
89 105 57 48 45 45 12 0 
0 0 70 89 44 33 0 26 
49 9 0 0 195 217 194 246 
255 168 31 22 74 62 48 9 
0 0 0 0 0 7 159 253 
160 24 80 170 247 255 255 255 
233 24 12 243 240 11 17 162 
156 13 77 85 90 167 166 85 
0 0 0 0 29 9 31 112 
230 255 227 115 8 0 0 8 
12 18 27 158 87 2 2 84 
166 171 171 166 89 28 82 91 
168 174 167 171 172 171 171 172 
173 171 167 167 172 168 160 99 
174 243 101 105 74 6 0 0 
0 87 168 204 243 255 168 27 
21 38 46 48 9 0 0 0 
0 0 70 138 144 34 0 71 
67 14 0 0 92 137 190 213 
245 164 27 0 64 26 0 0 
0 0 0 0 0 44 233 231 
24 79 162 181 252 255 255 244 
94 0 21 238 165 22 152 220 
21 6 80 85 90 162 166 85 
0 0 0 0 35 15 33 116 
201 216 179 71 8 0 2 41 
115 209 242 249 166 3 0 85 
166 171 170 170 165 154 85 22 
149 153 93 158 167 166 166 164 
160 161 88 88 149 90 79 85 
174 230 48 22 47 14 0 0 
0 0 51 184 254 255 166 65 
8 27 10 0 0 0 0 0 
0 0 0 23 114 44 0 31 
10 0 0 0 0 16 168 223 
219 194 49 0 31 14 0 0 
0 0 0 0 13 161 242 92 
13 154 177 246 255 255 255 161 
7 5 163 243 107 81 82 24 
7 75 86 85 84 95 160 85 
0 0 0 0 0 0 0 24 
104 164 182 87 11 0 0 35 
18 46 234 255 241 32 13 84 
166 171 171 172 173 175 162 80 
19 21 15 85 85 84 85 84 
26 72 12 6 12 7 14 101 
236 143 18 0 0 0 0 0 
0 0 26 130 206 217 163 70 
12 33 16 0 0 0 0 0 
0 0 0 0 25 12 0 0 
0 0 0 0 0 31 137 215 
158 128 38 0 0 0 0 0 
0 0 0 2 78 178 154 14 
83 167 183 252 255 255 233 22 
5 20 241 255 156 77 16 70 
81 86 85 85 84 96 160 85 
0 0 0 0 0 0 0 0 
24 110 104 20 0 0 0 35 
16 1 88 245 246 222 149 99 
164 170 164 165 165 166 162 90 
82 143 84 77 13 9 12 78 
72 20 83 89 86 92 164 243 
244 73 3 0 0 0 35 16 
0 0 35 143 178 141 60 4 
0 0 0 0 0 0 0 0 
0 0 0 0 0 0 0 0 
0 35 16 0 0 33 113 133 
62 35 10 0 0 0 0 0 
0 0 0 23 156 229 20 9 
151 176 241 255 255 239 93 3 
66 91 245 240 25 10 75 87 
87 85 85 84 89 157 165 83 
