P2
# http://www.richardrosenman.com
128 32
255
255 255 255 255 255 255 255 255 
255 255 255 232 50 17 20 20 
20 20 20 20 20 20 20 20 
20 20 20 20 20 20 20 20 
20 20 20 20 24 29 29 34 
97 110 168 109 100 105 179 254 
255 255 255 255 255 255 255 255 
255 255 255 255 255 255 255 255 
255 255 255 255 255 255 255 255 
255 255 255 255 255 255 255 255 
255 255 255 255 255 255 255 255 
255 255 255 255 255 255 255 255 
255 255 255 255 255 255 255 255 
255 255 255 255 255 255 255 255 
249 120 27 93 99 98 98 98 
98 97 103 172 178 170 156 80 
255 255 255 255 255 255 255 255 
255 255 252 160 6 0 0 0 
0 0 0 0 0 0 0 0 
0 0 0 0 0 0 0 0 
0 4 11 16 88 159 164 163 
167 168 171 165 165 164 174 247 
255 255 255 255 255 255 255 255 
255 255 255 255 255 255 255 255 
255 255 255 255 255 255 255 255 
255 255 255 255 255 255 255 255 
255 255 255 255 255 255 255 255 
255 255 255 255 255 255 255 255 
255 255 255 255 255 255 255 255 
255 255 255 255 255 255 255 255 
254 197 13 75 86 85 85 85 
85 84 90 165 171 171 165 86 
255 255 255 255 255 255 255 255 
255 255 243 70 0 0 0 0 
0 0 0 0 0 0 0 0 
0 0 0 0 0 4 10 10 
14 86 153 157 156 162 163 163 
161 161 165 171 172 171 173 194 
255 255 255 255 255 255 255 255 
255 255 255 255 255 255 255 255 
255 255 255 255 255 255 255 255 
255 255 255 255 255 255 255 255 
255 255 255 255 255 255 255 255 
255 255 255 255 255 255 255 255 
255 255 255 255 255 255 255 255 
255 255 255 255 255 255 255 255 
255 243 63 10 80 86 85 85 
85 84 90 166 171 171 165 85 
255 255 255 255 255 255 255 255 
255 255 198 14 0 0 0 0 
0 0 0 0 0 0 0 0 
0 0 0 0 7 85 156 161 
162 158 94 80 13 7 7 7 
7 13 90 166 171 168 163 231 
254 255 255 255 255 255 255 255 
255 255 255 255 255 255 255 255 
255 255 255 255 255 255 255 255 
255 255 255 255 255 255 255 255 
255 255 255 255 255 255 255 255 
255 255 255 255 255 255 255 255 
255 255 255 255 255 255 255 255 
255 255 255 255 255 255 255 255 
255 250 162 15 78 86 85 85 
85 84 90 160 171 171 165 85 
255 255 255 255 255 255 255 255 
255 252 111 3 0 0 0 0 
0 0 0 0 0 0 0 0 
0 0 0 7 85 163 174 174 
164 85 5 7 7 9 9 9 
8 5 82 166 174 161 21 23 
188 252 255 255 255 255 255 255 
255 255 255 255 255 255 255 255 
255 255 255 255 255 255 255 255 
255 255 255 255 255 255 255 255 
255 255 255 255 255 255 255 255 
255 255 255 255 255 255 255 255 
255 255 255 255 255 255 255 255 
255 255 255 255 255 255 255 255 
255 254 214 22 77 86 85 85 
85 85 84 95 165 173 165 85 
255 255 255 255 255 255 255 255 
255 244 40 0 0 0 0 0 
0 0 0 0 0 0 0 0 
0 0 3 85 163 172 171 166 
89 9 10 85 159 157 156 157 
152 89 94 165 173 166 85 4 
47 243 255 255 255 255 156 124 
176 85 160 255 255 255 151 151 
255 255 255 255 255 255 255 255 
255 255 255 255 255 255 255 255 
255 255 255 255 255 255 255 255 
255 255 255 255 255 255 255 255 
255 255 255 255 255 255 255 255 
255 255 255 255 255 255 255 255 
255 255 248 29 75 86 85 85 
85 85 84 89 165 173 165 85 
255 255 255 255 255 255 255 255 
255 188 13 0 0 0 0 0 
0 0 0 0 0 0 0 0 
0 0 14 157 174 170 171 165 
92 89 158 165 158 92 87 87 
93 163 166 170 170 170 150 83 
153 237 255 255 234 129 26 12 
35 0 28 133 199 239 121 24 
165 255 255 255 164 71 71 71 
72 164 255 255 255 255 255 255 
255 255 255 255 255 255 255 255 
255 255 255 255 255 255 255 255 
255 255 255 255 255 255 255 255 
255 255 255 255 255 255 255 255 
255 255 251 30 75 86 85 85 
85 85 84 90 165 173 165 85 
255 255 255 255 255 255 255 255 
255 129 5 0 0 0 0 0 
0 0 0 0 0 0 0 0 
0 2 79 167 171 170 170 170 
165 162 159 87 13 4 4 4 
13 157 174 170 173 161 17 7 
99 251 255 233 118 14 0 0 
28 34 0 15 44 132 108 0 
100 141 72 72 30 0 0 0 
0 30 128 233 255 255 255 255 
255 255 255 255 255 255 255 255 
255 255 255 255 255 255 255 255 
255 255 255 255 255 255 255 255 
255 255 255 255 255 255 255 255 
255 255 251 37 76 86 85 85 
85 85 84 90 165 173 165 85 
255 255 255 255 255 255 255 255 
255 127 5 0 0 0 0 0 
0 0 0 0 0 0 0 0 
0 8 91 166 171 170 170 171 
168 90 11 2 0 0 0 0 
0 88 166 171 173 161 16 0 
20 211 233 188 77 0 0 31 
86 46 0 0 0 21 25 0 
26 20 0 0 0 31 71 32 
0 0 75 188 225 255 255 255 
255 255 255 255 255 255 255 255 
255 255 255 255 255 255 255 255 
255 255 255 255 255 255 255 255 
255 255 255 255 255 255 255 255 
255 255 246 97 83 85 85 85 
85 85 84 90 165 173 165 85 
255 255 255 255 255 255 255 255 
255 127 5 0 0 0 0 0 
0 0 0 0 0 0 0 0 
3 85 162 171 170 170 170 171 
166 89 11 3 4 4 4 4 
14 89 166 171 170 172 151 4 
22 206 186 170 155 57 18 118 
95 13 62 128 162 128 19 0 
66 65 0 0 31 80 97 45 
0 0 85 178 185 159 155 229 
255 255 255 255 255 255 255 255 
255 255 255 255 255 255 255 255 
255 255 255 255 255 255 255 255 
255 255 255 255 255 255 255 255 
255 255 254 111 83 85 85 85 
85 85 84 90 165 173 165 85 
255 255 255 255 255 255 255 255 
255 127 5 0 0 0 0 0 
0 0 0 0 0 0 0 0 
16 159 174 170 170 170 170 170 
170 166 156 89 84 85 84 89 
156 166 170 170 171 175 162 29 
155 220 171 169 177 147 134 137 
76 98 93 57 73 125 114 25 
30 66 30 26 84 59 25 12 
0 61 155 174 170 151 149 177 
225 255 255 255 255 255 255 255 
255 255 255 255 255 255 255 255 
255 255 255 255 255 255 255 255 
255 255 255 255 255 255 255 255 
255 255 252 60 73 86 85 85 
85 85 84 90 165 173 165 85 
255 255 255 255 255 255 255 255 
255 127 5 0 0 0 0 0 
0 0 0 0 0 0 0 4 
76 162 171 170 170 170 170 170 
170 172 173 167 166 166 166 167 
173 172 170 171 165 165 163 153 
171 229 173 170 170 176 180 167 
80 44 26 0 0 22 46 12 
21 112 110 72 59 9 0 0 
61 159 178 169 170 172 172 166 
180 190 225 255 255 255 255 255 
255 255 255 255 255 255 255 255 
255 255 255 255 255 255 255 255 
255 255 255 255 255 255 255 255 
255 255 244 66 10 82 86 85 
85 85 84 90 165 173 165 85 
255 255 255 255 255 255 255 255 
255 130 5 0 0 0 0 0 
0 0 0 0 0 0 0 0 
10 89 166 171 170 170 170 170 
170 170 170 171 172 171 172 171 
170 170 173 161 93 88 97 97 
104 219 170 202 233 233 232 239 
188 48 23 35 0 0 55 130 
134 165 164 159 71 0 0 26 
123 182 169 170 170 170 170 170 
164 196 242 255 255 255 255 255 
255 255 255 255 255 255 255 255 
255 255 255 255 255 255 255 255 
255 255 255 255 255 255 255 255 
255 255 251 91 3 75 87 85 
85 85 84 90 165 173 165 85 
255 255 255 255 255 255 255 255 
255 165 10 0 0 0 0 0 
0 0 0 0 0 0 0 0 
0 88 166 171 170 170 170 170 
170 170 170 170 170 170 170 170 
170 170 156 94 86 95 156 162 
158 127 162 227 170 73 75 168 
254 117 12 86 71 1 28 156 
220 167 167 210 210 87 13 107 
166 171 169 169 170 170 170 170 
168 180 227 255 255 255 255 255 
255 255 255 255 255 255 255 255 
255 255 255 255 255 255 255 255 
255 255 255 255 255 255 255 255 
255 253 247 106 5 6 76 87 
85 85 84 90 165 173 165 85 
255 255 255 255 255 255 255 255 
255 169 10 0 0 0 0 0 
0 0 0 0 0 0 4 0 
18 156 172 170 170 170 170 170 
170 170 170 170 170 170 170 170 
173 159 23 83 163 151 88 87 
175 212 179 126 31 0 0 30 
73 38 0 30 97 105 10 124 
252 229 138 61 175 205 124 164 
173 169 170 170 170 170 170 170 
170 166 176 225 255 255 255 255 
255 255 255 255 255 255 255 255 
255 255 255 255 255 255 255 255 
221 221 255 255 255 255 254 254 
234 214 247 168 90 9 7 76 
87 86 84 90 165 173 165 85 
255 255 255 255 255 255 255 255 
255 160 10 0 0 0 0 0 
0 0 0 0 0 6 68 25 
150 173 170 170 170 170 170 170 
170 170 170 170 170 170 170 170 
173 158 8 78 155 27 8 27 
236 225 173 135 162 174 45 0 
0 0 0 0 22 47 6 34 
174 255 125 0 128 233 159 209 
249 240 231 231 198 159 164 167 
170 170 167 177 190 197 201 197 
194 189 228 255 255 255 255 255 
255 255 255 255 235 235 255 227 
174 178 189 228 255 254 218 188 
185 243 234 177 233 161 8 2 
73 81 85 90 165 173 165 85 
255 255 255 255 255 255 255 255 
255 111 4 0 0 0 0 0 
0 0 0 0 0 4 87 159 
174 172 171 170 170 170 170 170 
170 170 170 170 170 170 170 170 
173 161 19 11 78 76 87 160 
253 246 204 186 157 182 170 128 
128 64 0 27 23 0 0 0 
58 179 147 11 136 251 206 172 
131 195 255 255 236 209 213 189 
161 164 164 192 193 145 123 148 
169 163 186 240 247 160 119 164 
243 255 255 188 95 101 176 202 
164 168 163 190 206 164 174 178 
234 167 37 94 181 242 97 16 
13 9 74 91 165 173 165 85 
255 255 255 255 255 237 209 213 
213 75 2 0 0 0 0 0 
0 0 0 0 0 1 79 163 
165 166 164 170 170 170 170 170 
170 170 170 170 170 170 170 170 
170 170 157 82 14 90 162 179 
253 248 123 89 23 114 255 255 
255 146 0 27 27 0 0 0 
0 34 74 11 60 195 255 131 
0 119 255 255 255 255 255 237 
209 213 191 234 247 99 26 110 
190 173 163 191 198 116 40 82 
192 207 209 147 21 0 31 135 
180 170 171 171 204 174 230 159 
96 93 148 159 176 255 248 238 
158 9 6 85 166 173 165 85 
255 255 255 255 237 185 161 164 
164 49 1 0 0 0 0 0 
0 0 0 0 5 10 13 83 
94 85 99 166 171 170 170 170 
170 170 170 170 170 170 170 170 
170 170 173 160 93 159 172 176 
246 249 91 2 0 129 255 219 
145 64 0 0 0 55 55 0 
0 0 0 0 0 110 183 64 
0 119 255 255 255 255 255 255 
255 255 180 99 109 64 22 39 
113 155 170 161 160 174 145 168 
212 207 183 170 137 37 0 45 
156 173 177 222 113 156 95 31 
82 78 83 86 156 236 255 255 
244 87 5 84 166 173 165 85 
243 255 255 237 185 164 170 170 
170 45 0 0 0 0 0 0 
0 0 0 4 82 152 89 101 
154 23 151 172 170 170 170 170 
170 170 170 170 170 170 170 170 
170 170 170 172 169 173 167 166 
182 250 170 7 0 137 255 145 
0 0 0 0 0 51 39 0 
0 0 0 0 0 43 37 0 
61 192 255 255 255 255 255 255 
255 189 51 25 21 4 9 0 
4 100 201 213 213 215 219 243 
255 255 237 208 210 142 88 94 
142 185 117 92 82 87 92 144 
149 24 13 19 25 20 160 249 
255 165 12 82 166 173 165 85 
234 228 210 189 164 170 170 170 
170 38 0 0 0 0 0 0 
0 0 0 4 82 169 173 240 
226 29 157 173 170 170 170 170 
170 170 170 170 170 170 170 170 
170 170 171 167 168 156 87 85 
158 250 226 11 0 59 197 134 
0 0 0 37 31 13 106 113 
33 0 0 0 11 16 0 12 
165 255 255 255 255 255 255 255 
255 149 54 176 198 137 129 85 
24 90 222 255 255 240 209 237 
255 255 255 255 173 88 163 233 
232 165 18 73 90 98 145 36 
93 154 169 237 224 21 14 173 
255 238 19 81 167 173 165 85 
201 185 161 166 180 182 182 182 
185 27 0 0 0 0 0 0 
0 0 0 0 14 157 175 167 
92 83 164 171 170 170 170 170 
170 170 170 170 170 170 170 170 
170 171 160 90 77 13 9 9 
28 241 223 15 34 15 154 132 
0 55 106 183 179 173 255 255 
136 11 33 113 141 58 41 45 
140 255 255 255 255 255 255 255 
185 76 53 138 160 188 240 182 
117 168 236 255 255 204 176 210 
203 206 238 255 113 0 98 180 
137 203 19 84 165 151 103 152 
162 182 249 255 255 225 19 148 
248 238 19 81 162 173 165 85 
167 130 184 192 103 78 78 85 
88 15 0 0 0 0 0 0 
0 0 0 0 3 86 163 94 
19 91 166 171 170 170 170 170 
170 170 170 170 170 170 170 170 
171 166 89 11 7 6 72 78 
93 245 224 144 191 180 242 202 
138 201 252 255 255 227 251 255 
158 3 99 255 255 80 93 170 
181 255 255 201 128 192 255 255 
179 48 58 61 3 45 155 179 
210 255 255 255 255 231 238 237 
203 179 176 231 192 128 174 91 
45 152 20 161 153 33 153 172 
181 246 255 255 255 242 13 20 
173 162 15 75 96 166 166 85 
171 107 109 95 0 30 37 0 
0 65 5 0 0 0 0 0 
0 0 0 0 0 13 161 166 
159 165 170 170 170 170 170 170 
170 170 170 170 170 170 170 170 
171 165 93 83 84 85 90 89 
160 246 166 122 194 196 132 200 
255 255 255 197 121 100 104 173 
130 63 180 255 255 186 184 255 
255 188 125 55 0 128 255 191 
109 115 159 67 0 37 118 110 
110 130 192 255 255 255 255 255 
255 237 203 231 255 255 255 195 
166 76 31 211 35 80 165 181 
246 255 255 255 246 158 10 82 
231 96 6 77 91 166 166 85 
71 96 27 0 30 161 102 0 
0 29 5 0 0 0 0 0 
0 0 0 0 0 8 157 174 
173 172 170 170 170 170 170 170 
170 170 170 170 170 170 170 170 
170 170 165 166 166 167 160 93 
111 241 147 8 24 32 0 119 
255 255 198 52 0 10 0 80 
117 71 203 255 255 255 255 255 
255 138 0 0 0 64 177 124 
27 68 73 36 49 43 46 13 
0 0 128 255 255 255 197 135 
228 255 255 255 255 255 255 255 
235 38 146 100 87 159 181 246 
255 255 255 253 175 15 1 96 
238 87 11 78 92 166 166 85 
4 45 83 115 170 143 57 49 
22 2 2 0 0 0 0 0 
0 0 0 0 0 4 85 167 
171 170 170 170 171 170 170 170 
170 170 170 170 170 170 170 170 
170 170 171 172 171 172 170 170 
242 245 91 74 98 28 4 134 
255 231 73 0 6 30 64 119 
55 39 172 216 248 255 255 255 
255 222 73 0 9 0 55 150 
94 12 0 43 111 46 0 0 
0 0 58 128 183 183 48 0 
82 128 198 243 203 234 255 255 
252 169 154 96 158 182 246 255 
255 255 248 254 234 11 0 88 
230 28 71 85 90 166 166 85 
115 107 156 226 198 39 27 104 
46 0 0 0 0 0 0 0 
0 0 0 3 0 0 13 156 
172 170 170 170 166 172 172 171 
170 170 170 170 170 170 170 170 
170 170 170 170 170 170 169 178 
255 246 93 96 125 118 81 69 
104 85 0 32 147 167 167 142 
16 117 226 110 111 235 224 218 
255 235 171 145 155 64 15 97 
94 42 52 46 49 22 0 0 
18 77 34 0 35 37 19 26 
0 0 103 244 188 206 255 255 
250 155 30 152 183 246 255 255 
255 229 109 247 246 15 0 32 
222 23 76 85 90 166 166 85 
197 189 161 102 81 64 67 100 
46 0 0 0 0 0 0 0 
0 0 3 74 10 0 3 89 
166 171 171 164 97 151 165 167 
170 170 171 170 170 170 170 170 
170 170 171 171 170 171 170 170 
246 249 135 8 0 111 160 125 
45 0 64 146 201 157 126 112 
28 61 143 82 20 89 79 72 
203 219 212 255 255 137 0 14 
70 72 52 22 0 0 0 0 
46 131 128 76 11 0 27 27 
0 0 36 115 149 219 255 255 
160 24 80 170 247 255 255 255 
233 24 12 243 240 11 17 162 
156 13 77 85 90 167 166 85 
102 125 90 5 12 50 46 45 
22 0 0 0 0 0 0 8 
11 18 27 158 87 2 2 84 
166 171 171 166 89 28 82 91 
168 174 167 171 172 171 171 172 
173 171 167 167 172 168 160 99 
174 242 83 72 62 124 219 255 
167 80 155 119 57 82 116 88 
72 39 59 75 23 0 0 0 
58 186 222 237 243 128 19 0 
48 49 0 0 0 0 0 0 
22 38 69 107 48 0 0 0 
0 0 0 0 73 210 254 231 
24 79 162 181 252 255 255 244 
94 0 21 238 165 22 152 220 
21 6 80 85 90 162 166 85 
1 24 17 0 0 0 0 0 
0 0 0 0 0 0 2 41 
103 208 242 249 166 3 0 85 
166 171 170 170 165 154 85 22 
149 153 93 158 167 166 166 164 
160 161 88 88 149 90 79 85 
174 223 65 125 109 151 255 205 
85 68 70 8 0 46 73 39 
45 48 49 18 0 0 0 0 
0 75 176 192 201 137 42 0 
24 24 0 0 0 0 0 0 
0 0 0 18 25 0 0 0 
0 0 0 0 97 224 244 92 
13 154 177 246 255 255 255 161 
7 5 163 243 107 81 82 24 
7 75 86 85 84 95 160 87 
0 0 0 0 0 0 0 0 
0 0 0 0 0 0 0 0 
6 46 234 255 241 32 13 84 
166 171 171 172 173 175 162 80 
19 21 15 85 85 84 85 84 
26 72 12 6 12 7 14 101 
236 131 51 94 85 110 141 58 
0 0 0 0 0 0 0 0 
0 0 0 0 0 0 0 0 
0 60 161 179 157 88 19 0 
0 0 0 0 0 0 0 0 
0 0 0 0 0 0 0 0 
0 0 0 2 114 184 154 14 
83 167 183 252 255 255 233 22 
5 20 241 255 156 77 16 70 
81 86 85 85 84 96 160 86 
0 0 0 0 0 0 0 0 
0 0 0 0 0 0 0 0 
0 1 88 245 246 222 149 99 
164 170 164 165 165 166 162 90 
82 143 84 77 13 9 12 78 
72 20 83 89 86 92 164 243 
244 73 24 46 43 43 8 0 
0 0 0 0 27 27 0 0 
0 0 0 0 0 0 0 0 
0 46 119 140 85 12 0 0 
0 0 0 0 0 0 0 0 
0 0 0 0 0 0 0 0 
0 0 0 23 157 229 20 9 
151 176 241 255 255 239 93 3 
66 91 245 240 25 10 75 87 
87 85 85 84 89 157 165 85 
