P2
# CREATOR: GIMP PNM Filter Version 1.1
128 32
255
0
0
0
0
0
0
0
0
0
0
0
0
0
0
0
0
0
0
0
0
0
0
0
0
0
0
0
0
0
0
0
0
0
0
0
0
0
0
0
0
0
0
0
0
0
0
0
0
0
0
0
0
0
0
0
0
0
0
0
0
0
0
0
0
0
0
0
0
0
0
0
0
0
0
0
0
0
0
0
0
0
0
0
0
0
0
0
0
0
0
0
0
0
0
0
0
0
0
0
0
0
0
0
0
0
0
0
0
0
0
0
0
0
0
0
0
0
0
0
0
0
0
0
0
0
0
0
0
0
0
0
0
0
0
0
0
0
0
0
0
0
0
0
0
0
0
0
0
0
0
0
0
0
0
0
0
0
0
0
0
0
0
0
0
0
0
0
0
0
0
0
0
0
0
0
0
0
0
0
0
0
0
0
0
0
0
0
0
0
0
0
0
0
0
0
0
0
0
0
0
0
0
0
0
0
0
0
0
0
0
0
0
0
0
0
0
0
0
0
0
0
0
0
0
0
0
0
0
0
0
0
0
0
0
0
0
0
0
0
0
0
0
0
0
0
0
0
0
0
0
0
0
0
0
0
0
0
0
0
0
0
0
0
0
0
0
0
0
0
0
0
0
0
0
0
0
0
0
0
0
0
0
0
0
0
0
0
0
0
0
0
0
0
0
0
0
0
0
0
0
0
0
0
0
0
0
0
0
0
0
0
0
0
0
0
0
0
0
0
0
0
0
0
0
0
0
0
0
0
0
0
0
0
0
0
0
0
0
0
0
0
0
0
0
0
0
0
0
0
0
0
0
0
0
0
0
0
0
0
0
0
0
0
0
0
0
0
0
0
0
0
0
0
0
0
0
0
0
0
0
0
0
0
0
0
0
0
0
0
0
0
0
0
0
0
0
0
0
0
0
0
0
0
0
0
0
0
0
0
0
0
0
0
0
0
0
0
0
0
0
0
0
0
0
0
0
0
0
0
0
0
0
0
0
0
0
0
0
0
0
0
0
0
0
0
0
0
0
0
0
0
0
0
0
0
0
0
0
0
0
0
0
0
0
0
0
0
0
0
0
0
0
0
0
0
0
0
0
0
0
0
0
0
0
0
0
0
0
0
0
0
0
0
0
0
0
0
0
0
0
0
0
0
0
0
0
0
0
0
0
0
0
0
0
0
0
0
0
0
0
0
0
0
0
0
0
0
0
0
0
0
0
0
0
0
0
0
0
0
0
0
0
0
0
0
0
0
0
0
0
0
0
0
0
0
0
0
0
0
0
0
0
0
0
0
0
0
0
0
0
0
0
0
0
0
0
0
0
0
0
0
0
0
0
0
0
0
0
0
0
0
0
0
0
0
0
0
0
0
0
0
0
0
0
0
0
0
0
0
0
0
0
0
0
0
0
0
0
0
0
0
0
0
0
0
0
0
0
0
0
0
0
0
0
0
0
0
0
0
0
0
0
0
0
0
0
0
0
0
0
0
0
0
0
0
0
0
0
0
0
0
0
0
0
0
0
0
0
0
0
0
0
0
0
0
0
0
0
0
0
0
0
0
0
0
0
0
0
0
0
0
0
0
0
0
0
0
0
0
0
0
0
0
0
0
0
0
0
0
0
0
0
0
0
0
0
0
0
0
0
0
0
0
0
0
0
0
0
0
0
0
0
0
0
0
0
0
0
0
0
0
0
0
0
0
0
0
0
0
0
0
0
0
0
0
0
0
0
0
0
0
0
0
0
0
0
0
0
0
0
0
0
0
0
0
0
0
0
0
0
0
0
0
0
0
0
0
0
0
0
0
0
0
0
0
0
0
0
0
0
0
0
0
0
0
0
0
0
0
0
0
0
0
0
0
0
0
0
0
0
0
0
0
0
0
0
0
0
0
0
0
0
0
0
0
0
0
0
0
0
0
0
0
0
0
0
0
0
0
0
0
0
0
0
0
0
0
0
0
0
0
0
0
0
0
0
0
0
0
0
0
0
0
0
0
0
0
0
0
0
0
0
0
0
0
0
0
0
0
0
0
0
0
0
0
0
0
0
0
0
0
0
0
0
0
31
224
0
0
0
0
0
0
0
0
0
0
0
0
31
224
0
0
0
0
0
0
0
0
0
0
0
0
31
224
0
0
0
0
0
0
0
0
0
0
0
0
31
224
0
0
0
0
0
0
0
0
0
0
0
0
31
224
0
0
0
0
0
0
0
0
0
0
0
0
31
224
0
0
0
0
0
0
0
0
0
0
0
0
31
224
0
0
0
0
0
0
0
0
0
0
0
0
31
224
0
0
0
0
0
0
0
0
0
0
0
0
31
224
0
0
0
0
0
0
0
0
0
0
0
0
0
0
94
161
0
0
0
0
0
0
0
0
0
0
0
0
94
161
0
0
0
0
0
0
0
0
0
0
0
0
94
161
0
0
0
0
0
0
0
0
0
0
0
0
94
161
0
0
0
0
0
0
0
0
0
0
0
0
94
161
0
0
0
0
0
0
0
0
0
0
0
0
94
161
0
0
0
0
0
0
0
0
0
0
0
0
94
161
0
0
0
0
0
0
0
0
0
0
0
0
94
161
0
0
0
0
0
0
0
0
0
0
0
0
94
161
0
0
0
0
0
0
0
0
0
0
0
0
0
0
156
99
0
0
0
0
0
0
0
0
0
0
0
0
156
99
0
0
0
0
0
0
0
0
0
0
0
0
156
99
0
0
0
0
0
0
0
0
0
0
0
0
156
99
0
0
0
0
0
0
0
0
0
0
0
0
156
99
0
0
0
0
0
0
0
0
0
0
0
0
156
99
0
0
0
0
0
0
0
0
0
0
0
0
156
99
0
0
0
0
0
0
0
0
0
0
0
0
156
99
0
0
0
0
0
0
0
0
0
0
0
0
156
99
0
0
0
0
0
0
0
0
0
0
0
60
162
221
253
249
219
159
69
0
0
0
0
0
0
60
162
221
253
249
219
159
69
0
0
0
0
0
0
60
162
221
253
249
219
159
69
0
0
0
0
0
0
60
162
221
253
249
219
159
69
0
0
0
0
0
0
60
162
221
253
249
219
159
69
0
0
0
0
0
0
60
162
221
253
249
219
159
69
0
0
0
0
0
0
60
162
221
253
249
219
159
69
0
0
0
0
0
0
60
162
221
253
249
219
159
69
0
0
0
0
0
0
60
162
221
253
249
219
159
69
0
0
0
0
0
0
1
145
255
255
255
255
255
255
255
223
0
0
0
0
1
145
255
255
255
255
255
255
255
223
0
0
0
0
1
145
255
255
255
255
255
255
255
223
0
0
0
0
1
145
255
255
255
255
255
255
255
223
0
0
0
0
1
145
255
255
255
255
255
255
255
223
0
0
0
0
1
145
255
255
255
255
255
255
255
223
0
0
0
0
1
145
255
255
255
255
255
255
255
223
0
0
0
0
1
145
255
255
255
255
255
255
255
223
0
0
0
0
1
145
255
255
255
255
255
255
255
223
0
0
0
0
0
0
110
255
214
74
95
173
18
65
149
155
0
0
0
0
110
255
214
74
95
173
18
65
149
155
0
0
0
0
110
255
214
74
95
173
18
65
149
155
0
0
0
0
110
255
214
74
95
173
18
65
149
155
0
0
0
0
110
255
214
74
95
173
18
65
149
155
0
0
0
0
110
255
214
74
95
173
18
65
149
155
0
0
0
0
110
255
214
74
95
173
18
65
149
155
0
0
0
0
110
255
214
74
95
173
18
65
149
155
0
0
0
0
110
255
214
74
95
173
18
65
149
155
0
0
0
0
0
0
218
255
37
0
143
111
0
0
0
0
0
0
0
0
218
255
37
0
143
111
0
0
0
0
0
0
0
0
218
255
37
0
143
111
0
0
0
0
0
0
0
0
218
255
37
0
143
111
0
0
0
0
0
0
0
0
218
255
37
0
143
111
0
0
0
0
0
0
0
0
218
255
37
0
143
111
0
0
0
0
0
0
0
0
218
255
37
0
143
111
0
0
0
0
0
0
0
0
218
255
37
0
143
111
0
0
0
0
0
0
0
0
218
255
37
0
143
111
0
0
0
0
0
0
0
0
0
0
250
255
18
0
204
50
0
0
0
0
0
0
0
0
250
255
18
0
204
50
0
0
0
0
0
0
0
0
250
255
18
0
204
50
0
0
0
0
0
0
0
0
250
255
18
0
204
50
0
0
0
0
0
0
0
0
250
255
18
0
204
50
0
0
0
0
0
0
0
0
250
255
18
0
204
50
0
0
0
0
0
0
0
0
250
255
18
0
204
50
0
0
0
0
0
0
0
0
250
255
18
0
204
50
0
0
0
0
0
0
0
0
250
255
18
0
204
50
0
0
0
0
0
0
0
0
0
0
210
255
172
43
238
3
0
0
0
0
0
0
0
0
210
255
172
43
238
3
0
0
0
0
0
0
0
0
210
255
172
43
238
3
0
0
0
0
0
0
0
0
210
255
172
43
238
3
0
0
0
0
0
0
0
0
210
255
172
43
238
3
0
0
0
0
0
0
0
0
210
255
172
43
238
3
0
0
0
0
0
0
0
0
210
255
172
43
238
3
0
0
0
0
0
0
0
0
210
255
172
43
238
3
0
0
0
0
0
0
0
0
210
255
172
43
238
3
0
0
0
0
0
0
0
0
0
0
68
245
255
255
246
166
98
12
0
0
0
0
0
0
68
245
255
255
246
166
98
12
0
0
0
0
0
0
68
245
255
255
246
166
98
12
0
0
0
0
0
0
68
245
255
255
246
166
98
12
0
0
0
0
0
0
68
245
255
255
246
166
98
12
0
0
0
0
0
0
68
245
255
255
246
166
98
12
0
0
0
0
0
0
68
245
255
255
246
166
98
12
0
0
0
0
0
0
68
245
255
255
246
166
98
12
0
0
0
0
0
0
68
245
255
255
246
166
98
12
0
0
0
0
0
0
0
0
0
28
126
223
255
255
255
232
55
0
0
0
0
0
0
28
126
223
255
255
255
232
55
0
0
0
0
0
0
28
126
223
255
255
255
232
55
0
0
0
0
0
0
28
126
223
255
255
255
232
55
0
0
0
0
0
0
28
126
223
255
255
255
232
55
0
0
0
0
0
0
28
126
223
255
255
255
232
55
0
0
0
0
0
0
28
126
223
255
255
255
232
55
0
0
0
0
0
0
28
126
223
255
255
255
232
55
0
0
0
0
0
0
28
126
223
255
255
255
232
55
0
0
0
0
0
0
0
0
0
0
185
76
60
189
255
214
0
0
0
0
0
0
0
0
185
76
60
189
255
214
0
0
0
0
0
0
0
0
185
76
60
189
255
214
0
0
0
0
0
0
0
0
185
76
60
189
255
214
0
0
0
0
0
0
0
0
185
76
60
189
255
214
0
0
0
0
0
0
0
0
185
76
60
189
255
214
0
0
0
0
0
0
0
0
185
76
60
189
255
214
0
0
0
0
0
0
0
0
185
76
60
189
255
214
0
0
0
0
0
0
0
0
185
76
60
189
255
214
0
0
0
0
0
0
0
0
0
3
238
12
0
17
255
247
0
0
0
0
0
0
0
3
238
12
0
17
255
247
0
0
0
0
0
0
0
3
238
12
0
17
255
247
0
0
0
0
0
0
0
3
238
12
0
17
255
247
0
0
0
0
0
0
0
3
238
12
0
17
255
247
0
0
0
0
0
0
0
3
238
12
0
17
255
247
0
0
0
0
0
0
0
3
238
12
0
17
255
247
0
0
0
0
0
0
0
3
238
12
0
17
255
247
0
0
0
0
0
0
0
3
238
12
0
17
255
247
0
0
0
0
0
0
0
0
0
50
203
0
0
47
255
203
0
0
0
0
0
0
0
50
203
0
0
47
255
203
0
0
0
0
0
0
0
50
203
0
0
47
255
203
0
0
0
0
0
0
0
50
203
0
0
47
255
203
0
0
0
0
0
0
0
50
203
0
0
47
255
203
0
0
0
0
0
0
0
50
203
0
0
47
255
203
0
0
0
0
0
0
0
50
203
0
0
47
255
203
0
0
0
0
0
0
0
50
203
0
0
47
255
203
0
0
0
0
0
0
0
50
203
0
0
47
255
203
0
0
0
0
0
161
140
65
19
111
147
36
104
228
254
77
0
0
0
161
140
65
19
111
147
36
104
228
254
77
0
0
0
161
140
65
19
111
147
36
104
228
254
77
0
0
0
161
140
65
19
111
147
36
104
228
254
77
0
0
0
161
140
65
19
111
147
36
104
228
254
77
0
0
0
161
140
65
19
111
147
36
104
228
254
77
0
0
0
161
140
65
19
111
147
36
104
228
254
77
0
0
0
161
140
65
19
111
147
36
104
228
254
77
0
0
0
161
140
65
19
111
147
36
104
228
254
77
0
0
0
0
0
230
255
255
255
255
255
255
255
241
91
0
0
0
0
230
255
255
255
255
255
255
255
241
91
0
0
0
0
230
255
255
255
255
255
255
255
241
91
0
0
0
0
230
255
255
255
255
255
255
255
241
91
0
0
0
0
230
255
255
255
255
255
255
255
241
91
0
0
0
0
230
255
255
255
255
255
255
255
241
91
0
0
0
0
230
255
255
255
255
255
255
255
241
91
0
0
0
0
230
255
255
255
255
255
255
255
241
91
0
0
0
0
230
255
255
255
255
255
255
255
241
91
0
0
0
0
0
0
54
155
218
247
255
226
184
114
19
0
0
0
0
0
54
155
218
247
255
226
184
114
19
0
0
0
0
0
54
155
218
247
255
226
184
114
19
0
0
0
0
0
54
155
218
247
255
226
184
114
19
0
0
0
0
0
54
155
218
247
255
226
184
114
19
0
0
0
0
0
54
155
218
247
255
226
184
114
19
0
0
0
0
0
54
155
218
247
255
226
184
114
19
0
0
0
0
0
54
155
218
247
255
226
184
114
19
0
0
0
0
0
54
155
218
247
255
226
184
114
19
0
0
0
0
0
0
0
0
0
0
42
214
0
0
0
0
0
0
0
0
0
0
0
0
42
214
0
0
0
0
0
0
0
0
0
0
0
0
42
214
0
0
0
0
0
0
0
0
0
0
0
0
42
214
0
0
0
0
0
0
0
0
0
0
0
0
42
214
0
0
0
0
0
0
0
0
0
0
0
0
42
214
0
0
0
0
0
0
0
0
0
0
0
0
42
214
0
0
0
0
0
0
0
0
0
0
0
0
42
214
0
0
0
0
0
0
0
0
0
0
0
0
42
214
0
0
0
0
0
0
0
0
0
0
0
0
0
0
103
152
0
0
0
0
0
0
0
0
0
0
0
0
103
152
0
0
0
0
0
0
0
0
0
0
0
0
103
152
0
0
0
0
0
0
0
0
0
0
0
0
103
152
0
0
0
0
0
0
0
0
0
0
0
0
103
152
0
0
0
0
0
0
0
0
0
0
0
0
103
152
0
0
0
0
0
0
0
0
0
0
0
0
103
152
0
0
0
0
0
0
0
0
0
0
0
0
103
152
0
0
0
0
0
0
0
0
0
0
0
0
103
152
0
0
0
0
0
0
0
0
0
0
0
0
0
0
164
91
0
0
0
0
0
0
0
0
0
0
0
0
164
91
0
0
0
0
0
0
0
0
0
0
0
0
164
91
0
0
0
0
0
0
0
0
0
0
0
0
164
91
0
0
0
0
0
0
0
0
0
0
0
0
164
91
0
0
0
0
0
0
0
0
0
0
0
0
164
91
0
0
0
0
0
0
0
0
0
0
0
0
164
91
0
0
0
0
0
0
0
0
0
0
0
0
164
91
0
0
0
0
0
0
0
0
0
0
0
0
164
91
0
0
0
0
0
0
0
0
0
0
0
0
0
0
225
30
0
0
0
0
0
0
0
0
0
0
0
0
225
30
0
0
0
0
0
0
0
0
0
0
0
0
225
30
0
0
0
0
0
0
0
0
0
0
0
0
225
30
0
0
0
0
0
0
0
0
0
0
0
0
225
30
0
0
0
0
0
0
0
0
0
0
0
0
225
30
0
0
0
0
0
0
0
0
0
0
0
0
225
30
0
0
0
0
0
0
0
0
0
0
0
0
225
30
0
0
0
0
0
0
0
0
0
0
0
0
225
30
0
0
0
0
0
0
0
0
0
0
0
0
0
0
0
0
0
0
0
0
0
0
0
0
0
0
0
0
0
0
0
0
0
0
0
0
0
0
0
0
0
0
0
0
0
0
0
0
0
0
0
0
0
0
0
0
0
0
0
0
0
0
0
0
0
0
0
0
0
0
0
0
0
0
0
0
0
0
0
0
0
0
0
0
0
0
0
0
0
0
0
0
0
0
0
0
0
0
0
0
0
0
0
0
0
0
0
0
0
0
0
0
0
0
0
0
0
0
0
0
0
0
0
0
0
0
0
0
0
0
0
0
0
0
0
0
0
0
0
0
0
0
0
0
0
0
0
0
0
0
0
0
0
0
0
0
0
0
0
0
0
0
0
0
0
0
0
0
0
0
0
0
0
0
0
0
0
0
0
0
0
0
0
0
0
0
0
0
0
0
0
0
0
0
0
0
0
0
0
0
0
0
0
0
0
0
0
0
0
0
0
0
0
0
0
0
0
0
0
0
0
0
0
0
0
0
0
0
0
0
0
0
0
0
0
0
0
0
0
0
0
0
0
0
0
0
0
0
0
0
0
0
0
0
0
0
0
0
0
0
0
0
0
0
0
0
0
0
0
0
0
0
0
0
0
0
0
0
0
0
0
0
0
0
0
0
0
0
0
0
0
0
0
0
0
0
0
0
0
0
0
0
0
0
0
0
0
0
0
0
0
0
0
0
0
0
0
0
0
0
0
0
0
0
0
0
0
0
0
0
0
0
0
0
0
0
0
0
0
0
0
0
0
0
0
0
0
0
0
0
0
0
0
0
0
0
0
0
0
0
0
0
0
0
0
0
0
0
0
0
0
0
0
0
0
0
0
0
0
0
0
0
0
0
0
0
0
0
0
0
0
0
0
0
0
0
0
0
0
0
0
0
0
0
0
0
0
0
0
0
0
0
0
0
0
0
0
0
0
0
0
0
0
0
0
0
0
0
0
0
0
0
0
0
0
0
0
0
0
0
0
0
0
0
0
0
0
0
0
0
0
0
0
0
0
0
0
0
0
0
0
0
0
0
0
0
0
0
0
0
0
0
0
0
0
0
0
0
0
0
0
0
0
0
0
0
0
0
0
0
0
0
0
0
0
0
0
0
0
0
0
0
0
0
0
0
0
0
0
0
0
0
0
0
0
0
0
0
0
0
0
