P2
# CREATOR: GIMP PNM Filter Version 1.1
128 32
255
0
0
0
0
0
0
0
0
0
0
0
0
0
0
0
0
0
0
0
0
0
0
0
0
0
0
0
0
0
0
0
0
0
0
0
0
0
0
0
0
0
0
0
0
0
0
0
0
0
0
0
0
0
0
0
0
0
0
0
0
0
0
0
0
0
0
0
0
0
0
0
0
0
0
0
0
0
0
0
0
0
0
0
0
0
0
0
0
0
0
0
0
0
0
0
0
0
0
0
0
0
0
0
0
0
0
0
0
0
0
0
0
0
0
0
0
0
0
0
0
0
0
0
0
0
0
0
0
0
0
0
0
0
0
0
0
0
0
0
0
0
0
0
0
0
0
0
0
0
0
0
0
0
0
0
0
0
0
0
0
0
0
0
0
0
0
0
0
0
0
0
0
0
0
0
0
0
0
0
0
0
0
0
0
0
0
0
0
0
0
0
0
0
0
0
0
0
0
0
0
0
0
0
0
0
0
0
0
0
0
0
0
0
0
0
0
0
0
0
0
0
0
0
0
0
0
0
0
0
0
0
0
0
0
0
0
0
0
0
0
0
0
0
0
0
0
0
0
0
0
0
0
0
0
0
0
0
0
0
0
0
0
0
0
0
0
0
0
0
0
0
0
0
0
0
0
0
0
0
0
0
0
0
0
0
0
0
0
0
0
0
0
0
0
0
0
0
0
0
0
0
0
0
0
0
0
0
0
0
0
0
0
0
0
0
0
0
0
0
0
0
0
0
0
0
0
0
0
0
0
0
0
0
0
0
0
0
0
0
0
0
0
0
0
0
0
0
0
0
0
0
0
0
0
0
0
0
0
0
0
0
0
0
0
0
0
0
0
0
0
0
0
0
0
0
0
0
0
0
0
0
0
0
0
0
0
0
0
0
0
0
0
0
0
0
0
0
0
0
0
0
0
0
0
0
0
0
0
0
0
0
0
0
0
0
0
0
0
0
0
0
0
0
0
0
0
0
0
0
0
0
0
0
0
0
0
0
0
0
0
0
0
0
0
0
0
0
0
0
0
0
0
0
0
0
0
0
0
0
0
0
0
0
0
0
0
0
0
0
0
0
0
0
0
0
0
0
0
0
0
0
0
0
0
0
0
0
0
0
0
0
0
0
0
0
0
0
0
0
0
0
0
0
0
0
0
0
0
0
0
0
0
0
0
0
0
0
0
0
0
0
0
0
0
0
0
0
0
0
0
0
0
0
0
0
0
0
0
0
0
0
0
0
0
0
0
0
0
0
0
0
0
0
0
0
0
0
0
0
0
0
0
0
0
0
0
0
0
0
0
0
0
0
0
0
0
0
0
0
0
0
0
0
0
0
0
0
0
0
0
0
0
0
0
0
0
0
0
0
0
0
0
0
0
0
0
0
0
0
0
0
0
0
0
0
0
0
0
0
0
0
0
0
0
0
0
0
0
0
0
0
0
0
0
0
0
0
0
0
0
0
0
0
0
0
0
0
0
0
0
0
0
0
0
0
0
0
0
0
0
0
0
0
0
0
0
0
0
0
0
0
0
0
0
0
0
0
0
0
0
0
0
0
0
0
0
0
0
0
0
0
0
0
0
0
0
0
0
0
0
0
0
0
0
0
0
0
0
0
0
0
0
0
0
0
0
0
0
0
0
0
0
0
0
0
0
0
0
0
0
0
0
0
0
0
0
0
0
0
0
0
0
0
0
0
0
0
0
0
0
0
0
0
0
0
0
0
0
0
0
0
0
0
0
0
0
0
0
0
0
0
0
0
0
0
0
0
0
0
0
0
0
0
0
0
0
0
0
0
0
0
0
0
0
0
0
0
0
0
0
0
0
0
0
0
0
0
0
0
0
0
0
0
0
0
0
0
0
0
0
0
0
0
0
0
0
0
0
0
0
0
0
0
0
0
0
0
0
0
0
0
0
0
0
0
0
0
0
0
0
0
0
0
0
0
0
0
0
0
0
0
0
0
0
0
0
0
0
0
0
0
0
0
0
0
0
0
0
0
0
0
0
0
0
0
0
0
0
0
0
0
0
0
0
0
0
0
0
0
0
0
0
0
0
0
0
0
34
223
0
0
0
0
0
0
0
0
0
34
223
0
0
0
0
0
0
0
0
0
34
223
0
0
0
0
0
0
0
0
0
34
223
0
0
0
0
0
0
0
0
0
34
223
0
0
0
0
0
0
0
0
0
34
223
0
0
0
0
0
0
0
0
0
34
223
0
0
0
0
0
0
0
0
0
34
223
0
0
0
0
0
0
0
0
0
34
223
0
0
0
0
0
0
0
0
0
34
223
0
0
0
0
0
0
0
0
0
34
223
0
0
0
0
0
0
0
0
0
0
0
0
0
0
0
0
101
157
0
0
0
0
0
0
0
0
0
101
157
0
0
0
0
0
0
0
0
0
101
157
0
0
0
0
0
0
0
0
0
101
157
0
0
0
0
0
0
0
0
0
101
157
0
0
0
0
0
0
0
0
0
101
157
0
0
0
0
0
0
0
0
0
101
157
0
0
0
0
0
0
0
0
0
101
157
0
0
0
0
0
0
0
0
0
101
157
0
0
0
0
0
0
0
0
0
101
157
0
0
0
0
0
0
0
0
0
101
157
0
0
0
0
0
0
0
0
0
0
0
0
0
26
140
213
250
252
221
141
0
0
0
0
26
140
213
250
252
221
141
0
0
0
0
26
140
213
250
252
221
141
0
0
0
0
26
140
213
250
252
221
141
0
0
0
0
26
140
213
250
252
221
141
0
0
0
0
26
140
213
250
252
221
141
0
0
0
0
26
140
213
250
252
221
141
0
0
0
0
26
140
213
250
252
221
141
0
0
0
0
26
140
213
250
252
221
141
0
0
0
0
26
140
213
250
252
221
141
0
0
0
0
26
140
213
250
252
221
141
0
0
0
0
0
0
0
0
0
0
48
237
255
255
255
255
255
202
0
0
0
48
237
255
255
255
255
255
202
0
0
0
48
237
255
255
255
255
255
202
0
0
0
48
237
255
255
255
255
255
202
0
0
0
48
237
255
255
255
255
255
202
0
0
0
48
237
255
255
255
255
255
202
0
0
0
48
237
255
255
255
255
255
202
0
0
0
48
237
255
255
255
255
255
202
0
0
0
48
237
255
255
255
255
255
202
0
0
0
48
237
255
255
255
255
255
202
0
0
0
48
237
255
255
255
255
255
202
0
0
0
0
0
0
0
0
0
0
199
255
121
56
219
0
0
0
0
0
0
199
255
121
56
219
0
0
0
0
0
0
199
255
121
56
219
0
0
0
0
0
0
199
255
121
56
219
0
0
0
0
0
0
199
255
121
56
219
0
0
0
0
0
0
199
255
121
56
219
0
0
0
0
0
0
199
255
121
56
219
0
0
0
0
0
0
199
255
121
56
219
0
0
0
0
0
0
199
255
121
56
219
0
0
0
0
0
0
199
255
121
56
219
0
0
0
0
0
0
199
255
121
56
219
0
0
0
0
0
0
0
0
0
0
0
0
0
247
255
14
101
155
0
0
0
0
0
0
247
255
14
101
155
0
0
0
0
0
0
247
255
14
101
155
0
0
0
0
0
0
247
255
14
101
155
0
0
0
0
0
0
247
255
14
101
155
0
0
0
0
0
0
247
255
14
101
155
0
0
0
0
0
0
247
255
14
101
155
0
0
0
0
0
0
247
255
14
101
155
0
0
0
0
0
0
247
255
14
101
155
0
0
0
0
0
0
247
255
14
101
155
0
0
0
0
0
0
247
255
14
101
155
0
0
0
0
0
0
0
0
0
0
0
0
0
189
255
179
189
100
0
0
0
0
0
0
189
255
179
189
100
0
0
0
0
0
0
189
255
179
189
100
0
0
0
0
0
0
189
255
179
189
100
0
0
0
0
0
0
189
255
179
189
100
0
0
0
0
0
0
189
255
179
189
100
0
0
0
0
0
0
189
255
179
189
100
0
0
0
0
0
0
189
255
179
189
100
0
0
0
0
0
0
189
255
179
189
100
0
0
0
0
0
0
189
255
179
189
100
0
0
0
0
0
0
189
255
179
189
100
0
0
0
0
0
0
0
0
0
0
0
0
0
24
164
243
255
253
187
36
0
0
0
0
24
164
243
255
253
187
36
0
0
0
0
24
164
243
255
253
187
36
0
0
0
0
24
164
243
255
253
187
36
0
0
0
0
24
164
243
255
253
187
36
0
0
0
0
24
164
243
255
253
187
36
0
0
0
0
24
164
243
255
253
187
36
0
0
0
0
24
164
243
255
253
187
36
0
0
0
0
24
164
243
255
253
187
36
0
0
0
0
24
164
243
255
253
187
36
0
0
0
0
24
164
243
255
253
187
36
0
0
0
0
0
0
0
0
0
0
0
0
0
31
228
152
255
205
0
0
0
0
0
0
31
228
152
255
205
0
0
0
0
0
0
31
228
152
255
205
0
0
0
0
0
0
31
228
152
255
205
0
0
0
0
0
0
31
228
152
255
205
0
0
0
0
0
0
31
228
152
255
205
0
0
0
0
0
0
31
228
152
255
205
0
0
0
0
0
0
31
228
152
255
205
0
0
0
0
0
0
31
228
152
255
205
0
0
0
0
0
0
31
228
152
255
205
0
0
0
0
0
0
31
228
152
255
205
0
0
0
0
0
0
0
0
0
0
0
0
0
89
163
11
255
247
0
0
0
0
0
0
89
163
11
255
247
0
0
0
0
0
0
89
163
11
255
247
0
0
0
0
0
0
89
163
11
255
247
0
0
0
0
0
0
89
163
11
255
247
0
0
0
0
0
0
89
163
11
255
247
0
0
0
0
0
0
89
163
11
255
247
0
0
0
0
0
0
89
163
11
255
247
0
0
0
0
0
0
89
163
11
255
247
0
0
0
0
0
0
89
163
11
255
247
0
0
0
0
0
0
89
163
11
255
247
0
0
0
0
0
0
0
0
0
0
0
0
0
152
112
114
255
195
0
0
0
0
0
0
152
112
114
255
195
0
0
0
0
0
0
152
112
114
255
195
0
0
0
0
0
0
152
112
114
255
195
0
0
0
0
0
0
152
112
114
255
195
0
0
0
0
0
0
152
112
114
255
195
0
0
0
0
0
0
152
112
114
255
195
0
0
0
0
0
0
152
112
114
255
195
0
0
0
0
0
0
152
112
114
255
195
0
0
0
0
0
0
152
112
114
255
195
0
0
0
0
0
0
152
112
114
255
195
0
0
0
0
0
0
0
0
0
192
255
255
255
255
255
255
239
49
0
0
192
255
255
255
255
255
255
239
49
0
0
192
255
255
255
255
255
255
239
49
0
0
192
255
255
255
255
255
255
239
49
0
0
192
255
255
255
255
255
255
239
49
0
0
192
255
255
255
255
255
255
239
49
0
0
192
255
255
255
255
255
255
239
49
0
0
192
255
255
255
255
255
255
239
49
0
0
192
255
255
255
255
255
255
239
49
0
0
192
255
255
255
255
255
255
239
49
0
0
192
255
255
255
255
255
255
239
49
0
0
0
0
0
0
0
0
0
121
195
236
253
252
215
144
29
0
0
0
121
195
236
253
252
215
144
29
0
0
0
121
195
236
253
252
215
144
29
0
0
0
121
195
236
253
252
215
144
29
0
0
0
121
195
236
253
252
215
144
29
0
0
0
121
195
236
253
252
215
144
29
0
0
0
121
195
236
253
252
215
144
29
0
0
0
121
195
236
253
252
215
144
29
0
0
0
121
195
236
253
252
215
144
29
0
0
0
121
195
236
253
252
215
144
29
0
0
0
121
195
236
253
252
215
144
29
0
0
0
0
0
0
0
0
0
0
0
0
0
96
163
0
0
0
0
0
0
0
0
0
96
163
0
0
0
0
0
0
0
0
0
96
163
0
0
0
0
0
0
0
0
0
96
163
0
0
0
0
0
0
0
0
0
96
163
0
0
0
0
0
0
0
0
0
96
163
0
0
0
0
0
0
0
0
0
96
163
0
0
0
0
0
0
0
0
0
96
163
0
0
0
0
0
0
0
0
0
96
163
0
0
0
0
0
0
0
0
0
96
163
0
0
0
0
0
0
0
0
0
96
163
0
0
0
0
0
0
0
0
0
0
0
0
0
0
0
0
160
98
0
0
0
0
0
0
0
0
0
160
98
0
0
0
0
0
0
0
0
0
160
98
0
0
0
0
0
0
0
0
0
160
98
0
0
0
0
0
0
0
0
0
160
98
0
0
0
0
0
0
0
0
0
160
98
0
0
0
0
0
0
0
0
0
160
98
0
0
0
0
0
0
0
0
0
160
98
0
0
0
0
0
0
0
0
0
160
98
0
0
0
0
0
0
0
0
0
160
98
0
0
0
0
0
0
0
0
0
160
98
0
0
0
0
0
0
0
0
0
0
0
0
0
0
0
0
224
32
0
0
0
0
0
0
0
0
0
224
32
0
0
0
0
0
0
0
0
0
224
32
0
0
0
0
0
0
0
0
0
224
32
0
0
0
0
0
0
0
0
0
224
32
0
0
0
0
0
0
0
0
0
224
32
0
0
0
0
0
0
0
0
0
224
32
0
0
0
0
0
0
0
0
0
224
32
0
0
0
0
0
0
0
0
0
224
32
0
0
0
0
0
0
0
0
0
224
32
0
0
0
0
0
0
0
0
0
224
32
0
0
0
0
0
0
0
0
0
0
0
0
0
0
0
0
0
0
0
0
0
0
0
0
0
0
0
0
0
0
0
0
0
0
0
0
0
0
0
0
0
0
0
0
0
0
0
0
0
0
0
0
0
0
0
0
0
0
0
0
0
0
0
0
0
0
0
0
0
0
0
0
0
0
0
0
0
0
0
0
0
0
0
0
0
0
0
0
0
0
0
0
0
0
0
0
0
0
0
0
0
0
0
0
0
0
0
0
0
0
0
0
0
0
0
0
0
0
0
0
0
0
0
0
0
0
0
0
0
0
0
0
0
0
0
0
0
0
0
0
0
0
0
0
0
0
0
0
0
0
0
0
0
0
0
0
0
0
0
0
0
0
0
0
0
0
0
0
0
0
0
0
0
0
0
0
0
0
0
0
0
0
0
0
0
0
0
0
0
0
0
0
0
0
0
0
0
0
0
0
0
0
0
0
0
0
0
0
0
0
0
0
0
0
0
0
0
0
0
0
0
0
0
0
0
0
0
0
0
0
0
0
0
0
0
0
0
0
0
0
0
0
0
0
0
0
0
0
0
0
0
0
0
0
0
0
0
0
0
0
0
0
0
0
0
0
0
0
0
0
0
0
0
0
0
0
0
0
0
0
0
0
0
0
0
0
0
0
0
0
0
0
0
0
0
0
0
0
0
0
0
0
0
0
0
0
0
0
0
0
0
0
0
0
0
0
0
0
0
0
0
0
0
0
0
0
0
0
0
0
0
0
0
0
0
0
0
0
0
0
0
0
0
0
0
0
0
0
0
0
0
0
0
0
0
0
0
0
0
0
0
0
0
0
0
0
0
0
0
0
0
0
0
0
0
0
0
0
0
0
0
0
0
0
0
0
0
0
0
0
0
0
0
0
0
0
0
0
0
0
0
0
0
0
0
0
0
0
0
0
0
0
0
0
0
0
0
0
0
0
0
0
0
0
0
0
0
0
0
0
0
0
0
0
0
0
0
0
0
0
0
0
0
0
0
0
0
0
0
0
0
0
0
0
0
0
0
0
0
0
0
0
0
0
0
0
0
0
0
0
0
0
0
0
0
0
0
0
0
0
0
0
0
0
0
0
0
0
0
0
0
0
0
0
0
0
0
0
0
0
0
0
0
0
0
0
0
0
0
0
0
0
0
0
0
0
0
0
0
0
0
0
0
0
0
0
0
0
0
0
0
0
0
0
0
0
0
0
0
0
0
0
0
0
0
0
0
0
0
0
0
0
0
0
0
0
0
0
0
0
0
0
0
0
0
0
0
0
0
0
0
0
0
0
0
0
0
0
0
0
0
0
0
0
0
0
0
0
0
0
0
0
0
0
0
0
0
0
0
0
0
0
0
0
0
0
0
0
0
0
0
0
0
0
0
0
0
0
0
0
0
0
0
0
0
0
0
0
0
0
0
0
0
0
0
0
0
0
0
0
0
0
0
0
0
0
0
0
0
0
0
0
0
0
0
0
0
0
0
0
0
0
0
0
0
0
0
0
0
0
0
0
0
0
0
0
0
0
0
0
0
0
0
0
0
0
0
0
0
0
0
0
0
0
0
0
0
0
0
0
0
0
0
0
0
0
0
0
0
0
0
0
0
0
0
0
0
0
0
0
0
0
0
0
0
0
0
0
0
0
0
0
0
0
0
0
0
0
0
0
0
0
0
0
0
0
0
0
0
0
0
0
0
0
0
0
0
0
0
0
0
0
0
0
0
0
0
0
0
0
0
0
0
0
0
0
0
0
0
0
0
0
0
0
0
0
0
0
0
0
0
0
0
0
0
0
0
0
0
0
0
0
0
0
0
0
0
0
0
0
0
0
0
0
0
0
0
0
0
0
0
0
0
0
0
0
0
0
0
0
0
0
0
0
0
0
0
0
0
0
0
0
0
0
0
0
0
0
0
0
0
0
0
0
0
0
0
0
0
0
0
0
0
0
0
0
0
0
0
0
0
0
0
0
0
0
0
0
0
0
0
0
0
0
0
0
0
0
0
0
0
0
0
0
0
0
0
0
0
0
0
0
0
0
0
0
0
0
0
0
0
0
0
0
0
0
0
0
0
0
0
0
0
0
0
0
0
0
0
0
0
0
0
0
0
0
0
0
0
0
0
0
0
0
0
0
0
0
0
0
0
0
0
0
0
0
0
0
0
0
0
0
0
0
0
0
0
0
0
0
0
0
0
0
0
0
0
0
0
0
0
0
0
0
0
0
0
0
0
0
0
0
0
0
0
0
0
0
0
0
0
0
0
0
0
0
0
0
0
0
0
0
0
0
0
0
0
0
0
0
0
0
0
0
0
0
0
0
0
0
0
0
0
0
0
0
0
0
0
0
0
0
0
0
0
0
0
0
0
0
0
0
0
0
0
0
0
0
0
0
0
0
0
0
0
0
0
0
0
0
0
0
0
0
0
0
0
0
0
0
0
0
0
0
0
0
0
0
0
0
0
0
0
0
0
0
0
0
0
0
0
0
0
0
0
0
0
0
0
0
0
0
0
0
0
0
0
0
0
0
0
0
0
0
0
0
0
0
0
0
0
0
0
0
0
0
0
0
0
0
0
0
0
0
0
0
0
0
0
0
0
0
0
0
0
0
0
0
0
0
