P2
# CREATOR: GIMP PNM Filter Version 1.1
128 32
255
0
0
0
0
0
0
0
0
0
0
0
0
0
0
0
0
0
0
0
0
0
0
0
0
0
0
0
0
0
0
0
0
0
0
0
0
0
0
0
0
0
0
0
0
0
0
0
0
0
0
0
0
0
0
0
0
0
0
0
0
0
0
0
0
0
0
0
0
0
0
0
0
0
0
0
0
0
0
0
0
0
0
0
0
0
0
0
0
0
0
0
0
0
0
0
0
0
0
0
0
0
0
0
0
0
0
0
0
0
0
0
0
0
0
0
0
0
0
0
0
0
0
0
0
0
0
0
0
0
0
0
0
0
0
0
0
0
0
0
0
0
0
0
0
0
0
0
0
0
0
0
0
0
0
0
0
0
0
0
0
0
0
0
0
0
0
0
0
0
0
0
0
0
0
0
0
0
0
0
0
0
0
0
0
0
0
0
0
0
0
0
0
0
0
0
0
0
0
0
0
0
0
0
0
0
0
0
0
0
0
0
0
0
0
0
0
0
0
0
0
0
0
0
0
0
0
0
0
0
0
0
0
0
0
0
0
0
0
0
0
0
0
0
0
0
0
0
0
0
0
0
0
0
0
0
0
0
0
0
0
0
0
0
0
0
0
0
0
0
0
0
0
0
0
0
0
0
0
0
0
0
0
0
0
0
0
0
0
0
0
0
0
0
0
0
0
0
0
0
0
0
0
0
0
0
0
0
0
0
0
0
0
0
0
0
0
0
0
0
0
0
0
0
0
0
0
0
0
0
0
0
0
0
0
0
0
0
0
0
0
0
0
0
0
0
0
0
0
0
0
0
0
0
0
0
0
0
0
0
0
0
0
0
0
0
0
0
0
0
0
0
0
0
0
0
0
0
0
0
0
0
0
0
0
0
0
0
0
0
0
0
0
0
0
0
0
0
0
0
0
0
0
0
0
0
0
0
0
0
0
0
0
0
0
0
0
0
0
0
0
0
0
0
0
0
0
0
0
0
0
0
0
0
0
0
0
0
0
0
0
0
0
0
0
0
0
0
0
0
0
0
0
0
0
0
0
0
0
0
0
0
0
0
0
0
0
0
0
0
0
0
0
0
0
0
0
0
0
0
0
0
0
0
0
0
0
0
0
0
0
0
0
0
0
0
0
0
0
0
0
0
0
0
0
0
0
0
0
0
0
0
0
0
0
0
0
0
0
0
0
0
0
0
0
0
0
0
0
0
0
0
0
0
0
0
0
0
0
0
0
0
0
0
0
0
0
0
0
0
0
0
0
0
0
0
0
0
0
0
0
0
0
0
0
0
0
0
0
0
0
0
0
0
0
0
0
0
0
0
0
0
0
0
0
0
0
0
0
0
0
0
0
0
0
0
0
0
0
0
0
0
0
0
0
0
0
0
0
0
0
0
0
0
0
0
0
0
0
0
0
0
0
0
0
0
0
0
0
0
0
0
0
0
0
0
0
0
0
0
0
0
0
0
0
0
0
0
0
0
0
0
33
223
0
0
0
0
0
0
0
0
0
33
223
0
0
0
0
0
0
0
0
0
33
223
0
0
0
0
0
0
0
0
0
33
223
0
0
0
0
0
0
0
0
0
33
223
0
0
0
0
0
0
0
0
0
33
223
0
0
0
0
0
0
0
0
0
33
223
0
0
0
0
0
0
0
0
0
33
223
0
0
0
0
0
0
0
0
0
33
223
0
0
0
0
0
0
0
0
0
33
223
0
0
0
0
0
0
0
0
0
33
223
0
0
0
0
0
0
0
0
0
0
0
0
0
0
0
0
98
157
0
0
0
0
0
0
0
0
0
98
157
0
0
0
0
0
0
0
0
0
98
157
0
0
0
0
0
0
0
0
0
98
157
0
0
0
0
0
0
0
0
0
98
157
0
0
0
0
0
0
0
0
0
98
157
0
0
0
0
0
0
0
0
0
98
157
0
0
0
0
0
0
0
0
0
98
157
0
0
0
0
0
0
0
0
0
98
157
0
0
0
0
0
0
0
0
0
98
157
0
0
0
0
0
0
0
0
0
98
157
0
0
0
0
0
0
0
0
0
0
0
0
0
25
139
212
249
252
221
141
0
0
0
0
25
139
212
249
252
221
141
0
0
0
0
25
139
212
249
252
221
141
0
0
0
0
25
139
212
249
252
221
141
0
0
0
0
25
139
212
249
252
221
141
0
0
0
0
25
139
212
249
252
221
141
0
0
0
0
25
139
212
249
252
221
141
0
0
0
0
25
139
212
249
252
221
141
0
0
0
0
25
139
212
249
252
221
141
0
0
0
0
25
139
212
249
252
221
141
0
0
0
0
25
139
212
249
252
221
141
0
0
0
0
0
0
0
0
0
0
48
237
198
47
228
38
82
170
0
0
0
48
237
198
47
228
38
82
170
0
0
0
48
237
198
47
228
38
82
170
0
0
0
48
237
198
47
228
38
82
170
0
0
0
48
237
198
47
228
38
82
170
0
0
0
48
237
198
47
228
38
82
170
0
0
0
48
237
198
47
228
38
82
170
0
0
0
48
237
198
47
228
38
82
170
0
0
0
48
237
198
47
228
38
82
170
0
0
0
48
237
198
47
228
38
82
170
0
0
0
48
237
198
47
228
38
82
170
0
0
0
0
0
0
0
0
0
0
199
255
35
35
219
0
0
0
0
0
0
199
255
35
35
219
0
0
0
0
0
0
199
255
35
35
219
0
0
0
0
0
0
199
255
35
35
219
0
0
0
0
0
0
199
255
35
35
219
0
0
0
0
0
0
199
255
35
35
219
0
0
0
0
0
0
199
255
35
35
219
0
0
0
0
0
0
199
255
35
35
219
0
0
0
0
0
0
199
255
35
35
219
0
0
0
0
0
0
199
255
35
35
219
0
0
0
0
0
0
199
255
35
35
219
0
0
0
0
0
0
0
0
0
0
0
0
0
247
255
14
99
155
0
0
0
0
0
0
247
255
14
99
155
0
0
0
0
0
0
247
255
14
99
155
0
0
0
0
0
0
247
255
14
99
155
0
0
0
0
0
0
247
255
14
99
155
0
0
0
0
0
0
247
255
14
99
155
0
0
0
0
0
0
247
255
14
99
155
0
0
0
0
0
0
247
255
14
99
155
0
0
0
0
0
0
247
255
14
99
155
0
0
0
0
0
0
247
255
14
99
155
0
0
0
0
0
0
247
255
14
99
155
0
0
0
0
0
0
0
0
0
0
0
0
0
189
255
180
187
100
0
0
0
0
0
0
189
255
180
187
100
0
0
0
0
0
0
189
255
180
187
100
0
0
0
0
0
0
189
255
180
187
100
0
0
0
0
0
0
189
255
180
187
100
0
0
0
0
0
0
189
255
180
187
100
0
0
0
0
0
0
189
255
180
187
100
0
0
0
0
0
0
189
255
180
187
100
0
0
0
0
0
0
189
255
180
187
100
0
0
0
0
0
0
189
255
180
187
100
0
0
0
0
0
0
189
255
180
187
100
0
0
0
0
0
0
0
0
0
0
0
0
0
24
164
243
255
253
187
36
0
0
0
0
24
164
243
255
253
187
36
0
0
0
0
24
164
243
255
253
187
36
0
0
0
0
24
164
243
255
253
187
36
0
0
0
0
24
164
243
255
253
187
36
0
0
0
0
24
164
243
255
253
187
36
0
0
0
0
24
164
243
255
253
187
36
0
0
0
0
24
164
243
255
253
187
36
0
0
0
0
24
164
243
255
253
187
36
0
0
0
0
24
164
243
255
253
187
36
0
0
0
0
24
164
243
255
253
187
36
0
0
0
0
0
0
0
0
0
0
0
0
0
31
229
152
255
205
0
0
0
0
0
0
31
229
152
255
205
0
0
0
0
0
0
31
229
152
255
205
0
0
0
0
0
0
31
229
152
255
205
0
0
0
0
0
0
31
229
152
255
205
0
0
0
0
0
0
31
229
152
255
205
0
0
0
0
0
0
31
229
152
255
205
0
0
0
0
0
0
31
229
152
255
205
0
0
0
0
0
0
31
229
152
255
205
0
0
0
0
0
0
31
229
152
255
205
0
0
0
0
0
0
31
229
152
255
205
0
0
0
0
0
0
0
0
0
0
0
0
0
90
164
9
255
247
0
0
0
0
0
0
90
164
9
255
247
0
0
0
0
0
0
90
164
9
255
247
0
0
0
0
0
0
90
164
9
255
247
0
0
0
0
0
0
90
164
9
255
247
0
0
0
0
0
0
90
164
9
255
247
0
0
0
0
0
0
90
164
9
255
247
0
0
0
0
0
0
90
164
9
255
247
0
0
0
0
0
0
90
164
9
255
247
0
0
0
0
0
0
90
164
9
255
247
0
0
0
0
0
0
90
164
9
255
247
0
0
0
0
0
0
0
0
0
0
0
0
0
153
101
29
255
195
0
0
0
0
0
0
153
101
29
255
195
0
0
0
0
0
0
153
101
29
255
195
0
0
0
0
0
0
153
101
29
255
195
0
0
0
0
0
0
153
101
29
255
195
0
0
0
0
0
0
153
101
29
255
195
0
0
0
0
0
0
153
101
29
255
195
0
0
0
0
0
0
153
101
29
255
195
0
0
0
0
0
0
153
101
29
255
195
0
0
0
0
0
0
153
101
29
255
195
0
0
0
0
0
0
153
101
29
255
195
0
0
0
0
0
0
0
0
0
175
126
50
9
216
73
183
239
49
0
0
175
126
50
9
216
73
183
239
49
0
0
175
126
50
9
216
73
183
239
49
0
0
175
126
50
9
216
73
183
239
49
0
0
175
126
50
9
216
73
183
239
49
0
0
175
126
50
9
216
73
183
239
49
0
0
175
126
50
9
216
73
183
239
49
0
0
175
126
50
9
216
73
183
239
49
0
0
175
126
50
9
216
73
183
239
49
0
0
175
126
50
9
216
73
183
239
49
0
0
175
126
50
9
216
73
183
239
49
0
0
0
0
0
0
0
0
0
121
195
236
253
252
215
144
29
0
0
0
121
195
236
253
252
215
144
29
0
0
0
121
195
236
253
252
215
144
29
0
0
0
121
195
236
253
252
215
144
29
0
0
0
121
195
236
253
252
215
144
29
0
0
0
121
195
236
253
252
215
144
29
0
0
0
121
195
236
253
252
215
144
29
0
0
0
121
195
236
253
252
215
144
29
0
0
0
121
195
236
253
252
215
144
29
0
0
0
121
195
236
253
252
215
144
29
0
0
0
121
195
236
253
252
215
144
29
0
0
0
0
0
0
0
0
0
0
0
0
0
96
162
0
0
0
0
0
0
0
0
0
96
162
0
0
0
0
0
0
0
0
0
96
162
0
0
0
0
0
0
0
0
0
96
162
0
0
0
0
0
0
0
0
0
96
162
0
0
0
0
0
0
0
0
0
96
162
0
0
0
0
0
0
0
0
0
96
162
0
0
0
0
0
0
0
0
0
96
162
0
0
0
0
0
0
0
0
0
96
162
0
0
0
0
0
0
0
0
0
96
162
0
0
0
0
0
0
0
0
0
96
162
0
0
0
0
0
0
0
0
0
0
0
0
0
0
0
0
160
95
0
0
0
0
0
0
0
0
0
160
95
0
0
0
0
0
0
0
0
0
160
95
0
0
0
0
0
0
0
0
0
160
95
0
0
0
0
0
0
0
0
0
160
95
0
0
0
0
0
0
0
0
0
160
95
0
0
0
0
0
0
0
0
0
160
95
0
0
0
0
0
0
0
0
0
160
95
0
0
0
0
0
0
0
0
0
160
95
0
0
0
0
0
0
0
0
0
160
95
0
0
0
0
0
0
0
0
0
160
95
0
0
0
0
0
0
0
0
0
0
0
0
0
0
0
0
223
29
0
0
0
0
0
0
0
0
0
223
29
0
0
0
0
0
0
0
0
0
223
29
0
0
0
0
0
0
0
0
0
223
29
0
0
0
0
0
0
0
0
0
223
29
0
0
0
0
0
0
0
0
0
223
29
0
0
0
0
0
0
0
0
0
223
29
0
0
0
0
0
0
0
0
0
223
29
0
0
0
0
0
0
0
0
0
223
29
0
0
0
0
0
0
0
0
0
223
29
0
0
0
0
0
0
0
0
0
223
29
0
0
0
0
0
0
0
0
0
0
0
0
0
0
0
0
0
0
0
0
0
0
0
0
0
0
0
0
0
0
0
0
0
0
0
0
0
0
0
0
0
0
0
0
0
0
0
0
0
0
0
0
0
0
0
0
0
0
0
0
0
0
0
0
0
0
0
0
0
0
0
0
0
0
0
0
0
0
0
0
0
0
0
0
0
0
0
0
0
0
0
0
0
0
0
0
0
0
0
0
0
0
0
0
0
0
0
0
0
0
0
0
0
0
0
0
0
0
0
0
0
0
0
0
0
0
0
0
0
0
0
0
0
0
0
0
0
0
0
0
0
0
0
0
0
0
0
0
0
0
0
0
0
0
0
0
0
0
0
0
0
0
0
0
0
0
0
0
0
0
0
0
0
0
0
0
0
0
0
0
0
0
0
0
0
0
0
0
0
0
0
0
0
0
0
0
0
0
0
0
0
0
0
0
0
0
0
0
0
0
0
0
0
0
0
0
0
0
0
0
0
0
0
0
0
0
0
0
0
0
0
0
0
0
0
0
0
0
0
0
0
0
0
0
0
0
0
0
0
0
0
0
0
0
0
0
0
0
0
0
0
0
0
0
0
0
0
0
0
0
0
0
0
0
0
0
0
0
0
0
0
0
0
0
0
0
0
0
0
0
0
0
0
0
0
0
0
0
0
0
0
0
0
0
0
0
0
0
0
0
0
0
0
0
0
0
0
0
0
0
0
0
0
0
0
0
0
0
0
0
0
0
0
0
0
0
0
0
0
0
0
0
0
0
0
0
0
0
0
0
0
0
0
0
0
0
0
0
0
0
0
0
0
0
0
0
0
0
0
0
0
0
0
0
0
0
0
0
0
0
0
0
0
0
0
0
0
0
0
0
0
0
0
0
0
0
0
0
0
0
0
0
0
0
0
0
0
0
0
0
0
0
0
0
0
0
0
0
0
0
0
0
0
0
0
0
0
0
0
0
0
0
0
0
0
0
0
0
0
0
0
0
0
0
0
0
0
0
0
0
0
0
0
0
0
0
0
0
0
0
0
0
0
0
0
0
0
0
0
0
0
0
0
0
0
0
0
0
0
0
0
0
0
0
0
0
0
0
0
0
0
0
0
0
0
0
0
0
0
0
0
0
0
0
0
0
0
0
0
0
0
0
0
0
0
0
0
0
0
0
0
0
0
0
0
0
0
0
0
0
0
0
0
0
0
0
0
0
0
0
0
0
0
0
0
0
0
0
0
0
0
0
0
0
0
0
0
0
0
0
0
0
0
0
0
0
0
0
0
0
0
0
0
0
0
0
0
0
0
0
0
0
0
0
0
0
0
0
0
0
0
0
0
0
0
0
0
0
0
0
0
0
0
0
0
0
0
0
0
0
0
0
0
0
0
0
0
0
0
0
0
0
0
0
0
0
0
0
0
0
0
0
0
0
0
0
0
0
0
0
0
0
0
0
0
0
0
0
0
0
0
0
0
0
0
0
0
0
0
0
0
0
0
0
0
0
0
0
0
0
0
0
0
0
0
0
0
0
0
0
0
0
0
0
0
0
0
0
0
0
0
0
0
0
0
0
0
0
0
0
0
0
0
0
0
0
0
0
0
0
0
0
0
0
0
0
0
0
0
0
0
0
0
0
0
0
0
0
0
0
0
0
0
0
0
0
0
0
0
0
0
0
0
0
0
0
0
0
0
0
0
0
0
0
0
0
0
0
0
0
0
0
0
0
0
0
0
0
0
0
0
0
0
0
0
0
0
0
0
0
0
0
0
0
0
0
0
0
0
0
0
0
0
0
0
0
0
0
0
0
0
0
0
0
0
0
0
0
0
0
0
0
0
0
0
0
0
0
0
0
0
0
0
0
0
0
0
0
0
0
0
0
0
0
0
0
0
0
0
0
0
0
0
0
0
0
0
0
0
0
0
0
0
0
0
0
0
0
0
0
0
0
0
0
0
0
0
0
0
0
0
0
0
0
0
0
0
0
0
0
0
0
0
0
0
0
0
0
0
0
0
0
0
0
0
0
0
0
0
0
0
0
0
0
0
0
0
0
0
0
0
0
0
0
0
0
0
0
0
0
0
0
0
0
0
0
0
0
0
0
0
0
0
0
0
0
0
0
0
0
0
0
0
0
0
0
0
0
0
0
0
0
0
0
0
0
0
0
0
0
0
0
0
0
0
0
0
0
0
0
0
0
0
0
0
0
0
0
0
0
0
0
0
0
0
0
0
0
0
0
0
0
0
0
0
0
0
0
0
0
0
0
0
0
0
0
0
0
0
0
0
0
0
0
0
0
0
0
0
0
0
0
0
0
0
0
0
0
0
0
0
0
0
0
0
0
0
0
0
0
0
0
0
0
0
0
0
0
0
0
0
0
0
0
0
0
0
0
0
0
0
0
0
0
0
0
0
0
0
0
0
0
0
0
0
0
0
0
0
0
0
0
0
0
0
0
0
0
0
0
0
0
0
0
0
0
0
0
0
0
0
0
0
0
0
0
0
0
0
0
0
0
0
0
0
0
0
0
0
0
0
0
0
0
0
0
0
0
0
0
0
0
0
0
0
0
0
0
0
0
0
0
0
0
0
0
0
0
0
0
0
0
0
0
0
0
0
0
0
0
0
0
0
0
0
0
0
0
0
0
0
0
0
0
0
0
0
0
0
0
0
0
0
0
0
0
0
0
0
0
0
0
0
0
0
0
0
0
0
0
0
0
0
0
0
0
0
0
0
0
0
0
0
0
0
0
0
0
0
0
0
0
0
0
0
0
0
0
0
0
0
0
0
0
0
0
0
0
0
0
0
0
0
0
0
0
0
0
0
0
0
0
0
0
0
0
0
0
0
0
0
0
0
0
0
0
0
0
0
0
0
0
0
0
0
0
0
0
0
0
0
0
0
0
0
0
0
0
0
0
0
0
0
0
0
0
0
0
0
0
0
0
0
0
0
0
0
0
0
0
0
0
0
0
0
0
0
0
0
0
0
0
0
0
0
0
0
0
0
0
0
0
0
0
0
0
0
0
0
0
0
0
0
0
0
0
0
0
0
0
0
0
0
0
0
0
0
0
0
0
0
0
0
0
0
0
0
0
0
0
0
0
0
0
0
0
0
0
0
0
0
0
0
0
0
0
0
0
0
0
0
0
0
0
0
0
0
0
0
0
0
0
0
0
0
0
0
0
0
0
0
0
0
0
0
0
