P2
# CREATOR: GIMP PNM Filter Version 1.1
128 32
255
23
23
23
23
23
23
23
23
23
23
23
23
23
23
23
23
23
23
23
23
23
23
23
23
57
57
40
40
40
40
48
48
48
48
70
70
40
40
40
40
109
109
109
109
109
109
109
109
109
109
109
109
109
109
109
109
109
109
109
109
109
109
109
109
109
109
109
109
109
109
109
109
109
109
40
40
57
57
23
23
23
23
23
23
23
23
23
23
23
23
23
23
23
23
23
23
23
23
23
23
23
23
23
23
23
23
23
23
23
23
23
23
23
23
23
23
23
23
23
23
23
23
23
23
23
23
23
23
23
23
23
23
23
23
23
23
23
23
23
23
23
23
23
23
23
23
23
23
57
57
40
40
40
40
40
40
48
48
48
48
70
70
70
70
70
70
40
40
109
109
109
109
109
109
109
109
141
141
141
141
141
141
141
141
141
141
141
141
141
141
141
141
141
141
141
141
141
141
109
109
109
109
109
109
40
40
57
57
23
23
23
23
23
23
23
23
23
23
23
23
23
23
23
23
23
23
23
23
23
23
23
23
23
23
23
23
23
23
23
23
23
23
23
23
23
23
23
23
23
23
23
23
23
23
23
23
23
23
23
23
23
23
23
23
23
23
23
23
23
23
23
23
23
23
40
40
40
40
40
40
40
40
70
70
48
48
48
48
70
70
70
70
70
70
40
40
109
109
109
109
109
109
109
109
141
141
141
141
141
141
141
141
141
141
141
141
141
141
141
141
141
141
141
141
141
141
141
141
141
141
141
141
109
109
40
40
57
57
23
23
23
23
23
23
23
23
23
23
23
23
23
23
23
23
23
23
23
23
23
23
23
23
23
23
23
23
23
23
23
23
23
23
23
23
23
23
23
23
23
23
23
23
23
23
23
23
23
23
23
23
23
23
23
23
23
23
30
30
30
30
30
30
48
48
40
40
40
40
40
40
70
70
48
48
70
70
70
70
48
48
48
48
40
40
40
40
109
109
109
109
109
109
109
109
141
141
141
141
141
141
141
141
141
141
141
141
141
141
141
141
141
141
141
141
141
141
141
141
141
141
141
141
109
109
40
40
57
57
23
23
23
23
23
23
23
23
23
23
23
23
23
23
23
23
23
23
23
23
23
23
23
23
23
23
23
23
23
23
23
23
23
23
23
23
23
23
23
23
23
23
23
23
23
23
23
23
23
23
23
23
30
30
48
48
48
48
48
48
48
48
48
48
57
57
40
40
40
40
48
48
48
48
40
40
48
48
48
48
48
48
40
40
40
40
57
57
57
57
57
57
57
57
57
57
57
57
57
57
57
57
57
57
57
57
57
57
57
57
57
57
57
57
57
57
57
57
57
57
57
57
57
57
57
57
40
40
57
57
57
57
57
57
57
57
57
57
57
57
57
57
23
23
23
23
23
23
23
23
23
23
23
23
23
23
23
23
23
23
23
23
23
23
23
23
23
23
23
23
23
23
23
23
23
23
30
30
48
48
48
48
48
48
57
57
57
57
57
57
57
57
57
57
57
57
57
57
40
40
40
40
40
40
40
40
48
48
48
48
48
48
40
40
40
40
40
40
48
48
57
57
57
57
57
57
57
57
57
57
57
57
57
57
109
109
57
57
109
109
109
109
109
109
57
57
109
109
109
109
57
57
109
109
109
109
109
109
109
109
109
109
109
109
109
109
109
109
109
109
57
57
57
57
57
57
57
57
57
57
57
57
57
57
57
57
57
57
23
23
23
23
23
23
23
23
23
23
23
23
23
23
23
23
30
30
48
48
48
48
48
48
57
57
57
57
57
57
57
57
57
57
57
57
57
57
57
57
57
57
57
57
57
57
40
40
40
40
40
40
40
40
40
40
40
40
40
40
40
40
48
48
48
48
57
57
57
57
57
57
57
57
57
57
57
57
57
57
57
57
57
57
57
57
57
57
57
57
57
57
57
57
57
57
57
57
57
57
57
57
57
57
57
57
57
57
57
57
57
57
57
57
57
57
57
57
57
57
57
57
57
57
57
57
57
57
57
57
23
23
23
23
23
23
23
23
23
23
23
23
30
30
30
30
48
48
48
48
48
48
48
48
57
57
57
57
57
57
57
57
57
57
57
57
57
57
57
57
57
57
57
57
57
57
57
57
57
57
57
57
57
57
57
57
57
57
57
57
57
57
57
57
23
23
23
23
23
23
23
23
23
23
23
23
23
23
23
23
23
23
23
23
23
23
23
23
23
23
23
23
23
23
23
23
23
23
23
23
23
23
23
23
23
23
23
23
23
23
23
23
23
23
23
23
23
23
23
23
23
23
23
23
23
23
23
23
23
23
23
23
23
23
23
23
23
23
23
23
30
30
30
30
30
30
30
30
30
30
48
48
48
48
48
48
48
48
57
57
57
57
57
57
57
57
57
57
57
57
57
57
57
57
57
57
57
57
57
57
57
57
57
57
57
57
57
57
57
57
23
23
70
70
70
70
70
70
23
23
57
57
57
57
57
57
30
30
57
57
57
57
57
57
30
30
30
30
30
30
30
30
30
30
30
30
30
30
30
30
30
30
30
30
30
30
30
30
30
30
30
30
30
30
57
57
57
57
14
14
57
57
57
57
23
23
23
23
23
23
70
70
23
23
14
14
23
23
30
30
30
30
57
57
30
30
57
57
48
48
48
48
48
48
48
48
48
48
48
48
48
48
48
48
48
48
48
48
48
48
48
48
48
48
57
57
57
57
40
40
40
40
40
40
40
40
40
40
23
23
57
57
70
70
70
70
57
57
183
183
183
183
57
57
57
57
183
183
183
183
57
57
30
30
70
70
30
30
70
70
30
30
70
70
30
30
70
70
30
30
70
70
30
30
70
70
30
30
70
70
30
30
183
183
183
183
57
57
183
183
183
183
57
57
23
23
57
57
70
70
23
23
14
14
23
23
30
30
30
30
57
57
30
30
57
57
40
40
40
40
40
40
40
40
48
48
48
48
48
48
48
48
48
48
48
48
48
48
48
48
48
48
14
14
14
14
57
57
40
40
40
40
40
40
40
40
23
23
57
57
57
57
57
57
57
57
183
183
141
141
57
57
57
57
141
141
141
141
57
57
30
30
70
70
30
30
70
70
30
30
70
70
30
30
70
70
30
30
70
70
30
30
70
70
30
30
70
70
30
30
141
141
141
141
57
57
141
141
183
183
57
57
23
23
57
57
70
70
23
23
14
14
23
23
30
30
57
57
30
30
30
30
30
30
57
57
40
40
40
40
40
40
40
40
40
40
40
40
40
40
40
40
40
40
40
40
40
40
14
14
30
30
30
30
40
40
57
57
40
40
40
40
40
40
23
23
23
23
23
23
30
30
57
57
141
141
109
109
57
57
57
57
109
109
141
141
57
57
30
30
70
70
30
30
70
70
30
30
70
70
30
30
70
70
30
30
70
70
30
30
70
70
30
30
70
70
30
30
141
141
109
109
14
14
109
109
141
141
57
57
23
23
57
57
23
23
23
23
14
14
23
23
30
30
30
30
23
23
14
14
30
30
57
57
40
40
40
40
40
40
40
40
40
40
40
40
40
40
40
40
40
40
40
40
40
40
30
30
30
30
30
30
30
30
40
40
57
57
40
40
40
40
40
40
40
40
23
23
30
30
23
23
57
57
57
57
30
30
14
14
57
57
57
57
57
57
30
30
30
30
30
30
30
30
30
30
30
30
30
30
30
30
30
30
30
30
30
30
30
30
30
30
30
30
30
30
57
57
57
57
30
30
30
30
57
57
57
57
23
23
57
57
23
23
14
14
14
14
23
23
14
14
14
14
23
23
70
70
30
30
30
30
40
40
40
40
40
40
40
40
40
40
40
40
40
40
40
40
40
40
40
40
40
40
23
23
23
23
23
23
30
30
14
14
40
40
40
40
57
57
40
40
48
48
48
48
48
48
48
48
48
48
48
48
48
48
48
48
48
48
48
48
48
48
48
48
48
48
48
48
48
48
48
48
48
48
48
48
48
48
48
48
48
48
48
48
48
48
48
48
48
48
48
48
48
48
48
48
48
48
48
48
48
48
48
48
48
48
14
14
23
23
14
14
14
14
23
23
14
14
23
23
23
23
40
40
30
30
23
23
30
30
40
40
40
40
40
40
40
40
40
40
40
40
40
40
40
40
40
40
23
23
23
23
70
70
23
23
23
23
30
30
14
14
40
40
40
40
40
40
70
70
70
70
70
70
141
141
141
141
141
141
70
70
141
141
70
70
141
141
70
70
141
141
70
70
70
70
141
141
70
70
70
70
70
70
70
70
70
70
70
70
70
70
70
70
70
70
70
70
70
70
70
70
70
70
70
70
70
70
70
70
70
70
70
70
14
14
14
14
14
14
14
14
23
23
14
14
23
23
23
23
48
48
30
30
23
23
30
30
30
30
30
30
30
30
40
40
40
40
40
40
40
40
40
40
40
40
23
23
14
14
48
48
70
70
23
23
30
30
30
30
14
14
40
40
40
40
57
57
57
57
57
57
70
70
70
70
70
70
70
70
70
70
70
70
70
70
57
57
70
70
57
57
70
70
57
57
57
57
57
57
57
57
57
57
57
57
57
57
57
57
57
57
57
57
57
57
57
57
57
57
57
57
57
57
57
57
57
57
57
57
57
57
14
14
14
14
14
14
14
14
23
23
14
14
23
23
23
23
70
70
30
30
23
23
30
30
30
30
30
30
30
30
30
30
30
30
30
30
30
30
40
40
40
40
23
23
70
70
48
48
70
70
23
23
30
30
23
23
14
14
40
40
40
40
30
30
57
57
70
70
57
57
70
70
70
70
70
70
70
70
70
70
70
70
70
70
57
57
70
70
57
57
57
57
57
57
57
57
57
57
57
57
57
57
57
57
57
57
57
57
57
57
57
57
57
57
57
57
57
57
57
57
57
57
57
57
57
57
30
30
14
14
23
23
23
23
23
23
23
23
14
14
23
23
30
30
70
70
23
23
23
23
30
30
14
14
14
14
30
30
30
30
30
30
30
30
30
30
30
30
30
30
23
23
70
70
48
48
48
48
23
23
23
23
23
23
30
30
23
23
40
40
30
30
30
30
30
30
30
30
70
70
109
109
70
70
30
30
30
30
30
30
30
30
30
30
30
30
30
30
30
30
30
30
30
30
30
30
30
30
30
30
30
30
30
30
30
30
30
30
30
30
30
30
109
109
70
70
109
109
30
30
30
30
30
30
14
14
14
14
14
14
14
14
14
14
23
23
14
14
23
23
30
30
141
141
23
23
30
30
23
23
30
30
14
14
14
14
14
14
14
14
14
14
30
30
30
30
30
30
23
23
70
70
57
57
48
48
23
23
23
23
23
23
23
23
23
23
40
40
30
30
30
30
30
30
30
30
109
109
70
70
109
109
30
30
30
30
30
30
30
30
30
30
30
30
30
30
40
40
40
40
40
40
40
40
40
40
40
40
40
40
40
40
30
30
30
30
30
30
23
23
70
70
109
109
70
70
23
23
23
23
14
14
14
14
14
14
14
14
14
14
14
14
23
23
14
14
23
23
23
23
141
141
23
23
23
23
23
23
30
30
14
14
14
14
14
14
14
14
14
14
14
14
14
14
14
14
23
23
70
70
70
70
57
57
23
23
23
23
30
30
23
23
23
23
30
30
30
30
23
23
23
23
23
23
23
23
23
23
23
23
23
23
23
23
23
23
23
23
23
23
23
23
23
23
48
48
48
48
48
48
48
48
48
48
48
48
48
48
48
48
23
23
23
23
23
23
23
23
23
23
23
23
14
14
14
14
40
40
14
14
14
14
14
14
14
14
14
14
14
14
23
23
14
14
14
14
23
23
23
23
23
23
23
23
23
23
30
30
14
14
14
14
14
14
14
14
14
14
14
14
14
14
14
14
23
23
141
141
70
70
70
70
23
23
23
23
30
30
23
23
23
23
30
30
14
14
14
14
14
14
14
14
14
14
14
14
14
14
14
14
14
14
14
14
14
14
14
14
14
14
14
14
48
48
48
48
48
48
48
48
48
48
48
48
48
48
48
48
14
14
14
14
14
14
23
23
23
23
23
23
14
14
14
14
40
40
14
14
14
14
14
14
14
14
14
14
14
14
23
23
14
14
14
14
14
14
14
14
30
30
23
23
30
30
14
14
14
14
14
14
14
14
14
14
14
14
14
14
14
14
14
14
23
23
70
70
141
141
70
70
23
23
23
23
30
30
23
23
23
23
30
30
14
14
14
14
14
14
14
14
14
14
14
14
14
14
14
14
14
14
14
14
14
14
14
14
14
14
14
14
14
14
14
14
14
14
14
14
14
14
14
14
14
14
14
14
14
14
14
14
14
14
23
23
23
23
23
23
14
14
14
14
40
40
14
14
14
14
14
14
14
14
14
14
14
14
23
23
14
14
14
14
14
14
14
14
14
14
14
14
14
14
14
14
14
14
14
14
14
14
14
14
14
14
14
14
14
14
14
14
14
14
23
23
141
141
141
141
23
23
30
30
23
23
23
23
23
23
30
30
14
14
14
14
14
14
14
14
14
14
14
14
14
14
14
14
14
14
14
14
14
14
14
14
14
14
14
14
14
14
14
14
14
14
14
14
14
14
14
14
14
14
14
14
14
14
14
14
23
23
23
23
23
23
23
23
14
14
40
40
14
14
14
14
14
14
14
14
14
14
14
14
14
14
23
23
14
14
14
14
14
14
14
14
14
14
14
14
14
14
14
14
14
14
14
14
14
14
14
14
14
14
14
14
14
14
14
14
14
14
23
23
70
70
70
70
23
23
23
23
23
23
23
23
23
23
30
30
14
14
14
14
14
14
14
14
14
14
14
14
14
14
14
14
14
14
14
14
14
14
14
14
14
14
14
14
14
14
14
14
14
14
14
14
14
14
14
14
14
14
14
14
14
14
14
14
23
23
23
23
23
23
14
14
40
40
40
40
14
14
14
14
14
14
14
14
14
14
14
14
14
14
14
14
14
14
23
23
14
14
14
14
14
14
14
14
14
14
14
14
14
14
14
14
14
14
14
14
14
14
14
14
14
14
14
14
14
14
14
14
30
30
30
30
23
23
23
23
30
30
30
30
30
30
14
14
14
14
14
14
14
14
14
14
14
14
14
14
14
14
14
14
14
14
14
14
14
14
14
14
14
14
14
14
14
14
14
14
14
14
14
14
14
14
14
14
14
14
14
14
14
14
14
14
23
23
23
23
14
14
40
40
40
40
14
14
14
14
14
14
14
14
14
14
14
14
14
14
14
14
14
14
14
14
14
14
14
14
14
14
14
14
14
14
14
14
14
14
14
14
14
14
14
14
14
14
14
14
14
14
14
14
14
14
14
14
14
14
14
14
14
14
14
14
14
14
14
14
14
14
14
14
14
14
14
14
14
14
14
14
14
14
14
14
14
14
14
14
14
14
14
14
14
14
14
14
14
14
14
14
14
14
14
14
14
14
14
14
14
14
14
14
14
14
14
14
14
14
14
14
14
14
14
14
14
14
14
14
14
14
14
14
14
14
14
14
14
14
14
14
14
14
14
14
14
14
14
14
23
23
23
23
23
23
23
23
23
23
23
23
23
23
23
23
23
23
23
23
23
23
23
23
23
23
23
23
23
23
23
23
23
23
23
23
14
14
14
14
14
14
14
14
14
14
14
14
14
14
14
14
14
14
14
14
14
14
14
14
14
14
14
14
14
14
14
14
14
14
14
14
14
14
14
14
14
14
14
14
14
14
14
14
14
14
14
14
14
14
14
14
14
14
14
14
14
14
14
14
14
14
14
14
14
14
14
14
14
14
14
14
14
14
14
14
14
14
14
14
14
14
14
14
14
14
14
14
23
23
23
23
23
23
23
23
23
23
23
23
23
23
23
23
23
23
23
23
23
23
23
23
23
23
23
23
23
23
23
23
23
23
23
23
23
23
23
23
23
23
23
23
23
23
23
23
23
23
14
14
14
14
14
14
14
14
14
14
14
14
14
14
14
14
14
14
14
14
14
14
14
14
14
14
14
14
14
14
14
14
14
14
14
14
14
14
14
14
14
14
14
14
14
14
14
14
14
14
14
14
14
14
14
14
14
14
14
14
14
14
14
14
14
14
14
14
14
14
14
14
14
14
14
14
14
14
40
40
40
40
40
40
40
40
40
40
40
40
40
40
40
40
23
23
23
23
23
23
23
23
23
23
23
23
23
23
23
23
23
23
23
23
23
23
23
23
23
23
23
23
23
23
23
23
23
23
23
23
23
23
23
23
23
23
23
23
23
23
23
23
23
23
23
23
23
23
23
23
23
23
23
23
23
23
23
23
23
23
23
23
23
23
23
23
23
23
23
23
23
23
14
14
14
14
14
14
14
14
14
14
14
14
14
14
14
14
14
14
14
14
14
14
14
14
14
14
14
14
14
14
14
14
14
14
40
40
40
40
40
40
40
40
40
40
40
40
40
40
40
40
40
40
40
40
40
40
40
40
40
40
40
40
40
40
40
40
40
40
40
40
40
40
40
40
40
40
40
40
40
40
40
40
40
40
40
40
40
40
40
40
40
40
40
40
40
40
23
23
23
23
23
23
23
23
23
23
23
23
23
23
23
23
23
23
23
23
23
23
23
23
23
23
23
23
23
23
23
23
23
23
23
23
23
23
23
23
23
23
23
23
23
23
23
23
23
23
23
23
23
23
23
23
23
23
23
23
23
23
23
23
23
23
40
40
40
40
40
40
40
40
40
40
40
40
40
40
40
40
40
40
40
40
40
40
40
40
40
40
40
40
40
40
40
40
40
40
40
40
40
40
40
40
40
40
40
40
40
40
40
40
40
40
40
40
40
40
40
40
40
40
40
40
23
23
23
23
23
23
23
23
23
23
23
23
23
23
23
23
23
23
23
23
23
23
23
23
23
23
23
23
23
23
23
23
23
23
23
23
23
23
23
23
23
23
23
23
23
23
23
23
23
23
23
23
23
23
23
23
23
23
23
23
23
23
23
23
23
23
23
23
40
40
40
40
40
40
40
40
40
40
40
40
40
40
40
40
40
40
40
40
40
40
40
40
40
40
40
40
40
40
40
40
40
40
40
40
40
40
40
40
40
40
40
40
40
40
40
40
40
40
40
40
40
40
40
40
40
40
40
40
40
40
40
40
40
40
40
40
40
40
40
40
40
40
40
40
40
40
40
40
40
40
40
40
40
40
40
40
40
40
40
40
40
40
40
40
40
40
40
40
40
40
40
40
40
40
0
0
0
0
0
0
0
0
0
0
0
0
0
0
0
0
0
0
0
0
0
0
