P2
# CREATOR: GIMP PNM Filter Version 1.1
128 32
255
255
255
255
255
255
255
255
255
255
255
255
255
255
255
56
0
214
67
58
165
199
19
255
255
255
255
255
255
255
43
154
224
224
142
0
144
255
255
255
255
255
255
255
255
255
236
53
1
27
255
255
255
255
255
255
255
247
5
46
236
197
183
113
71
255
255
255
255
255
255
255
255
255
255
255
255
255
255
255
255
255
255
115
0
0
20
231
255
255
255
255
255
255
255
255
255
255
77
120
248
195
12
255
255
255
255
255
255
255
255
255
255
255
255
255
255
255
255
255
255
255
255
255
255
255
255
255
255
255
255
255
255
255
255
255
255
255
255
255
255
255
255
122
205
42
12
46
53
21
153
255
255
255
255
255
255
255
42
189
216
16
233
10
218
255
255
255
255
255
255
255
255
255
220
35
12
28
255
255
255
255
255
255
255
144
117
56
0
0
182
212
255
255
255
255
255
255
255
255
255
255
255
255
255
255
255
255
255
255
255
254
0
0
27
255
255
255
255
255
255
255
255
255
255
255
15
255
255
236
44
255
255
255
255
255
255
255
255
255
255
255
255
255
255
255
255
255
255
255
255
255
255
255
255
255
255
255
255
255
255
255
255
255
255
255
255
255
255
255
255
181
207
56
25
109
217
255
255
255
255
255
255
255
255
255
216
19
253
51
127
27
92
255
255
255
255
255
255
255
255
129
141
255
255
206
255
255
255
255
255
255
255
42
253
253
134
0
94
255
255
255
255
255
255
255
255
255
255
255
255
255
255
255
255
255
255
255
255
244
0
1
27
255
255
255
255
255
255
255
255
255
255
255
6
221
255
92
148
255
255
255
255
255
255
255
255
255
255
255
255
255
255
255
255
255
255
255
255
255
255
255
255
255
255
255
255
255
255
255
255
255
255
255
255
255
255
255
255
255
255
255
199
162
209
246
255
255
255
255
255
255
255
255
23
209
135
27
233
62
90
255
255
255
255
255
255
255
231
85
118
255
255
172
255
255
255
255
255
255
255
80
255
255
255
199
9
3
89
255
255
255
255
255
255
255
255
255
255
255
255
255
255
255
255
255
255
123
0
0
35
255
255
255
255
255
255
255
255
255
255
255
42
62
67
163
10
255
255
255
255
255
255
255
255
255
255
255
255
255
255
255
255
255
255
255
255
255
255
255
255
255
255
255
255
255
255
255
255
255
255
255
255
255
255
255
255
255
255
255
255
189
218
255
255
255
255
255
255
255
255
255
125
98
255
249
254
74
105
255
255
255
255
255
255
255
17
223
255
219
92
46
255
255
255
255
255
255
255
112
246
249
211
26
4
4
159
255
255
255
255
255
255
255
255
255
255
255
255
255
255
255
255
255
255
29
0
0
14
161
255
255
255
255
255
255
255
255
255
255
238
61
8
94
12
255
255
255
255
255
255
255
255
255
255
255
255
255
255
255
255
255
255
255
255
255
255
255
255
255
255
255
255
255
255
255
255
255
255
255
255
255
255
255
255
255
255
255
68
70
186
200
255
255
255
255
255
255
255
255
255
255
192
161
202
3
201
255
255
255
255
255
255
255
100
4
47
10
22
156
255
255
255
255
255
255
255
70
199
141
12
0
0
1
109
255
255
255
255
255
255
255
255
255
255
255
255
255
255
255
255
255
255
253
0
1
18
99
147
255
255
255
255
255
255
255
255
187
115
12
142
166
16
255
255
255
255
255
255
255
255
255
255
255
255
255
255
255
255
255
255
255
255
255
255
255
255
255
255
255
255
255
255
255
255
255
255
255
255
255
255
255
255
255
255
255
255
255
255
255
255
255
255
255
255
255
255
255
215
104
57
135
248
131
188
255
255
255
255
255
255
255
255
211
135
161
226
238
255
255
255
255
255
255
255
208
0
102
7
0
55
3
196
255
255
255
255
215
32
26
37
100
255
255
255
255
255
255
255
255
255
255
0
222
236
255
255
255
255
255
255
255
255
255
255
45
8
203
199
45
180
255
255
255
255
255
255
255
255
255
255
255
255
255
255
255
255
255
255
255
255
255
255
255
255
255
255
255
255
255
255
255
255
255
255
255
255
255
255
255
255
255
255
139
40
9
100
172
255
255
255
255
255
255
255
255
255
255
255
255
255
255
255
255
255
255
255
255
255
255
255
245
209
255
255
255
255
255
255
255
255
255
255
217
0
26
0
0
132
146
28
255
255
255
88
41
87
32
84
33
1
116
255
255
255
255
255
255
255
255
255
255
255
200
255
255
255
255
255
255
255
255
255
253
118
10
66
153
255
255
255
255
255
255
255
255
255
255
255
255
255
255
255
255
255
255
255
255
255
255
255
255
255
255
255
255
255
255
255
255
255
255
255
255
255
162
98
0
1
6
17
167
222
192
152
158
255
255
255
255
255
204
4
101
255
255
255
255
255
255
255
255
255
255
255
255
255
255
255
255
255
255
255
255
255
255
255
255
255
255
255
165
255
255
238
203
157
255
255
255
255
130
22
54
135
149
137
15
120
244
255
255
255
255
255
255
255
255
255
255
255
255
255
255
255
255
255
255
255
255
255
255
255
255
251
255
255
255
255
255
255
255
255
255
255
255
255
255
255
255
255
255
255
255
255
255
255
255
255
255
255
255
255
255
255
255
255
255
255
255
255
255
255
43
11
12
52
53
75
242
252
255
254
252
255
255
255
255
255
143
0
102
255
255
255
255
255
255
255
255
255
255
255
255
255
255
255
255
255
255
255
255
255
255
255
255
255
255
255
255
255
255
255
255
255
255
255
255
255
145
197
255
255
240
54
254
255
255
255
255
255
255
255
255
255
255
255
255
255
255
255
255
255
255
255
255
255
255
255
255
255
255
255
255
255
255
255
255
255
255
255
255
255
255
255
255
255
255
255
255
255
255
255
255
255
255
255
255
255
255
255
255
255
255
255
255
255
255
255
255
255
255
3
0
1
55
85
255
255
255
255
252
255
255
255
255
255
171
0
125
255
255
255
255
255
255
255
255
255
255
255
255
255
255
255
238
192
255
255
255
255
255
255
255
255
255
255
255
255
255
255
255
255
255
255
255
255
255
255
255
246
85
164
255
255
255
255
255
255
255
255
255
255
255
255
255
246
103
187
255
255
255
255
255
255
255
255
255
255
255
255
255
255
255
255
255
255
255
255
255
255
255
255
255
255
255
255
255
255
255
255
255
255
255
255
255
255
255
255
255
255
255
255
255
255
255
255
255
255
255
255
255
255
255
204
111
161
255
255
255
255
255
255
255
255
202
9
125
255
255
255
255
255
255
255
255
255
255
255
255
255
255
255
255
255
255
255
255
255
255
255
255
255
255
255
255
255
255
255
255
255
255
255
255
255
255
255
255
246
109
55
254
255
255
255
255
255
255
255
255
255
255
207
133
45
4
21
238
255
255
255
255
255
255
255
255
167
30
166
50
9
160
255
255
255
255
255
255
255
255
255
255
255
255
255
255
255
255
255
255
255
255
255
255
255
255
255
255
255
255
255
255
255
255
255
255
255
126
255
255
255
255
119
84
234
255
253
252
255
255
255
255
255
180
20
113
255
255
255
255
255
255
255
255
255
255
255
255
255
255
255
255
255
255
255
255
255
255
255
255
255
255
255
255
255
255
255
255
255
255
255
255
255
103
20
14
178
253
28
254
255
255
255
255
255
255
255
255
255
255
13
227
255
255
212
11
255
255
255
255
255
255
255
255
0
17
18
38
11
37
255
255
255
255
255
255
255
255
255
255
255
255
255
255
255
255
255
255
255
255
255
255
255
255
255
255
255
255
255
255
255
255
255
255
255
255
255
254
255
255
255
193
44
63
166
107
255
255
255
255
255
243
38
124
255
255
255
255
255
255
255
255
255
255
255
255
255
255
255
255
255
255
255
255
255
255
255
255
255
255
255
255
255
255
255
255
255
255
255
255
255
255
255
255
255
238
38
254
255
255
255
255
255
255
255
255
255
255
255
255
219
39
52
143
255
255
255
255
255
255
255
255
0
13
147
21
4
157
255
255
255
255
255
255
255
255
255
255
255
255
255
255
255
255
255
255
255
255
255
255
255
255
255
255
255
255
255
255
255
255
255
255
255
122
255
255
246
209
201
105
36
6
4
84
255
255
255
255
255
250
25
113
255
255
255
255
255
255
255
255
255
255
255
255
255
255
255
255
255
255
255
255
255
255
255
255
255
255
255
255
255
255
255
255
255
255
255
255
255
255
255
254
78
254
255
255
140
94
255
255
255
255
255
255
255
255
255
255
255
255
186
245
255
255
255
255
255
255
255
255
5
14
178
33
4
184
255
255
255
255
255
255
255
255
255
255
255
255
255
255
255
255
255
255
255
255
255
255
255
255
255
255
255
255
255
255
255
255
255
255
255
254
125
29
4
10
36
60
29
69
32
49
255
255
255
255
255
179
0
146
255
14
2
180
255
255
255
255
255
255
255
255
255
255
255
255
255
255
255
255
255
255
255
255
255
255
255
255
255
255
255
255
255
255
255
255
255
255
255
236
136
206
2
0
9
51
255
255
255
255
255
255
255
255
203
189
117
189
93
210
255
255
255
255
255
255
255
255
36
140
255
255
255
255
255
255
255
255
255
255
255
255
255
255
255
255
255
255
255
255
255
255
255
255
255
255
255
255
255
255
255
255
255
255
255
255
255
255
255
255
255
251
255
172
134
255
250
216
249
255
255
255
255
255
255
154
0
174
255
94
2
128
255
255
255
255
255
255
255
255
97
94
242
219
17
255
255
255
255
255
255
255
255
255
255
255
255
255
255
255
255
255
255
255
255
255
158
107
245
255
255
255
255
255
255
255
255
255
255
255
255
255
63
49
54
28
119
235
255
255
255
255
255
255
255
255
80
255
255
255
255
255
255
255
255
255
255
255
255
255
255
255
255
255
255
255
255
255
255
255
255
255
255
255
255
255
255
255
255
255
255
255
255
255
255
255
255
255
255
255
255
47
231
255
255
255
255
255
255
255
255
255
231
26
87
29
181
254
39
15
156
255
255
255
255
255
255
255
17
113
192
176
76
255
255
255
255
255
255
255
255
255
255
255
255
255
255
255
255
255
255
255
255
105
8
0
3
94
200
255
255
255
255
255
255
255
255
255
255
255
22
161
235
76
121
255
255
255
255
255
255
255
255
255
2
32
253
233
255
255
255
255
255
255
255
255
255
255
255
255
255
255
255
255
255
255
255
255
255
255
255
255
255
255
255
255
255
255
255
255
255
255
255
255
255
255
255
255
255
5
246
255
255
255
255
255
255
255
255
255
146
27
215
255
255
255
255
255
255
255
255
255
255
255
255
255
255
255
255
255
255
255
255
255
255
255
255
255
255
255
255
255
255
255
255
255
255
255
255
255
158
141
96
74
248
254
255
232
163
151
255
255
255
255
255
255
255
255
68
126
255
255
255
255
255
255
255
255
255
255
255
255
0
7
40
195
235
2
253
255
255
255
255
255
255
255
255
217
27
192
102
22
255
255
255
255
255
255
255
255
255
255
255
255
255
255
255
255
255
255
255
255
255
255
255
255
255
45
248
255
255
255
255
255
255
255
255
255
255
255
255
255
255
255
255
255
255
255
255
255
255
255
255
255
255
255
255
255
255
255
255
255
255
255
255
255
255
255
255
255
255
255
255
255
255
255
255
255
255
255
215
94
143
255
255
255
160
216
255
255
255
255
255
255
255
255
255
255
255
255
255
255
255
255
255
255
255
255
255
255
44
29
207
255
255
37
93
253
255
255
255
255
255
255
255
95
93
39
204
137
255
255
255
255
255
255
255
255
255
255
255
255
255
255
255
255
255
255
255
255
255
255
255
255
255
4
235
255
255
255
255
255
255
255
255
255
255
255
255
255
255
255
255
255
255
255
255
255
255
255
255
255
255
255
255
255
255
255
255
255
255
255
255
255
255
255
255
255
255
255
255
255
255
255
255
255
255
85
34
21
119
121
226
255
255
255
255
255
255
255
255
255
255
255
255
255
255
255
255
255
255
255
255
255
255
255
255
255
155
117
255
255
255
71
6
144
255
255
255
255
255
255
255
9
99
175
137
54
255
255
255
255
255
255
255
255
255
255
255
255
255
255
255
255
255
255
255
255
255
255
255
255
255
17
237
255
255
255
255
255
255
255
255
255
255
255
255
255
255
255
255
255
255
255
255
255
255
255
255
255
255
255
255
255
255
255
255
255
255
255
255
255
255
255
255
255
255
255
255
255
255
255
255
255
255
255
244
135
1
99
99
0
9
46
255
255
255
255
255
255
255
255
255
255
255
255
255
255
255
255
255
255
255
255
255
255
255
255
255
255
255
77
3
142
255
255
255
255
255
255
255
7
206
135
255
255
255
255
255
255
255
255
255
255
255
255
255
255
255
255
255
255
255
255
255
255
255
255
255
255
255
107
236
255
255
255
255
255
255
255
255
255
255
255
255
255
255
255
255
255
255
255
255
255
255
255
255
255
255
255
255
255
255
255
255
255
255
255
255
255
255
255
255
255
255
255
255
255
255
255
255
255
255
255
255
255
255
255
255
255
255
255
255
255
255
255
255
255
255
255
255
255
255
255
255
255
255
255
255
255
255
255
255
255
255
255
255
255
255
60
40
16
255
255
255
255
255
255
255
249
255
255
255
255
255
255
255
255
255
255
255
255
255
255
255
255
255
255
255
255
255
255
255
255
255
255
255
255
255
255
255
255
255
255
255
255
255
255
255
255
141
16
245
255
255
255
255
255
255
255
255
255
255
255
255
255
255
255
255
255
255
255
255
255
255
255
255
255
255
255
255
255
255
255
255
255
255
255
255
255
255
255
255
255
255
255
255
255
255
255
255
255
255
255
255
255
255
255
255
255
255
255
255
255
255
255
255
255
255
255
255
255
255
255
255
255
255
48
22
75
255
255
255
255
255
255
255
255
255
255
255
255
255
255
255
255
255
255
255
255
255
255
255
255
255
255
255
255
255
255
255
255
255
255
255
255
255
255
255
255
255
255
255
255
255
255
255
255
196
0
104
241
255
255
255
255
255
255
255
255
255
255
255
255
255
255
255
255
255
255
255
255
255
255
255
255
255
255
255
255
255
255
255
255
255
255
255
255
255
255
255
255
255
255
255
255
255
255
255
255
255
255
255
255
255
255
255
255
255
255
255
255
255
255
255
255
255
255
255
255
255
255
255
255
255
255
149
42
255
255
255
255
255
255
255
255
255
255
255
255
255
255
255
255
255
255
255
255
255
255
255
255
255
255
255
255
255
255
255
255
255
255
255
255
255
255
255
255
255
255
255
255
255
255
255
255
209
31
241
255
255
255
255
255
255
255
255
255
255
255
255
255
255
255
255
255
255
255
255
255
255
255
255
255
255
255
255
255
255
255
255
255
255
255
255
255
255
255
255
255
148
184
255
255
255
255
255
255
255
255
255
255
255
255
255
255
255
255
255
255
255
255
255
255
255
255
255
255
255
255
255
255
255
255
255
114
255
255
255
255
255
255
255
255
255
255
255
255
255
255
255
255
255
255
255
255
255
255
255
255
255
255
255
255
255
255
255
255
255
255
255
255
255
255
255
255
255
255
255
255
255
255
255
255
149
17
241
255
255
255
255
255
255
255
255
255
255
255
255
255
255
255
255
255
255
255
255
255
255
255
255
255
255
255
255
255
255
255
255
255
255
255
255
255
255
255
255
255
114
222
255
222
222
255
255
255
255
255
255
255
255
255
255
255
255
255
255
255
255
255
255
255
255
255
255
255
255
255
255
255
255
255
224
242
255
255
255
255
255
255
255
255
255
255
255
255
255
255
255
255
255
255
255
255
255
255
255
255
255
255
255
255
255
255
255
255
255
255
255
255
255
255
255
255
255
255
255
255
255
255
255
255
255
133
252
255
255
255
255
255
255
255
255
255
255
255
255
255
255
255
255
255
255
255
255
255
255
255
255
255
255
255
255
255
255
255
255
255
255
255
255
255
255
255
255
255
255
255
154
118
2
64
255
255
255
255
255
255
255
255
255
255
255
255
255
255
255
255
255
255
255
255
255
255
255
255
255
255
255
255
255
255
255
255
255
255
255
255
255
255
255
255
255
255
255
255
255
255
255
255
255
255
255
255
255
255
255
255
255
255
255
255
255
255
255
255
255
255
255
255
255
255
255
255
255
255
255
255
255
255
255
255
255
255
255
255
255
255
255
255
255
255
255
255
255
255
255
255
255
255
255
255
255
255
255
255
255
255
255
255
255
255
255
255
255
255
255
255
255
255
255
255
255
255
255
255
255
255
255
255
255
255
255
255
255
255
255
255
255
255
255
255
255
255
255
255
255
255
255
255
255
255
255
255
255
255
255
255
255
255
255
255
255
255
255
255
255
255
255
255
255
255
255
255
255
255
255
255
255
255
255
255
255
255
255
255
255
255
255
255
255
255
255
255
255
255
255
255
255
255
255
255
255
255
255
255
255
255
255
255
255
255
255
255
255
255
255
255
255
255
255
255
255
255
255
255
255
255
255
255
255
255
255
255
255
255
255
255
255
255
255
255
255
255
255
255
255
255
255
255
255
255
255
255
255
255
255
255
255
255
255
255
255
255
255
255
255
255
255
255
255
255
255
255
255
255
255
255
255
255
255
255
255
255
255
255
255
255
255
255
255
255
255
255
255
255
255
255
255
255
255
255
255
255
255
255
255
255
255
255
255
255
255
255
255
255
255
255
255
255
255
255
255
255
255
255
255
255
255
255
255
255
255
255
255
255
255
255
255
255
255
255
255
255
255
255
255
255
255
255
255
255
255
255
255
255
255
255
255
255
255
255
255
255
255
255
255
255
255
255
255
255
255
255
255
255
255
255
255
255
255
255
255
255
255
255
255
255
255
255
255
255
255
255
255
255
255
255
255
255
255
255
255
255
255
255
255
255
255
255
255
255
255
255
255
255
255
255
255
255
255
255
255
255
255
255
255
255
255
255
255
255
255
255
255
255
255
255
255
255
255
255
255
255
255
255
255
255
255
255
255
255
255
255
255
255
255
255
255
255
255
255
255
255
255
255
255
255
255
255
255
255
255
255
255
255
255
255
255
255
255
255
255
255
255
255
255
255
255
255
255
255
255
255
255
255
255
255
255
255
255
255
255
255
255
255
255
255
255
255
255
255
255
255
255
255
255
255
255
255
255
255
255
255
255
255
255
255
255
255
255
255
255
255
255
255
255
255
255
255
255
255
255
255
255
255
255
255
255
255
255
255
255
255
255
255
255
255
255
255
255
255
255
255
255
255
255
