P2
# CREATOR: GIMP PNM Filter Version 1.1
128 32
255
255
255
255
255
255
255
255
255
255
255
255
255
255
255
255
255
255
255
255
255
255
255
255
255
255
255
255
255
255
255
255
255
255
255
255
255
255
255
255
255
255
255
255
255
255
255
255
255
255
255
255
255
255
255
255
255
255
255
255
255
255
255
255
255
255
255
255
255
255
255
255
255
255
255
255
255
255
255
255
255
255
255
255
255
255
255
255
255
255
255
255
255
255
255
255
255
255
255
255
255
255
255
255
255
255
255
255
255
255
255
255
255
255
255
255
255
255
255
255
255
255
255
255
255
255
255
255
255
255
255
255
255
255
255
255
255
255
255
255
255
255
255
255
255
255
255
255
255
255
255
255
255
255
255
255
255
255
255
255
255
255
255
255
255
255
255
255
255
255
255
255
255
255
255
255
255
255
255
255
255
255
255
255
255
255
255
255
255
255
255
255
255
255
255
255
255
255
255
255
255
255
255
255
255
255
255
255
255
255
255
255
255
255
255
255
255
255
255
255
255
255
255
255
255
255
255
255
255
255
255
255
255
255
255
255
255
255
255
255
255
255
255
255
255
255
255
255
255
255
255
255
255
255
255
255
255
255
255
255
255
255
255
255
255
255
255
255
255
255
255
255
255
255
255
255
255
255
255
255
255
255
255
255
255
255
255
255
255
255
255
255
255
255
255
255
255
255
255
255
255
255
255
255
255
255
255
255
255
255
255
255
255
255
255
255
255
255
255
255
255
255
255
255
255
255
255
255
255
255
255
255
255
255
255
255
255
255
255
255
255
255
255
255
255
255
255
255
255
255
255
255
255
255
255
255
255
255
255
255
255
255
255
255
255
255
255
255
255
255
255
255
255
255
255
255
255
255
255
255
255
255
255
255
255
255
255
255
255
255
255
255
255
255
255
255
255
255
255
255
255
255
255
255
255
255
255
255
255
255
255
255
255
255
255
255
255
255
255
255
255
255
255
255
255
255
255
255
255
255
255
255
255
255
255
255
255
255
255
255
255
255
255
255
255
255
255
255
255
255
255
255
255
255
255
255
255
255
255
255
255
255
255
255
255
255
255
255
255
255
255
255
255
255
255
255
255
255
255
255
255
255
255
255
255
255
255
255
255
255
255
255
255
255
255
255
255
255
255
255
255
255
255
255
255
255
255
255
255
255
255
255
255
255
255
255
255
255
255
255
255
255
255
255
255
255
255
255
255
255
255
255
255
255
255
255
255
255
255
255
255
255
255
255
255
255
255
255
255
255
255
255
255
255
255
255
255
255
255
255
255
255
255
255
255
255
255
255
255
255
255
255
255
255
255
255
255
255
255
255
255
255
255
255
255
255
255
255
255
255
255
255
255
255
255
255
255
255
255
255
255
255
255
255
255
255
255
255
255
255
255
255
255
255
255
255
255
255
255
255
255
255
255
255
255
255
255
255
255
255
255
255
255
255
255
255
255
255
255
255
255
255
255
255
255
255
255
255
255
255
255
255
255
255
255
255
255
255
255
255
255
255
255
255
255
255
255
255
255
255
255
255
255
255
255
255
255
255
255
255
255
255
255
255
255
255
255
255
255
255
255
255
255
255
255
255
255
255
255
255
255
255
255
255
255
255
255
255
255
255
255
255
255
255
255
255
255
255
255
255
255
255
255
255
255
255
255
255
255
255
255
255
255
255
255
255
255
255
255
255
255
255
255
255
255
255
255
255
255
255
255
255
255
255
255
255
255
255
255
255
255
255
255
255
255
255
255
255
255
255
255
255
255
255
255
255
255
255
255
255
255
255
255
255
255
255
255
255
255
255
255
255
255
255
255
255
255
255
255
255
255
255
255
255
255
255
255
255
255
255
255
255
255
255
255
255
255
255
255
255
255
255
255
255
255
255
255
255
255
255
255
255
255
255
255
255
255
255
255
255
255
255
255
255
255
255
255
255
255
255
255
255
255
255
255
255
255
255
255
255
255
255
255
255
255
255
255
255
255
255
255
255
255
255
255
255
255
255
255
255
255
255
255
255
255
255
255
255
255
255
255
255
255
255
255
255
255
255
255
255
255
255
255
255
255
255
255
255
255
255
255
255
255
255
255
255
255
255
255
255
255
255
255
255
255
255
255
255
255
255
255
255
255
255
255
255
255
255
255
255
255
255
255
255
255
255
255
255
255
255
255
255
255
255
181
33
255
255
255
255
255
255
255
255
255
255
255
255
255
255
255
255
255
255
255
255
255
255
255
255
255
255
255
255
255
255
255
255
255
255
255
255
255
255
255
255
255
255
255
255
255
255
255
255
255
255
255
255
255
255
255
255
255
255
255
255
255
255
255
255
255
255
255
255
255
255
255
255
255
255
255
255
255
255
255
255
255
255
255
255
255
255
255
255
255
255
255
255
255
255
255
255
255
255
255
255
255
255
255
255
255
255
255
255
255
255
255
255
255
255
255
255
255
255
255
255
255
255
255
255
255
255
230
114
255
255
255
255
255
255
255
255
255
255
255
255
255
255
255
255
255
255
255
255
255
255
255
255
255
255
255
255
255
255
255
255
255
255
255
255
255
255
255
255
255
255
255
255
255
255
255
255
255
255
255
255
255
255
255
255
255
255
255
255
255
255
255
255
255
255
255
255
255
255
255
255
255
255
255
255
255
255
255
255
255
255
255
255
255
255
255
255
255
255
255
255
255
255
255
255
255
255
255
255
255
255
255
255
255
255
255
255
255
255
255
255
255
255
255
255
255
255
255
255
255
255
255
255
255
255
192
34
255
255
255
255
255
255
255
255
255
255
255
255
255
255
255
255
255
255
255
255
255
255
255
255
255
255
255
255
255
255
255
255
255
255
255
255
255
255
255
255
255
255
255
255
255
255
255
255
255
255
255
255
255
255
255
255
255
255
255
255
255
255
255
255
255
255
255
255
255
255
255
255
255
255
255
255
255
255
255
255
255
255
255
255
255
255
255
255
255
255
255
255
255
255
255
255
255
255
255
255
255
255
255
255
255
255
255
255
255
255
255
255
255
255
255
255
255
255
255
255
255
255
255
255
255
255
127
8
253
255
255
255
255
255
255
255
255
255
255
255
255
255
255
255
255
255
255
255
255
255
255
255
255
255
255
255
255
255
255
255
255
255
255
255
255
255
255
255
255
255
255
255
255
255
255
255
255
255
255
255
255
255
255
255
255
255
255
255
255
255
255
255
255
255
255
255
255
255
255
255
255
255
255
255
255
255
255
255
255
255
255
137
0
1
39
25
80
118
121
189
255
255
255
255
255
255
255
255
251
160
33
59
210
255
255
255
255
255
255
255
255
255
247
196
128
213
255
255
255
255
255
255
255
255
115
8
252
255
255
255
255
255
255
255
255
255
255
255
255
255
255
255
255
255
255
255
255
255
255
255
255
188
126
255
255
255
255
255
255
255
255
255
255
255
255
255
255
255
255
255
255
255
255
255
255
255
255
255
255
255
255
255
255
255
255
255
255
255
255
255
255
255
255
255
255
255
255
255
255
255
255
255
255
255
255
255
255
255
255
221
0
2
103
115
86
75
0
31
255
255
255
255
255
255
255
241
41
73
149
0
99
255
255
255
255
255
255
255
255
249
140
42
11
119
255
255
255
255
255
255
255
255
67
0
241
255
255
255
255
255
255
255
255
255
255
255
255
255
255
255
255
255
255
255
255
255
255
255
255
176
81
255
255
255
255
255
255
255
255
255
255
255
255
255
255
255
255
255
255
255
255
255
255
255
255
255
255
255
255
255
255
255
255
255
255
255
255
255
255
255
255
255
255
255
255
255
255
255
255
255
255
255
255
255
255
255
255
174
0
90
210
202
191
51
97
232
255
255
255
255
255
255
240
45
141
211
197
0
167
255
255
255
255
255
255
255
255
171
37
142
18
27
255
255
255
255
255
255
255
255
36
0
226
255
200
90
36
255
255
255
255
255
255
255
255
255
255
255
255
255
255
255
255
255
255
255
255
157
72
255
255
255
255
255
255
255
255
255
255
255
255
236
200
198
246
255
255
255
255
255
255
255
255
255
255
255
255
255
255
255
255
255
255
255
255
255
255
255
255
255
255
255
255
255
255
255
255
255
255
255
255
255
255
255
255
142
0
142
53
2
24
34
50
255
255
255
255
255
255
255
218
46
170
239
179
0
189
255
255
255
255
255
255
255
175
68
246
255
255
255
255
255
255
255
255
255
255
232
3
101
141
56
6
106
197
255
255
255
255
255
255
255
255
255
255
255
255
255
255
255
255
255
255
255
255
63
19
255
255
255
255
255
255
255
255
255
255
255
133
28
3
15
122
255
255
255
255
255
255
255
255
255
255
255
255
255
255
255
255
255
255
255
255
255
255
255
255
255
255
255
255
255
255
255
255
255
255
255
255
255
255
255
255
114
0
180
255
255
252
171
25
255
255
255
255
255
255
255
106
52
207
252
157
0
199
255
255
255
255
255
255
255
66
179
255
255
255
255
255
255
255
255
255
255
255
196
0
49
19
0
190
255
255
255
255
255
255
255
255
255
255
255
255
255
255
255
255
255
255
255
255
90
69
1
20
107
22
69
255
255
255
255
255
255
255
197
27
211
255
190
41
255
255
255
255
255
255
255
255
255
255
255
255
255
255
255
255
255
255
255
255
255
255
255
255
255
255
255
255
255
255
255
255
255
255
255
255
255
255
255
255
86
0
204
255
250
238
193
22
255
255
255
255
255
255
255
18
225
211
204
52
0
198
255
255
255
255
255
255
255
89
177
255
255
255
255
255
255
255
255
255
255
255
217
0
44
15
0
187
255
255
255
255
255
255
255
255
255
255
255
255
255
255
255
255
255
255
255
255
116
0
19
117
161
189
243
255
255
255
255
255
255
255
75
219
249
173
21
233
255
255
255
255
255
255
255
255
255
255
255
255
255
255
255
255
255
255
255
255
255
255
255
255
255
255
255
255
255
255
255
255
255
255
255
255
255
255
255
255
63
0
222
255
254
254
191
29
255
255
255
255
255
255
255
19
226
165
85
30
0
245
255
255
255
255
255
255
255
61
171
255
255
255
212
255
255
255
255
255
255
255
212
0
16
0
0
188
255
255
255
255
255
255
255
255
255
255
255
255
255
255
255
255
255
255
255
255
255
0
144
255
255
255
255
255
255
255
255
255
255
255
11
211
208
94
48
250
255
255
255
255
255
255
255
255
255
255
255
255
255
255
255
255
255
255
255
255
255
255
255
255
255
255
255
255
255
255
255
255
255
255
255
255
255
255
255
255
29
0
238
255
234
189
117
108
255
255
255
255
255
255
255
18
178
140
22
59
0
248
255
255
255
255
255
255
255
47
174
255
255
255
255
255
255
255
255
255
255
255
170
78
36
0
0
108
233
254
255
255
255
255
255
255
255
255
255
255
255
255
255
255
255
255
255
255
255
0
218
255
255
255
255
255
255
255
255
255
255
255
11
143
173
82
42
210
255
255
255
255
255
255
255
255
255
255
255
255
255
255
255
255
255
255
255
255
255
255
255
255
255
255
255
255
255
255
255
255
255
255
255
255
255
255
255
255
43
18
208
227
207
99
21
157
255
255
255
255
255
255
255
15
52
42
26
185
6
206
255
255
255
255
255
255
255
21
227
254
238
162
71
255
255
255
255
255
255
255
105
242
227
62
5
0
3
103
255
255
255
255
255
255
255
255
255
255
255
255
255
255
255
255
255
255
255
0
223
246
249
255
255
255
255
255
255
255
255
255
35
77
9
16
91
255
255
255
255
255
255
255
255
255
255
255
255
255
255
255
255
255
255
255
255
255
255
255
255
255
255
255
255
255
255
255
255
255
255
255
255
255
255
255
255
255
255
255
38
12
38
25
133
225
255
255
255
255
255
255
255
126
6
42
148
251
73
76
255
255
255
255
255
255
255
44
1
2
11
31
134
255
255
255
255
255
255
255
45
255
255
255
207
106
84
156
255
255
255
255
255
255
255
255
255
255
255
255
255
255
255
255
255
255
255
19
65
99
46
43
255
255
255
255
255
255
255
255
96
25
23
103
252
255
255
255
255
255
255
255
255
255
255
255
255
255
255
255
255
255
255
255
255
255
255
255
255
255
255
255
255
255
255
255
255
255
255
255
255
255
255
255
255
255
255
255
255
255
255
255
255
255
255
255
255
255
255
255
255
165
88
140
236
255
153
129
255
255
255
255
255
255
255
168
72
120
116
201
255
255
255
255
255
255
255
255
226
255
255
255
255
255
191
223
255
255
255
255
255
255
255
255
255
255
255
255
255
255
255
255
255
255
255
103
5
4
2
99
255
255
255
255
255
255
255
255
169
108
140
197
255
255
255
255
255
255
255
255
255
255
255
255
255
255
255
255
255
255
255
255
255
255
255
255
255
255
255
255
255
255
255
255
255
255
255
255
255
255
255
255
255
255
255
255
255
255
255
255
255
255
255
255
255
255
255
255
255
255
255
255
255
255
255
253
255
255
255
255
255
255
255
228
218
255
201
231
255
255
255
255
255
255
255
255
255
255
255
255
255
255
255
255
255
255
255
255
255
255
255
255
255
255
255
255
255
255
255
255
255
255
255
182
37
19
105
230
255
255
255
255
255
255
255
255
255
255
255
255
255
255
255
255
255
255
255
255
255
255
255
255
255
255
255
255
255
255
255
255
255
255
255
255
255
255
255
255
255
255
255
255
255
255
255
255
255
255
255
255
255
255
255
255
255
213
165
148
151
255
255
255
255
255
231
40
149
255
255
255
255
255
255
255
255
255
255
255
255
255
255
255
255
255
255
255
255
255
255
255
255
255
255
255
255
255
255
255
255
255
255
255
255
255
255
255
255
255
255
255
255
255
255
255
255
255
255
255
255
255
255
255
255
255
255
255
255
255
255
255
255
255
255
255
255
255
255
255
255
255
255
255
255
255
255
255
255
255
255
255
255
255
255
255
255
255
255
255
255
255
255
255
255
255
255
255
255
255
255
255
255
255
255
255
255
255
255
255
255
250
230
232
210
100
73
11
65
255
255
255
255
255
152
0
138
255
255
255
255
255
255
255
255
255
255
255
255
255
255
255
255
255
255
255
255
255
255
255
255
255
255
255
255
255
255
255
255
255
255
255
255
255
174
103
83
114
87
107
121
179
184
255
255
255
255
255
255
255
255
255
255
255
255
255
255
255
255
255
255
255
255
255
255
255
255
255
255
255
255
255
255
255
255
255
255
255
255
255
255
255
255
255
255
255
255
255
255
255
255
255
255
255
255
255
255
255
255
255
255
255
255
255
255
255
255
255
254
253
237
211
229
185
104
71
63
255
255
255
255
255
131
0
165
255
255
255
255
255
255
255
255
255
255
255
255
255
255
255
255
255
255
255
255
255
255
255
255
255
255
255
255
255
255
255
255
255
255
255
255
255
87
113
156
203
198
112
30
1
87
255
255
255
255
255
255
255
255
255
255
255
255
255
255
255
255
255
255
255
255
255
255
255
255
255
255
255
255
255
255
255
255
255
255
255
255
255
255
255
255
255
255
255
255
255
255
255
255
255
255
255
255
255
255
255
255
255
255
255
255
255
255
255
255
255
255
255
253
251
240
224
190
61
46
255
255
255
255
255
77
18
235
220
255
255
255
255
255
255
255
255
255
255
255
255
255
255
255
255
255
255
255
255
255
255
255
255
255
255
255
255
255
255
255
255
255
255
255
255
255
255
255
252
213
34
111
255
255
255
255
255
255
255
255
255
255
255
255
255
255
255
255
255
255
255
255
255
255
255
255
255
255
255
255
206
198
255
255
255
255
255
255
255
255
255
255
255
255
255
255
255
255
255
255
255
255
255
255
255
255
255
255
255
255
255
255
255
255
255
255
255
149
159
208
223
201
125
88
76
43
4
84
255
255
255
255
255
35
67
117
5
13
47
246
255
255
255
255
255
255
255
255
255
255
255
255
255
255
255
255
255
255
255
255
255
255
255
255
255
255
255
255
255
255
255
255
255
255
255
255
253
41
181
255
255
255
255
255
255
255
255
255
255
255
255
234
205
255
255
255
255
255
255
255
255
255
255
255
255
119
242
44
2
74
255
255
255
255
255
255
255
255
255
255
253
211
214
241
255
255
255
255
255
255
255
255
255
255
255
255
255
255
255
255
255
255
255
255
255
57
3
0
2
10
40
223
250
255
255
255
255
255
255
255
255
56
54
102
43
129
0
161
255
255
255
255
255
255
255
255
255
136
27
5
55
255
255
255
255
255
255
255
255
255
255
255
255
255
255
255
255
255
255
255
255
255
255
255
245
55
169
255
255
255
255
255
255
255
255
255
255
255
255
250
255
255
255
255
255
255
255
255
255
255
255
255
133
74
231
35
1
44
254
255
255
255
255
255
255
255
255
255
226
83
7
100
255
255
255
255
255
255
255
255
255
255
255
255
255
255
255
255
255
255
255
255
255
95
36
24
29
79
78
255
255
255
255
255
255
255
255
255
249
29
65
27
130
218
0
127
255
255
255
255
255
255
255
255
124
93
217
130
105
255
255
255
255
255
255
255
255
255
255
255
255
255
255
255
255
255
255
255
255
255
255
253
118
82
253
255
255
255
255
255
255
255
255
255
255
255
255
124
57
10
54
179
255
255
255
255
255
255
255
255
0
22
69
46
196
3
245
255
255
255
255
255
255
255
255
184
53
22
52
18
255
255
255
255
255
255
255
255
255
255
255
255
255
255
255
255
255
255
255
255
255
253
227
157
139
97
84
255
255
255
255
255
255
255
255
255
234
11
80
27
137
243
17
91
255
255
255
255
255
255
255
255
24
79
84
154
254
255
255
255
255
255
255
255
255
255
255
255
255
255
255
255
255
255
255
255
255
255
255
250
67
81
253
255
255
255
255
255
255
255
255
255
255
255
201
17
151
246
186
11
255
255
255
255
255
255
255
255
0
8
129
255
255
28
7
36
255
255
255
255
255
255
255
19
93
111
94
218
255
255
255
255
255
255
255
255
255
255
255
255
255
255
255
255
255
255
255
255
255
255
255
250
255
205
101
255
255
255
255
255
255
255
255
255
229
0
22
74
241
255
28
53
237
255
255
255
255
255
255
255
9
200
232
118
72
255
255
255
255
255
255
255
255
255
255
255
255
255
255
255
255
255
255
255
255
255
255
250
74
110
253
255
255
255
255
255
255
255
255
255
255
255
66
187
255
255
168
43
255
255
255
255
255
255
255
255
73
191
255
255
255
202
69
170
255
255
255
255
255
255
255
8
71
179
252
248
255
255
255
255
255
255
255
255
255
255
255
