P2
# CREATOR: GIMP PNM Filter Version 1.1
128 32
255
255
255
255
255
255
255
255
255
255
255
255
255
255
255
255
255
255
255
255
255
255
255
255
255
255
255
255
255
255
255
255
255
255
255
255
255
255
255
255
255
255
255
255
255
255
255
255
255
255
255
255
255
255
255
255
255
255
255
255
255
255
255
255
255
255
255
255
255
255
255
255
255
255
255
255
255
255
255
255
255
255
255
255
255
255
255
255
255
255
255
255
255
255
255
255
255
255
255
255
255
255
255
255
255
255
255
255
255
255
255
255
255
255
255
255
255
255
255
255
255
255
255
255
255
255
255
255
255
255
255
255
255
255
255
255
255
255
255
255
255
255
255
255
255
255
255
255
255
255
255
255
255
255
255
255
255
255
255
255
255
255
255
255
255
255
255
255
255
255
255
255
255
255
255
255
255
255
255
255
255
255
255
255
255
255
255
255
255
255
255
255
255
255
255
255
255
255
255
255
255
255
255
255
255
255
255
255
255
255
255
255
255
255
255
255
255
255
255
255
255
255
255
255
255
255
255
255
255
255
255
255
255
255
255
255
255
255
255
255
255
255
255
255
255
255
255
255
255
255
255
255
255
255
255
255
255
255
255
255
255
255
255
255
255
255
255
255
255
255
255
255
255
255
255
255
255
255
255
255
255
255
255
255
255
255
255
255
255
255
255
255
255
255
255
255
255
255
255
255
255
255
255
255
255
255
255
255
255
255
255
255
255
255
255
255
255
255
255
255
255
255
255
255
255
255
255
255
255
255
255
255
255
255
255
255
255
255
255
255
255
255
255
255
255
255
255
255
255
255
255
255
255
255
255
255
255
255
255
255
255
255
255
255
255
255
255
255
255
255
255
255
255
255
255
255
255
255
255
255
255
255
255
255
255
255
255
255
255
255
255
255
255
255
255
255
255
255
255
255
255
255
255
255
255
255
255
255
255
255
255
255
255
255
255
255
255
255
255
255
255
255
255
255
255
255
255
255
255
255
255
255
255
255
255
255
255
255
255
255
255
255
255
255
255
255
255
255
255
255
255
255
255
255
255
255
255
255
255
255
255
255
255
255
255
255
255
255
255
255
255
255
255
255
255
255
255
255
255
255
255
255
255
255
255
255
255
255
255
255
255
255
255
255
255
255
255
255
255
255
255
255
255
255
255
255
255
255
255
255
255
255
255
255
255
255
255
255
255
255
255
255
255
255
255
255
255
255
255
255
255
255
255
255
255
255
255
255
255
255
255
255
255
255
255
255
255
255
255
255
255
255
255
255
255
255
255
255
255
255
255
255
255
255
255
255
255
255
255
255
255
255
255
255
255
255
255
255
255
255
255
255
255
255
255
255
255
255
255
255
255
255
255
255
255
255
255
255
255
255
255
255
255
255
255
255
255
255
255
255
255
255
255
255
255
255
255
255
255
255
255
255
255
255
255
255
255
255
255
255
255
255
255
255
255
255
255
255
255
255
255
255
255
255
255
255
255
255
255
255
255
255
255
255
255
255
255
255
255
255
255
255
255
255
255
255
255
255
255
255
255
255
255
255
255
255
255
255
255
255
255
255
255
255
255
255
255
255
255
255
255
255
255
255
255
255
255
255
255
255
255
255
255
255
255
255
255
255
255
255
255
255
255
255
255
255
255
255
255
255
255
255
255
255
255
255
255
255
255
255
255
255
255
255
255
255
255
255
255
255
255
255
255
255
255
255
255
255
255
255
255
255
255
255
255
255
255
255
255
255
255
255
255
255
255
255
255
255
255
255
255
255
255
255
255
255
255
255
255
255
255
255
255
255
255
255
255
255
255
255
255
255
255
255
255
255
255
255
255
255
255
255
255
255
255
255
255
255
255
255
255
255
255
255
255
255
255
255
255
255
255
255
255
255
255
255
204
47
255
255
255
255
255
255
255
255
255
255
255
255
255
255
255
255
255
255
255
255
255
255
255
255
255
255
255
255
255
255
255
255
255
255
255
255
255
255
255
255
255
255
255
255
255
255
255
255
255
255
255
255
255
255
255
255
255
255
255
255
255
255
255
255
255
255
255
255
255
255
255
255
255
255
255
255
255
255
255
255
255
255
255
255
255
255
255
255
255
255
255
255
255
255
255
255
255
255
255
255
255
255
255
255
255
255
255
255
255
255
255
255
255
255
255
255
255
255
255
255
255
255
255
255
255
255
113
0
251
255
255
255
255
255
255
255
255
255
255
255
255
255
255
255
255
255
255
255
255
255
255
255
255
255
255
255
255
255
255
255
255
255
255
255
255
255
255
255
255
255
255
255
255
255
255
255
255
255
255
255
255
255
255
255
255
255
255
255
255
255
255
255
255
255
255
255
255
255
255
255
255
255
255
255
255
255
255
255
255
255
255
253
245
248
251
244
237
236
240
253
255
255
255
255
255
255
255
255
255
255
255
255
255
255
255
255
255
255
255
255
255
255
255
255
255
255
255
255
255
255
255
255
255
255
109
0
245
255
255
255
255
255
255
255
255
255
255
255
255
255
255
255
255
255
255
255
255
255
255
255
255
176
58
255
255
255
255
255
255
255
255
255
255
255
255
255
255
255
255
255
255
255
255
255
255
255
255
255
255
255
255
255
255
255
255
255
255
255
255
255
255
255
255
255
255
255
255
255
255
255
255
255
255
255
255
255
255
255
255
207
148
96
52
24
11
5
44
152
255
255
255
255
255
255
255
255
255
250
233
213
255
255
255
255
255
255
255
255
255
255
255
255
255
255
255
255
255
255
255
255
255
255
82
0
238
255
255
255
255
255
255
255
255
255
255
255
255
255
255
255
255
255
255
255
255
255
255
255
255
104
31
255
255
255
255
255
255
255
255
255
255
255
255
255
255
255
255
255
255
255
255
255
255
255
255
255
255
255
255
255
255
255
255
255
255
255
255
255
255
255
255
255
255
255
255
255
255
255
255
255
255
255
255
255
255
255
255
114
0
1
18
18
41
61
0
34
255
255
255
255
255
255
255
255
245
103
14
63
191
255
255
255
255
255
255
255
255
255
237
146
67
188
255
255
255
255
255
255
255
255
58
0
226
255
255
255
255
255
255
255
255
255
255
255
255
255
255
255
255
255
255
255
255
255
255
255
249
23
26
255
255
255
255
255
255
255
255
255
255
255
255
255
255
255
255
255
255
255
255
255
255
255
255
255
255
255
255
255
255
255
255
255
255
255
255
255
255
255
255
255
255
255
255
255
255
255
255
255
255
255
255
255
255
255
255
213
0
41
226
241
239
176
14
140
255
255
255
255
255
255
255
241
48
54
105
0
59
255
255
255
255
255
255
255
255
214
30
34
8
40
255
255
255
255
255
255
255
255
43
0
225
255
243
227
225
255
255
255
255
255
255
255
255
255
255
255
255
255
255
255
255
255
255
255
213
1
35
197
190
147
255
255
255
255
255
255
255
255
248
199
195
194
246
255
255
255
255
255
255
255
255
255
255
255
255
255
255
255
255
255
255
255
255
255
255
255
255
255
255
255
255
255
255
255
255
255
255
255
255
255
255
255
255
170
0
85
207
123
75
31
180
244
255
255
255
255
255
255
240
57
147
231
186
0
187
255
255
255
255
255
255
255
238
73
82
227
39
21
255
255
255
255
255
255
255
255
12
30
236
201
90
18
78
255
255
255
255
255
255
255
255
255
255
255
255
255
255
255
255
255
255
75
67
1
17
64
34
41
255
255
255
255
255
255
255
255
174
58
9
40
173
255
255
255
255
255
255
255
255
255
255
255
255
255
255
255
255
255
255
255
255
255
255
255
255
255
255
255
255
255
255
255
255
255
255
255
255
255
255
255
255
126
0
156
116
39
17
21
69
255
255
255
255
255
255
255
126
139
247
220
51
0
240
255
255
255
255
255
255
255
169
40
232
255
158
118
255
255
255
255
255
255
255
231
1
130
89
26
9
148
255
255
255
255
255
255
255
255
255
255
255
255
255
255
255
255
255
255
255
25
0
0
10
59
113
200
255
255
255
255
255
255
255
229
38
84
151
107
37
255
255
255
255
255
255
255
255
255
255
255
255
255
255
255
255
255
255
255
255
255
255
255
255
255
255
255
255
255
255
255
255
255
255
255
255
255
255
255
255
84
0
200
255
255
254
188
28
255
255
255
255
255
255
255
64
186
212
128
43
0
246
255
255
255
255
255
255
255
51
206
255
253
230
231
255
255
255
255
255
255
255
176
32
18
0
0
174
255
255
255
255
255
255
255
255
255
255
255
255
255
255
255
255
255
255
255
255
120
0
15
102
175
224
251
255
255
255
255
255
255
255
115
106
239
254
234
10
255
255
255
255
255
255
255
255
255
255
255
255
255
255
255
255
255
255
255
255
255
255
255
255
255
255
255
255
255
255
255
255
255
255
255
255
255
255
255
255
42
0
231
255
243
188
94
138
255
255
255
255
255
255
255
17
202
147
12
77
1
235
255
255
255
255
255
255
255
11
215
251
222
137
59
255
255
255
255
255
255
255
128
162
106
7
0
59
185
252
255
255
255
255
255
255
255
255
255
255
255
255
255
255
255
255
255
255
255
0
120
253
255
255
255
255
255
255
255
255
255
255
27
236
248
180
34
149
255
255
255
255
255
255
255
255
255
255
255
255
255
255
255
255
255
255
255
255
255
255
255
255
255
255
255
255
255
255
255
255
255
255
255
255
255
255
255
255
27
14
190
119
87
60
61
185
255
255
255
255
255
255
255
85
4
15
32
214
8
193
255
255
255
255
255
255
255
5
165
162
125
73
60
255
255
255
255
255
255
255
117
228
200
18
0
0
125
242
255
255
255
255
255
255
255
255
255
255
255
255
255
255
255
255
255
255
255
0
221
247
218
219
255
255
255
255
255
255
255
255
5
122
85
24
106
255
255
255
255
255
255
255
255
255
255
255
255
255
255
255
255
255
255
255
255
255
255
255
255
255
255
255
255
255
255
255
255
255
255
255
255
255
255
255
255
255
64
53
82
6
3
20
119
243
255
255
255
255
255
255
255
141
10
64
188
246
64
88
255
255
255
255
255
255
255
33
69
124
100
52
84
255
255
255
255
255
255
255
84
245
239
110
6
0
60
119
255
255
255
255
255
255
255
255
255
255
255
255
255
255
255
255
255
255
255
13
103
79
48
62
255
255
255
255
255
255
255
255
97
13
10
73
214
255
255
255
255
255
255
255
255
255
255
255
255
255
255
255
255
255
255
255
255
255
255
255
255
255
255
255
255
255
255
255
255
255
255
255
255
255
255
255
255
255
229
234
42
13
73
155
224
255
255
255
255
255
255
255
255
212
160
168
239
255
155
136
255
255
255
255
255
255
255
93
7
1
9
29
175
255
255
255
255
255
255
255
46
255
255
222
108
23
6
94
255
255
255
255
255
255
255
255
255
255
255
255
255
255
255
255
255
255
255
101
7
9
38
162
255
255
255
255
255
255
255
255
206
65
47
142
252
255
255
255
255
255
255
255
255
255
255
255
255
255
255
255
255
255
255
255
255
255
255
255
255
255
255
255
255
255
255
255
255
255
255
255
255
255
255
255
255
255
255
255
171
148
175
235
255
255
255
255
255
255
255
255
255
255
255
255
255
255
255
255
255
255
255
255
255
255
255
200
57
40
92
212
255
255
255
255
255
255
255
255
152
255
255
255
239
233
255
255
255
255
255
255
255
255
255
255
255
255
255
255
255
255
255
255
255
255
255
188
60
55
140
239
255
255
255
255
255
255
255
255
246
213
251
255
255
255
255
255
255
255
255
255
255
255
255
255
255
255
255
255
255
255
255
255
255
255
255
255
255
255
255
255
255
255
255
255
255
255
255
255
255
255
255
255
255
255
255
255
255
255
255
255
255
255
255
255
255
255
255
255
255
255
255
255
255
255
255
255
255
255
255
255
255
255
255
255
255
255
255
255
255
255
255
255
255
255
255
255
255
255
255
255
255
255
255
255
255
255
255
255
255
255
255
255
255
255
255
255
255
255
255
255
255
255
255
255
255
255
255
255
255
255
255
255
255
255
255
255
255
255
255
255
255
255
255
255
255
255
255
255
255
255
255
255
255
255
255
255
255
255
255
255
255
255
255
255
255
255
255
255
255
255
255
255
255
255
255
255
255
255
255
255
255
255
255
255
255
255
255
255
255
255
255
255
255
255
255
255
255
255
255
255
255
255
255
255
255
255
255
255
255
255
255
255
255
255
255
255
255
255
255
255
255
255
255
255
255
255
255
255
255
255
255
255
255
255
255
255
255
255
255
255
255
255
255
255
255
255
255
255
255
255
255
255
255
255
255
255
255
255
255
255
255
255
255
255
255
255
255
255
255
255
255
255
255
255
255
255
255
255
255
255
255
255
255
255
255
255
255
255
255
255
255
255
255
255
255
255
255
255
255
255
255
255
255
255
255
255
255
255
252
248
236
211
177
143
130
133
185
255
255
255
255
255
246
65
191
255
255
255
255
255
255
255
255
255
255
255
255
255
255
255
255
255
255
255
255
255
255
255
255
255
255
255
255
255
255
255
255
255
255
255
255
255
255
255
255
255
240
246
246
246
233
255
255
255
255
255
255
255
255
255
255
255
255
255
255
255
255
255
255
255
255
255
255
255
255
255
255
255
255
255
255
255
255
255
255
255
255
255
255
255
255
255
255
255
255
255
255
255
255
255
255
255
255
255
255
255
255
255
255
255
255
255
255
255
226
246
247
233
182
95
53
20
4
2
32
255
255
255
255
255
175
0
115
255
255
255
255
255
255
255
255
255
255
255
255
255
255
255
255
255
255
255
255
255
255
255
255
255
255
255
255
255
255
255
255
255
255
255
255
255
96
78
71
39
15
6
4
1
53
255
255
255
255
255
255
255
255
255
255
255
255
255
255
255
255
255
255
255
255
255
255
255
255
255
255
255
255
255
255
255
255
255
255
255
255
255
255
255
255
255
255
255
255
255
255
255
255
255
255
255
255
255
255
255
255
255
255
255
255
255
255
255
61
3
0
1
4
5
34
94
96
121
162
255
255
255
255
255
125
1
185
255
255
255
255
255
255
255
255
255
255
255
255
255
255
255
255
255
255
255
255
255
255
255
255
255
255
255
255
255
255
255
255
255
255
255
255
255
122
93
108
100
124
115
29
21
165
255
255
255
255
255
255
255
255
255
255
255
255
255
255
255
255
255
255
255
255
255
255
255
255
255
255
255
255
255
255
255
255
255
255
255
255
255
255
255
255
255
255
255
255
255
255
255
255
255
255
255
255
255
255
255
255
255
255
255
255
255
255
255
50
2
0
3
12
27
130
167
207
215
247
255
255
255
255
255
97
1
229
199
135
199
255
255
255
255
255
255
255
255
255
255
255
255
243
235
255
255
255
255
255
255
255
255
255
255
255
255
255
255
255
255
255
255
255
255
255
255
255
255
227
90
47
179
255
255
255
255
255
255
255
255
255
255
255
255
255
255
255
255
255
255
255
255
255
255
255
255
235
255
213
164
207
255
255
255
255
255
255
255
255
255
255
253
195
195
245
255
255
255
255
255
255
255
255
255
255
255
255
255
255
255
255
255
255
255
255
255
42
1
0
4
22
38
223
249
255
251
253
255
255
255
255
255
50
53
178
52
15
40
241
255
255
255
255
255
255
255
255
255
199
76
10
111
255
255
255
255
255
255
255
255
255
255
255
255
255
255
255
255
255
255
255
255
255
255
255
220
42
87
254
255
255
255
255
255
255
255
255
255
255
255
205
109
98
160
241
255
255
255
255
255
255
255
255
64
30
194
49
5
66
255
255
255
255
255
255
255
255
255
251
121
25
6
95
255
255
255
255
255
255
255
255
255
255
255
255
255
255
255
255
255
255
255
255
255
252
235
244
255
205
105
255
255
255
255
255
255
255
255
255
251
13
72
25
69
154
0
155
255
255
255
255
255
255
255
255
229
66
38
63
18
255
255
255
255
255
255
255
255
255
255
255
255
255
255
255
255
255
255
255
255
255
255
253
139
91
253
255
255
255
255
255
255
255
255
255
255
255
196
35
23
2
12
140
255
255
255
255
255
255
255
255
2
16
74
47
173
8
253
255
255
255
255
255
255
255
255
216
27
81
133
22
255
255
255
255
255
255
255
255
255
255
255
255
255
255
255
255
255
255
255
255
255
255
255
255
255
127
174
255
255
255
255
255
255
255
255
255
240
8
50
31
209
247
17
101
255
255
255
255
255
255
255
255
129
85
231
123
117
255
255
255
255
255
255
255
255
255
255
255
255
255
255
255
255
255
255
255
255
255
255
197
77
166
255
255
255
255
255
255
255
255
255
255
255
255
177
25
63
96
65
61
255
255
255
255
255
255
255
255
0
33
19
113
214
2
227
255
255
255
255
255
255
255
255
117
56
197
133
96
255
255
255
255
255
255
255
255
255
255
255
255
255
255
255
255
255
255
255
255
255
255
255
255
255
78
208
255
255
255
255
255
255
255
255
255
201
0
20
115
250
255
43
47
245
255
255
255
255
255
255
255
25
75
85
154
254
255
255
255
255
255
255
255
255
255
255
255
255
255
255
255
255
255
255
255
255
255
231
92
156
254
255
255
255
255
255
255
255
255
255
255
255
255
87
109
221
251
206
11
255
255
255
255
255
255
255
255
0
8
45
236
252
8
178
234
255
255
255
255
255
255
255
34
93
122
95
215
255
255
255
255
255
255
255
255
255
255
255
255
255
255
255
255
255
255
255
255
255
255
255
255
255
51
228
255
255
255
255
255
255
255
255
255
166
0
12
209
255
255
119
14
199
255
255
255
255
255
255
255
9
162
213
171
114
255
255
255
255
255
255
255
255
255
255
255
255
255
255
255
255
255
255
255
255
255
133
118
246
255
246
239
239
214
255
255
255
255
255
255
255
255
29
228
255
250
126
94
255
255
255
255
255
255
255
255
16
39
244
255
255
53
6
76
255
255
255
255
255
255
255
9
119
190
199
177
255
255
255
255
255
255
255
255
255
255
255
255
255
255
255
255
255
255
255
255
255
255
255
255
255
22
243
255
255
255
255
255
255
255
255
255
140
2
127
255
255
255
199
68
187
255
255
255
255
255
255
255
53
7
1
14
151
255
255
255
255
255
255
255
255
255
255
255
255
255
255
255
255
255
255
255
255
200
65
63
136
117
110
106
98
140
255
255
255
255
255
255
255
255
9
151
150
60
34
198
255
255
255
255
255
255
255
255
164
223
255
255
255
229
162
213
255
255
255
255
255
255
255
45
95
99
68
78
255
255
255
255
255
255
255
255
255
255
255
