P2
# CREATOR: GIMP PNM Filter Version 1.1
128 32
255
255
255
255
255
255
255
255
255
255
255
255
255
255
255
231
0
22
242
251
242
164
0
29
255
255
255
255
255
255
255
255
255
255
255
255
255
255
255
255
255
255
255
255
255
255
255
255
255
255
255
255
255
255
255
255
255
255
108
4
252
255
255
255
255
255
255
255
255
255
255
255
255
255
255
255
255
255
255
255
255
255
255
255
255
146
193
255
255
255
255
255
255
255
255
255
255
255
255
255
255
255
255
255
255
255
255
255
255
255
255
255
255
255
255
255
255
255
255
255
255
255
255
255
255
255
255
255
255
255
255
255
255
255
255
255
255
255
255
255
255
255
255
200
0
85
204
120
182
88
31
149
255
255
255
255
255
255
255
255
246
72
3
19
164
255
255
255
255
255
255
255
255
255
255
255
255
255
255
255
255
255
255
255
255
255
49
0
223
255
255
255
255
255
255
255
255
255
255
255
255
255
255
255
255
255
255
255
255
255
255
255
255
107
142
255
255
255
255
255
255
255
255
255
255
255
255
255
255
255
255
255
255
255
255
255
255
255
255
255
255
255
255
255
255
255
255
255
255
255
255
255
255
255
255
255
255
255
255
255
255
255
255
255
255
255
255
255
255
255
255
181
0
96
126
39
2
7
151
253
255
255
255
255
255
255
255
255
245
56
3
0
58
255
255
255
255
255
255
255
255
255
251
98
8
91
255
255
255
255
255
255
255
255
13
43
240
244
200
155
186
255
255
255
255
255
255
255
255
255
255
255
255
255
255
255
255
255
255
255
255
116
55
255
255
255
255
255
255
255
255
255
255
255
255
255
138
91
218
255
255
255
255
255
255
255
255
255
255
255
255
255
255
255
255
255
255
255
255
255
255
255
255
255
255
255
255
255
255
255
255
255
255
255
255
255
255
255
255
119
0
159
90
23
1
4
116
255
255
255
255
255
255
255
255
248
54
81
147
0
76
255
255
255
255
255
255
255
255
255
239
47
1
44
255
255
255
255
255
255
255
255
5
120
79
18
4
54
188
255
255
255
255
255
255
255
255
255
255
255
255
255
255
255
255
255
255
255
249
66
37
255
255
255
255
255
255
255
255
255
255
255
255
255
255
255
248
255
255
255
255
255
255
255
255
255
255
255
255
255
255
255
255
255
255
255
255
255
255
255
255
255
255
255
255
255
255
255
255
255
255
255
255
255
255
255
255
101
0
180
238
149
104
82
16
255
255
255
255
255
255
255
223
31
223
252
199
0
108
255
255
255
255
255
255
255
255
138
35
178
33
10
255
255
255
255
255
255
255
255
6
97
99
37
7
136
255
255
255
255
255
255
255
255
255
255
255
255
255
255
255
255
255
255
255
255
247
30
16
255
255
255
255
255
255
255
255
255
255
255
255
255
255
255
246
255
255
255
255
255
255
255
255
255
255
255
255
255
255
255
255
255
255
255
255
255
255
255
255
255
255
255
255
255
255
255
255
255
255
255
255
255
255
255
255
62
0
189
196
144
142
52
35
255
255
255
255
255
255
255
86
163
226
238
212
0
89
255
255
255
255
255
255
255
173
22
203
255
102
60
255
255
255
255
255
255
255
240
6
67
222
83
9
171
255
255
255
255
255
255
255
255
255
255
255
255
255
255
255
255
255
255
255
55
131
1
25
255
255
255
255
255
255
255
255
255
255
255
255
255
171
135
189
255
255
255
255
255
255
255
255
255
255
255
255
255
255
255
255
255
255
255
255
255
255
255
255
255
255
255
255
255
255
255
255
255
255
255
255
255
255
255
255
37
0
232
255
252
254
190
31
255
255
255
255
255
255
255
107
110
221
250
144
0
231
255
255
255
255
255
255
255
37
184
255
255
255
234
255
255
255
255
255
255
255
255
19
10
239
127
6
215
255
255
255
255
255
255
255
255
255
255
255
255
255
255
255
255
255
255
255
149
0
14
126
105
137
201
255
255
255
255
255
255
255
146
51
130
110
103
23
255
255
255
255
255
255
255
255
255
255
255
255
255
255
255
255
255
255
255
255
255
255
255
255
255
255
255
255
255
255
255
255
255
255
255
255
255
255
255
255
36
39
75
10
45
36
150
255
255
255
255
255
255
255
255
16
140
140
17
104
1
248
255
255
255
255
255
255
255
24
230
255
238
195
255
255
255
255
255
255
255
255
255
13
52
212
95
6
175
255
255
255
255
255
255
255
255
255
255
255
255
255
255
255
255
255
255
255
255
0
226
254
255
255
255
255
255
255
255
255
255
255
21
199
255
255
240
10
255
255
255
255
255
255
255
255
255
255
255
255
255
255
255
255
255
255
255
255
255
255
255
255
255
255
255
255
255
255
255
255
255
255
255
255
255
255
255
255
255
255
223
240
229
242
255
255
255
255
255
255
255
255
255
204
89
83
173
241
10
201
255
255
255
255
255
255
255
27
108
129
155
106
59
255
255
255
255
255
255
255
149
158
51
0
0
106
141
137
255
255
255
255
255
255
255
255
255
255
255
255
255
255
255
255
255
255
255
100
1
171
172
246
255
255
255
255
255
255
255
255
16
214
241
203
42
158
255
255
255
255
255
255
255
255
255
255
255
255
255
255
255
255
255
255
255
255
255
255
255
255
255
255
255
255
255
255
255
255
255
255
255
255
255
255
255
255
255
255
255
255
255
255
255
255
255
255
255
255
255
255
255
212
64
68
203
249
34
157
255
255
255
255
255
255
255
166
87
109
75
143
184
255
255
255
255
255
255
255
53
254
255
211
84
31
49
183
255
255
255
255
255
255
255
255
255
255
255
255
255
255
255
255
255
255
255
255
255
217
176
230
255
255
255
255
255
255
255
255
163
67
36
131
222
255
255
255
255
255
255
255
255
255
255
255
255
255
255
255
255
255
255
255
255
255
255
255
255
255
255
255
255
255
255
255
255
255
255
255
255
255
255
255
255
255
255
255
255
255
255
255
255
255
255
255
255
255
255
255
255
252
255
255
252
255
181
77
255
255
255
255
255
255
255
255
255
255
255
234
253
255
255
255
255
255
255
255
56
255
255
255
255
255
255
255
255
255
255
255
255
255
255
255
255
255
255
255
255
255
255
255
255
255
255
255
255
255
255
255
255
255
255
255
255
255
255
255
246
255
255
255
255
255
255
255
255
255
255
255
255
255
255
255
255
255
255
255
255
255
255
255
255
255
255
255
255
255
255
255
255
255
255
255
255
255
255
255
255
255
255
255
255
255
255
255
249
255
255
255
255
255
255
255
255
255
255
255
255
255
255
255
255
255
122
91
255
255
255
255
255
255
255
243
174
164
167
206
255
255
255
255
255
255
255
255
255
255
255
255
255
255
255
255
255
255
255
255
255
255
255
255
255
255
255
255
255
255
255
255
255
255
255
255
255
255
255
255
255
255
255
255
255
255
255
255
255
255
255
255
255
255
255
255
255
255
255
255
255
255
255
255
255
255
255
255
255
255
255
255
255
255
255
255
255
255
255
255
255
255
255
255
255
255
255
255
255
255
255
255
255
255
255
255
255
255
255
255
255
255
255
255
255
255
255
255
255
255
255
244
251
255
78
88
255
255
255
255
255
255
255
255
255
255
255
255
255
255
255
255
255
255
255
255
255
255
255
255
255
255
255
255
255
255
255
255
255
255
255
255
255
125
94
255
255
255
255
255
255
255
255
255
255
255
255
255
255
255
255
255
255
255
255
255
255
255
255
255
255
255
255
255
255
255
255
255
255
255
255
255
255
255
255
255
255
255
255
255
255
255
255
255
255
255
255
255
255
255
255
255
255
255
255
255
255
255
255
255
255
255
255
255
255
255
255
255
255
255
255
255
255
255
255
255
255
255
255
255
255
255
255
255
255
255
255
255
255
255
255
255
255
255
255
255
255
255
255
255
255
255
255
255
255
255
255
255
255
255
255
255
255
255
255
255
255
255
255
255
151
1
85
255
255
255
255
255
255
255
255
255
244
135
184
255
255
255
255
255
255
255
255
255
255
255
255
255
255
255
255
255
255
255
255
255
255
255
255
255
255
255
255
255
255
255
255
255
255
255
255
255
255
255
255
255
255
255
255
255
255
255
255
255
255
255
255
255
255
255
255
255
255
255
255
255
255
255
255
255
255
255
255
255
255
255
255
255
255
255
255
255
255
255
255
255
255
255
255
255
255
255
224
224
255
255
255
255
255
255
255
255
255
255
255
255
255
255
255
255
255
255
255
255
99
32
47
90
29
92
255
255
255
255
255
255
255
255
255
255
103
25
8
64
241
255
255
255
255
255
255
255
255
255
255
255
255
255
255
255
255
255
255
255
255
255
255
255
255
255
255
255
255
255
255
255
255
255
255
255
255
255
255
255
255
255
255
255
255
255
255
255
255
255
255
255
255
255
255
255
255
255
255
255
255
255
255
255
255
255
255
215
214
255
255
255
255
255
255
255
255
255
255
255
255
255
255
255
255
255
255
255
255
255
255
255
255
255
255
255
255
255
255
255
255
255
255
255
255
255
131
80
20
102
239
50
73
196
255
255
255
255
255
255
255
255
255
255
164
63
6
53
237
255
255
255
255
255
255
255
255
255
255
255
255
255
255
255
255
255
255
255
255
255
255
255
255
255
255
255
255
255
255
255
255
255
255
255
255
255
255
255
255
255
255
255
255
255
255
255
255
255
150
160
195
223
176
125
110
181
229
186
104
255
255
255
255
255
251
74
136
255
255
255
255
255
255
255
255
255
255
255
255
255
254
255
255
255
255
255
255
255
255
255
255
255
255
255
255
255
255
255
255
255
255
255
255
255
211
253
253
255
253
201
15
153
255
255
255
255
255
255
255
255
255
255
196
64
8
27
191
255
255
255
255
255
255
255
255
255
255
255
255
255
255
255
255
255
255
255
255
255
255
255
255
255
255
255
255
255
255
255
255
255
255
255
255
255
255
255
255
255
255
255
255
255
255
255
255
255
45
1
0
3
16
35
140
157
226
251
250
255
255
255
255
255
154
0
151
255
255
207
246
255
255
255
255
255
255
255
255
255
133
19
1
21
255
255
255
255
255
255
255
255
255
255
255
255
255
255
255
255
255
255
255
255
255
255
255
250
223
71
46
140
255
255
255
255
255
255
255
255
255
255
184
80
6
5
84
255
255
255
255
255
255
255
255
255
255
255
255
255
255
255
255
255
255
255
255
255
255
255
255
255
255
255
255
255
255
255
255
255
255
255
255
255
255
255
255
255
255
255
255
255
255
255
255
255
172
127
174
255
181
115
255
255
255
255
255
255
255
255
255
255
56
48
165
6
34
0
143
255
255
255
255
255
255
255
255
121
87
246
96
217
255
255
255
255
255
255
255
255
255
255
255
255
255
255
255
255
255
255
255
255
255
255
255
255
237
89
112
255
255
255
255
255
255
255
255
255
255
236
36
125
247
173
31
255
255
255
255
255
255
255
255
157
120
254
208
184
245
255
255
255
255
255
255
255
255
255
255
254
107
64
255
255
255
255
255
255
255
255
255
255
255
255
255
255
255
255
255
255
255
255
255
255
253
244
254
255
115
195
255
255
255
255
255
255
255
255
255
243
10
62
28
195
249
20
90
255
255
255
255
255
255
255
255
19
72
126
204
255
255
255
255
255
255
255
255
255
255
255
255
255
255
255
255
255
255
255
255
255
255
255
255
255
184
26
148
255
255
255
255
255
255
255
255
255
255
76
177
255
255
92
101
255
255
255
255
255
255
255
255
0
9
162
3
3
59
255
255
255
255
255
255
255
255
255
255
162
22
48
25
255
255
255
255
255
255
255
255
255
255
255
255
255
255
255
255
255
255
255
255
255
252
240
247
255
126
194
255
255
255
255
255
255
255
255
255
188
0
20
102
248
255
79
11
235
255
255
255
255
255
255
255
7
66
101
174
254
255
255
255
255
255
255
255
255
255
255
255
255
255
255
255
255
255
255
255
255
255
255
254
218
47
81
171
255
255
255
255
255
255
255
255
255
255
29
231
251
231
35
145
255
255
255
255
255
255
255
255
0
35
17
54
101
12
253
255
255
255
255
255
255
255
255
187
68
192
178
89
255
255
255
255
255
255
255
255
255
255
255
255
255
255
255
255
255
255
255
255
255
254
250
255
255
88
200
255
255
255
255
255
255
255
255
255
174
0
119
255
255
255
221
120
178
255
255
255
255
255
255
255
14
197
217
226
255
255
255
255
255
255
255
255
255
255
255
255
255
255
255
255
255
255
255
255
255
255
254
132
76
194
254
255
255
255
255
255
255
255
255
255
255
255
9
117
54
6
148
255
255
255
255
255
255
255
255
255
0
3
88
205
202
3
252
255
255
255
255
255
255
255
255
171
75
94
103
254
255
255
255
255
255
255
255
255
255
255
255
255
255
255
255
255
255
255
255
255
255
255
255
255
255
40
218
255
255
255
255
255
255
255
255
255
193
0
40
255
255
255
255
255
255
255
255
255
255
255
255
255
143
45
45
33
76
255
255
255
255
255
255
255
255
255
255
255
255
255
255
255
255
255
255
255
255
175
64
82
241
255
255
255
255
255
255
255
255
255
255
255
255
255
174
218
255
255
255
255
255
255
255
255
255
255
255
255
4
13
116
233
238
2
222
255
255
255
255
255
255
255
255
26
67
143
210
255
255
255
255
255
255
255
255
255
255
255
255
255
255
255
255
255
255
255
255
255
255
255
255
255
255
5
248
255
255
255
255
255
255
255
255
255
235
2
17
136
255
255
224
253
255
255
255
255
255
255
255
255
255
255
255
255
245
255
255
255
255
255
255
255
255
255
255
255
255
255
255
255
255
255
255
255
171
49
0
0
3
35
57
73
121
222
255
255
255
255
255
255
255
255
255
255
255
255
255
255
255
255
255
255
255
255
255
255
0
6
114
235
243
1
234
255
255
255
255
255
255
255
255
9
141
215
136
75
255
255
255
255
255
255
255
255
255
255
255
255
255
255
255
255
255
255
255
255
255
255
255
255
255
19
236
255
255
255
255
255
255
255
255
255
249
10
29
32
241
255
61
14
226
255
255
255
255
255
255
255
255
255
255
255
255
255
255
255
255
255
255
255
255
255
255
255
255
255
255
255
255
255
255
255
110
70
5
26
3
18
7
0
5
56
255
255
255
255
255
255
255
255
253
255
255
255
255
255
255
255
255
255
255
255
255
255
129
110
247
255
255
23
156
255
255
255
255
255
255
255
255
255
255
255
255
255
255
255
255
255
255
255
255
255
255
255
255
255
255
255
255
255
255
255
255
255
255
255
255
255
255
255
255
255
255
255
255
255
255
255
255
255
169
0
5
229
255
255
255
255
255
255
255
255
255
255
255
255
255
255
255
255
255
255
255
255
255
255
255
255
255
255
255
255
255
255
255
255
255
255
255
255
124
53
16
48
168
148
7
0
2
71
255
255
255
255
255
255
255
255
250
255
255
255
255
255
255
255
255
255
255
255
255
255
255
218
255
255
255
58
48
235
255
255
255
255
255
255
255
255
255
255
255
255
255
255
255
255
255
255
255
255
255
255
255
255
255
255
255
255
255
255
255
255
255
255
255
255
255
255
255
255
255
255
255
255
255
255
255
255
166
0
52
255
255
255
255
255
255
255
255
255
255
255
255
255
255
255
255
255
255
255
255
255
255
255
255
255
255
255
255
255
255
255
255
255
255
255
255
255
236
93
0
0
87
26
7
20
30
96
255
255
255
255
255
255
255
255
51
255
255
255
255
255
255
255
255
255
255
255
255
255
255
250
255
255
255
64
12
30
255
255
255
255
255
255
255
255
255
255
255
255
255
255
255
255
255
255
255
255
255
255
255
255
255
255
255
255
255
255
255
255
255
255
255
255
255
255
255
255
255
255
255
255
255
255
255
255
143
3
148
255
255
255
255
255
255
255
255
255
255
255
255
255
255
255
255
255
255
255
255
255
255
255
255
255
255
255
255
255
255
255
255
255
255
255
255
255
255
255
255
255
255
2
6
0
75
111
255
255
255
255
255
255
255
255
209
255
255
255
255
255
255
255
255
255
255
255
255
255
255
255
255
255
255
144
199
240
255
255
255
255
255
255
255
255
255
255
255
255
255
255
255
255
255
255
255
255
255
255
255
255
255
255
255
255
255
255
255
255
255
255
255
255
255
255
255
255
255
255
255
255
255
255
255
255
255
255
255
255
255
255
255
255
255
255
255
255
255
255
255
255
255
255
255
255
255
255
255
255
255
255
255
255
255
255
255
255
255
255
255
255
255
255
255
255
255
255
255
255
255
255
255
255
192
99
255
255
255
255
255
255
255
255
255
255
255
255
255
255
255
255
255
255
255
255
255
255
255
255
255
255
255
255
255
255
255
255
255
255
255
255
255
255
255
255
255
255
255
255
255
255
255
255
255
255
255
255
255
255
255
255
255
255
255
255
255
255
255
255
255
255
255
255
255
255
255
255
255
255
255
255
255
255
255
255
255
255
255
255
255
255
255
255
255
255
255
255
255
255
255
255
255
255
255
255
255
255
255
255
255
255
255
255
255
255
255
255
255
255
255
255
255
255
255
255
255
255
255
255
255
255
255
255
255
255
255
255
255
255
255
255
255
255
255
255
255
255
255
255
255
255
255
255
255
255
255
255
255
255
255
255
255
255
255
255
255
255
255
255
255
255
255
255
255
255
255
255
255
255
255
255
255
255
255
255
255
255
255
255
255
255
255
255
255
255
255
255
255
255
255
255
255
255
255
255
255
255
255
255
255
255
255
255
255
255
255
255
255
255
255
255
255
255
255
255
255
255
255
255
255
255
255
255
255
255
255
255
255
255
255
255
255
255
255
255
255
255
255
255
255
255
255
255
255
255
255
255
255
255
255
255
255
255
255
255
255
255
255
255
255
255
255
255
255
255
255
255
255
255
255
255
255
255
255
255
255
255
255
255
255
255
255
255
255
255
255
255
255
255
255
255
255
255
255
255
255
255
255
255
255
255
255
255
255
255
255
255
255
255
255
255
255
255
255
255
255
255
255
255
255
255
255
255
255
255
255
255
255
255
255
255
255
255
255
255
255
255
255
255
255
255
255
255
255
255
255
255
255
255
255
255
255
255
255
255
255
255
255
255
255
255
255
255
255
255
255
255
255
255
255
255
255
255
255
255
255
255
255
255
255
255
255
255
255
255
255
255
255
255
255
255
255
255
255
255
255
255
255
255
255
255
255
255
255
255
255
255
255
255
255
255
255
255
255
255
255
255
255
255
255
255
255
255
255
255
255
255
255
255
255
255
255
