P2
# CREATOR: GIMP PNM Filter Version 1.1
128 32
255
0
0
0
0
0
0
0
0
0
0
0
0
0
0
0
0
0
0
0
0
0
0
0
0
0
0
0
0
0
0
0
0
0
0
0
0
0
0
0
0
0
0
0
0
7
48
102
126
127
127
127
127
127
127
127
127
127
127
127
127
127
127
127
119
187
255
247
250
253
255
187
118
127
127
127
127
127
127
127
127
127
127
127
127
127
127
127
127
127
128
125
85
22
0
0
0
0
0
0
0
0
0
0
0
0
0
0
0
0
0
0
0
0
0
0
0
0
0
0
0
0
0
0
0
0
0
0
0
0
0
0
0
0
0
0
0
0
0
0
0
0
0
0
0
0
0
0
0
0
0
0
0
0
0
0
0
0
0
0
0
0
0
0
0
0
0
0
0
0
0
0
12
72
118
127
127
127
127
127
127
127
127
127
127
127
127
127
127
127
127
127
127
130
133
129
161
193
194
158
122
127
127
127
127
127
127
127
127
127
127
127
127
127
127
127
127
127
127
127
127
90
24
0
0
0
0
0
0
0
0
0
0
0
0
0
0
0
0
0
0
0
0
0
0
0
0
0
0
0
0
0
0
0
0
0
0
0
0
0
0
0
0
0
0
0
0
0
0
0
0
0
0
0
0
0
0
0
0
0
0
0
0
0
0
0
0
0
0
0
0
0
0
0
0
0
0
0
1
34
94
126
127
127
127
127
127
127
127
127
127
127
127
127
127
127
127
127
127
127
127
130
133
133
136
138
139
134
128
127
127
127
127
127
127
127
127
127
127
127
127
127
127
127
127
127
127
127
127
127
102
27
0
0
0
0
0
0
0
0
0
0
0
0
0
0
0
0
0
0
0
0
0
0
0
0
0
0
0
0
0
0
0
0
0
0
0
0
0
0
0
0
0
0
0
0
0
0
0
0
0
0
0
0
0
0
0
0
0
0
0
0
0
0
0
0
0
0
0
0
0
0
0
0
0
12
64
115
127
127
127
127
127
127
127
127
127
127
127
127
127
127
127
127
127
127
127
127
119
187
255
247
247
246
250
223
155
123
127
127
127
127
127
127
127
127
127
127
127
127
127
127
127
127
127
127
127
127
127
112
34
0
0
0
0
0
0
0
0
0
0
0
0
0
0
0
0
0
0
0
0
0
0
0
0
0
0
0
0
0
0
0
0
0
0
0
0
0
0
0
0
0
0
0
0
0
0
0
0
0
0
0
0
0
0
0
0
0
0
0
0
0
0
0
0
0
0
0
0
0
0
1
22
86
122
127
127
127
127
127
127
127
127
127
127
127
127
127
127
127
127
127
127
127
127
127
118
191
255
255
255
255
255
255
189
118
127
127
127
127
127
127
127
127
127
127
127
127
127
127
127
127
127
127
127
127
127
128
112
56
7
0
0
0
0
0
0
0
0
0
0
0
0
0
0
0
0
0
0
0
0
0
0
0
0
0
0
0
0
0
0
0
0
0
0
0
0
0
0
0
0
0
0
0
0
0
0
0
0
0
0
0
0
0
0
0
0
0
0
0
0
0
0
0
0
0
0
0
1
38
110
127
127
127
127
127
127
127
127
127
127
127
127
127
127
127
127
127
127
127
127
127
127
127
118
191
255
255
255
255
255
255
190
117
127
127
127
127
127
127
127
127
127
127
127
127
127
127
127
127
127
127
127
127
127
127
128
126
71
14
0
0
0
0
0
0
0
0
0
0
0
0
0
0
0
0
0
0
0
0
0
0
0
0
0
0
0
0
0
0
0
0
0
0
0
0
0
0
0
0
0
0
0
0
0
0
0
0
0
0
0
0
0
0
0
0
0
0
0
0
0
0
0
0
0
21
77
123
128
127
127
127
127
127
127
127
127
127
127
127
127
127
127
127
127
127
127
127
127
127
127
127
118
191
255
255
255
255
255
255
193
120
127
127
127
127
127
127
127
127
127
127
127
127
127
127
127
127
127
127
127
127
127
127
127
127
124
92
26
1
0
0
0
0
0
0
0
0
0
0
0
0
0
0
0
0
0
0
0
0
0
0
0
0
0
0
0
0
0
0
0
0
0
0
0
0
0
0
0
0
0
0
0
0
0
0
0
0
0
0
0
0
0
0
0
0
0
0
0
0
0
3
34
105
127
127
127
127
127
127
127
127
127
127
127
127
127
127
127
127
127
127
127
127
127
127
127
127
127
127
118
191
255
255
255
255
255
255
228
155
123
127
127
127
127
127
127
127
127
127
127
127
127
127
127
127
127
127
127
127
127
127
122
126
127
127
108
46
1
0
0
0
0
0
0
0
0
0
0
0
0
0
0
0
0
0
0
0
0
0
0
0
0
0
0
0
0
0
0
0
0
0
0
0
0
0
0
0
0
0
0
0
0
0
0
0
0
0
0
0
0
0
0
0
0
0
0
0
16
72
113
127
127
127
127
127
127
127
127
127
127
127
127
127
127
127
127
127
127
127
127
127
127
127
127
127
127
127
118
191
255
255
255
255
255
255
255
189
118
127
127
127
127
127
127
127
127
127
127
127
127
127
127
127
127
127
127
127
124
87
48
48
55
96
126
112
41
2
0
0
0
0
0
0
0
0
0
0
0
0
0
0
0
0
0
0
0
0
0
0
0
0
0
0
0
0
0
0
0
0
0
0
0
0
0
0
0
0
0
0
0
0
0
0
0
0
0
0
0
0
0
0
0
0
5
37
92
128
128
127
127
127
127
127
127
127
127
127
127
127
127
127
127
127
127
127
127
127
127
127
127
127
127
127
127
127
118
189
255
255
255
255
255
255
255
191
118
127
127
127
127
127
127
127
127
127
127
127
127
127
127
127
127
127
127
127
111
23
0
0
2
34
120
127
119
58
5
0
0
0
0
0
0
0
0
0
0
0
0
0
0
0
0
0
0
0
0
0
0
0
0
0
0
0
0
0
0
0
0
0
0
0
0
0
0
0
0
0
0
0
0
0
0
0
0
0
0
0
0
0
1
21
78
120
127
127
127
127
127
127
127
127
127
127
127
127
127
127
127
127
127
127
127
127
127
127
127
127
127
127
127
127
127
127
123
155
224
251
247
247
247
247
255
187
119
127
127
127
127
127
127
127
127
127
127
127
127
127
127
127
127
127
127
126
91
3
0
0
0
5
88
126
128
122
73
11
0
0
0
0
0
0
0
0
0
0
0
0
0
0
0
0
0
0
0
0
0
0
0
0
0
0
0
0
0
0
0
0
0
0
0
0
0
0
0
0
0
0
0
0
0
0
0
0
0
0
0
3
40
100
119
157
181
183
180
131
127
128
129
125
117
68
66
66
29
34
47
62
69
87
125
127
127
127
127
127
127
127
127
127
127
127
127
128
132
134
134
134
134
135
136
131
126
127
127
127
127
127
127
127
127
127
127
127
127
127
127
127
127
127
127
126
110
6
0
0
0
1
50
124
127
128
124
87
25
0
0
0
0
0
0
0
0
0
0
0
0
0
0
0
0
0
0
0
0
0
0
0
0
0
0
0
0
0
0
0
0
0
0
0
0
0
0
0
0
0
0
0
0
0
0
0
0
0
17
61
111
109
165
227
185
181
177
125
120
122
116
63
10
4
4
4
0
0
1
2
3
17
111
127
127
127
127
127
127
127
127
127
127
127
127
128
129
128
128
128
128
126
123
124
126
127
127
127
127
127
127
127
127
127
127
127
127
127
127
127
127
127
127
126
99
7
0
0
0
0
33
122
127
127
127
127
96
29
1
0
0
0
0
0
0
0
0
0
0
0
0
0
0
0
0
0
0
0
0
0
0
0
0
0
0
0
0
0
0
0
0
0
0
0
0
0
0
0
0
0
0
0
0
0
0
20
93
125
128
127
122
38
74
79
78
75
76
71
13
1
0
0
0
0
0
0
0
0
0
3
78
126
127
127
127
127
127
127
127
127
127
127
123
159
196
191
191
191
195
163
131
136
130
126
127
127
127
127
127
127
127
127
127
127
127
127
127
127
127
127
127
126
103
46
3
0
0
0
24
122
127
127
127
127
127
111
35
0
0
0
0
0
0
0
0
0
0
0
0
0
0
0
0
0
0
0
0
0
0
0
0
0
0
0
0
0
0
0
0
0
0
0
0
0
0
0
0
0
0
0
0
10
58
106
127
127
125
163
80
166
182
181
182
183
185
177
69
8
0
0
0
0
0
0
0
0
0
0
36
121
127
127
127
127
127
127
127
127
127
127
118
190
255
252
252
252
252
250
247
255
189
120
127
127
127
127
127
127
127
127
127
127
127
127
127
127
127
127
127
127
117
64
4
0
0
3
54
122
127
127
127
127
127
127
111
50
2
0
0
0
0
0
0
0
0
0
0
0
0
0
0
0
0
0
0
0
0
0
0
0
0
0
0
0
0
0
0
0
0
0
0
0
0
0
0
0
0
1
28
80
120
128
127
127
116
162
83
183
195
193
188
187
188
189
183
116
14
8
8
7
3
0
0
0
0
0
12
103
127
127
127
127
127
127
127
127
127
127
118
191
255
255
255
255
255
255
255
255
228
155
123
127
127
127
127
127
127
127
127
127
127
127
127
127
127
127
127
127
125
109
8
0
0
2
23
74
125
127
127
127
127
127
128
121
57
5
0
0
0
0
0
0
0
0
0
0
0
0
0
0
0
0
0
0
0
0
0
0
0
0
0
0
0
0
0
0
0
0
0
0
0
0
0
0
8
43
101
127
127
127
127
127
99
176
142
191
192
187
139
138
135
140
182
133
119
119
120
117
64
11
1
0
0
5
54
71
125
127
127
127
127
127
127
127
127
127
118
191
255
255
255
255
255
255
255
255
255
189
118
127
127
127
127
127
127
127
126
127
127
127
127
127
127
127
127
127
127
139
56
1
0
0
0
16
99
127
127
127
127
127
127
127
122
76
12
0
0
0
0
0
0
0
0
0
0
0
0
0
0
0
0
0
0
0
0
0
0
0
0
0
0
0
0
0
0
0
0
0
0
0
0
16
75
119
127
127
127
127
127
124
100
238
250
243
200
191
191
237
188
179
135
128
130
130
131
130
122
108
7
0
0
5
53
42
122
127
127
125
124
127
127
127
127
127
118
191
255
255
255
255
255
255
255
255
255
190
117
127
127
127
127
103
65
97
69
122
127
127
127
127
127
127
127
127
127
122
32
1
0
0
0
0
44
123
127
127
127
127
127
127
128
124
85
23
0
0
0
0
0
0
0
0
0
0
0
0
0
0
0
0
0
0
0
0
0
0
0
0
0
0
0
0
0
0
0
0
0
3
42
95
124
127
128
153
130
117
127
121
128
253
254
210
237
188
190
186
135
127
121
122
122
122
123
120
73
64
4
0
0
0
3
19
118
126
102
68
55
104
127
127
127
127
118
191
255
255
255
255
255
255
255
255
255
193
120
127
127
127
126
41
8
33
107
126
127
127
127
127
127
127
127
127
126
57
2
0
0
0
0
0
6
54
96
105
111
118
127
127
127
127
127
99
30
0
0
0
0
0
0
0
0
0
0
0
0
0
0
0
0
0
0
0
0
0
0
0
0
0
0
0
0
0
0
0
16
62
111
127
127
127
152
234
231
87
100
108
179
247
198
228
134
84
178
83
117
71
70
72
72
71
71
67
63
58
4
0
0
0
0
10
100
79
22
10
3
37
118
127
127
127
118
191
255
255
255
255
255
255
255
255
255
228
155
123
127
124
69
0
0
17
123
127
127
127
127
127
127
127
128
114
72
4
0
0
0
0
0
0
0
4
25
31
36
47
110
127
127
127
127
127
103
37
3
0
0
0
0
0
0
0
0
0
0
0
0
0
0
0
0
0
0
0
0
0
0
0
0
0
0
0
2
24
89
123
127
127
127
127
212
252
195
116
20
80
178
184
71
75
62
70
225
84
112
70
117
119
118
124
118
65
63
59
4
0
0
0
0
2
31
24
119
115
7
9
103
127
127
127
118
191
255
255
255
255
255
255
255
255
255
255
189
118
127
126
53
1
0
35
124
127
127
127
127
127
121
86
78
38
4
0
0
0
0
0
0
0
0
0
0
0
0
0
44
118
127
127
127
127
127
116
50
2
0
0
0
0
0
0
0
0
0
0
0
0
0
0
0
0
0
0
0
0
0
0
0
0
0
8
55
106
126
127
127
127
127
127
242
249
136
62
2
8
76
121
33
111
61
24
178
127
67
66
120
72
70
121
125
71
63
60
4
0
5
10
0
1
22
172
191
125
7
6
96
127
127
127
118
191
255
255
255
255
255
255
255
255
255
255
193
120
127
126
91
6
0
18
109
127
127
127
128
155
49
17
0
0
0
0
0
0
0
0
0
0
0
0
0
0
0
0
2
84
125
127
127
127
127
127
116
51
4
0
0
0
0
0
0
0
0
0
0
0
0
0
0
0
0
0
0
0
0
0
0
1
27
84
122
128
127
127
127
127
127
127
243
245
123
7
0
5
118
195
240
190
75
118
128
124
69
71
119
65
58
73
124
121
67
53
1
13
131
175
13
8
168
198
191
123
7
5
92
127
127
127
118
191
255
255
255
255
255
255
255
255
255
255
225
152
123
121
43
1
0
1
53
125
127
127
130
196
15
0
0
0
0
0
0
0
0
0
0
0
0
0
0
0
0
0
1
27
115
127
127
127
127
127
128
124
67
8
0
0
0
0
0
0
0
0
0
0
0
0
0
0
0
0
0
0
0
0
4
40
102
126
127
127
127
127
127
127
127
127
185
189
71
1
0
5
124
233
247
227
80
167
79
121
125
125
123
74
72
123
129
125
64
7
8
116
233
234
60
5
121
189
190
123
7
5
89
127
127
127
118
190
255
252
252
252
252
252
252
252
252
255
227
156
122
123
60
2
0
0
9
87
126
127
137
155
8
0
0
0
0
0
0
0
0
0
0
0
0
0
0
0
0
0
0
5
102
127
127
127
127
127
127
128
125
83
17
1
0
0
0
0
0
0
0
0
0
0
0
0
0
0
0
0
2
9
57
117
127
127
127
127
127
127
127
127
127
127
80
174
68
2
0
5
55
23
70
73
16
115
71
123
125
124
131
177
190
181
132
122
67
58
60
61
25
67
17
9
13
119
187
124
7
5
87
127
127
127
123
159
196
191
191
191
191
191
191
191
191
191
193
157
123
127
120
14
0
0
0
22
114
147
174
41
1
0
0
0
0
0
0
0
0
0
0
0
0
0
0
0
0
0
0
6
89
125
127
127
127
127
127
127
128
126
96
36
0
0
0
0
0
0
0
0
0
0
0
0
0
0
0
5
47
91
125
128
127
127
127
127
127
127
127
127
127
127
22
118
65
3
0
0
2
4
67
111
20
55
72
117
71
70
120
144
233
142
124
125
68
61
60
5
2
61
119
110
0
21
179
127
7
4
86
127
127
127
127
128
129
128
129
129
129
129
129
129
129
129
130
128
126
127
125
80
3
0
0
1
40
63
49
0
0
0
0
0
0
0
0
0
0
0
0
0
0
0
0
0
0
0
0
4
77
124
127
127
127
127
127
127
127
127
127
108
29
0
0
0
0
0
0
0
0
0
0
0
0
0
7
55
116
128
128
127
127
127
127
127
127
127
127
127
127
127
16
59
61
4
0
0
2
55
112
125
103
21
112
68
57
57
66
116
137
115
71
112
59
11
54
11
48
62
113
61
14
119
191
126
7
5
86
127
127
127
127
128
132
135
132
129
129
129
129
129
129
129
129
130
129
127
127
130
32
0
0
0
0
0
0
0
0
0
0
0
0
0
0
0
0
0
0
0
0
0
0
0
0
0
0
1
30
121
127
127
127
127
127
127
127
127
127
127
111
58
5
0
0
0
0
0
0
0
0
0
3
29
83
119
127
127
127
127
127
127
127
127
127
127
127
127
127
127
14
7
52
5
0
0
0
5
18
61
21
62
115
12
4
4
3
16
104
16
3
7
4
3
59
58
15
12
15
21
122
186
179
116
7
5
87
127
127
127
123
155
224
255
219
187
191
191
191
191
191
191
191
196
159
123
127
127
98
6
0
0
0
0
0
0
0
0
0
0
0
0
0
0
0
0
0
0
0
0
0
0
0
0
0
0
7
111
127
127
127
127
127
127
127
127
127
127
128
123
57
3
0
0
0
0
0
0
0
3
46
109
128
128
127
127
127
127
127
127
127
127
127
127
127
127
127
127
15
0
3
0
0
0
0
2
50
58
54
61
59
3
0
0
0
0
6
0
0
0
0
4
59
69
115
118
122
174
181
121
18
7
0
5
87
127
127
127
118
189
255
255
254
252
252
252
252
252
252
252
252
255
189
118
127
127
123
75
3
0
0
0
0
0
0
0
0
0
0
0
0
0
0
0
0
0
0
0
0
0
0
0
0
0
4
79
125
127
127
127
127
127
127
127
127
127
127
127
122
64
9
0
0
0
0
1
20
75
118
127
127
127
127
127
127
127
127
127
127
127
127
127
127
127
127
127
15
0
0
0
0
0
0
0
5
4
5
4
3
0
0
0
0
0
0
0
0
0
0
4
55
69
127
132
128
124
68
9
0
0
0
5
88
127
127
127
118
191
255
255
255
255
255
255
255
255
255
255
255
255
193
120
127
127
127
131
104
50
2
0
12
27
2
0
0
0
0
0
0
0
0
0
0
0
0
0
0
0
0
0
0
0
1
48
123
127
127
127
127
127
127
127
127
127
127
127
128
126
87
19
0
0
7
45
102
128
127
127
127
127
127
129
129
127
127
127
127
127
127
127
127
127
127
127
27
0
0
0
0
0
0
0
0
0
0
0
0
0
0
0
0
0
0
0
0
0
0
0
6
59
117
118
63
9
2
0
0
0
0
5
89
127
127
127
118
191
255
255
255
255
255
255
255
255
255
255
255
255
228
155
123
127
127
127
128
124
146
142
122
69
3
0
0
0
0
0
0
0
0
0
0
0
0
0
0
0
0
0
0
0
0
23
123
127
127
127
127
127
127
127
127
127
127
127
127
128
126
96
35
0
35
99
109
112
113
114
116
117
122
117
114
119
120
121
121
121
121
121
122
122
122
122
57
2
0
0
0
0
0
0
0
0
0
0
0
0
0
0
0
0
0
0
0
0
0
0
0
4
8
8
3
0
0
0
0
0
0
5
90
127
127
127
118
191
255
255
255
255
255
255
255
255
255
255
255
255
255
189
118
127
127
127
127
127
127
127
150
44
0
0
0
0
0
0
0
0
0
0
0
0
0
0
0
0
0
0
0
0
0
16
126
127
127
127
127
127
127
127
127
127
127
127
127
127
127
127
109
