P2
# CREATOR: GIMP PNM Filter Version 1.1
128 32
255
0
0
0
0
0
0
0
0
0
0
0
0
0
0
0
0
0
0
0
0
0
0
0
0
0
0
0
0
0
0
0
0
0
0
0
0
0
0
0
0
0
15
131
176
173
127
124
115
64
11
9
5
7
12
32
117
127
127
127
127
127
127
127
119
187
255
247
250
253
255
187
118
127
127
127
127
127
127
127
127
127
127
127
127
127
127
127
127
127
128
125
85
22
0
0
0
0
0
0
0
0
0
0
0
0
0
0
0
0
0
0
0
0
0
0
0
0
0
0
0
0
0
0
0
0
0
0
0
0
0
0
0
0
0
0
0
0
0
0
0
0
0
0
0
0
0
0
0
0
0
0
0
0
0
0
0
0
0
0
0
0
0
0
0
0
0
0
0
1
88
89
131
136
133
124
21
5
0
0
0
0
0
5
88
127
127
127
127
127
127
127
127
130
133
129
161
193
194
158
122
127
127
127
127
127
127
127
127
127
127
127
127
127
127
127
127
127
127
127
127
90
24
0
0
0
0
0
0
0
0
0
0
0
0
0
0
0
0
0
0
0
0
0
0
0
0
0
0
0
0
0
0
0
0
0
0
0
0
0
0
0
0
0
0
0
0
0
0
0
0
0
0
0
0
0
0
0
0
0
0
0
0
0
0
0
0
0
0
0
0
0
0
0
0
0
0
0
132
185
185
186
188
185
123
61
10
8
4
0
0
1
47
123
127
127
127
127
127
127
127
130
133
133
136
138
139
134
128
127
127
127
127
127
127
127
127
127
127
127
127
127
127
127
127
127
127
127
127
127
102
27
0
0
0
0
0
0
0
0
0
0
0
0
0
0
0
0
0
0
0
0
0
0
0
0
0
0
0
0
0
0
0
0
0
0
0
0
0
0
0
0
0
0
0
0
0
0
0
0
0
0
0
0
0
0
0
0
0
0
0
0
0
0
0
0
0
0
0
0
0
0
0
0
0
12
172
198
194
192
193
190
183
128
120
117
59
3
0
0
17
114
127
126
126
127
127
127
119
187
255
247
247
246
250
223
155
123
127
127
127
127
127
127
127
127
127
127
127
127
127
127
127
127
127
127
127
127
127
112
34
0
0
0
0
0
0
0
0
0
0
0
0
0
0
0
0
0
0
0
0
0
0
0
0
0
0
0
0
0
0
0
0
0
0
0
0
0
0
0
0
0
0
0
0
0
0
0
0
0
0
0
0
0
0
0
0
0
0
0
0
0
0
0
0
0
0
0
0
3
49
20
23
82
231
194
183
192
184
131
126
129
130
122
64
3
0
0
6
96
114
77
80
123
127
127
118
191
255
255
255
255
255
255
189
118
127
127
127
127
127
127
127
127
127
127
127
127
127
127
127
127
127
127
127
127
127
128
112
56
7
0
0
0
0
0
0
0
0
0
0
0
0
0
0
0
0
0
0
0
0
0
0
0
0
0
0
0
0
0
0
0
0
0
0
0
0
0
0
0
0
0
0
0
0
0
0
0
0
0
0
0
0
0
0
0
0
0
0
0
0
0
0
0
0
0
0
45
211
161
57
119
184
124
80
176
132
68
72
121
124
75
59
4
0
0
4
54
38
16
11
87
127
127
118
191
255
255
255
255
255
255
190
117
127
127
127
127
127
127
127
127
127
127
127
127
127
127
127
127
127
127
127
127
127
127
128
126
71
14
0
0
0
0
0
0
0
0
0
0
0
0
0
0
0
0
0
0
0
0
0
0
0
0
0
0
0
0
0
0
0
0
0
0
0
0
0
0
0
0
0
0
0
0
0
0
0
0
0
0
0
0
0
0
0
0
0
0
0
0
0
0
0
0
0
144
244
128
10
69
134
83
71
127
122
69
113
73
123
121
63
3
5
17
2
21
173
168
13
64
127
127
118
191
255
255
255
255
255
255
193
120
127
127
127
127
127
127
127
127
127
127
127
127
127
127
127
127
127
127
127
127
127
127
127
127
124
92
26
1
0
0
0
0
0
0
0
0
0
0
0
0
0
0
0
0
0
0
0
0
0
0
0
0
0
0
0
0
0
0
0
0
0
0
0
0
0
0
0
0
0
0
0
0
0
0
0
0
0
0
0
0
0
0
0
0
0
0
0
0
0
3
34
182
191
65
2
64
227
230
123
125
124
76
119
78
124
126
62
2
70
203
21
111
187
131
10
57
127
127
118
191
255
255
255
255
255
255
228
155
123
127
127
127
127
127
127
127
127
127
127
127
127
127
127
127
127
127
127
127
127
127
122
126
127
127
108
46
1
0
0
0
0
0
0
0
0
0
0
0
0
0
0
0
0
0
0
0
0
0
0
0
0
0
0
0
0
0
0
0
0
0
0
0
0
0
0
0
0
0
0
0
0
0
0
0
0
0
0
0
0
0
0
0
0
0
0
0
16
72
113
71
161
16
0
7
79
127
28
113
125
120
133
179
135
125
63
10
57
74
16
63
128
119
10
55
127
127
118
191
255
255
255
255
255
255
255
189
118
127
127
127
127
127
127
127
127
127
127
127
127
127
127
127
127
127
127
127
124
87
48
48
55
96
126
112
41
2
0
0
0
0
0
0
0
0
0
0
0
0
0
0
0
0
0
0
0
0
0
0
0
0
0
0
0
0
0
0
0
0
0
0
0
0
0
0
0
0
0
0
0
0
0
0
0
0
0
0
0
0
0
0
0
0
5
37
92
128
128
55
59
4
0
2
57
114
64
69
63
67
121
179
126
115
64
54
12
55
103
26
126
124
10
54
127
127
118
189
255
255
255
255
255
255
255
191
118
127
127
127
127
127
127
127
127
127
127
127
127
127
127
127
127
127
127
127
111
23
0
0
2
34
120
127
119
58
5
0
0
0
0
0
0
0
0
0
0
0
0
0
0
0
0
0
0
0
0
0
0
0
0
0
0
0
0
0
0
0
0
0
0
0
0
0
0
0
0
0
0
0
0
0
0
0
0
0
0
0
0
0
1
21
78
120
127
127
127
55
3
0
0
0
7
58
67
108
11
3
12
59
12
7
8
62
60
19
71
123
172
116
9
55
127
127
123
155
224
251
247
247
247
247
255
187
119
127
127
127
127
127
127
127
127
127
127
127
127
127
127
127
127
127
127
126
91
3
0
0
0
5
88
126
128
122
73
11
0
0
0
0
0
0
0
0
0
0
0
0
0
0
0
0
0
0
0
0
0
0
0
0
0
0
0
0
0
0
0
0
0
0
0
0
0
0
0
0
0
0
0
0
0
0
0
0
0
0
0
3
40
100
125
128
127
127
127
56
2
0
0
0
0
2
9
56
4
0
0
1
0
0
2
59
118
117
121
115
20
8
2
55
127
127
127
128
132
134
134
134
134
135
136
131
126
127
127
127
127
127
127
127
127
127
127
127
127
127
127
127
127
127
127
126
110
6
0
0
0
1
50
124
127
128
124
87
25
0
0
0
0
0
0
0
0
0
0
0
0
0
0
0
0
0
0
0
0
0
0
0
0
0
0
0
0
0
0
0
0
0
0
0
0
0
0
0
0
0
0
0
0
0
0
0
0
0
17
61
111
127
127
127
127
127
127
72
4
0
0
0
0
0
0
2
0
0
0
0
0
0
0
7
61
67
61
11
0
0
2
56
127
127
127
128
129
128
128
128
128
126
123
124
126
127
127
127
127
127
127
127
127
127
127
127
127
127
127
127
127
127
127
126
99
7
0
0
0
0
33
122
127
127
127
127
96
29
1
0
0
0
0
0
0
0
0
0
0
0
0
0
0
0
0
0
0
0
0
0
0
0
0
0
0
0
0
0
0
0
0
0
0
0
0
0
0
0
0
0
0
0
0
0
0
20
93
125
128
127
127
127
127
127
127
110
15
0
0
0
0
0
0
0
0
0
0
0
0
1
2
2
2
3
2
0
0
0
2
57
127
127
123
159
196
191
191
191
195
163
131
136
130
126
127
127
127
127
127
127
127
127
127
127
127
127
127
127
127
127
127
126
103
46
3
0
0
0
24
122
127
127
127
127
127
111
35
0
0
0
0
0
0
0
0
0
0
0
0
0
0
0
0
0
0
0
0
0
0
0
0
0
0
0
0
0
0
0
0
0
0
0
0
0
0
0
0
0
0
0
0
10
58
106
127
127
127
127
127
127
127
127
127
118
19
0
0
0
0
5
17
37
40
33
24
13
39
52
59
57
37
19
3
0
0
0
2
58
127
127
118
190
255
252
252
252
252
250
247
255
189
120
127
127
127
127
127
127
127
127
127
127
127
127
127
127
127
127
127
127
117
64
4
0
0
3
54
122
127
127
127
127
127
127
111
50
2
0
0
0
0
0
0
0
0
0
0
0
0
0
0
0
0
0
0
0
0
0
0
0
0
0
0
0
0
0
0
0
0
0
0
0
0
0
0
0
0
1
28
80
120
128
127
127
127
127
127
127
127
127
127
118
19
0
0
0
10
87
114
122
122
122
117
108
122
124
124
124
122
111
26
0
0
0
1
59
127
127
118
191
255
255
255
255
255
255
255
255
228
155
123
127
127
127
127
127
127
127
127
127
127
127
127
127
127
127
127
127
125
109
8
0
0
2
23
74
125
127
127
127
127
127
128
121
57
5
0
0
0
0
0
0
0
0
0
0
0
0
0
0
0
0
0
0
0
0
0
0
0
0
0
0
0
0
0
0
0
0
0
0
0
0
0
0
8
43
101
127
127
127
127
127
127
127
127
127
127
127
127
119
24
4
5
4
18
114
127
127
127
127
127
127
127
127
127
127
127
124
42
12
9
7
9
65
127
127
118
191
255
255
255
255
255
255
255
255
255
189
118
127
127
127
127
127
127
127
126
127
127
127
127
127
127
127
127
127
127
139
56
1
0
0
0
16
99
127
127
127
127
127
127
127
122
76
12
0
0
0
0
0
0
0
0
0
0
0
0
0
0
0
0
0
0
0
0
0
0
0
0
0
0
0
0
0
0
0
0
0
0
0
0
16
75
119
127
127
127
127
127
127
127
127
127
127
127
127
127
124
92
86
86
86
90
122
127
127
127
127
127
127
127
127
127
127
127
127
114
106
102
98
96
115
127
127
118
191
255
255
255
255
255
255
255
255
255
190
117
127
127
127
127
103
65
97
69
122
127
127
127
127
127
127
127
127
127
122
32
1
0
0
0
0
44
123
127
127
127
127
127
127
128
124
85
23
0
0
0
0
0
0
0
0
0
0
0
0
0
0
0
0
0
0
0
0
0
0
0
0
0
0
0
0
0
0
0
0
0
3
42
95
124
127
127
127
127
127
127
127
127
127
127
127
127
127
127
127
127
127
127
127
127
127
127
127
127
127
127
127
127
127
127
127
127
127
127
127
127
127
127
127
127
127
118
191
255
255
255
255
255
255
255
255
255
193
120
127
127
127
126
41
8
33
107
126
127
127
127
127
127
127
127
127
126
57
2
0
0
0
0
0
6
54
96
105
111
118
127
127
127
127
127
99
30
0
0
0
0
0
0
0
0
0
0
0
0
0
0
0
0
0
0
0
0
0
0
0
0
0
0
0
0
0
0
0
16
62
111
127
127
127
127
127
127
127
127
127
127
127
127
127
127
127
127
127
127
127
127
127
127
127
127
127
127
127
127
127
127
127
127
127
127
127
127
127
127
127
127
127
127
127
118
191
255
255
255
255
255
255
255
255
255
228
155
123
127
124
69
0
0
17
123
127
127
127
127
127
127
127
128
114
72
4
0
0
0
0
0
0
0
4
25
31
36
47
110
127
127
127
127
127
103
37
3
0
0
0
0
0
0
0
0
0
0
0
0
0
0
0
0
0
0
0
0
0
0
0
0
0
0
0
2
24
89
123
127
127
127
127
127
127
127
127
127
127
127
127
127
127
127
127
127
127
127
127
127
127
127
127
127
127
127
127
127
127
127
127
127
127
127
127
127
127
127
127
127
127
127
127
118
191
255
255
255
255
255
255
255
255
255
255
189
118
127
126
53
1
0
35
124
127
127
127
127
127
121
86
78
38
4
0
0
0
0
0
0
0
0
0
0
0
0
0
44
118
127
127
127
127
127
116
50
2
0
0
0
0
0
0
0
0
0
0
0
0
0
0
0
0
0
0
0
0
0
0
0
0
0
8
55
106
126
127
127
127
127
127
127
127
127
127
127
127
127
127
127
127
127
127
127
127
127
127
127
127
127
127
127
127
127
127
127
127
127
127
127
127
127
127
127
127
127
127
127
127
127
127
118
191
255
255
255
255
255
255
255
255
255
255
193
120
127
126
91
6
0
18
109
127
127
127
128
155
49
17
0
0
0
0
0
0
0
0
0
0
0
0
0
0
0
0
2
84
125
127
127
127
127
127
116
51
4
0
0
0
0
0
0
0
0
0
0
0
0
0
0
0
0
0
0
0
0
0
0
1
27
84
122
128
127
127
127
127
127
127
127
127
127
127
127
127
127
127
127
127
127
127
127
127
127
127
127
127
127
127
127
127
127
127
127
127
127
127
127
127
127
127
127
127
127
127
127
127
127
127
118
191
255
255
255
255
255
255
255
255
255
255
225
152
123
121
43
1
0
1
53
125
127
127
130
196
15
0
0
0
0
0
0
0
0
0
0
0
0
0
0
0
0
0
1
27
115
127
127
127
127
127
128
124
67
8
0
0
0
0
0
0
0
0
0
0
0
0
0
0
0
0
0
0
0
0
4
40
102
126
127
127
127
127
127
127
127
127
127
127
127
127
127
127
127
127
127
127
127
127
127
127
127
127
127
127
127
127
127
127
127
127
127
127
127
127
127
127
127
127
127
127
127
127
127
127
127
127
118
190
255
252
252
252
252
252
252
252
252
255
227
156
122
123
60
2
0
0
9
87
126
127
137
155
8
0
0
0
0
0
0
0
0
0
0
0
0
0
0
0
0
0
0
5
102
127
127
127
127
127
127
128
125
83
17
1
0
0
0
0
0
0
0
0
0
0
0
0
0
0
0
0
2
9
57
117
127
127
127
127
127
127
127
127
127
127
127
127
127
127
127
127
127
127
127
127
127
127
127
127
127
127
127
127
127
127
127
127
127
127
127
127
127
127
127
127
127
127
127
127
127
127
127
127
127
127
123
159
196
191
191
191
191
191
191
191
191
191
193
157
123
127
120
14
0
0
0
22
114
147
174
41
1
0
0
0
0
0
0
0
0
0
0
0
0
0
0
0
0
0
0
6
89
125
127
127
127
127
127
127
128
126
96
36
0
0
0
0
0
0
0
0
0
0
0
0
0
0
0
5
47
91
125
128
127
127
127
127
127
127
127
127
127
127
127
127
127
127
127
127
127
127
127
127
127
127
127
127
127
127
127
127
127
127
127
127
127
127
127
127
127
127
127
127
127
127
127
127
127
127
127
127
127
127
127
128
129
128
129
129
129
129
129
129
129
129
130
128
126
127
125
80
3
0
0
1
40
63
49
0
0
0
0
0
0
0
0
0
0
0
0
0
0
0
0
0
0
0
0
4
77
124
127
127
127
127
127
127
127
127
127
108
29
0
0
0
0
0
0
0
0
0
0
0
0
0
7
55
116
128
128
127
127
127
127
127
127
127
127
127
127
127
127
127
127
127
127
127
127
127
127
127
127
127
127
127
127
127
127
127
127
127
127
127
127
127
127
127
127
127
127
127
127
127
127
127
127
127
127
127
127
127
127
128
132
135
132
129
129
129
129
129
129
129
129
130
129
127
127
130
32
0
0
0
0
0
0
0
0
0
0
0
0
0
0
0
0
0
0
0
0
0
0
0
0
0
0
1
30
121
127
127
127
127
127
127
127
127
127
127
111
58
5
0
0
0
0
0
0
0
0
0
3
29
83
119
127
127
127
127
127
127
127
127
127
127
127
127
127
127
127
127
127
127
127
127
127
127
127
127
127
127
127
127
127
127
127
127
127
127
127
127
127
127
127
127
127
127
127
127
127
127
127
127
127
127
127
127
127
127
123
155
224
255
219
187
191
191
191
191
191
191
191
196
159
123
127
127
98
6
0
0
0
0
0
0
0
0
0
0
0
0
0
0
0
0
0
0
0
0
0
0
0
0
0
0
7
111
127
127
127
127
127
127
127
127
127
127
128
123
57
3
0
0
0
0
0
0
0
3
46
109
128
128
127
127
127
127
127
127
127
127
127
127
127
127
127
127
127
127
127
127
127
127
127
127
127
127
127
127
127
127
127
127
127
127
127
127
127
127
127
127
127
127
127
127
127
127
127
127
127
127
127
127
127
127
127
127
118
189
255
255
254
252
252
252
252
252
252
252
252
255
189
118
127
127
123
75
3
0
0
0
0
0
0
0
0
0
0
0
0
0
0
0
0
0
0
0
0
0
0
0
0
0
4
79
125
127
127
127
127
127
127
127
127
127
127
127
122
64
9
0
0
0
0
1
20
75
118
127
127
127
127
127
127
127
127
127
127
127
127
127
127
127
127
127
127
127
127
127
127
127
127
127
127
127
127
127
127
127
127
127
127
127
127
127
127
127
127
127
127
127
127
127
127
127
127
127
127
127
127
127
127
127
127
127
118
191
255
255
255
255
255
255
255
255
255
255
255
255
193
120
127
127
127
131
104
50
2
0
12
27
2
0
0
0
0
0
0
0
0
0
0
0
0
0
0
0
0
0
0
0
1
48
123
127
127
127
127
127
127
127
127
127
127
127
128
126
87
19
0
0
7
45
102
128
127
127
127
127
127
129
129
127
127
127
127
127
127
127
127
127
127
127
127
127
127
127
127
127
127
127
127
127
127
127
127
127
127
127
127
127
127
127
127
127
127
127
127
127
127
127
127
127
127
127
127
127
127
127
127
127
127
127
118
191
255
255
255
255
255
255
255
255
255
255
255
255
228
155
123
127
127
127
128
124
146
142
122
69
3
0
0
0
0
0
0
0
0
0
0
0
0
0
0
0
0
0
0
0
0
23
123
127
127
127
127
127
127
127
127
127
127
127
127
128
126
96
35
0
35
99
109
112
113
114
116
117
122
117
114
119
120
121
121
121
121
121
122
122
122
122
122
122
123
123
123
123
123
123
123
123
123
123
124
124
124
124
124
125
125
125
125
125
125
126
126
126
126
126
126
126
127
127
127
127
127
127
127
127
127
127
118
191
255
255
255
255
255
255
255
255
255
255
255
255
255
189
118
127
127
127
127
127
127
127
150
44
0
0
0
0
0
0
0
0
0
0
0
0
0
0
0
0
0
0
0
0
0
16
126
127
127
127
127
127
127
127
127
127
127
127
127
127
127
127
109
