P2
# CREATOR: GIMP PNM Filter Version 1.1
128 32
255
0
0
0
0
0
0
0
0
0
0
0
0
0
0
0
0
0
0
0
0
0
0
0
0
0
0
0
0
0
0
0
0
0
0
0
0
0
0
0
0
104
220
48
38
160
124
70
134
71
120
111
123
64
2
0
1
40
60
35
30
127
127
127
119
187
255
247
250
253
255
187
118
127
127
127
127
127
127
127
127
127
127
127
127
127
127
127
127
127
128
125
85
22
0
0
0
0
0
0
0
0
0
0
0
0
0
0
0
0
0
0
0
0
0
0
0
0
0
0
0
0
0
0
0
0
0
0
0
0
0
0
0
0
0
0
0
0
0
0
0
0
0
0
0
0
0
0
0
0
0
0
0
0
0
0
0
0
0
0
0
0
0
0
0
0
0
0
0
133
164
8
4
121
141
93
161
93
119
87
121
63
6
51
21
69
185
127
21
127
127
127
127
130
133
129
161
193
194
158
122
127
127
127
127
127
127
127
127
127
127
127
127
127
127
127
127
127
127
127
127
90
24
0
0
0
0
0
0
0
0
0
0
0
0
0
0
0
0
0
0
0
0
0
0
0
0
0
0
0
0
0
0
0
0
0
0
0
0
0
0
0
0
0
0
0
0
0
0
0
0
0
0
0
0
0
0
0
0
0
0
0
0
0
0
0
0
0
0
0
0
0
0
0
0
0
0
73
119
5
3
121
182
129
122
125
129
134
126
62
19
161
76
70
179
122
20
127
127
127
127
130
133
133
136
138
139
134
128
127
127
127
127
127
127
127
127
127
127
127
127
127
127
127
127
127
127
127
127
127
102
27
0
0
0
0
0
0
0
0
0
0
0
0
0
0
0
0
0
0
0
0
0
0
0
0
0
0
0
0
0
0
0
0
0
0
0
0
0
0
0
0
0
0
0
0
0
0
0
0
0
0
0
0
0
0
0
0
0
0
0
0
0
0
0
0
0
0
0
0
0
0
0
0
0
14
105
8
0
64
122
73
65
66
121
176
120
63
54
26
107
78
130
69
16
127
127
127
119
187
255
247
247
246
250
223
155
123
127
127
127
127
127
127
127
127
127
127
127
127
127
127
127
127
127
127
127
127
127
112
34
0
0
0
0
0
0
0
0
0
0
0
0
0
0
0
0
0
0
0
0
0
0
0
0
0
0
0
0
0
0
0
0
0
0
0
0
0
0
0
0
0
0
0
0
0
0
0
0
0
0
0
0
0
0
0
0
0
0
0
0
0
0
0
0
0
0
0
0
0
0
1
22
34
8
1
0
6
58
60
54
6
11
61
11
7
61
63
75
123
166
63
16
127
127
127
118
191
255
255
255
255
255
255
189
118
127
127
127
127
127
127
127
127
127
127
127
127
127
127
127
127
127
127
127
127
127
128
112
56
7
0
0
0
0
0
0
0
0
0
0
0
0
0
0
0
0
0
0
0
0
0
0
0
0
0
0
0
0
0
0
0
0
0
0
0
0
0
0
0
0
0
0
0
0
0
0
0
0
0
0
0
0
0
0
0
0
0
0
0
0
0
0
0
0
0
0
0
1
38
110
53
1
0
0
0
3
4
4
0
0
1
0
2
59
115
113
64
15
4
14
127
127
127
118
191
255
255
255
255
255
255
190
117
127
127
127
127
127
127
127
127
127
127
127
127
127
127
127
127
127
127
127
127
127
127
128
126
71
14
0
0
0
0
0
0
0
0
0
0
0
0
0
0
0
0
0
0
0
0
0
0
0
0
0
0
0
0
0
0
0
0
0
0
0
0
0
0
0
0
0
0
0
0
0
0
0
0
0
0
0
0
0
0
0
0
0
0
0
0
0
0
0
0
0
21
77
123
128
82
5
0
0
0
0
0
0
0
0
0
0
0
4
9
9
3
0
0
14
127
127
127
118
191
255
255
255
255
255
255
193
120
127
127
127
127
127
127
127
127
127
127
127
127
127
127
127
127
127
127
127
127
127
127
127
127
124
92
26
1
0
0
0
0
0
0
0
0
0
0
0
0
0
0
0
0
0
0
0
0
0
0
0
0
0
0
0
0
0
0
0
0
0
0
0
0
0
0
0
0
0
0
0
0
0
0
0
0
0
0
0
0
0
0
0
0
0
0
0
0
0
3
34
105
127
127
127
106
9
0
0
1
5
16
25
20
13
14
31
38
35
18
5
0
0
0
15
127
127
127
118
191
255
255
255
255
255
255
228
155
123
127
127
127
127
127
127
127
127
127
127
127
127
127
127
127
127
127
127
127
127
127
122
126
127
127
108
46
1
0
0
0
0
0
0
0
0
0
0
0
0
0
0
0
0
0
0
0
0
0
0
0
0
0
0
0
0
0
0
0
0
0
0
0
0
0
0
0
0
0
0
0
0
0
0
0
0
0
0
0
0
0
0
0
0
0
0
0
16
72
113
127
127
127
127
108
8
0
0
14
89
114
120
118
109
109
121
122
122
115
63
2
0
0
15
127
127
127
118
191
255
255
255
255
255
255
255
189
118
127
127
127
127
127
127
127
127
127
127
127
127
127
127
127
127
127
127
127
124
87
48
48
55
96
126
112
41
2
0
0
0
0
0
0
0
0
0
0
0
0
0
0
0
0
0
0
0
0
0
0
0
0
0
0
0
0
0
0
0
0
0
0
0
0
0
0
0
0
0
0
0
0
0
0
0
0
0
0
0
0
0
0
0
0
5
37
92
128
128
127
127
127
127
109
19
9
10
28
118
127
127
127
127
127
127
127
127
127
87
30
20
16
31
127
127
127
118
189
255
255
255
255
255
255
255
191
118
127
127
127
127
127
127
127
127
127
127
127
127
127
127
127
127
127
127
127
111
23
0
0
2
34
120
127
119
58
5
0
0
0
0
0
0
0
0
0
0
0
0
0
0
0
0
0
0
0
0
0
0
0
0
0
0
0
0
0
0
0
0
0
0
0
0
0
0
0
0
0
0
0
0
0
0
0
0
0
0
0
0
0
1
21
78
120
127
127
127
127
127
127
127
127
127
127
127
127
127
127
127
127
127
127
127
127
127
127
127
127
127
127
127
127
127
127
123
155
224
251
247
247
247
247
255
187
119
127
127
127
127
127
127
127
127
127
127
127
127
127
127
127
127
127
127
126
91
3
0
0
0
5
88
126
128
122
73
11
0
0
0
0
0
0
0
0
0
0
0
0
0
0
0
0
0
0
0
0
0
0
0
0
0
0
0
0
0
0
0
0
0
0
0
0
0
0
0
0
0
0
0
0
0
0
0
0
0
0
0
3
40
100
125
128
127
127
127
127
127
127
127
127
127
127
127
127
127
127
127
127
127
127
127
127
127
127
127
127
127
127
127
127
127
127
127
128
132
134
134
134
134
135
136
131
126
127
127
127
127
127
127
127
127
127
127
127
127
127
127
127
127
127
127
126
110
6
0
0
0
1
50
124
127
128
124
87
25
0
0
0
0
0
0
0
0
0
0
0
0
0
0
0
0
0
0
0
0
0
0
0
0
0
0
0
0
0
0
0
0
0
0
0
0
0
0
0
0
0
0
0
0
0
0
0
0
0
17
61
111
127
127
127
127
127
127
127
127
127
127
127
127
127
127
127
127
127
127
127
127
127
127
127
127
127
127
127
127
127
127
127
127
127
127
128
129
128
128
128
128
126
123
124
126
127
127
127
127
127
127
127
127
127
127
127
127
127
127
127
127
127
127
126
99
7
0
0
0
0
33
122
127
127
127
127
96
29
1
0
0
0
0
0
0
0
0
0
0
0
0
0
0
0
0
0
0
0
0
0
0
0
0
0
0
0
0
0
0
0
0
0
0
0
0
0
0
0
0
0
0
0
0
0
0
20
93
125
128
127
127
127
127
127
127
127
127
127
127
127
127
127
127
127
127
127
127
127
127
127
127
127
127
127
127
127
127
127
127
127
127
127
123
159
196
191
191
191
195
163
131
136
130
126
127
127
127
127
127
127
127
127
127
127
127
127
127
127
127
127
127
126
103
46
3
0
0
0
24
122
127
127
127
127
127
111
35
0
0
0
0
0
0
0
0
0
0
0
0
0
0
0
0
0
0
0
0
0
0
0
0
0
0
0
0
0
0
0
0
0
0
0
0
0
0
0
0
0
0
0
0
10
58
106
127
127
127
127
127
127
127
127
127
127
127
127
127
127
127
127
127
127
127
127
127
127
127
127
127
127
127
127
127
127
127
127
127
127
127
127
118
190
255
252
252
252
252
250
247
255
189
120
127
127
127
127
127
127
127
127
127
127
127
127
127
127
127
127
127
127
117
64
4
0
0
3
54
122
127
127
127
127
127
127
111
50
2
0
0
0
0
0
0
0
0
0
0
0
0
0
0
0
0
0
0
0
0
0
0
0
0
0
0
0
0
0
0
0
0
0
0
0
0
0
0
0
0
1
28
80
120
128
127
127
127
127
127
127
127
127
127
127
127
127
127
127
127
127
127
127
127
127
127
127
127
127
127
127
127
127
127
127
127
127
127
127
127
127
118
191
255
255
255
255
255
255
255
255
228
155
123
127
127
127
127
127
127
127
127
127
127
127
127
127
127
127
127
127
125
109
8
0
0
2
23
74
125
127
127
127
127
127
128
121
57
5
0
0
0
0
0
0
0
0
0
0
0
0
0
0
0
0
0
0
0
0
0
0
0
0
0
0
0
0
0
0
0
0
0
0
0
0
0
0
8
43
101
127
127
127
127
127
127
127
127
127
127
127
127
127
127
127
127
127
127
127
127
127
127
127
127
127
127
127
127
127
127
127
127
127
127
127
127
127
127
127
118
191
255
255
255
255
255
255
255
255
255
189
118
127
127
127
127
127
127
127
126
127
127
127
127
127
127
127
127
127
127
139
56
1
0
0
0
16
99
127
127
127
127
127
127
127
122
76
12
0
0
0
0
0
0
0
0
0
0
0
0
0
0
0
0
0
0
0
0
0
0
0
0
0
0
0
0
0
0
0
0
0
0
0
0
16
75
119
127
127
127
127
127
127
127
127
127
127
127
127
127
127
127
127
127
127
127
127
127
127
127
127
127
127
127
127
127
127
127
127
127
127
127
127
127
127
127
127
118
191
255
255
255
255
255
255
255
255
255
190
117
127
127
127
127
103
65
97
69
122
127
127
127
127
127
127
127
127
127
122
32
1
0
0
0
0
44
123
127
127
127
127
127
127
128
124
85
23
0
0
0
0
0
0
0
0
0
0
0
0
0
0
0
0
0
0
0
0
0
0
0
0
0
0
0
0
0
0
0
0
0
3
42
95
124
127
127
127
127
127
127
127
127
127
127
127
127
127
127
127
127
127
127
127
127
127
127
127
127
127
127
127
127
127
127
127
127
127
127
127
127
127
127
127
127
127
118
191
255
255
255
255
255
255
255
255
255
193
120
127
127
127
126
41
8
33
107
126
127
127
127
127
127
127
127
127
126
57
2
0
0
0
0
0
6
54
96
105
111
118
127
127
127
127
127
99
30
0
0
0
0
0
0
0
0
0
0
0
0
0
0
0
0
0
0
0
0
0
0
0
0
0
0
0
0
0
0
0
16
62
111
127
127
127
127
127
127
127
127
127
127
127
127
127
127
127
127
127
127
127
127
127
127
127
127
127
127
127
127
127
127
127
127
127
127
127
127
127
127
127
127
127
127
127
118
191
255
255
255
255
255
255
255
255
255
228
155
123
127
124
69
0
0
17
123
127
127
127
127
127
127
127
128
114
72
4
0
0
0
0
0
0
0
4
25
31
36
47
110
127
127
127
127
127
103
37
3
0
0
0
0
0
0
0
0
0
0
0
0
0
0
0
0
0
0
0
0
0
0
0
0
0
0
0
2
24
89
123
127
127
127
127
127
127
127
127
127
127
127
127
127
127
127
127
127
127
127
127
127
127
127
127
127
127
127
127
127
127
127
127
127
127
127
127
127
127
127
127
127
127
127
127
118
191
255
255
255
255
255
255
255
255
255
255
189
118
127
126
53
1
0
35
124
127
127
127
127
127
121
86
78
38
4
0
0
0
0
0
0
0
0
0
0
0
0
0
44
118
127
127
127
127
127
116
50
2
0
0
0
0
0
0
0
0
0
0
0
0
0
0
0
0
0
0
0
0
0
0
0
0
0
8
55
106
126
127
127
127
127
127
127
127
127
127
127
127
127
127
127
127
127
127
127
127
127
127
127
127
127
127
127
127
127
127
127
127
127
127
127
127
127
127
127
127
127
127
127
127
127
127
118
191
255
255
255
255
255
255
255
255
255
255
193
120
127
126
91
6
0
18
109
127
127
127
128
155
49
17
0
0
0
0
0
0
0
0
0
0
0
0
0
0
0
0
2
84
125
127
127
127
127
127
116
51
4
0
0
0
0
0
0
0
0
0
0
0
0
0
0
0
0
0
0
0
0
0
0
1
27
84
122
128
127
127
127
127
127
127
127
127
127
127
127
127
127
127
127
127
127
127
127
127
127
127
127
127
127
127
127
127
127
127
127
127
127
127
127
127
127
127
127
127
127
127
127
127
127
127
118
191
255
255
255
255
255
255
255
255
255
255
225
152
123
121
43
1
0
1
53
125
127
127
130
196
15
0
0
0
0
0
0
0
0
0
0
0
0
0
0
0
0
0
1
27
115
127
127
127
127
127
128
124
67
8
0
0
0
0
0
0
0
0
0
0
0
0
0
0
0
0
0
0
0
0
4
40
102
126
127
127
127
127
127
127
127
127
127
127
127
127
127
127
127
127
127
127
127
127
127
127
127
127
127
127
127
127
127
127
127
127
127
127
127
127
127
127
127
127
127
127
127
127
127
127
127
127
118
190
255
252
252
252
252
252
252
252
252
255
227
156
122
123
60
2
0
0
9
87
126
127
137
155
8
0
0
0
0
0
0
0
0
0
0
0
0
0
0
0
0
0
0
5
102
127
127
127
127
127
127
128
125
83
17
1
0
0
0
0
0
0
0
0
0
0
0
0
0
0
0
0
2
9
57
117
127
127
127
127
127
127
127
127
127
127
127
127
127
127
127
127
127
127
127
127
127
127
127
127
127
127
127
127
127
127
127
127
127
127
127
127
127
127
127
127
127
127
127
127
127
127
127
127
127
127
123
159
196
191
191
191
191
191
191
191
191
191
193
157
123
127
120
14
0
0
0
22
114
147
174
41
1
0
0
0
0
0
0
0
0
0
0
0
0
0
0
0
0
0
0
6
89
125
127
127
127
127
127
127
128
126
96
36
0
0
0
0
0
0
0
0
0
0
0
0
0
0
0
5
47
91
125
128
127
127
127
127
127
127
127
127
127
127
127
127
127
127
127
127
127
127
127
127
127
127
127
127
127
127
127
127
127
127
127
127
127
127
127
127
127
127
127
127
127
127
127
127
127
127
127
127
127
127
127
128
129
128
129
129
129
129
129
129
129
129
130
128
126
127
125
80
3
0
0
1
40
63
49
0
0
0
0
0
0
0
0
0
0
0
0
0
0
0
0
0
0
0
0
4
77
124
127
127
127
127
127
127
127
127
127
108
29
0
0
0
0
0
0
0
0
0
0
0
0
0
7
55
116
128
128
127
127
127
127
127
127
127
127
127
127
127
127
127
127
127
127
127
127
127
127
127
127
127
127
127
127
127
127
127
127
127
127
127
127
127
127
127
127
127
127
127
127
127
127
127
127
127
127
127
127
127
127
128
132
135
132
129
129
129
129
129
129
129
129
130
129
127
127
130
32
0
0
0
0
0
0
0
0
0
0
0
0
0
0
0
0
0
0
0
0
0
0
0
0
0
0
1
30
121
127
127
127
127
127
127
127
127
127
127
111
58
5
0
0
0
0
0
0
0
0
0
3
29
83
119
127
127
127
127
127
127
127
127
127
127
127
127
127
127
127
127
127
127
127
127
127
127
127
127
127
127
127
127
127
127
127
127
127
127
127
127
127
127
127
127
127
127
127
127
127
127
127
127
127
127
127
127
127
127
123
155
224
255
219
187
191
191
191
191
191
191
191
196
159
123
127
127
98
6
0
0
0
0
0
0
0
0
0
0
0
0
0
0
0
0
0
0
0
0
0
0
0
0
0
0
7
111
127
127
127
127
127
127
127
127
127
127
128
123
57
3
0
0
0
0
0
0
0
3
46
109
128
128
127
127
127
127
127
127
127
127
127
127
127
127
127
127
127
127
127
127
127
127
127
127
127
127
127
127
127
127
127
127
127
127
127
127
127
127
127
127
127
127
127
127
127
127
127
127
127
127
127
127
127
127
127
127
118
189
255
255
254
252
252
252
252
252
252
252
252
255
189
118
127
127
123
75
3
0
0
0
0
0
0
0
0
0
0
0
0
0
0
0
0
0
0
0
0
0
0
0
0
0
4
79
125
127
127
127
127
127
127
127
127
127
127
127
122
64
9
0
0
0
0
1
20
75
118
127
127
127
127
127
127
127
127
127
127
127
127
127
127
127
127
127
127
127
127
127
127
127
127
127
127
127
127
127
127
127
127
127
127
127
127
127
127
127
127
127
127
127
127
127
127
127
127
127
127
127
127
127
127
127
127
127
118
191
255
255
255
255
255
255
255
255
255
255
255
255
193
120
127
127
127
131
104
50
2
0
12
27
2
0
0
0
0
0
0
0
0
0
0
0
0
0
0
0
0
0
0
0
1
48
123
127
127
127
127
127
127
127
127
127
127
127
128
126
87
19
0
0
7
45
102
128
127
127
127
127
127
129
129
127
127
127
127
127
127
127
127
127
127
127
127
127
127
127
127
127
127
127
127
127
127
127
127
127
127
127
127
127
127
127
127
127
127
127
127
127
127
127
127
127
127
127
127
127
127
127
127
127
127
127
118
191
255
255
255
255
255
255
255
255
255
255
255
255
228
155
123
127
127
127
128
124
146
142
122
69
3
0
0
0
0
0
0
0
0
0
0
0
0
0
0
0
0
0
0
0
0
23
123
127
127
127
127
127
127
127
127
127
127
127
127
128
126
96
35
0
35
99
109
112
113
114
116
117
122
117
114
119
120
121
121
121
121
121
122
122
122
122
122
122
123
123
123
123
123
123
123
123
123
123
124
124
124
124
124
125
125
125
125
125
125
126
126
126
126
126
126
126
127
127
127
127
127
127
127
127
127
127
118
191
255
255
255
255
255
255
255
255
255
255
255
255
255
189
118
127
127
127
127
127
127
127
150
44
0
0
0
0
0
0
0
0
0
0
0
0
0
0
0
0
0
0
0
0
0
16
126
127
127
127
127
127
127
127
127
127
127
127
127
127
127
127
109
