P2
# CREATOR: GIMP PNM Filter Version 1.1
128 32
255
0
0
0
0
0
0
0
0
0
0
0
0
0
0
0
0
0
0
0
0
0
0
0
0
0
0
0
0
0
0
0
0
0
0
0
0
0
0
0
0
0
0
0
0
7
48
102
126
127
127
127
127
127
127
127
127
127
127
127
127
127
127
127
119
187
255
247
250
253
255
187
118
127
127
127
127
127
127
127
127
127
127
127
127
127
127
127
127
127
128
125
85
22
0
0
0
0
0
0
0
0
0
0
0
0
0
0
0
0
0
0
0
0
0
0
0
0
0
0
0
0
0
0
0
0
0
0
0
0
0
0
0
0
0
0
0
0
0
0
0
0
0
0
0
0
0
0
0
0
0
0
0
0
0
0
0
0
0
0
0
0
0
0
0
0
0
0
0
0
0
0
12
72
118
127
127
127
127
127
127
127
127
127
127
127
127
127
127
127
127
127
127
130
133
129
161
193
194
158
122
127
127
127
127
127
127
127
127
127
127
127
127
127
127
127
127
127
127
127
127
90
24
0
0
0
0
0
0
0
0
0
0
0
0
0
0
0
0
0
0
0
0
0
0
0
0
0
0
0
0
0
0
0
0
0
0
0
0
0
0
0
0
0
0
0
0
0
0
0
0
0
0
0
0
0
0
0
0
0
0
0
0
0
0
0
0
0
0
0
0
0
0
0
0
0
0
0
1
34
94
126
127
127
127
127
127
127
127
127
127
127
127
127
127
127
127
127
127
127
127
130
133
133
136
138
139
134
128
127
127
127
127
127
127
127
127
127
127
127
127
127
127
127
127
127
127
127
127
127
102
27
0
0
0
0
0
0
0
0
0
0
0
0
0
0
0
0
0
0
0
0
0
0
0
0
0
0
0
0
0
0
0
0
0
0
0
0
0
0
0
0
0
0
0
0
0
0
0
0
0
0
0
0
0
0
0
0
0
0
0
0
0
0
0
0
0
0
0
0
0
0
0
0
0
12
64
115
127
127
127
127
127
127
127
127
127
127
127
127
127
127
127
127
127
127
127
127
119
187
255
247
247
246
250
223
155
123
127
127
127
127
127
127
127
127
127
127
127
127
127
127
127
127
127
127
127
127
127
112
34
0
0
0
0
0
0
0
0
0
0
0
0
0
0
0
0
0
0
0
0
0
0
0
0
0
0
0
0
0
0
0
0
0
0
0
0
0
0
0
0
0
0
0
0
0
0
0
0
0
0
0
0
0
0
0
0
0
0
0
0
0
0
0
0
0
0
0
0
0
0
1
22
86
122
127
127
127
127
127
127
127
127
127
127
127
127
127
127
127
127
127
127
127
127
127
118
191
255
255
255
255
255
255
189
118
127
127
127
127
127
127
127
127
127
127
127
127
127
127
127
127
127
127
127
127
127
128
112
56
7
0
0
0
0
0
0
0
0
0
0
0
0
0
0
0
0
0
0
0
0
0
0
0
0
0
0
0
0
0
0
0
0
0
0
0
0
0
0
0
0
0
0
0
0
0
0
0
0
0
0
0
0
0
0
0
0
0
0
0
0
0
0
0
0
0
0
0
1
38
110
127
127
127
127
127
127
127
127
127
127
127
127
127
127
127
127
127
127
127
127
127
127
127
118
191
255
255
255
255
255
255
190
117
127
127
127
127
127
127
127
127
127
127
127
127
127
127
127
127
127
127
127
127
127
127
128
126
71
14
0
0
0
0
0
0
0
0
0
0
0
0
0
0
0
0
0
0
0
0
0
0
0
0
0
0
0
0
0
0
0
0
0
0
0
0
0
0
0
0
0
0
0
0
0
0
0
0
0
0
0
0
0
0
0
0
0
0
0
0
0
0
0
0
0
21
77
123
128
127
127
127
127
127
127
127
127
127
127
127
127
127
127
127
127
127
127
127
127
127
127
127
118
191
255
255
255
255
255
255
193
120
127
127
127
127
127
127
127
127
127
127
127
127
127
127
127
127
127
127
127
127
127
127
127
127
124
92
26
1
0
0
0
0
0
0
0
0
0
0
0
0
0
0
0
0
0
0
0
0
0
0
0
0
0
0
0
0
0
0
0
0
0
0
0
0
0
0
0
0
0
0
0
0
0
0
0
0
0
0
0
0
0
0
0
0
0
0
0
0
0
6
51
120
136
160
133
127
128
129
123
88
84
60
64
73
88
98
105
123
127
127
127
127
127
127
127
127
127
127
118
191
255
255
255
255
255
255
228
155
123
127
127
127
127
127
127
127
127
127
127
127
127
127
127
127
127
127
127
127
127
127
122
126
127
127
108
46
1
0
0
0
0
0
0
0
0
0
0
0
0
0
0
0
0
0
0
0
0
0
0
0
0
0
0
0
0
0
0
0
0
0
0
0
0
0
0
0
0
0
0
0
0
0
0
0
0
0
0
0
0
0
0
0
0
0
0
0
17
105
211
226
228
184
172
124
122
116
64
8
6
2
3
3
5
6
11
88
127
127
127
127
127
127
127
127
127
127
118
191
255
255
255
255
255
255
255
189
118
127
127
127
127
127
127
127
127
127
127
127
127
127
127
127
127
127
127
127
124
87
48
48
55
96
126
112
41
2
0
0
0
0
0
0
0
0
0
0
0
0
0
0
0
0
0
0
0
0
0
0
0
0
0
0
0
0
0
0
0
0
0
0
0
0
0
0
0
0
0
0
0
0
0
0
0
0
0
0
0
0
0
0
0
0
5
37
83
157
41
29
81
80
79
76
67
14
2
0
0
0
0
0
0
0
0
48
123
127
127
127
127
127
127
127
127
127
118
189
255
255
255
255
255
255
255
191
118
127
127
127
127
127
127
127
127
127
127
127
127
127
127
127
127
127
127
127
111
23
0
0
2
34
120
127
119
58
5
0
0
0
0
0
0
0
0
0
0
0
0
0
0
0
0
0
0
0
0
0
0
0
0
0
0
0
0
0
0
0
0
0
0
0
0
0
0
0
0
0
0
0
0
0
0
0
0
0
0
0
0
0
1
21
78
120
111
130
173
176
180
182
183
179
122
60
4
0
0
0
0
0
0
0
0
14
110
127
127
127
127
127
127
127
127
127
123
155
224
251
247
247
247
247
255
187
119
127
127
127
127
127
127
127
127
127
127
127
127
127
127
127
127
127
127
126
91
3
0
0
0
5
88
126
128
122
73
11
0
0
0
0
0
0
0
0
0
0
0
0
0
0
0
0
0
0
0
0
0
0
0
0
0
0
0
0
0
0
0
0
0
0
0
0
0
0
0
0
0
0
0
0
0
0
0
0
0
0
0
3
40
100
125
126
155
133
188
195
193
187
189
190
137
121
63
10
8
8
4
0
0
0
0
4
75
126
127
127
127
127
127
127
127
127
127
128
132
134
134
134
134
135
136
131
126
127
127
127
127
127
127
127
127
127
127
127
127
127
127
127
127
127
127
126
110
6
0
0
0
1
50
124
127
128
124
87
25
0
0
0
0
0
0
0
0
0
0
0
0
0
0
0
0
0
0
0
0
0
0
0
0
0
0
0
0
0
0
0
0
0
0
0
0
0
0
0
0
0
0
0
0
0
0
0
0
0
17
61
111
127
127
121
166
145
191
192
189
142
139
185
181
131
123
120
120
117
60
6
0
0
0
4
40
122
127
127
127
127
127
127
127
127
127
128
129
128
128
128
128
126
123
124
126
127
127
127
127
127
127
127
127
127
127
127
127
127
127
127
127
127
127
126
99
7
0
0
0
0
33
122
127
127
127
127
96
29
1
0
0
0
0
0
0
0
0
0
0
0
0
0
0
0
0
0
0
0
0
0
0
0
0
0
0
0
0
0
0
0
0
0
0
0
0
0
0
0
0
0
0
0
0
0
0
20
93
128
130
127
127
108
228
249
245
200
192
235
184
129
131
128
128
129
130
122
69
55
4
0
4
48
20
115
127
124
118
116
127
127
127
127
123
159
196
191
191
191
195
163
131
136
130
126
127
127
127
127
127
127
127
127
127
127
127
127
127
127
127
127
127
126
103
46
3
0
0
0
24
122
127
127
127
127
127
111
35
0
0
0
0
0
0
0
0
0
0
0
0
0
0
0
0
0
0
0
0
0
0
0
0
0
0
0
0
0
0
0
0
0
0
0
0
0
0
0
0
0
0
0
0
10
58
106
133
191
168
102
123
87
235
254
202
226
142
192
129
76
118
129
128
128
123
70
63
61
4
0
0
4
7
101
114
55
21
27
107
127
127
127
118
190
255
252
252
252
252
250
247
255
189
120
127
127
127
127
127
127
127
127
127
127
127
127
127
127
127
127
127
127
117
64
4
0
0
3
54
122
127
127
127
127
127
127
111
50
2
0
0
0
0
0
0
0
0
0
0
0
0
0
0
0
0
0
0
0
0
0
0
0
0
0
0
0
0
0
0
0
0
0
0
0
0
0
0
0
0
1
28
80
120
128
180
248
232
69
68
118
192
184
125
77
76
223
87
108
74
119
124
129
123
65
63
56
4
0
0
0
4
59
35
13
8
0
47
127
127
127
118
191
255
255
255
255
255
255
255
255
228
155
123
127
127
127
127
127
127
127
127
127
127
127
127
127
127
127
127
127
125
109
8
0
0
2
23
74
125
127
127
127
127
127
128
121
57
5
0
0
0
0
0
0
0
0
0
0
0
0
0
0
0
0
0
0
0
0
0
0
0
0
0
0
0
0
0
0
0
0
0
0
0
0
0
0
8
43
101
127
127
127
231
250
136
9
4
70
172
84
75
102
25
180
126
69
61
65
70
121
124
71
59
7
0
0
4
0
0
17
120
177
116
7
28
127
127
127
118
191
255
255
255
255
255
255
255
255
255
189
118
127
127
127
127
127
127
127
126
127
127
127
127
127
127
127
127
127
127
139
56
1
0
0
0
16
99
127
127
127
127
127
127
127
122
76
12
0
0
0
0
0
0
0
0
0
0
0
0
0
0
0
0
0
0
0
0
0
0
0
0
0
0
0
0
0
0
0
0
0
0
0
0
16
75
119
127
127
127
127
242
245
121
3
0
14
132
190
182
79
74
178
130
69
66
64
59
68
124
122
63
2
0
22
117
16
4
117
189
193
125
7
21
127
127
127
118
191
255
255
255
255
255
255
255
255
255
190
117
127
127
127
127
103
65
97
69
122
127
127
127
127
127
127
127
127
127
122
32
1
0
0
0
0
44
123
127
127
127
127
127
127
128
124
85
23
0
0
0
0
0
0
0
0
0
0
0
0
0
0
0
0
0
0
0
0
0
0
0
0
0
0
0
0
0
0
0
0
0
3
42
95
124
127
127
127
127
127
230
192
70
0
0
58
175
242
237
127
172
132
126
124
125
124
73
73
125
126
63
0
11
169
232
114
9
121
190
190
123
7
16
127
127
127
118
191
255
255
255
255
255
255
255
255
255
193
120
127
127
127
126
41
8
33
107
126
127
127
127
127
127
127
127
127
126
57
2
0
0
0
0
0
6
54
96
105
111
118
127
127
127
127
127
99
30
0
0
0
0
0
0
0
0
0
0
0
0
0
0
0
0
0
0
0
0
0
0
0
0
0
0
0
0
0
0
0
16
62
111
127
127
127
127
127
127
127
85
175
68
2
0
9
68
81
122
29
116
76
123
125
128
182
190
177
132
124
63
11
55
71
78
69
15
61
124
186
124
7
14
127
127
127
118
191
255
255
255
255
255
255
255
255
255
228
155
123
127
124
69
0
0
17
123
127
127
127
127
127
127
127
128
114
72
4
0
0
0
0
0
0
0
4
25
31
36
47
110
127
127
127
127
127
103
37
3
0
0
0
0
0
0
0
0
0
0
0
0
0
0
0
0
0
0
0
0
0
0
0
0
0
0
0
2
24
89
123
127
127
127
127
127
127
127
127
23
114
66
3
0
3
53
71
119
67
58
65
117
71
69
134
234
143
124
120
67
57
58
8
60
118
109
5
22
180
128
7
14
127
127
127
118
191
255
255
255
255
255
255
255
255
255
255
189
118
127
126
53
1
0
35
124
127
127
127
127
127
121
86
78
38
4
0
0
0
0
0
0
0
0
0
0
0
0
0
44
118
127
127
127
127
127
116
50
2
0
0
0
0
0
0
0
0
0
0
0
0
0
0
0
0
0
0
0
0
0
0
0
0
0
8
55
106
126
127
127
127
127
127
127
127
127
127
15
10
52
5
0
0
11
109
123
113
22
62
64
58
57
66
129
117
66
63
55
13
54
10
53
64
62
16
120
186
122
7
14
127
127
127
118
191
255
255
255
255
255
255
255
255
255
255
193
120
127
126
91
6
0
18
109
127
127
127
128
155
49
17
0
0
0
0
0
0
0
0
0
0
0
0
0
0
0
0
2
84
125
127
127
127
127
127
116
51
4
0
0
0
0
0
0
0
0
0
0
0
0
0
0
0
0
0
0
0
0
0
0
1
27
84
122
128
127
127
127
127
127
127
127
127
127
127
16
0
3
0
0
0
0
8
11
68
116
113
10
4
4
7
54
12
3
3
3
3
60
61
14
12
66
124
178
125
62
3
15
127
127
127
118
191
255
255
255
255
255
255
255
255
255
255
225
152
123
121
43
1
0
1
53
125
127
127
130
196
15
0
0
0
0
0
0
0
0
0
0
0
0
0
0
0
0
0
1
27
115
127
127
127
127
127
128
124
67
8
0
0
0
0
0
0
0
0
0
0
0
0
0
0
0
0
0
0
0
0
4
40
102
126
127
127
127
127
127
127
127
127
127
127
127
127
17
0
0
0
0
0
0
0
1
55
67
60
3
0
0
0
2
0
0
0
0
3
64
123
122
120
121
119
68
9
3
0
15
127
127
127
118
190
255
252
252
252
252
252
252
252
252
255
227
156
122
123
60
2
0
0
9
87
126
127
137
155
8
0
0
0
0
0
0
0
0
0
0
0
0
0
0
0
0
0
0
5
102
127
127
127
127
127
127
128
125
83
17
1
0
0
0
0
0
0
0
0
0
0
0
0
0
0
0
0
2
9
57
117
127
127
127
127
127
127
127
127
127
127
127
127
127
127
22
0
0
0
0
0
0
0
0
4
3
3
0
0
0
0
0
0
0
0
0
3
59
118
123
119
64
10
2
0
0
0
16
127
127
127
123
159
196
191
191
191
191
191
191
191
191
191
193
157
123
127
120
14
0
0
0
22
114
147
174
41
1
0
0
0
0
0
0
0
0
0
0
0
0
0
0
0
0
0
0
6
89
125
127
127
127
127
127
127
128
126
96
36
0
0
0
0
0
0
0
0
0
0
0
0
0
0
0
5
47
91
125
128
127
127
127
127
127
127
127
127
127
127
127
127
127
127
54
2
0
0
0
0
0
0
0
0
0
0
0
0
0
0
0
0
0
0
0
0
4
8
8
7
3
0
0
0
0
0
17
127
127
127
127
128
129
128
129
129
129
129
129
129
129
129
130
128
126
127
125
80
3
0
0
1
40
63
49
0
0
0
0
0
0
0
0
0
0
0
0
0
0
0
0
0
0
0
0
4
77
124
127
127
127
127
127
127
127
127
127
108
29
0
0
0
0
0
0
0
0
0
0
0
0
0
7
55
116
128
128
127
127
127
127
127
127
127
127
127
127
127
127
127
127
127
93
6
0
0
0
0
0
0
0
0
0
0
0
0
0
0
0
0
0
0
0
0
0
0
0
0
0
0
0
0
0
0
18
127
127
127
127
128
132
135
132
129
129
129
129
129
129
129
129
130
129
127
127
130
32
0
0
0
0
0
0
0
0
0
0
0
0
0
0
0
0
0
0
0
0
0
0
0
0
0
0
1
30
121
127
127
127
127
127
127
127
127
127
127
111
58
5
0
0
0
0
0
0
0
0
0
3
29
83
119
127
127
127
127
127
127
127
127
127
127
127
127
127
127
127
127
127
127
101
7
0
0
0
0
0
0
1
3
7
15
12
9
7
4
2
10
20
24
30
36
22
10
5
2
0
0
0
0
0
0
19
127
127
127
123
155
224
255
219
187
191
191
191
191
191
191
191
196
159
123
127
127
98
6
0
0
0
0
0
0
0
0
0
0
0
0
0
0
0
0
0
0
0
0
0
0
0
0
0
0
7
111
127
127
127
127
127
127
127
127
127
127
128
123
57
3
0
0
0
0
0
0
0
3
46
109
128
128
127
127
127
127
127
127
127
127
127
127
127
127
127
127
127
127
127
127
112
11
0
0
0
0
0
12
44
71
100
113
111
107
103
76
60
101
118
120
121
122
119
107
87
46
2
0
0
0
0
0
21
127
127
127
118
189
255
255
254
252
252
252
252
252
252
252
252
255
189
118
127
127
123
75
3
0
0
0
0
0
0
0
0
0
0
0
0
0
0
0
0
0
0
0
0
0
0
0
0
0
4
79
125
127
127
127
127
127
127
127
127
127
127
127
122
64
9
0
0
0
0
1
20
75
118
127
127
127
127
127
127
127
127
127
127
127
127
127
127
127
127
127
127
127
127
127
103
6
0
0
0
0
1
57
120
125
127
127
127
127
127
126
124
127
127
127
127
127
127
127
126
83
3
0
0
0
0
0
21
127
127
127
118
191
255
255
255
255
255
255
255
255
255
255
255
255
193
120
127
127
127
131
104
50
2
0
12
27
2
0
0
0
0
0
0
0
0
0
0
0
0
0
0
0
0
0
0
0
1
48
123
127
127
127
127
127
127
127
127
127
127
127
128
126
87
19
0
0
7
45
102
128
127
127
127
127
127
129
129
127
127
127
127
127
127
127
127
127
127
127
127
127
127
127
103
9
1
1
1
1
3
57
125
127
127
127
127
127
127
127
127
127
127
127
127
127
127
127
127
88
12
5
5
4
4
3
25
127
127
127
118
191
255
255
255
255
255
255
255
255
255
255
255
255
228
155
123
127
127
127
128
124
146
142
122
69
3
0
0
0
0
0
0
0
0
0
0
0
0
0
0
0
0
0
0
0
0
23
123
127
127
127
127
127
127
127
127
127
127
127
127
128
126
96
35
0
35
99
109
112
113
114
116
117
122
117
114
119
120
121
121
121
121
121
122
122
122
122
122
122
123
123
108
54
49
50
50
50
51
78
122
124
124
124
124
125
125
125
125
125
125
126
126
126
126
126
126
119
101
93
87
82
76
73
90
127
127
127
118
191
255
255
255
255
255
255
255
255
255
255
255
255
255
189
118
127
127
127
127
127
127
127
150
44
0
0
0
0
0
0
0
0
0
0
0
0
0
0
0
0
0
0
0
0
0
16
126
127
127
127
127
127
127
127
127
127
127
127
127
127
127
127
109
