P2
# CREATOR: DMDpaint
128 32
255
255
255
255
255
255
255
255
255
255
255
255
255
255
255
255
255
255
255
255
255
255
255
255
255
255
255
255
255
255
255
255
255
255
255
255
255
255
255
255
255
255
255
255
255
255
255
255
255
255
255
255
255
255
255
255
255
255
255
255
255
255
255
255
255
255
255
255
255
255
255
255
255
255
255
255
255
255
255
255
255
255
255
255
255
255
255
255
255
255
255
255
255
255
255
255
255
255
255
255
255
255
255
255
255
255
255
255
255
255
255
255
255
255
255
255
255
255
255
255
255
255
255
255
255
255
255
255
255
255
255
255
255
255
255
255
255
255
255
255
168
168
168
168
168
168
168
255
255
255
255
255
255
255
255
255
255
255
255
255
255
255
255
255
255
255
255
255
255
255
255
255
255
255
255
255
255
255
255
255
255
255
255
255
255
255
255
255
255
255
255
255
255
255
255
255
255
255
255
255
255
255
255
255
255
255
255
255
255
255
255
255
255
255
255
255
255
255
255
255
255
255
255
255
255
255
255
255
255
255
255
255
255
255
255
255
255
255
255
255
255
255
255
255
255
255
255
255
255
255
255
255
255
255
255
255
255
255
255
168
255
255
168
255
255
168
255
255
84
84
84
168
51
51
84
84
168
255
255
255
168
255
255
255
168
255
255
255
255
255
255
255
255
255
255
255
255
255
255
255
255
255
255
255
255
255
255
255
255
255
255
255
255
255
255
255
255
255
255
255
255
255
255
255
255
255
255
255
255
255
255
255
255
255
255
255
255
255
255
255
255
255
255
255
255
255
255
255
255
255
255
255
255
255
255
255
255
255
255
255
255
255
255
255
255
255
255
255
255
255
255
255
255
255
255
255
255
255
255
255
255
255
255
255
255
255
255
255
255
255
255
255
255
255
255
84
84
84
84
84
84
84
84
84
84
168
255
255
255
255
255
255
255
255
255
255
168
255
255
255
255
255
168
255
255
255
255
255
168
255
255
255
255
255
168
255
255
255
255
255
168
255
255
255
255
255
168
255
255
255
255
255
168
255
255
255
255
255
168
255
255
255
255
255
168
255
255
255
255
255
168
255
255
255
255
255
168
255
255
255
255
255
168
255
255
255
255
255
168
255
255
255
255
255
168
255
255
255
255
255
168
255
255
255
255
255
168
255
255
255
255
255
255
255
255
255
255
168
255
255
168
255
168
51
84
168
84
51
84
84
84
84
84
84
168
255
255
255
168
255
255
255
255
255
255
255
255
168
255
255
255
255
255
168
255
255
255
255
255
168
255
255
255
255
255
168
255
255
255
255
255
168
255
255
255
255
255
168
255
255
255
255
255
168
255
255
255
255
255
168
255
255
255
255
255
168
255
255
255
255
255
168
255
255
255
255
255
168
255
255
255
255
255
168
255
255
255
255
255
168
255
255
255
255
255
168
255
255
255
255
255
168
255
255
255
255
255
168
255
255
255
255
255
255
255
255
255
255
255
255
168
51
84
84
84
51
84
84
84
84
84
84
84
255
255
255
255
255
255
168
255
255
255
255
255
255
255
255
255
255
255
255
255
255
255
255
255
255
255
255
255
255
255
255
255
255
255
255
255
255
255
255
255
255
255
255
255
255
255
255
255
255
255
255
255
255
255
255
255
255
255
255
255
255
255
255
255
255
255
255
255
255
255
255
255
255
255
255
255
255
255
255
255
255
255
255
255
255
255
255
255
255
255
255
255
255
255
255
255
255
255
255
255
255
255
255
255
255
255
255
255
168
255
255
255
255
255
255
168
84
84
168
84
84
84
84
84
84
51
84
84
168
255
255
255
255
255
255
255
255
255
255
255
255
255
255
168
255
255
255
255
255
255
168
255
255
255
255
255
168
255
255
255
255
255
168
255
255
255
255
255
168
255
255
255
255
255
168
255
255
255
255
255
168
255
255
255
255
255
168
255
255
255
255
255
168
255
255
255
255
255
168
255
255
255
255
255
168
255
255
255
255
255
168
255
255
255
255
255
168
255
255
255
255
255
168
255
255
255
255
255
255
255
255
255
255
255
255
255
255
255
168
255
255
255
255
51
84
84
84
84
84
84
84
84
84
84
84
84
84
255
255
255
255
255
255
255
255
168
255
255
255
255
255
255
255
255
255
168
255
255
255
255
255
255
255
255
255
255
255
255
255
255
255
255
255
255
255
255
255
255
255
255
255
255
255
255
255
255
255
255
255
255
255
255
255
255
255
255
255
255
255
255
255
255
255
255
255
255
255
255
255
255
255
255
255
255
255
255
255
255
255
255
255
255
255
255
255
255
255
255
255
255
255
255
255
255
168
255
255
168
255
255
255
255
255
255
255
255
255
255
168
255
168
84
84
51
84
168
84
84
84
84
168
84
84
84
168
168
255
255
168
255
255
255
255
255
255
255
168
255
255
255
255
255
255
255
255
255
255
255
255
168
255
255
255
255
255
168
255
255
255
255
255
168
255
255
255
255
255
168
255
255
255
255
255
168
255
255
255
255
255
168
255
255
255
255
255
168
255
255
255
255
255
168
255
255
255
255
255
168
255
255
255
255
255
168
255
255
255
255
255
168
255
255
255
255
255
168
255
255
255
255
255
255
255
255
255
255
255
255
168
255
255
255
168
255
255
255
255
255
255
84
51
84
84
168
84
84
84
84
168
84
84
168
84
255
255
255
255
255
255
255
255
255
255
255
255
255
255
255
168
255
255
255
255
255
168
255
255
255
255
255
168
255
255
255
255
255
168
255
255
255
255
255
168
255
255
255
255
255
168
255
255
255
255
255
168
255
255
255
255
255
168
255
255
255
255
255
168
255
255
255
255
255
168
255
255
255
255
255
168
255
255
255
255
255
168
255
255
255
255
255
168
255
255
255
255
255
168
255
255
255
255
255
255
255
255
255
255
255
255
255
255
255
255
255
255
255
255
84
84
84
168
168
168
84
84
168
84
84
84
168
84
255
255
255
255
255
168
255
255
255
255
255
255
255
255
168
255
255
255
168
255
255
255
255
255
255
255
255
255
255
255
255
255
255
255
255
255
255
255
255
255
255
255
255
255
255
255
255
255
255
255
255
255
255
255
255
255
255
255
255
255
255
255
255
255
255
255
255
255
255
255
255
255
255
255
255
255
255
255
255
255
255
255
255
255
255
255
255
255
255
255
255
255
255
255
255
255
168
255
255
168
255
255
255
255
255
255
255
255
255
168
255
255
255
255
84
84
84
84
168
168
168
168
168
168
168
84
168
84
255
255
255
255
255
255
255
255
168
255
255
255
255
255
255
255
255
255
255
255
255
255
255
255
168
255
255
255
255
255
168
255
255
255
255
255
168
255
255
255
255
255
168
255
255
255
255
255
168
255
255
255
255
255
168
255
255
255
255
255
168
255
255
255
255
255
168
255
255
255
255
255
168
255
255
255
255
255
168
255
255
255
255
255
168
255
255
255
255
255
168
255
255
255
255
255
255
255
255
255
255
255
168
255
255
255
255
255
255
255
255
168
255
255
84
51
51
84
168
168
168
168
168
168
168
168
84
168
255
255
255
255
255
255
255
255
255
255
255
255
255
255
255
255
255
255
255
255
255
255
255
255
255
255
255
255
255
255
255
255
255
255
255
255
255
255
255
255
255
255
255
255
255
255
255
255
255
255
255
255
255
255
255
255
255
255
255
255
255
255
255
255
255
255
255
255
255
255
255
255
255
255
255
255
255
255
255
255
255
255
255
255
255
255
255
255
255
255
255
255
255
255
255
255
255
255
255
255
255
255
255
255
255
255
255
168
255
255
255
255
255
255
84
51
51
84
168
168
168
168
168
168
84
84
168
168
255
255
255
168
255
255
255
255
255
255
255
168
255
255
255
255
168
255
255
255
168
255
255
255
255
255
168
255
255
255
255
255
168
255
255
255
255
255
168
255
255
255
255
255
168
255
255
255
255
255
168
255
255
255
255
255
168
255
255
255
255
255
168
255
255
255
255
255
168
255
255
255
255
255
168
255
255
255
255
255
168
255
255
255
255
255
168
255
255
255
255
255
168
255
255
168
255
255
255
255
168
255
255
255
255
255
255
255
255
255
255
255
255
168
51
84
84
84
168
84
84
51
168
84
51
51
51
168
255
255
255
255
255
255
168
255
255
255
255
255
255
255
168
255
255
255
255
255
255
255
168
255
255
255
255
255
255
168
255
255
255
255
255
168
255
255
255
255
255
168
255
255
255
255
255
168
255
255
255
255
255
168
255
255
255
255
255
168
255
255
255
255
255
168
255
255
255
255
255
168
255
255
255
255
255
168
255
255
255
255
255
168
255
255
255
255
255
168
255
255
255
255
255
255
255
255
255
255
255
255
255
255
255
255
255
255
255
168
255
255
168
84
51
51
168
168
84
51
51
51
51
51
51
51
51
168
255
255
255
255
255
255
255
255
255
168
255
255
255
255
255
255
255
255
255
168
255
255
255
255
255
255
255
255
255
255
255
255
255
255
255
255
255
255
255
255
255
255
255
255
255
255
255
255
255
255
255
255
255
255
255
255
255
255
255
255
255
255
255
255
255
255
255
255
255
255
255
255
255
255
255
255
255
255
255
255
255
255
255
255
255
255
255
255
255
255
255
255
255
255
255
255
255
168
255
255
255
255
255
255
255
255
255
255
255
255
255
255
168
84
84
51
51
84
168
84
51
51
168
168
51
51
84
168
255
255
255
255
255
255
255
255
255
255
255
255
255
255
255
255
255
255
255
255
255
255
255
255
255
168
255
255
255
255
255
255
168
255
255
255
255
255
168
255
255
255
255
255
168
255
255
255
255
255
168
255
255
255
255
255
168
255
255
255
255
255
168
255
255
255
255
255
168
255
255
255
255
255
168
255
255
255
255
255
168
255
255
255
255
255
168
255
255
255
255
255
255
168
255
255
255
255
255
255
168
255
255
255
255
255
255
168
255
255
255
255
168
51
84
51
51
84
168
84
51
84
168
168
168
168
84
51
168
168
255
255
255
168
255
255
255
255
255
255
255
255
168
255
255
255
255
255
255
255
255
255
255
255
255
255
168
255
255
255
255
255
255
255
255
255
255
255
255
255
255
255
255
255
255
255
255
255
255
255
255
255
255
255
255
255
255
255
255
255
255
255
255
255
255
255
255
255
255
255
255
255
255
255
255
255
255
255
255
255
255
255
255
255
255
255
255
255
168
255
255
255
255
255
255
255
255
255
255
255
255
168
255
255
255
255
255
255
255
255
168
51
84
51
51
84
168
168
168
168
168
168
84
168
51
51
84
84
255
255
255
255
255
255
255
255
255
255
255
255
255
255
255
168
255
255
168
255
255
255
255
255
255
255
255
255
255
255
255
255
168
255
255
255
255
255
168
255
255
255
255
255
168
255
255
255
255
255
168
255
255
255
255
255
168
255
255
255
255
255
168
255
255
255
255
255
168
255
255
255
255
255
168
255
255
255
255
255
168
255
255
255
255
255
255
255
255
255
255
255
255
255
168
255
255
255
255
255
255
255
255
255
255
255
255
255
168
255
255
84
84
51
51
84
168
168
168
168
84
84
168
168
51
51
51
51
168
255
255
255
255
255
255
255
168
255
255
255
255
255
255
255
255
255
255
255
255
168
255
255
255
255
255
255
255
168
255
255
255
255
255
168
255
255
255
255
255
168
255
255
255
255
255
168
255
255
255
255
255
168
255
255
255
255
255
168
255
255
255
255
255
168
255
255
255
255
255
168
255
255
255
255
255
168
255
255
255
255
255
168
255
255
168
255
255
255
255
255
255
255
255
255
255
168
255
255
255
255
255
255
255
168
255
255
255
255
255
84
84
84
51
51
168
84
168
168
84
84
168
51
51
51
51
51
51
255
255
255
255
168
255
255
255
255
255
255
168
255
255
255
255
255
255
255
255
255
255
255
168
255
255
255
255
255
255
255
255
255
255
255
255
255
255
255
255
255
255
255
255
255
255
255
255
255
255
255
255
255
255
255
255
255
255
255
255
255
255
255
255
255
255
255
255
255
255
255
255
255
255
255
255
255
255
255
255
255
255
255
255
255
255
255
255
168
255
255
168
255
255
255
255
255
255
255
168
255
255
255
255
255
255
255
255
255
84
51
84
84
84
51
84
168
84
168
168
168
84
51
51
51
51
84
51
255
255
255
255
255
255
255
255
255
255
255
255
255
168
255
255
168
255
255
255
255
255
255
255
255
255
168
255
255
255
255
255
168
255
255
255
255
255
168
255
255
255
255
255
168
255
255
255
255
255
168
255
255
255
255
255
168
255
255
255
255
255
168
255
255
255
255
255
168
255
255
255
255
255
168
255
255
255
255
255
168
255
255
255
255
255
255
255
255
255
255
255
255
255
255
255
255
255
255
255
255
255
255
255
255
255
255
255
168
84
51
51
84
84
84
51
84
168
84
84
84
51
51
51
51
51
84
51
51
168
168
255
255
255
255
255
255
255
255
255
255
255
255
255
255
255
255
168
255
255
255
255
255
255
255
255
255
255
255
255
255
255
255
255
168
255
255
255
255
255
168
255
255
255
255
255
168
255
255
255
255
255
168
255
255
255
255
255
168
255
255
255
255
255
168
255
255
255
255
255
168
255
255
255
255
255
168
255
255
255
255
255
168
255
255
255
255
255
255
255
255
255
168
255
255
255
255
255
255
255
255
255
255
255
168
168
51
51
51
51
51
51
84
84
84
168
84
84
84
51
51
51
51
51
84
84
51
51
84
168
255
255
255
255
255
255
168
255
255
255
255
255
255
255
255
255
255
255
168
255
255
255
255
255
255
168
255
255
255
255
255
255
255
255
255
255
255
255
255
255
255
255
255
255
255
255
255
255
255
255
255
255
255
255
255
255
255
255
255
255
255
255
255
255
255
255
255
255
255
255
255
255
255
255
255
255
255
255
255
255
255
255
255
168
255
255
255
255
255
255
255
255
255
168
255
255
255
255
255
255
255
168
84
51
51
51
84
84
51
51
51
84
84
84
168
168
168
51
51
51
51
51
84
84
84
51
51
51
168
255
255
255
255
255
255
255
255
255
255
168
255
255
255
255
255
255
255
255
255
168
255
255
255
255
255
255
168
255
255
255
255
255
255
255
255
255
255
255
255
255
255
255
255
255
255
255
255
255
255
255
255
255
255
255
255
255
255
255
255
255
255
255
255
255
255
255
255
255
255
255
255
255
255
255
255
255
255
255
255
255
255
255
255
255
168
255
255
255
255
255
255
255
255
255
255
255
255
255
168
51
51
84
51
51
51
84
84
51
51
51
51
84
84
168
84
51
51
51
51
51
84
84
84
51
84
51
51
168
255
255
255
255
255
255
255
168
255
255
255
255
255
255
168
255
255
255
255
255
255
255
255
255
255
255
255
255
255
168
255
255
255
168
255
255
168
255
255
168
255
255
168
255
255
168
255
255
168
255
255
168
255
255
168
255
255
168
255
255
168
255
255
168
255
255
168
255
255
168
255
255
168
255
255
255
168
255
255
255
255
255
255
255
255
255
168
255
255
255
255
255
255
168
255
255
255
168
51
51
84
84
51
84
84
84
84
84
51
51
51
84
51
51
51
51
51
51
84
51
84
84
51
84
84
51
51
84
255
255
255
168
255
255
255
255
255
255
255
255
255
255
255
255
255
255
255
255
255
255
168
255
255
255
255
255
255
255
255
255
255
255
255
255
255
255
255
255
255
255
255
255
255
255
255
255
255
255
255
255
255
255
255
255
255
255
255
255
255
255
255
255
255
255
255
255
255
255
255
255
255
255
255
255
255
255
255
168
255
255
255
255
255
255
255
255
255
168
255
255
255
255
255
255
255
84
51
84
84
84
51
51
51
84
84
51
84
51
84
51
51
51
51
51
51
51
84
51
84
84
84
84
51
51
84
51
168
255
255
255
255
168
255
255
255
255
255
168
255
255
255
255
255
255
168
255
255
255
255
255
255
168
255
255
255
255
255
255
168
255
255
255
255
255
255
255
255
255
255
255
255
255
255
255
255
255
255
255
255
255
255
255
255
255
255
255
255
255
255
255
255
255
255
255
255
255
255
255
255
255
168
255
255
255
255
255
255
255
168
255
255
255
255
255
255
255
255
255
255
255
255
255
168
51
51
84
84
84
84
84
51
84
84
51
84
51
84
84
51
84
84
51
51
51
51
51
84
84
84
84
51
51
84
51
84
255
255
255
255
255
255
255
255
255
255
255
255
255
168
255
255
255
255
255
255
255
255
255
255
255
255
255
168
255
255
255
255
255
255
255
255
255
168
255
255
255
255
255
168
255
255
255
255
255
168
255
255
255
255
255
168
255
255
255
255
255
168
255
255
255
255
255
168
255
255
255
255
255
255
255
255
255
255
255
255
255
255
255
255
168
255
255
255
255
255
168
255
255
255
255
168
51
84
84
84
84
84
84
51
84
84
51
84
51
84
84
51
84
84
51
51
51
51
51
84
84
84
84
51
51
84
51
51
168
255
255
255
255
255
255
168
255
255
255
255
255
255
255
255
255
255
255
255
168
255
255
255
255
255
255
255
255
255
255
255
255
255
168
255
255
255
255
255
168
255
255
255
255
255
168
255
255
255
255
255
168
255
255
255
255
255
168
255
255
255
255
255
168
255
255
255
255
255
168
255
255
255
255
168
255
255
168
255
255
255
255
255
255
255
255
168
255
255
255
255
255
255
255
84
51
84
84
84
84
51
84
51
84
84
51
84
51
84
84
84
84
84
51
51
51
51
84
51
84
84
84
51
51
84
51
84
51
168
255
255
255
255
255
255
255
255
255
255
255
255
255
255
168
255
255
255
255
255
255
168
255
255
255
255
255
255
168
255
255
255
255
255
255
255
255
255
255
255
255
255
255
255
255
255
255
255
255
255
255
255
255
255
255
255
255
255
255
255
255
255
255
255
255
255
255
255
255
255
255
255
255
255
255
255
255
255
255
255
255
255
255
255
255
255
255
255
255
255
168
255
255
84
84
84
84
51
84
84
84
51
84
84
51
84
84
51
84
84
51
51
84
84
51
51
84
51
84
84
84
51
51
84
51
84
51
168
255
255
255
168
255
255
255
255
168
255
255
168
255
255
255
255
255
255
255
255
255
255
255
255
168
255
255
255
255
255
255
255
255
255
255
168
255
255
255
255
255
255
168
255
255
255
255
255
168
255
255
255
255
255
168
255
255
255
255
255
168
255
255
255
255
255
255
255
255
255
255
255
255
255
255
255
255
255
255
168
255
255
255
255
255
255
255
255
255
255
255
255
255
