P2
# CREATOR: GIMP PNM Filter Version 1.1
128 32
255
34
34
35
35
34
31
16
15
15
16
19
34
35
34
33
28
17
5
0
0
17
33
36
4
1
1
1
1
1
1
1
1
1
1
11
29
36
36
37
37
37
37
36
35
34
33
29
24
9
1
4
9
4
0
1
0
0
0
0
0
16
39
21
2
9
38
51
36
34
35
36
35
35
31
25
3
1
4
1
0
9
24
27
29
30
31
31
31
31
31
31
31
31
31
31
30
29
28
24
4
0
4
14
16
35
31
0
0
0
0
0
0
0
0
0
0
0
0
0
0
0
0
0
0
0
0
0
0
24
28
33
39
39
37
37
37
36
36
36
36
36
36
38
33
31
19
5
9
28
36
17
1
0
0
3
6
10
13
15
16
19
11
1
11
20
21
21
21
21
23
25
29
31
34
35
33
26
11
1
0
1
6
21
31
29
13
8
6
26
30
32
34
35
37
38
40
37
31
26
21
7
34
34
26
3
0
0
9
26
32
34
36
38
39
39
40
40
40
40
40
40
39
39
39
37
35
33
27
8
0
4
19
20
19
18
16
20
39
33
0
0
0
0
0
0
0
0
0
0
0
0
0
0
0
0
0
3
0
0
1
25
30
35
37
38
38
38
37
34
32
29
25
36
34
19
16
34
29
6
0
27
41
44
50
52
53
54
52
51
37
11
1
0
0
0
0
0
0
0
0
0
0
1
26
34
29
21
16
16
25
34
35
37
35
35
35
35
36
20
17
19
17
13
6
1
1
1
1
1
7
35
34
26
3
10
28
34
24
6
4
4
4
4
4
4
4
4
4
4
4
4
4
4
5
32
35
24
8
0
0
2
6
11
19
21
20
19
19
17
16
16
19
22
30
30
30
30
30
30
29
28
27
26
25
4
8
0
0
0
0
0
3
5
5
5
5
3
2
0
5
16
31
36
35
36
21
1
13
44
54
57
58
59
59
53
49
47
53
39
15
15
23
26
26
26
24
19
15
11
6
0
2
26
37
39
38
36
35
29
14
1
18
25
31
35
9
4
1
1
1
0
0
0
8
15
21
11
1
7
36
34
31
32
35
26
5
0
0
0
0
0
0
0
0
0
0
0
0
0
0
0
0
5
34
35
26
9
1
0
0
0
0
1
5
8
13
16
19
20
20
21
20
20
20
20
20
20
19
19
17
16
14
19
44
45
13
6
0
0
0
0
0
0
0
0
0
0
0
0
17
34
36
39
1
2
28
54
39
23
18
12
10
4
3
12
50
54
46
44
54
56
57
57
57
56
54
52
46
13
0
4
9
15
19
24
22
10
1
0
0
0
0
0
0
0
22
31
32
38
45
51
53
53
51
36
5
1
7
36
39
40
26
5
0
15
41
46
47
48
48
48
48
48
48
48
48
48
46
43
6
0
5
29
36
36
34
29
22
12
2
0
0
0
0
0
0
0
1
3
3
3
3
3
3
3
3
3
3
2
5
48
55
49
54
52
45
37
31
26
24
21
24
26
29
30
24
6
1
17
34
28
9
4
52
53
24
1
1
1
0
0
0
3
11
50
55
53
41
33
31
31
34
37
41
46
54
50
12
1
0
0
0
0
0
1
7
31
49
24
16
11
6
41
50
54
56
57
59
54
45
38
44
54
43
5
1
4
5
5
3
0
16
45
54
56
58
59
59
59
59
59
59
59
59
58
57
54
45
6
1
10
26
33
39
39
38
36
34
30
25
20
11
6
4
0
0
0
0
0
0
0
0
0
0
0
0
0
0
56
59
53
54
57
57
57
56
55
55
55
55
55
55
53
46
29
8
3
2
0
0
7
57
42
1
9
36
42
51
57
60
2
3
12
48
41
9
0
0
0
0
0
0
7
41
56
53
47
42
36
31
25
19
19
39
54
57
55
56
56
55
56
58
22
14
9
2
2
1
3
19
54
54
43
5
0
0
0
0
16
46
55
39
10
6
6
6
6
6
6
6
6
6
6
9
51
56
46
14
0
0
0
3
11
20
36
40
39
39
37
36
35
34
34
32
29
26
26
25
25
25
26
26
25
26
21
7
46
45
43
14
15
24
44
54
58
59
59
59
59
59
58
56
52
30
9
0
0
1
18
54
3
1
31
72
74
75
77
73
62
1
3
8
14
4
16
26
26
26
21
14
2
5
44
59
59
58
57
57
57
56
55
56
57
26
9
32
38
46
51
9
1
0
0
7
17
24
16
3
12
53
53
48
47
47
47
47
50
55
39
8
0
0
0
0
0
0
0
0
0
0
0
0
8
51
55
41
18
9
0
0
0
0
1
5
9
15
24
31
35
39
39
39
39
39
39
39
39
38
38
38
36
35
32
27
9
24
9
1
1
0
0
0
5
8
9
11
11
10
13
27
54
56
31
29
38
46
51
54
20
4
72
72
49
36
29
66
74
62
0
2
2
21
59
74
74
74
74
62
21
1
0
4
9
15
20
26
33
40
49
51
23
3
0
0
0
0
0
0
0
61
70
72
72
71
51
6
3
11
52
58
59
59
59
59
59
39
8
0
22
59
64
65
65
65
65
65
65
64
61
9
0
15
43
56
55
54
49
40
30
9
0
0
0
0
1
1
1
1
1
6
9
11
13
14
15
14
13
11
9
11
26
34
0
4
0
0
26
16
3
0
0
0
0
0
0
0
1
4
26
54
57
54
57
57
58
50
1
19
76
51
2
1
4
21
67
71
1
7
11
57
74
67
59
61
65
74
67
21
0
0
0
0
0
0
0
1
8
19
1
0
35
31
33
23
14
14
70
77
69
60
52
60
73
59
6
2
9
8
8
8
8
8
8
4
0
22
63
75
77
78
78
78
78
78
78
78
76
64
19
1
14
43
51
59
58
57
55
53
50
44
36
28
15
9
4
0
0
0
0
0
0
0
0
0
0
0
0
1
4
27
5
8
9
45
57
64
74
64
55
49
46
44
44
42
31
11
6
26
54
58
48
25
15
4
0
27
76
2
8
37
21
4
60
72
67
67
50
76
66
23
1
1
9
56
74
72
64
62
57
49
42
34
24
15
5
0
0
41
68
77
76
75
74
74
74
55
3
3
4
25
71
71
8
0
0
0
0
0
0
0
0
0
22
62
75
53
14
9
9
9
9
9
9
11
69
74
54
17
0
0
1
8
18
27
46
57
59
58
57
55
54
54
53
51
46
46
40
37
36
34
34
35
36
37
33
13
1
5
3
19
61
71
75
75
78
77
77
77
77
77
76
74
66
41
11
6
10
4
0
1
1
0
7
36
77
0
25
87
36
2
60
77
77
72
71
74
26
1
7
9
1
6
57
76
77
77
77
77
76
75
73
63
39
3
43
72
79
41
45
43
49
59
52
1
11
36
21
4
69
72
63
43
42
59
63
64
64
64
63
51
31
68
52
10
0
0
0
0
0
0
0
1
21
58
74
57
11
0
0
0
0
1
1
2
9
16
24
38
46
53
59
59
58
57
57
57
57
57
57
57
57
56
52
46
14
1
3
21
67
76
54
60
21
16
24
31
36
39
41
49
67
68
41
11
0
0
1
17
32
59
70
73
78
0
26
89
39
2
17
15
9
71
76
73
16
3
59
85
19
0
0
69
41
27
27
33
42
52
62
72
74
42
56
75
41
9
1
0
0
16
18
0
41
87
10
3
69
77
77
73
73
77
77
77
77
77
77
74
66
73
49
5
29
75
80
80
80
48
41
21
1
24
74
74
72
63
53
44
32
14
6
0
0
0
1
1
1
1
2
5
9
15
16
18
19
22
22
19
18
22
41
54
46
14
6
24
67
77
37
11
1
0
0
0
0
0
2
11
36
66
68
53
54
62
73
69
67
77
72
57
7
0
26
89
38
1
1
1
4
6
68
17
0
7
64
87
27
5
0
5
6
3
1
0
1
2
12
39
77
75
75
79
27
2
44
75
25
2
0
1
81
87
10
2
11
11
33
72
72
37
9
6
11
11
23
59
74
74
49
5
32
85
92
92
92
91
89
63
4
10
69
78
77
77
76
76
73
67
70
64
56
46
36
19
12
4
0
0
0
1
0
0
0
0
0
0
0
2
10
41
54
46
6
26
67
77
32
6
0
54
64
57
50
45
34
14
9
36
67
77
77
78
77
66
72
35
4
3
0
0
29
89
36
8
53
74
11
4
69
17
4
71
92
92
91
89
11
1
4
28
42
40
30
19
6
1
36
77
78
31
4
0
54
87
32
3
0
1
81
87
10
0
0
0
3
31
16
1
0
0
0
0
1
9
57
74
49
5
4
10
11
43
62
82
88
77
5
0
31
24
25
33
39
49
65
74
76
77
77
76
74
73
72
72
69
63
42
37
48
51
51
49
49
50
44
19
3
7
41
54
9
30
68
78
29
5
4
73
89
92
91
89
79
50
14
14
30
23
14
6
4
26
30
2
8
33
48
3
31
89
36
46
84
36
1
10
69
17
4
67
89
91
87
90
12
1
45
69
82
88
88
77
48
3
1
36
74
25
2
54
84
91
84
80
14
1
81
87
43
69
77
54
8
1
0
9
58
82
86
68
21
2
9
64
72
44
4
0
0
5
31
69
86
64
6
0
5
5
1
1
1
2
12
38
77
25
25
34
51
62
69
76
78
77
73
70
75
77
77
77
77
77
72
61
23
2
7
41
11
59
69
78
22
4
11
79
90
44
31
51
79
75
24
3
3
0
1
1
11
8
3
10
72
88
82
14
35
89
60
79
46
3
1
59
75
22
1
4
63
87
26
4
2
16
65
84
71
60
70
83
88
51
2
8
70
25
2
61
89
92
92
90
16
1
81
91
86
89
91
88
39
1
1
77
90
89
92
91
84
11
1
46
72
74
26
2
2
21
54
89
83
23
5
0
3
19
32
34
30
15
5
0
9
4
0
1
2
4
2
2
5
32
72
72
39
25
19
19
19
29
57
74
64
20
2
7
14
67
70
71
14
2
32
82
91
21
4
32
77
70
17
0
33
69
89
83
61
15
1
79
82
9
45
8
41
89
79
89
34
1
9
70
77
74
18
4
63
87
26
1
0
26
72
77
41
6
7
39
91
84
4
0
69
26
2
7
58
88
39
13
1
1
81
91
50
16
52
87
57
1
26
89
67
15
11
63
89
33
3
44
73
51
8
4
14
43
85
89
40
12
1
0
19
54
77
87
88
77
48
3
0
0
34
39
18
11
9
1
0
3
31
21
5
1
0
0
0
1
9
57
74
64
13
1
17
67
72
64
9
1
46
83
92
87
81
82
82
29
2
3
79
80
52
64
82
14
26
88
41
0
10
4
48
89
48
79
82
9
1
26
75
73
24
6
62
88
34
6
1
24
69
79
41
2
1
14
92
91
4
0
69
74
24
1
54
88
32
3
0
1
81
88
14
1
27
88
59
0
38
91
87
79
82
89
91
34
4
44
64
13
10
8
32
74
88
57
19
3
0
5
39
84
79
62
74
85
90
50
9
1
54
83
68
63
84
87
56
7
4
1
7
47
71
77
64
24
2
9
64
72
29
2
19
68
78
58
8
1
57
86
89
85
92
92
91
73
6
0
31
11
41
81
85
1
43
82
11
29
52
11
54
88
18
49
89
63
2
6
57
72
24
5
54
90
91
87
19
10
60
86
67
34
23
45
92
82
9
0
69
79
32
3
54
87
39
8
0
1
81
87
10
0
26
88
59
1
33
87
65
21
9
2
2
1
0
44
40
4
4
26
62
89
77
27
6
0
0
12
51
84
49
8
6
38
90
81
19
1
51
91
86
79
82
91
90
39
4
1
59
84
90
91
89
79
16
1
46
71
30
1
20
69
77
51
7
0
63
87
59
9
2
21
81
87
28
6
53
63
36
76
84
3
42
90
91
87
51
4
59
85
13
4
69
72
20
10
58
70
31
3
18
71
89
78
16
1
26
63
84
90
90
89
92
44
5
6
70
78
33
3
49
87
85
82
16
2
81
87
10
0
26
88
59
0
13
73
87
90
92
92
89
9
0
62
39
16
14
45
89
88
36
11
0
0
0
12
54
82
42
2
1
12
87
90
25
1
49
90
69
24
9
53
90
58
6
19
81
77
26
16
60
87
36
4
43
71
30
1
21
69
75
46
6
4
71
88
71
36
21
37
83
78
27
45
82
51
58
89
77
1
27
64
69
46
11
0
16
14
3
1
0
0
2
24
63
74
59
20
1
0
0
4
2
4
4
19
41
59
68
63
37
4
0
34
72
78
36
4
16
70
89
79
12
1
77
84
9
0
24
88
55
0
2
19
58
76
87
92
90
14
0
64
40
19
18
60
92
91
76
56
43
36
24
12
44
87
67
30
21
42
87
85
26
1
49
89
57
0
4
31
89
60
6
29
84
89
82
80
87
91
39
4
43
72
28
1
22
67
72
21
7
8
70
88
92
91
90
86
79
39
10
44
79
82
67
65
46
2
1
0
0
1
16
9
2
2
11
24
17
21
34
65
69
62
72
59
26
12
9
0
9
43
25
6
1
0
0
0
0
0
39
68
74
76
64
18
3
8
10
9
1
0
9
9
4
1
1
4
1
1
9
1
0
0
0
2
4
1
0
65
55
23
9
43
89
92
92
92
92
92
67
16
23
67
84
90
91
91
91
57
17
1
49
89
55
0
4
34
91
59
6
25
83
76
26
13
11
11
4
0
44
71
26
0
13
52
75
79
26
2
0
11
26
39
48
44
25
5
1
13
19
11
0
1
4
64
26
24
32
48
64
63
69
77
77
77
77
77
76
67
39
24
53
73
77
77
78
78
73
73
66
54
44
30
23
17
21
46
73
74
41
59
74
62
18
1
0
0
10
3
2
2
5
46
6
0
0
31
67
24
5
0
0
0
0
0
59
59
67
39
6
0
11
26
39
48
54
59
44
9
4
21
47
69
75
74
47
19
4
0
48
88
54
0
6
36
89
59
3
6
74
88
82
79
79
79
14
0
64
74
24
2
2
10
56
76
63
30
10
0
0
0
0
1
7
28
29
8
2
4
16
34
77
75
77
76
75
74
73
72
72
62
55
54
50
45
41
28
6
2
18
41
49
54
59
65
73
64
70
74
75
76
77
77
77
75
74
36
7
15
57
74
72
69
69
69
70
69
69
69
70
74
69
69
74
76
76
77
77
74
74
69
69
41
54
76
75
70
40
3
0
0
0
0
0
0
0
7
16
6
1
0
0
0
4
1
1
1
21
42
29
1
5
30
77
51
1
0
19
62
84
91
92
90
15
0
69
74
4
4
19
1
5
58
72
77
77
78
64
54
44
41
52
69
69
71
78
77
77
68
60
52
48
38
28
19
12
2
0
0
0
0
0
0
0
0
9
12
2
0
0
0
0
0
0
4
11
19
26
33
44
51
57
52
29
1
0
1
15
56
72
74
74
74
74
72
72
72
72
72
73
74
74
74
57
68
74
74
74
76
76
77
76
68
62
72
73
62
51
42
35
31
27
27
27
41
57
38
23
17
10
1
10
29
44
21
1
1
2
10
13
0
0
0
1
6
1
6
9
9
11
9
1
0
72
71
4
9
49
16
0
1
8
45
56
68
74
75
76
76
73
58
69
69
60
50
34
0
1
0
0
1
1
1
1
5
11
16
19
23
26
29
29
29
38
41
31
29
26
21
18
15
9
4
1
1
1
1
0
0
0
0
0
0
29
11
2
6
8
9
9
9
9
34
33
34
33
33
34
34
34
34
29
29
34
34
40
41
47
52
57
54
4
35
66
74
76
77
77
77
77
77
77
77
75
77
77
77
78
79
70
68
74
60
43
41
41
48
51
25
18
16
41
66
24
5
0
0
0
0
0
71
76
60
2
12
54
52
11
0
0
0
0
0
6
18
25
25
17
5
0
0
0
1
1
9
16
21
31
36
44
50
57
58
57
57
57
57
57
57
56
55
53
54
55
56
57
57
57
57
58
58
57
50
44
39
34
27
19
13
17
35
55
47
14
1
0
0
0
0
0
0
0
1
0
0
0
0
0
0
0
0
0
0
0
0
0
0
0
2
1
6
21
33
41
48
55
58
60
60
62
61
59
59
61
62
66
73
73
66
69
74
74
74
74
74
75
77
77
77
77
74
78
78
76
76
74
76
76
76
59
2
3
28
38
54
57
56
31
23
14
4
0
0
0
0
0
3
9
19
26
52
59
58
57
57
56
55
54
54
50
42
37
34
30
26
25
24
22
22
21
21
22
24
25
26
30
34
38
41
48
54
54
55
55
56
57
57
55
53
53
54
51
51
52
31
26
21
18
18
15
16
16
14
14
14
14
14
14
14
13
11
9
4
1
0
0
0
0
0
0
0
0
0
0
0
0
0
0
0
0
0
0
0
0
3
8
13
20
28
31
34
35
35
42
43
46
50
51
44
61
66
72
73
74
73
71
57
2
3
29
55
4
41
52
55
57
58
59
59
51
41
39
41
51
58
58
57
56
53
48
43
36
28
21
14
9
1
16
30
27
12
0
0
0
0
0
0
0
0
0
0
0
0
0
12
23
29
25
7
4
9
16
21
28
35
39
34
21
41
51
54
57
57
57
58
59
59
59
59
59
59
58
59
59
59
59
58
59
59
56
54
49
46
41
36
30
20
11
6
5
4
2
1
0
0
0
0
0
0
1
1
1
1
1
0
1
1
1
1
0
0
0
0
0
0
0
0
0
0
0
0
0
0
0
0
3
29
56
47
2
1
25
34
41
46
53
55
56
57
57
56
55
51
42
34
24
0
14
26
27
0
0
0
0
0
0
0
0
0
0
0
0
0
0
0
0
0
0
0
0
0
0
0
0
0
0
0
0
0
0
0
0
18
29
23
11
0
2
24
33
38
44
49
54
54
54
54
54
55
54
55
55
55
55
55
55
56
56
56
57
57
57
57
57
57
57
59
58
57
54
52
51
49
49
48
47
48
48
48
46
45
44
41
36
34
32
31
30
29
29
29
29
24
21
20
17
13
10
7
6
6
9
13
26
55
47
19
0
7
27
28
13
0
6
12
19
22
24
17
9
0
19
27
0
0
0
0
0
0
0
0
0
0
0
0
0
0
0
0
0
0
0
0
0
0
0
0
0
0
0
0
0
0
0
0
0
0
0
0
0
0
0
0
0
0
0
12
28
22
4
4
11
14
16
17
18
18
19
19
19
21
21
22
22
25
26
33
43
47
49
52
54
53
53
54
55
56
56
56
56
56
56
56
56
56
56
55
55
55
55
55
55
56
56
56
57
56
56
57
57
57
57
57
57
58
58
58
59
58
58
57
55
46
19
0
