P2
# CREATOR: GIMP PNM Filter Version 1.1
128 32
255
0
0
0
0
0
0
0
0
0
0
0
0
0
0
0
0
0
0
0
0
0
0
0
0
0
0
0
0
0
0
0
0
0
0
0
0
0
0
0
0
0
0
0
0
0
0
0
0
0
0
0
0
0
0
0
0
0
0
0
0
0
0
0
0
0
22
50
41
34
35
35
35
34
31
25
1
1
2
0
0
13
29
31
33
34
35
34
19
15
11
9
5
3
1
13
28
27
16
0
0
0
0
0
0
19
41
24
16
17
21
19
16
13
9
6
4
1
0
0
0
0
0
1
4
11
0
0
0
0
0
0
0
0
0
0
0
0
0
0
0
0
0
0
0
0
0
0
0
0
0
0
0
0
0
0
0
0
0
0
0
0
0
0
0
0
0
0
0
0
0
0
0
0
0
0
0
0
0
5
10
24
40
31
10
0
0
0
0
4
17
30
33
34
36
38
39
40
35
30
25
21
27
34
26
1
0
0
11
30
33
35
37
39
37
37
37
36
36
36
35
32
29
26
22
19
15
13
10
6
0
4
14
19
19
20
21
17
11
0
0
0
0
0
0
0
6
10
14
16
15
8
1
3
0
0
0
0
0
4
4
3
4
4
4
4
4
4
4
5
6
8
9
11
11
9
4
2
6
4
0
7
23
31
34
35
36
36
36
37
36
36
35
34
32
30
25
1
0
0
0
0
0
0
0
0
0
0
0
3
12
11
1
0
4
6
9
19
33
31
22
22
20
16
11
6
2
1
1
1
11
29
34
26
3
10
28
34
24
21
19
21
25
28
33
37
40
40
39
39
39
38
37
36
35
34
31
24
6
0
5
11
8
4
1
0
0
1
8
13
20
25
29
34
35
36
35
34
31
24
10
1
0
0
0
0
0
24
31
32
33
34
34
34
34
35
36
36
36
36
36
35
33
28
17
5
0
0
8
24
34
26
19
20
20
21
21
21
24
26
29
31
33
34
31
27
1
0
1
4
5
7
9
11
11
12
9
1
4
2
0
16
31
34
34
36
34
16
1
1
1
1
1
0
0
0
5
9
1
12
29
34
24
21
30
31
21
6
0
0
0
0
0
3
7
10
14
16
19
24
29
33
34
34
32
33
26
6
0
0
0
0
0
4
12
34
35
36
38
39
39
36
31
25
20
19
26
32
26
10
0
0
0
0
0
42
34
36
37
38
39
39
39
39
40
40
40
37
35
33
31
31
31
19
5
8
24
35
28
10
1
1
1
1
1
1
1
1
1
1
1
4
36
34
31
33
34
35
35
35
35
34
34
32
25
11
1
0
11
29
35
36
34
33
25
1
6
17
20
23
26
31
36
42
48
41
8
2
11
30
36
36
35
25
10
1
5
5
1
0
0
0
0
0
0
0
0
0
0
0
0
1
1
35
35
28
9
14
19
23
29
34
36
39
31
24
16
10
4
0
0
0
0
2
9
24
34
28
0
0
0
0
0
44
22
14
14
14
14
14
14
13
11
9
4
1
0
0
5
16
32
32
21
26
36
29
10
0
12
24
25
26
26
21
19
15
10
5
1
1
7
35
39
39
39
40
40
37
34
32
29
27
32
27
20
21
28
36
20
3
0
0
0
1
19
50
53
54
55
56
56
57
56
52
44
5
1
9
31
31
27
14
0
5
22
46
46
41
39
34
29
26
21
14
10
6
1
0
0
0
0
4
36
36
36
36
37
39
39
37
28
1
0
0
0
0
0
8
15
20
24
13
3
7
26
34
0
0
0
0
0
24
10
1
0
0
0
0
0
0
0
0
0
0
0
0
1
2
17
33
36
37
29
10
0
12
39
52
54
55
55
54
54
54
52
50
45
2
1
5
5
6
4
3
1
1
0
0
0
5
24
35
37
38
38
27
8
0
0
0
1
6
51
54
46
46
39
36
32
26
21
49
54
45
0
1
0
0
0
0
0
18
44
51
55
57
57
57
57
57
56
56
55
55
51
46
41
38
9
0
4
36
33
26
20
14
6
1
1
2
13
25
35
44
53
54
55
54
51
40
17
3
6
26
0
0
0
0
0
7
1
11
23
26
26
27
28
29
31
34
34
37
40
42
29
4
2
16
26
25
14
0
13
39
55
43
30
30
36
39
44
48
52
55
52
44
4
0
0
0
0
0
0
0
0
1
4
1
4
25
29
26
24
11
2
16
37
44
49
51
57
54
2
2
2
1
1
1
3
17
47
54
41
6
0
0
0
0
14
39
51
46
33
28
32
35
38
38
46
51
57
59
59
57
56
54
41
10
0
1
0
0
0
0
0
4
19
53
54
56
57
58
56
46
38
32
41
51
43
16
2
6
0
0
0
0
0
0
9
31
51
55
57
57
57
57
57
57
57
57
57
55
54
31
4
0
0
0
0
12
39
56
44
16
1
1
1
1
2
2
3
6
56
54
43
29
43
41
41
42
42
47
48
50
49
12
1
0
0
0
0
0
9
34
52
57
58
58
59
8
0
3
8
13
18
24
16
3
19
46
53
41
36
36
36
35
39
50
49
30
10
0
0
0
0
0
0
0
1
6
14
18
22
43
54
42
7
0
5
14
29
37
48
54
55
52
41
28
18
9
1
1
1
4
14
38
53
44
16
1
0
0
0
0
0
0
31
51
49
37
35
35
35
34
31
29
29
26
24
31
51
55
31
9
11
16
19
34
55
44
16
1
17
25
24
17
12
6
1
3
11
53
54
49
54
57
57
58
58
58
57
57
54
51
11
3
6
6
9
11
22
46
47
29
21
19
14
2
0
62
70
71
71
70
54
15
3
19
44
56
57
57
57
57
57
51
34
12
4
15
25
26
26
19
12
3
0
0
0
0
0
15
44
55
48
53
54
55
57
57
59
49
29
1
1
1
0
0
9
21
28
19
4
11
39
53
44
15
0
0
0
0
0
0
51
52
30
4
0
0
0
0
0
0
0
0
1
6
26
53
56
54
55
55
54
54
48
16
1
18
46
72
72
72
71
70
63
4
3
15
48
58
40
24
19
19
19
19
17
16
39
54
50
52
54
54
54
54
54
55
38
9
0
0
0
0
41
72
77
78
75
71
73
56
15
3
17
36
36
36
36
36
36
29
14
4
22
55
74
75
76
75
74
74
69
60
54
46
17
1
14
47
58
58
49
33
21
12
1
1
0
14
21
39
59
69
73
74
70
56
25
4
10
39
52
44
0
0
0
0
0
0
52
31
5
5
19
22
24
24
26
29
33
34
29
11
6
26
55
57
53
47
42
38
21
0
17
54
74
69
60
65
72
78
73
59
11
3
16
31
19
3
0
0
0
0
0
0
10
38
55
58
59
59
59
57
53
49
16
2
15
26
29
42
64
78
32
13
7
11
74
73
51
0
1
1
1
1
1
1
1
0
3
22
55
72
60
51
51
62
65
73
78
78
77
75
57
15
1
7
3
0
1
1
0
0
9
27
72
67
63
74
77
70
59
51
58
71
59
24
3
9
45
52
0
0
0
0
0
0
31
5
4
30
67
75
75
75
75
76
76
74
66
41
11
6
7
2
0
1
2
1
1
0
36
73
68
41
3
4
4
11
73
74
54
14
3
7
4
14
32
39
39
41
40
23
4
10
19
19
18
15
8
4
7
22
1
11
54
74
74
74
77
49
9
1
0
4
9
77
61
14
16
19
24
25
25
25
25
23
23
44
70
53
19
0
0
0
0
0
0
4
11
67
75
60
9
0
3
11
30
45
59
70
73
77
65
67
74
48
10
1
1
5
19
51
72
59
16
1
34
52
0
0
0
0
0
0
6
4
28
67
73
61
58
56
52
51
49
51
67
68
41
11
0
0
2
9
11
18
25
29
47
75
52
2
2
6
0
4
16
64
72
25
1
1
12
41
67
75
75
75
74
59
26
4
0
0
0
0
0
0
1
1
0
47
76
72
64
61
59
43
1
36
61
13
4
79
72
68
54
63
73
74
74
74
74
70
57
54
64
29
4
19
32
24
19
15
8
4
0
6
72
74
73
73
74
73
73
76
78
69
51
2
7
34
35
8
0
19
29
23
6
16
57
72
31
4
32
53
0
0
0
0
0
0
4
17
65
73
52
9
0
0
0
0
2
11
36
66
69
55
55
68
73
69
57
62
73
73
74
77
54
0
11
87
79
9
4
55
74
53
37
29
39
68
69
51
44
44
55
72
59
39
36
39
41
42
44
43
31
9
27
69
80
29
1
1
11
31
0
49
87
21
3
75
75
72
77
69
57
52
51
51
53
62
72
73
64
29
13
56
92
92
92
91
90
75
4
6
69
72
69
66
59
51
69
26
1
2
0
13
13
8
4
8
67
87
85
67
26
2
40
69
33
3
33
54
0
0
0
0
0
0
4
19
69
62
10
4
20
26
27
30
26
14
9
36
67
77
77
78
78
74
74
72
58
51
51
57
47
0
9
90
87
19
2
53
76
74
72
64
65
69
44
11
1
1
15
50
71
73
74
75
76
76
76
74
66
40
45
71
50
5
0
5
2
1
0
34
89
31
2
11
4
31
67
46
12
2
1
1
5
21
51
72
63
29
8
36
59
59
66
84
88
68
4
4
21
4
1
1
2
10
16
0
11
21
84
82
48
8
1
75
85
64
63
83
46
6
38
69
33
3
33
54
0
0
0
0
0
0
4
20
69
60
6
19
80
92
91
88
78
50
14
13
31
28
22
11
6
21
61
49
14
3
3
3
3
0
2
88
87
21
2
21
36
39
57
72
75
58
16
7
24
23
5
14
51
69
55
45
42
42
42
51
68
68
67
76
41
5
45
85
20
0
0
28
89
34
0
0
0
2
22
7
9
28
39
37
22
6
16
52
67
42
11
0
0
3
29
74
72
28
0
0
5
23
34
44
37
10
0
8
84
89
77
82
66
12
21
89
64
39
65
87
51
9
38
70
31
3
35
54
0
0
0
0
0
0
4
21
70
59
6
21
84
84
64
64
79
78
33
4
4
1
1
0
0
1
16
7
6
20
21
14
4
0
1
82
88
25
1
2
2
4
21
57
66
40
7
19
69
69
15
0
16
37
14
3
1
1
3
12
38
67
77
58
19
1
46
89
26
6
1
24
89
51
49
68
54
4
0
7
51
81
89
86
70
26
2
36
68
69
36
5
1
21
67
81
41
3
0
14
49
79
89
88
82
50
0
21
91
30
15
67
68
10
35
90
79
49
39
32
13
1
39
70
31
1
35
54
0
0
0
0
0
0
4
23
70
57
6
23
84
67
7
16
62
79
32
0
19
47
65
76
66
16
0
4
37
75
87
82
48
0
1
79
88
27
6
31
44
24
5
33
50
11
7
36
76
78
39
19
1
1
9
25
34
36
29
12
9
37
68
46
7
30
72
91
89
87
5
21
90
78
84
90
89
36
1
35
83
57
33
59
86
38
4
41
70
60
24
4
21
60
81
46
9
0
5
44
84
64
35
43
86
82
0
40
83
0
11
68
67
3
34
86
64
50
54
61
21
1
58
74
30
1
36
54
0
0
0
0
0
0
3
25
70
55
6
26
84
74
36
45
73
61
14
1
49
79
69
73
89
67
0
21
83
83
73
81
87
19
3
71
88
30
34
69
71
33
4
32
51
11
23
76
92
92
91
69
4
8
43
75
87
88
77
48
13
10
48
47
8
44
84
92
92
88
4
21
91
75
37
52
89
51
6
59
87
73
76
89
91
29
0
49
65
12
1
22
65
82
46
11
0
0
17
67
74
21
1
3
91
72
1
92
71
0
16
74
64
0
17
67
83
90
92
90
24
1
63
74
10
0
36
54
0
0
0
0
0
2
3
29
71
52
5
29
85
92
92
92
88
63
21
1
34
29
14
7
90
76
4
42
86
54
9
11
57
17
3
71
88
60
69
71
39
8
13
46
54
12
14
59
85
87
74
50
5
29
83
80
62
62
77
80
36
1
38
49
9
16
55
86
32
0
0
21
90
44
3
26
89
50
13
68
81
26
1
7
11
1
11
51
31
1
16
79
87
39
7
0
0
0
22
77
77
18
1
44
87
39
1
90
59
0
17
79
56
0
4
21
36
35
30
25
6
0
64
74
9
0
52
54
0
0
0
0
0
17
3
34
72
47
4
34
85
75
51
51
69
84
45
7
26
54
77
88
91
73
7
50
82
44
2
1
1
0
1
71
89
79
84
59
15
1
30
69
64
29
4
17
69
76
19
0
7
45
86
53
6
9
49
89
48
0
36
64
30
4
40
84
29
0
0
21
89
32
0
25
89
43
8
65
88
90
92
91
63
3
26
62
25
12
57
92
92
90
86
82
79
26
9
79
91
91
91
85
52
0
12
62
26
1
4
6
0
11
21
7
1
0
0
0
0
53
75
72
8
0
52
54
0
0
0
0
0
30
2
37
73
42
4
40
86
51
5
7
51
87
53
23
64
64
9
4
90
69
6
44
87
67
28
25
55
19
3
71
89
59
72
73
31
3
24
62
78
59
14
17
69
74
20
1
9
49
83
44
2
5
45
89
48
0
36
79
49
9
41
84
35
8
1
26
89
26
0
27
87
27
1
21
64
73
64
55
27
1
39
57
21
10
40
64
71
77
82
84
82
21
1
19
58
65
58
31
0
13
1
1
3
30
9
0
21
54
61
49
48
52
56
60
66
75
74
13
0
0
51
52
0
0
0
0
0
22
1
42
74
37
4
46
87
72
55
59
78
87
33
28
88
83
61
78
87
64
1
24
69
86
90
89
84
21
2
71
88
34
42
79
63
19
5
36
72
60
18
18
68
79
44
22
8
41
87
68
37
43
71
79
34
1
39
78
49
9
39
87
91
81
6
33
86
19
0
27
41
5
5
0
0
0
0
0
0
73
76
74
40
4
0
0
0
0
0
0
0
4
12
5
1
0
1
15
56
64
29
44
53
70
74
78
77
72
69
74
76
75
75
75
74
72
19
1
0
51
54
50
0
0
0
0
0
6
0
51
75
31
3
49
86
92
91
88
74
37
1
2
55
81
77
54
55
41
2
5
23
49
64
64
39
0
1
77
85
29
12
55
80
47
6
22
63
59
19
14
56
87
89
62
6
22
68
84
89
88
78
46
11
11
51
78
49
10
18
73
84
55
1
21
24
4
1
0
0
25
67
29
25
36
74
79
78
76
71
72
77
79
77
74
69
41
36
34
34
48
58
44
69
77
78
77
73
74
75
74
73
72
69
57
50
36
27
29
24
21
17
16
11
10
1
0
51
56
52
6
0
0
0
0
0
5
5
66
78
22
3
14
23
22
20
11
4
0
8
3
0
1
2
1
2
4
14
20
5
1
0
0
1
1
0
9
21
10
1
18
39
32
9
24
64
65
30
6
23
51
55
32
1
5
21
46
52
48
32
11
9
40
69
76
62
23
1
0
0
1
4
1
2
6
53
48
64
78
73
76
76
74
71
65
63
50
7
34
64
67
71
72
74
74
74
74
76
74
71
73
73
69
62
54
42
39
31
22
16
4
0
0
0
0
0
0
0
0
0
0
0
0
0
49
56
53
6
0
0
0
0
0
0
5
9
54
75
78
15
0
0
0
0
1
9
36
64
36
20
23
26
29
34
37
57
59
44
34
28
21
21
39
4
2
2
4
9
4
0
0
11
41
69
73
57
23
3
0
0
1
14
21
6
1
0
0
3
13
43
69
59
59
71
63
14
9
18
31
53
62
73
77
74
74
74
59
36
3
0
0
0
0
0
0
0
0
0
0
0
0
0
0
0
1
3
3
3
1
0
0
0
0
0
1
1
1
0
0
11
17
26
31
34
38
41
44
45
49
51
50
50
54
52
6
0
0
0
0
0
0
46
20
2
11
53
74
78
78
78
78
78
78
77
75
71
76
76
75
74
74
73
72
71
72
75
76
76
77
77
78
77
74
62
59
56
50
42
39
50
69
64
59
70
58
38
34
34
36
53
60
43
36
37
37
42
54
69
59
24
21
57
76
78
77
77
75
73
72
66
37
18
4
0
0
0
6
11
15
18
19
21
21
21
20
19
18
16
14
11
9
5
1
0
0
0
4
8
12
17
21
28
34
41
46
54
58
58
57
57
57
57
57
56
56
56
55
55
54
53
51
9
0
0
29
0
0
0
0
71
49
20
2
14
43
54
56
56
56
56
54
49
39
33
33
30
26
26
25
26
25
26
30
34
35
46
49
56
63
68
72
72
72
74
75
76
76
75
62
33
24
51
72
76
76
76
76
73
72
75
76
76
75
75
71
54
22
2
1
11
55
60
51
33
19
10
0
0
0
0
6
17
56
59
58
58
57
57
57
57
55
55
56
57
57
57
57
58
58
58
59
59
58
59
59
58
57
57
56
55
55
54
54
54
45
39
34
28
24
21
19
16
15
13
11
9
7
7
6
1
0
29
36
0
0
0
0
49
55
51
18
2
0
0
0
0
0
0
0
0
1
1
1
1
1
1
1
1
4
1
1
1
1
0
0
0
0
0
2
7
16
21
25
28
34
35
26
6
2
18
36
40
40
39
39
35
34
36
35
33
31
28
24
12
2
26
11
1
0
0
0
0
0
0
14
39
51
59
58
54
48
41
36
33
26
25
24
22
21
21
23
25
26
29
30
34
36
41
43
44
44
44
43
39
36
32
28
23
19
14
9
1
19
29
23
2
0
0
0
0
0
0
0
0
0
0
0
0
0
0
0
0
0
0
0
2
42
54
51
49
46
45
45
44
45
45
45
46
46
48
49
51
52
52
52
51
50
45
41
37
34
30
22
16
11
8
2
1
0
0
0
0
0
0
0
9
12
2
0
0
0
0
0
0
0
1
1
1
1
1
0
5
31
56
46
17
17
31
41
49
58
58
56
55
51
42
25
14
29
24
5
0
0
0
0
0
0
0
0
0
0
0
0
5
18
24
28
29
29
29
28
27
22
10
0
0
0
0
0
0
0
0
0
0
0
0
0
0
0
0
0
0
0
0
0
0
0
0
0
0
0
0
0
1
4
39
53
54
55
55
55
55
55
55
55
55
54
53
53
53
51
51
51
53
54
54
54
55
56
56
57
57
58
58
59
57
53
46
43
40
37
34
32
39
40
31
29
31
31
31
34
33
35
36
38
39
41
44
51
55
54
49
53
56
56
56
55
54
45
21
9
1
28
7
0
0
0
0
0
0
0
0
0
0
0
0
0
0
0
0
0
0
0
0
0
0
0
0
0
0
0
0
0
0
0
0
0
0
0
0
0
0
0
0
0
0
0
0
0
0
0
0
0
0
0
0
0
0
0
0
