P2
# CREATOR: GIMP PNM Filter Version 1.1
128 32
255
34
35
36
36
36
36
34
31
31
31
31
31
31
30
29
25
16
3
1
2
0
0
23
33
35
38
37
34
33
33
34
36
40
39
37
35
31
26
6
0
0
0
1
22
27
12
0
0
0
0
0
0
0
0
0
0
0
0
0
0
0
0
0
0
0
0
0
0
0
0
0
0
0
0
0
0
0
0
0
0
0
0
0
0
0
0
0
0
0
0
0
0
0
0
0
0
0
0
0
0
12
29
25
16
17
21
19
16
14
10
8
6
4
3
1
1
0
0
0
0
0
1
1
5
11
12
6
0
17
21
26
31
35
41
40
40
40
40
40
39
39
39
37
35
31
18
3
0
0
24
34
37
4
2
1
1
1
1
1
1
2
4
6
7
34
34
24
12
8
3
0
0
0
0
0
0
0
0
0
3
11
16
15
16
27
28
18
5
0
0
0
0
0
0
0
0
0
0
0
0
0
0
0
0
0
0
0
0
0
0
0
0
0
0
0
0
0
0
0
0
5
10
22
30
17
2
3
6
7
0
3
19
17
11
0
0
0
0
0
0
0
0
0
0
0
1
1
1
1
0
0
0
3
11
6
0
1
0
0
0
0
0
1
1
4
4
4
4
4
4
7
17
34
34
19
3
24
34
38
5
0
0
1
2
4
4
2
0
0
0
0
1
7
29
36
35
35
34
28
23
18
15
14
11
11
11
7
1
3
13
7
1
0
0
0
0
0
4
14
29
31
31
35
43
45
45
45
45
45
45
43
42
40
19
14
6
19
9
0
3
9
11
14
17
18
18
18
18
19
19
22
26
29
32
33
31
23
8
0
1
0
0
0
4
8
11
16
20
23
26
29
31
33
34
34
33
31
29
20
8
1
4
6
0
16
26
20
15
10
5
0
0
0
0
0
0
0
0
0
1
17
35
34
31
35
39
10
1
0
46
49
51
52
52
52
51
49
44
41
4
1
11
28
32
39
39
39
38
37
36
36
35
34
32
25
11
1
0
0
0
10
17
19
17
14
19
32
33
31
36
39
39
39
39
39
39
39
38
37
35
31
25
1
1
1
0
5
21
31
34
36
37
37
38
38
38
38
39
39
39
39
39
34
30
34
24
7
0
3
10
30
34
35
36
36
37
38
39
39
39
40
39
39
39
37
35
32
25
10
1
11
0
44
53
55
56
56
55
55
54
52
48
48
48
47
42
27
4
1
17
36
39
39
10
1
0
39
54
57
58
59
59
59
59
57
57
51
36
11
1
0
0
4
10
16
20
24
26
26
25
24
26
32
28
11
4
0
15
26
31
34
36
36
36
32
21
1
1
1
3
4
6
6
6
6
6
6
8
34
34
28
1
0
5
21
31
26
21
19
19
19
19
20
19
18
15
12
8
4
0
0
6
28
35
28
29
35
36
37
39
34
30
25
21
17
15
12
10
7
6
6
6
6
12
26
32
26
11
11
0
57
39
29
35
42
48
54
59
59
59
59
59
58
56
52
31
4
1
4
5
5
1
0
39
54
58
15
9
9
9
9
9
29
29
44
53
39
8
1
0
0
0
0
0
0
0
0
0
0
6
24
35
36
35
35
33
35
27
19
18
19
24
16
1
3
9
5
1
0
0
0
0
0
0
0
1
6
38
34
26
8
22
33
24
7
0
0
0
0
0
0
0
0
0
0
0
0
2
6
1
10
29
38
39
36
31
22
1
1
1
1
0
0
0
0
0
0
0
0
0
0
1
8
24
33
26
22
0
30
9
1
0
0
0
0
0
1
2
6
7
11
27
53
54
31
4
0
0
0
0
14
41
56
43
14
1
1
1
1
1
1
3
16
49
54
47
30
36
34
30
24
21
19
19
14
13
10
2
6
26
33
36
41
39
25
11
2
0
0
0
0
6
26
50
51
52
52
51
50
49
46
44
40
2
1
4
36
36
36
36
25
8
5
18
26
26
29
29
31
34
38
41
46
49
54
53
42
11
1
10
12
4
0
1
1
0
4
9
14
19
24
29
30
32
34
35
36
35
29
14
3
8
24
34
36
0
4
0
26
38
33
22
14
9
1
0
0
0
0
2
26
49
50
35
24
21
21
20
32
54
49
24
1
10
26
27
25
22
20
11
3
9
58
54
49
51
55
56
56
55
55
55
54
52
45
15
1
0
0
0
1
5
4
1
11
24
26
27
27
34
54
51
45
49
53
56
59
59
58
57
52
46
1
1
8
31
29
21
8
5
24
44
54
56
57
57
57
58
58
59
59
59
53
49
54
40
14
0
0
0
5
15
23
50
53
54
54
54
55
56
57
57
57
57
57
55
51
39
18
3
8
24
46
0
0
40
64
74
76
76
75
75
74
74
70
59
39
6
6
26
49
56
56
55
55
54
54
53
34
1
4
31
71
72
72
71
70
63
4
3
15
47
57
49
42
46
48
51
52
54
53
53
54
49
14
4
2
1
0
0
0
16
34
50
55
57
57
57
49
25
1
2
2
2
2
2
3
6
59
54
44
6
1
0
0
0
3
24
46
49
36
27
24
22
18
12
8
2
0
0
0
11
46
55
41
32
41
50
54
54
56
58
59
54
48
44
39
36
31
29
28
28
26
29
42
51
42
18
3
7
46
0
60
73
79
47
36
41
52
62
67
77
78
78
73
41
11
6
25
50
54
56
57
57
57
55
2
0
5
70
77
77
78
78
78
73
56
14
3
19
42
46
18
0
0
0
0
1
1
3
43
56
52
51
50
49
48
45
41
44
53
47
34
29
29
29
15
1
9
23
19
15
12
7
4
3
9
54
54
40
16
19
19
21
32
46
50
31
7
0
0
0
0
0
0
3
9
11
11
1
14
44
57
57
58
58
51
42
33
9
3
1
1
1
1
1
1
1
0
0
0
4
15
37
52
43
17
2
24
0
67
78
30
10
1
0
0
0
0
1
9
36
67
69
41
8
0
2
5
8
8
9
12
12
2
0
46
72
79
28
19
22
28
62
74
51
15
3
7
21
1
0
0
0
0
0
0
0
7
40
56
58
58
58
58
58
57
57
47
25
6
0
0
0
0
18
46
72
73
72
72
70
58
6
3
13
49
54
55
55
56
57
57
51
31
8
8
31
49
57
64
72
74
74
74
74
55
17
1
14
28
20
11
2
1
1
1
0
0
0
3
6
12
21
27
29
32
31
29
16
4
11
39
53
45
15
12
0
69
69
11
1
39
51
43
29
19
9
0
4
36
67
72
43
6
0
0
0
0
1
1
1
0
0
44
75
52
15
1
1
4
19
71
73
62
0
3
3
0
31
52
57
56
54
51
23
4
9
17
19
19
19
20
21
25
34
25
6
11
29
36
36
36
55
76
65
51
51
57
66
73
58
9
3
15
41
38
35
30
30
30
23
8
8
36
68
77
77
78
74
67
62
58
60
74
56
18
1
0
0
0
4
16
27
37
63
68
68
71
49
57
72
74
74
74
74
70
53
24
4
10
41
54
48
11
0
69
64
8
0
59
87
92
91
89
79
53
14
9
35
74
74
59
48
41
37
34
28
23
23
28
24
33
74
65
3
1
8
4
4
10
75
71
8
1
0
25
56
73
77
76
76
75
59
26
4
0
0
0
0
0
0
1
7
5
11
41
68
76
76
76
77
59
21
2
2
4
23
67
72
51
0
1
1
1
1
0
0
0
0
7
34
65
64
29
11
1
0
0
0
1
19
59
74
54
33
42
53
60
71
73
74
75
77
77
78
78
77
75
68
63
60
59
59
65
72
62
21
2
6
45
54
41
26
70
61
7
0
67
88
63
57
71
84
92
50
13
4
34
70
77
76
75
74
74
69
57
54
71
70
70
74
77
4
0
74
72
10
4
63
72
57
48
34
49
71
65
45
39
39
54
72
59
39
37
39
39
39
39
36
26
10
11
41
69
66
46
39
39
54
35
1
22
34
19
4
28
77
58
16
12
17
24
26
29
36
36
32
29
52
64
30
2
0
2
13
19
31
20
1
27
74
75
75
76
77
77
75
56
45
39
11
11
11
31
77
69
22
4
1
1
4
21
56
74
66
17
0
12
38
52
65
71
58
6
0
69
89
41
6
13
49
92
79
44
1
15
27
37
44
59
66
72
77
76
75
78
77
77
78
78
14
1
69
87
24
2
51
76
74
72
64
62
72
51
15
1
1
14
51
72
73
73
76
76
76
76
74
64
39
36
64
66
36
8
0
0
16
15
0
45
86
52
1
25
77
72
68
52
58
72
74
74
74
74
71
58
63
57
16
21
75
92
92
91
89
59
3
20
56
49
42
33
25
39
63
1
1
2
1
0
0
1
31
14
0
1
4
4
3
1
4
62
75
57
23
1
14
50
59
72
56
6
9
74
89
72
46
38
59
92
82
56
1
2
4
3
1
1
1
4
24
63
71
44
24
21
25
26
9
1
57
89
39
1
21
51
54
62
72
73
69
23
3
12
16
4
11
51
71
58
51
46
46
41
51
68
68
63
73
51
12
14
36
27
5
0
1
46
89
55
1
17
65
69
72
77
74
67
60
54
50
49
60
71
74
58
17
27
84
92
83
85
88
54
2
6
14
3
1
0
2
4
1
2
23
20
29
45
54
8
1
0
9
58
82
86
69
21
1
16
52
73
55
7
3
36
53
72
53
6
10
77
89
92
92
92
89
79
67
39
1
0
17
24
13
9
0
0
3
24
31
14
4
1
1
1
1
0
34
89
62
1
3
3
4
13
66
75
68
14
6
60
82
18
0
10
49
17
4
1
1
3
11
38
67
77
63
29
4
29
74
56
11
0
1
46
89
57
0
2
2
4
30
76
63
21
4
1
1
5
21
51
72
59
17
8
15
9
1
62
82
36
0
1
9
26
38
45
39
9
0
1
85
66
72
88
82
40
4
1
61
85
90
91
85
67
29
2
21
68
69
25
1
31
50
72
51
6
12
78
89
54
46
63
79
92
65
14
0
2
40
63
79
87
77
58
21
7
6
5
20
29
31
21
9
0
21
90
72
0
4
8
4
4
6
69
22
1
0
59
91
25
5
0
0
3
14
24
29
24
11
9
37
68
48
9
18
56
84
74
52
24
2
38
89
65
11
11
5
0
1
30
13
0
6
13
19
15
5
16
52
67
42
10
0
0
24
91
65
4
0
6
45
75
87
88
79
49
9
1
90
90
76
68
82
71
22
7
51
83
63
52
64
84
66
10
6
50
72
34
6
24
48
73
48
6
12
78
89
36
5
4
25
79
86
69
9
1
30
82
80
64
74
82
62
19
0
13
46
75
87
81
46
2
11
91
84
1
15
78
76
16
5
54
33
5
37
76
89
85
87
6
1
19
66
85
88
77
48
13
10
49
48
9
35
80
92
92
91
47
4
34
90
79
57
84
87
57
6
1
0
9
62
86
87
67
28
2
24
67
69
34
4
5
69
90
22
0
1
22
82
79
62
61
77
79
24
1
79
91
31
12
59
79
35
11
53
87
64
34
42
73
85
30
1
43
69
40
10
19
45
73
48
6
16
78
89
74
49
30
31
72
82
88
36
7
6
31
11
11
21
68
83
44
4
30
82
87
81
83
87
17
1
88
87
16
49
80
58
16
4
47
38
6
44
84
92
92
90
14
1
77
90
81
74
80
81
38
1
41
48
9
17
55
84
74
51
23
2
34
91
89
85
88
91
89
39
4
1
69
89
90
87
87
74
10
14
59
70
34
3
34
82
62
4
0
1
35
89
61
8
9
49
89
42
1
64
88
7
1
36
84
45
8
48
90
84
77
79
88
91
39
6
35
64
47
13
15
44
72
49
7
9
72
89
92
91
91
90
65
83
91
45
22
8
38
59
62
57
74
88
54
7
40
89
69
12
6
60
19
3
71
88
60
72
64
26
5
19
57
45
8
16
55
84
64
34
9
16
87
80
11
5
41
89
55
0
39
64
30
4
31
77
57
12
0
0
31
91
81
32
4
52
87
59
6
19
82
74
13
6
64
85
26
11
56
58
18
11
58
81
29
1
0
0
38
89
51
1
1
25
90
52
1
54
88
19
0
26
90
58
1
29
90
71
11
6
11
20
14
4
28
62
51
14
13
41
70
62
25
1
2
19
33
50
66
79
85
86
84
35
25
31
78
67
42
39
69
89
62
7
43
89
54
2
0
6
6
2
62
89
79
84
56
13
1
35
71
64
30
4
31
77
54
9
0
23
77
62
1
0
19
91
60
0
31
79
51
11
31
76
60
16
1
0
26
90
78
0
0
27
84
62
7
29
84
89
83
86
90
86
26
6
51
46
1
23
72
61
13
0
0
0
27
88
77
14
12
49
88
52
0
44
89
29
0
21
80
64
7
6
74
87
79
72
64
57
24
1
27
65
57
16
9
40
49
74
66
22
1
0
0
0
0
0
54
52
28
16
9
31
83
81
51
38
52
89
65
3
32
90
77
14
5
34
21
5
59
89
64
71
74
31
3
24
62
78
54
12
29
75
59
15
1
20
72
77
14
3
46
88
51
1
34
78
52
13
29
74
77
50
24
2
21
91
82
1
0
24
83
62
7
23
77
79
38
13
9
3
0
1
51
30
4
39
89
72
49
54
59
29
12
72
89
87
92
90
79
26
0
32
88
41
0
16
68
67
17
1
25
62
83
90
92
91
52
3
29
74
54
14
7
39
15
49
73
78
69
59
46
27
14
0
0
0
4
4
1
2
53
79
79
72
77
84
69
0
8
82
90
82
72
78
39
8
54
89
47
39
79
64
19
5
35
72
58
16
23
72
77
55
26
11
60
87
77
88
91
78
24
5
41
78
54
14
17
59
87
89
59
5
16
91
86
3
0
24
77
66
14
8
65
86
74
69
71
79
10
0
73
34
5
56
92
92
92
92
92
50
9
26
62
84
89
77
35
0
0
14
64
35
1
6
29
34
13
1
5
19
39
46
50
54
33
1
26
74
49
3
6
41
2
14
47
66
74
75
76
77
78
69
18
5
17
28
14
0
9
23
37
38
41
52
55
0
0
20
67
87
87
67
26
4
49
87
45
12
52
80
51
6
19
62
61
19
14
57
87
88
47
4
26
62
84
89
77
31
1
21
62
76
64
28
6
22
47
54
39
1
10
84
84
4
0
19
74
65
16
1
25
62
83
90
92
90
26
0
66
36
0
44
84
79
75
69
62
42
6
4
17
24
21
13
4
0
6
0
0
1
10
14
0
0
5
20
22
6
1
0
0
0
0
9
44
74
48
3
7
55
20
2
0
1
13
24
36
53
65
77
77
76
66
64
65
31
7
2
2
2
1
2
2
7
7
1
4
11
19
17
6
0
21
45
24
1
18
49
44
12
17
61
67
31
6
23
51
51
24
2
5
18
25
21
4
0
9
55
71
63
70
56
24
4
0
0
1
1
0
1
4
4
1
5
21
21
7
3
5
17
30
34
33
31
10
1
54
47
4
1
1
0
0
0
0
0
5
16
6
1
1
1
8
37
74
4
9
16
30
51
28
28
35
57
61
39
29
27
27
27
28
45
76
65
31
2
9
54
46
22
9
0
0
0
0
0
0
41
62
74
72
67
74
76
67
55
48
43
35
32
26
29
61
19
2
1
1
3
16
10
1
1
3
5
4
0
0
5
27
64
74
58
21
3
0
0
2
19
24
6
1
1
1
11
49
74
54
29
53
70
59
37
29
24
20
20
5
2
2
4
32
13
0
0
11
31
25
7
1
0
0
0
0
31
67
68
39
7
0
0
0
2
8
10
22
57
34
31
40
49
57
68
76
72
79
78
77
76
77
77
77
73
70
76
77
77
77
77
77
76
65
31
1
4
19
54
51
57
58
54
44
36
22
12
1
0
0
6
20
31
44
69
72
73
74
74
74
75
74
75
75
78
77
74
69
59
61
54
41
38
39
39
36
27
26
33
64
72
63
72
59
29
26
28
34
57
61
49
51
54
61
76
76
62
19
2
20
52
72
77
77
77
77
78
77
74
69
59
66
57
46
44
49
63
61
44
38
39
40
40
42
62
75
74
67
56
54
57
61
74
76
78
78
76
77
77
77
76
75
69
69
72
72
72
64
58
54
47
47
42
37
46
48
48
48
48
48
46
31
1
7
26
56
52
31
42
54
55
56
57
58
59
57
17
3
0
0
0
0
0
10
18
25
30
34
41
42
48
53
62
69
72
72
74
73
74
74
75
75
75
77
77
77
77
71
49
24
54
73
77
77
77
77
73
72
74
75
74
74
72
59
23
1
7
5
18
41
46
51
59
64
70
71
72
73
73
73
74
75
76
76
70
69
75
77
77
77
77
76
75
54
44
64
74
76
76
75
75
75
74
74
69
64
63
58
51
46
29
23
18
11
3
0
0
0
0
0
0
0
0
0
0
0
0
0
0
0
7
33
56
51
33
28
19
3
12
20
30
41
48
57
58
59
49
37
27
12
3
1
1
1
1
1
1
1
1
0
0
0
0
2
9
21
26
29
34
37
39
44
46
49
52
44
12
1
17
46
52
51
47
45
37
34
32
28
23
18
7
1
1
11
34
16
2
0
0
0
0
0
1
4
16
21
24
27
33
35
39
40
36
35
42
44
44
44
44
42
40
21
9
26
35
34
32
29
26
24
20
16
4
1
0
0
0
0
0
1
1
1
1
0
5
11
15
21
21
21
24
24
24
24
24
24
21
20
33
55
48
23
1
0
0
0
0
0
24
23
2
34
48
55
56
57
57
57
59
58
51
46
40
36
34
31
24
21
16
11
7
3
1
1
1
1
1
0
0
0
0
0
0
0
2
8
1
0
0
0
0
0
0
0
1
1
1
1
1
0
11
39
54
43
23
17
14
11
6
1
0
0
1
1
0
0
0
0
0
0
0
0
0
0
0
0
0
0
0
0
0
0
0
0
0
0
0
0
0
0
0
0
1
3
9
13
18
24
36
41
49
57
58
58
58
57
57
57
57
57
57
57
57
57
57
56
54
46
22
1
4
0
0
0
0
0
0
0
0
28
10
6
16
24
32
41
46
51
53
54
54
54
55
56
56
57
57
58
58
59
59
53
44
39
36
32
29
26
24
21
19
17
24
38
21
16
17
20
21
24
26
28
32
36
41
44
51
57
57
53
47
52
56
57
58
59
59
57
53
46
42
38
35
30
29
28
26
25
22
21
19
19
18
18
19
19
21
21
23
24
26
28
28
29
30
31
34
37
40
46
56
59
59
58
57
57
55
54
55
54
51
45
40
32
29
25
22
20
20
20
20
21
24
26
27
16
1
6
21
