P2
# CREATOR: GIMP PNM Filter Version 1.1
128 32
255
4
8
0
0
0
0
0
0
0
0
0
0
0
0
0
0
0
3
1
7
0
0
0
0
0
0
0
0
0
25
34
38
39
39
37
35
25
0
0
0
0
0
0
0
0
0
0
0
0
0
0
0
0
0
0
0
0
0
0
0
25
34
36
38
39
39
39
39
39
39
39
35
34
25
0
0
0
0
36
0
0
0
0
0
0
0
0
0
0
0
0
0
0
0
0
0
0
0
0
0
0
0
0
0
0
0
0
0
0
0
0
0
0
0
0
0
0
0
0
25
13
0
0
0
0
0
0
0
0
0
0
0
0
0
0
0
0
0
0
0
0
0
0
0
0
0
7
0
0
0
0
0
0
0
0
0
0
0
0
0
0
0
0
0
0
33
0
0
0
0
0
0
0
15
15
11
3
0
0
0
0
0
0
3
15
15
20
34
36
0
0
0
0
0
0
0
0
0
0
0
0
0
30
0
0
0
0
0
0
0
0
13
0
0
0
0
0
0
0
0
0
0
0
0
0
0
0
0
0
0
0
0
0
0
0
0
0
0
0
0
0
0
37
39
0
0
0
0
0
0
0
0
0
0
36
0
0
0
0
0
0
0
0
0
0
0
0
0
0
0
0
0
0
0
0
0
0
0
0
0
0
0
0
0
0
0
0
0
0
0
0
0
0
0
36
36
36
37
37
37
39
39
37
35
33
15
0
0
0
0
15
34
36
38
39
39
0
0
0
0
0
0
0
0
0
0
0
0
0
0
37
34
0
0
0
0
0
0
0
0
0
0
0
0
0
0
0
0
13
0
0
0
0
0
0
13
0
0
0
0
0
0
0
0
0
0
0
0
0
0
0
0
0
0
0
0
0
0
0
0
0
0
38
0
0
0
0
0
0
0
0
0
0
0
0
0
0
0
0
0
0
0
0
0
0
0
0
0
0
0
0
0
0
0
0
0
0
0
0
0
0
0
0
0
0
0
0
0
0
0
0
0
0
34
30
25
33
34
36
0
0
0
0
0
0
0
0
0
0
0
0
0
0
0
0
0
0
0
0
25
34
0
0
0
0
0
0
0
0
0
0
0
0
0
0
0
0
0
0
0
0
0
0
0
0
0
0
0
0
0
0
0
0
0
0
0
0
0
0
0
0
0
0
0
0
0
0
0
0
0
0
0
0
0
0
37
45
53
53
58
58
59
59
58
37
0
0
0
0
0
0
0
0
0
0
0
45
0
0
0
0
53
59
59
53
53
0
0
0
0
0
0
0
0
0
0
0
0
0
0
0
0
40
40
40
39
0
0
0
0
0
0
0
0
0
45
53
37
37
0
0
0
0
0
0
0
0
0
0
0
0
0
0
0
30
0
0
0
0
0
0
0
0
0
0
0
0
0
0
0
0
0
0
0
0
0
0
0
0
0
0
0
0
0
0
0
0
0
0
0
0
0
0
0
0
13
0
0
0
0
0
0
45
0
0
0
0
0
0
0
0
0
0
0
37
0
0
0
0
0
0
0
0
53
0
0
0
0
0
0
0
0
0
0
0
0
0
0
0
0
0
0
0
0
0
0
0
0
0
0
0
0
0
0
0
0
0
0
0
0
0
0
58
0
0
0
0
0
0
59
58
45
0
0
0
0
0
0
0
0
0
0
0
0
0
0
0
0
0
0
0
0
0
0
0
0
0
0
0
0
0
0
0
0
0
0
0
0
0
0
0
0
0
0
0
0
0
0
0
0
0
0
0
0
0
0
0
0
0
0
0
0
0
0
0
0
0
0
0
0
0
0
37
45
0
0
0
0
0
0
0
0
0
0
0
0
0
0
0
0
0
0
0
0
0
0
45
53
59
59
59
59
58
53
0
0
0
0
0
0
0
0
0
0
0
0
0
0
0
0
0
0
0
0
0
0
0
0
0
0
0
0
0
0
0
0
0
0
0
0
0
0
0
0
0
0
0
0
0
0
0
0
0
0
0
0
0
0
0
0
0
0
0
0
0
0
0
0
0
0
0
0
0
0
0
0
0
0
0
0
0
0
0
34
13
0
0
0
0
0
33
44
52
61
68
71
65
41
0
0
0
0
0
0
0
0
0
0
0
0
0
0
0
69
70
68
67
62
58
0
0
0
0
59
0
0
0
0
0
0
0
0
0
0
0
0
0
0
0
0
0
45
59
0
0
0
0
0
0
0
0
0
0
0
0
0
0
0
0
0
0
0
0
0
0
0
0
0
0
0
0
0
0
0
0
0
0
0
0
0
0
0
0
0
0
0
0
0
0
0
0
0
0
0
0
0
0
0
0
0
0
0
0
0
0
0
0
0
0
0
0
0
34
0
0
0
0
69
76
77
77
77
78
78
76
73
42
0
0
0
0
0
0
0
0
0
0
0
0
36
72
76
79
78
78
77
73
60
0
0
0
0
0
0
0
0
0
0
0
0
0
0
59
59
53
0
0
0
0
58
0
0
0
0
0
0
0
0
38
70
70
64
52
44
36
0
0
0
0
0
0
0
0
0
0
0
0
0
0
0
0
0
0
0
0
0
0
0
0
0
0
0
0
0
0
0
0
0
0
0
0
0
0
0
0
0
0
0
0
0
0
0
0
0
0
0
0
0
0
0
0
0
0
0
69
66
36
23
14
6
3
9
35
72
72
43
0
0
0
0
0
0
0
0
0
0
0
72
74
66
4
7
13
16
72
74
59
0
0
0
0
35
61
64
64
64
63
0
0
0
0
0
0
0
0
0
0
0
0
0
35
61
64
64
39
46
73
76
78
77
75
74
71
51
0
0
0
0
0
0
0
0
0
0
0
0
0
0
0
0
0
0
0
0
0
0
0
0
0
0
0
0
37
0
0
0
0
0
0
0
0
0
0
0
0
0
0
0
0
0
0
0
0
0
0
0
0
0
0
0
0
65
69
22
1
0
0
0
4
6
4
35
69
76
74
74
73
73
69
51
41
49
44
38
46
75
64
3
0
0
0
4
15
71
71
0
0
0
35
68
77
78
78
78
76
67
0
0
0
0
0
0
0
0
0
0
0
41
68
77
78
76
75
75
75
79
28
28
36
44
61
73
52
0
0
0
0
0
59
58
53
53
53
0
0
0
0
0
0
0
0
0
0
0
0
0
0
0
0
0
0
45
0
0
0
0
0
0
0
0
0
0
0
0
0
0
0
0
0
0
0
0
0
0
0
0
0
0
0
70
44
4
41
72
86
89
79
51
11
7
37
61
61
63
67
71
75
75
72
74
75
74
74
76
61
0
1
78
77
9
4
69
72
62
61
42
68
79
41
14
10
10
57
74
69
65
73
73
73
74
72
64
39
0
41
68
79
41
14
43
50
63
70
16
7
1
2
4
24
62
72
43
0
0
0
0
0
0
0
0
0
0
0
0
0
34
68
69
66
64
64
64
64
64
64
60
0
0
0
0
59
59
53
0
0
0
0
0
0
0
0
0
0
0
0
0
0
0
0
0
0
0
0
0
0
0
0
72
36
2
66
90
87
79
82
82
41
3
9
5
1
1
1
5
23
66
71
45
32
34
44
52
46
0
5
89
87
10
3
69
77
76
72
67
77
41
9
1
0
0
7
55
75
78
78
77
74
71
72
77
77
41
56
75
41
9
7
1
1
8
59
14
1
23
37
20
4
32
76
54
0
0
0
0
0
0
0
0
0
0
0
0
43
74
76
78
78
78
78
78
78
78
78
76
63
0
0
0
0
0
0
0
0
0
0
0
0
0
0
0
0
0
0
0
0
0
0
0
0
0
0
0
0
0
0
74
29
1
71
91
9
10
55
84
42
0
6
21
26
26
22
12
4
17
16
7
2
1
1
2
2
0
9
92
87
4
3
11
12
14
65
75
79
27
2
44
75
25
2
6
65
34
9
3
1
1
10
39
77
74
74
79
27
11
11
19
14
0
8
5
0
42
86
54
1
30
77
74
67
52
55
69
63
55
46
41
38
0
0
42
72
68
41
1
4
8
10
10
10
10
13
68
75
62
0
0
0
0
0
0
0
0
0
36
36
36
36
0
0
25
41
44
53
62
69
54
0
0
0
0
0
37
36
74
26
1
78
82
27
34
68
67
19
1
30
73
78
79
80
62
20
0
0
8
37
54
50
31
11
0
14
91
87
4
1
1
1
4
12
65
31
4
0
54
87
32
3
0
7
4
0
0
0
0
0
1
36
74
78
62
33
6
16
64
85
24
4
0
1
37
89
56
1
20
51
55
69
77
75
79
77
77
76
76
75
71
57
54
66
37
0
1
0
0
0
0
0
0
0
11
67
74
69
70
73
72
68
72
74
74
74
75
75
75
74
68
62
69
76
77
77
77
79
74
62
0
0
0
0
0
40
75
21
0
82
92
92
92
88
64
21
1
31
52
36
37
64
86
54
1
12
69
82
88
89
79
42
4
18
91
87
1
14
67
75
16
4
64
24
2
54
84
91
84
80
14
0
6
45
70
78
72
46
6
4
37
68
52
11
6
21
64
89
39
8
0
0
37
89
56
0
1
1
8
33
66
59
27
16
20
29
34
42
58
71
73
64
34
6
43
92
88
86
82
82
77
13
1
65
78
78
76
70
67
71
69
50
46
41
41
40
40
47
66
75
57
34
22
14
6
19
55
72
58
0
0
0
0
45
76
14
4
83
87
64
58
70
84
50
8
18
37
41
44
63
88
59
6
37
90
81
41
32
60
49
11
22
91
83
8
72
87
39
6
3
64
24
2
61
81
92
92
91
45
3
24
60
82
89
88
78
48
13
9
44
61
14
9
70
87
89
77
56
24
1
33
89
67
14
21
20
11
5
21
10
0
1
0
0
1
4
20
51
72
64
31
6
38
82
88
92
92
89
90
15
0
31
10
1
1
2
12
35
32
1
1
1
2
1
1
8
34
39
15
2
0
0
0
1
11
54
72
40
0
0
0
48
77
11
10
84
67
6
6
46
86
59
22
45
67
54
44
69
88
53
10
48
87
57
10
1
14
15
5
29
90
85
67
89
35
6
1
44
74
46
10
17
56
84
81
62
35
6
39
84
77
59
62
78
81
42
1
21
71
17
0
60
86
92
92
91
60
4
20
91
81
56
84
84
54
7
0
1
10
48
63
61
46
24
6
16
53
67
42
9
0
0
0
4
55
90
65
4
0
1
1
9
13
16
10
1
1
22
37
27
34
45
38
15
7
5
6
46
77
89
68
26
1
24
67
46
0
0
0
51
77
8
16
84
72
43
49
71
87
46
24
65
81
51
40
68
87
47
7
42
88
73
14
5
31
20
5
35
90
84
75
92
31
3
4
63
72
64
29
4
18
69
75
19
0
7
44
87
58
8
8
41
90
72
0
2
73
27
4
14
55
84
83
76
60
4
11
91
91
87
85
89
87
36
0
4
70
85
89
90
86
68
28
2
31
67
69
39
4
0
7
41
89
78
6
0
0
11
63
85
88
77
48
12
0
46
83
73
79
89
82
45
8
1
58
89
89
84
87
72
10
20
61
45
0
0
0
54
78
7
19
83
92
91
89
79
54
18
9
48
79
79
72
74
81
41
1
24
72
88
91
84
83
38
9
44
90
72
27
89
83
11
1
24
62
77
67
18
5
63
89
24
0
1
39
90
54
0
0
2
90
91
8
0
60
67
29
4
21
67
84
22
0
0
3
89
91
43
9
52
89
57
4
20
82
77
39
34
60
83
54
9
25
62
67
43
9
9
41
84
72
19
0
0
4
79
88
73
68
78
81
38
1
46
91
77
53
57
82
63
11
19
89
70
17
27
74
76
20
20
61
44
0
0
0
57
74
8
14
51
47
42
39
28
11
4
1
13
26
31
28
26
32
18
3
6
24
56
74
84
58
19
3
50
88
62
7
49
92
64
18
5
32
74
74
29
2
53
87
40
9
1
26
81
77
21
2
24
79
86
24
0
44
79
59
17
6
62
92
26
1
0
1
79
88
19
1
26
80
64
11
26
77
87
72
59
69
85
61
15
25
60
46
11
6
36
79
72
31
0
0
3
34
89
60
7
9
48
89
44
1
46
90
54
9
22
73
66
8
34
91
87
75
67
59
45
13
20
62
41
0
0
0
62
72
24
3
0
0
0
0
2
13
36
29
9
2
2
2
4
5
6
24
22
4
0
0
0
1
1
0
21
45
38
1
9
73
86
49
6
9
54
77
37
7
40
80
78
65
25
11
60
87
70
56
62
79
75
39
0
11
78
76
27
1
55
87
41
10
1
1
68
88
26
0
19
72
69
18
21
72
83
54
41
43
43
30
7
25
50
25
4
36
72
77
34
1
0
0
5
45
85
46
2
5
46
89
42
1
46
89
41
0
17
73
64
2
30
88
65
29
32
32
21
1
27
69
39
0
0
0
56
75
67
31
34
41
45
47
50
58
69
67
58
55
55
54
53
54
50
62
59
44
31
24
18
11
33
9
1
1
2
4
1
0
39
43
18
3
49
73
46
13
17
58
87
88
54
4
23
71
87
90
91
89
82
36
0
8
75
78
33
4
44
82
79
66
25
3
57
89
34
0
16
66
72
23
8
57
84
67
50
48
46
24
1
31
49
17
17
62
89
72
39
31
26
16
9
39
87
69
36
41
72
76
29
1
46
89
41
0
17
74
63
1
10
73
86
90
92
91
60
3
33
74
0
0
0
0
0
54
73
77
77
76
76
76
75
73
61
67
73
73
73
74
74
72
71
70
72
74
76
77
77
77
77
66
56
47
34
26
24
0
0
0
1
0
41
69
63
29
6
21
66
78
63
2
1
16
66
86
89
77
43
9
1
31
68
78
43
9
18
61
87
87
42
3
45
87
42
0
13
60
72
26
1
26
63
83
90
92
91
47
2
37
54
17
24
69
92
92
92
92
92
71
18
18
71
86
90
89
81
50
9
0
46
87
40
0
16
75
59
0
2
20
46
57
59
59
39
1
34
74
0
0
0
0
0
0
46
45
36
33
0
0
0
0
0
0
0
0
0
0
0
0
0
0
0
25
35
44
51
57
71
72
73
74
75
77
77
79
34
19
7
41
60
71
73
59
19
1
0
1
4
0
5
2
8
14
16
16
11
2
22
55
71
76
63
27
6
23
52
58
36
1
19
57
34
1
6
30
36
14
1
5
19
37
44
45
44
23
1
37
56
19
11
33
45
45
54
58
60
50
14
2
20
56
67
62
41
14
0
1
21
42
19
1
6
17
6
1
12
4
1
0
0
0
0
12
54
74
0
0
0
0
0
0
0
0
0
0
0
0
0
0
0
0
0
0
0
0
0
0
0
0
0
0
0
0
0
0
0
0
0
0
37
49
59
74
77
77
77
71
72
63
63
73
63
14
1
0
0
8
44
25
6
1
1
1
5
19
45
67
67
63
71
58
21
2
0
0
0
2
0
0
1
8
13
0
0
6
21
24
7
1
0
0
0
0
19
57
67
39
10
0
0
0
0
0
0
0
1
6
2
0
0
0
1
7
21
20
1
1
3
20
14
0
0
31
64
31
23
27
27
27
28
49
76
51
0
0
0
0
0
0
0
0
25
19
5
0
0
0
0
0
0
0
0
0
0
0
0
0
0
14
26
13
0
0
0
0
0
0
0
0
0
0
45
60
74
73
56
36
0
57
76
72
64
58
54
57
67
63
50
43
40
29
32
42
61
72
55
25
56
74
63
19
9
9
10
19
11
12
14
26
52
21
25
36
57
61
46
41
39
39
39
39
58
75
74
67
49
39
39
39
29
26
21
16
16
58
24
6
7
11
16
33
62
61
30
34
41
58
57
54
64
74
76
77
77
77
77
77
77
75
59
0
0
0
0
0
0
0
0
0
0
0
0
0
0
0
0
0
0
0
0
0
0
0
0
0
0
0
0
0
0
0
0
0
0
0
25
0
0
0
0
0
0
0
0
0
0
0
56
72
74
75
75
75
72
72
76
77
77
77
77
77
72
62
0
0
0
60
76
76
76
76
76
76
77
78
78
77
76
77
77
77
74
70
75
76
76
76
76
76
74
55
46
64
75
76
76
77
77
77
77
78
78
76
77
76
77
78
78
77
73
75
76
76
75
74
74
75
74
74
53
66
64
60
55
55
48
46
0
0
0
0
0
0
10
0
26
27
23
20
18
15
13
11
9
9
9
9
9
9
11
11
14
14
17
20
22
25
30
10
0
0
0
0
0
0
0
0
0
0
0
0
0
0
0
0
0
0
0
25
36
46
45
46
54
59
62
63
65
65
57
0
0
0
0
0
54
72
74
75
74
74
72
72
72
69
67
65
62
59
49
38
45
44
36
36
36
36
36
0
0
0
36
36
36
47
49
56
61
68
72
72
70
73
73
73
70
65
54
56
54
49
45
41
34
0
0
0
0
0
0
0
0
0
0
0
0
0
0
0
0
0
19
28
20
0
0
0
0
0
0
0
0
0
0
0
0
0
0
0
0
0
0
0
0
0
12
28
25
1
9
16
26
10
0
0
0
0
0
14
0
0
30
0
0
0
0
0
0
0
0
0
0
0
0
0
0
0
0
0
0
0
0
0
0
0
0
0
0
0
0
0
0
0
0
0
0
0
0
0
0
0
0
0
0
0
0
0
0
0
0
0
0
0
0
0
0
0
0
0
0
0
0
0
0
0
0
0
0
0
0
0
0
0
0
0
0
0
0
0
0
0
0
0
0
0
37
0
0
0
0
0
0
0
0
0
0
0
0
0
0
0
0
0
0
0
0
0
0
0
0
0
0
0
0
0
0
0
0
0
5
29
14
29
0
0
0
0
0
0
0
0
5
26
0
0
0
0
0
0
0
0
0
0
0
0
0
0
0
5
0
0
0
0
0
0
0
0
0
0
0
0
0
0
0
0
0
0
0
0
0
0
0
0
0
0
0
0
0
0
0
0
0
0
0
0
0
0
0
0
0
0
0
0
0
0
0
0
0
0
0
0
0
0
0
0
0
0
0
0
0
0
0
0
0
0
0
0
0
0
0
0
0
0
0
0
0
0
0
0
0
0
0
0
0
0
0
0
0
0
0
0
0
0
0
0
0
0
0
0
0
20
16
4
16
30
0
0
0
0
0
0
0
0
0
0
0
0
0
0
0
0
0
0
10
10
0
0
0
0
30
0
0
0
0
25
30
34
36
30
21
0
0
0
0
0
0
0
0
0
0
0
0
0
0
0
0
0
0
0
0
0
0
0
0
0
0
0
0
0
0
0
0
0
0
0
0
0
0
0
0
0
0
0
0
0
35
35
35
0
0
0
0
0
0
0
