P2
# CREATOR: GIMP PNM Filter Version 1.1
128 32
255
0
0
0
0
0
0
0
0
0
0
0
0
0
0
0
0
0
0
0
0
0
0
0
0
0
0
0
0
0
0
0
0
0
0
0
0
0
0
0
0
0
0
0
0
0
0
0
0
0
0
0
36
37
40
32
0
0
0
0
0
0
0
0
0
0
0
0
0
0
0
0
0
0
0
0
0
0
0
0
0
0
0
0
0
0
0
0
0
0
0
0
0
0
0
0
0
0
0
0
0
0
0
0
0
0
0
0
0
0
0
0
0
0
0
0
0
0
0
0
0
0
0
0
0
0
0
0
0
0
0
0
0
0
0
0
0
0
0
0
0
0
0
0
0
0
0
0
0
0
0
0
0
0
0
0
0
0
0
0
0
0
0
0
0
0
0
0
0
0
0
0
0
0
0
0
0
0
0
0
0
0
0
0
0
0
0
0
0
0
0
0
0
0
0
0
0
0
0
0
0
0
0
0
0
0
0
0
0
0
0
0
0
0
0
0
0
0
0
0
0
0
0
0
0
0
0
0
0
0
0
0
0
0
0
0
0
0
0
0
0
0
0
0
0
0
0
0
0
0
0
0
0
5
32
35
0
0
0
0
0
0
0
0
0
0
0
0
0
0
0
0
0
0
0
0
0
0
0
0
0
0
0
0
0
0
0
0
0
0
0
0
0
0
0
0
0
0
0
0
0
0
0
0
0
0
0
0
0
0
0
0
0
0
0
0
0
0
0
0
0
0
0
0
0
0
0
0
0
0
0
0
0
0
0
0
0
0
0
0
0
0
0
0
0
0
0
0
0
0
0
0
0
0
0
0
0
0
0
0
0
39
42
37
34
34
34
37
41
40
30
30
30
27
21
5
2
2
5
5
5
2
0
0
0
0
0
0
0
0
0
0
0
0
0
0
0
0
0
0
0
0
0
0
0
0
0
0
0
0
0
0
0
0
0
0
0
0
0
0
0
0
0
0
0
0
0
0
0
0
0
0
0
0
0
0
0
0
0
0
0
0
0
0
0
0
0
0
0
0
0
0
0
0
0
0
0
0
0
0
0
0
0
0
0
0
0
0
0
0
0
0
0
0
0
0
0
0
0
0
0
0
0
0
0
0
0
0
0
0
0
10
10
10
10
10
10
13
13
13
13
17
17
17
13
7
2
0
0
0
0
0
0
0
0
0
0
0
0
0
0
0
0
0
0
0
0
0
0
0
0
0
0
0
0
0
23
0
0
0
0
0
0
0
0
0
0
0
0
0
0
0
0
0
2
0
0
0
0
0
0
0
0
0
0
0
0
0
0
0
0
0
0
0
0
0
0
23
31
31
31
31
23
23
0
0
0
0
0
0
0
0
0
0
0
0
0
0
0
0
0
0
0
0
0
0
0
0
0
0
0
0
0
0
0
0
0
0
0
0
0
0
0
0
0
0
0
0
0
0
0
0
0
0
0
0
0
0
0
0
0
0
0
0
0
0
0
0
0
0
0
0
0
0
0
0
0
0
0
0
0
0
0
0
0
0
0
0
0
0
0
0
0
0
0
31
0
0
0
0
0
0
0
0
0
0
0
0
0
0
0
0
0
0
0
0
0
0
0
0
0
0
0
31
0
0
0
0
0
0
0
0
0
0
0
0
0
0
0
0
0
0
2
0
0
0
0
0
0
0
0
0
0
0
0
0
0
0
0
0
0
0
0
0
0
0
0
0
0
0
0
0
0
0
0
0
0
0
0
0
0
0
0
0
0
0
0
0
0
0
0
0
0
0
0
0
0
0
23
31
39
0
0
0
0
0
0
0
0
0
0
39
0
0
0
69
71
71
71
70
59
0
0
0
0
31
0
0
0
0
0
0
31
31
23
0
0
0
0
0
0
0
0
0
0
0
0
23
39
39
39
0
0
0
0
0
0
0
0
0
0
0
0
0
0
0
0
0
0
2
0
0
0
0
0
0
39
39
31
23
23
0
0
0
0
0
0
0
0
0
0
0
0
0
0
0
0
0
0
0
0
0
0
0
0
0
0
0
0
0
0
0
0
0
0
0
0
0
0
0
0
0
23
31
39
31
0
0
0
0
0
0
0
0
0
23
23
23
31
0
0
0
71
77
74
74
74
74
73
66
0
0
0
0
0
0
0
0
0
0
0
0
0
0
0
0
0
0
0
0
0
0
0
31
0
0
0
0
0
0
0
53
62
62
62
62
57
0
0
0
0
0
0
0
0
0
0
0
0
0
0
0
0
0
0
2
0
0
0
0
39
39
31
23
0
0
0
0
0
0
0
0
0
0
0
0
0
0
0
0
0
0
0
0
0
0
0
0
0
0
0
0
0
0
0
0
0
0
0
0
0
0
0
0
0
0
0
0
0
0
0
0
0
0
0
0
0
0
0
69
77
71
4
4
4
12
76
74
61
0
0
0
0
0
2
0
0
0
0
0
0
0
0
23
39
39
39
39
39
31
39
0
0
0
0
0
0
0
54
75
78
77
77
77
73
59
0
0
0
0
31
39
39
23
0
0
0
0
0
0
0
0
0
0
0
0
0
0
0
0
0
0
0
0
0
0
0
0
0
0
0
0
0
0
0
0
0
0
0
0
0
0
0
0
0
0
0
0
0
0
0
0
0
0
0
0
0
0
0
0
0
0
10
49
66
64
41
0
0
0
0
0
0
0
0
0
0
74
73
4
0
5
4
4
9
74
71
0
0
0
0
30
58
74
73
73
69
63
13
0
0
0
0
0
0
0
0
0
0
0
0
35
61
64
64
69
76
79
11
7
7
16
72
73
59
0
0
0
0
0
0
0
0
0
0
0
0
0
10
41
43
38
29
2
0
0
0
0
0
0
0
0
0
0
0
0
0
0
0
0
0
0
0
0
0
0
0
0
0
0
0
0
0
0
0
0
0
0
0
0
0
0
0
0
0
0
32
59
69
74
76
77
78
73
69
43
0
24
34
44
42
41
62
69
71
74
73
0
6
87
77
0
4
72
72
57
44
30
37
62
75
71
77
78
78
76
67
13
0
0
0
0
0
0
0
0
0
0
35
68
77
78
78
78
77
7
0
0
0
4
16
71
71
0
0
0
0
0
0
0
0
0
0
0
0
2
45
66
74
76
75
74
74
71
62
51
42
26
0
0
0
0
0
0
0
0
0
0
0
0
0
0
0
0
0
0
0
0
0
0
0
0
0
0
0
0
0
0
0
0
31
0
0
33
69
77
77
64
34
18
9
36
66
76
74
75
76
76
72
72
78
78
74
74
69
0
6
91
82
1
3
69
76
74
72
64
62
74
62
26
1
5
10
57
74
67
59
64
64
64
64
64
58
36
0
35
68
79
41
6
5
3
59
0
2
87
79
4
4
69
72
63
43
42
59
37
28
5
0
0
0
0
0
41
64
69
57
51
62
69
77
78
77
77
77
74
59
0
0
0
0
31
39
39
23
23
23
23
23
23
31
31
31
23
23
39
39
39
0
0
0
0
0
0
0
0
0
0
32
0
32
69
79
15
0
0
0
0
4
8
34
67
57
44
34
34
62
71
29
4
4
4
3
0
6
91
82
1
3
13
22
29
57
72
74
68
25
1
0
0
0
7
55
74
77
77
78
78
78
78
77
72
41
53
75
41
9
0
0
0
1
0
9
91
87
4
3
69
77
77
73
73
69
74
74
73
72
62
52
38
29
49
68
49
19
0
0
0
1
11
20
29
38
62
75
64
0
0
0
0
0
0
0
0
0
0
0
0
0
0
0
0
0
0
0
0
0
0
0
0
2
0
0
0
0
0
29
0
55
77
15
1
39
62
74
81
51
14
14
6
1
1
1
4
23
15
0
4
9
9
4
0
11
91
82
1
1
1
1
4
21
57
71
59
14
0
51
84
25
2
6
65
40
18
11
10
10
17
40
74
73
74
79
27
1
54
89
19
0
0
14
91
85
1
2
11
11
33
72
75
65
60
64
74
78
77
76
71
57
57
62
29
4
10
11
2
0
0
0
0
1
19
64
75
68
0
0
0
0
0
0
0
0
0
0
0
0
0
0
0
0
0
0
0
0
10
21
0
0
0
0
0
0
0
0
0
64
77
7
34
87
92
91
86
81
0
1
18
37
51
51
20
2
0
17
68
87
82
47
1
11
91
82
1
14
59
64
24
5
31
55
15
0
0
58
87
32
3
0
7
4
1
0
0
0
1
4
36
74
78
31
1
0
62
88
30
12
1
16
91
85
1
0
0
0
3
31
46
36
16
4
6
19
28
41
59
71
73
64
29
9
47
92
89
78
67
57
49
21
1
17
74
74
70
65
63
63
57
60
62
62
62
62
62
62
62
62
43
45
66
72
73
74
74
70
54
25
0
0
0
0
0
0
0
67
67
5
49
89
19
6
57
58
0
16
70
75
74
83
65
2
8
81
88
75
77
72
15
13
91
82
7
71
84
52
19
4
31
56
15
6
70
89
91
84
80
14
0
6
45
70
78
72
46
6
4
36
74
25
1
63
92
92
91
74
5
16
91
87
42
77
77
54
8
8
12
6
2
0
0
0
1
5
21
51
72
64
29
6
38
82
92
92
92
90
89
54
3
14
67
76
78
78
77
77
77
76
77
77
77
77
77
77
77
77
74
74
78
72
67
59
54
62
71
58
25
0
0
0
0
0
0
69
47
3
63
90
16
31
77
13
1
26
49
24
19
78
82
1
35
88
59
8
15
37
9
19
91
85
69
88
46
16
4
19
49
56
14
7
69
90
92
92
90
16
1
60
85
90
91
90
87
50
5
8
70
25
1
67
92
91
83
64
4
11
91
92
89
89
91
88
40
10
0
6
19
51
57
51
37
20
5
16
52
68
42
9
0
0
6
19
54
82
83
49
2
5
24
6
4
6
9
18
40
74
20
11
11
15
13
12
12
32
75
72
25
4
1
1
5
21
51
71
57
21
0
0
0
0
26
72
36
1
72
92
92
92
90
65
8
16
42
62
75
91
79
5
48
83
44
2
6
13
4
24
91
85
75
91
36
6
3
40
70
64
27
2
3
60
90
39
13
1
21
82
82
29
14
39
85
82
9
0
69
26
1
3
60
89
24
0
0
5
92
91
43
16
52
87
68
27
2
14
72
81
86
89
85
66
29
2
24
67
69
41
2
0
0
16
59
82
59
24
0
0
3
6
1
0
0
1
4
11
1
0
0
1
0
0
0
3
30
11
1
9
19
26
19
6
16
53
72
43
0
0
0
0
34
74
26
1
82
88
59
15
82
74
23
48
67
31
14
90
73
5
41
87
67
39
48
51
14
28
90
71
27
87
80
19
2
26
62
78
64
17
6
62
90
28
3
0
31
84
62
8
0
4
81
90
11
0
69
74
24
1
59
91
25
0
0
1
89
87
14
1
27
67
77
40
4
26
81
80
60
51
66
84
62
10
17
59
72
59
16
0
6
56
82
67
26
2
0
9
32
64
84
88
76
46
6
0
0
67
56
44
69
75
54
4
0
1
24
72
87
85
66
29
2
31
67
49
0
0
0
0
42
75
16
1
83
62
0
31
84
64
24
70
81
55
75
88
64
1
23
68
85
89
82
46
8
33
89
63
8
49
89
62
12
4
41
72
62
21
8
62
90
36
8
0
27
84
77
17
2
27
84
84
9
0
69
79
32
3
58
89
34
6
0
1
87
87
10
0
12
52
82
46
1
31
77
87
66
40
49
79
70
20
17
58
63
27
0
0
52
81
74
34
5
0
4
36
82
87
83
88
91
89
50
6
1
79
88
86
89
91
89
38
0
12
82
82
62
67
83
54
9
25
62
49
0
0
0
0
51
77
8
12
84
83
91
89
74
28
9
51
81
87
57
55
44
1
6
23
41
44
34
13
0
21
54
41
1
11
67
88
34
5
34
67
59
20
9
54
92
90
87
16
8
75
89
83
81
84
90
50
5
6
70
78
33
3
49
87
85
82
16
2
81
89
41
0
10
46
85
55
4
23
71
85
70
57
59
59
45
13
17
51
43
1
6
40
82
80
41
9
0
0
12
52
84
58
9
5
36
89
83
8
1
82
91
49
15
52
90
54
2
38
87
64
37
54
84
61
15
25
62
48
0
0
28
0
61
76
7
23
84
89
74
55
25
4
1
9
6
2
0
1
4
15
21
5
1
1
1
11
10
1
1
2
4
3
0
0
2
1
37
67
64
30
5
20
72
89
77
12
1
21
63
84
89
79
47
39
9
14
54
78
52
14
17
59
87
87
42
3
41
87
54
0
6
36
91
61
13
8
55
84
64
36
32
24
17
1
14
51
28
4
26
89
87
43
11
0
0
0
16
57
82
44
1
1
13
91
91
4
1
82
88
13
0
27
91
54
5
46
89
76
56
45
45
30
7
26
62
45
0
0
34
0
67
68
7
18
1
0
0
0
9
33
30
7
2
12
22
29
36
52
59
46
42
44
45
54
51
43
39
36
35
31
17
10
0
39
63
72
73
56
22
2
0
0
1
0
5
2
6
9
41
45
31
11
6
32
64
76
65
30
6
23
49
51
29
1
19
61
50
0
1
24
82
64
20
1
24
67
86
90
92
91
77
4
11
67
29
7
55
92
91
78
64
54
50
28
14
52
86
67
33
27
53
89
74
0
1
88
87
3
0
30
88
49
5
41
84
64
48
46
46
24
1
33
69
43
0
0
27
0
67
65
27
1
1
13
20
32
52
70
69
72
78
77
77
75
73
72
72
74
74
74
74
74
74
74
74
74
75
77
77
77
77
75
74
46
57
70
58
28
15
8
1
11
54
24
5
1
0
0
1
6
21
57
72
65
72
59
21
2
0
0
1
2
0
0
0
3
1
4
21
29
15
1
4
19
58
76
82
82
78
4
5
71
33
1
44
89
92
92
92
92
92
55
12
26
66
84
89
89
85
73
30
0
4
91
87
0
1
34
86
44
1
23
67
84
90
92
91
47
2
42
74
29
0
0
21
0
52
74
62
77
78
77
77
76
74
59
68
72
62
54
49
39
32
31
29
29
29
27
27
26
28
28
30
31
35
41
46
54
59
65
30
0
13
51
72
77
77
78
78
77
76
72
44
32
24
19
12
21
49
76
70
31
59
75
65
16
3
3
1
12
3
2
2
4
30
14
0
0
1
5
11
1
0
0
2
2
4
0
0
71
41
2
4
10
15
21
30
36
43
28
6
4
20
37
51
54
41
19
0
0
9
82
77
0
2
29
64
27
1
5
21
37
44
45
44
21
1
46
74
10
0
0
25
0
0
50
72
74
65
58
49
35
25
0
0
0
0
0
0
0
0
0
0
0
0
0
0
0
0
0
0
0
0
0
0
0
0
0
0
0
0
0
29
44
52
59
67
73
62
71
75
77
77
78
76
73
72
74
42
0
5
56
72
68
65
64
64
64
60
56
51
46
52
51
13
8
6
33
64
24
6
0
0
0
0
0
50
73
71
39
6
0
0
0
0
0
0
0
15
20
6
1
1
0
1
8
16
15
0
0
0
4
8
0
0
4
18
22
7
1
0
0
0
0
26
67
73
0
0
0
0
0
0
0
31
0
0
0
0
0
0
0
0
0
0
13
26
31
27
10
0
0
0
0
0
0
0
0
0
10
27
32
29
23
10
0
0
0
0
0
0
0
0
0
0
0
0
36
50
59
70
73
74
74
68
50
21
0
0
13
52
72
75
75
75
75
75
75
77
77
77
76
79
74
71
72
74
68
64
60
58
56
54
54
69
74
74
68
58
52
51
49
45
41
41
39
54
59
46
41
40
40
36
44
64
62
19
16
14
26
52
19
25
36
59
62
46
41
39
39
41
44
66
74
24
0
0
0
0
0
0
0
0
0
0
0
21
31
0
0
0
0
0
0
0
0
0
0
0
0
0
0
0
0
0
0
0
0
0
0
0
0
0
0
0
0
0
0
0
32
21
0
0
0
0
0
0
0
0
2
24
31
31
24
0
0
0
0
7
46
59
62
63
64
66
67
69
72
71
72
73
74
74
74
64
68
74
76
76
76
76
76
74
48
42
64
74
76
76
76
76
76
76
76
75
74
74
75
75
75
75
73
72
74
77
77
77
77
76
77
77
77
72
69
75
76
76
76
76
76
74
34
0
0
0
0
0
0
0
5
17
0
0
0
0
0
0
0
0
0
0
27
27
24
21
13
10
5
2
0
0
0
0
2
5
10
13
17
23
25
30
10
0
0
0
0
0
0
0
0
0
0
27
7
0
0
0
0
0
0
0
0
0
0
31
0
0
0
0
0
0
0
0
0
0
0
0
2
10
21
26
29
27
29
34
36
36
36
36
36
36
2
0
25
34
34
34
34
36
36
36
36
36
35
35
36
36
36
36
32
38
44
46
50
54
55
54
53
50
48
41
34
35
36
36
36
34
31
25
0
0
0
0
31
10
0
0
0
0
0
0
0
0
0
0
0
0
10
29
13
0
0
0
0
0
0
0
0
0
0
0
0
0
0
0
0
0
0
0
13
28
25
0
0
0
17
30
0
0
0
0
0
0
0
0
27
27
2
0
0
0
31
0
0
0
0
0
0
0
0
0
0
0
0
0
0
0
0
0
0
0
0
0
0
0
0
0
0
0
0
0
0
0
0
0
0
0
0
0
0
0
0
0
0
0
0
0
0
0
0
0
0
0
0
0
0
0
0
0
0
0
0
0
0
0
0
0
0
0
0
0
0
0
0
0
0
0
0
0
0
0
0
0
0
0
0
0
0
0
0
0
0
0
0
0
0
0
0
0
0
0
0
0
0
0
0
0
0
0
0
0
0
0
0
0
28
23
0
31
0
0
0
0
0
0
0
0
0
0
0
0
0
0
0
0
0
0
0
0
10
31
31
25
17
10
2
0
0
0
0
0
0
0
0
0
5
13
17
17
24
24
29
29
29
29
29
29
29
29
29
30
30
30
30
30
30
24
21
13
2
0
0
0
0
0
0
0
10
17
24
24
29
31
32
10
0
0
0
0
0
0
0
0
0
0
0
0
0
0
0
0
0
0
0
0
0
0
0
0
0
0
0
0
0
0
0
0
0
0
0
0
0
0
0
0
0
0
0
0
0
0
0
0
0
0
0
13
21
0
0
17
32
0
0
0
0
0
0
23
0
0
0
0
0
0
0
0
0
0
0
0
0
0
0
0
0
0
0
0
0
0
0
0
0
0
0
0
0
0
0
0
0
0
0
0
0
0
0
0
0
0
0
0
0
0
0
0
0
0
0
0
0
0
0
0
0
0
0
0
0
0
0
0
0
0
0
0
0
