P2
# CREATOR: GIMP PNM Filter Version 1.1
128 32
255
0
0
0
0
0
0
0
0
0
0
0
0
0
0
0
0
0
0
0
0
0
0
0
0
0
0
0
0
0
0
0
0
0
0
0
0
0
0
0
0
0
0
0
0
0
0
0
0
0
0
0
0
0
0
0
0
0
0
0
0
0
0
0
0
0
0
0
0
0
0
0
0
0
0
0
0
0
0
0
38
0
0
0
0
4
23
34
34
34
34
37
38
38
37
37
34
23
8
0
0
0
0
0
0
0
0
0
0
0
0
0
0
4
37
8
37
4
0
0
0
0
0
0
0
0
0
0
0
38
0
0
0
0
0
0
0
0
0
0
0
0
0
0
0
0
0
0
0
0
0
0
0
0
0
0
0
0
0
0
0
0
0
13
0
0
0
0
0
0
0
0
0
0
0
0
0
0
0
0
0
0
0
0
0
0
0
0
0
0
0
0
0
0
41
55
46
28
23
23
23
23
18
8
0
0
0
0
0
0
0
8
23
38
39
39
39
23
8
0
0
0
0
0
0
0
0
23
0
0
0
0
0
0
0
0
0
0
0
0
0
0
0
0
0
0
0
0
0
0
0
0
0
0
0
0
0
13
13
28
34
37
38
38
38
38
37
34
34
34
34
28
13
0
0
0
0
0
0
0
0
0
0
18
22
0
0
0
0
0
0
0
0
22
23
8
0
0
0
0
0
0
0
0
0
0
0
0
0
0
0
0
0
0
0
0
0
0
0
0
13
23
34
39
39
39
28
8
4
0
0
0
13
0
0
0
0
0
8
0
0
0
0
0
0
0
0
0
0
0
0
0
0
0
0
0
28
0
0
0
0
0
0
0
0
0
0
0
0
0
0
0
0
0
0
0
0
0
0
0
0
0
0
0
0
0
8
0
0
8
18
23
34
34
39
39
40
40
39
39
39
34
23
4
0
0
0
0
0
0
28
0
0
0
0
0
0
0
0
0
0
0
0
0
18
0
0
0
0
0
0
0
0
0
0
0
0
0
0
0
0
0
0
0
0
0
0
23
0
0
0
0
0
0
0
0
0
0
0
0
0
23
0
0
0
18
0
0
0
0
0
0
0
0
0
0
0
0
0
0
0
0
0
0
18
34
28
13
0
0
0
0
0
0
0
0
0
0
0
0
0
0
0
0
0
0
8
4
0
0
0
0
0
0
13
0
0
0
0
0
0
0
0
0
0
0
0
0
0
0
0
4
8
0
0
0
0
0
0
0
0
0
0
0
0
0
0
0
0
0
0
0
0
34
34
37
37
38
37
34
34
28
23
8
0
0
0
0
0
0
0
23
34
34
37
0
0
0
0
0
0
0
0
0
0
0
0
0
0
0
23
0
23
18
0
0
0
0
0
0
0
0
0
0
0
0
0
0
0
0
0
0
0
37
37
34
34
34
28
23
13
0
0
0
0
0
0
0
0
0
0
23
28
34
37
13
13
0
0
0
0
0
0
0
0
0
0
0
0
0
0
0
0
0
0
0
0
0
0
0
10
10
0
0
0
2
0
0
0
0
0
0
0
0
0
0
0
0
0
0
0
0
0
0
0
0
0
0
0
0
0
0
13
0
0
0
0
0
13
0
0
0
0
0
0
0
0
0
0
0
0
0
0
0
0
0
0
0
4
39
40
0
0
0
0
0
0
0
0
0
0
0
0
0
0
0
0
0
0
0
0
0
0
4
23
34
40
40
39
39
38
37
34
34
34
34
34
38
39
40
34
0
0
0
0
18
0
0
0
0
0
0
0
0
0
0
0
0
0
0
0
0
0
0
0
0
0
0
0
0
0
0
0
0
0
0
0
0
0
0
0
0
0
0
0
0
0
0
0
0
0
0
0
0
0
0
0
0
0
0
0
0
0
0
0
0
0
0
0
0
0
0
0
0
0
0
0
0
0
0
0
0
0
0
0
0
0
0
0
0
0
0
0
0
0
0
0
0
0
0
0
0
0
0
0
0
0
0
0
0
0
0
0
0
0
0
0
0
0
0
0
0
0
0
0
0
0
0
0
0
0
0
0
0
23
0
0
0
0
0
0
0
0
0
0
0
0
0
0
0
0
0
0
0
0
0
0
0
0
0
4
0
0
0
0
0
0
0
0
0
0
0
0
0
0
0
0
0
0
0
0
0
0
0
0
0
0
0
0
0
0
0
0
0
0
0
0
0
0
0
0
0
0
0
0
0
0
0
0
0
0
0
0
0
0
0
0
0
0
0
0
0
0
0
0
0
0
0
0
0
0
0
0
0
0
0
0
0
0
0
0
0
0
0
0
0
0
0
0
0
0
0
0
0
0
0
0
0
0
0
0
0
0
0
0
0
0
0
0
0
0
0
0
0
0
0
0
0
0
0
0
0
0
0
0
0
0
0
0
0
0
0
0
0
0
0
0
0
0
0
0
0
0
0
0
0
0
0
0
0
0
0
0
0
0
0
0
0
0
0
0
0
0
0
0
0
0
0
0
0
0
0
0
0
0
0
0
0
0
0
0
0
0
0
0
0
0
0
0
0
0
8
23
39
39
39
39
39
23
8
0
0
0
0
0
0
0
0
0
0
0
0
0
0
0
0
0
0
0
0
0
0
0
0
0
0
0
0
0
0
0
0
0
0
0
0
0
0
0
0
0
0
0
0
0
0
0
0
0
0
0
0
0
0
0
0
0
0
0
0
0
0
0
0
0
0
0
23
0
0
0
0
0
0
0
0
0
0
0
0
0
0
0
0
0
0
0
0
0
0
0
0
0
0
0
0
0
0
0
18
53
62
68
70
59
0
0
0
0
0
0
0
0
0
0
0
0
0
46
74
75
76
76
76
76
76
75
74
59
0
0
0
0
0
0
0
0
0
0
0
0
0
0
0
0
0
0
0
0
0
0
0
0
0
0
0
0
0
0
0
0
0
0
0
0
0
0
0
0
0
0
0
0
0
0
0
0
0
0
0
0
0
0
0
0
0
0
0
0
0
0
70
72
73
73
72
51
0
0
0
0
0
0
0
0
0
0
0
0
0
0
0
0
0
0
0
0
0
0
0
0
0
0
0
0
0
0
61
75
77
77
78
73
62
0
0
0
0
0
0
0
0
0
0
0
0
74
72
63
61
59
59
59
61
64
69
76
67
0
0
0
0
0
0
0
0
0
0
0
0
0
0
0
0
0
0
0
0
0
0
0
0
0
0
0
0
0
0
0
0
0
0
0
0
0
55
68
66
57
54
50
49
46
41
4
0
0
0
0
0
0
0
0
0
0
0
0
0
71
76
62
57
51
61
74
51
0
0
0
0
0
0
0
0
0
0
0
0
0
0
0
0
0
0
0
0
0
0
0
0
0
0
0
0
43
76
51
26
21
20
74
73
63
0
0
0
0
0
0
0
0
0
0
53
75
49
1
0
0
0
0
0
1
7
68
75
57
0
0
0
0
0
0
0
0
0
0
0
0
0
0
0
0
0
0
0
0
0
0
0
0
0
0
0
0
0
0
0
0
0
0
0
53
72
76
77
77
77
77
77
77
74
66
41
0
0
0
0
0
0
0
0
0
0
0
54
76
68
4
3
4
24
61
72
18
0
0
0
41
68
75
74
74
74
67
0
0
0
0
0
0
0
0
0
0
0
0
0
49
74
74
74
75
69
29
1
1
4
20
68
71
0
0
0
0
0
0
0
0
4
4
58
60
19
1
0
0
0
0
0
0
0
18
59
73
54
18
0
0
0
0
0
0
0
0
0
0
0
0
0
0
0
0
0
37
49
62
55
0
0
0
0
0
0
0
0
0
0
0
52
71
78
45
28
29
32
34
38
41
51
67
68
41
0
0
0
0
0
0
0
0
0
0
54
77
4
1
15
16
4
36
74
52
28
0
41
69
70
57
56
61
69
75
72
0
0
0
0
0
0
0
0
0
0
0
42
74
77
70
67
67
58
2
11
42
20
4
57
73
61
43
46
69
72
73
73
74
70
57
62
58
17
16
50
62
62
62
60
56
21
1
39
75
75
75
74
74
72
68
71
69
63
54
49
44
43
44
52
42
47
70
74
75
77
78
74
59
0
0
0
0
0
0
0
0
0
0
57
75
45
14
1
0
0
0
0
2
11
36
66
68
46
4
0
0
4
0
0
8
39
44
66
77
3
4
87
64
1
31
76
74
72
64
67
66
47
14
1
1
6
61
76
67
59
55
57
54
53
53
49
18
0
0
67
80
34
1
1
6
46
0
20
86
52
1
48
77
76
71
71
77
78
77
71
68
68
72
73
62
24
17
65
92
92
92
90
89
49
3
22
54
52
51
51
52
62
72
77
78
77
77
76
76
76
76
77
72
76
72
52
34
19
20
55
71
58
0
0
0
0
0
0
0
0
0
57
76
29
4
27
45
45
42
38
29
13
9
35
67
76
74
74
74
74
69
63
68
74
75
77
77
10
1
91
72
1
20
51
47
57
73
77
57
17
5
12
10
1
3
57
74
76
77
77
77
77
77
75
67
40
46
71
51
9
0
0
0
1
0
13
90
65
1
20
40
44
66
74
46
20
9
4
2
20
55
73
64
29
9
35
54
54
63
82
86
49
2
6
14
3
1
1
3
12
38
75
12
16
21
29
32
29
26
36
72
69
19
1
1
0
0
14
69
63
0
0
0
0
0
0
0
0
0
57
76
29
3
46
84
92
91
88
78
50
14
9
36
57
54
54
53
56
63
73
65
47
38
33
27
5
1
91
78
0
3
3
4
21
56
62
36
8
14
63
84
21
1
6
60
51
33
27
29
29
34
47
68
69
67
77
41
6
30
64
25
1
0
4
91
74
0
2
1
8
34
42
18
2
0
0
0
0
8
56
70
43
10
0
0
3
29
74
72
28
0
1
9
23
30
30
24
8
0
1
0
0
0
1
1
1
0
4
31
10
4
39
64
66
25
2
52
60
0
0
0
0
0
0
0
0
0
59
76
29
3
48
87
73
53
60
79
80
40
3
10
6
1
1
1
6
26
49
32
8
1
1
1
0
1
88
82
0
9
29
22
5
39
49
11
6
27
69
89
27
2
0
14
14
6
1
0
0
2
11
38
67
77
58
21
2
39
81
43
6
0
1
90
84
4
11
14
10
6
14
5
26
54
67
62
23
0
9
69
71
39
5
1
19
62
81
41
3
0
11
45
75
87
88
77
48
9
0
2
79
56
42
65
72
54
5
0
4
55
86
91
91
71
3
54
56
0
0
0
0
0
0
0
0
0
62
77
27
3
49
87
53
6
19
61
83
45
0
3
14
21
24
21
14
7
10
6
16
36
49
39
10
1
88
84
4
41
79
42
4
31
52
12
17
74
92
91
87
79
21
1
3
21
40
44
41
31
12
9
37
68
47
8
22
63
87
76
62
22
2
71
87
42
83
85
55
7
0
10
52
84
89
87
77
14
0
52
74
55
9
10
49
83
55
10
0
4
35
84
79
62
64
79
83
46
0
9
91
91
89
91
91
92
36
1
35
82
43
12
69
69
2
56
51
0
0
0
0
0
0
0
0
0
64
77
26
2
49
87
71
46
51
72
70
26
0
16
65
79
82
81
62
21
0
14
56
83
89
80
33
4
86
86
19
80
56
11
11
41
54
13
11
64
90
92
92
90
32
2
29
62
81
88
88
77
48
13
9
47
50
9
34
81
92
92
91
39
3
62
90
82
90
91
89
36
0
21
82
76
44
59
84
38
1
51
69
27
4
35
79
67
21
0
0
10
51
84
49
6
9
47
89
64
0
18
91
84
31
6
54
87
47
7
62
87
79
90
71
4
9
64
44
0
0
0
0
0
0
0
0
0
67
78
17
2
51
87
92
92
92
88
64
20
1
21
72
57
48
64
86
51
4
38
84
71
46
60
34
5
82
87
69
80
22
1
24
68
66
26
2
5
61
89
51
31
11
11
52
84
71
54
59
78
80
39
1
33
54
11
16
56
84
74
49
20
1
57
91
67
34
52
89
57
1
34
88
64
37
67
88
45
4
49
57
1
16
69
77
35
1
0
0
14
57
81
42
2
4
40
90
57
1
24
90
71
0
5
39
84
38
16
69
79
17
11
35
5
19
74
4
0
0
0
0
0
0
0
0
0
67
76
12
1
55
87
65
46
51
71
85
57
8
9
30
20
24
43
89
57
10
53
81
39
4
15
9
2
79
89
77
84
32
3
21
64
77
69
18
1
59
87
41
8
0
18
62
80
41
5
9
48
89
56
0
27
64
29
4
24
74
60
13
0
1
50
89
43
6
24
77
62
1
37
91
84
67
54
36
15
1
48
33
4
42
89
72
45
43
43
29
14
51
86
67
41
45
67
82
43
0
33
89
56
0
7
50
78
28
8
67
89
91
92
90
2
28
74
0
0
0
0
0
0
0
0
0
0
68
72
9
1
59
88
41
5
6
43
84
70
24
23
59
69
67
74
89
57
12
57
79
37
4
22
21
4
79
87
23
85
72
17
4
30
74
73
26
1
54
84
49
13
1
17
62
79
39
3
5
40
90
59
0
24
78
61
14
23
73
64
16
1
0
46
89
39
0
17
71
66
3
28
89
67
27
33
50
21
1
64
34
8
60
92
92
92
92
92
48
9
26
62
83
89
87
77
51
14
0
32
89
55
0
10
55
72
20
1
19
63
67
43
0
7
58
73
0
0
0
0
0
0
0
0
0
0
69
68
8
0
72
89
72
55
50
66
86
64
25
49
84
53
21
42
89
57
7
47
87
67
55
70
39
6
79
87
1
49
84
56
5
11
57
74
27
1
48
82
79
64
26
11
51
86
67
41
43
66
84
50
0
24
78
62
18
21
71
77
51
26
2
44
89
41
0
16
69
68
7
4
81
88
90
92
91
33
1
68
34
6
39
44
37
29
22
18
6
1
2
12
24
30
34
25
10
0
1
21
51
26
1
6
26
22
4
6
1
1
0
4
19
49
74
18
0
0
0
0
0
0
0
13
0
34
70
62
8
5
73
89
92
91
89
81
64
30
10
41
81
79
70
77
84
54
1
26
67
85
88
72
24
1
78
84
0
9
61
54
15
11
57
77
34
3
18
64
87
85
41
4
25
65
84
89
89
82
62
21
4
33
78
64
20
14
57
87
89
51
4
40
87
45
0
14
67
67
12
0
15
60
67
60
40
9
0
71
40
6
0
0
0
0
0
0
1
59
23
5
1
1
1
6
21
39
21
1
1
3
22
14
0
0
27
66
31
32
79
77
77
74
34
0
0
0
0
0
0
0
0
8
0
42
71
63
25
2
0
0
9
26
31
29
17
5
1
14
41
54
51
41
46
30
2
6
21
35
33
21
4
0
4
1
4
1
0
0
4
22
58
76
66
18
4
16
29
31
18
2
5
21
43
54
54
44
19
3
21
57
76
68
31
6
23
51
53
26
1
21
47
24
1
6
25
21
4
6
0
0
0
0
0
0
57
76
72
45
48
57
68
77
78
78
77
76
77
77
78
77
72
69
69
75
62
54
54
57
69
64
68
76
77
72
76
74
62
51
28
0
0
0
0
0
0
0
0
0
0
0
0
0
51
74
62
31
16
8
1
0
0
2
11
28
26
9
1
1
2
2
4
5
19
22
5
1
1
3
24
6
2
5
16
26
21
24
34
63
74
72
76
63
21
3
0
0
4
19
23
6
1
0
0
1
6
22
57
73
66
72
59
21
3
0
0
2
4
1
1
3
16
14
0
0
19
62
24
14
17
29
49
60
76
69
67
74
75
74
74
64
56
50
46
45
48
51
54
62
65
69
61
69
72
72
72
72
72
73
69
64
51
28
0
0
0
0
0
0
0
0
0
0
0
0
0
0
0
57
0
0
0
52
72
76
77
77
78
78
74
60
60
67
64
50
42
40
40
41
43
44
59
60
51
50
54
60
74
76
78
77
77
77
77
77
76
72
58
0
59
74
67
57
50
46
44
57
61
43
35
30
29
29
38
59
72
52
4
54
72
59
31
26
30
34
38
36
36
39
54
54
48
54
65
76
78
78
77
76
75
74
72
0
0
0
0
0
0
0
0
0
0
0
0
0
0
0
0
0
0
0
0
0
0
0
0
0
0
0
0
0
0
0
0
0
0
0
0
0
0
0
0
0
0
0
0
55
54
0
0
0
0
0
0
47
57
63
69
74
70
61
67
74
74
74
74
74
73
72
70
72
74
74
73
72
71
68
65
60
55
51
46
46
48
45
0
0
0
57
72
74
75
75
76
72
72
75
76
76
77
77
75
69
50
0
0
0
54
73
77
77
77
77
76
75
75
75
74
74
75
75
74
51
62
59
47
0
0
0
0
0
0
0
0
0
0
0
0
0
0
0
0
0
0
0
0
0
0
0
0
0
0
0
0
0
0
0
0
0
0
0
0
0
0
0
0
0
0
0
4
0
0
0
0
34
54
50
0
0
0
0
0
0
0
0
0
0
0
0
0
0
0
0
0
0
0
0
0
0
0
0
0
0
0
0
0
0
0
0
0
0
0
0
0
0
0
0
0
0
0
0
23
23
23
39
41
44
45
46
46
23
0
0
0
0
0
42
47
46
44
42
39
37
37
34
13
0
0
0
0
0
0
0
0
0
0
0
0
0
0
0
0
0
0
0
0
0
0
0
0
0
0
0
0
0
0
0
0
0
0
0
0
0
0
0
0
0
0
0
0
0
0
0
0
0
0
0
0
0
0
0
0
0
28
51
56
58
59
58
52
46
41
13
0
0
0
0
0
0
0
0
0
0
0
0
0
0
0
0
0
0
0
0
0
0
0
0
0
0
0
0
0
39
0
0
0
0
0
0
0
0
0
0
0
0
0
0
0
0
0
0
28
0
0
0
0
0
0
0
0
0
0
0
0
0
0
0
0
0
0
0
0
0
0
0
0
0
0
0
0
0
0
0
0
0
0
0
0
0
0
0
0
0
0
0
0
0
0
0
0
0
0
0
0
0
0
0
0
0
0
0
0
0
0
0
0
0
0
0
0
0
0
0
0
0
41
49
55
55
56
56
57
57
58
57
58
59
59
59
57
57
57
59
58
59
59
58
58
58
57
57
57
57
57
57
57
57
57
56
55
54
57
57
53
46
41
38
23
8
0
0
0
0
0
0
0
0
18
46
54
42
0
0
0
0
0
0
0
0
0
0
0
0
0
0
0
0
0
0
0
0
0
0
0
0
0
0
0
0
0
0
0
0
0
0
0
0
0
0
0
0
0
0
0
0
0
0
0
0
0
0
0
0
0
0
0
0
0
0
0
0
0
0
0
0
0
0
