P2
# CREATOR: GIMP PNM Filter Version 1.1
128 32
255
0
0
0
0
0
0
0
0
0
0
0
0
0
0
0
0
0
0
0
0
0
0
0
0
0
0
0
0
0
0
0
0
0
0
0
0
0
0
0
0
0
0
0
0
0
0
0
0
0
0
0
0
0
0
0
0
0
0
0
0
0
0
0
0
0
0
0
0
0
0
0
0
0
0
0
0
0
0
0
0
0
0
0
0
0
0
0
0
0
0
0
0
0
0
0
0
0
0
0
0
0
0
0
0
0
0
0
0
0
0
0
0
7
7
2
2
35
28
0
0
0
0
0
0
0
0
0
0
0
0
0
0
0
0
0
0
0
0
0
0
0
0
0
0
0
0
0
0
0
0
0
0
0
0
0
0
0
0
0
0
0
0
0
0
0
0
0
0
0
0
0
0
0
0
0
0
0
0
0
0
0
0
0
0
0
0
0
0
0
0
0
0
0
0
0
0
0
0
0
0
0
0
0
0
0
0
0
0
0
0
0
0
0
0
0
0
0
0
0
0
0
0
0
0
0
0
0
0
0
0
0
0
0
0
0
0
0
0
0
0
0
0
5
17
13
10
7
2
2
7
31
40
35
26
0
0
0
0
0
0
0
0
0
0
0
0
0
0
0
0
0
0
0
0
0
0
0
0
0
0
0
0
0
0
0
0
0
0
0
0
0
0
0
0
0
0
0
0
0
0
0
0
0
0
0
0
0
0
0
0
0
0
0
0
0
0
0
0
0
0
0
0
0
0
0
0
0
0
0
0
0
0
0
0
0
0
0
5
23
0
0
0
0
0
0
0
0
0
0
0
0
0
0
0
0
0
0
0
0
0
0
0
0
0
0
0
0
0
0
0
0
0
0
0
0
2
7
10
10
10
2
0
0
0
0
0
0
0
0
0
0
0
0
0
0
0
0
0
0
0
0
0
0
0
0
0
0
0
0
0
0
0
0
0
0
0
0
0
0
0
0
0
0
0
0
0
0
0
0
0
0
0
0
0
0
0
0
0
0
0
0
0
0
0
0
0
0
0
0
0
0
0
0
0
5
0
0
0
0
0
0
0
0
0
24
0
0
0
0
0
0
0
0
0
0
0
0
0
0
0
0
0
0
0
0
0
0
0
0
0
0
0
0
0
0
0
0
0
0
0
0
0
0
0
0
0
0
0
0
0
0
0
0
0
0
0
0
0
0
0
0
0
0
0
0
0
0
0
0
0
0
0
0
0
0
0
0
0
0
0
0
0
0
0
0
0
0
0
0
0
0
0
0
0
0
0
0
0
0
0
0
0
0
0
0
0
0
0
0
0
0
0
0
0
0
0
23
0
0
0
0
0
0
0
0
0
0
0
0
0
0
17
0
0
23
0
0
0
0
0
0
0
0
0
0
0
0
0
0
0
0
0
0
0
0
0
0
0
0
0
0
0
0
0
0
0
0
0
0
0
0
0
0
0
0
0
0
0
0
0
0
0
0
0
0
0
0
0
0
0
0
0
0
0
0
0
0
0
0
0
0
0
0
0
0
0
0
0
0
0
0
0
0
0
0
0
28
0
0
0
0
0
0
0
0
0
0
0
0
0
0
0
0
0
0
0
0
0
0
0
0
0
28
0
0
0
0
0
0
0
0
0
0
0
0
0
0
0
29
0
0
5
0
0
0
0
0
0
0
0
0
0
0
0
0
0
0
0
0
0
26
29
25
0
0
0
0
0
0
0
0
0
0
0
0
0
0
0
0
0
0
0
0
0
0
0
0
0
0
0
0
0
0
0
0
0
0
0
0
0
0
0
0
0
0
0
0
0
0
0
0
0
0
0
0
0
0
30
0
0
0
0
0
0
0
0
0
0
0
30
0
0
0
0
0
0
0
0
0
0
0
0
0
0
0
27
0
0
0
0
0
0
0
0
0
0
0
0
0
0
0
0
0
0
0
0
0
0
17
0
0
49
61
65
69
69
71
71
71
70
65
0
0
0
0
0
0
0
0
0
0
0
0
0
0
30
5
0
0
0
0
0
0
0
0
0
0
0
0
0
0
0
0
0
0
0
0
0
0
0
0
5
17
0
0
0
0
0
0
0
0
0
0
0
0
0
0
0
0
0
0
0
0
0
0
0
0
0
0
0
0
29
0
0
0
0
0
0
0
0
0
0
0
0
0
31
24
24
5
0
0
0
0
0
0
0
0
0
0
0
0
5
31
70
70
54
0
0
0
0
0
0
0
23
27
0
0
0
53
74
77
78
78
78
78
78
78
78
76
66
0
0
0
0
0
5
26
30
0
0
0
0
0
0
0
0
0
24
0
0
0
0
0
0
0
0
0
0
0
0
0
0
0
0
0
0
0
0
26
0
0
0
0
0
0
0
0
0
0
0
0
0
29
0
0
0
0
0
0
0
0
0
0
31
0
0
0
0
0
0
0
0
0
0
17
0
0
0
0
0
0
0
0
0
0
0
0
0
0
0
0
0
0
0
0
0
0
0
49
77
77
67
65
73
51
0
0
0
0
0
0
0
0
0
0
51
72
55
16
9
5
4
4
4
4
6
72
76
62
0
0
0
0
0
0
0
0
0
0
0
5
30
0
0
0
0
0
0
0
30
25
5
0
0
0
0
0
0
0
0
0
0
0
0
0
0
0
0
0
0
0
0
0
0
0
0
0
0
0
0
0
30
0
0
0
0
0
0
0
0
23
0
0
0
0
0
37
0
0
0
0
0
0
0
0
5
33
0
0
0
0
0
0
0
0
0
0
26
25
0
0
24
31
31
34
74
79
4
4
4
24
60
72
0
0
0
0
23
31
39
43
41
32
62
57
14
1
0
0
0
0
0
0
0
8
67
74
61
56
52
49
41
36
31
0
0
0
0
0
0
0
0
0
0
0
0
0
0
0
0
0
0
0
0
0
0
0
0
0
0
0
0
0
0
0
24
0
0
0
0
0
0
0
0
0
0
0
26
0
0
23
24
24
25
26
0
0
0
0
0
69
71
72
74
72
58
0
0
0
0
44
74
74
76
77
70
5
0
0
0
0
0
0
0
0
0
0
41
68
69
76
78
78
77
4
1
18
19
4
46
73
58
44
54
72
74
75
75
76
72
62
71
51
7
27
75
84
87
87
87
82
9
1
63
77
77
77
77
76
74
72
73
73
72
60
50
39
23
0
0
0
0
0
0
0
28
26
0
0
0
0
0
0
0
0
0
0
0
0
0
0
0
17
0
0
29
31
31
29
28
28
28
26
5
0
0
26
0
0
0
0
0
0
0
0
0
0
70
76
62
51
32
67
74
58
0
0
44
75
57
5
4
56
73
72
71
74
74
74
74
72
63
39
0
46
76
80
36
6
5
3
59
0
19
86
51
1
49
77
77
76
74
62
46
38
34
35
57
72
74
50
6
31
85
92
92
92
89
91
12
1
31
21
20
23
26
34
49
68
67
62
78
77
76
75
74
72
72
27
0
0
0
0
0
0
0
0
0
0
0
0
0
0
0
0
0
0
0
27
0
0
0
44
71
76
76
76
76
76
76
74
65
41
0
0
5
31
30
29
26
26
23
0
0
67
76
55
2
1
4
14
78
53
51
44
76
51
0
9
3
12
51
71
59
51
49
51
54
60
70
70
51
63
74
30
1
0
0
1
1
0
26
89
46
1
19
19
31
72
47
11
1
1
1
4
16
53
73
51
7
4
10
11
6
53
89
69
8
0
4
2
1
0
0
2
11
31
37
1
4
15
30
40
55
66
79
74
68
45
37
39
33
29
25
25
25
23
0
0
0
0
0
0
0
0
0
25
0
0
46
72
66
47
43
43
43
44
45
52
67
68
41
0
0
0
0
0
0
0
0
0
0
74
64
2
26
61
10
5
77
75
72
72
64
1
62
75
15
0
17
29
10
1
1
1
3
13
38
68
77
74
59
14
6
59
83
18
0
0
31
89
41
0
1
0
1
23
7
10
34
48
46
24
5
14
59
70
44
5
0
0
21
79
84
21
1
0
5
34
57
60
54
36
12
1
1
2
0
0
1
2
1
2
4
54
72
75
70
71
74
74
74
74
74
70
54
25
0
0
0
0
0
0
0
28
0
34
70
64
30
4
0
0
0
0
2
11
36
66
68
49
40
41
44
45
40
37
60
69
71
75
54
0
62
87
1
16
29
14
69
72
4
14
74
77
45
24
1
2
21
42
51
47
34
12
9
37
68
59
14
3
23
72
81
34
17
1
37
89
51
43
62
51
4
0
8
48
82
89
86
69
24
2
42
70
73
27
2
6
69
89
39
5
0
1
49
78
87
90
88
79
48
13
0
11
74
51
34
29
24
13
0
8
32
75
74
57
49
49
51
51
53
61
71
59
24
0
0
0
0
0
0
30
0
39
72
45
6
16
39
43
42
40
33
14
9
36
66
77
76
77
77
77
72
74
78
70
65
57
18
1
77
87
0
2
1
4
20
44
8
74
92
92
91
39
2
35
72
86
89
88
79
49
13
10
48
54
11
21
76
92
92
91
62
4
41
90
78
83
90
87
38
1
28
83
67
46
61
83
45
7
36
69
56
11
0
47
86
62
11
0
0
16
72
84
51
36
49
77
79
40
0
11
79
85
77
77
87
84
57
14
4
30
29
19
9
2
1
1
4
21
51
71
61
0
0
0
0
0
0
33
0
42
74
39
4
38
84
92
91
89
79
50
14
13
31
31
27
26
21
26
66
67
21
3
3
1
0
1
89
72
6
59
83
6
35
16
12
57
84
68
36
9
15
71
84
42
26
44
79
79
29
1
41
50
10
16
57
84
82
62
34
2
44
91
74
41
53
87
57
3
43
87
64
49
67
87
52
10
36
64
24
2
28
78
79
21
1
0
0
26
77
71
24
2
9
57
89
59
0
11
79
91
69
59
70
86
92
49
8
0
2
6
20
31
34
29
19
6
16
56
72
25
0
0
0
0
0
34
0
45
74
36
4
44
87
67
43
53
79
76
24
3
4
1
1
0
0
0
18
9
4
22
47
41
6
1
91
36
57
87
16
13
73
27
4
31
79
44
6
0
29
83
63
9
0
6
73
90
29
0
44
64
30
4
27
74
62
13
0
0
48
89
46
6
26
81
59
4
46
89
74
47
41
36
20
4
35
46
11
9
64
86
40
6
0
0
0
24
74
77
29
3
12
57
89
60
1
11
84
89
41
11
15
56
90
71
31
0
1
43
64
80
88
85
66
29
2
39
71
24
0
0
0
0
0
33
0
48
74
32
3
49
87
41
5
27
74
71
19
0
26
56
79
84
67
18
0
6
46
84
89
85
20
14
89
61
90
24
1
69
77
58
11
39
83
45
9
0
29
89
78
13
1
29
82
84
21
0
47
79
50
11
29
75
62
16
1
0
44
89
38
0
20
80
61
1
34
86
64
42
46
50
24
1
42
45
10
30
78
90
77
69
67
67
29
13
63
87
71
57
59
77
79
46
0
11
84
88
29
0
9
39
89
62
39
4
23
73
82
64
57
66
83
57
9
35
71
23
0
0
0
0
0
17
0
50
75
29
2
55
88
74
64
74
82
37
4
2
75
80
61
71
89
59
1
36
84
51
21
60
12
52
89
79
81
31
1
30
72
51
9
42
85
84
87
9
9
80
89
91
90
89
91
51
8
4
53
78
51
13
29
74
77
54
26
2
41
89
41
0
19
76
64
1
11
72
86
90
92
91
43
1
46
49
11
31
77
92
92
92
92
92
44
9
26
62
83
89
86
74
52
19
0
11
86
88
27
0
9
41
88
59
36
7
37
84
87
67
44
53
81
64
14
34
71
24
0
0
0
0
0
17
0
57
76
26
1
59
89
92
92
92
89
67
11
1
33
4
3
21
89
62
11
66
71
13
0
4
5
69
87
28
79
64
4
19
67
48
7
17
72
89
68
2
1
19
59
77
79
69
38
4
1
26
63
78
51
14
16
58
87
89
56
4
34
88
47
0
16
71
63
8
0
18
55
64
58
51
23
1
42
52
14
10
26
32
30
30
30
30
15
3
4
17
31
39
39
29
14
0
0
9
83
84
24
0
10
42
87
59
31
6
34
87
79
54
46
50
54
35
7
33
69
25
0
0
0
0
0
17
0
57
77
24
1
63
89
42
22
23
74
88
34
1
40
74
79
78
89
53
18
73
77
16
15
49
6
84
79
10
73
64
12
25
68
63
20
2
1
0
0
4
15
4
1
0
0
0
1
0
36
64
72
76
63
28
6
23
54
59
39
1
18
62
38
1
6
25
19
4
5
1
0
0
0
0
0
18
57
67
39
9
0
0
0
0
0
0
0
21
22
6
1
1
1
3
10
16
15
0
4
14
7
1
6
31
70
49
6
1
17
79
89
74
57
47
41
22
1
41
73
26
0
0
0
0
0
17
0
57
77
17
1
71
90
21
1
11
71
90
35
28
90
56
14
38
89
39
9
69
89
91
88
28
1
84
47
0
0
0
9
52
73
74
62
15
9
12
18
39
61
34
21
19
16
12
23
45
71
73
51
59
70
56
23
3
0
0
0
1
0
0
1
8
14
0
0
14
45
26
6
4
11
17
23
46
76
74
67
50
43
43
45
45
45
45
45
59
60
49
43
42
40
41
46
62
65
12
2
2
4
24
14
0
0
0
0
1
4
19
64
84
90
92
91
52
2
43
74
0
0
0
0
0
0
17
0
57
77
17
1
71
90
82
79
81
89
84
10
32
87
80
68
77
81
33
1
24
69
77
29
2
0
0
2
17
16
27
55
72
44
58
75
78
77
77
77
75
72
76
77
77
77
77
77
75
74
45
0
23
52
70
58
29
15
11
9
15
6
9
14
27
51
26
35
51
69
67
63
68
76
78
78
77
68
54
64
75
76
77
76
76
76
76
76
74
74
74
75
75
76
76
74
72
75
77
77
69
60
64
54
30
21
18
34
62
23
4
0
3
18
29
41
26
1
41
74
0
0
0
26
0
0
17
0
57
77
17
1
65
89
92
91
86
66
17
0
6
51
65
55
39
34
12
4
2
0
1
3
29
9
25
75
78
77
76
74
48
0
0
59
63
57
54
50
43
39
43
44
49
53
57
62
55
34
0
0
0
5
51
72
77
78
78
79
77
77
77
79
78
76
77
77
77
70
68
74
75
75
74
74
65
51
0
32
49
46
45
41
38
38
36
36
36
35
35
36
36
37
37
41
43
53
60
67
72
72
73
74
76
77
77
77
77
72
40
22
6
0
0
0
0
21
62
73
0
0
0
0
0
0
17
0
57
77
22
1
8
11
11
11
9
4
0
8
4
1
1
2
3
5
7
44
20
9
41
60
76
77
76
69
59
49
35
26
0
0
0
0
0
0
0
0
0
0
0
0
0
0
0
0
0
0
0
0
0
0
0
44
59
67
74
74
76
75
75
75
74
72
71
63
59
48
36
34
29
24
0
0
0
0
0
0
0
0
0
0
0
0
0
0
0
0
0
0
0
0
0
0
0
0
0
0
0
0
0
26
35
47
54
58
49
69
75
77
77
78
68
55
46
59
75
43
0
0
0
0
0
0
17
0
52
74
72
20
1
0
0
0
0
5
27
66
35
22
29
34
44
52
60
74
77
77
74
73
71
55
39
0
0
0
0
0
0
23
0
0
0
0
5
0
0
0
0
0
0
0
0
0
0
0
24
0
0
0
0
0
0
0
0
45
51
51
53
54
54
50
45
39
0
0
0
0
0
0
0
0
0
0
0
0
0
0
0
0
0
0
23
23
25
28
29
29
29
29
29
26
17
0
0
0
0
0
0
0
0
0
0
0
0
0
0
45
56
66
74
75
75
74
53
0
0
0
0
0
0
0
25
0
0
55
75
71
69
68
68
68
70
76
78
74
77
77
76
74
74
72
69
67
69
57
28
0
0
0
0
0
0
24
26
0
0
0
0
0
0
0
0
0
0
0
0
0
0
0
0
0
0
0
0
0
0
0
24
0
0
0
0
0
0
0
0
0
0
0
0
0
0
0
0
0
0
0
17
30
0
0
0
0
0
0
0
0
0
0
0
0
0
0
0
0
0
0
0
0
0
0
0
0
0
0
0
0
23
28
5
0
0
0
0
0
0
0
0
0
23
31
0
0
29
0
0
23
0
0
0
0
0
0
54
72
74
74
74
74
74
74
67
44
56
50
45
35
30
17
0
0
0
0
0
0
0
0
0
0
0
0
0
0
0
0
0
0
0
0
0
0
0
0
0
0
0
0
0
0
0
0
0
23
0
0
0
0
0
26
0
0
0
0
0
0
0
0
0
0
0
0
0
17
0
0
0
0
0
0
0
0
0
0
0
0
0
0
0
0
0
0
0
0
0
0
0
0
0
0
0
0
0
0
0
0
0
0
0
0
0
0
0
31
5
0
0
0
0
0
0
0
0
0
0
0
0
0
0
0
0
0
0
0
0
0
0
0
0
0
0
0
0
0
0
0
0
0
0
0
0
5
0
0
0
0
0
0
0
30
17
0
0
0
0
0
30
27
0
0
0
0
0
0
0
0
0
0
0
0
0
0
0
27
0
0
0
0
0
0
0
0
0
0
0
0
0
0
0
0
0
0
0
0
0
0
0
0
29
23
0
0
0
0
0
0
0
0
0
0
0
0
0
0
0
0
0
0
0
0
0
0
0
0
0
24
30
0
0
0
0
0
0
0
0
0
0
0
0
0
0
0
0
28
0
0
0
0
0
0
0
0
0
0
0
0
0
0
0
0
0
0
23
31
0
0
0
0
0
0
0
0
0
0
0
0
30
0
0
0
0
0
0
0
0
0
0
0
0
0
0
0
0
0
0
0
0
0
0
0
0
24
26
0
23
0
0
0
0
0
0
0
0
0
0
0
0
0
0
0
0
0
0
26
0
23
29
17
0
0
0
0
0
0
0
0
0
0
0
0
0
0
0
0
0
0
0
0
0
0
0
0
0
0
0
27
26
0
0
0
29
0
0
0
0
0
0
0
0
0
0
56
0
0
0
0
0
0
0
0
0
0
0
0
0
0
0
0
0
0
0
0
0
0
0
0
0
23
0
0
0
30
0
0
0
0
0
0
0
0
0
0
0
0
0
0
0
0
0
0
0
0
0
0
0
0
0
0
0
0
0
0
30
0
0
0
24
0
0
0
0
0
0
0
0
0
24
0
0
0
0
28
0
0
0
0
0
0
0
0
0
0
0
0
0
0
0
0
0
0
0
0
0
0
0
0
0
0
0
0
0
0
0
0
0
0
0
0
0
0
28
0
0
0
0
0
0
0
50
0
