P2
# CREATOR: GIMP PNM Filter Version 1.1
128 32
255
0
0
0
0
0
0
0
0
0
0
0
0
0
0
0
0
0
0
0
0
0
0
0
0
0
0
0
0
0
0
0
0
0
0
0
0
0
0
0
0
0
0
0
0
0
0
0
0
0
0
0
0
0
0
0
0
0
0
0
0
0
0
0
0
0
0
0
0
0
0
0
0
0
0
0
0
0
0
0
0
0
0
25
22
0
8
34
36
38
39
39
40
31
26
19
16
27
34
26
6
0
0
0
0
0
0
0
0
0
0
0
0
0
0
0
0
0
0
0
0
3
6
8
11
12
11
6
2
0
0
0
0
0
0
0
0
0
0
0
0
0
0
0
0
0
0
0
0
0
0
0
0
0
0
0
0
0
0
0
0
0
0
0
0
0
0
0
0
0
15
24
30
26
14
5
0
0
0
0
2
11
15
10
3
0
0
0
0
4
17
30
32
34
35
36
34
34
34
37
46
52
51
48
49
31
18
7
16
6
3
17
29
34
36
36
29
19
11
6
0
0
0
0
0
9
30
36
29
29
29
31
31
31
31
30
30
29
29
26
26
24
23
21
19
16
11
7
0
0
0
0
1
4
11
11
9
0
0
9
16
16
14
13
10
8
4
1
4
13
28
29
27
23
20
16
12
7
7
8
13
12
16
24
32
36
42
47
54
45
38
34
34
33
31
30
23
5
0
0
0
0
0
0
0
0
3
4
1
4
9
3
2
8
11
11
11
19
33
31
24
25
26
26
30
33
36
39
39
39
36
35
31
25
1
1
1
2
18
31
35
29
4
0
0
0
0
0
8
16
23
28
12
1
9
31
39
39
39
40
40
40
40
40
39
39
39
39
38
39
39
38
37
36
36
35
32
25
19
12
4
0
4
11
14
0
0
29
34
35
36
36
36
36
36
35
34
31
26
24
22
20
19
16
11
4
2
6
4
0
8
24
32
34
36
37
37
38
39
39
39
39
36
33
32
25
7
11
14
20
22
25
27
29
31
27
9
1
0
2
12
26
33
34
36
36
33
16
1
1
1
1
1
1
1
1
1
3
4
5
36
34
27
3
1
16
32
24
0
0
2
14
26
37
45
54
56
56
56
53
40
11
1
6
7
6
5
4
4
3
4
4
6
6
7
9
11
13
14
17
20
25
30
34
39
36
34
30
22
6
1
2
13
0
0
31
23
24
25
28
31
35
39
40
40
39
39
39
38
37
36
34
29
17
5
0
0
6
23
34
27
19
19
18
17
16
16
14
13
10
6
5
36
35
34
35
36
36
38
38
38
37
35
33
29
11
12
16
28
32
26
25
26
26
17
1
6
17
17
18
18
13
11
9
7
6
4
1
6
35
34
25
21
32
26
0
6
46
55
57
57
58
59
51
43
33
28
43
54
41
10
0
0
0
0
0
0
0
0
0
0
0
0
0
0
0
0
0
0
0
0
1
7
11
19
28
32
29
9
0
2
0
0
19
3
0
0
0
0
0
0
2
9
11
14
15
18
19
21
24
30
31
19
5
5
21
34
31
12
1
1
1
1
1
1
1
1
0
0
1
6
39
36
34
32
29
26
18
14
9
4
28
35
36
36
36
34
23
6
0
0
0
0
8
29
51
53
54
54
54
54
54
52
50
39
7
2
9
31
37
39
29
2
5
40
54
43
31
19
10
0
0
0
0
0
14
46
55
46
45
46
47
49
50
50
50
49
49
46
44
41
40
38
36
32
28
23
16
8
0
0
0
2
10
26
31
26
6
1
0
0
4
4
13
11
9
6
0
0
0
0
0
0
0
0
0
1
5
17
31
32
21
20
34
33
16
1
7
21
24
24
26
26
28
29
31
30
10
1
4
1
0
0
0
0
0
0
0
0
1
29
34
30
26
18
5
7
19
27
28
25
38
54
48
36
39
39
39
39
39
39
44
53
39
11
1
11
16
10
1
3
34
36
0
0
0
0
0
9
20
29
37
17
1
13
46
58
59
59
58
59
59
59
59
59
58
58
58
57
57
57
57
57
57
55
54
54
46
37
26
11
2
2
24
34
31
10
0
0
3
22
46
54
54
55
53
49
42
39
34
32
28
26
24
17
7
4
18
33
36
36
34
19
1
6
31
51
54
54
55
55
55
55
54
51
37
10
0
0
0
4
8
13
19
29
35
15
1
0
0
0
0
0
9
34
51
56
57
57
58
41
15
1
1
1
1
1
1
3
17
45
54
37
11
0
0
0
2
34
49
0
13
37
50
61
73
75
75
76
74
56
16
1
9
9
7
4
6
4
4
4
4
6
9
10
11
15
17
19
23
27
31
41
47
59
57
56
51
38
15
0
7
27
35
27
0
0
19
49
54
50
54
59
59
59
58
58
57
57
57
57
54
46
29
8
4
16
28
29
21
1
4
28
54
49
36
35
34
34
32
32
30
44
53
38
25
43
51
54
54
55
56
55
54
46
13
2
9
19
28
31
44
56
36
14
11
11
14
6
0
24
37
33
31
31
26
16
3
19
45
53
41
40
48
54
54
52
0
14
57
76
77
78
68
57
44
38
59
75
57
14
0
0
0
0
0
0
0
0
0
0
0
0
0
0
1
0
0
0
1
1
1
4
14
26
43
52
46
14
2
3
27
34
0
0
49
54
39
9
0
1
6
13
16
19
23
27
30
32
39
49
50
30
8
0
0
0
0
3
24
54
51
26
1
1
1
1
1
1
3
19
45
54
49
54
58
59
53
46
39
26
39
54
52
54
55
57
57
57
59
29
1
0
1
0
0
0
47
69
75
75
75
74
72
51
16
3
18
46
58
59
57
47
36
0
11
55
66
30
11
0
0
0
0
1
19
61
73
61
62
64
67
61
67
68
68
68
66
66
63
59
56
39
33
40
41
36
26
16
4
0
0
4
16
40
56
42
16
0
6
25
0
0
54
34
6
1
1
0
0
0
0
0
0
0
0
1
8
26
49
51
32
16
14
14
12
23
52
53
30
1
9
26
29
31
31
30
16
3
19
45
57
38
5
0
0
0
0
0
9
41
59
51
36
23
16
13
24
1
13
56
74
74
74
74
76
79
22
19
22
29
63
73
53
12
2
9
3
1
1
1
0
12
42
67
27
1
0
14
26
39
46
22
1
53
77
77
77
78
78
78
76
78
78
78
78
77
77
77
77
70
67
72
75
75
74
73
71
59
41
18
4
8
44
53
46
13
2
8
0
0
32
5
3
14
60
70
66
57
52
47
44
38
33
25
11
6
26
49
56
55
55
55
54
54
53
34
1
6
41
72
73
74
74
72
51
17
3
18
32
13
0
2
9
16
26
23
3
4
0
0
0
0
0
0
1
21
62
72
57
54
56
63
64
3
0
0
0
4
16
70
71
4
0
3
9
17
28
72
70
56
59
57
11
31
92
92
92
90
89
35
1
31
26
14
10
6
14
39
77
9
6
6
11
11
13
15
36
68
74
58
45
49
58
69
78
77
72
54
23
1
6
39
55
47
17
3
0
0
6
6
24
64
77
78
78
77
77
77
77
76
74
65
41
11
6
24
39
42
44
44
44
44
34
1
5
36
74
67
49
46
46
60
74
51
16
3
6
1
41
73
74
74
74
62
21
0
10
37
51
63
64
39
24
60
68
34
7
1
1
15
29
0
20
86
72
0
8
78
72
69
51
59
72
75
79
66
65
71
74
54
8
36
73
62
62
82
81
25
0
5
1
0
0
0
0
1
5
0
0
0
0
0
0
0
6
34
38
22
8
2
1
1
14
32
58
72
62
17
4
9
45
54
43
18
0
0
4
21
64
76
73
16
5
17
21
26
32
40
51
67
68
41
11
1
0
0
0
1
1
1
1
0
21
72
69
33
2
2
4
25
60
72
29
1
0
34
74
73
63
50
53
73
67
68
75
77
77
77
73
69
61
79
21
0
54
84
22
2
0
0
34
90
62
1
17
59
62
68
76
66
16
1
1
4
21
51
72
52
2
0
0
4
44
82
50
7
0
4
41
68
78
74
47
4
0
0
79
58
44
67
72
49
13
7
6
5
16
21
17
0
0
4
21
52
74
69
25
2
4
39
51
41
0
0
4
24
69
67
12
0
0
0
0
0
0
2
11
36
66
68
46
28
25
24
24
20
16
17
21
23
40
75
49
1
15
37
21
4
41
74
54
45
38
73
74
23
1
0
13
54
77
67
29
11
1
12
39
67
78
19
0
3
62
89
25
0
0
1
81
89
47
0
1
1
8
34
21
1
3
14
19
19
6
16
58
72
45
4
1
24
77
65
16
0
1
49
82
89
91
90
89
51
2
1
84
89
87
89
90
85
43
9
1
24
54
74
86
81
57
24
5
12
57
74
60
19
1
10
39
52
0
0
4
24
70
63
7
2
69
77
69
62
51
36
14
9
36
66
77
75
75
75
74
69
61
64
73
73
74
77
46
0
40
87
44
1
44
76
74
72
69
77
26
4
36
29
3
2
55
6
0
0
13
11
9
36
76
16
9
73
92
92
91
82
6
3
92
87
42
69
45
38
8
1
0
15
68
87
85
67
27
2
42
73
66
12
11
63
77
31
2
0
15
74
83
32
14
37
89
83
4
1
85
91
52
22
52
84
63
19
9
49
83
82
82
91
87
68
29
1
5
52
74
67
13
1
24
49
0
0
3
27
70
61
7
4
78
90
92
91
89
80
50
14
11
35
46
46
46
48
52
63
73
68
55
50
49
49
26
0
44
89
41
1
21
31
26
66
76
68
11
21
79
38
1
0
2
37
82
88
77
51
0
15
67
14
12
59
85
87
76
60
4
14
91
91
92
91
91
89
39
1
4
80
84
65
67
83
48
6
42
76
28
3
43
81
48
6
0
0
26
82
64
9
0
3
87
91
4
1
85
88
16
1
26
75
69
21
16
59
87
65
9
20
59
83
65
9
0
25
68
73
31
6
19
44
0
6
3
27
71
59
6
6
80
91
42
27
49
79
77
31
4
7
4
1
1
1
6
26
46
32
9
2
2
2
1
0
46
89
38
1
2
2
4
6
66
15
8
64
89
86
84
3
45
88
81
67
90
75
0
20
66
29
4
23
72
68
16
0
0
22
91
80
31
4
53
92
57
1
34
88
64
36
60
86
50
6
46
56
1
24
76
65
17
0
0
0
24
82
77
19
2
27
87
82
6
1
81
87
14
0
20
72
70
23
16
58
89
84
88
76
74
84
73
26
0
19
54
74
36
9
17
44
0
11
3
34
71
56
6
9
82
91
21
4
29
74
75
31
0
11
28
37
39
35
19
8
9
5
15
32
40
31
11
1
50
89
34
6
45
74
9
9
62
13
38
86
92
89
39
14
84
70
7
2
91
70
0
27
79
54
12
31
75
62
16
1
0
33
90
67
0
4
35
88
53
4
45
90
78
52
44
35
14
1
49
30
6
51
89
72
57
59
63
29
12
69
89
82
79
84
90
50
5
1
79
87
14
0
20
72
70
23
8
48
85
67
17
21
33
48
53
21
1
18
54
73
36
9
17
44
0
24
2
35
71
54
6
10
82
91
84
72
74
80
49
14
1
34
74
77
78
79
61
21
0
20
58
82
89
79
38
5
57
89
30
46
87
27
1
23
57
9
14
57
91
19
0
31
89
46
2
47
87
45
1
42
78
49
11
34
77
77
58
26
2
41
89
58
0
6
39
85
47
4
39
85
64
45
51
57
21
1
70
30
13
64
92
92
92
92
92
42
6
24
63
84
89
80
47
9
0
0
76
84
18
0
18
69
69
24
1
23
69
88
85
69
58
41
19
1
0
18
54
72
36
9
17
44
0
32
2
38
72
53
6
14
82
91
92
92
92
89
64
21
1
31
53
37
35
64
84
40
6
49
85
67
46
61
38
6
61
88
60
88
29
0
12
66
64
29
2
59
79
14
1
31
87
69
91
86
56
11
16
59
78
46
9
19
62
87
85
39
3
46
87
51
0
8
45
82
41
1
21
66
84
90
92
90
26
0
72
31
9
39
47
43
39
34
30
13
1
2
11
14
14
13
6
1
1
0
11
18
6
1
5
24
27
11
1
5
20
60
84
90
92
91
67
4
0
21
57
72
36
9
17
44
0
31
1
41
73
49
6
18
82
89
16
11
29
70
85
44
8
20
37
40
45
69
87
40
16
65
77
29
3
15
10
2
69
89
79
89
31
1
19
62
79
34
0
64
77
77
8
18
64
78
66
40
9
15
52
72
76
63
21
4
14
23
25
11
0
21
41
24
1
6
31
48
21
1
5
20
39
41
39
31
6
0
72
40
7
0
0
0
0
0
0
0
30
24
6
1
1
1
9
34
62
13
2
2
4
31
13
0
0
9
26
20
4
0
11
22
33
48
47
3
0
28
74
74
33
8
20
45
0
20
1
46
74
41
5
20
83
87
13
1
11
63
88
50
23
50
67
54
43
69
87
36
20
69
77
28
4
27
21
4
86
87
23
84
72
18
5
44
75
28
8
62
88
74
1
5
0
0
0
4
20
57
72
45
59
73
62
19
2
0
0
6
4
1
1
3
15
14
0
0
6
25
24
6
1
0
0
0
0
51
76
72
41
23
30
39
43
47
49
51
66
65
60
60
62
62
64
69
75
65
61
59
58
66
57
49
45
49
61
61
32
12
0
0
0
0
0
3
4
34
74
68
11
2
21
45
0
8
1
51
74
39
5
21
82
92
90
86
81
85
86
33
25
70
81
51
44
74
87
31
9
64
87
73
69
81
27
1
91
79
5
50
81
44
6
44
77
31
6
11
0
0
19
26
21
30
43
53
66
73
44
5
14
59
75
76
74
72
67
67
60
54
49
46
56
54
37
37
45
62
61
44
38
40
44
49
57
74
73
72
76
77
77
77
76
76
76
75
74
73
74
74
74
74
74
67
69
73
73
73
74
73
74
75
76
76
72
71
77
78
72
61
51
40
26
26
76
75
74
62
6
1
31
51
0
6
0
54
74
39
6
15
64
82
90
91
85
67
37
9
7
50
79
81
72
73
80
24
1
26
65
86
85
57
3
4
77
57
1
17
35
14
1
50
75
57
20
1
16
37
75
77
76
75
74
74
65
39
4
0
1
13
57
69
74
74
74
74
72
73
74
74
74
74
76
76
76
70
69
75
77
77
76
76
75
73
23
34
64
59
54
47
41
34
33
29
27
24
24
24
22
22
20
18
19
20
21
23
23
25
27
31
33
36
39
40
54
66
74
75
75
76
77
77
75
73
63
44
3
0
39
54
0
6
0
53
72
64
27
3
0
0
0
5
9
8
2
5
1
10
19
25
19
18
21
9
4
4
8
9
4
1
1
0
0
1
5
4
0
0
46
75
59
72
74
77
77
69
49
46
35
26
18
12
5
1
4
33
13
1
0
0
0
0
1
4
11
17
22
27
31
34
39
40
44
40
36
46
46
46
41
36
29
21
4
4
2
0
0
0
0
0
0
0
0
0
0
1
1
1
1
0
1
1
1
1
0
0
0
0
0
0
0
0
0
0
4
13
21
32
46
56
53
4
23
1
1
0
42
53
0
16
0
5
53
74
62
31
16
8
1
0
0
4
21
55
31
8
2
2
2
5
6
8
49
21
3
1
1
9
39
16
23
31
49
56
62
71
75
36
20
57
67
51
0
0
0
0
1
1
1
1
0
13
39
55
44
18
12
9
8
6
4
0
0
1
1
0
0
0
0
0
0
0
0
0
0
0
0
0
0
0
0
0
0
0
6
11
16
19
23
29
29
32
34
34
36
36
37
36
36
37
37
36
36
34
32
31
29
29
23
17
13
6
0
0
0
0
0
0
0
0
0
8
23
56
54
51
0
51
14
1
10
50
72
77
77
78
77
74
70
69
72
74
72
69
69
69
69
69
69
69
74
72
74
77
78
78
77
77
76
74
74
74
74
72
48
3
1
0
0
0
9
17
24
35
42
46
51
57
57
56
51
46
52
56
57
58
58
59
59
59
54
49
44
38
33
30
24
19
15
12
11
11
11
11
12
16
22
27
34
37
44
49
54
59
59
58
58
57
57
57
57
57
56
56
56
55
55
55
55
56
57
56
56
57
57
57
57
57
58
59
57
50
44
36
28
18
11
11
54
40
57
54
52
14
18
54
55
13
1
13
31
51
61
68
74
74
74
74
70
54
69
72
72
72
72
72
68
68
66
72
72
69
64
59
53
46
35
28
20
11
3
0
0
24
11
9
23
59
58
57
56
55
54
54
54
50
44
38
26
19
31
36
38
39
42
46
47
51
54
55
55
56
56
57
57
58
58
58
58
59
59
59
59
58
58
57
56
54
55
56
56
55
55
49
46
41
39
37
34
30
27
27
26
25
24
24
24
25
25
26
26
26
28
30
33
37
41
48
55
55
56
57
57
57
57
56
54
52
44
31
1
0
24
36
55
57
16
2
0
0
0
0
1
4
8
9
9
6
9
9
9
9
9
9
9
9
6
2
0
0
0
0
0
1
1
0
0
0
1
21
38
52
57
57
54
46
39
29
22
16
9
4
0
16
28
29
27
23
20
20
20
27
29
28
16
7
3
9
14
21
24
29
36
41
46
51
54
55
55
55
55
52
47
43
39
34
28
22
17
14
9
4
1
13
19
28
29
27
23
20
12
2
2
0
0
0
0
0
0
0
2
2
20
27
30
19
7
4
9
16
22
30
37
42
39
2
1
1
2
13
25
10
40
54
49
40
29
16
10
3
0
0
0
0
0
2
1
1
1
1
1
1
1
5
1
1
3
9
14
18
22
31
36
41
48
57
59
56
54
51
44
33
2
23
27
0
0
0
0
0
0
0
0
0
0
0
0
0
0
0
0
0
0
0
0
0
0
0
0
18
28
23
11
1
6
29
31
31
29
26
1
2
17
23
29
22
0
0
0
0
0
0
0
0
0
0
0
0
0
0
0
0
0
0
0
0
0
0
0
0
0
0
0
0
0
0
0
0
0
0
24
30
20
5
0
7
19
53
29
1
3
40
51
55
57
58
58
59
57
56
53
51
51
51
51
51
51
51
51
51
51
54
55
59
59
58
58
57
57
56
56
55
54
54
45
23
10
0
28
7
0
0
0
0
0
0
0
0
0
0
0
0
0
0
0
0
0
0
0
0
0
0
0
0
0
0
0
0
0
0
0
0
20
28
28
30
30
30
28
23
7
0
0
0
0
0
0
0
0
0
0
0
0
0
0
0
0
0
0
0
0
0
0
0
0
0
0
0
0
0
0
0
0
0
0
0
0
0
0
0
0
0
0
0
29
16
