P2
# CREATOR: GIMP PNM Filter Version 1.1
128 32
255
0
0
0
0
0
0
0
0
49
49
49
165
165
165
244
165
244
244
244
244
244
244
244
244
244
244
244
244
165
49
92
244
244
244
165
165
165
165
165
92
165
165
244
244
244
244
244
165
165
49
92
92
165
165
165
165
165
244
165
0
49
0
0
0
0
0
0
0
0
0
0
0
0
0
0
0
0
0
0
0
0
0
0
0
0
0
0
0
0
0
0
0
0
0
0
0
0
0
0
0
0
0
0
0
0
0
0
0
0
0
0
0
0
0
0
0
0
0
0
0
0
0
0
0
0
0
0
0
0
0
0
0
0
0
0
0
0
0
49
92
92
165
244
92
165
244
244
244
244
244
244
244
244
244
244
244
49
92
0
244
244
244
244
244
244
244
165
165
165
92
92
165
165
244
244
244
244
165
92
49
49
49
92
92
165
165
244
92
0
49
49
0
0
0
0
0
0
0
0
0
0
0
0
0
0
0
0
0
0
0
0
0
0
0
0
0
0
0
0
0
0
0
0
0
0
0
0
0
0
0
0
0
0
0
0
0
0
0
0
0
0
0
0
0
0
0
0
0
0
0
0
0
0
0
0
0
0
0
0
0
0
0
0
0
0
0
0
92
49
49
49
165
92
165
165
244
244
244
244
244
244
244
244
244
49
0
49
244
244
244
244
244
244
244
165
244
165
165
165
165
92
92
165
244
244
244
244
165
49
49
49
49
49
92
244
244
244
92
0
92
49
0
0
0
0
0
0
0
0
0
0
0
0
0
0
0
0
0
0
0
0
0
0
0
0
0
0
0
0
0
0
0
0
0
0
0
0
0
0
0
0
0
0
0
0
0
0
0
0
0
0
0
0
0
0
0
0
0
0
0
0
0
0
0
0
0
0
0
0
0
0
0
0
0
0
0
92
92
92
92
244
165
165
165
165
244
244
244
244
244
244
244
244
165
244
244
244
244
244
244
244
244
244
92
49
165
165
165
165
165
92
92
244
244
244
165
244
165
92
49
49
49
49
92
165
244
244
92
0
92
49
0
0
0
0
0
0
0
0
0
0
0
0
0
0
0
0
0
0
0
0
0
0
0
0
0
0
0
0
0
0
0
0
0
0
0
0
0
0
0
0
0
0
0
0
0
0
0
0
0
0
0
0
0
0
0
0
0
0
0
0
0
0
0
0
0
0
0
0
0
0
0
0
0
0
165
92
92
49
165
244
165
165
165
165
244
244
244
244
244
244
244
244
244
244
244
244
244
244
244
165
49
92
0
244
244
165
165
165
92
92
165
165
244
165
165
165
165
92
49
49
49
49
49
92
244
244
165
0
92
49
0
0
0
0
0
0
0
0
0
0
0
0
0
0
0
0
0
0
0
0
0
0
0
0
0
0
0
0
0
0
0
0
0
0
0
0
0
0
0
0
0
0
0
0
0
0
0
0
0
0
0
0
0
0
0
0
0
0
0
0
0
0
0
0
0
0
0
0
0
0
0
0
0
0
49
165
49
49
165
165
165
165
165
165
244
244
244
244
244
244
244
244
244
244
244
244
244
244
0
0
92
244
244
244
165
165
165
165
92
165
92
165
165
244
165
244
165
92
49
49
49
49
49
49
165
165
92
49
92
49
0
0
0
0
0
0
0
0
0
0
0
0
0
0
0
0
0
0
0
0
0
0
0
0
0
0
0
0
0
0
0
0
0
0
0
0
0
0
0
0
0
0
0
0
0
0
0
0
0
0
0
0
0
0
0
0
0
0
0
0
0
0
0
0
0
0
0
0
0
0
0
0
0
0
165
49
49
165
244
165
92
92
165
165
244
244
244
244
244
244
244
244
244
244
244
244
244
165
244
244
244
244
244
244
165
244
165
165
165
165
165
165
244
165
244
244
165
92
49
49
49
92
49
92
165
165
92
49
92
49
0
0
0
0
0
0
0
0
0
0
0
0
0
0
0
0
0
0
0
0
0
0
0
0
0
0
0
0
0
0
0
0
0
0
0
0
0
0
0
0
0
0
0
0
0
0
0
0
0
0
0
0
0
0
0
0
0
0
0
0
0
0
0
0
0
0
0
0
0
0
0
0
49
165
92
49
0
165
244
92
92
92
92
165
244
244
244
244
244
244
244
244
244
244
244
244
244
244
244
244
244
244
244
244
244
165
165
165
165
165
92
165
244
244
244
244
165
92
49
49
49
49
49
92
165
165
92
49
92
0
0
0
0
0
0
0
0
0
0
0
0
0
0
0
0
0
0
0
0
0
0
0
0
0
0
0
0
0
0
0
0
0
0
0
0
0
0
0
0
0
0
0
0
0
0
0
0
0
0
0
0
0
0
0
0
0
0
0
0
0
0
0
0
0
0
0
0
0
0
0
0
0
165
244
49
49
49
165
165
165
49
49
49
92
165
165
244
244
244
244
244
244
244
244
244
165
244
244
244
244
244
244
244
244
244
244
165
165
165
165
92
165
165
244
244
244
244
165
92
92
49
49
49
49
165
165
165
92
92
49
0
0
0
0
0
0
0
0
0
0
0
0
0
0
0
0
0
0
0
0
0
0
0
0
0
0
0
0
0
0
0
0
0
0
0
0
0
0
0
0
0
0
0
0
0
0
0
0
0
0
0
0
0
0
0
0
0
0
0
0
0
0
0
0
0
0
0
0
0
0
49
165
165
165
49
0
49
165
165
165
92
49
92
49
92
165
165
244
244
244
244
244
165
244
244
165
244
244
244
244
244
244
244
244
244
244
244
165
165
165
165
165
244
244
165
244
244
165
92
92
49
92
49
49
165
165
92
92
92
0
0
0
0
0
0
0
0
0
0
0
0
0
0
0
0
0
0
0
0
0
0
0
0
0
0
0
0
0
0
0
0
0
0
0
0
0
0
0
0
0
0
0
0
0
0
0
0
0
0
0
0
0
0
0
0
0
0
0
0
0
0
0
0
0
0
0
0
0
0
0
49
165
92
92
49
0
49
92
244
165
165
49
49
49
92
49
92
165
165
244
244
244
244
244
244
165
244
244
244
244
244
244
244
244
244
244
244
244
165
165
165
165
244
244
244
244
244
165
92
0
0
0
0
0
0
49
92
0
0
0
0
0
0
0
0
0
0
0
0
0
0
0
0
0
0
0
0
0
0
0
0
0
0
0
0
0
0
0
0
0
0
0
0
0
0
0
0
0
0
0
0
0
0
0
0
0
0
0
0
0
0
0
0
0
0
0
0
0
0
0
0
0
0
0
0
0
0
0
0
49
49
165
165
92
0
49
0
49
165
244
165
92
49
49
49
92
92
92
165
244
244
244
244
244
244
244
244
244
244
244
244
244
244
244
244
244
244
244
244
165
165
165
244
244
244
165
165
92
0
0
0
0
0
0
0
0
0
0
0
0
0
0
0
0
0
0
0
0
0
0
0
0
0
0
0
0
0
0
0
0
0
0
0
0
0
0
0
0
0
0
0
0
0
0
0
0
0
0
0
0
0
0
0
0
0
0
0
0
0
0
0
0
0
0
0
0
0
0
0
0
0
0
0
0
0
0
0
0
0
0
92
165
165
49
49
49
0
0
92
165
165
165
165
49
49
92
49
92
92
165
244
244
244
244
244
244
244
244
244
244
244
244
244
244
244
244
244
244
244
165
165
244
165
244
244
92
165
244
0
0
0
0
0
0
0
0
0
0
0
0
0
0
0
0
0
0
0
0
0
0
0
0
0
0
0
0
0
0
0
0
0
0
0
0
0
0
0
0
0
0
0
0
0
0
0
0
0
0
0
0
0
0
0
0
0
0
0
0
0
0
0
0
0
0
0
0
0
0
0
0
0
0
0
0
0
0
0
0
0
49
92
165
165
92
49
49
49
49
49
49
92
165
165
165
92
49
92
92
92
92
92
165
244
244
244
244
244
244
244
244
244
244
244
244
244
244
244
244
244
165
165
165
244
92
0
49
0
0
0
0
0
0
0
0
0
0
0
0
0
0
0
0
0
0
0
0
0
0
0
0
0
0
0
0
0
0
0
0
0
0
0
0
0
0
0
0
0
0
0
0
0
0
0
0
0
0
0
0
0
0
0
0
0
0
0
0
0
0
0
0
0
0
0
0
0
0
0
0
0
0
0
0
0
0
0
0
0
0
0
0
92
165
92
92
92
49
49
92
49
49
49
92
92
165
244
92
92
165
165
92
165
165
165
165
244
244
244
244
244
244
244
244
244
244
244
244
244
244
165
165
165
92
0
0
0
0
0
0
0
0
0
0
0
0
0
0
0
0
0
0
0
0
0
0
0
0
0
0
0
0
0
0
0
0
0
0
0
0
0
0
0
0
0
0
0
0
0
0
0
0
0
0
0
0
0
0
0
0
0
0
0
0
0
0
0
0
0
0
0
0
0
0
0
0
0
0
0
0
0
0
0
0
0
0
0
0
0
0
0
0
49
92
92
165
92
92
49
49
92
49
49
244
165
0
49
92
92
92
49
92
92
92
92
165
165
165
244
244
244
244
244
244
244
244
244
244
244
244
244
49
92
49
0
0
0
0
0
4
0
0
0
0
0
0
0
0
0
0
0
0
0
0
0
0
0
0
0
0
0
0
0
0
0
0
0
0
0
0
0
0
0
0
0
0
0
0
0
0
0
0
0
0
0
0
0
0
0
0
0
0
0
0
0
0
0
0
0
0
0
0
0
0
0
0
0
0
0
0
0
0
0
0
0
0
0
0
0
0
0
49
49
92
92
165
165
165
92
92
49
92
244
244
49
0
49
92
92
92
49
49
49
49
92
165
92
165
165
244
244
244
244
244
244
244
165
244
165
49
92
92
0
0
0
20
65
121
50
1
0
0
0
0
0
0
0
0
0
0
0
0
0
0
0
0
0
0
0
0
0
0
0
0
0
0
0
0
0
0
0
0
0
0
0
0
0
0
0
0
0
0
0
0
0
0
0
0
0
0
0
0
0
0
0
0
0
0
0
0
0
0
0
0
0
0
0
0
0
0
0
0
0
0
0
0
0
0
0
0
0
0
49
49
49
49
92
165
92
92
92
244
244
165
49
49
49
92
92
92
92
92
92
49
49
49
49
92
92
244
244
244
244
244
92
244
165
49
92
92
0
0
10
108
106
88
128
10
0
0
0
0
0
0
0
0
0
0
0
0
0
0
0
0
0
11
28
25
1
0
0
0
0
0
0
0
0
0
0
0
0
0
0
0
0
0
0
0
0
0
0
0
0
0
0
0
0
0
0
0
0
0
0
0
0
0
0
0
0
0
0
0
0
0
0
0
0
0
0
0
0
0
0
0
0
0
0
0
0
0
0
0
0
49
49
49
49
92
49
92
244
244
244
165
49
0
49
92
49
92
49
92
92
49
92
49
49
49
49
92
244
165
92
244
49
92
92
49
0
0
91
109
83
47
117
21
0
0
0
0
0
0
0
0
0
0
0
0
0
0
0
14
105
182
217
213
84
0
0
0
0
0
0
0
0
0
0
0
0
0
0
0
0
0
0
0
0
0
0
0
0
0
0
0
0
0
0
0
0
0
0
0
0
0
0
0
0
0
0
0
0
0
0
0
0
0
0
0
0
0
0
0
0
0
0
0
0
0
0
0
0
0
0
0
0
49
92
49
49
92
165
244
244
244
49
49
92
49
92
92
92
92
92
92
92
49
92
92
92
92
92
92
49
92
92
0
0
52
161
69
65
91
116
16
0
0
0
0
0
0
0
0
0
0
0
0
0
0
46
197
226
147
104
201
202
15
0
0
0
0
0
0
0
0
0
0
0
0
0
0
0
0
0
0
0
0
0
0
0
0
0
0
0
0
0
0
0
0
0
0
0
0
0
0
0
0
0
0
0
0
0
0
0
0
0
0
0
0
0
0
0
0
0
0
0
0
0
0
0
0
0
0
0
0
49
49
49
92
92
49
92
165
165
244
49
92
92
92
92
49
92
92
49
92
92
49
92
92
92
0
49
49
49
0
7
152
112
27
41
142
97
0
0
0
0
0
0
0
0
0
0
0
0
0
0
44
209
200
48
0
0
50
231
64
0
0
0
0
0
0
0
0
0
0
0
0
0
0
0
0
0
0
0
0
0
0
0
0
0
0
0
0
0
0
0
0
0
0
0
0
0
0
0
0
0
0
0
0
0
0
0
0
0
0
0
0
0
0
0
0
0
0
0
0
0
0
0
0
0
0
0
0
0
49
49
49
49
49
92
92
92
165
49
92
92
92
92
92
92
92
92
49
92
49
92
92
165
0
0
0
0
0
52
141
64
14
123
175
61
0
0
0
0
0
0
0
0
0
0
0
0
0
25
211
175
69
69
147
36
8
211
107
0
0
0
0
0
0
0
0
0
0
0
0
0
0
0
0
0
0
0
0
0
0
0
0
0
0
0
0
0
0
0
0
0
0
0
0
0
0
0
0
0
0
0
0
0
0
0
0
0
0
0
0
0
0
0
0
0
0
0
0
0
0
0
0
0
0
0
0
0
0
0
49
49
49
49
49
49
49
49
49
49
49
92
92
49
92
92
92
92
92
92
49
92
92
0
0
0
0
79
104
70
78
146
121
6
0
0
0
0
0
0
0
0
0
0
0
0
11
154
226
85
136
76
132
121
17
215
94
0
0
0
0
0
0
0
0
0
0
0
0
0
0
0
0
0
0
0
0
0
0
0
0
0
0
0
0
0
0
0
0
0
0
0
0
0
0
0
0
0
0
0
0
0
0
0
0
0
0
0
0
0
0
0
0
0
0
0
0
0
0
0
0
0
0
0
0
0
0
0
0
92
49
49
49
49
49
49
49
49
49
49
49
49
49
49
49
49
92
92
92
49
92
92
92
0
11
84
88
61
149
94
43
0
0
0
0
0
0
0
0
0
0
0
0
7
141
250
151
140
72
7
34
131
60
235
72
0
0
0
0
0
0
0
0
0
0
0
0
0
0
0
0
0
0
0
0
0
0
0
0
0
0
0
0
0
0
0
0
0
0
0
0
0
0
0
0
0
0
0
0
0
0
0
0
0
0
0
0
0
0
0
0
0
0
0
0
0
0
0
0
0
0
0
0
0
0
0
0
0
0
49
49
49
49
49
49
49
49
49
49
49
49
49
49
49
49
49
49
49
92
92
49
92
56
23
170
99
85
16
2
0
0
0
0
0
0
0
0
0
0
0
0
53
236
201
137
80
0
0
50
118
107
208
20
0
0
0
0
0
0
0
0
0
0
0
0
0
0
0
0
0
0
0
0
0
0
0
0
0
0
0
0
0
0
0
0
0
0
0
0
0
0
0
0
0
0
0
0
0
0
0
0
0
0
0
0
0
0
0
0
0
0
0
0
0
0
0
0
0
0
0
0
0
0
0
0
0
0
0
0
0
0
0
0
0
0
49
49
49
49
49
49
49
49
92
0
0
0
0
49
49
92
92
10
20
7
0
0
0
0
0
0
0
0
0
0
0
0
0
0
98
246
145
128
9
0
0
86
97
186
165
2
0
0
0
0
0
0
0
0
0
0
0
0
0
0
0
0
0
0
0
0
0
0
0
0
0
0
0
0
0
0
0
0
0
0
0
0
0
0
0
0
0
0
0
0
0
0
0
0
0
0
0
0
0
0
0
0
0
0
0
0
0
0
0
0
0
0
0
0
0
0
0
0
0
0
0
0
0
0
0
0
0
0
0
0
0
0
0
0
0
49
0
49
49
0
0
0
0
0
0
0
0
0
0
0
0
0
0
0
0
0
0
0
0
0
0
22
201
174
132
83
0
0
31
135
135
222
62
0
0
0
0
0
0
0
0
0
0
0
0
0
0
0
0
0
0
0
0
0
0
0
0
0
0
0
0
0
0
0
0
0
0
0
0
0
0
0
0
0
0
0
0
0
0
0
0
0
0
0
0
0
0
0
0
0
0
0
0
0
0
0
0
0
0
0
0
0
0
0
0
0
0
0
0
0
0
0
0
0
0
0
0
0
0
0
0
0
0
0
0
0
0
0
0
0
0
0
0
0
0
0
0
0
0
0
0
0
0
0
0
0
0
0
0
71
222
82
122
26
0
0
93
154
205
205
23
0
0
0
0
0
0
0
0
0
0
0
0
0
0
0
0
0
0
0
0
0
0
0
0
0
0
0
0
0
0
0
0
0
0
0
0
0
0
0
0
0
0
0
0
0
0
0
0
0
0
0
0
0
0
0
0
0
0
0
0
0
0
0
0
0
0
0
0
0
0
0
0
0
0
0
0
0
0
0
0
0
0
0
0
0
0
0
0
0
0
0
0
0
0
0
0
0
0
0
0
0
0
0
0
0
0
0
0
0
0
0
0
0
0
0
0
133
203
61
118
0
0
44
115
147
253
144
9
0
0
0
0
0
0
0
0
0
0
0
0
0
0
0
0
0
0
0
0
0
0
0
0
0
0
0
0
0
0
0
0
0
0
0
0
0
0
0
0
0
0
0
0
0
0
0
0
0
0
0
0
0
0
0
0
0
0
0
0
0
0
0
0
0
0
0
0
0
0
0
0
0
0
0
0
0
0
0
0
0
0
0
0
0
0
0
0
0
0
0
0
0
0
0
0
0
0
0
0
0
0
0
0
0
0
0
0
0
0
0
0
0
0
0
4
183
172
12
137
38
81
114
86
222
157
36
0
0
0
0
0
0
0
0
0
0
0
0
0
0
0
0
0
0
0
0
0
0
0
0
0
0
0
0
0
0
0
0
0
0
0
0
0
0
0
0
0
0
0
0
0
0
0
0
0
0
0
0
0
0
0
0
0
0
0
0
0
0
0
0
0
0
0
0
0
0
0
0
0
0
0
0
0
0
0
0
0
0
0
0
0
0
0
0
0
0
0
0
0
0
0
0
0
0
0
0
0
0
0
0
0
0
0
0
0
0
0
0
0
0
0
0
6
194
131
0
93
130
65
29
188
192
13
0
0
0
0
0
0
0
0
0
0
0
0
0
0
0
0
0
0
0
0
0
0
0
0
0
0
0
0
0
0
0
0
0
0
0
0
0
0
0
0
0
0
0
0
0
0
0
0
0
0
0
0
0
0
0
0
0
0
0
0
0
0
0
0
0
0
0
0
0
0
0
0
0
0
0
0
0
0
0
0
0
0
0
0
0
0
0
0
0
0
0
0
0
0
0
0
0
0
0
0
0
0
0
0
0
0
0
0
0
0
0
0
0
0
0
0
0
0
173
154
0
0
0
30
192
205
56
0
0
0
0
0
0
0
0
0
0
0
0
0
0
0
0
0
0
0
0
0
0
0
0
0
0
0
0
0
