P2
# CREATOR: GIMP PNM Filter Version 1.1
128 32
255
165
165
165
165
165
244
244
244
244
244
244
244
244
244
244
244
244
244
244
0
0
92
244
244
244
165
165
165
165
92
165
92
165
165
244
165
244
165
92
49
49
49
49
49
49
165
165
92
49
92
49
0
0
0
0
0
0
0
0
0
0
0
0
0
0
0
0
0
0
0
0
0
0
0
0
0
0
0
0
0
0
0
0
0
0
0
0
0
0
0
0
0
0
0
0
0
0
0
0
0
0
0
0
0
0
0
0
0
0
0
0
0
0
0
0
0
0
0
0
0
0
0
0
0
0
0
0
0
165
244
165
92
92
165
165
244
244
244
244
244
244
244
244
244
244
244
244
244
165
244
244
244
244
244
244
165
244
165
165
165
165
165
165
244
165
244
244
165
92
49
49
49
92
49
92
165
165
92
49
92
49
0
0
0
0
0
0
0
0
0
0
0
0
0
0
0
0
0
0
0
0
0
0
0
0
0
0
0
0
0
0
0
0
0
0
0
0
0
0
0
0
0
0
0
0
0
0
0
0
0
0
0
0
0
0
0
0
0
0
0
0
0
0
0
0
0
0
0
0
0
0
0
0
0
0
0
49
0
165
244
92
92
92
92
165
244
244
244
244
244
244
244
244
244
244
244
244
244
244
244
244
244
244
244
244
244
165
165
165
165
165
92
165
244
244
244
244
165
92
49
49
49
49
49
92
165
165
92
49
92
0
0
0
0
0
0
0
0
0
0
0
0
0
0
0
0
0
0
0
0
0
0
0
0
0
0
0
0
0
0
0
0
0
0
0
0
0
0
0
0
0
0
0
0
0
0
0
0
0
0
0
0
0
0
0
0
0
0
0
0
0
0
0
0
0
0
0
0
0
0
0
0
0
0
244
49
49
49
165
165
165
49
49
49
92
165
165
244
244
244
244
244
244
244
244
244
165
244
244
244
244
244
244
244
244
244
244
165
165
165
165
92
165
165
244
244
244
244
165
92
92
49
49
49
49
165
165
165
92
92
49
0
0
0
0
0
0
0
0
0
0
0
0
0
0
0
0
0
0
0
0
0
0
0
0
0
0
0
0
0
0
0
0
0
0
0
0
0
0
0
0
0
0
0
0
0
0
0
0
0
0
0
0
0
0
0
0
0
0
0
0
0
0
0
0
0
0
0
0
0
0
0
165
165
165
49
0
49
165
165
165
92
49
92
49
92
165
165
244
244
244
244
244
165
244
244
165
244
244
244
244
244
244
244
244
244
244
244
165
165
165
165
165
244
244
165
244
244
165
92
92
49
92
49
49
165
165
92
92
92
0
0
0
0
0
0
0
0
0
0
0
0
0
0
0
0
0
0
0
0
0
0
0
0
0
0
0
0
0
0
0
0
0
0
0
0
0
0
0
0
0
0
0
0
0
0
0
0
0
0
0
0
0
0
0
0
0
0
0
0
0
0
0
0
0
0
0
0
0
0
0
49
165
92
92
49
0
49
92
244
165
165
49
49
49
92
49
92
165
165
244
244
244
244
244
244
165
244
244
244
244
244
244
244
244
244
244
244
244
165
165
165
165
244
244
244
244
244
165
92
0
0
0
0
0
0
49
92
0
0
0
0
0
0
0
0
0
0
0
0
0
0
0
0
0
0
0
0
0
0
0
0
0
0
0
0
0
0
0
0
0
0
0
0
0
0
0
0
0
0
0
0
0
0
0
0
0
0
0
0
0
0
0
0
0
0
0
0
0
0
0
0
0
0
0
0
0
0
0
0
49
49
165
165
92
0
49
0
49
165
244
165
92
49
49
49
92
92
92
165
244
244
244
244
244
244
244
244
244
244
244
244
244
244
244
244
244
244
244
244
165
165
165
244
244
244
165
165
92
0
0
0
0
0
0
0
0
0
0
0
0
0
0
0
0
0
0
0
0
0
0
0
0
0
0
0
0
0
0
0
0
0
0
0
0
0
0
0
0
0
0
0
0
0
0
0
0
0
0
0
0
0
0
0
0
0
0
0
0
0
0
0
0
0
0
0
0
0
0
0
0
0
0
0
0
0
0
0
0
0
0
92
165
165
49
49
49
0
0
92
165
165
165
165
49
49
92
49
92
92
165
244
244
244
244
244
244
244
244
244
244
244
244
244
244
244
244
244
244
244
165
165
244
165
244
244
92
165
244
0
0
0
0
0
0
0
0
0
0
0
0
0
0
0
0
0
0
0
0
0
0
0
0
0
0
0
0
0
0
0
0
0
0
0
0
0
0
0
0
0
0
0
0
0
0
0
0
0
0
0
0
0
0
0
0
0
0
0
0
0
0
0
0
0
0
0
0
0
0
0
0
0
0
0
0
0
0
0
0
0
49
92
165
165
92
49
49
49
49
49
49
92
165
165
165
92
49
92
92
92
92
92
165
244
244
244
244
244
244
244
244
244
244
244
244
244
244
244
244
244
165
165
165
244
92
0
49
0
0
0
0
0
0
0
0
0
0
0
0
0
0
0
0
0
0
0
0
0
0
0
0
0
0
0
0
0
0
0
0
0
0
0
0
0
0
0
0
0
0
0
0
0
0
0
0
0
0
0
0
0
0
0
0
0
0
0
0
0
0
0
0
0
0
0
0
0
0
0
0
0
0
0
0
0
0
0
0
0
0
0
0
92
165
92
92
92
49
49
92
49
49
49
92
92
165
244
92
92
165
165
92
165
165
165
165
244
244
244
244
244
244
244
244
244
244
244
244
244
244
165
165
165
92
0
0
0
0
0
0
0
0
0
0
0
0
0
0
0
0
0
0
0
0
0
0
0
0
0
0
0
0
0
0
0
0
0
0
0
0
0
0
0
0
0
0
0
0
0
0
0
0
0
0
0
0
0
0
0
0
0
0
0
0
0
0
0
0
0
0
0
0
0
0
0
0
0
0
0
0
0
0
0
0
0
0
0
0
0
0
0
0
49
92
92
165
92
92
49
49
92
49
49
244
165
0
49
92
92
92
49
92
92
92
92
165
165
165
244
244
244
244
244
244
244
244
244
244
244
244
244
49
92
49
0
0
0
0
0
4
0
0
0
0
0
0
0
0
0
0
0
0
0
0
0
0
0
0
0
0
0
0
0
0
0
0
0
0
0
0
0
0
0
0
0
0
0
0
0
0
0
0
0
0
0
0
0
0
0
0
0
0
0
0
0
0
0
0
0
0
0
0
0
0
0
0
0
0
0
0
0
0
0
0
0
0
0
0
0
0
0
49
49
92
92
165
165
165
92
92
49
92
244
244
49
0
49
92
92
92
49
49
49
49
92
165
92
165
165
244
244
244
244
244
244
244
165
244
165
49
92
92
0
0
0
20
65
121
50
1
0
0
0
0
0
0
0
0
0
0
0
0
0
0
0
0
0
0
0
0
0
0
0
0
0
0
0
0
0
0
0
0
0
0
0
0
0
0
0
0
0
0
0
0
0
0
0
0
0
0
0
0
0
0
0
0
0
0
0
0
0
0
0
0
0
0
0
0
0
0
0
0
0
0
0
0
0
0
0
0
0
0
49
49
49
49
92
165
92
92
92
244
244
165
49
49
49
92
92
92
92
92
92
49
49
49
49
92
92
244
244
244
244
244
92
244
165
49
92
92
0
0
10
108
106
88
128
10
0
0
0
0
0
0
0
0
0
0
0
0
0
0
0
0
0
11
28
25
1
0
0
0
0
0
0
0
0
0
0
0
0
0
0
0
0
0
0
0
8
15
15
5
0
0
0
0
0
0
0
0
0
0
0
0
0
0
0
0
0
0
0
0
0
0
0
0
0
0
0
0
0
0
0
0
0
0
0
0
0
0
0
0
0
49
49
49
49
92
49
92
244
244
244
165
49
0
49
92
49
92
49
92
92
49
92
49
49
49
49
92
244
165
92
244
49
92
92
49
0
0
91
109
83
47
117
21
0
0
0
0
0
0
0
0
0
0
0
0
0
0
0
14
105
182
217
213
84
0
0
0
0
0
0
0
0
0
0
0
0
0
0
0
0
14
42
92
153
172
161
79
0
0
0
0
0
0
0
0
0
0
0
0
0
0
0
0
0
0
0
0
0
0
0
0
0
0
0
0
0
0
0
0
0
0
0
0
0
0
0
0
0
0
0
0
0
49
92
49
49
92
165
244
244
244
49
49
92
49
92
92
92
92
92
92
92
49
92
92
92
92
92
92
49
92
92
0
0
52
161
69
65
91
116
16
0
0
0
0
0
0
0
0
0
0
0
0
0
0
46
197
226
147
104
201
202
15
0
0
0
0
0
0
0
0
0
0
0
0
0
0
49
159
231
252
253
255
254
193
29
0
0
0
0
0
0
0
0
0
0
0
0
0
0
0
0
0
0
0
0
0
0
0
0
0
0
0
0
0
0
0
0
0
0
0
0
0
0
0
0
0
0
0
0
0
49
49
49
92
92
49
92
165
165
244
49
92
92
92
92
49
92
92
49
92
92
49
92
92
92
0
49
49
49
0
7
152
112
27
41
142
97
0
0
0
0
0
0
0
0
0
0
0
0
0
0
44
209
200
48
0
0
50
231
64
0
0
0
0
0
0
0
0
0
0
0
0
16
93
215
253
214
149
96
146
234
254
101
0
0
0
0
0
0
0
0
0
0
0
0
0
0
0
0
0
0
0
0
0
0
0
0
0
0
0
0
0
0
0
0
0
0
0
0
0
0
0
0
0
0
0
0
0
0
49
49
49
49
49
92
92
92
165
49
92
92
92
92
92
92
92
92
49
92
49
92
92
165
0
0
0
0
0
52
141
64
14
123
175
61
0
0
0
0
0
0
0
0
0
0
0
0
0
25
211
175
69
69
147
36
8
211
107
0
0
0
0
0
0
0
0
0
0
0
12
135
247
249
141
30
7
0
2
102
250
164
6
0
0
0
0
0
0
0
0
0
0
0
0
0
0
0
0
0
0
0
0
0
0
0
0
0
0
0
0
0
0
0
0
0
0
0
0
0
0
0
0
0
0
0
0
0
0
0
49
49
49
49
49
49
49
49
49
49
49
92
92
49
92
92
92
92
92
92
49
92
92
0
0
0
0
79
104
70
78
146
121
6
0
0
0
0
0
0
0
0
0
0
0
0
11
154
226
85
136
76
132
121
17
215
94
0
0
0
0
0
0
0
0
0
0
8
92
239
237
120
18
0
0
0
0
44
230
212
32
0
0
0
0
0
0
0
0
0
0
0
0
0
0
0
0
0
0
0
0
0
0
0
0
0
0
0
0
0
0
0
0
0
0
0
0
0
0
0
0
0
0
0
0
0
0
0
0
92
49
49
49
49
49
49
49
49
49
49
49
49
49
49
49
49
92
92
92
49
92
92
92
0
11
84
88
61
149
94
43
0
0
0
0
0
0
0
0
0
0
0
0
7
141
250
151
140
72
7
34
131
60
235
72
0
0
0
0
0
0
0
0
0
9
126
243
234
110
0
18
57
70
13
0
18
195
239
61
0
0
0
0
0
0
0
0
0
0
0
0
0
0
0
0
0
0
0
0
0
0
0
0
0
0
0
0
0
0
0
0
0
0
0
0
0
0
0
0
0
0
0
0
0
0
0
0
0
0
49
49
49
49
49
49
49
49
49
49
49
49
49
49
49
49
49
49
49
92
92
49
92
56
23
170
99
85
16
2
0
0
0
0
0
0
0
0
0
0
0
0
53
236
201
137
80
0
0
50
118
107
208
20
0
0
0
0
0
0
0
0
0
71
241
236
71
15
117
185
229
242
76
0
13
180
228
49
0
0
0
0
0
0
0
0
0
0
0
0
0
0
0
0
0
0
0
0
0
0
0
0
0
0
0
0
0
0
0
0
0
0
0
0
0
0
0
0
0
0
0
0
0
0
0
0
0
0
0
0
0
0
0
0
0
0
49
49
49
49
49
49
49
49
92
0
0
0
0
49
49
92
92
10
20
7
0
0
0
0
0
0
0
0
0
0
0
0
0
0
98
246
145
128
9
0
0
86
97
186
165
2
0
0
0
0
0
0
0
0
22
176
255
112
28
175
206
103
68
195
145
0
47
232
212
34
0
0
0
0
0
0
0
0
0
0
0
0
0
0
0
0
0
0
0
0
0
0
0
0
0
0
0
0
0
0
0
0
0
0
0
0
0
0
0
0
0
0
0
0
0
0
0
0
0
0
0
0
0
0
0
0
0
0
0
0
0
0
0
0
0
49
0
49
49
0
0
0
0
0
0
0
0
0
0
0
0
0
0
0
0
0
0
0
0
0
0
22
201
174
132
83
0
0
31
135
135
222
62
0
0
0
0
0
0
0
0
56
166
252
188
73
165
174
34
0
0
113
186
1
65
246
200
23
0
0
0
0
0
0
0
0
0
0
0
0
0
0
0
0
0
0
0
0
0
0
0
0
0
0
0
0
0
0
0
0
0
0
0
0
0
0
0
0
0
0
0
0
0
0
0
0
0
0
0
0
0
0
0
0
0
0
0
0
0
0
0
0
0
0
0
0
0
0
0
0
0
0
0
0
0
0
0
0
0
0
0
0
0
0
0
0
0
0
0
71
222
82
122
26
0
0
93
154
205
205
23
0
0
0
0
0
0
0
24
169
252
232
103
163
167
21
0
3
0
97
186
10
130
255
153
10
0
0
0
0
0
0
0
0
0
0
0
0
0
0
0
0
0
0
0
0
0
0
0
0
0
0
0
0
0
0
0
0
0
0
0
0
0
0
0
0
0
0
0
0
0
0
0
0
0
0
0
0
0
0
0
0
0
0
0
0
0
0
0
0
0
0
0
0
0
0
0
0
0
0
0
0
0
0
0
0
0
0
0
0
0
0
0
0
0
0
0
133
203
61
118
0
0
44
115
147
253
144
9
0
0
0
0
0
0
3
104
240
255
158
128
204
60
0
0
0
0
126
175
6
169
241
57
0
0
0
0
0
0
0
0
0
0
0
0
0
0
0
0
0
0
0
0
0
0
0
0
0
0
0
0
0
0
0
0
0
0
0
0
0
0
0
0
0
0
0
0
0
0
0
0
0
0
0
0
0
0
0
0
0
0
0
0
0
0
0
0
0
0
0
0
0
0
0
0
0
0
0
0
0
0
0
0
0
0
0
0
0
0
0
0
0
0
0
4
183
172
12
137
38
81
114
86
222
157
36
0
0
0
0
0
0
0
8
168
253
208
112
211
120
16
1
0
0
5
162
111
39
221
225
38
0
0
0
0
0
0
0
0
0
0
0
0
0
0
0
0
0
0
0
0
0
0
0
0
0
0
0
0
0
0
0
0
0
0
0
0
0
0
0
0
0
0
0
0
0
0
0
0
0
0
0
0
0
0
0
0
0
0
0
0
0
0
0
0
0
0
0
0
0
0
0
0
0
0
0
0
0
0
0
0
0
0
0
0
0
0
0
0
0
0
0
6
194
131
0
93
130
65
29
188
192
13
0
0
0
0
0
0
0
0
16
183
255
128
149
189
25
5
0
0
0
47
178
62
139
255
155
11
0
0
0
0
0
0
0
0
0
0
0
0
0
0
0
0
0
0
0
0
0
0
0
0
0
0
0
0
0
0
0
0
0
0
0
0
0
0
0
0
0
0
0
0
0
0
0
0
0
0
0
0
0
0
0
0
0
0
0
0
0
0
0
0
0
0
0
0
0
0
0
0
0
0
0
0
0
0
0
0
0
0
0
0
0
0
0
0
0
0
0
0
173
154
0
0
0
30
192
205
56
0
0
0
0
0
0
0
0
0
90
247
197
99
198
80
0
0
0
0
7
146
139
80
235
221
47
0
0
0
0
0
0
0
0
0
0
0
0
0
0
0
0
0
0
0
0
0
0
0
0
0
0
0
0
0
0
0
0
0
0
0
0
0
0
0
0
0
0
0
0
0
0
0
0
0
0
0
0
0
0
0
0
0
0
0
0
0
0
0
0
0
0
0
0
0
0
0
0
0
0
0
0
0
0
0
0
0
0
0
0
0
0
0
0
0
0
0
0
0
113
226
64
29
94
212
212
47
0
0
0
0
0
0
0
0
0
40
199
253
96
114
162
6
0
0
0
2
73
222
108
162
255
131
0
0
0
0
0
0
0
0
0
0
0
0
0
0
0
0
0
0
0
0
0
0
0
0
0
0
0
0
0
0
0
0
0
0
0
0
0
0
0
0
0
0
0
0
0
0
0
0
0
0
0
0
0
0
0
0
0
0
0
0
0
0
0
0
0
0
0
0
0
0
0
0
0
0
0
0
0
0
0
0
0
0
0
0
0
0
0
0
0
0
0
0
0
0
35
214
244
215
219
154
26
0
0
0
0
0
0
0
0
0
0
85
252
177
25
159
113
0
0
0
0
29
187
177
121
237
251
120
0
0
0
0
0
0
0
0
0
0
0
0
0
0
0
0
0
0
0
0
0
0
0
0
0
0
0
0
0
0
0
0
0
0
0
0
0
0
0
0
0
0
0
0
0
0
0
0
0
0
0
0
0
0
0
0
0
0
0
0
0
0
0
0
0
0
0
0
0
0
0
0
0
0
0
0
0
0
0
0
0
0
0
0
0
0
0
0
0
0
0
0
0
0
0
59
108
89
38
4
0
0
0
0
0
0
0
0
0
0
0
103
251
105
26
211
76
0
0
0
0
104
182
86
194
255
223
71
0
0
0
0
0
0
0
0
0
0
0
0
0
0
0
0
0
0
0
0
0
0
0
0
0
0
0
0
0
0
0
0
0
0
0
0
0
0
0
0
0
0
0
0
0
0
0
0
0
0
0
0
0
0
0
0
0
0
0
0
0
0
0
0
0
0
0
0
0
0
0
0
0
0
0
0
0
0
0
0
0
0
0
0
0
0
0
0
0
0
0
0
0
0
0
0
0
0
0
0
0
0
0
0
0
0
0
0
0
0
31
191
254
90
36
207
53
0
0
0
75
174
85
128
254
251
136
8
0
0
0
0
0
0
0
0
0
0
0
0
0
0
0
0
0
0
0
0
0
0
0
0
0
0
0
0
0
0
0
0
0
0
0
0
0
0
0
0
0
0
0
0
0
0
0
0
0
0
0
0
0
0
0
0
0
0
0
0
0
0
0
0
0
0
0
0
0
0
0
0
0
0
0
0
0
0
0
0
0
0
0
0
0
0
0
0
0
0
0
0
0
0
0
0
0
0
0
0
0
0
0
0
0
0
0
0
0
0
61
235
220
39
18
205
90
0
22
106
213
87
63
229
239
148
38
0
0
0
0
0
0
0
0
0
0
0
0
0
0
0
0
0
0
0
0
0
0
0
0
0
