P2
# CREATOR: GIMP PNM Filter Version 1.1
128 32
255
0
0
0
0
0
0
0
0
0
0
0
0
0
0
44
209
200
48
0
0
50
231
64
0
0
0
0
0
0
0
0
0
0
0
0
16
93
215
253
214
149
96
146
234
254
101
0
0
0
0
0
0
0
0
19
19
19
36
81
129
138
139
139
136
138
138
138
120
50
20
19
19
19
19
19
19
19
19
19
19
19
20
22
25
33
43
40
30
19
19
19
19
19
19
19
19
19
19
19
19
0
0
0
0
0
0
0
0
0
0
0
0
0
0
0
0
0
0
0
0
0
0
0
0
0
0
0
0
0
0
0
0
0
0
0
0
0
0
0
0
0
25
211
175
69
69
147
36
8
211
107
0
0
0
0
0
0
0
0
0
0
0
12
135
247
249
141
30
7
0
2
102
250
164
6
0
0
0
0
0
0
0
19
26
54
111
137
138
127
105
85
59
73
116
138
139
93
23
19
19
19
19
19
19
19
19
20
28
37
43
50
63
68
70
69
68
47
25
19
19
19
19
19
19
19
19
19
19
0
0
0
0
0
0
0
0
0
0
0
0
0
0
0
0
0
0
0
0
0
0
0
0
0
0
0
0
0
0
0
0
0
0
0
0
0
0
0
0
11
154
226
85
136
76
132
121
17
215
94
0
0
0
0
0
0
0
0
0
0
8
92
239
237
120
18
0
0
0
0
44
230
212
32
0
0
0
0
0
0
0
25
84
126
137
140
94
47
31
22
19
20
42
107
138
112
32
19
19
19
19
19
19
19
22
36
60
67
69
69
68
69
69
68
69
68
56
32
20
19
19
19
19
19
19
19
19
0
0
0
0
0
0
0
0
0
0
0
0
0
0
0
0
0
0
0
0
0
0
0
0
0
0
0
0
0
0
0
0
0
0
0
0
0
0
0
7
141
250
151
140
72
7
34
131
60
235
72
0
0
0
0
0
0
0
0
0
9
126
243
234
110
0
18
57
70
13
0
18
195
239
61
0
0
0
0
0
0
0
52
128
137
137
109
38
19
19
19
19
19
19
68
138
131
53
19
19
19
19
19
20
27
51
61
68
68
70
69
63
54
55
67
71
69
70
58
25
19
19
19
19
19
19
19
19
0
0
0
0
0
0
0
0
0
0
0
0
0
0
0
0
0
0
0
0
0
0
0
0
0
0
0
0
0
0
0
0
0
0
0
0
0
0
0
53
236
201
137
80
0
0
50
118
107
208
20
0
0
0
0
0
0
0
0
0
71
241
236
71
15
117
185
229
242
76
0
13
180
228
49
0
0
0
0
0
6
42
106
137
137
65
34
19
19
19
19
19
19
19
50
133
138
79
20
19
19
19
24
42
58
68
68
67
56
46
33
25
22
20
27
51
66
68
64
30
19
19
19
19
19
19
19
19
0
0
0
0
0
0
0
0
0
0
0
0
0
0
0
0
0
0
0
0
0
0
0
0
0
0
0
0
0
0
0
0
0
0
0
0
0
0
0
98
246
145
128
9
0
0
86
97
186
165
2
0
0
0
0
0
0
0
0
22
176
255
112
28
175
206
103
68
195
145
0
47
232
212
34
0
0
0
0
1
50
121
140
127
86
23
19
28
48
35
19
19
19
19
33
113
137
102
27
19
19
21
46
69
68
68
71
50
24
19
19
19
19
19
19
23
52
69
68
42
20
19
19
19
19
19
19
19
0
0
0
0
0
0
0
0
0
0
0
0
0
0
0
0
0
0
0
0
0
0
0
0
0
0
0
0
0
0
0
0
0
0
0
0
0
0
22
201
174
132
83
0
0
31
135
135
222
62
0
0
0
0
0
0
0
0
56
166
252
188
73
165
174
34
0
0
113
186
1
65
246
200
23
0
0
0
0
17
103
131
120
39
29
78
150
190
230
214
100
19
19
19
21
93
137
102
25
19
19
31
61
68
69
64
56
26
19
19
19
19
19
19
19
19
39
67
69
55
24
19
19
19
19
19
19
19
0
0
0
0
0
0
0
0
0
0
0
0
0
0
0
0
0
0
0
0
0
0
0
0
0
0
0
0
0
0
0
0
0
0
0
0
0
0
71
222
82
122
26
0
0
93
154
205
205
23
0
0
0
0
0
0
0
24
169
252
232
103
163
167
21
0
3
0
97
186
10
130
255
153
10
0
0
0
1
63
129
126
76
38
124
233
224
190
173
237
241
68
19
19
30
105
139
92
23
21
40
54
67
70
66
28
20
19
19
19
19
19
19
19
19
19
30
65
68
63
31
19
19
19
19
19
19
19
0
0
0
0
0
0
0
0
0
0
0
0
0
0
0
0
0
0
0
0
0
0
0
0
0
0
0
0
0
0
0
0
0
0
0
0
0
0
133
203
61
118
0
0
44
115
147
253
144
9
0
0
0
0
0
0
3
104
240
255
158
128
204
60
0
0
0
0
126
175
6
169
241
57
0
0
6
8
34
111
127
93
62
187
231
169
60
27
21
81
238
144
19
19
56
133
138
87
23
44
68
68
68
67
44
19
19
19
19
19
19
19
19
19
19
19
24
59
68
69
39
19
19
19
19
19
19
19
0
0
0
0
0
0
0
0
0
0
0
0
0
0
0
0
0
0
0
0
0
0
0
0
0
0
0
0
0
0
0
0
0
0
0
0
0
4
183
172
12
137
38
81
114
86
222
157
36
0
0
0
0
0
0
0
8
168
253
208
112
211
120
16
1
0
0
5
162
111
39
221
225
38
0
3
19
53
102
130
117
86
171
245
144
38
19
19
19
19
178
215
34
19
41
130
139
78
29
65
68
73
47
25
22
20
21
20
19
19
19
19
19
19
19
19
20
46
67
68
44
20
19
19
19
19
19
19
0
0
0
0
0
0
0
0
0
0
0
0
0
0
0
0
0
0
0
0
0
0
0
0
0
0
0
0
0
0
0
0
0
0
0
0
0
6
194
131
0
93
130
65
29
188
192
13
0
0
0
0
0
0
0
0
16
183
255
128
149
189
25
5
0
0
0
47
178
62
139
255
155
11
1
11
46
104
127
126
88
144
251
122
26
19
20
19
19
19
135
239
58
21
52
139
140
76
53
69
68
62
23
19
22
28
21
19
19
19
19
19
19
19
19
19
19
42
67
66
40
19
19
19
19
19
19
19
0
0
0
0
0
0
0
0
0
0
0
0
0
0
0
0
0
0
0
0
0
0
0
0
0
0
0
0
0
0
0
0
0
0
0
0
0
0
173
154
0
0
0
30
192
205
56
0
0
0
0
0
0
0
0
0
90
247
197
99
198
80
0
0
0
0
7
146
139
80
235
221
47
0
8
30
93
131
127
115
113
237
180
31
19
19
19
19
19
19
148
233
47
27
97
140
116
53
67
67
68
42
19
21
28
20
19
19
19
19
19
19
19
19
19
19
24
58
69
66
40
19
19
19
19
19
19
19
0
0
0
0
0
0
0
0
0
0
0
0
0
0
0
0
0
0
0
0
0
0
0
0
0
0
0
0
0
0
0
0
0
0
0
0
0
0
113
226
64
29
94
212
212
47
0
0
0
0
0
0
0
0
0
40
199
253
96
114
162
6
0
0
0
2
73
222
108
162
255
131
0
1
17
65
121
127
120
135
227
234
104
31
19
19
19
19
19
27
177
235
41
25
104
142
82
57
70
68
53
30
21
22
21
19
19
19
19
19
19
19
19
19
19
19
32
65
68
66
34
19
19
19
19
19
19
19
0
0
0
0
0
0
0
0
0
0
0
0
0
0
0
0
0
0
0
0
0
0
0
0
0
0
0
0
0
0
0
0
0
0
0
0
0
0
35
214
244
215
219
154
26
0
0
0
0
0
0
0
0
0
0
85
252
177
25
159
113
0
0
0
0
29
187
177
121
237
251
120
0
0
7
77
128
121
119
187
255
156
62
23
19
19
19
19
19
39
219
182
22
42
133
146
89
69
68
64
38
24
21
19
19
19
19
19
19
19
19
19
19
20
20
19
21
59
69
66
29
19
19
19
19
19
19
19
0
0
0
0
0
0
0
0
0
0
0
0
0
0
0
0
0
0
0
0
0
0
0
0
0
0
0
0
0
0
0
0
0
0
0
0
0
0
0
59
108
89
38
4
0
0
0
0
0
0
0
0
0
0
0
103
251
105
26
211
76
0
0
0
0
104
182
86
194
255
223
71
0
0
4
75
127
114
105
229
215
83
33
19
19
19
19
19
19
77
246
114
26
103
149
152
93
69
70
47
22
19
19
19
19
19
19
19
19
19
19
19
19
21
19
19
26
71
68
67
32
19
19
19
19
19
19
19
0
0
0
0
0
0
0
0
0
0
0
0
0
0
0
0
0
0
0
0
0
0
0
0
0
0
0
0
0
0
0
0
0
0
0
0
0
0
0
0
0
0
0
0
0
0
0
0
0
0
0
0
0
0
31
191
254
90
36
207
53
0
0
0
75
174
85
128
254
251
136
8
0
0
29
109
126
99
124
248
129
26
19
19
19
19
19
19
31
174
244
68
56
141
159
132
74
68
60
27
19
19
19
19
19
19
19
19
19
19
19
19
19
20
19
19
54
73
68
52
22
19
19
19
19
19
19
19
0
0
0
0
0
0
0
0
0
0
0
0
0
0
0
0
0
0
0
0
0
0
0
0
0
0
0
0
0
0
0
0
0
0
0
0
0
0
0
0
0
0
0
0
0
0
0
0
0
0
0
0
0
0
61
235
220
39
18
205
90
0
22
106
213
87
63
229
239
148
38
0
0
7
82
129
117
88
221
188
32
0
19
19
19
19
19
22
97
246
138
37
112
153
150
86
68
68
42
20
19
19
19
19
19
19
19
19
19
19
19
19
19
19
19
19
56
68
61
31
19
19
19
19
19
19
19
19
0
0
0
0
0
0
0
0
0
0
0
0
0
0
0
0
0
0
0
0
0
0
0
0
0
0
0
0
0
0
0
0
0
0
0
0
0
0
0
0
0
0
0
0
0
0
0
0
0
0
0
0
0
0
78
245
195
23
0
157
206
135
187
204
85
12
166
255
130
11
0
0
0
45
121
126
86
76
241
96
0
0
19
19
19
19
19
56
187
255
100
68
138
159
113
66
67
55
26
19
19
19
19
19
19
19
19
19
19
19
19
19
19
19
19
27
61
68
57
23
19
19
19
19
19
19
19
19
0
0
0
0
0
0
0
0
0
0
0
0
0
0
0
0
0
0
0
0
0
0
0
0
0
0
0
0
0
0
0
0
0
0
0
0
0
0
0
0
0
0
0
0
0
0
0
0
0
0
0
0
0
0
93
253
133
0
0
51
173
169
104
26
0
113
254
202
30
0
0
0
3
75
129
111
49
128
242
62
0
1
19
19
19
19
20
123
251
227
98
107
139
156
112
65
64
36
19
19
19
19
19
19
19
19
19
19
19
19
19
19
19
19
21
46
69
68
62
22
19
19
19
19
19
19
19
19
0
0
0
0
0
0
0
0
0
0
0
0
0
0
0
0
0
0
0
0
0
0
0
0
0
0
0
0
0
0
0
0
0
0
0
0
0
0
0
0
0
0
0
0
0
0
0
0
0
0
0
0
0
0
103
255
141
0
0
0
7
4
0
11
142
243
229
86
0
0
0
0
1
70
130
76
11
188
227
36
1
2
19
19
19
19
53
211
247
140
87
131
142
157
121
76
51
25
19
19
19
19
19
19
19
19
19
19
19
19
19
19
19
19
34
63
67
71
40
19
19
19
19
19
19
19
19
19
0
0
0
0
0
0
0
0
0
0
0
0
0
0
0
0
0
0
0
0
0
0
0
0
0
0
0
0
0
0
0
0
0
0
0
0
0
0
0
0
0
0
0
0
0
0
0
0
0
0
0
0
0
0
67
241
185
12
0
0
0
0
35
138
255
217
63
2
0
0
0
0
17
98
128
81
14
193
193
15
0
1
19
19
19
19
145
250
115
71
113
139
152
141
97
62
34
19
19
19
19
19
19
19
19
19
19
19
19
19
19
19
19
22
52
69
70
61
23
19
19
19
19
19
19
19
19
19
0
0
0
0
0
0
0
0
0
0
0
0
0
0
0
0
0
0
0
0
0
0
0
0
0
0
0
0
0
0
0
0
0
0
0
0
0
0
0
0
0
0
0
0
0
0
0
0
0
0
0
0
0
0
27
210
234
58
0
0
11
37
163
249
232
94
0
0
0
0
0
3
67
130
128
60
10
189
186
4
0
1
19
19
19
100
242
184
42
88
137
145
154
113
73
45
24
19
19
19
19
19
19
19
19
19
19
19
19
19
19
19
19
37
65
68
68
32
20
19
19
19
19
19
19
19
19
19
0
0
0
0
0
0
0
0
0
0
0
0
0
0
0
0
0
0
0
0
0
0
0
0
0
0
0
0
0
0
0
0
0
0
0
0
0
0
0
0
0
0
0
0
0
0
0
0
0
0
0
0
0
0
8
165
255
206
110
102
165
218
252
196
74
7
0
0
0
0
0
4
81
129
119
28
0
146
224
32
0
0
19
33
124
243
185
55
62
130
142
156
135
90
59
30
19
19
19
19
19
19
19
19
19
19
19
19
19
19
19
19
27
58
68
69
49
19
19
19
19
19
19
19
19
19
19
19
0
0
0
0
0
0
0
0
0
0
0
0
0
0
0
0
0
0
0
0
0
0
0
0
0
0
0
0
0
0
0
0
0
0
0
0
0
0
0
0
0
0
0
0
0
0
0
0
0
0
0
0
0
0
0
65
224
255
255
251
253
230
137
32
0
0
0
0
0
0
0
8
79
128
125
29
0
71
249
133
16
18
64
162
253
205
37
26
112
139
133
105
89
70
39
19
19
19
19
19
19
19
19
19
19
19
19
19
19
19
19
24
46
66
68
69
40
19
19
19
19
19
19
19
19
19
19
19
0
0
0
0
0
0
0
0
0
0
0
0
0
0
0
0
0
0
0
0
0
0
0
0
0
0
0
0
0
0
0
0
0
0
0
0
0
0
0
0
0
0
0
0
0
0
0
0
0
0
0
0
0
0
0
10
120
170
176
145
89
41
9
0
0
0
0
0
0
0
0
8
90
131
94
15
0
11
186
255
200
193
239
235
148
41
20
71
139
143
78
65
69
49
23
19
19
19
19
19
19
19
19
19
19
19
19
19
19
19
22
38
58
68
68
68
52
23
19
19
19
19
19
19
19
19
19
19
0
0
0
0
0
0
0
0
0
0
0
0
0
0
0
0
0
0
0
0
0
0
0
0
0
0
0
0
0
0
0
0
0
0
0
0
0
0
0
0
0
0
0
0
0
0
0
0
0
0
0
0
0
0
0
4
18
18
16
7
0
0
0
0
0
0
0
0
0
0
0
9
94
131
56
0
0
0
56
174
200
176
138
82
20
19
42
126
138
117
50
66
69
49
20
19
19
19
19
19
19
19
19
19
19
19
19
19
19
20
31
50
66
68
68
64
45
28
19
19
19
19
19
19
19
19
19
19
0
0
0
0
0
0
0
0
0
0
0
0
0
0
0
0
0
0
0
0
0
0
0
0
0
0
0
0
0
0
0
0
0
0
0
0
0
0
0
0
0
0
0
0
0
0
0
0
0
0
0
0
0
0
0
0
0
0
0
0
0
0
0
0
0
0
0
0
0
0
0
14
100
128
69
3
0
0
1
15
12
4
19
19
23
66
123
138
139
74
59
69
70
54
20
19
19
19
19
19
19
19
19
19
19
19
19
19
19
23
41
61
68
68
67
52
33
20
19
19
19
19
19
19
19
19
19
19
0
0
0
0
0
0
0
0
0
0
0
0
0
0
0
0
0
0
0
0
0
0
0
0
0
0
0
0
0
0
0
0
0
0
0
0
0
0
0
0
0
0
0
0
0
0
0
0
0
0
0
0
0
0
0
0
0
0
0
0
0
0
0
0
0
0
0
0
0
0
0
5
80
128
86
16
0
0
0
0
0
0
19
25
61
132
137
117
73
53
69
68
66
32
19
19
19
19
19
19
19
19
19
19
19
19
19
20
21
32
55
68
68
68
60
39
24
19
19
19
19
19
19
19
19
19
19
19
0
0
0
0
0
0
0
0
0
0
0
0
0
0
0
0
0
0
0
0
0
0
0
0
0
0
0
0
0
0
0
0
0
0
0
0
0
0
0
0
0
0
0
0
0
0
0
0
0
0
0
0
0
0
0
0
0
0
0
0
0
0
0
0
0
0
0
0
0
0
0
0
48
128
105
31
0
0
0
0
0
0
33
90
126
137
126
55
20
40
68
68
58
25
19
19
19
19
19
19
19
19
19
19
19
19
20
20
24
46
65
68
70
68
49
30
19
19
19
19
19
19
19
19
19
19
19
19
0
0
0
0
0
0
0
0
0
0
0
0
0
0
0
0
0
0
0
0
0
0
0
0
0
0
0
0
0
0
0
0
0
0
0
0
0
0
0
0
0
0
0
0
0
0
0
0
0
0
0
0
0
0
0
0
0
0
0
0
0
0
0
0
0
0
0
0
0
0
0
0
27
118
127
65
8
0
0
0
5
12
75
139
137
134
88
25
20
42
69
68
66
27
19
19
19
19
19
19
19
19
19
19
19
19
19
19
30
61
68
70
51
35
33
23
19
19
19
19
19
19
19
19
19
19
19
19
0
0
0
0
0
0
0
0
0
0
0
0
0
0
0
0
0
0
0
0
0
0
0
0
0
0
0
0
0
0
0
0
0
0
0
0
0
0
0
0
0
0
0
0
0
0
0
0
0
0
0
0
0
0
0
0
0
0
0
0
0
0
0
0
0
0
0
0
0
0
0
0
13
99
131
122
85
35
26
48
79
94
130
138
123
70
33
19
21
49
69
70
50
21
19
19
19
19
19
19
19
19
19
19
19
19
19
22
52
69
69
59
21
19
20
19
19
19
19
19
19
19
19
19
19
19
19
19
0
0
0
0
0
0
0
0
0
0
0
0
0
0
0
0
0
0
0
0
0
0
0
0
0
0
0
0
0
0
0
0
0
0
0
0
0
0
0
0
0
0
0
0
0
0
0
0
0
0
0
0
0
0
0
0
0
0
0
0
0
0
0
0
0
0
0
0
0
0
0
0
2
53
120
128
129
118
114
129
129
130
137
99
51
21
19
19
21
45
70
61
26
19
19
19
19
19
19
19
19
19
19
19
19
19
19
37
65
68
69
36
19
19
19
19
19
19
19
19
19
19
19
19
19
19
19
19
0
0
0
0
0
0
0
0
0
0
0
0
0
0
0
0
0
0
0
0
0
0
0
0
0
0
0
0
