P2
# CREATOR: GIMP PNM Filter Version 1.1
128 32
255
202
222
211
158
203
234
221
223
223
222
222
223
222
221
228
240
154
39
0
58
150
204
218
220
218
218
213
213
212
212
207
205
211
216
210
205
203
205
203
201
200
200
218
182
95
4
0
18
102
185
189
191
196
199
191
191
192
193
194
194
190
189
192
173
157
188
181
140
159
183
184
186
188
192
186
164
126
91
81
57
18
0
0
3
128
166
160
164
165
164
147
121
102
105
105
105
109
102
17
0
0
0
0
0
0
0
0
0
0
0
0
0
0
0
0
0
0
0
0
0
0
0
35
158
157
152
152
151
219
247
181
164
224
227
224
228
227
224
222
220
222
223
222
222
235
220
122
21
5
91
179
206
215
217
218
218
214
212
210
209
209
210
211
211
208
207
206
204
202
201
199
202
214
173
71
0
0
24
111
192
195
194
195
196
195
193
189
193
190
192
191
165
172
191
143
127
177
187
180
187
187
187
188
193
179
142
116
91
60
16
0
0
71
153
162
161
160
160
161
159
139
113
102
105
105
105
114
81
0
0
0
0
0
0
0
0
0
0
0
0
0
0
0
0
0
0
0
0
0
0
0
0
73
170
153
150
224
234
171
200
228
227
225
231
229
229
228
224
222
223
224
225
222
221
248
204
89
4
26
114
199
216
223
223
222
216
214
211
209
211
210
210
211
211
209
208
205
203
202
201
198
209
205
147
42
0
4
41
145
198
198
192
194
193
189
189
190
199
178
156
196
167
128
155
197
188
186
188
188
187
187
188
191
179
157
119
74
50
19
5
65
155
171
167
162
159
160
161
165
154
128
109
103
105
105
105
117
60
0
0
0
0
0
0
0
0
0
0
0
0
0
0
0
0
0
0
0
0
0
0
0
0
107
172
241
205
188
248
229
230
233
230
231
230
229
228
226
226
225
224
225
224
223
225
250
180
52
0
42
141
209
223
222
221
219
217
216
215
217
216
211
210
210
210
209
207
205
202
202
201
199
214
196
119
20
0
6
66
176
202
192
185
192
190
198
197
166
180
189
140
142
179
193
190
187
188
187
187
187
180
185
191
181
178
161
140
87
74
118
159
186
175
169
165
160
158
161
163
165
148
122
104
105
105
105
106
113
34
0
0
0
0
0
0
0
0
0
0
0
0
0
0
0
0
0
0
0
0
0
0
0
12
255
115
150
241
233
230
233
232
232
231
231
229
229
230
226
226
224
224
224
222
221
236
248
146
32
0
66
158
204
216
217
218
217
217
218
217
218
211
210
210
210
210
209
206
203
202
201
200
199
216
186
91
0
0
14
102
194
193
190
189
195
179
163
201
169
136
169
193
189
189
190
189
189
188
188
190
177
173
189
206
187
162
152
161
178
187
181
164
163
172
163
158
158
159
162
163
162
141
113
103
105
105
105
110
97
14
0
0
0
0
0
0
0
0
0
0
0
0
0
0
0
0
0
0
0
0
0
0
253
105
0
77
180
231
228
232
234
233
232
230
230
233
231
230
227
225
222
220
223
221
222
248
226
121
17
6
90
181
205
214
220
218
217
218
217
214
210
209
209
209
210
210
209
205
203
202
202
200
203
208
163
63
0
2
30
132
198
198
185
158
183
186
140
152
190
196
193
187
189
189
190
189
194
193
186
192
180
194
149
27
22
89
162
184
176
162
161
170
164
159
158
158
158
159
161
162
154
130
110
103
105
105
105
115
78
0
0
0
0
0
0
0
0
0
0
0
0
0
0
0
0
0
0
0
0
0
250
237
180
35
7
117
221
226
229
233
232
239
238
230
230
231
231
228
224
224
219
221
224
225
227
252
206
94
2
24
119
194
209
219
219
217
217
217
213
210
209
209
209
210
210
210
210
206
203
203
201
197
207
202
153
44
0
7
52
160
179
157
184
148
137
173
196
196
193
188
190
190
190
190
193
189
182
189
184
153
143
44
0
0
32
104
164
171
169
170
164
161
160
159
158
158
159
160
159
161
148
122
107
104
105
105
105
116
53
0
0
0
0
0
0
0
0
0
0
0
0
0
0
0
0
0
0
0
245
239
255
238
151
6
28
146
233
226
228
231
240
240
229
228
231
229
229
227
225
223
219
224
225
224
222
248
178
54
0
45
136
200
212
219
218
217
217
215
212
210
211
209
209
209
210
210
209
206
202
201
200
197
214
199
124
18
0
5
113
185
169
124
162
196
192
193
191
187
189
190
190
193
190
190
189
186
190
154
155
176
109
25
0
0
56
125
166
176
167
161
161
161
160
159
158
159
160
160
159
160
142
119
103
105
105
105
107
109
31
0
0
0
0
0
0
0
0
0
0
0
0
0
0
0
0
0
247
247
248
246
255
235
110
0
55
173
233
233
226
230
232
226
227
229
231
230
229
226
224
223
223
224
218
215
232
235
153
41
0
77
169
206
216
218
221
216
215
216
213
212
209
210
209
209
210
209
204
204
203
201
199
199
211
185
93
6
113
204
139
137
186
210
191
193
188
191
192
191
193
193
191
194
189
181
161
152
175
174
183
182
98
10
0
5
74
159
176
168
161
160
161
160
159
158
158
159
160
160
161
160
142
115
102
105
105
105
112
94
8
0
0
0
0
0
0
0
0
0
0
0
0
0
0
0
248
253
245
248
251
254
254
225
71
0
91
195
235
231
224
228
230
229
230
231
230
230
228
226
225
223
224
223
224
222
239
220
125
13
13
105
199
213
226
223
218
215
217
215
211
210
209
209
209
210
210
206
204
204
202
199
192
196
206
185
204
190
146
178
202
202
189
188
188
194
195
194
196
195
197
195
190
177
151
176
177
135
170
202
196
169
74
1
0
19
100
168
178
165
161
160
161
160
159
158
158
159
160
162
166
159
130
109
103
105
105
105
116
71
0
0
0
0
0
0
0
0
0
0
0
0
0
0
245
246
249
245
245
249
249
255
249
188
29
10
120
227
238
235
235
234
229
229
231
231
231
232
229
226
225
224
224
225
222
220
245
194
86
0
30
134
218
224
218
217
218
217
216
215
213
211
209
209
208
210
209
208
207
201
197
197
195
202
194
141
166
196
204
200
195
190
191
193
193
191
190
193
197
193
189
156
157
181
139
133
180
183
196
200
182
140
45
0
0
33
122
170
179
164
160
161
161
160
159
158
158
158
159
162
162
146
121
106
104
105
105
105
116
45
0
0
0
0
0
0
0
0
0
0
0
0
252
250
244
245
246
244
239
249
247
255
246
152
0
37
156
238
243
241
237
232
229
232
233
232
232
231
228
226
225
225
225
227
230
223
232
177
63
0
56
159
209
218
218
222
216
215
216
215
213
210
206
207
210
210
210
205
202
202
202
198
193
184
198
206
194
198
196
195
195
194
193
189
187
190
196
193
178
157
179
164
127
167
191
184
179
185
193
201
178
101
19
0
0
45
136
174
176
162
160
161
160
160
159
158
158
159
160
159
160
140
115
103
105
105
105
108
105
24
0
0
0
0
0
0
0
0
0
0
249
252
249
245
245
250
246
241
245
247
245
255
241
102
0
67
173
240
245
241
237
237
236
231
233
231
231
230
227
225
225
226
228
227
215
221
221
155
32
0
82
182
219
232
224
220
214
216
216
216
216
213
211
213
211
211
208
206
203
199
199
197
194
196
196
199
199
197
198
198
192
188
191
190
191
185
155
177
188
141
147
192
187
187
187
189
189
199
196
180
152
81
8
0
0
65
153
180
170
162
160
161
160
159
158
158
159
160
161
161
156
134
113
102
105
105
105
113
88
3
0
0
0
0
0
0
0
0
252
245
246
249
249
245
246
245
243
239
247
244
247
251
227
64
0
92
201
240
245
240
241
234
226
228
231
232
232
226
226
225
223
221
220
219
217
236
209
114
9
11
112
212
220
220
221
218
218
218
218
219
218
214
211
210
211
207
204
202
201
201
197
195
195
195
198
198
197
197
192
190
196
195
193
165
159
189
161
137
183
189
192
190
189
187
187
192
196
191
188
180
145
52
0
0
6
92
162
180
167
162
161
161
161
160
158
155
155
158
160
163
156
132
110
104
105
105
105
117
64
0
0
0
0
0
0
0
222
255
249
245
252
251
243
242
247
248
243
243
248
243
255
253
199
24
10
122
222
238
243
239
233
224
224
230
234
233
227
225
226
224
224
228
229
226
225
239
192
93
0
35
140
210
220
229
228
223
221
217
218
218
214
214
212
208
205
203
204
205
204
200
196
195
194
194
198
199
193
197
193
197
187
150
182
175
136
159
197
194
193
192
190
187
189
190
194
193
186
188
196
176
116
30
0
0
28
113
166
177
166
162
161
161
159
154
150
150
154
159
162
166
153
115
105
104
105
105
105
114
41
0
0
0
0
0
7
139
249
255
254
252
253
251
247
248
254
250
245
239
239
243
255
255
156
2
39
154
236
243
240
238
230
228
229
233
236
233
228
233
229
225
228
226
224
223
225
235
185
62
0
58
163
212
224
222
226
225
220
218
216
215
216
209
206
207
211
211
207
206
202
198
194
192
195
202
199
201
198
193
156
164
194
151
129
188
191
196
192
188
188
191
193
192
192
189
185
180
187
193
195
160
85
13
0
0
48
136
170
174
165
161
157
157
154
151
150
151
155
160
166
170
138
111
103
105
105
105
109
102
17
0
0
0
235
19
33
172
255
254
251
250
252
251
248
252
253
248
240
237
239
246
253
252
110
0
75
183
244
250
243
236
230
228
230
235
235
238
237
232
226
224
223
219
220
217
232
225
160
31
0
83
190
210
217
227
229
224
220
218
215
213
209
210
212
212
211
209
205
203
201
198
195
201
203
199
200
179
150
186
155
119
174
204
184
193
200
192
191
193
195
196
199
195
190
187
186
187
188
188
186
146
63
0
0
0
68
149
176
167
159
157
157
156
153
150
149
157
160
163
168
164
128
108
103
105
105
105
114
81
0
0
255
255
175
0
73
199
255
251
251
252
250
246
251
253
252
244
237
237
241
252
254
239
62
1
105
213
242
249
241
236
233
228
228
229
235
236
232
225
223
221
223
224
224
229
244
216
137
11
23
130
212
215
223
227
224
220
216
215
211
210
211
211
210
207
207
203
203
202
195
197
202
197
190
158
178
193
62
12
123
189
192
189
197
195
199
193
193
197
199
199
195
191
192
188
187
186
186
186
175
124
40
0
0
10
93
154
166
159
157
157
157
155
157
162
161
160
159
160
167
152
119
107
104
105
105
105
117
56
255
255
255
255
118
0
102
228
255
253
251
248
247
248
250
253
251
243
239
246
247
255
255
204
20
19
132
234
249
247
242
238
232
228
229
234
236
236
227
226
226
228
226
225
228
224
237
213
107
0
44
149
215
221
223
218
217
218
213
209
210
210
210
207
205
206
204
203
199
197
200
197
187
171
189
200
51
0
0
53
166
199
203
201
200
195
194
198
199
199
197
195
198
197
189
187
184
178
177
187
167
102
22
0
0
34
116
156
165
158
157
157
162
166
164
162
159
155
157
161
164
141
113
104
105
105
105
106
255
255
255
255
255
255
56
6
142
255
255
253
247
249
243
242
242
251
249
249
246
246
249
255
255
150
0
47
155
240
250
244
239
237
233
229
234
235
230
226
225
225
225
224
223
225
223
218
213
193
66
0
75
163
216
230
218
218
216
212
212
211
209
205
203
207
207
204
204
202
201
199
197
190
194
195
181
103
12
0
7
83
179
208
203
195
193
197
199
194
195
196
198
197
195
191
185
182
181
178
177
187
155
76
5
0
0
56
135
160
161
160
161
161
163
164
163
160
157
160
160
161
161
132
110
103
105
105
255
255
255
255
255
254
255
219
9
35
175
255
254
249
251
250
239
239
251
252
252
246
243
246
246
250
255
106
0
70
189
242
249
243
243
238
231
231
226
227
226
225
225
225
225
225
226
226
218
225
228
177
23
0
98
188
208
216
215
213
216
217
212
206
203
205
207
205
204
204
203
199
196
195
196
195
196
199
171
80
0
0
15
118
194
207
200
195
196
193
194
194
195
194
191
187
182
182
182
182
180
177
180
174
132
54
0
0
2
75
142
158
159
160
161
162
164
164
161
161
160
158
159
160
153
125
108
103
0
255
255
255
255
255
255
255
255
157
0
71
202
255
253
251
255
251
252
251
252
255
247
247
251
244
249
255
240
57
3
99
213
237
242
248
247
240
232
225
225
226
226
227
228
227
226
226
226
223
218
232
210
133
10
80
213
215
216
213
213
216
217
212
204
204
207
206
204
204
204
202
201
200
199
199
199
196
201
195
154
55
0
2
47
136
200
201
186
190
193
194
195
193
188
184
182
182
182
182
182
182
183
179
177
163
118
36
0
0
17
95
143
163
162
161
161
162
163
161
161
161
159
158
158
162
147
117
0
0
0
255
255
255
255
255
255
255
255
100
0
107
235
255
254
252
252
249
243
247
255
255
255
253
247
244
252
255
192
20
20
128
224
247
253
248
241
229
226
227
231
234
233
230
227
226
225
229
224
213
217
228
164
149
220
215
213
217
212
214
215
215
211
206
205
205
203
202
207
210
207
204
203
201
199
199
199
195
201
189
125
33
0
1
70
163
189
194
191
195
193
190
184
182
182
182
182
182
182
181
180
182
184
177
178
157
97
20
0
0
37
110
152
161
161
161
161
163
162
161
160
160
158
158
158
163
0
0
0
0
0
255
255
255
255
255
255
255
255
41
9
145
255
255
254
254
252
240
244
251
255
255
255
247
243
242
250
255
145
0
43
160
237
244
246
242
236
232
229
233
236
235
231
227
229
236
227
202
225
197
163
206
233
216
219
218
217
215
216
218
213
210
209
206
204
203
202
205
205
204
204
204
202
200
199
199
198
196
202
181
100
12
0
7
88
179
196
193
191
189
185
182
182
182
182
182
182
180
180
180
180
183
182
178
178
152
77
3
0
0
55
128
150
160
160
160
160
161
160
160
160
158
158
157
0
0
0
0
0
0
255
255
255
255
255
255
255
255
203
4
44
176
255
255
255
254
248
245
247
254
255
253
248
244
244
251
255
255
91
0
77
189
234
243
239
240
234
233
235
235
236
234
235
236
207
212
220
168
195
236
239
234
228
222
219
215
216
221
218
213
210
210
204
203
203
203
204
204
207
205
204
204
202
198
199
199
197
197
192
167
74
1
0
21
110
182
198
193
194
190
184
182
182
182
181
180
180
180
180
180
180
183
180
178
171
142
61
0
0
7
73
138
160
161
162
161
160
160
159
157
158
157
0
0
0
0
0
0
0
0
255
255
255
255
255
255
255
255
148
0
76
213
255
255
253
253
246
246
251
253
254
249
243
244
247
253
255
215
48
6
102
210
234
240
236
236
234
232
239
239
237
224
198
232
196
169
221
235
234
230
226
224
222
220
217
217
220
225
214
213
209
205
208
208
206
206
208
209
208
205
204
204
201
199
199
199
196
200
188
138
41
0
0
38
132
192
203
195
195
187
183
181
180
180
180
180
180
180
180
179
179
180
177
186
179
129
35
0
0
20
96
142
156
160
162
159
159
159
155
156
0
0
0
0
0
0
0
0
0
0
255
255
255
255
255
255
253
255
82
0
115
239
255
255
253
250
245
246
246
251
249
251
247
237
244
247
252
172
15
22
130
232
242
244
241
236
237
241
235
205
229
229
166
198
232
227
229
230
225
224
224
222
219
219
223
221
216
217
218
211
211
214
210
209
207
207
207
207
205
204
204
204
201
199
199
198
198
204
181
109
19
0
1
64
163
194
205
197
186
182
180
180
180
180
180
180
180
178
176
176
177
177
177
186
166
96
11
0
0
33
109
142
158
160
161
161
158
154
0
0
0
0
0
0
0
0
0
0
0
0
255
255
255
255
255
253
255
242
34
12
141
255
255
255
253
247
244
243
248
251
253
251
249
245
239
247
255
138
0
52
178
242
247
243
237
237
230
216
241
194
171
217
228
227
231
229
226
224
223
223
237
226
228
237
232
217
211
214
211
217
218
213
210
209
208
208
207
207
205
204
204
203
201
204
203
199
198
207
176
84
2
0
8
88
177
200
195
190
184
180
180
180
180
180
179
176
176
176
175
174
176
176
178
178
154
74
0
0
0
50
123
157
164
163
160
160
0
0
0
0
0
0
0
0
0
0
0
0
0
255
255
255
255
255
255
255
255
194
0
37
178
255
255
253
251
249
249
252
252
250
247
254
250
243
243
249
240
67
0
85
203
241
247
241
222
231
219
163
206
235
234
231
231
230
226
225
222
222
226
239
224
233
188
101
91
196
223
221
215
214
211
211
210
210
207
207
206
201
204
207
206
205
204
203
202
203
204
199
159
55
0
1
24
112
182
205
195
184
179
179
180
180
178
176
176
176
174
174
174
174
176
176
181
183
148
52
0
0
3
72
135
160
157
154
0
0
0
0
0
0
0
0
0
0
0
0
0
0
0
255
255
255
255
254
255
255
255
130
0
80
216
255
255
255
254
251
251
253
250
248
249
242
246
239
251
248
189
37
12
117
210
223
226
229
174
189
227
234
238
234
233
230
225
224
223
221
230
234
226
202
200
132
9
21
130
220
226
212
209
211
213
210
209
208
206
204
209
207
206
205
206
205
204
204
203
201
207
186
120
33
0
0
44
138
189
201
190
184
181
180
178
176
176
175
174
174
174
174
176
176
176
178
183
173
123
30
0
0
19
92
143
158
0
0
0
0
0
0
0
0
0
0
0
0
0
0
0
0
0
255
255
255
255
255
255
255
255
66
0
121
246
255
255
254
250
245
249
250
252
253
242
241
242
251
255
244
146
13
17
147
238
205
152
222
236
227
233
235
236
231
227
226
225
225
232
226
219
187
190
238
222
101
3
54
169
222
213
210
217
216
213
209
208
204
197
192
198
191
205
209
205
203
198
198
202
195
199
171
101
9
0
3
67
158
191
196
190
181
179
177
175
174
174
174
174
175
177
177
175
172
170
170
183
168
98
9
0
0
38
110
0
0
0
0
0
0
0
0
0
0
0
0
0
0
0
0
0
0
0
255
255
255
255
255
255
255
228
21
23
154
255
255
254
249
245
245
243
247
250
245
241
240
245
253
247
228
121
188
254
170
187
232
232
231
235
238
236
233
231
226
226
230
222
227
214
178
206
220
227
229
197
62
5
85
192
213
220
215
214
215
210
203
193
202
209
207
206
205
199
193
206
202
196
197
193
194
199
168
71
0
0
12
87
167
196
189
180
174
176
174
174
174
175
176
179
179
173
169
171
171
173
176
181
153
71
0
0
0
