P2
# CREATOR: GIMP PNM Filter Version 1.1
128 32
255
0
0
0
0
0
0
0
0
0
0
0
0
0
0
0
0
0
0
0
0
0
0
0
0
0
0
0
0
0
0
0
0
0
0
0
0
0
0
0
0
0
0
0
0
0
0
0
0
0
0
0
0
0
0
130
140
170
169
181
157
164
164
164
168
162
163
167
133
18
1
106
187
180
181
180
180
177
176
175
181
187
173
83
0
34
172
196
187
187
194
194
169
62
77
202
155
0
0
0
0
0
0
0
0
0
0
0
0
0
0
0
0
0
0
0
0
0
0
0
0
0
0
0
0
0
0
0
0
0
0
0
0
0
0
0
0
0
0
0
0
0
0
0
0
0
0
0
0
0
0
0
0
0
0
0
0
0
0
0
0
0
0
0
0
0
0
0
0
0
0
0
0
0
0
0
0
0
0
0
0
126
136
161
165
175
176
61
23
85
138
184
167
169
164
51
0
79
185
182
181
182
181
180
180
179
179
185
182
117
12
7
132
205
189
189
191
190
188
186
196
150
31
169
174
167
0
0
0
0
0
0
0
0
0
0
0
0
0
0
0
0
0
0
0
0
0
0
0
0
0
0
0
0
0
0
0
0
0
0
0
0
0
0
0
0
0
0
0
0
0
0
0
0
0
0
0
0
0
0
0
0
0
0
0
0
0
0
0
0
0
0
0
0
0
0
0
0
0
0
0
0
0
0
0
0
0
0
131
152
166
165
169
186
145
0
0
0
30
176
167
79
2
48
165
192
189
189
185
182
182
180
180
186
188
158
37
0
95
210
189
191
193
192
192
191
193
190
190
198
99
51
213
175
0
0
0
0
0
0
0
0
0
0
0
0
0
0
0
0
0
0
0
0
0
0
0
0
0
0
0
0
0
0
0
0
0
0
0
0
0
0
0
0
0
0
0
0
0
0
0
0
0
0
0
0
0
0
0
0
0
0
0
0
0
0
0
0
0
0
0
0
0
0
0
0
0
0
0
0
0
0
0
0
141
152
164
161
166
170
170
114
29
0
15
43
101
114
10
26
146
198
193
185
194
198
188
182
184
187
195
180
69
0
58
196
196
193
193
192
193
193
192
195
195
195
195
210
166
44
145
200
184
0
0
0
0
0
0
0
0
0
0
0
0
0
0
0
0
0
0
0
0
0
0
0
0
0
0
0
0
0
0
0
0
0
0
0
0
0
0
0
0
0
0
0
0
0
0
0
0
0
0
0
0
0
0
0
0
0
0
0
0
0
0
0
0
0
0
0
0
0
0
0
0
0
0
0
0
0
143
148
166
162
159
161
167
165
83
5
2
34
101
132
184
51
109
208
188
190
190
196
197
195
193
188
198
192
107
2
22
162
203
191
195
197
192
193
196
194
194
193
206
193
108
169
207
111
45
216
176
179
0
0
0
0
0
0
0
0
0
0
0
0
0
0
0
0
0
0
0
0
0
0
0
0
0
0
0
0
0
0
0
0
0
0
0
0
0
0
0
0
0
0
0
0
0
0
0
0
0
0
0
0
0
0
0
0
0
0
0
0
0
0
0
0
0
0
0
0
0
0
0
0
0
0
135
141
170
172
164
160
164
175
175
105
0
23
77
138
180
188
188
162
170
170
189
188
192
196
197
194
195
190
145
22
5
118
208
192
191
198
195
195
194
199
197
197
201
206
125
16
110
137
209
177
60
120
202
173
0
0
0
0
0
0
0
0
0
0
0
0
0
0
0
0
0
0
0
0
0
0
0
0
0
0
0
0
0
0
0
0
0
0
0
0
0
0
0
0
0
0
0
0
0
0
0
0
0
0
0
0
0
0
0
0
0
0
0
0
0
0
0
0
0
0
0
0
0
0
0
0
0
128
153
173
167
165
164
173
176
168
170
112
65
128
168
193
187
184
188
177
168
163
183
192
193
194
197
189
176
50
0
88
198
194
191
196
195
198
195
198
200
202
206
202
176
30
67
169
215
144
172
222
132
33
201
179
0
0
0
0
0
0
0
0
0
0
0
0
0
0
0
0
0
0
0
0
0
0
0
0
0
0
0
0
0
0
0
0
0
0
0
0
0
0
0
0
0
0
0
0
0
0
0
0
0
0
0
0
0
0
0
0
0
0
0
0
0
0
0
0
0
0
0
0
0
0
0
115
143
168
163
161
162
169
171
174
168
173
184
173
128
62
153
187
187
191
191
191
167
173
173
195
199
204
198
89
0
50
184
204
198
203
194
199
193
193
198
200
201
198
188
62
39
150
211
204
194
177
130
212
193
62
98
219
179
0
0
0
0
0
0
0
0
0
0
0
0
0
0
0
0
0
0
0
0
0
0
0
0
0
0
0
0
0
0
0
0
0
0
0
0
0
0
0
0
0
0
0
0
0
0
0
0
0
0
0
0
0
0
0
0
0
0
0
0
0
0
0
0
0
0
0
0
108
120
169
166
159
168
169
173
172
168
168
174
178
159
52
0
82
146
184
189
190
191
197
186
173
170
184
194
127
14
26
151
205
202
202
199
93
61
78
149
198
206
212
212
109
26
122
203
202
203
205
204
186
160
170
226
144
42
195
190
185
0
0
0
0
0
0
0
0
0
0
0
0
0
0
0
0
0
0
0
0
0
0
0
0
0
0
0
0
0
0
0
0
0
0
0
0
0
0
0
0
0
0
0
0
0
0
0
0
0
0
0
0
0
0
0
0
0
0
0
0
0
0
0
0
0
118
111
151
170
169
164
169
174
172
165
160
171
178
179
80
0
41
180
178
164
147
193
189
190
195
195
171
181
138
32
5
119
208
198
202
205
206
104
0
0
0
124
203
211
148
25
92
188
216
204
206
208
205
209
194
182
136
205
207
82
74
225
183
0
0
0
0
0
0
0
0
0
0
0
0
0
0
0
0
0
0
0
0
0
0
0
0
0
0
0
0
0
0
0
0
0
0
0
0
0
0
0
0
0
0
0
0
0
0
0
0
0
0
0
0
0
0
0
0
0
0
0
0
0
0
0
0
109
142
177
169
168
168
168
169
168
172
169
178
180
114
5
16
140
188
187
175
178
146
183
192
193
193
190
189
168
111
77
204
197
199
201
205
203
200
25
12
73
138
207
196
44
68
176
222
207
204
203
209
210
208
205
208
196
171
150
234
156
41
169
199
187
0
0
0
0
0
0
0
0
0
0
0
0
0
0
0
0
0
0
0
0
0
0
0
0
0
0
0
0
0
0
0
0
0
0
0
0
0
0
0
0
0
0
0
0
0
0
0
0
0
0
0
0
0
0
0
0
0
0
0
0
0
112
125
162
166
168
168
168
168
170
172
175
177
181
146
29
0
104
198
192
189
193
190
172
177
150
195
188
194
194
197
179
186
199
198
200
203
204
204
198
219
161
131
201
212
93
48
166
216
210
209
203
207
210
209
209
207
202
216
201
137
147
206
226
105
65
218
188
0
0
0
0
0
0
0
0
0
0
0
0
0
0
0
0
0
0
0
0
0
0
0
0
0
0
0
0
0
0
0
0
0
0
0
0
0
0
0
0
0
0
0
0
0
0
0
0
0
0
0
0
0
0
0
0
0
0
0
118
120
157
164
162
166
168
168
169
171
175
172
175
181
65
0
61
182
193
195
189
193
195
193
184
179
148
181
196
197
199
201
198
192
197
202
203
207
207
208
205
215
213
226
141
35
141
207
222
211
210
210
213
211
210
209
205
211
228
92
46
148
213
217
234
177
52
143
212
186
0
0
0
0
0
0
0
0
0
0
0
0
0
0
0
0
0
0
0
0
0
0
0
0
0
0
0
0
0
0
0
0
0
0
0
0
0
0
0
0
0
0
0
0
0
0
0
0
0
0
0
0
0
0
0
0
115
112
147
166
165
166
169
169
172
172
165
168
174
178
97
8
30
153
186
192
192
186
189
189
192
192
192
170
169
156
201
198
195
196
199
201
202
206
208
208
210
214
213
217
183
48
98
196
227
219
223
216
218
219
218
218
213
210
231
144
40
115
217
223
222
223
221
234
107
57
231
193
198
0
0
0
0
0
0
0
0
0
0
0
0
0
0
0
0
0
0
0
0
0
0
0
0
0
0
0
0
0
0
0
0
0
0
0
0
0
0
0
0
0
0
0
0
0
0
0
0
0
0
0
0
0
0
115
133
159
164
165
172
173
172
172
175
172
174
185
128
16
17
132
180
195
184
186
187
188
191
190
195
191
196
84
70
184
192
196
198
202
203
204
206
203
209
214
210
214
217
70
81
178
230
224
219
219
223
222
222
220
220
213
223
179
41
82
191
233
220
226
220
222
222
229
203
42
119
226
202
0
0
0
0
0
0
0
0
0
0
0
0
0
0
0
0
0
0
0
0
0
0
0
0
0
0
0
0
0
0
0
0
0
0
0
0
0
0
0
0
0
0
0
0
0
0
0
0
0
0
0
0
115
127
162
162
167
172
174
175
177
175
170
173
177
153
40
8
98
190
182
181
187
187
187
187
188
195
195
200
124
9
28
178
194
197
203
207
206
207
206
204
205
213
219
227
111
53
165
225
227
219
221
216
216
222
223
219
220
218
219
74
56
157
238
226
226
226
223
221
223
221
223
91
0
117
224
198
0
0
0
0
0
0
0
0
0
0
0
0
0
0
0
0
0
0
0
0
0
0
0
0
0
0
0
0
0
0
0
0
0
0
0
0
0
0
0
0
0
0
0
0
0
0
0
0
0
0
77
135
152
168
154
166
171
171
169
174
178
172
170
180
65
3
69
177
183
197
196
191
187
187
187
189
193
200
151
29
2
135
218
196
203
203
208
212
208
206
206
210
214
211
153
40
140
215
229
223
219
216
217
218
215
219
216
216
231
117
43
132
226
226
224
235
234
226
226
226
231
126
7
41
195
239
232
218
0
0
0
0
0
0
0
0
0
0
0
0
0
0
0
0
0
0
0
0
0
0
0
0
0
0
0
0
0
0
0
0
0
0
0
0
0
0
0
0
0
0
0
0
0
0
0
0
0
0
86
179
172
164
171
171
170
167
170
176
176
184
105
9
46
159
191
191
193
196
198
197
189
188
191
194
191
67
0
89
213
199
202
205
208
207
208
210
212
215
216
218
220
172
95
205
234
221
219
217
215
215
215
221
218
219
228
153
48
96
216
235
227
232
234
235
232
235
234
173
29
14
161
249
239
233
237
0
0
0
0
0
0
0
0
0
0
0
0
0
0
0
0
0
0
0
0
0
0
0
0
0
0
0
0
0
0
0
0
0
0
0
0
0
0
0
0
0
0
0
0
0
0
0
0
0
0
0
97
135
179
137
146
166
169
163
176
182
137
27
24
136
199
193
192
194
196
198
197
200
192
190
195
101
0
48
194
204
202
204
206
210
212
214
215
217
215
214
216
219
231
216
220
218
210
221
219
215
216
215
221
223
229
188
56
81
192
250
228
232
233
236
237
239
232
207
62
2
118
245
246
239
238
0
0
0
0
0
0
0
0
0
0
0
0
0
0
0
0
0
0
0
0
0
0
0
0
0
0
0
0
0
0
0
0
0
0
0
0
0
0
0
0
0
0
0
0
0
0
0
0
0
0
0
0
0
0
102
170
161
118
179
171
179
164
44
12
102
201
200
192
194
194
198
200
196
197
192
197
139
20
15
158
211
202
203
207
210
209
211
218
219
222
221
216
219
220
220
233
229
198
197
201
225
216
219
216
220
229
234
95
53
160
247
236
237
234
230
229
234
239
230
97
5
78
234
243
245
241
0
0
0
0
0
0
0
0
0
0
0
0
0
0
0
0
0
0
0
0
0
0
0
0
0
0
0
0
0
0
0
0
0
0
0
0
0
0
0
0
0
0
0
0
0
0
0
0
0
0
0
0
0
0
0
0
114
137
180
140
159
189
198
94
76
185
190
191
193
195
195
199
198
198
195
195
170
43
0
117
216
202
202
204
209
210
209
212
218
223
227
225
165
158
223
229
224
223
227
216
199
196
209
213
222
225
238
141
52
127
237
235
234
235
233
236
235
233
243
145
16
42
195
247
246
244
0
0
0
0
0
0
0
0
0
0
0
0
0
0
0
0
0
0
0
0
0
0
0
0
0
0
0
0
0
0
0
0
0
0
0
0
0
0
0
0
0
0
0
0
0
0
0
0
0
0
0
0
0
0
0
0
0
0
0
117
170
165
127
181
178
175
181
156
203
193
194
197
200
198
199
194
196
81
0
69
204
197
204
204
208
211
210
210
214
216
221
223
202
64
73
171
204
235
229
225
227
230
204
193
197
218
243
175
63
87
212
247
237
239
234
231
232
241
240
189
44
17
161
253
249
245
245
0
0
0
0
0
0
0
0
0
0
0
0
0
0
0
0
0
0
0
0
0
0
0
0
0
0
0
0
0
0
0
0
0
0
0
0
0
0
0
0
0
0
0
0
0
0
0
0
0
0
0
0
0
0
0
0
0
0
0
0
126
137
185
145
142
188
176
176
139
182
199
199
197
196
192
205
117
9
32
176
202
203
206
205
210
210
209
212
217
219
224
218
95
60
153
228
208
192
223
232
230
229
226
219
195
205
207
77
58
176
250
235
235
239
234
241
241
239
223
74
5
117
255
250
245
246
0
0
0
0
0
0
0
0
0
0
0
0
0
0
0
0
0
0
0
0
0
0
0
0
0
0
0
0
0
0
0
0
0
0
0
0
0
0
0
0
0
0
0
0
0
0
0
0
0
0
0
0
0
0
0
0
0
0
0
0
0
0
0
119
166
181
125
188
185
186
170
150
200
195
197
200
155
31
11
139
204
203
203
205
210
212
212
214
216
218
220
223
143
40
116
212
227
225
211
205
194
238
235
231
225
228
212
209
77
141
252
232
235
239
240
235
233
241
242
121
6
75
243
255
251
248
0
0
0
0
0
0
0
0
0
0
0
0
0
0
0
0
0
0
0
0
0
0
0
0
0
0
0
0
0
0
0
0
0
0
0
0
0
0
0
0
0
0
0
0
0
0
0
0
0
0
0
0
0
0
0
0
0
0
0
0
0
0
0
0
0
124
132
182
155
136
196
191
191
148
175
201
183
55
3
97
202
201
203
204
208
210
209
210
217
217
220
221
182
46
78
189
245
226
226
228
222
213
196
220
236
228
223
228
233
216
239
245
242
238
237
237
243
243
247
166
26
33
199
255
255
254
0
0
0
0
0
0
0
0
0
0
0
0
0
0
0
0
0
0
0
0
0
0
0
0
0
0
0
0
0
0
0
0
0
0
0
0
0
0
0
0
0
0
0
0
0
0
0
0
0
0
0
0
0
0
0
0
0
0
0
0
0
0
0
0
0
0
0
0
129
158
182
132
175
192
193
174
138
97
6
65
190
197
201
202
207
210
209
209
210
216
219
216
197
72
51
149
239
221
227
225
229
234
239
222
208
196
233
230
227
228
239
235
237
241
240
243
242
246
250
207
54
12
156
255
247
252
255
0
0
0
0
0
0
0
0
0
0
0
0
0
0
0
0
0
0
0
0
0
0
0
0
0
0
0
0
0
0
0
0
0
0
0
0
0
0
0
0
0
0
0
0
0
0
0
0
0
0
0
0
0
0
0
0
0
0
0
0
0
0
0
0
0
0
0
0
0
132
129
192
162
143
197
193
194
122
40
173
203
205
204
203
210
210
208
210
213
220
222
212
98
38
118
219
227
224
222
226
225
233
235
237
237
222
196
215
237
236
239
239
241
240
242
246
247
241
252
101
7
109
255
254
254
255
0
0
0
0
0
0
0
0
0
0
0
0
0
0
0
0
0
0
0
0
0
0
0
0
0
0
0
0
0
0
0
0
0
0
0
0
0
0
0
0
0
0
0
0
0
0
0
0
0
0
0
0
0
0
0
0
0
0
0
0
0
0
0
0
0
0
0
0
0
0
0
0
133
158
186
148
176
200
198
183
209
209
207
208
209
211
211
214
212
219
219
223
144
37
83
205
238
221
225
225
230
228
224
229
237
242
253
115
200
205
242
243
241
242
242
243
246
250
255
150
12
63
239
255
250
252
0
0
0
0
0
0
0
0
0
0
0
0
0
0
0
0
0
0
0
0
0
0
0
0
0
0
0
0
0
0
0
0
0
0
0
0
0
0
0
0
0
0
0
0
0
0
0
0
0
0
0
0
0
0
0
0
0
0
0
0
0
0
0
0
0
0
0
0
0
0
0
0
0
0
0
130
181
171
142
203
202
199
203
207
212
213
210
211
212
212
221
221
175
53
51
174
242
224
226
224
232
236
235
232
236
240
250
174
66
110
242
238
247
245
243
245
244
249
255
198
44
22
191
255
255
253
0
0
0
0
0
0
0
0
0
0
0
0
0
0
0
0
0
0
0
0
0
0
0
0
0
0
0
0
0
0
0
0
0
0
0
0
0
0
0
0
0
0
0
0
0
0
0
0
0
0
0
0
0
0
0
0
0
0
0
0
0
0
0
0
0
0
0
0
0
0
0
0
0
0
0
0
0
137
149
195
149
177
208
201
204
208
213
210
211
213
217
221
208
76
36
133
249
223
223
224
227
229
236
227
235
247
253
203
74
93
200
255
239
244
246
252
243
244
251
243
79
4
133
255
254
254
253
0
0
0
0
0
0
0
0
0
0
0
0
0
0
0
0
0
0
0
0
0
0
0
0
0
0
0
0
0
0
0
0
0
0
0
0
0
0
0
0
0
0
0
0
0
0
0
0
0
0
0
0
0
0
0
0
0
0
0
0
0
0
0
0
0
0
0
0
0
0
0
0
0
0
0
0
0
0
0
134
194
186
156
208
207
207
211
210
214
218
221
219
115
32
101
225
230
222
224
226
230
232
233
230
238
244
235
107
73
172
255
245
242
240
247
252
248
245
255
136
8
77
251
255
252
252
0
0
0
0
0
0
0
0
0
0
0
0
0
0
0
0
0
0
0
0
0
0
0
0
0
0
0
0
0
0
0
0
0
0
0
0
0
0
0
0
0
0
0
0
0
0
0
0
0
0
0
0
0
0
0
0
0
0
0
0
0
0
0
0
0
0
0
0
0
0
0
0
0
0
0
0
0
0
0
0
0
154
161
214
169
178
215
209
211
216
222
216
152
42
63
192
237
223
222
224
227
232
231
226
231
243
255
146
65
142
248
245
243
246
242
246
252
255
255
179
27
35
219
255
253
251
0
0
0
0
0
0
0
0
0
0
0
0
0
0
0
0
0
0
0
0
0
0
0
0
0
0
0
0
0
0
0
0
0
0
0
0
0
0
0
0
0
0
0
0
0
0
0
0
0
0
