P2
# CREATOR: GIMP PNM Filter Version 1.1
128 32
255
246
200
159
194
233
226
220
231
224
158
89
114
218
235
211
211
210
210
206
204
205
191
117
9
83
196
195
202
200
199
196
194
198
191
110
34
46
140
175
178
172
169
171
171
163
114
93
106
105
105
105
105
105
114
90
0
0
0
0
0
0
0
0
0
0
0
0
0
0
0
0
0
0
0
0
0
0
0
0
0
0
0
0
0
0
0
0
0
0
0
0
0
0
0
0
0
0
0
0
0
0
0
0
0
93
154
163
163
166
139
115
0
0
0
0
0
0
0
0
0
0
0
0
0
0
0
0
0
230
98
198
244
224
222
222
221
231
222
164
93
113
225
237
212
210
210
210
206
203
204
190
123
9
83
197
195
199
197
198
197
195
202
192
110
33
45
137
176
177
171
168
171
174
167
115
92
106
105
105
105
105
105
116
90
0
0
0
0
0
0
0
0
0
0
0
0
0
0
0
0
0
0
0
0
0
0
0
0
0
0
0
0
0
0
0
0
0
0
0
0
0
0
0
0
0
0
0
0
0
0
0
0
0
92
145
162
163
164
131
112
119
0
0
0
0
0
0
0
0
0
0
0
0
0
0
0
224
61
95
241
245
225
227
224
222
228
224
169
95
114
223
235
211
213
210
210
206
204
205
192
117
6
85
195
195
198
198
198
196
197
203
192
111
37
49
150
182
179
169
168
172
178
172
117
93
106
105
105
105
105
105
116
92
0
0
0
0
0
0
0
0
0
0
0
0
0
0
0
0
0
0
0
0
0
0
0
0
0
0
0
0
0
0
0
0
0
0
0
0
0
0
0
0
0
0
0
0
0
0
0
0
0
87
148
168
164
163
134
114
0
0
0
0
0
0
0
0
0
0
0
0
0
0
0
243
159
47
83
242
251
227
228
225
221
229
225
173
96
112
223
236
212
213
211
209
207
205
206
190
117
7
77
193
197
198
198
198
196
196
202
191
108
37
53
154
184
180
170
169
176
179
169
114
93
106
105
105
105
105
104
116
88
0
0
0
0
0
0
0
0
0
0
0
0
0
0
0
0
0
0
0
0
0
0
0
0
0
0
0
0
0
0
0
0
0
0
0
0
0
0
0
0
0
0
0
0
0
0
0
0
0
90
153
171
164
162
131
113
0
0
0
0
0
0
0
0
0
0
0
0
0
0
249
239
169
38
90
244
250
229
229
225
221
229
226
171
95
112
225
234
211
211
208
208
208
205
207
190
121
5
83
191
193
197
199
199
197
194
197
182
106
38
61
157
182
179
171
173
175
174
166
115
94
105
105
105
105
105
104
116
90
0
0
0
0
0
0
0
0
0
0
0
0
0
0
0
0
0
0
0
0
0
0
0
0
0
0
0
0
0
0
0
0
0
0
0
0
0
0
0
0
0
0
0
0
0
0
0
0
0
92
154
170
161
159
133
114
0
0
0
0
0
0
0
0
0
0
0
0
0
252
255
243
169
52
88
248
252
229
229
224
223
230
226
173
94
112
226
236
216
211
208
208
208
206
208
191
126
8
79
191
192
199
201
200
197
189
186
180
104
38
58
150
179
180
172
169
170
173
164
114
94
105
105
105
105
105
104
117
90
0
0
0
0
0
0
0
0
0
0
0
0
0
0
0
0
0
0
0
0
0
0
0
0
0
0
0
0
0
0
0
0
0
0
0
0
0
0
0
0
0
0
0
0
0
0
0
0
0
91
153
167
159
159
132
114
0
0
0
0
0
0
0
0
0
0
0
0
250
253
251
245
177
47
84
247
252
230
228
227
225
230
225
173
96
109
227
239
216
210
207
208
207
205
206
194
123
5
81
188
192
200
200
195
188
182
187
184
103
33
51
146
176
176
162
166
171
173
164
114
94
105
105
105
105
105
104
118
90
0
0
0
0
0
0
0
0
0
0
0
0
0
0
0
0
0
0
0
0
0
0
0
0
0
0
0
0
0
0
0
0
0
0
0
0
0
0
0
0
0
0
0
0
0
0
0
0
0
88
147
163
157
158
132
113
0
0
0
0
0
0
0
0
0
0
0
248
251
249
252
248
178
46
81
244
252
235
231
226
226
230
225
177
99
110
227
237
215
210
206
209
207
205
206
191
125
6
80
186
192
198
188
187
187
184
196
192
102
29
52
145
175
176
162
167
172
174
164
113
95
105
105
105
105
105
104
118
88
0
0
0
0
0
0
0
0
0
0
0
0
0
0
0
0
0
0
0
0
0
0
0
0
0
0
0
0
0
0
0
0
0
0
0
0
0
0
0
0
0
0
0
0
0
0
0
0
0
88
144
163
156
160
129
103
0
0
0
0
0
0
0
0
0
0
255
246
247
246
252
247
182
49
78
247
255
235
229
228
226
229
228
177
97
109
225
234
213
210
210
209
208
204
207
192
124
4
83
185
191
189
187
187
187
185
201
195
102
27
45
141
175
176
160
165
173
174
162
115
95
105
105
105
105
105
104
118
90
0
0
0
0
0
0
0
0
0
0
0
0
0
0
0
0
0
0
0
0
0
0
0
0
0
0
0
0
0
0
0
0
0
0
0
0
0
0
0
0
0
0
0
0
0
0
0
0
0
86
142
161
158
158
123
98
0
0
0
0
0
0
0
0
0
235
255
244
246
249
252
248
183
45
74
245
254
231
229
228
226
229
225
179
102
106
224
232
212
211
208
208
208
204
207
194
127
4
78
184
191
190
187
187
187
186
203
197
107
28
43
133
174
176
161
168
173
171
164
113
95
104
105
105
105
105
104
118
87
0
0
0
0
0
0
0
0
0
0
0
0
0
0
0
0
0
0
0
0
0
0
0
0
0
0
0
0
0
0
0
0
0
0
0
0
0
0
0
0
0
0
0
0
0
0
0
0
0
82
142
162
157
158
121
98
0
0
0
0
0
0
0
0
157
236
255
248
248
248
249
245
183
49
79
249
248
226
229
227
223
227
226
182
100
107
228
233
214
211
207
208
207
205
208
194
133
6
83
183
192
190
187
187
187
184
197
192
106
29
39
132
174
175
163
173
170
169
165
115
95
104
105
105
105
105
104
119
89
0
0
0
0
0
0
0
0
0
0
0
0
0
0
0
0
0
0
0
0
0
0
0
0
0
0
0
0
0
0
0
0
0
0
0
0
0
0
0
0
0
0
0
0
0
0
0
0
0
86
140
162
158
161
124
97
0
0
0
0
0
0
0
192
157
236
255
251
246
245
247
244
183
50
77
250
241
224
229
227
223
228
226
182
99
104
233
236
216
208
207
209
210
205
206
197
132
5
78
180
193
190
187
187
187
181
198
197
111
28
37
129
172
178
170
173
169
171
166
114
95
104
105
105
105
105
104
119
88
0
0
0
0
0
0
0
0
0
0
0
0
0
0
0
0
0
0
0
0
0
0
0
0
0
0
0
0
0
0
0
0
0
0
0
0
0
0
0
0
0
0
0
0
0
0
0
0
0
83
142
162
154
164
122
98
0
0
0
0
0
0
252
192
157
238
255
250
247
246
249
243
188
51
80
255
244
227
230
227
223
227
228
192
102
108
233
235
215
209
209
212
209
205
206
200
133
6
78
179
194
191
187
187
187
182
201
195
112
26
30
127
173
178
170
173
172
173
163
113
95
104
105
105
105
105
104
119
88
0
0
0
0
0
0
0
0
0
0
0
0
0
0
0
0
0
0
0
0
0
0
0
0
0
0
0
0
0
0
0
0
0
0
0
0
0
0
0
0
0
0
0
0
0
0
0
0
0
85
142
159
155
164
125
99
0
0
0
0
0
255
252
191
156
238
255
249
248
249
249
243
188
50
81
255
247
227
230
227
223
227
228
190
102
105
229
231
215
211
211
209
207
205
207
199
135
4
79
181
198
190
187
187
187
185
206
200
112
25
34
131
174
180
170
173
174
175
163
113
96
104
106
105
105
105
104
119
87
187
187
187
187
187
187
187
187
187
187
187
0
0
0
0
0
0
0
0
0
0
0
0
0
0
0
0
0
0
0
0
0
0
0
0
0
0
0
0
0
0
0
0
0
0
0
0
0
0
86
144
158
154
160
122
93
0
0
0
0
255
255
250
191
154
237
255
250
250
250
250
242
193
54
73
255
244
228
230
227
223
229
227
190
100
102
224
230
216
212
211
209
207
203
204
200
135
4
83
179
197
191
187
187
187
188
208
200
117
26
29
125
174
180
170
174
175
176
161
113
96
104
106
105
105
105
104
119
89
187
187
187
187
187
187
187
187
187
187
0
0
0
0
0
0
0
0
0
0
0
0
0
0
0
0
0
0
0
0
0
0
0
0
0
0
0
0
0
0
0
0
0
0
0
0
0
0
0
88
142
159
154
161
121
91
0
0
0
255
255
255
251
190
153
239
255
251
250
252
249
241
196
44
75
255
243
228
228
228
225
229
223
192
103
105
220
228
216
216
213
211
208
204
204
199
131
3
82
177
197
190
186
187
187
186
207
201
125
27
29
127
175
180
170
171
174
175
162
112
95
104
106
105
105
105
104
119
89
187
0
0
187
187
0
187
187
0
0
0
0
0
0
0
0
0
0
0
0
0
0
0
0
0
0
0
0
0
0
0
0
0
0
0
0
0
0
0
0
0
0
0
0
0
0
0
0
0
87
141
159
153
165
121
89
0
0
255
255
255
255
249
194
152
239
255
250
249
249
249
239
200
51
74
255
244
233
231
228
226
227
222
188
100
103
224
229
219
216
214
210
208
204
204
200
132
4
84
181
197
190
186
187
186
185
209
203
123
29
27
126
173
180
169
169
172
174
160
112
96
104
106
105
105
105
104
118
87
0
0
187
187
0
187
187
0
0
0
0
0
0
0
0
0
0
0
0
0
0
0
0
0
0
0
0
0
0
0
0
0
0
0
0
0
0
0
0
0
0
0
0
0
0
0
0
0
0
89
143
159
158
168
119
89
0
255
255
255
255
255
250
193
151
242
255
250
250
251
248
240
203
48
74
255
249
234
231
228
226
228
225
189
101
101
223
226
218
216
211
210
207
204
204
204
132
3
82
180
197
191
191
189
186
187
211
198
126
27
28
123
175
182
169
171
173
174
161
114
96
104
106
105
105
105
104
118
89
187
187
187
187
187
187
0
0
0
0
0
0
0
0
0
0
0
0
0
0
0
0
0
0
0
0
0
0
0
0
0
0
0
0
0
0
0
0
0
0
0
0
0
0
0
0
0
0
0
87
139
160
158
165
118
89
0
255
255
255
255
255
250
191
152
239
255
249
249
249
248
240
207
53
67
255
244
230
230
228
225
229
224
193
103
107
220
225
218
213
210
209
208
204
203
204
138
5
82
178
199
195
193
189
187
188
202
193
124
27
26
116
174
181
170
170
171
174
161
114
95
104
106
105
105
105
104
118
87
187
0
187
187
187
0
0
0
0
0
0
0
0
0
0
0
0
0
0
0
0
0
0
0
0
0
0
0
0
0
0
0
0
0
0
0
0
0
0
0
0
0
0
0
0
0
0
0
0
88
140
159
156
161
111
0
0
255
255
255
255
255
249
191
150
244
255
249
247
250
250
242
219
58
77
255
238
227
229
228
225
228
223
189
99
106
224
228
217
212
209
209
207
204
203
207
137
5
78
171
198
196
192
188
191
186
205
195
120
30
25
119
175
181
170
170
173
175
164
114
96
104
106
105
105
105
104
118
88
0
0
0
0
0
0
0
0
0
0
0
0
0
0
0
0
0
0
0
0
0
0
0
0
0
0
0
0
0
0
0
0
0
0
0
0
0
0
0
0
0
0
0
0
0
0
0
0
0
86
141
160
155
161
0
0
0
255
255
255
255
255
248
191
149
242
255
249
243
250
250
249
221
57
72
255
235
226
230
228
225
231
228
186
97
108
224
226
216
211
209
210
208
204
204
208
134
5
69
163
200
195
189
191
192
190
206
192
122
29
26
119
176
182
175
172
177
178
166
116
96
104
106
105
105
105
104
118
86
0
0
0
0
0
0
0
0
0
0
0
0
0
0
0
0
0
0
0
0
0
0
0
0
0
0
0
0
0
0
0
0
0
0
0
0
0
0
0
0
0
0
0
0
0
0
0
0
0
89
145
160
155
0
0
0
0
255
255
255
255
255
249
194
151
244
255
248
246
251
254
248
228
50
76
255
236
229
231
224
223
233
225
180
98
109
229
230
216
211
208
210
208
204
204
208
139
6
72
166
201
193
189
191
194
191
203
187
123
33
27
115
178
178
116
126
159
182
169
116
94
104
106
105
105
105
104
117
88
0
0
0
0
0
0
0
0
0
0
0
0
0
0
0
0
0
0
0
0
0
0
0
0
0
0
0
0
0
0
0
0
0
0
0
0
0
0
0
0
0
0
0
0
0
0
0
0
0
89
143
157
0
0
0
0
0
255
255
255
255
255
249
192
150
244
255
251
252
253
254
248
232
55
77
255
236
230
231
224
223
229
217
191
102
116
239
228
215
212
209
210
209
204
203
208
134
8
70
169
200
194
193
195
196
190
202
188
125
32
24
116
152
47
9
81
144
188
176
118
94
104
106
105
105
105
104
118
87
0
0
0
0
0
0
0
0
0
0
0
0
0
0
0
0
0
0
0
0
0
0
0
0
0
0
0
0
0
0
0
0
0
0
0
0
0
0
0
0
0
0
0
0
0
0
0
0
0
89
142
0
0
0
0
0
0
255
255
255
255
255
249
192
148
247
255
253
251
252
254
249
232
57
80
255
237
231
231
224
224
222
218
192
99
115
228
225
216
212
209
210
210
205
203
212
138
6
71
168
202
196
194
195
194
188
200
190
130
36
24
107
84
27
4
68
142
188
176
118
93
104
105
105
105
105
105
117
87
0
0
0
0
0
0
0
0
0
0
0
0
0
0
0
0
0
0
0
0
0
0
0
0
0
0
0
0
0
0
0
0
0
0
0
0
0
0
0
0
0
0
0
0
0
0
0
0
0
86
0
0
0
0
0
0
0
255
255
255
255
255
251
191
151
245
255
253
247
251
252
249
228
50
76
255
239
233
231
233
227
227
225
194
101
108
225
226
216
212
209
209
208
206
203
209
134
8
74
170
199
195
192
194
191
186
203
196
135
33
30
98
102
31
0
48
119
178
179
119
94
103
105
105
105
105
105
116
87
0
0
0
0
0
0
0
0
0
0
0
0
0
0
0
0
0
0
0
0
0
0
0
0
0
0
0
0
0
0
0
0
0
0
0
0
0
0
0
0
0
0
0
0
0
0
0
0
0
0
0
0
0
0
0
0
0
255
255
255
255
255
250
191
148
248
255
252
247
254
255
251
237
53
81
255
241
231
232
235
226
232
227
196
96
110
228
233
217
212
209
209
208
205
201
210
134
8
77
168
193
192
192
189
191
187
186
177
126
33
21
113
105
24
0
26
109
184
180
123
94
104
105
105
105
105
105
116
89
0
0
0
0
0
0
0
0
0
0
0
0
0
0
0
0
0
0
0
0
0
0
0
0
0
0
0
0
0
0
0
0
0
0
0
0
0
0
0
0
0
0
0
0
0
0
0
0
0
0
0
0
0
0
0
0
0
255
255
255
255
255
251
187
150
247
255
252
249
254
255
251
232
46
77
251
240
230
232
231
226
230
225
194
100
114
238
231
217
213
209
209
208
203
202
212
134
8
70
164
196
192
193
197
174
145
179
192
128
37
125
168
99
29
0
27
116
187
190
125
94
104
105
105
105
105
105
115
88
0
0
0
0
0
0
0
0
0
0
0
0
0
0
0
0
0
0
0
0
0
0
0
0
0
0
0
0
0
0
0
0
0
0
0
0
0
0
0
0
0
0
0
0
0
0
0
0
0
0
0
0
0
0
0
0
0
255
255
255
255
255
252
192
149
248
255
252
249
254
255
250
236
48
74
247
240
233
231
230
223
229
222
198
102
120
231
230
217
213
209
209
208
204
201
214
138
8
74
164
196
200
182
148
162
191
194
152
119
171
194
162
103
29
0
25
121
205
194
129
97
105
105
105
105
105
105
115
88
0
0
0
0
0
0
0
0
0
0
0
0
0
0
0
0
0
0
0
0
0
0
0
0
0
0
0
0
0
0
0
0
0
0
0
0
0
0
0
0
0
0
0
0
0
0
0
0
0
0
0
0
0
0
0
0
0
255
255
255
255
255
252
188
148
244
255
253
249
255
253
248
237
43
76
247
244
236
231
227
222
227
222
198
101
108
221
227
218
214
209
208
207
204
201
214
132
10
69
167
181
155
162
197
181
139
129
157
188
187
189
167
101
31
0
30
116
157
162
122
101
105
105
105
105
105
105
115
89
0
0
0
0
0
0
0
0
0
0
0
0
0
0
0
0
0
0
0
0
0
0
0
0
0
0
0
0
0
0
0
0
0
0
0
0
0
0
0
0
0
0
0
0
0
0
0
0
0
0
0
0
0
0
0
0
0
255
255
255
255
255
253
188
144
239
255
253
249
254
252
251
235
43
68
244
243
237
229
226
225
230
225
202
102
111
225
234
222
215
210
210
208
207
201
209
131
11
62
133
156
193
186
143
132
151
186
189
183
190
196
169
104
25
0
15
44
73
118
112
102
105
105
105
105
105
105
113
88
0
0
0
0
0
0
0
0
0
0
0
0
0
0
0
0
0
0
0
0
0
0
0
0
0
0
0
0
0
0
0
0
0
0
0
0
0
0
0
0
0
0
0
0
0
0
0
0
0
0
0
0
0
0
0
0
255
255
255
255
255
255
255
186
147
248
255
253
248
253
251
253
239
40
77
240
247
234
227
225
226
232
229
200
100
110
230
236
221
217
213
213
211
204
195
210
138
22
133
187
172
144
135
163
185
195
188
185
187
193
195
171
101
27
0
0
0
35
87
103
101
105
105
105
105
105
105
113
88
0
0
0
0
0
0
0
0
0
0
0
0
0
0
0
0
0
0
0
0
0
0
0
0
0
0
0
0
0
0
0
0
0
0
0
0
0
0
0
0
0
0
0
0
0
0
0
0
0
0
0
0
0
0
0
0
255
255
255
255
255
255
255
186
149
247
255
250
246
249
251
255
233
43
78
241
247
231
224
225
224
232
229
201
97
114
222
231
223
218
216
212
207
202
201
213
160
194
181
132
132
164
188
194
192
189
187
188
187
191
198
173
96
34
2
0
0
20
89
116
96
105
105
105
105
105
105
113
89
0
0
0
0
0
0
0
0
0
0
0
0
0
0
0
0
0
0
0
0
0
0
0
0
0
0
0
0
0
0
0
0
0
0
0
0
0
0
0
0
0
0
