P2
# CREATOR: GIMP PNM Filter Version 1.1
128 32
255
112
239
181
60
199
205
193
121
97
178
174
96
97
106
105
105
105
105
113
44
0
0
0
0
0
0
0
0
0
0
0
0
0
0
0
0
0
0
0
0
0
0
0
0
0
0
0
0
0
0
0
0
0
0
0
0
0
0
0
0
0
0
0
0
0
0
0
0
0
0
0
0
0
0
0
0
0
0
0
0
0
0
0
0
0
0
0
0
0
0
0
0
0
0
0
0
0
0
0
0
0
0
0
0
0
180
173
171
166
170
136
132
0
0
0
0
0
0
0
0
0
0
0
0
0
0
0
0
136
151
247
124
91
204
208
173
98
116
192
149
86
104
105
105
105
105
107
108
0
0
0
0
0
0
0
0
0
0
0
0
0
0
0
0
0
0
0
0
0
0
0
0
0
0
0
0
0
0
0
0
0
0
0
0
0
0
0
0
0
0
0
0
0
0
0
0
0
0
0
0
0
0
0
0
0
0
0
0
0
0
0
0
0
0
0
0
0
0
0
0
0
0
0
0
0
0
0
0
0
0
0
0
0
72
196
164
166
172
160
132
134
0
0
0
0
0
0
0
0
0
0
0
0
0
0
0
243
105
193
238
74
143
200
209
151
88
145
192
126
88
107
105
105
105
105
113
91
0
0
0
0
0
0
0
0
0
0
0
0
0
0
0
0
0
0
0
0
0
0
0
0
0
0
0
0
0
0
0
0
0
0
0
0
0
0
0
0
0
0
0
0
0
0
0
0
0
0
0
0
0
0
0
0
0
0
0
0
0
0
0
0
0
0
0
0
0
0
0
0
0
0
0
0
0
0
0
0
0
0
0
0
0
124
177
164
172
171
152
131
0
0
0
0
0
0
0
0
0
0
0
0
0
0
0
235
200
110
223
199
64
181
198
202
129
89
174
182
103
97
106
105
105
105
104
119
59
0
0
0
0
0
0
0
0
0
0
0
0
0
0
0
0
0
0
0
0
0
0
0
0
0
0
0
0
0
0
0
0
0
0
0
0
0
0
0
0
0
0
0
0
0
0
0
0
0
0
0
0
0
0
0
0
0
0
0
0
0
0
0
0
0
0
0
0
0
0
0
0
0
0
0
0
0
0
0
0
0
0
0
0
0
168
179
173
173
176
140
129
0
0
0
0
0
0
0
0
0
0
0
0
0
0
234
246
149
141
241
143
87
199
202
187
106
104
191
161
86
105
106
105
105
105
104
117
0
0
0
0
0
0
0
0
0
0
0
0
0
0
0
0
0
0
0
0
0
0
0
0
0
0
0
0
0
0
0
0
0
0
0
0
0
0
0
0
0
0
0
0
0
0
0
0
0
0
0
0
0
0
0
0
0
0
0
0
0
0
0
0
0
0
0
0
0
0
0
0
0
0
0
0
0
0
0
0
0
0
0
0
0
56
193
170
168
173
164
125
127
0
0
0
0
0
0
0
0
0
0
0
0
0
232
233
243
114
186
240
87
131
205
209
160
89
133
193
137
82
108
105
105
105
105
106
99
0
0
0
0
0
0
0
0
0
0
0
0
0
0
0
0
0
0
0
0
0
0
0
0
0
0
0
0
0
0
0
0
0
0
0
0
0
0
0
0
0
0
0
0
0
0
0
0
0
0
0
0
0
0
0
0
0
0
0
0
0
0
0
0
0
0
0
0
0
0
0
0
0
0
0
0
0
0
0
0
0
0
0
0
0
114
184
166
161
168
149
122
0
0
0
0
0
0
0
0
0
0
0
0
0
166
244
240
219
106
224
212
55
174
206
205
134
89
163
187
108
90
107
105
105
105
105
111
67
0
0
0
0
0
0
0
0
0
0
0
0
0
0
0
0
0
0
0
0
0
0
0
0
0
0
0
0
0
0
0
0
0
0
0
0
0
0
0
0
0
0
0
0
0
0
0
0
0
0
0
0
0
0
0
0
0
0
0
0
0
0
0
0
0
0
0
0
0
0
0
0
0
0
0
0
0
0
0
0
0
0
0
0
0
160
168
156
159
170
138
125
0
0
0
0
0
0
0
0
0
0
0
0
179
196
241
249
174
130
244
167
66
197
208
188
107
107
183
169
90
101
105
105
105
105
106
114
0
0
0
0
0
0
0
0
0
0
0
0
0
0
0
0
0
0
0
0
0
0
0
0
0
0
0
0
0
0
0
0
0
0
0
0
0
0
0
0
0
0
0
0
0
0
0
0
0
0
0
0
0
0
0
0
0
0
0
0
0
0
0
0
0
0
0
0
0
0
0
0
0
0
0
0
0
0
0
0
0
0
0
0
0
0
184
151
155
161
165
127
122
0
0
0
0
0
0
0
0
0
0
0
246
159
223
232
250
131
169
245
108
108
201
205
156
90
135
191
145
84
107
105
105
105
105
109
107
0
0
0
0
0
0
0
0
0
0
0
0
0
0
0
0
0
0
0
0
0
0
0
0
0
0
0
0
0
0
0
0
0
0
0
0
0
0
0
0
0
0
0
0
0
0
0
0
0
0
0
0
0
0
0
0
0
0
0
0
0
0
0
0
0
0
0
0
0
0
0
0
0
0
0
0
0
0
0
0
0
0
0
0
0
88
179
150
156
164
152
115
0
0
0
0
0
0
0
0
0
0
0
239
225
159
243
229
225
112
202
225
69
160
193
194
125
96
160
190
119
90
108
105
105
105
104
114
81
0
0
0
0
0
0
0
0
0
0
0
0
0
0
0
0
0
0
0
0
0
0
0
0
0
0
0
0
0
0
0
0
0
0
0
0
0
0
0
0
0
0
0
0
0
0
0
0
0
0
0
0
0
0
0
0
0
0
0
0
0
0
0
0
0
0
0
0
0
0
0
0
0
0
0
0
0
0
0
0
0
0
0
0
0
137
167
156
159
167
135
114
0
0
0
0
0
0
0
0
0
0
206
251
192
186
245
238
179
122
235
180
70
187
191
184
106
113
178
180
98
98
107
105
105
105
104
118
46
0
0
0
0
0
0
0
0
0
0
0
0
0
0
0
0
0
0
0
0
0
0
0
0
0
0
0
0
0
0
0
0
0
0
0
0
0
0
0
0
0
0
0
0
0
0
0
0
0
0
0
0
0
0
0
0
0
0
0
0
0
0
0
0
0
0
0
0
0
0
0
0
0
0
0
0
0
0
0
0
0
0
0
0
0
170
162
161
163
165
123
119
0
0
0
0
0
0
0
0
0
194
229
252
164
222
239
244
140
158
246
123
99
199
198
165
93
126
191
159
82
105
105
105
105
105
104
110
0
0
0
0
0
0
0
0
0
0
0
0
0
0
0
0
0
0
0
0
0
0
0
0
0
0
0
0
0
0
0
0
0
0
0
0
0
0
0
0
0
0
0
0
0
0
0
0
0
0
0
0
0
0
0
0
0
0
0
0
0
0
0
0
0
0
0
0
0
0
0
0
0
0
0
0
0
0
0
0
0
0
0
0
0
71
178
161
161
164
155
114
118
0
0
0
0
0
0
0
0
237
189
248
236
158
242
235
239
110
197
238
81
141
195
204
130
88
149
194
127
85
106
105
105
105
105
108
90
0
0
0
0
0
0
0
0
0
0
0
0
0
0
187
187
187
187
0
187
187
187
0
0
0
187
187
187
187
187
187
187
187
187
187
187
187
187
187
187
187
187
187
187
0
187
187
187
187
187
187
187
187
187
187
187
187
187
0
0
0
0
0
0
0
0
0
0
0
0
0
0
0
0
0
0
0
0
0
0
0
0
0
0
0
122
175
160
159
164
139
115
0
0
0
0
0
0
0
0
255
212
199
255
208
173
241
239
206
115
230
204
59
175
191
196
107
97
172
179
102
96
106
105
105
105
105
116
56
0
0
0
0
0
0
0
0
0
0
0
0
0
187
187
187
187
0
187
187
187
0
0
187
187
187
187
187
187
187
187
187
187
187
187
187
0
187
187
187
0
187
187
187
187
187
0
187
187
187
187
187
187
187
187
187
187
0
0
0
0
0
0
0
0
0
0
0
0
0
0
0
0
0
0
0
0
0
0
0
0
0
0
0
0
161
164
158
157
162
126
118
0
0
0
0
0
0
0
255
254
193
222
255
175
206
236
243
153
149
245
148
82
188
194
177
92
116
183
162
87
104
105
105
105
105
106
115
0
0
0
0
0
0
0
0
0
0
0
0
0
187
187
187
0
187
187
187
187
187
187
187
187
0
0
0
0
0
187
187
187
187
187
0
0
187
187
187
187
187
187
187
187
0
0
0
187
187
187
0
187
187
187
0
0
0
0
0
0
0
0
0
0
0
0
0
0
0
0
0
0
0
0
0
0
0
0
0
0
0
0
0
0
51
180
157
155
156
154
119
0
0
0
0
0
0
0
255
255
242
190
239
246
163
233
230
233
121
184
240
95
128
191
201
144
87
139
190
137
84
109
105
105
105
105
109
101
0
0
0
0
0
0
0
0
0
0
0
0
187
187
187
0
187
187
187
187
187
187
187
187
0
0
0
0
0
187
187
187
187
187
0
0
187
187
187
187
187
187
187
187
0
0
0
187
187
187
0
187
187
187
0
0
0
0
0
0
0
0
0
0
0
0
0
0
0
0
0
0
0
0
0
0
0
0
0
0
0
0
0
0
0
102
170
153
154
162
144
115
0
0
0
0
0
0
255
255
255
222
198
252
218
169
249
231
211
111
221
211
66
174
192
197
114
91
158
187
110
91
107
105
105
105
104
113
70
0
0
0
0
0
0
0
0
0
0
0
187
187
187
0
187
187
187
187
187
187
187
187
0
0
0
187
187
187
187
187
187
187
187
0
187
187
187
187
187
187
187
187
0
0
0
187
187
187
0
187
187
187
0
0
0
0
0
0
0
0
0
0
0
0
0
0
0
0
0
0
0
0
0
0
0
0
0
0
0
0
0
0
0
0
143
158
151
156
163
129
111
0
0
0
0
0
255
255
253
255
200
217
255
182
195
245
244
172
133
244
161
78
197
195
181
94
103
177
170
89
99
106
105
105
105
105
114
0
0
0
0
0
0
0
0
0
0
0
0
187
187
187
187
187
0
187
187
187
187
187
187
0
187
187
187
187
187
187
187
187
187
187
187
187
187
0
0
0
187
187
187
0
187
187
187
0
0
187
187
187
0
0
0
0
0
0
0
0
0
0
0
0
0
0
0
0
0
0
0
0
0
0
0
0
0
0
0
0
0
0
0
0
40
165
149
151
160
158
111
105
0
0
0
0
255
255
255
254
250
187
238
255
154
231
236
249
129
171
247
109
110
196
202
156
85
125
185
148
84
105
105
105
105
105
107
104
0
0
0
0
0
0
0
0
0
187
187
187
187
187
187
187
0
187
187
187
187
187
187
187
187
187
187
187
187
187
187
187
187
187
187
187
187
187
0
0
187
187
187
187
187
187
187
0
187
187
187
187
187
0
0
0
0
0
0
0
0
0
0
0
0
0
0
0
0
0
0
0
0
0
0
0
0
0
0
0
0
0
0
0
0
78
169
148
154
163
142
100
105
0
0
0
255
255
255
254
255
229
190
250
232
155
248
231
223
115
208
229
69
154
190
204
128
85
148
186
117
91
107
105
105
105
105
113
80
0
0
0
0
0
0
0
0
187
187
187
187
187
187
187
0
187
187
187
187
0
187
187
187
187
0
187
187
187
187
187
187
187
187
187
187
187
0
0
0
0
187
187
187
0
0
0
187
187
187
187
187
0
0
0
0
0
0
0
0
0
0
0
0
0
0
0
0
0
0
0
0
0
0
0
0
0
0
0
0
0
0
0
0
0
127
162
150
156
163
126
102
0
0
0
255
255
255
255
255
254
205
207
255
194
182
247
232
180
133
230
185
71
184
190
194
102
94
172
174
95
101
106
105
105
105
104
119
48
0
0
0
0
0
0
0
0
0
0
0
0
0
0
0
0
0
0
0
0
0
0
0
0
0
0
0
0
0
0
0
0
0
0
0
0
0
0
0
0
0
0
0
0
0
0
0
0
0
0
0
0
0
0
0
0
0
0
0
0
0
0
0
0
0
0
0
0
0
0
0
0
0
0
0
0
0
0
0
0
0
0
0
0
0
159
153
152
159
161
111
105
0
0
255
255
255
254
255
255
248
188
229
251
158
217
239
230
141
168
241
128
105
194
198
172
87
118
190
152
84
107
105
105
105
105
105
114
0
0
0
0
0
0
0
0
0
0
0
0
0
0
0
0
0
0
0
0
0
0
0
0
0
0
0
0
0
0
0
0
0
0
0
0
0
0
0
0
0
0
0
0
0
0
0
0
0
0
0
0
0
0
0
0
0
0
0
0
0
0
0
0
0
0
0
0
0
0
0
0
0
0
0
0
0
0
0
0
0
0
0
0
0
65
166
150
153
159
152
100
0
0
0
255
255
255
254
255
255
233
190
252
230
150
249
233
222
123
203
232
82
152
195
207
141
86
145
188
124
85
108
105
105
105
105
109
90
0
0
0
0
0
0
0
0
0
0
0
0
0
0
0
0
0
0
0
0
0
0
0
0
0
0
0
0
0
0
0
0
0
0
0
0
0
0
0
0
0
0
0
0
0
0
0
0
0
0
0
0
0
0
0
0
0
0
0
0
0
0
0
0
0
0
0
0
0
0
0
0
0
0
0
0
0
0
0
0
0
0
0
0
0
115
159
149
149
166
134
98
0
0
0
255
255
255
255
255
255
211
206
255
200
170
255
238
203
127
230
200
66
186
195
201
111
92
168
177
101
94
106
105
105
105
105
112
58
0
0
0
0
0
0
0
0
0
0
0
0
0
0
0
0
0
0
0
0
0
0
0
0
0
0
0
0
0
0
0
0
0
0
0
0
0
0
0
0
0
0
0
0
0
0
0
0
0
0
0
0
0
0
0
0
0
0
0
0
0
0
0
0
0
0
0
0
0
0
0
0
0
0
0
0
0
0
0
0
0
0
0
0
0
153
151
149
150
167
117
102
0
0
255
255
255
255
255
255
255
192
226
255
162
207
248
243
161
152
245
145
85
197
202
178
94
108
184
157
87
103
105
105
105
105
106
112
0
0
0
0
0
0
0
0
0
0
0
0
0
0
0
0
0
0
0
0
0
0
0
0
0
0
0
0
0
0
0
0
0
0
0
0
0
0
0
0
0
0
0
0
0
0
0
0
0
0
0
0
0
0
0
0
0
0
0
0
0
0
0
0
0
0
0
0
0
0
0
0
0
0
0
0
0
0
0
0
0
0
0
0
0
51
173
148
148
154
155
103
0
0
0
255
255
255
255
255
255
246
187
242
249
140
239
234
233
129
186
243
97
127
193
207
154
86
135
190
136
87
107
105
105
105
105
111
98
0
0
0
0
0
0
0
0
0
0
0
0
0
0
0
0
0
0
0
0
0
0
0
0
0
0
0
0
0
0
0
0
0
0
0
0
0
0
0
0
0
0
0
0
0
0
0
0
0
0
0
0
0
0
0
0
0
0
0
0
0
0
0
0
0
0
0
0
0
0
0
0
0
0
0
0
0
0
0
0
0
0
0
0
0
99
171
149
150
159
138
0
0
0
255
255
255
255
255
255
255
220
199
254
211
155
253
228
206
126
216
216
71
166
190
206
128
90
164
185
111
94
107
105
105
105
104
117
72
0
0
0
0
0
0
0
0
0
0
0
0
0
0
0
0
0
0
0
0
0
0
0
0
0
0
0
0
0
0
0
0
0
0
0
0
0
0
0
0
0
0
0
0
0
0
0
0
0
0
0
0
0
0
0
0
0
0
0
0
0
0
0
0
0
0
0
0
0
0
0
0
0
0
0
0
0
0
0
0
0
0
0
0
0
143
160
150
150
163
0
0
0
0
255
255
255
255
255
255
252
200
221
254
169
193
251
227
169
151
235
163
79
192
195
190
104
105
179
171
89
102
106
105
105
105
104
118
0
0
0
0
0
0
0
0
0
0
0
0
0
0
0
0
0
0
0
0
0
0
0
0
0
0
0
0
0
0
0
0
0
0
0
0
0
0
0
0
0
0
0
0
0
0
0
0
0
0
0
0
0
0
0
0
0
0
0
0
0
0
0
0
0
0
0
0
0
0
0
0
0
0
0
0
0
0
0
0
0
0
0
0
0
0
165
153
149
157
0
0
0
0
0
255
255
255
255
255
255
246
188
245
244
142
238
238
226
141
184
241
108
122
199
202
162
87
126
188
146
81
106
105
105
105
105
104
106
0
0
0
0
0
0
0
0
0
0
0
0
0
0
0
0
0
0
0
0
0
0
0
0
0
0
0
0
0
0
0
0
0
0
0
0
0
0
0
0
0
0
0
0
0
0
0
0
0
0
0
0
0
0
0
0
0
0
0
0
0
0
0
0
0
0
0
0
0
0
0
0
0
0
0
0
0
0
0
0
0
0
0
0
0
84
166
148
150
0
0
0
0
0
0
255
255
255
255
255
255
228
197
255
218
145
255
231
211
130
214
226
72
158
195
208
132
88
151
186
117
89
107
105
105
105
105
109
80
0
0
0
0
0
0
0
0
0
0
0
0
0
0
0
0
0
0
0
0
0
0
0
0
0
0
0
0
0
0
0
0
0
0
0
0
0
0
0
0
0
0
0
0
0
0
0
0
0
0
0
0
0
0
0
0
0
0
0
0
0
0
0
0
0
0
0
0
0
0
0
0
0
0
0
0
0
0
0
0
0
0
0
0
0
132
157
149
0
0
0
0
0
0
255
255
255
255
255
255
255
204
217
255
179
177
254
231
188
138
235
186
67
185
197
198
102
98
171
172
96
99
105
105
105
105
105
114
47
0
0
0
0
0
0
0
0
0
0
0
0
0
0
0
0
0
0
0
0
0
0
0
0
0
0
0
0
0
0
0
0
0
0
0
0
0
0
0
0
0
0
0
0
0
0
0
0
0
0
0
0
0
0
0
0
0
0
0
0
0
0
0
0
0
0
0
0
0
0
0
0
0
0
0
0
0
0
0
0
0
0
0
0
0
164
151
0
0
0
0
0
0
0
254
253
255
255
255
255
254
192
235
255
146
216
237
233
155
166
242
131
101
194
205
169
87
118
184
152
87
106
105
105
105
105
107
110
0
0
0
0
0
0
0
0
0
0
0
0
0
0
0
0
0
0
0
0
0
0
0
0
0
0
0
0
0
0
0
0
0
0
0
0
0
0
0
0
0
0
0
0
0
0
0
0
0
0
0
0
0
0
0
0
0
0
0
0
0
0
0
0
0
0
0
0
0
0
0
0
0
0
0
0
0
0
0
0
0
0
0
0
0
62
175
