P2
# CREATOR: GIMP PNM Filter Version 1.1
128 32
255
255
255
255
255
255
255
255
255
255
255
255
255
255
255
255
255
255
255
255
255
255
255
255
255
255
255
255
255
255
255
255
255
255
255
255
255
255
255
255
255
255
255
255
255
255
255
255
255
255
255
255
243
214
214
214
214
214
214
214
214
214
214
214
214
214
214
214
223
231
231
231
231
231
233
255
255
255
255
255
255
255
255
255
255
255
255
255
255
255
255
255
255
255
255
255
255
255
255
255
255
255
255
255
255
255
255
255
255
255
255
255
255
255
255
255
255
255
255
255
255
255
255
255
255
255
255
255
255
255
255
255
255
255
255
255
255
255
255
255
255
255
255
255
255
255
255
255
255
255
255
255
255
255
255
255
255
255
255
255
255
255
255
255
255
255
255
255
255
255
255
255
255
255
194
201
207
207
207
211
217
194
194
194
194
194
194
194
177
175
175
175
175
182
194
194
202
195
188
188
188
206
209
226
226
226
226
240
255
255
255
255
255
255
255
255
255
255
255
255
255
255
255
255
255
255
255
255
255
255
255
255
255
255
255
255
255
255
255
255
255
255
255
255
255
255
255
255
255
255
255
255
255
255
255
255
255
255
255
255
255
255
255
255
255
255
255
255
255
255
255
255
255
255
255
255
255
255
255
255
255
255
255
255
255
255
255
255
255
255
255
255
255
255
255
255
255
255
255
255
168
144
158
172
175
175
170
128
95
95
95
95
95
129
146
104
86
84
84
84
84
127
207
164
106
88
84
84
84
94
95
95
95
95
95
146
200
215
246
255
255
255
255
255
255
255
255
255
255
255
255
255
255
255
255
255
255
255
255
255
255
255
255
255
255
255
255
255
255
255
255
255
255
255
255
255
255
255
255
255
255
255
255
255
255
255
255
255
255
255
255
255
255
255
255
255
255
255
255
255
255
255
255
255
255
255
255
255
255
255
255
255
255
255
255
255
255
255
255
255
255
255
255
255
255
255
255
170
123
87
70
73
73
73
71
62
73
73
73
73
55
92
75
70
73
73
73
73
64
76
168
158
71
71
87
87
87
87
87
87
87
87
87
95
104
109
170
242
255
255
255
255
255
255
255
255
255
255
255
255
255
255
255
255
255
255
255
255
255
255
255
255
255
255
255
255
255
255
255
255
255
255
255
255
255
255
255
255
255
255
255
255
255
255
255
255
255
255
255
255
255
255
255
255
255
255
255
255
255
255
255
255
255
255
255
255
255
255
255
255
255
255
255
255
255
255
255
255
255
255
255
255
255
255
189
132
120
83
88
92
92
89
84
81
98
98
98
126
82
71
88
150
184
161
161
177
124
68
118
200
126
92
163
237
237
204
240
243
220
210
191
132
98
98
97
168
246
255
255
255
255
255
255
255
255
255
255
255
255
255
255
255
255
255
255
255
255
255
255
255
255
255
255
255
255
255
255
255
255
255
255
255
255
255
255
255
255
255
255
255
255
255
255
255
255
255
255
255
255
255
255
255
255
255
255
255
255
255
255
255
255
255
255
255
255
255
255
255
255
255
255
255
255
255
255
255
255
255
255
255
254
194
128
126
62
82
163
240
255
255
255
248
193
116
101
126
87
68
209
255
255
255
255
255
212
68
111
206
135
94
241
255
255
254
255
255
255
255
255
224
101
101
100
158
243
255
255
255
255
255
255
255
255
255
255
255
255
255
255
255
255
255
255
255
255
255
255
255
255
255
255
255
255
255
255
255
255
255
255
255
255
255
255
255
255
255
255
255
255
255
255
255
255
255
255
255
255
255
255
255
255
255
255
255
255
255
255
255
255
255
255
255
255
255
255
255
255
255
255
255
255
255
255
255
255
255
255
252
206
141
145
77
67
111
249
255
255
255
255
255
255
143
101
126
87
68
253
255
255
255
255
255
239
71
75
161
161
72
200
255
255
254
255
255
255
255
255
251
125
93
100
88
163
251
255
255
255
255
255
255
255
255
255
255
255
255
255
255
255
255
255
255
255
255
255
255
255
255
255
255
255
255
255
255
255
255
255
255
255
255
255
255
255
255
255
255
255
255
255
255
255
255
255
255
255
255
255
255
255
255
255
255
255
255
255
255
255
255
255
255
255
255
255
255
255
255
255
255
255
255
255
255
255
255
251
207
142
151
95
61
80
192
255
255
255
255
255
255
255
189
96
126
84
68
250
255
255
255
255
255
255
134
84
144
207
99
115
255
255
255
250
255
255
255
255
255
239
128
97
101
171
220
255
255
255
255
255
255
255
255
255
255
255
255
255
255
255
255
255
255
255
255
255
255
255
255
255
255
255
255
255
255
255
255
255
255
255
255
255
255
255
255
255
255
255
255
255
255
255
255
255
255
255
255
255
255
255
255
255
255
255
255
255
255
255
255
255
255
255
255
255
255
255
255
255
255
255
255
255
255
255
252
205
143
170
127
58
66
127
251
255
255
254
243
255
255
255
239
42
126
73
72
237
255
255
255
255
255
255
192
85
139
207
107
74
216
255
255
246
255
255
255
255
255
255
244
140
101
168
115
255
255
255
255
255
255
255
255
255
255
255
255
255
255
255
255
255
255
255
255
255
255
255
255
255
255
255
255
255
255
255
255
255
255
255
255
255
255
255
255
255
255
255
255
255
255
255
255
255
255
255
255
255
255
255
255
255
255
255
255
255
255
255
255
255
255
255
255
255
255
255
255
255
255
255
255
255
255
255
245
115
175
154
82
48
80
168
254
255
255
255
255
255
255
255
246
126
81
82
144
255
255
255
255
255
255
255
222
65
108
193
125
82
151
255
255
252
236
252
244
253
255
255
255
226
101
101
182
199
255
255
255
255
255
255
255
255
255
255
255
255
255
255
255
255
255
255
255
255
255
255
255
255
255
255
255
255
255
255
255
255
255
255
255
255
255
255
255
255
255
255
255
255
255
255
255
255
255
255
255
255
255
255
255
255
255
255
255
255
255
255
255
255
255
255
255
255
255
255
255
255
255
255
255
255
255
255
158
131
175
148
67
64
92
136
236
253
255
255
255
255
255
255
186
126
81
97
205
255
255
255
218
255
255
255
255
62
72
155
136
73
96
255
255
255
255
255
255
255
255
255
255
255
101
101
156
149
255
255
255
255
255
255
255
255
255
255
255
255
255
255
255
255
255
255
255
255
255
255
255
255
255
255
255
255
255
255
255
255
255
255
255
255
255
255
255
255
255
255
255
255
255
255
255
255
255
255
255
255
255
255
255
255
255
255
255
255
255
255
255
255
255
255
255
255
255
255
255
255
255
255
255
255
255
255
53
175
168
120
54
68
91
91
107
121
123
143
141
142
142
129
99
126
81
97
177
252
255
215
124
211
233
255
168
80
51
137
180
76
74
255
255
255
255
255
255
255
255
255
255
236
101
101
103
203
179
255
255
255
255
255
255
255
255
255
255
255
255
255
255
255
255
255
255
255
255
255
255
255
255
255
255
255
255
255
255
255
255
255
255
255
255
255
255
255
255
255
255
255
255
255
255
255
255
255
255
255
255
255
255
255
255
255
255
255
255
255
255
255
255
255
255
255
255
255
255
255
255
255
255
255
255
135
128
175
163
96
42
63
85
82
82
63
45
42
58
82
82
82
73
126
73
91
104
147
147
104
80
80
80
80
80
80
42
103
147
89
79
169
255
222
206
206
206
206
207
210
197
140
101
101
103
202
157
163
222
255
255
255
255
255
255
255
255
255
255
255
255
255
255
255
255
255
255
255
255
255
255
255
255
255
255
255
255
255
255
255
255
255
255
255
255
255
255
255
255
255
255
255
255
255
255
255
255
255
255
255
255
255
255
255
255
255
255
255
255
255
255
255
255
255
255
255
255
255
255
255
255
255
255
60
174
178
194
174
158
163
170
170
170
161
158
158
158
170
170
170
143
72
158
158
158
158
158
158
158
158
158
158
158
158
158
158
101
79
79
79
79
79
79
79
79
79
79
79
79
79
82
88
88
119
113
89
118
134
192
255
255
255
255
255
255
255
255
255
255
255
255
255
255
255
255
255
255
255
255
255
255
255
255
255
255
255
255
255
255
255
255
255
255
255
255
255
255
255
255
255
255
255
255
255
255
255
255
255
255
255
255
255
255
255
255
255
255
255
255
255
255
255
255
255
255
255
255
255
255
255
255
60
174
180
207
207
207
207
139
96
109
85
184
207
207
207
207
207
154
70
91
71
75
85
85
57
95
207
207
207
207
207
164
92
97
96
96
96
95
85
95
140
143
157
172
172
172
172
179
180
180
180
180
174
155
155
138
119
119
119
119
236
255
255
255
255
255
255
255
255
255
255
255
255
255
255
255
255
255
255
255
255
255
255
255
255
255
255
255
255
255
255
255
255
255
255
255
255
255
255
255
255
255
255
255
255
255
255
255
255
255
255
255
255
255
255
255
255
255
255
255
255
255
255
255
255
255
255
100
147
175
177
200
185
195
190
121
45
47
43
152
204
178
203
182
198
128
71
108
69
45
47
47
43
152
207
178
207
178
207
207
207
179
179
207
179
179
179
110
114
106
134
172
176
179
199
207
207
207
207
207
206
203
203
197
191
191
171
163
113
104
117
255
255
255
255
255
255
255
255
255
255
255
255
255
255
255
255
255
255
255
255
255
255
255
255
255
255
255
255
255
255
255
255
255
255
255
255
255
255
255
255
255
255
255
255
255
255
255
255
255
255
255
255
255
255
255
255
255
255
255
255
255
255
255
255
77
163
173
199
179
195
184
190
186
179
188
174
197
176
202
177
197
181
146
71
109
152
141
207
207
178
207
178
207
178
207
164
164
156
207
179
179
179
207
179
179
207
179
111
112
106
101
148
172
201
202
202
206
207
207
207
207
207
207
206
206
202
174
165
93
130
250
255
255
255
255
255
255
255
255
255
255
255
255
255
255
255
255
255
255
255
255
255
255
255
255
255
255
255
255
255
255
255
255
255
255
255
255
255
255
255
255
255
255
255
255
255
255
255
255
255
255
255
255
255
255
255
255
255
255
238
227
227
76
154
164
164
164
163
160
157
155
155
158
163
164
164
164
164
164
163
117
65
97
164
164
164
164
164
164
164
164
164
164
164
164
100
97
103
149
117
117
117
117
179
179
179
179
110
104
113
118
155
98
101
168
191
191
191
191
191
191
191
191
191
191
189
163
144
129
241
255
255
255
255
255
255
255
255
255
255
255
255
255
255
255
255
255
255
255
255
255
255
255
255
255
255
255
255
255
255
255
255
255
255
255
255
255
255
255
255
255
255
255
255
255
255
255
255
255
255
255
255
255
255
255
255
255
126
61
70
97
128
130
130
130
122
91
59
42
42
63
116
130
130
130
130
130
122
80
63
110
130
130
130
130
130
130
130
130
130
130
130
124
109
83
73
91
96
97
156
167
155
118
207
179
102
79
145
175
125
178
175
110
114
109
94
90
109
109
109
109
109
109
106
86
110
112
145
231
255
255
255
255
255
255
255
255
255
255
255
255
255
255
255
255
255
255
255
255
255
255
255
255
255
255
255
255
255
255
255
255
255
255
255
255
255
255
255
255
255
255
255
255
255
255
255
255
255
255
255
255
255
255
255
255
126
106
144
147
147
147
147
147
144
101
47
54
54
54
115
145
147
147
147
147
150
116
75
133
145
145
145
145
145
145
145
145
145
145
145
127
65
42
51
54
54
44
96
153
167
154
120
110
72
127
175
175
125
202
208
222
236
214
141
103
176
180
173
170
179
180
162
104
223
227
135
141
255
255
255
255
255
255
255
255
255
255
255
255
255
255
255
255
255
255
255
255
255
255
255
255
255
255
255
255
255
255
255
255
255
255
255
255
255
255
255
255
255
255
255
255
255
255
255
255
255
255
255
255
255
255
255
255
175
68
100
128
130
130
125
89
59
48
68
82
82
82
63
65
93
129
130
130
136
113
74
104
93
93
93
93
93
93
93
93
93
93
102
78
42
52
75
82
82
58
47
95
151
172
168
147
123
117
124
124
93
141
146
165
165
158
103
54
79
89
73
67
86
89
68
98
181
181
126
141
255
255
255
255
255
255
255
255
255
255
255
255
255
255
255
255
255
255
255
255
255
255
255
255
255
255
255
255
255
255
255
255
255
255
255
255
255
255
255
255
255
255
255
255
255
255
255
255
255
255
255
255
255
255
255
255
255
109
142
162
188
162
175
74
47
69
90
99
99
87
82
49
111
187
171
186
174
137
71
106
171
186
171
138
171
186
171
171
138
171
96
60
53
75
94
99
84
81
59
49
102
183
172
172
207
151
119
119
119
119
118
104
104
104
104
104
104
104
104
104
104
104
106
126
126
126
117
128
210
255
255
255
255
255
255
255
255
255
255
255
255
255
255
255
255
255
255
255
255
255
255
255
255
255
255
255
255
255
255
255
255
255
255
255
255
255
255
255
255
255
255
255
255
255
255
255
255
255
255
255
255
255
255
255
255
109
113
141
136
142
122
42
54
89
90
98
93
93
87
67
75
135
148
138
146
102
68
102
186
138
171
186
138
171
138
186
171
102
76
42
65
95
83
110
67
81
78
42
68
165
172
172
148
116
116
116
116
116
114
101
101
101
101
101
101
101
101
101
101
101
103
124
124
124
115
74
158
255
255
255
255
255
255
255
255
255
255
255
255
255
255
255
255
255
255
255
255
255
255
255
255
255
255
255
255
255
255
255
255
255
255
255
255
255
255
255
255
255
255
255
255
255
255
255
255
255
255
255
255
255
255
255
255
109
91
126
109
128
98
48
79
92
82
131
129
85
79
82
46
113
127
112
124
84
69
102
171
113
113
138
113
138
171
113
113
87
53
55
89
82
49
64
45
57
80
63
49
116
172
172
168
147
147
147
147
147
145
127
127
127
127
86
42
73
56
42
84
45
47
97
77
141
102
42
158
255
255
255
255
255
255
255
255
255
255
255
255
255
255
255
255
255
255
255
255
255
255
255
255
255
255
255
255
255
255
255
255
255
255
255
255
255
255
255
255
255
255
255
255
255
255
255
255
255
255
255
255
255
255
255
255
215
109
110
108
107
98
51
93
110
141
232
233
151
86
82
46
64
82
82
82
76
72
81
81
81
82
80
82
80
82
80
82
67
42
62
103
104
107
170
119
95
82
75
42
90
172
172
171
143
124
117
117
117
116
119
175
175
148
90
85
94
77
91
93
73
97
99
124
79
124
196
228
255
255
255
255
255
255
255
255
255
255
255
255
255
255
255
255
255
255
255
255
255
255
255
255
255
255
255
255
255
255
255
255
255
255
255
255
255
255
255
255
255
255
255
255
255
255
255
255
255
255
255
255
255
255
255
255
255
117
80
113
116
105
51
93
95
127
233
233
130
76
82
46
102
100
100
100
104
94
92
109
109
109
109
109
109
109
109
109
86
42
62
103
78
203
255
206
57
82
81
66
87
172
172
197
190
133
148
157
157
147
71
175
140
60
50
53
52
50
55
51
50
65
160
169
116
126
255
255
255
255
255
255
255
255
255
255
255
255
255
255
255
255
255
255
255
255
255
255
255
255
255
255
255
255
255
255
255
255
255
255
255
255
255
255
255
255
255
255
255
255
255
255
255
255
255
255
255
255
255
255
255
255
255
255
255
240
236
92
78
73
51
93
115
102
147
155
119
89
82
46
116
123
168
168
168
145
95
131
169
169
169
169
169
169
159
107
65
42
62
103
68
202
255
204
43
82
82
72
70
158
207
207
156
157
174
175
172
66
163
175
170
161
161
161
161
161
161
161
161
162
156
56
111
241
255
255
255
255
255
255
255
255
255
255
255
255
255
255
255
255
255
255
255
255
255
255
255
255
255
255
255
255
255
255
255
255
255
255
255
255
255
255
255
255
255
255
255
255
255
255
255
255
255
255
255
255
255
255
255
255
255
255
255
255
255
251
251
221
51
92
91
46
64
60
47
74
82
46
45
73
86
86
86
86
85
85
86
86
76
73
73
73
73
72
61
42
62
103
114
110
178
126
109
82
82
72
43
44
46
46
44
44
45
45
45
42
45
45
45
45
45
45
45
45
45
45
45
45
79
251
252
255
255
255
255
255
255
255
255
255
255
255
255
255
255
255
255
255
255
255
255
255
255
255
255
255
255
255
255
255
255
255
255
255
255
255
255
255
255
255
255
255
255
255
255
255
255
255
255
255
255
255
255
255
255
255
255
255
255
255
255
255
255
255
255
229
74
78
93
84
82
74
92
90
77
45
42
70
255
255
255
255
255
255
255
255
255
45
42
42
42
42
42
42
62
100
74
45
78
47
54
82
81
67
42
55
74
74
74
74
74
74
74
74
74
74
64
42
42
42
42
42
42
42
42
45
103
255
255
255
255
255
255
255
255
255
255
255
255
255
255
255
255
255
255
255
255
255
255
255
255
255
255
255
255
255
255
255
255
255
255
255
255
255
255
255
255
255
255
255
255
255
255
255
255
255
255
255
255
255
255
255
255
255
255
255
255
255
255
255
255
255
255
255
220
86
76
82
82
82
82
75
47
42
42
63
255
255
255
255
255
255
255
255
255
60
42
42
42
55
92
70
57
78
100
73
107
67
107
82
75
42
42
130
255
255
255
255
255
255
255
255
255
255
255
72
42
42
42
42
42
42
43
106
255
255
255
255
255
255
255
255
255
255
255
255
255
255
255
255
255
255
255
255
255
255
255
255
255
255
255
255
255
255
255
255
255
255
255
255
255
255
255
255
255
255
255
255
255
255
255
255
255
255
255
255
255
255
255
255
255
255
255
255
255
255
255
255
255
255
255
255
255
212
95
69
69
69
69
49
42
42
42
255
255
255
255
255
255
255
255
255
255
42
42
42
42
81
187
126
42
65
82
100
107
107
83
81
64
42
42
102
255
255
255
255
255
255
255
255
255
255
255
129
42
42
42
42
42
42
107
255
255
255
255
255
255
255
255
255
255
255
255
255
255
255
255
255
255
255
255
255
255
255
255
255
255
255
255
255
255
255
255
255
255
255
255
255
255
255
255
255
255
255
255
255
255
255
255
255
255
255
255
255
255
255
255
255
255
255
255
255
255
255
255
255
255
255
255
255
255
255
208
128
128
128
128
128
128
128
255
255
255
255
255
255
255
255
255
255
255
255
45
42
42
42
42
42
42
56
66
78
82
82
67
63
42
42
42
42
255
255
255
255
255
255
255
255
255
255
255
255
42
42
42
42
42
42
255
255
255
255
255
255
255
255
255
255
255
255
255
255
255
255
255
255
255
255
255
255
255
255
255
255
255
255
255
255
255
255
