P2
# CREATOR: The GIMP's PNM Filter Version 1.0
128 32
255
0
0
0
0
0
0
0
0
0
0
0
0
0
0
0
0
0
0
0
0
0
0
0
0
0
0
0
0
0
0
0
0
0
0
0
0
0
0
0
0
0
0
0
0
0
0
0
0
0
0
0
0
0
0
0
0
0
0
0
0
0
0
0
0
0
0
0
0
0
0
0
0
0
0
0
0
0
0
0
0
0
0
0
0
0
0
0
0
0
0
0
0
0
0
0
0
0
0
0
0
0
0
0
0
0
0
0
0
0
0
0
0
0
0
0
0
0
0
0
0
0
0
0
0
0
0
0
0
0
0
0
0
0
0
0
0
0
0
0
0
0
0
0
0
0
0
0
0
0
0
0
0
0
0
0
0
0
0
0
0
0
0
0
0
0
0
0
0
0
0
0
0
0
0
0
0
0
0
0
0
0
0
0
0
0
0
0
0
0
0
0
0
0
0
0
0
0
0
0
0
0
0
0
0
0
0
0
0
0
0
0
0
0
0
0
0
0
0
0
0
0
0
0
0
0
0
0
0
0
0
0
0
0
0
0
0
0
0
0
0
0
0
0
0
0
0
0
0
0
0
0
0
0
0
0
0
0
0
0
0
0
0
0
0
0
0
0
0
0
0
0
0
0
0
0
0
0
0
0
0
0
0
0
0
0
0
0
0
0
0
0
0
0
0
0
0
0
0
0
0
0
0
0
0
0
0
0
0
0
0
0
0
0
0
0
0
0
0
0
0
0
0
0
0
0
0
0
0
0
0
0
0
0
0
0
0
0
0
0
0
0
0
0
0
0
0
0
0
0
0
0
0
0
0
0
0
0
0
0
0
0
0
0
0
0
0
0
0
0
0
0
0
0
0
0
0
0
0
0
0
0
0
0
0
0
0
0
0
0
0
0
0
0
0
0
0
0
0
0
0
0
0
0
0
0
0
0
0
0
0
0
0
0
0
0
0
0
0
0
0
0
0
0
0
0
0
0
0
0
0
0
0
0
0
0
0
0
0
0
0
0
0
0
0
0
0
0
0
0
0
0
0
0
0
0
0
0
0
0
0
0
0
0
0
0
0
0
0
0
0
0
0
0
0
0
0
0
0
0
0
0
0
0
0
0
0
0
0
0
0
0
0
0
0
0
0
0
0
0
0
0
0
0
0
0
0
0
0
0
0
0
0
0
0
0
0
0
0
0
0
0
0
0
0
0
0
0
0
0
0
0
0
0
0
0
0
0
0
0
0
0
0
0
0
0
0
0
0
0
0
0
0
0
0
0
0
0
0
0
0
0
0
0
0
0
0
0
0
0
0
0
0
0
0
0
0
0
0
0
0
0
0
0
0
0
0
0
0
0
0
0
0
0
0
0
0
0
0
0
0
0
0
0
0
0
0
0
0
0
0
0
0
0
0
0
0
0
0
0
0
0
0
0
0
0
0
0
0
0
0
0
0
0
0
0
0
0
0
0
0
0
0
0
0
0
0
0
0
0
0
0
0
0
0
0
0
0
0
0
0
0
0
0
0
0
0
0
0
0
0
0
0
0
0
0
0
0
0
0
0
0
0
0
0
0
0
0
0
0
0
0
0
0
0
0
0
0
0
0
0
0
0
0
0
0
0
0
0
0
0
0
0
0
0
0
0
0
0
0
0
0
0
0
0
0
0
0
0
0
0
0
0
0
0
0
0
0
0
0
0
0
0
0
0
0
0
0
0
0
0
0
0
0
0
0
0
0
0
0
0
0
0
0
0
0
0
0
0
0
0
0
0
0
0
0
0
255
255
255
255
255
255
255
255
255
255
255
255
0
0
255
255
255
255
255
255
255
255
255
255
0
0
0
0
0
0
0
255
255
255
255
255
255
255
255
255
255
255
255
0
0
0
255
255
255
255
255
255
255
255
255
255
255
255
0
0
255
255
255
255
0
0
0
0
0
255
255
255
255
255
0
0
0
0
0
255
255
255
255
0
0
0
255
255
255
255
255
255
255
255
255
255
0
0
0
0
0
0
0
0
0
255
255
255
255
255
255
255
255
255
0
0
0
0
0
0
0
0
0
0
0
0
0
0
255
255
255
255
255
255
255
255
255
255
255
0
0
0
255
255
255
255
255
255
255
255
255
255
255
255
0
0
0
0
0
255
255
255
255
255
255
255
255
255
255
255
255
0
0
0
255
255
255
255
255
255
255
255
255
255
255
255
0
0
255
255
255
255
0
0
0
0
0
255
255
255
255
255
0
0
0
0
0
255
255
255
255
0
0
0
255
255
255
255
255
255
255
255
255
255
255
0
0
0
0
0
0
255
255
255
255
255
255
255
255
255
255
255
255
0
0
0
0
0
0
0
0
0
0
0
0
0
255
255
255
255
255
255
255
255
255
255
255
85
85
85
255
255
255
255
255
255
255
255
255
255
255
255
0
0
0
0
0
255
255
255
255
255
255
255
255
255
255
255
85
85
85
0
255
255
255
255
255
255
255
255
255
255
255
85
85
85
255
255
255
255
85
85
0
0
255
255
255
255
255
255
85
85
0
0
255
255
255
255
85
85
85
0
255
255
255
255
255
255
255
255
255
255
255
255
0
0
0
0
255
255
255
255
255
255
255
255
255
255
255
255
255
85
0
0
0
0
0
0
0
0
0
0
0
0
255
255
255
255
85
85
85
85
85
85
85
85
85
0
255
255
255
255
85
85
85
85
255
255
255
255
255
85
0
0
0
255
255
255
255
85
85
85
85
85
85
85
85
85
85
0
255
255
255
255
85
85
85
85
85
85
85
85
85
85
255
255
255
255
85
85
0
0
255
255
255
255
255
255
85
85
0
0
255
255
255
255
85
85
85
0
255
255
255
255
85
85
85
85
255
255
255
255
85
0
0
255
255
255
255
255
255
85
85
85
85
85
255
255
85
85
85
0
0
0
0
0
0
0
0
0
0
255
255
255
255
85
85
85
85
85
85
85
85
85
85
255
255
255
255
85
85
85
85
85
255
255
255
255
255
85
0
0
255
255
255
255
85
85
85
85
85
85
85
85
85
85
0
255
255
255
255
85
85
85
85
85
85
85
85
85
85
0
255
255
255
255
85
85
0
0
255
255
255
255
255
255
85
85
0
255
255
255
255
85
85
85
0
255
255
255
255
85
85
85
85
85
255
255
255
255
255
85
0
255
255
255
255
85
85
85
85
85
85
85
85
255
85
85
85
0
0
0
0
0
0
0
0
0
0
255
255
255
255
85
85
85
0
0
0
0
0
0
0
255
255
255
255
85
85
85
0
0
255
255
255
255
255
85
85
0
255
255
255
255
85
85
85
0
0
0
0
0
0
0
0
255
255
255
255
85
85
85
0
0
0
0
0
0
0
0
255
255
255
255
85
85
0
255
255
255
85
255
255
255
85
85
0
255
255
255
255
85
85
85
0
255
255
255
255
85
85
85
0
0
255
255
255
255
85
85
255
255
255
255
255
85
85
85
85
0
0
0
0
0
85
85
0
0
0
0
0
0
0
0
0
0
0
255
255
255
255
255
255
255
255
255
255
255
0
0
0
255
255
255
255
85
85
0
0
255
255
255
255
255
85
85
85
0
255
255
255
255
255
255
255
255
255
255
255
0
0
0
0
255
255
255
255
255
255
255
255
255
255
255
0
0
0
0
255
255
255
255
85
85
0
255
255
255
85
255
255
255
85
85
255
255
255
255
85
85
85
0
0
255
255
255
255
85
85
0
0
0
255
255
255
255
85
85
255
255
255
255
85
85
85
0
0
0
0
0
0
0
0
85
0
0
0
0
0
0
0
0
0
0
0
255
255
255
255
255
255
255
255
255
255
255
0
0
0
255
255
255
255
255
255
255
255
255
255
255
255
85
85
85
85
0
255
255
255
255
255
255
255
255
255
255
255
0
0
0
0
255
255
255
255
255
255
255
255
255
255
255
0
0
0
0
255
255
255
255
85
85
255
255
255
255
85
255
255
255
85
85
255
255
255
255
85
85
85
0
0
255
255
255
255
85
85
0
255
255
255
255
255
255
85
85
255
255
255
255
85
85
85
0
0
0
0
0
0
0
0
0
0
0
0
0
0
0
0
0
0
0
255
255
255
255
255
255
255
255
255
255
255
85
85
85
255
255
255
255
255
255
255
255
255
255
255
255
85
85
85
85
0
255
255
255
255
255
255
255
255
255
255
255
85
85
85
0
255
255
255
255
255
255
255
255
255
255
255
85
85
85
0
0
255
255
255
255
85
85
255
255
255
85
85
255
255
255
85
255
255
255
255
85
85
85
0
0
255
255
255
255
255
255
255
255
255
255
255
255
255
85
85
255
255
255
255
255
85
85
0
0
0
0
0
0
0
0
0
0
0
0
0
0
0
0
0
0
0
0
255
255
255
255
85
85
85
85
85
85
85
85
85
85
255
255
255
255
255
255
255
255
255
255
85
85
85
85
85
0
0
255
255
255
255
85
85
85
85
85
85
85
85
85
85
0
255
255
255
255
85
85
85
85
85
85
85
85
85
85
0
0
255
255
255
255
85
255
255
255
255
85
85
255
255
255
85
255
255
255
255
85
85
85
0
0
255
255
255
255
255
255
255
255
255
255
255
85
85
85
85
255
255
255
255
255
85
85
0
0
0
0
0
0
0
0
0
0
0
0
0
0
0
0
0
0
0
0
255
255
255
255
85
85
85
85
85
85
85
85
85
0
255
255
255
255
85
85
85
255
255
255
255
85
85
85
0
0
0
255
255
255
255
85
85
85
85
85
85
85
85
85
0
0
255
255
255
255
85
85
85
85
85
85
85
85
85
0
0
0
255
255
255
255
85
255
255
255
85
85
85
255
255
255
85
255
255
255
85
85
85
0
0
0
255
255
255
255
255
255
255
255
255
85
85
85
85
85
85
255
255
255
255
255
85
85
0
0
0
0
0
0
0
0
0
0
0
0
0
0
0
0
0
0
0
0
255
255
255
255
85
85
0
0
0
0
0
0
0
0
255
255
255
255
85
85
85
255
255
255
255
255
0
0
0
0
0
255
255
255
255
85
85
0
0
0
0
0
0
0
0
0
255
255
255
255
85
85
0
0
0
0
0
0
0
0
0
0
0
255
255
255
255
255
255
255
85
85
85
255
255
255
255
255
255
255
85
85
85
0
0
0
255
255
255
255
85
85
85
85
85
85
85
85
85
0
0
255
255
255
255
255
85
85
0
0
0
0
0
0
255
0
0
0
0
0
0
0
0
0
0
0
0
255
255
255
255
255
85
85
0
0
0
0
0
0
0
255
255
255
255
255
85
85
0
0
255
255
255
255
85
0
0
0
255
255
255
255
255
85
85
0
0
0
0
0
0
0
0
255
255
255
255
255
85
85
0
0
0
0
0
0
0
0
0
0
0
255
255
255
255
255
255
85
85
85
0
255
255
255
255
255
255
85
85
85
0
0
0
255
255
255
255
255
85
85
85
85
85
85
85
0
0
0
0
0
255
255
255
255
255
85
0
0
0
0
255
255
0
0
0
0
0
0
0
0
0
0
0
0
0
255
255
255
255
85
85
85
0
0
0
0
0
0
0
255
255
255
255
85
85
85
0
0
255
255
255
255
255
85
0
0
255
255
255
255
255
255
255
255
255
255
255
255
0
0
0
255
255
255
255
255
255
255
255
255
255
255
255
0
0
0
0
0
0
255
255
255
255
255
255
85
85
85
0
255
255
255
255
255
255
85
85
85
0
0
0
255
255
255
255
85
85
85
0
0
0
0
0
0
0
0
0
0
255
255
255
255
255
255
255
255
255
255
255
255
0
0
85
0
0
0
0
0
0
0
0
0
0
255
255
255
255
85
85
85
0
0
0
0
0
0
0
255
255
255
255
85
85
85
0
0
0
255
255
255
255
85
0
0
255
255
255
255
255
255
255
255
255
255
255
255
0
0
0
255
255
255
255
255
255
255
255
255
255
255
255
0
0
0
0
0
0
255
255
255
255
255
85
85
85
0
0
255
255
255
255
255
85
85
85
0
0
0
0
255
255
255
255
85
85
85
0
0
0
0
0
0
0
0
0
0
0
255
255
255
255
255
255
255
255
255
255
255
85
85
0
0
0
0
0
0
0
0
0
0
0
255
255
255
255
85
85
0
0
0
0
0
0
0
0
255
255
255
255
85
85
0
0
0
0
255
255
255
255
255
85
0
255
255
255
255
255
255
255
255
255
255
255
85
85
85
0
255
255
255
255
255
255
255
255
255
255
255
85
85
85
0
0
0
0
255
255
255
255
255
85
85
85
0
0
255
255
255
255
255
85
85
85
0
0
0
0
255
255
255
255
85
85
0
0
0
0
0
0
0
0
0
0
0
0
0
255
255
255
255
255
255
255
255
85
85
85
85
0
0
0
0
0
0
0
0
0
0
0
0
0
85
85
85
85
0
0
0
0
0
0
0
0
0
0
85
85
85
85
0
0
0
0
0
0
85
85
85
85
0
0
0
85
85
85
85
85
85
85
85
85
85
85
85
0
0
0
85
85
85
85
85
85
85
85
85
85
85
85
0
0
0
0
0
0
85
85
85
85
85
0
0
0
0
0
85
85
85
85
85
0
0
0
0
0
0
0
85
85
85
85
0
0
0
0
0
0
0
0
0
0
0
0
0
0
85
85
85
85
85
85
85
85
85
85
85
0
0
0
0
0
0
0
0
0
0
0
0
0
85
85
85
85
0
0
0
0
0
0
0
0
0
0
85
85
85
85
0
0
0
0
0
0
85
85
85
85
85
0
0
85
85
85
85
85
85
85
85
85
85
85
0
0
0
0
85
85
85
85
85
85
85
85
85
85
85
0
0
0
0
0
0
0
85
85
85
85
85
0
0
0
0
0
85
85
85
85
85
0
0
0
0
0
0
0
85
85
85
85
0
0
0
0
0
0
0
0
0
0
0
0
0
0
0
85
85
85
85
85
85
85
85
0
0
0
0
0
0
0
0
0
0
0
0
0
0
0
0
0
0
0
0
0
0
0
0
0
0
0
0
0
0
0
0
0
0
0
0
0
0
0
0
0
0
0
0
0
0
0
0
0
0
0
0
0
0
0
0
0
0
0
0
0
0
0
0
0
0
0
0
0
0
0
0
0
0
0
0
0
0
0
0
0
0
0
0
0
0
0
0
0
0
0
0
0
0
0
0
0
0
0
0
0
0
0
0
0
0
0
0
0
0
0
0
0
0
0
0
0
0
0
0
0
0
0
0
0
0
0
0
0
0
0
0
0
0
0
0
0
0
0
0
0
0
0
0
0
0
0
0
0
0
0
0
0
0
0
0
0
0
0
0
0
0
0
0
0
0
0
0
0
0
0
0
0
0
0
0
0
0
0
0
0
0
0
0
0
0
0
0
0
0
0
0
0
0
0
0
0
0
0
0
0
0
0
0
0
0
0
0
0
0
0
0
0
0
0
0
0
0
0
0
0
0
0
0
0
0
0
0
0
0
0
0
0
0
0
0
0
0
0
0
0
0
0
0
0
0
0
0
0
0
0
0
0
0
0
0
0
0
0
0
0
0
0
0
0
0
0
0
0
0
0
0
0
0
0
0
0
0
0
0
0
0
0
0
0
0
0
0
0
0
0
0
0
0
0
0
0
0
0
0
0
0
0
0
0
0
0
0
0
0
0
0
0
0
0
0
0
0
0
0
0
0
0
0
0
0
0
0
0
0
0
0
0
0
0
0
0
0
0
0
0
0
0
0
0
0
0
0
0
0
0
0
0
0
0
0
0
0
0
0
0
0
0
0
0
0
0
0
0
0
0
0
0
0
0
0
0
0
0
0
0
0
0
0
0
0
0
0
0
0
0
0
0
0
0
0
0
0
0
0
0
0
0
0
0
0
0
0
0
0
0
0
0
0
0
0
0
0
0
0
0
0
0
0
0
0
0
0
0
0
0
0
0
0
0
0
0
0
0
0
0
0
0
0
0
0
0
0
0
0
0
0
0
0
0
0
0
0
0
0
0
0
0
0
0
0
0
0
0
0
0
0
0
0
0
0
0
0
0
0
0
0
0
0
0
0
0
0
0
0
0
0
0
0
0
0
0
0
0
0
0
0
0
0
0
0
0
0
0
0
0
0
0
0
0
0
0
0
0
0
0
0
0
0
0
0
0
0
0
0
0
0
0
0
0
0
0
0
0
0
0
0
0
0
0
0
0
0
0
0
0
0
0
0
0
0
0
0
0
0
0
0
0
0
0
0
0
0
0
0
0
0
0
0
0
0
0
0
0
0
0
0
0
0
0
0
0
0
0
0
0
0
0
0
0
0
0
0
0
0
0
0
0
0
0
0
0
0
0
0
0
0
0
0
0
0
0
0
0
0
0
0
0
0
0
0
0
0
0
0
0
0
0
0
0
0
0
0
0
0
0
0
0
0
0
0
0
0
0
0
0
0
0
0
0
0
0
0
0
0
0
0
0
0
0
0
0
0
0
0
0
0
0
0
0
0
0
0
0
0
0
0
0
0
0
0
0
0
0
0
0
0
0
0
0
0
0
0
0
0
0
0
0
0
0
0
0
0
0
0
0
0
0
0
0
0
0
0
0
0
0
0
0
0
0
0
0
0
0
0
0
0
0
0
0
0
0
0
0
0
0
0
0
0
0
0
0
0
0
0
0
0
0
0
0
0
0
0
0
0
0
0
0
0
0
0
0
0
0
0
0
0
0
0
0
0
0
0
0
0
0
0
0
0
0
0
0
0
0
0
0
0
0
0
0
0
0
0
0
0
0
0
0
0
0
0
0
0
0
0
0
0
0
0
0
0
0
0
0
0
0
0
0
0
0
0
0
0
0
0
0
0
0
0
0
0
0
0
0
0
0
0
0
0
0
0
0
0
0
0
0
0
0
0
0
0
0
0
0
0
0
0
0
0
0
0
0
0
0
0
0
0
0
0
0
0
0
0
0
0
0
0
0
0
0
0
0
0
0
0
0
0
0
0
0
0
0
0
0
0
0
0
0
0
0
0
0
0
0
0
0
0
0
0
0
0
0
0
0
0
0
0
0
0
0
0
0
0
0
0
0
0
0
0
0
0
0
0
0
0
0
0
0
0
0
0
0
0
0
0
0
0
0
0
0
0
0
0
0
0
0
0
0
0
0
0
0
0
0
0
0
0
0
0
0
0
0
0
0
0
0
0
0
0
0
0
0
0
0
0
0
0
0
0
0
0
0
0
0
0
0
0
0
0
0
0
0
0
0
0
0
0
0
0
0
0
0
0
0
0
0
0
0
0
0
0
0
0
0
0
0
0
