P2
# CREATOR: GIMP PNM Filter Version 1.1
128 32
255
255
255
255
255
255
255
255
255
255
255
255
255
255
255
255
255
255
255
255
255
255
255
255
255
255
255
255
255
255
255
255
255
255
255
255
255
255
255
255
255
255
255
255
255
255
255
255
255
255
255
255
245
194
139
84
29
40
255
255
255
255
255
255
255
255
255
255
255
255
255
255
255
255
255
255
255
255
255
255
255
255
255
255
255
255
255
255
255
255
255
255
255
255
255
255
255
255
255
255
255
255
255
255
255
255
255
255
255
255
255
255
255
255
255
255
255
255
255
255
255
255
255
255
255
255
255
255
255
255
255
255
255
255
255
255
255
255
255
255
255
255
255
255
255
255
255
255
255
255
255
255
255
255
255
255
255
255
255
255
255
255
255
255
255
255
255
255
255
255
255
255
255
255
255
255
255
249
103
48
3
0
0
7
51
123
255
255
255
245
255
255
255
255
255
255
255
255
255
255
255
255
255
255
255
255
255
255
255
255
255
255
255
255
255
255
255
255
255
255
255
255
255
255
255
255
255
255
255
255
255
255
255
255
255
255
255
255
255
255
255
255
255
255
255
255
255
255
255
255
255
255
255
255
255
255
255
255
255
255
255
255
255
255
255
255
255
255
255
255
255
255
255
255
255
255
255
255
255
255
255
255
255
255
255
255
255
255
255
255
255
255
255
255
255
255
255
255
255
255
255
255
255
255
255
255
44
56
106
7
144
250
255
255
255
255
75
66
255
255
195
83
255
255
255
255
236
170
101
52
255
255
255
255
255
255
255
255
255
255
255
255
255
255
255
255
255
255
255
255
255
255
255
255
255
255
255
255
255
255
255
255
255
255
255
255
255
255
255
255
255
255
255
255
255
255
255
255
255
255
255
255
255
255
255
255
255
255
255
255
255
255
255
255
255
255
255
255
255
255
255
255
255
255
255
255
255
255
255
255
255
255
255
255
255
255
255
255
255
255
255
255
255
255
255
255
255
255
255
255
255
255
255
255
255
255
255
13
166
255
255
255
255
255
57
42
255
255
130
20
255
255
255
123
2
0
27
97
253
255
255
255
255
255
255
255
255
255
255
255
255
255
255
255
255
255
255
255
255
255
255
255
255
255
255
255
255
255
255
255
255
255
255
255
255
255
255
255
255
255
255
255
255
255
255
255
255
255
255
255
255
255
255
255
255
255
255
255
255
255
255
255
255
255
255
255
255
255
255
255
255
255
255
255
255
255
255
255
255
255
255
255
255
255
255
255
255
255
255
255
255
255
255
255
255
255
255
255
255
255
255
255
255
255
255
11
161
255
255
255
255
255
82
20
255
255
134
14
255
255
255
112
27
211
255
255
255
255
255
255
255
255
255
255
255
255
255
255
255
255
255
255
255
255
255
255
255
255
255
255
255
255
255
255
255
255
255
255
255
255
255
255
255
255
255
255
255
255
255
255
255
255
255
255
255
255
255
255
255
255
255
255
255
255
255
255
255
255
255
255
255
255
255
255
255
255
255
255
255
255
255
255
255
255
255
255
255
255
255
255
255
255
255
255
255
255
255
255
255
255
255
255
255
255
255
255
255
255
255
255
255
255
255
9
156
255
255
255
255
255
107
1
251
255
137
9
255
255
255
125
19
164
94
185
255
255
255
255
255
255
255
255
255
255
255
255
255
255
255
255
255
255
255
255
255
255
255
255
255
255
255
255
255
255
255
255
255
255
255
255
255
255
255
255
255
255
255
255
255
255
255
255
255
255
255
255
255
255
255
255
255
255
255
255
255
255
255
255
255
255
255
255
255
255
255
255
255
255
255
255
255
255
255
255
255
255
255
255
255
255
255
255
255
255
255
255
255
255
255
255
255
255
255
255
255
255
255
255
255
255
255
7
151
255
255
255
255
255
132
0
230
255
141
3
255
255
255
138
0
0
17
186
255
255
255
255
255
255
255
255
255
255
255
255
255
255
255
255
255
255
255
255
255
255
255
255
255
255
255
255
255
255
255
255
255
255
255
255
255
255
255
255
255
255
255
255
255
255
255
255
255
255
255
255
255
255
255
255
255
255
255
255
255
255
255
255
255
255
255
255
255
255
255
255
255
255
255
255
255
255
255
255
255
255
255
255
255
255
255
255
255
255
255
255
255
255
255
255
255
255
255
255
255
255
255
255
255
255
255
5
146
255
255
255
255
255
157
0
197
133
15
0
253
255
255
151
0
190
251
255
255
255
255
255
255
255
255
255
255
255
255
255
255
255
255
255
255
255
255
255
255
255
255
255
255
255
255
255
255
255
255
255
255
255
255
255
255
255
255
255
255
255
255
255
255
255
255
255
255
255
255
255
255
255
255
255
255
255
255
255
255
255
255
255
255
255
255
255
255
255
255
255
255
255
255
255
255
255
255
255
255
255
255
255
255
255
255
255
255
255
255
255
255
255
255
255
255
255
255
255
255
255
255
255
255
255
255
3
142
255
255
255
255
255
183
0
8
8
51
0
248
255
255
164
0
243
255
255
255
255
255
255
255
255
255
255
255
255
255
255
255
255
255
255
255
255
255
255
255
255
255
255
255
255
255
255
255
255
255
255
255
255
255
255
255
255
255
255
255
255
255
255
255
255
255
255
255
255
255
255
255
255
255
255
255
255
255
255
255
255
255
255
255
255
255
255
255
255
255
255
255
255
255
255
255
255
255
255
255
255
255
255
255
255
255
255
255
255
255
255
255
255
255
255
255
255
255
255
255
255
255
255
255
255
255
1
137
255
255
255
255
255
208
0
75
227
150
0
242
255
255
177
0
227
241
149
55
248
255
255
255
255
255
255
255
255
255
255
255
255
255
255
255
255
255
255
255
255
255
255
255
255
255
255
255
255
255
255
255
255
255
255
255
255
255
255
255
255
255
255
255
255
255
255
255
255
255
255
255
255
255
255
255
255
255
255
255
255
255
255
255
255
255
255
255
255
255
255
255
255
255
255
255
255
255
255
255
255
255
255
255
255
255
255
255
255
255
255
255
255
255
255
255
255
255
255
255
255
255
255
255
255
255
63
188
255
255
255
255
255
233
0
137
255
154
0
236
255
255
190
0
76
10
0
61
232
255
255
255
255
255
255
255
255
255
255
255
255
255
255
255
255
255
255
255
255
255
255
255
255
255
255
255
255
255
255
255
255
255
255
255
255
255
255
255
255
255
255
255
255
255
255
255
255
255
255
255
255
255
255
255
255
255
255
255
255
255
255
255
255
255
255
255
255
255
255
255
255
255
245
208
255
255
255
255
255
255
255
255
255
255
255
255
255
255
255
255
255
255
255
255
255
255
255
255
255
255
255
255
255
255
255
255
255
255
255
255
255
253
4
113
255
158
0
231
255
255
204
0
13
106
212
255
255
255
255
255
255
255
255
255
255
255
255
255
255
255
255
255
255
255
255
255
255
255
255
255
255
255
255
255
255
255
255
255
255
255
255
255
255
255
255
255
255
255
255
255
255
255
255
255
255
255
255
255
255
255
255
255
255
255
255
255
255
255
255
255
255
255
255
255
255
252
210
156
101
47
3
43
255
255
255
255
255
255
255
252
241
255
255
255
255
255
255
255
255
255
255
255
255
255
255
255
255
255
255
255
255
255
255
255
255
255
255
255
255
255
255
255
255
255
255
255
255
255
255
255
255
255
255
255
255
255
255
255
255
255
255
255
255
255
255
255
255
255
255
255
255
255
255
255
255
255
255
255
255
255
255
255
255
255
255
255
255
255
255
255
255
255
255
255
255
255
255
255
255
255
255
255
255
255
255
255
255
255
255
255
255
255
255
255
255
255
255
255
255
255
247
118
63
12
0
0
0
1
36
112
246
255
255
255
240
255
255
207
18
172
255
255
226
245
251
179
253
255
255
255
255
255
255
255
226
245
255
255
255
255
255
255
255
255
255
255
255
254
255
255
255
255
255
255
255
255
255
255
255
255
255
246
255
255
255
255
255
255
255
255
255
255
255
255
255
255
255
255
255
255
255
255
255
255
255
255
255
255
255
255
255
255
255
255
255
248
123
135
255
255
255
255
255
255
255
255
255
255
255
255
255
255
255
255
255
255
255
255
255
255
255
255
255
255
255
255
255
255
255
26
2
40
34
19
191
240
255
122
49
255
255
231
125
255
255
154
0
59
88
29
0
176
84
0
234
255
255
255
255
153
88
29
0
176
255
255
255
255
255
255
255
255
255
255
112
32
255
255
255
171
149
255
255
255
252
208
152
97
41
45
255
255
255
255
255
255
255
255
255
255
255
255
255
255
222
159
96
59
246
255
255
255
255
255
255
255
255
255
255
255
239
255
255
245
0
64
255
255
241
176
107
151
255
255
255
255
255
255
255
255
255
255
255
255
255
255
255
255
255
255
255
255
255
255
255
255
255
217
244
255
113
27
255
255
255
60
6
251
255
136
53
255
255
101
0
22
0
0
104
216
99
0
211
255
255
255
255
55
0
0
104
216
255
255
255
216
100
33
14
44
134
249
57
0
245
255
255
17
83
173
118
62
11
0
0
0
0
66
255
255
255
255
255
255
255
255
255
255
218
155
92
29
0
0
0
150
255
255
255
255
255
221
190
212
255
255
235
72
154
255
255
254
1
61
174
58
4
0
0
115
255
255
255
255
255
255
255
255
255
255
255
255
255
255
255
255
255
255
255
255
255
255
255
255
255
255
255
255
111
22
255
255
255
104
0
218
255
38
3
239
255
48
27
230
107
0
203
255
122
0
189
255
255
255
255
230
107
0
203
255
255
255
155
7
10
80
108
60
0
96
82
0
223
255
255
21
80
15
0
1
11
13
138
187
237
255
255
255
255
255
255
255
255
255
255
41
0
0
0
18
27
0
33
250
255
255
255
199
52
0
0
0
46
215
187
0
150
255
255
255
11
58
120
0
84
157
228
255
255
255
255
255
255
255
255
255
255
255
255
255
255
255
255
255
255
255
255
255
255
255
255
255
255
255
255
255
109
17
255
255
255
148
0
179
195
0
0
175
246
4
88
255
111
0
203
255
146
0
167
255
255
255
255
255
111
0
203
255
255
166
0
69
231
255
255
255
185
242
107
0
200
255
255
26
77
173
192
241
113
28
255
255
255
255
255
255
255
255
255
255
255
255
255
67
71
137
204
250
34
0
160
255
255
255
177
5
27
142
191
151
23
30
175
0
35
239
255
255
22
55
133
0
228
250
205
255
255
255
255
255
255
255
255
255
255
255
255
255
255
255
255
255
255
255
255
255
255
255
255
255
255
255
255
255
106
12
255
255
255
192
0
139
96
0
0
107
198
0
148
255
111
0
203
255
170
0
145
255
255
255
255
255
111
0
203
255
242
17
53
247
255
255
255
255
255
247
123
0
178
255
255
30
71
255
255
255
111
23
255
255
255
255
255
255
255
255
255
255
255
255
255
255
255
255
255
164
0
41
252
255
255
230
14
48
237
255
255
255
193
0
88
0
0
73
253
255
32
52
146
0
60
13
26
255
255
255
255
255
255
255
255
255
255
255
255
255
255
255
255
255
255
255
255
255
255
255
255
255
255
255
255
255
104
8
255
255
255
236
0
87
11
18
15
40
145
0
209
255
111
0
203
255
194
0
122
255
255
255
255
255
111
0
203
255
159
0
196
255
255
246
189
126
62
7
101
0
155
255
243
25
66
255
255
255
109
18
255
255
255
255
255
255
255
255
255
255
255
255
255
255
255
255
254
44
0
171
255
255
255
129
1
213
255
255
255
255
255
7
51
0
10
0
122
255
43
49
159
0
0
45
131
255
255
255
255
255
255
255
255
255
255
255
255
255
255
255
255
255
255
255
255
255
255
255
255
255
255
255
255
255
102
3
255
255
255
255
23
3
0
120
80
0
65
16
253
255
111
0
203
255
218
0
100
255
255
255
255
255
111
0
203
255
111
16
255
255
163
6
0
0
0
20
152
0
126
145
22
0
60
255
255
255
107
13
255
255
255
255
255
255
255
255
255
255
255
255
255
255
255
255
176
0
49
254
255
255
255
51
28
255
255
255
255
255
230
0
75
0
130
35
1
174
54
46
173
0
174
255
255
255
255
255
255
255
255
255
255
255
255
255
255
255
255
255
255
255
255
255
255
255
255
255
255
255
255
255
255
255
100
0
254
255
255
255
67
0
4
228
149
0
0
75
255
255
111
0
203
255
242
0
78
255
255
255
255
255
111
0
203
255
110
10
252
255
149
68
131
170
0
76
207
0
1
0
55
21
55
255
255
255
105
9
255
255
255
255
255
255
255
255
255
255
255
255
255
255
255
255
55
0
181
255
249
173
76
0
0
255
255
255
255
255
104
2
151
0
144
209
10
13
32
43
186
0
177
255
255
255
255
255
255
255
255
255
255
255
255
255
255
255
255
255
255
255
255
255
255
255
255
255
255
255
255
255
255
255
98
0
249
255
255
255
111
0
88
255
219
0
0
136
255
255
111
0
203
255
255
11
56
255
255
223
121
216
111
0
203
255
168
0
165
255
255
255
255
174
0
109
232
0
25
173
255
42
49
255
255
255
103
4
255
255
255
255
255
255
255
255
255
255
255
255
255
255
255
189
0
58
208
111
20
0
0
0
0
184
255
255
251
127
0
108
187
0
142
255
164
0
0
40
199
0
162
255
222
122
94
255
255
255
255
255
255
255
255
255
255
255
255
255
255
255
255
255
255
255
255
255
255
255
255
255
255
255
97
45
249
255
255
255
155
0
200
255
255
32
0
197
255
255
111
0
203
255
255
34
31
178
74
2
0
185
111
0
203
255
251
52
9
131
203
193
108
5
0
141
253
3
62
255
255
46
43
255
255
255
101
0
255
255
255
255
255
255
255
255
255
255
255
255
255
255
255
67
0
14
0
0
1
62
157
233
47
3
80
98
27
0
89
251
187
0
140
255
255
110
0
37
212
0
89
71
1
0
49
255
255
255
255
255
255
255
255
255
255
255
255
255
255
255
255
255
255
255
255
255
255
255
255
255
255
255
248
255
255
255
255
255
199
56
255
255
255
102
8
249
255
224
79
0
31
163
255
57
0
0
0
35
139
210
79
0
31
163
255
234
69
0
0
0
3
27
0
171
255
26
39
255
255
49
38
255
255
255
98
0
250
255
255
255
255
255
255
255
255
255
255
255
255
255
201
0
0
0
34
127
222
255
255
255
239
114
38
27
69
171
255
255
187
0
139
255
255
250
60
34
225
0
0
4
83
188
254
255
255
255
255
255
255
255
255
255
255
255
255
255
255
255
255
255
255
255
255
255
255
255
255
255
255
255
255
255
255
255
255
255
242
169
255
255
255
171
63
255
255
71
0
4
53
170
255
81
2
76
182
254
255
71
0
4
53
170
255
255
255
217
175
182
235
222
169
230
255
51
57
255
255
52
32
255
255
255
96
4
247
255
255
255
255
255
255
255
255
255
255
255
255
255
80
13
98
193
254
255
255
255
255
255
255
255
255
255
255
255
255
255
187
0
137
255
255
255
231
57
239
27
128
229
255
255
255
255
255
255
255
255
255
255
255
255
255
255
255
255
255
255
255
255
255
255
255
255
255
255
255
255
255
255
255
255
255
255
255
255
255
254
255
255
255
238
126
255
255
195
189
245
255
255
255
186
223
255
255
255
255
195
189
245
255
255
255
255
255
255
255
255
255
255
255
255
255
227
255
255
255
200
197
255
255
255
216
242
255
255
255
255
255
255
255
255
255
255
255
255
255
245
165
245
255
255
255
255
255
255
255
255
255
255
255
255
255
255
255
255
231
187
236
255
255
255
255
217
254
252
255
255
255
255
255
255
255
255
255
255
255
255
255
255
255
255
255
255
255
255
255
255
255
255
255
255
255
255
255
255
255
255
255
255
255
255
255
255
255
255
255
255
255
255
230
255
255
255
255
255
255
255
255
255
255
255
255
255
255
255
255
255
255
255
255
255
255
255
255
255
255
255
255
255
255
255
255
255
255
255
255
255
255
255
255
255
255
255
255
255
255
255
255
255
255
255
255
255
255
255
255
255
255
255
255
255
255
255
255
255
255
255
255
255
255
255
255
255
255
255
255
255
255
255
255
255
255
255
255
255
255
255
255
255
255
255
255
255
255
255
255
255
255
255
255
255
255
255
255
255
255
255
255
255
255
255
255
255
255
255
255
255
255
255
255
255
255
255
255
255
255
255
255
255
255
255
255
255
255
255
255
255
255
255
255
255
255
255
255
255
255
255
255
255
255
255
255
255
255
255
255
255
255
255
255
255
255
255
255
255
255
255
255
255
255
255
255
255
255
255
255
255
255
255
255
255
255
255
255
255
255
255
255
255
255
255
255
255
255
255
255
255
255
255
255
255
255
255
255
255
255
255
255
255
255
255
255
255
255
255
255
255
255
255
255
255
255
255
255
255
255
255
255
255
255
255
255
255
255
255
255
255
255
255
255
255
255
255
255
255
255
255
255
255
255
255
255
255
255
255
255
255
255
255
255
255
255
255
255
255
255
255
255
255
255
255
255
255
255
255
255
255
255
255
255
255
255
255
255
255
255
255
255
255
255
255
255
255
255
255
255
255
255
255
255
255
255
255
255
255
255
255
255
255
255
255
255
255
255
255
255
255
255
255
255
255
255
255
255
255
255
255
255
255
255
255
255
255
255
255
255
255
255
255
255
255
255
255
255
255
255
255
255
255
255
255
255
255
255
255
255
255
255
255
255
255
255
255
255
255
255
255
255
255
255
255
255
255
255
255
255
255
255
255
255
255
255
255
255
255
255
255
255
255
255
255
255
255
255
255
255
255
255
255
255
255
255
255
255
255
255
255
255
255
255
255
255
255
255
255
255
255
255
255
255
255
255
255
255
255
255
255
255
255
255
255
255
255
255
255
255
255
255
255
255
255
255
255
255
255
255
255
255
255
255
255
255
255
255
255
255
255
255
255
255
255
255
255
255
255
255
255
255
255
255
255
255
255
255
255
255
255
255
255
255
255
255
255
255
255
255
255
255
255
255
255
255
255
255
255
255
255
255
255
255
255
255
255
255
255
255
255
255
255
255
255
255
255
255
255
255
255
255
255
255
255
255
255
255
255
255
255
255
255
255
255
255
255
255
255
255
255
255
255
255
255
255
255
255
255
255
255
255
255
255
255
255
255
255
255
255
255
255
255
255
255
255
255
255
255
255
255
255
255
255
255
255
255
255
255
255
255
255
255
255
255
255
255
255
255
255
255
255
255
255
255
255
255
255
255
255
255
255
255
255
255
255
255
255
255
255
255
255
255
255
255
