P2
# CREATOR: GIMP PNM Filter Version 1.1
128 32
255
0
0
0
0
0
0
0
0
0
0
0
0
0
0
0
0
0
0
0
0
0
0
0
0
0
0
0
0
0
0
0
0
0
0
0
0
0
0
0
0
0
0
0
0
0
0
0
0
0
0
0
0
0
0
0
0
0
0
0
0
0
0
0
0
0
0
0
0
0
0
0
0
0
0
0
0
0
0
0
0
0
0
0
0
0
0
0
0
0
0
0
0
0
0
0
0
0
0
0
0
0
0
0
0
0
0
0
0
0
0
0
0
0
0
0
0
0
0
0
0
0
0
0
0
0
0
0
0
0
0
0
0
0
0
0
0
0
0
0
0
0
0
0
0
0
0
0
0
0
0
0
0
0
0
0
0
0
0
0
0
0
0
0
0
0
0
0
0
0
0
0
0
0
0
0
0
0
0
0
0
0
0
0
0
0
0
0
0
0
0
0
0
0
0
0
0
0
0
0
0
0
0
0
0
0
0
0
0
0
0
0
0
0
0
0
0
0
0
0
0
0
0
0
0
0
0
0
0
0
0
0
0
0
0
0
0
0
0
0
0
0
0
0
0
0
0
0
0
0
0
0
0
0
0
0
0
0
0
0
0
0
0
0
0
0
0
0
0
0
0
0
0
0
0
0
0
0
0
0
0
0
0
0
0
0
0
0
0
0
0
0
0
0
0
0
0
0
0
0
0
0
0
0
0
0
0
0
0
0
0
0
0
0
0
0
0
0
0
0
0
0
0
0
0
0
0
0
0
0
0
0
0
0
0
0
0
0
0
0
0
0
0
0
0
0
0
0
0
0
0
0
0
0
0
0
0
0
0
0
0
0
0
0
0
0
0
0
0
0
0
0
0
0
0
0
0
0
0
0
0
0
0
0
0
0
0
0
0
0
0
0
0
0
0
0
0
0
0
0
0
0
0
0
0
0
0
0
0
0
0
0
0
0
0
0
0
0
0
0
0
0
0
0
0
0
0
0
0
0
0
0
0
0
0
0
251
252
0
0
0
0
0
0
0
0
0
0
0
0
0
0
0
0
0
0
0
0
0
0
0
0
0
0
0
0
0
0
0
0
0
0
0
0
0
0
0
0
0
0
0
0
0
0
0
0
0
0
0
0
0
0
0
0
0
0
0
0
0
0
0
0
0
0
0
0
0
0
0
0
0
0
0
0
0
0
0
0
0
0
0
0
0
0
0
0
0
0
0
0
0
0
0
0
0
0
0
0
0
0
0
0
0
0
0
0
0
0
0
0
0
0
0
0
0
0
0
0
0
0
248
240
241
247
251
247
239
0
0
0
0
0
0
0
0
0
0
0
0
0
0
0
0
0
0
0
0
0
0
0
0
0
0
0
0
0
0
0
0
0
0
0
0
0
0
0
0
0
0
0
0
0
0
0
0
0
0
0
0
0
0
0
0
0
0
0
0
0
0
0
0
0
0
0
0
0
0
0
0
0
0
0
0
0
0
0
0
0
0
0
0
0
0
0
0
0
0
0
0
0
0
0
0
0
0
0
0
0
0
0
0
0
0
0
0
0
0
0
0
0
0
0
0
0
252
246
238
235
242
253
0
0
0
0
251
246
0
0
0
0
0
0
0
0
0
0
0
0
0
0
0
0
0
0
0
0
0
0
0
0
0
0
0
0
0
0
0
0
0
0
0
0
0
0
0
0
0
0
0
0
0
0
0
0
0
0
0
0
0
0
0
0
0
0
0
0
0
0
0
0
0
0
0
0
0
0
0
0
0
0
0
0
0
0
0
0
0
0
0
0
0
0
0
0
0
0
0
0
0
0
0
0
0
0
0
0
0
0
0
0
0
0
0
0
0
0
0
0
0
34
240
235
234
246
135
0
0
0
0
0
0
0
0
0
243
0
0
0
0
0
0
0
0
0
0
0
0
0
0
0
0
0
0
0
0
0
0
0
0
0
0
0
0
0
0
0
0
0
246
244
247
0
0
0
0
0
0
0
0
0
0
0
0
0
0
0
0
0
0
0
0
0
0
0
0
0
0
0
0
0
0
0
0
0
0
0
0
0
0
0
0
0
0
0
0
0
0
0
0
0
0
0
0
0
0
0
0
0
0
0
0
0
0
0
0
0
0
0
0
0
0
0
0
0
0
0
0
234
240
248
0
0
0
0
0
0
0
0
0
0
0
0
0
243
252
0
0
0
0
0
0
0
0
0
0
0
0
0
0
0
0
0
0
0
0
0
0
0
0
0
0
0
0
0
0
243
246
203
248
245
252
0
0
0
0
0
0
0
0
0
0
0
0
0
0
0
0
0
0
0
0
0
0
0
0
0
0
0
0
0
0
0
0
0
0
0
0
0
0
0
0
0
0
0
0
0
0
0
0
0
0
0
0
0
0
0
0
0
0
0
0
0
253
251
249
247
244
242
241
244
0
0
0
0
253
241
0
0
0
0
0
0
0
0
0
0
0
0
0
0
0
0
237
253
0
0
0
0
0
0
0
0
0
0
0
0
0
0
0
0
0
0
0
0
0
0
0
0
0
0
0
0
0
0
0
0
0
0
0
0
0
0
0
0
0
0
0
0
0
0
0
0
0
0
0
0
0
0
0
0
0
0
0
0
0
0
0
0
0
0
0
0
0
0
0
0
0
0
0
0
0
0
169
248
246
244
244
246
0
0
0
0
0
0
0
0
0
0
0
243
251
251
253
248
249
251
253
252
247
0
0
0
0
236
0
0
0
0
0
0
0
0
0
0
0
0
0
0
0
243
240
0
0
0
0
0
0
0
0
0
0
0
0
0
0
0
253
0
0
0
0
0
0
0
0
0
0
0
0
0
0
0
0
0
0
0
0
0
0
0
0
0
0
0
0
0
0
0
0
0
0
0
0
0
0
0
0
0
0
0
0
0
0
0
0
0
0
0
0
0
0
0
0
0
0
0
0
252
244
237
237
240
245
250
253
0
240
0
0
0
0
0
0
0
0
0
0
0
0
203
238
233
237
236
235
236
236
240
242
244
242
233
248
248
250
251
252
253
0
0
0
0
0
0
0
253
241
248
0
0
0
0
0
0
0
0
0
0
0
0
0
0
0
0
0
238
0
0
0
0
0
0
0
0
0
0
0
0
0
0
0
0
0
0
0
0
0
0
0
0
0
0
0
0
0
0
0
0
0
0
0
0
0
0
0
0
0
0
0
0
0
0
0
0
0
0
0
0
0
0
0
0
0
0
240
247
253
0
0
0
0
0
0
0
0
0
0
0
0
0
0
0
0
0
0
0
253
235
233
249
238
235
235
236
236
238
241
243
245
247
247
246
244
242
241
237
234
237
247
244
244
248
236
0
0
0
0
0
0
0
0
0
0
0
0
0
0
0
0
0
0
0
0
252
237
0
0
0
0
0
0
0
0
0
0
0
0
0
0
0
0
0
0
0
0
0
0
0
0
0
0
0
0
0
0
0
0
0
0
0
0
0
0
0
0
0
0
0
0
0
0
0
0
0
0
0
0
0
0
0
0
0
246
0
0
0
0
0
0
0
0
0
0
0
0
0
0
0
0
0
0
0
0
253
235
240
248
234
245
0
0
0
0
0
0
0
34
251
249
246
245
245
244
244
245
243
234
251
0
0
0
0
0
0
0
0
0
0
0
0
0
0
0
0
0
0
0
0
0
0
0
0
238
0
0
0
0
0
0
0
0
0
0
0
0
0
0
0
0
0
0
0
0
0
0
0
249
236
235
235
239
242
243
244
245
246
248
250
251
252
135
0
0
0
0
0
0
34
34
0
0
0
0
0
0
0
0
0
0
0
242
0
0
0
0
0
0
0
0
102
0
0
0
0
0
0
0
0
0
0
0
240
242
252
237
253
102
0
0
0
0
0
0
0
0
0
0
0
0
0
0
243
234
251
234
0
0
0
0
0
0
0
0
0
0
0
0
0
0
0
0
0
0
0
0
0
0
0
0
0
235
241
234
234
234
239
252
0
0
0
0
0
0
0
0
0
0
0
0
0
0
0
0
237
234
234
235
249
250
244
248
253
254
253
250
247
242
235
235
235
246
251
244
236
234
234
234
253
0
0
0
0
0
0
0
0
0
0
246
245
0
0
0
0
0
0
0
0
0
0
0
0
0
0
0
0
0
0
246
240
254
240
245
0
0
0
0
0
0
0
0
0
0
0
0
0
0
0
203
235
238
251
236
0
0
0
0
0
0
0
0
0
0
0
0
0
0
0
0
0
0
0
0
0
249
242
238
234
233
234
240
245
244
244
236
239
251
0
0
0
0
0
0
0
0
0
0
0
0
243
234
234
234
247
243
243
250
248
246
242
240
238
238
239
241
241
240
241
240
242
243
248
235
235
235
243
0
0
0
0
0
0
0
0
0
0
253
251
242
243
248
169
135
250
247
245
244
244
246
248
251
0
0
0
0
0
245
247
249
243
0
0
0
0
0
0
0
0
0
0
0
0
0
0
0
252
234
238
254
243
236
0
0
0
0
0
0
0
0
0
0
0
0
0
0
0
0
0
253
247
239
234
234
236
237
241
247
247
241
235
233
233
236
238
236
245
0
0
0
0
0
0
0
0
0
251
236
235
234
238
251
235
246
0
0
0
0
0
0
0
0
251
248
244
241
241
241
242
234
237
244
233
235
236
0
0
0
0
0
0
0
0
0
240
234
236
243
248
238
133
200
244
243
244
244
246
247
200
0
233
249
0
0
134
247
247
254
247
0
0
0
0
0
0
0
0
0
102
0
0
252
238
236
236
251
248
237
233
250
0
0
0
0
0
0
0
0
0
0
0
0
0
252
246
238
235
235
233
234
242
246
241
237
236
237
244
251
252
239
251
239
234
236
247
244
0
0
0
0
0
0
0
251
234
235
234
245
239
236
252
0
0
0
0
0
0
0
0
0
0
0
0
0
0
0
0
251
234
251
236
235
234
249
0
0
0
0
0
0
0
0
247
240
235
245
245
249
242
242
247
250
250
251
201
250
249
250
0
0
67
0
0
0
250
249
0
0
0
0
0
0
0
0
0
0
0
0
0
0
237
234
250
235
235
241
245
244
247
0
0
0
0
0
0
0
0
250
247
241
234
233
233
236
240
241
244
243
237
237
242
249
0
0
0
0
0
242
249
255
248
235
233
251
241
251
0
0
0
0
0
0
242
235
234
252
236
0
0
0
0
0
0
0
0
0
0
0
0
0
0
0
0
0
0
0
243
238
246
233
235
237
0
0
0
0
0
0
0
0
0
0
247
239
241
248
0
0
0
0
0
0
0
0
0
0
0
0
0
0
0
0
67
167
0
0
247
247
0
0
0
0
0
0
0
136
0
0
0
234
234
243
250
245
242
234
234
234
203
0
0
0
247
237
235
234
233
236
243
247
250
245
235
235
242
251
0
0
0
0
0
0
0
0
0
0
238
255
255
248
234
250
235
234
251
0
0
0
0
0
244
235
234
237
239
203
0
0
0
0
0
0
0
0
0
0
0
0
0
0
0
0
0
249
237
233
253
233
235
235
0
0
0
0
0
0
0
0
0
0
0
204
0
0
0
0
0
0
0
0
0
0
0
0
0
0
0
0
0
0
0
0
249
248
167
0
0
0
0
0
0
0
0
102
0
0
0
252
247
247
246
240
237
248
239
235
0
251
239
234
233
236
245
243
241
239
236
236
241
247
252
0
0
0
0
0
0
0
0
0
0
0
0
0
253
248
245
234
234
247
240
239
245
246
245
244
242
239
240
243
245
245
238
246
0
0
0
0
0
0
0
0
0
0
0
0
0
0
0
0
243
234
237
241
238
240
251
253
243
243
243
249
0
0
0
0
0
0
0
238
0
0
0
0
0
0
0
0
0
0
0
0
234
250
250
167
166
249
249
250
0
0
0
0
0
0
0
0
0
0
253
253
135
0
0
0
0
0
0
0
252
235
252
248
249
254
237
234
241
248
233
235
237
245
253
0
0
0
0
0
0
0
0
0
0
0
0
0
0
0
0
0
101
253
253
244
236
233
241
245
244
244
244
244
243
241
239
236
233
234
236
247
0
0
0
0
0
0
0
0
0
0
0
0
0
0
0
0
249
235
237
248
247
245
244
242
237
234
235
241
0
0
0
0
0
0
0
0
170
0
0
0
0
0
0
0
0
0
0
0
0
0
0
0
0
0
0
0
0
0
0
0
0
0
0
0
251
243
252
250
242
236
249
0
0
0
0
0
0
0
241
243
254
246
233
236
252
245
252
101
0
0
0
0
0
0
0
0
0
0
0
0
0
0
0
0
0
0
0
241
250
252
252
253
0
252
245
245
245
245
245
245
246
247
249
251
252
253
0
0
0
0
0
0
0
250
0
0
0
0
0
0
0
0
0
0
0
0
68
252
253
251
247
244
241
237
243
0
0
0
0
0
0
0
0
0
0
0
204
0
0
0
0
0
0
0
0
0
0
0
0
0
0
0
0
0
0
0
236
253
0
0
250
245
248
0
0
0
0
0
236
0
0
0
0
0
0
0
0
242
236
248
253
246
243
251
0
0
0
0
0
0
0
0
0
0
0
0
0
0
0
0
0
0
0
0
0
243
0
0
0
0
0
0
0
0
0
0
0
0
0
0
0
0
0
0
0
0
0
0
0
251
246
244
0
0
0
0
0
0
0
0
0
0
0
0
0
0
0
0
0
0
0
0
0
0
0
0
0
0
0
0
0
0
0
0
0
0
0
204
0
0
0
0
0
0
0
0
0
0
0
0
0
0
0
0
0
245
241
239
249
0
0
0
0
0
0
236
252
0
0
0
0
0
0
0
0
0
250
234
235
235
235
236
249
0
0
0
0
0
0
0
0
0
0
0
0
0
0
0
0
0
0
0
0
236
248
0
0
0
0
0
0
0
0
0
0
0
0
0
0
0
0
0
0
0
0
248
246
0
0
0
0
0
0
0
0
0
0
0
0
0
0
0
0
0
0
0
0
0
0
0
0
0
0
0
0
0
0
0
0
0
0
0
0
0
0
0
0
0
0
0
34
170
0
0
0
0
0
0
170
68
0
0
0
0
0
0
0
0
0
0
0
0
241
248
0
0
0
0
0
0
0
0
0
0
0
0
247
242
242
252
238
0
0
0
0
0
0
0
0
0
0
0
0
0
0
0
0
0
0
246
246
249
0
0
0
0
0
0
0
0
0
0
0
0
0
0
0
0
0
252
247
248
250
0
0
0
0
0
0
0
0
0
0
0
0
0
0
0
0
0
0
0
0
0
0
0
0
0
0
0
0
0
0
0
0
0
0
0
0
0
0
0
0
0
0
0
0
0
0
0
0
0
0
0
0
0
0
0
0
0
0
0
0
0
0
0
0
0
0
0
0
240
244
0
0
0
0
0
0
0
0
0
0
0
0
0
0
0
246
240
241
243
244
250
68
0
0
0
0
0
0
0
0
0
252
243
244
250
243
68
0
0
0
0
0
0
0
0
0
0
236
169
0
0
135
247
240
248
0
0
0
0
0
0
0
0
0
0
0
0
0
0
0
0
0
0
0
0
0
0
0
0
0
0
0
0
0
0
0
0
0
0
0
0
0
0
0
0
0
0
0
0
0
0
0
0
0
0
0
0
0
0
0
0
0
0
0
0
0
0
0
0
0
0
0
0
0
0
0
0
249
237
0
0
0
0
0
0
0
0
0
0
0
0
0
0
0
0
0
0
0
252
247
239
245
0
0
0
253
243
244
251
252
0
0
0
0
247
243
0
0
0
0
0
0
0
244
244
251
244
241
242
249
253
0
0
0
0
0
0
0
0
0
0
0
0
0
0
0
0
0
0
0
0
0
0
0
0
0
0
0
0
0
0
0
0
0
0
0
0
0
0
0
0
0
0
0
0
0
0
0
0
0
0
0
0
0
0
0
0
0
0
0
0
0
0
0
0
0
0
0
0
0
0
0
0
0
0
0
253
239
250
0
0
0
0
0
0
0
0
0
0
0
0
0
0
0
0
0
0
0
0
250
241
244
242
245
0
0
0
0
0
0
0
0
0
253
243
251
169
252
251
247
245
0
0
0
0
203
0
0
0
0
0
0
0
0
0
0
0
0
0
0
0
0
0
0
0
0
0
0
0
0
0
0
0
0
0
0
0
0
0
0
0
0
0
0
0
0
0
0
0
0
0
0
0
0
0
0
0
0
0
0
0
0
0
0
0
0
0
0
0
0
0
0
0
0
0
0
0
0
0
0
0
0
0
0
0
0
244
237
247
0
0
0
0
0
0
0
0
0
0
0
0
0
0
0
0
0
0
0
0
0
0
0
0
0
0
0
0
0
0
0
0
0
0
253
243
251
0
0
0
0
0
0
0
0
0
0
0
0
0
0
0
0
0
0
0
0
0
0
0
0
0
0
0
0
0
0
0
0
0
0
0
0
0
0
0
0
0
0
0
0
0
0
0
0
0
0
0
0
0
0
0
0
0
0
0
0
0
0
0
0
0
0
0
0
0
0
0
0
0
0
0
0
0
0
0
0
0
0
0
0
0
0
0
0
0
251
247
246
246
247
248
248
250
250
250
0
0
0
0
0
0
0
0
0
0
0
0
0
0
0
0
0
0
0
0
0
0
0
0
0
0
0
0
0
0
0
0
0
0
0
0
0
0
0
0
0
0
0
0
0
0
0
0
0
0
0
0
0
0
0
0
0
0
0
0
0
0
0
0
0
0
0
0
0
0
0
0
0
0
0
0
0
0
0
0
0
0
0
0
0
0
0
0
0
0
0
0
0
0
0
0
0
0
0
0
0
0
0
0
0
0
0
0
0
0
0
0
0
0
0
0
0
0
0
0
0
0
0
0
0
0
0
0
0
0
0
0
0
0
0
0
0
0
0
0
0
0
0
0
0
0
0
0
0
0
0
0
0
0
0
0
0
0
0
0
0
0
0
0
0
0
0
0
0
0
0
0
0
0
0
0
0
0
0
0
0
0
0
0
0
0
0
0
0
0
0
0
0
0
0
0
0
0
0
0
0
0
0
0
0
0
0
0
0
0
0
0
0
0
0
0
0
0
0
0
0
0
0
0
0
0
0
0
0
0
0
0
0
0
0
0
0
0
0
0
0
0
0
0
0
0
0
0
0
0
0
0
0
0
0
0
0
0
0
0
0
0
0
0
0
0
0
0
0
0
0
0
0
0
0
0
0
0
0
0
0
0
0
0
0
0
0
0
0
0
0
0
0
0
0
0
0
0
0
0
0
0
0
0
0
0
0
0
0
0
0
0
0
0
0
0
0
0
0
0
0
0
0
0
0
0
0
0
