P2
# CREATOR: GIMP PNM Filter Version 1.1
128 32
255
0
0
0
0
0
0
0
0
0
0
0
0
0
0
0
0
0
0
0
0
0
0
0
0
0
0
0
0
0
0
0
0
0
0
0
0
0
0
0
0
0
0
0
0
0
0
0
0
0
0
0
0
0
0
0
0
0
0
0
0
0
0
0
0
0
0
0
0
0
0
0
0
0
0
0
0
0
0
0
0
0
0
0
0
0
0
0
0
0
0
0
0
0
0
0
0
0
0
0
0
0
0
0
0
0
0
0
0
0
0
0
0
0
0
0
0
0
0
0
0
0
0
0
0
0
0
0
0
0
0
0
0
0
0
0
0
0
0
0
0
0
0
0
0
0
0
0
0
0
0
0
0
0
0
0
0
0
0
0
0
0
0
0
0
0
0
0
0
0
0
0
0
0
0
0
0
0
0
0
0
248
242
246
0
0
0
0
0
0
0
0
0
0
0
0
0
0
0
0
0
0
0
0
0
0
0
0
0
0
0
0
0
0
0
0
0
0
0
0
0
0
0
0
0
0
0
0
0
0
0
0
0
0
0
0
0
0
0
0
0
0
0
0
0
0
0
0
0
0
0
0
0
0
0
0
0
0
0
0
0
0
0
0
0
0
0
0
0
0
0
0
0
0
0
0
0
0
0
0
0
0
0
0
0
0
0
0
0
0
0
0
0
0
0
0
0
0
0
0
0
0
0
0
251
245
240
240
241
247
253
253
241
252
0
0
0
0
0
0
0
0
0
0
0
0
0
0
0
0
0
0
0
0
0
0
0
0
0
0
0
0
0
0
0
0
0
0
0
0
0
0
0
0
0
0
0
0
0
0
0
0
0
0
0
0
0
0
0
0
0
0
0
0
0
0
0
0
0
0
0
0
0
0
0
0
0
0
0
0
0
0
0
0
0
0
0
0
0
0
0
0
0
0
0
0
0
0
0
0
0
0
0
0
0
0
0
0
0
0
0
0
0
0
0
0
0
0
0
0
244
235
237
246
0
0
0
0
0
0
0
236
252
0
0
0
0
0
0
0
0
0
0
0
0
0
0
0
0
0
0
0
0
0
0
0
0
0
0
0
0
0
0
0
0
0
0
0
0
0
0
0
0
0
0
0
0
0
0
0
0
0
0
0
0
0
0
0
0
0
0
0
0
0
0
0
0
0
0
0
0
0
0
0
0
0
0
0
0
0
0
0
0
0
0
0
0
0
0
0
0
0
0
0
0
0
0
0
0
0
0
0
0
0
0
0
0
0
0
0
0
0
0
0
0
247
240
244
250
203
0
0
0
0
0
0
0
0
0
0
240
251
0
0
0
0
0
0
0
0
0
0
0
0
0
0
0
0
0
0
0
0
0
0
0
0
0
0
0
0
0
0
0
0
0
0
0
0
0
0
0
0
0
0
0
0
0
0
0
0
0
0
0
0
0
0
0
0
0
0
0
0
0
0
0
0
0
0
0
0
0
0
0
0
0
0
0
0
0
0
0
0
0
0
0
0
0
0
0
0
0
0
0
0
0
0
0
0
0
0
0
0
0
0
0
0
0
0
0
0
0
0
244
247
0
0
0
0
0
0
0
0
0
0
0
0
0
0
0
239
251
0
0
0
0
0
0
0
0
0
0
0
0
0
0
0
0
0
0
0
0
0
0
0
0
0
0
0
0
0
0
0
0
0
0
0
0
0
0
0
0
0
0
0
0
0
0
0
0
0
0
0
0
0
0
0
0
0
0
0
0
0
0
0
0
0
0
0
0
0
0
0
0
0
0
0
0
0
0
0
0
0
0
0
0
0
0
0
0
0
0
0
0
0
0
0
0
0
0
0
0
0
0
0
0
0
0
0
0
242
0
0
0
0
0
0
0
0
0
0
0
0
0
0
0
0
0
0
240
253
0
0
0
0
0
0
0
0
0
0
0
0
0
0
0
0
0
0
0
0
0
0
0
0
0
0
0
0
0
0
0
0
0
0
0
0
0
0
0
0
0
0
0
0
0
0
0
0
0
0
0
0
0
0
0
0
0
0
0
0
0
0
0
0
0
0
0
0
0
0
0
0
0
0
0
0
0
0
0
0
0
0
0
0
0
0
0
0
0
0
0
0
0
0
0
0
0
0
0
0
0
0
0
0
0
0
0
239
0
0
0
0
0
0
0
0
0
0
0
0
0
0
0
0
0
0
248
248
0
0
0
0
0
0
0
0
0
0
0
0
0
0
0
0
0
0
0
0
0
0
0
0
0
0
0
0
0
0
0
0
0
0
0
0
0
0
0
0
0
0
0
0
0
0
0
0
0
0
0
0
0
0
0
0
0
0
0
0
0
0
0
0
0
0
0
0
0
0
0
0
0
0
0
0
0
0
0
0
0
0
0
0
0
0
0
0
0
0
0
0
0
0
0
0
0
240
240
240
239
246
0
0
0
0
0
235
0
0
0
0
0
0
0
0
0
0
0
0
0
0
0
0
0
247
247
0
0
0
0
0
0
0
0
0
0
0
0
0
0
0
0
0
0
0
0
0
0
0
0
0
0
0
0
0
0
0
0
0
0
0
0
0
0
0
0
0
0
0
0
0
0
0
0
0
0
0
0
0
0
0
0
0
0
0
0
0
0
0
0
0
0
0
0
0
0
0
0
0
0
0
0
0
0
0
0
0
0
0
250
248
0
0
0
0
0
0
0
0
0
0
0
0
0
68
252
252
252
243
246
0
0
0
0
234
0
0
0
0
0
0
0
0
0
0
0
0
0
0
0
0
241
248
0
0
0
0
0
0
0
0
0
0
0
0
0
0
0
0
0
0
0
0
0
0
0
0
0
0
0
0
0
0
0
0
0
0
0
0
0
0
0
0
0
0
0
0
0
0
0
0
0
0
0
0
0
0
0
0
0
0
0
0
0
0
0
0
0
0
0
0
0
0
0
0
0
0
0
0
0
251
246
242
242
242
243
240
246
248
237
251
0
0
0
0
0
0
0
0
0
249
236
234
234
234
240
238
235
235
235
238
242
235
249
251
252
252
253
236
34
0
0
0
0
0
0
0
0
241
250
0
0
0
0
0
0
0
0
0
0
0
0
0
0
0
0
0
251
0
0
0
0
0
169
0
0
0
0
0
0
0
0
0
0
0
0
0
0
0
0
0
0
0
0
0
0
0
0
0
0
0
0
0
0
0
0
0
0
0
0
0
0
0
0
0
0
0
0
0
0
0
0
0
0
0
0
0
238
240
253
236
169
0
0
0
0
0
0
239
247
0
0
0
0
0
0
0
240
234
235
235
235
238
238
236
235
234
234
235
234
237
239
241
244
245
243
241
237
234
236
236
0
0
0
244
237
253
0
0
0
0
0
0
0
0
0
0
0
0
0
0
0
0
0
0
234
248
247
241
236
234
234
237
0
0
0
0
0
0
0
0
0
0
0
0
0
0
0
0
252
241
242
243
245
248
251
0
0
0
0
0
0
0
0
0
0
0
0
0
0
0
0
0
0
0
0
0
0
0
0
0
0
0
0
244
240
0
0
0
0
0
0
0
0
0
0
0
251
0
0
0
0
0
0
242
235
234
233
237
234
244
0
0
0
0
0
236
251
248
244
241
239
239
242
245
247
251
234
235
250
249
246
251
0
0
0
0
0
0
0
0
0
0
0
0
0
0
0
252
249
247
242
237
234
238
241
243
245
245
244
246
241
169
0
0
252
0
0
0
0
0
0
0
0
0
169
243
234
235
234
234
242
241
241
240
237
238
241
245
248
252
0
0
0
0
0
0
0
0
0
0
0
0
0
0
0
0
0
0
0
0
0
237
0
0
0
0
0
0
0
0
0
0
0
0
0
0
0
0
0
0
246
235
234
234
247
234
250
0
0
0
0
0
0
0
0
0
0
0
0
0
0
0
233
245
233
0
0
0
0
0
0
0
0
0
0
0
0
0
0
0
0
252
245
238
234
235
235
235
242
249
250
242
235
234
237
240
234
234
235
235
234
235
235
242
0
0
0
0
0
0
0
248
235
234
234
235
237
244
234
234
234
234
237
244
244
245
242
238
235
243
253
0
0
0
0
0
0
247
250
0
0
0
0
0
0
0
0
0
0
241
0
0
0
0
0
0
0
0
249
247
0
0
0
0
0
0
0
253
234
234
240
253
237
251
0
0
0
0
0
0
0
0
0
0
0
0
0
0
0
241
236
246
236
0
0
0
0
0
0
0
0
0
0
0
251
244
240
237
233
233
235
241
245
244
242
242
245
247
250
252
0
0
0
0
252
243
234
235
237
240
247
235
246
0
0
0
0
253
239
235
234
234
238
238
236
233
241
247
247
246
246
243
241
238
236
237
238
239
239
241
245
246
248
237
234
235
236
0
0
0
0
0
0
0
0
0
0
244
244
244
248
0
34
253
248
238
238
238
239
242
246
247
247
248
255
241
238
234
255
245
250
0
0
0
0
0
0
0
0
0
0
0
0
0
253
247
237
237
247
239
234
0
0
0
0
0
0
0
0
252
243
236
236
237
238
241
245
248
244
237
235
240
251
0
0
0
0
0
0
0
0
0
0
0
0
240
234
234
239
244
234
0
0
0
0
234
235
234
235
242
238
234
236
250
0
0
0
0
0
0
0
0
0
0
0
252
247
242
236
234
238
245
234
235
236
0
0
0
0
0
0
0
34
245
238
237
239
237
236
245
251
251
247
243
241
242
243
244
246
250
247
246
255
251
242
240
254
241
0
0
0
0
0
0
0
0
0
0
0
0
253
236
234
251
241
237
236
234
238
0
0
0
0
0
169
239
236
233
249
250
242
237
237
236
235
235
245
252
0
0
0
0
0
0
0
0
0
0
0
0
0
0
0
0
68
240
234
250
234
235
0
0
0
252
235
236
247
236
234
244
0
0
0
0
0
0
0
0
0
0
0
0
0
0
0
0
0
135
233
243
234
235
238
0
0
0
0
0
0
0
0
234
234
240
246
250
247
244
241
236
238
241
245
250
252
252
251
252
255
252
255
254
249
241
250
249
252
252
253
0
0
0
0
0
0
0
0
0
0
242
234
241
255
235
237
242
246
251
0
0
0
0
252
234
234
248
241
233
234
238
243
248
0
0
0
0
0
0
0
0
0
0
0
0
0
0
0
253
0
0
101
249
242
244
248
236
238
244
0
0
0
0
237
239
254
236
249
0
0
0
0
0
0
0
0
0
0
0
0
0
0
0
0
0
0
251
234
247
237
237
0
0
0
0
0
0
0
0
0
0
241
238
239
243
252
0
0
0
0
255
255
255
255
254
255
254
251
254
249
246
245
241
239
248
251
234
234
251
0
0
0
0
0
0
0
0
0
0
240
234
244
244
242
249
245
234
242
0
0
0
246
234
243
234
235
247
0
0
0
0
0
0
0
0
0
0
0
0
0
0
0
0
0
0
0
248
243
247
234
234
249
239
234
243
0
0
0
0
0
246
234
242
241
34
0
0
0
0
0
0
0
0
0
0
0
0
0
0
0
0
0
0
249
247
234
245
245
236
250
0
0
0
0
0
0
0
0
0
0
0
0
0
0
0
0
0
0
0
255
255
255
255
255
247
245
251
248
244
246
248
244
241
238
241
251
0
0
0
0
0
0
0
0
0
0
0
0
241
233
239
239
234
240
254
240
237
239
235
239
243
233
247
0
0
0
0
0
0
0
0
0
0
0
0
0
0
0
0
0
0
0
0
0
0
246
246
244
234
248
241
235
241
245
246
248
248
249
241
237
239
234
243
0
0
0
0
0
0
0
0
0
0
0
0
0
0
0
0
0
247
235
235
240
245
232
239
247
250
251
252
0
0
0
0
0
0
0
0
0
0
0
0
0
0
0
0
0
0
204
255
251
239
239
238
243
245
240
234
234
240
0
0
0
0
0
0
0
0
0
249
249
253
135
0
0
0
0
0
0
250
239
235
254
240
234
238
254
234
0
0
0
0
0
0
0
0
0
0
0
0
0
0
0
0
0
0
0
0
0
0
0
101
203
101
252
238
233
241
245
244
244
243
241
238
233
233
233
235
236
252
0
0
0
0
0
0
0
0
0
0
0
0
0
0
0
0
0
0
248
236
233
252
249
234
235
235
234
234
245
0
0
0
0
0
0
0
0
0
0
0
0
0
0
0
0
0
0
0
0
0
253
253
252
252
252
252
68
0
0
0
0
0
0
0
0
0
248
252
236
252
249
241
247
0
0
0
0
0
0
252
236
252
242
237
251
235
241
0
0
0
0
0
0
0
0
0
0
0
0
0
0
0
0
0
0
0
0
0
250
246
253
253
0
247
246
245
245
247
247
246
246
246
247
247
251
252
0
0
0
0
0
0
0
0
0
0
0
0
0
0
0
0
0
0
0
0
0
0
251
249
249
244
240
235
234
236
0
0
0
0
0
0
0
0
0
0
0
0
0
0
0
0
0
0
0
0
0
0
0
0
0
0
0
0
0
0
0
0
0
0
0
0
0
0
0
0
0
0
0
249
237
0
0
0
0
0
0
0
0
237
250
241
252
234
235
251
0
0
0
0
0
0
0
0
0
0
0
0
0
0
0
0
0
0
0
0
0
241
236
0
0
0
0
0
0
0
0
0
0
0
0
0
0
0
0
0
0
0
0
0
0
0
0
0
0
0
0
0
0
0
0
0
0
0
0
0
0
0
0
0
0
0
0
0
0
0
0
0
0
0
0
0
0
0
0
0
0
0
0
0
0
0
0
0
0
0
0
0
0
0
0
0
0
0
0
0
0
0
0
0
0
0
0
0
0
0
243
239
0
0
0
0
0
0
0
0
0
0
238
240
242
234
235
253
0
0
0
0
0
0
0
0
0
0
0
0
0
0
0
0
0
0
0
0
252
238
246
0
0
0
0
0
0
0
0
0
0
0
0
0
0
0
0
0
0
0
0
0
0
0
0
0
0
0
0
0
0
0
0
0
0
0
0
0
0
0
0
0
0
0
0
0
0
0
0
0
0
0
0
0
0
0
0
0
0
0
0
0
0
0
0
0
0
0
0
0
0
0
0
0
0
0
0
0
0
0
0
0
0
0
0
0
0
242
247
0
0
0
0
0
0
0
0
0
0
0
0
241
234
240
250
247
0
250
249
249
253
0
0
0
0
0
0
0
0
0
0
0
0
250
243
243
245
252
0
0
0
0
0
0
0
0
0
0
0
0
0
0
0
0
0
0
0
0
0
0
0
0
0
0
0
0
0
0
0
0
0
0
0
0
0
0
0
0
0
0
0
0
0
0
0
0
0
0
0
0
0
0
0
0
0
0
0
0
0
0
0
0
0
0
0
0
0
0
0
0
0
0
0
0
0
0
0
0
0
0
0
0
0
0
0
0
241
250
0
0
0
0
0
0
0
0
0
0
0
0
0
0
0
240
240
246
251
252
245
239
250
0
0
0
0
0
0
0
203
245
238
244
68
240
250
0
0
0
0
0
0
0
0
0
236
169
253
0
0
253
252
0
0
0
0
0
0
0
0
0
0
0
0
0
0
0
0
0
0
0
0
0
0
0
0
0
0
0
0
0
0
0
0
0
0
0
0
0
0
0
0
0
0
0
0
0
0
0
0
0
0
0
0
0
0
0
0
0
0
0
0
0
0
0
0
0
0
0
0
0
0
0
0
0
0
252
244
248
0
0
0
0
0
0
0
0
0
0
0
0
0
0
0
0
0
0
0
0
247
237
249
0
0
247
242
247
251
253
0
0
0
0
248
238
251
0
0
0
0
0
243
241
248
251
247
243
241
244
0
0
0
0
0
0
0
0
0
0
0
0
0
0
0
0
0
0
0
0
0
0
0
0
0
0
0
0
0
0
0
0
0
0
0
0
0
0
0
0
0
0
0
0
0
0
0
0
0
0
0
0
0
0
0
0
0
0
0
0
0
0
0
0
0
0
0
0
0
0
0
0
0
0
0
0
0
249
245
252
0
0
0
0
0
0
0
0
0
253
235
252
0
0
0
0
0
0
0
0
246
244
246
253
0
0
0
0
0
0
0
0
0
0
242
246
0
252
246
241
252
0
0
0
0
253
253
0
0
0
0
0
0
0
0
0
0
0
0
0
0
0
0
0
0
0
0
0
0
0
0
0
0
0
0
0
0
0
0
0
0
0
0
0
0
0
0
0
0
0
0
0
0
0
0
0
0
0
0
0
0
0
0
0
0
0
0
0
0
0
0
0
0
0
0
0
0
0
0
0
0
0
0
0
0
0
0
253
244
0
0
0
0
0
0
0
253
239
253
0
0
0
0
0
0
0
0
0
0
0
0
0
0
0
0
0
0
0
0
0
0
0
0
34
242
245
0
0
0
0
0
0
0
0
0
0
0
0
0
0
0
0
0
0
0
0
0
0
0
0
0
0
0
0
0
0
0
0
0
0
0
0
0
0
0
0
0
0
0
0
0
0
0
0
0
0
0
0
0
0
0
0
0
0
0
0
0
0
0
0
0
0
0
0
0
0
0
0
0
0
0
0
0
0
0
0
0
0
0
0
0
0
0
0
0
0
0
252
248
246
246
246
247
249
252
0
0
0
0
0
0
0
0
0
0
0
0
0
0
0
0
0
0
0
0
0
0
0
0
0
0
0
0
0
0
0
0
0
0
0
0
0
0
0
0
0
0
0
0
0
0
0
0
0
0
0
0
0
0
0
0
0
0
0
0
0
0
0
0
0
0
0
0
0
0
0
0
0
0
0
0
0
0
0
0
0
0
0
0
0
0
0
0
0
0
0
0
0
0
0
0
0
0
0
0
0
0
0
0
0
0
0
0
0
0
0
0
0
0
0
0
0
0
0
0
0
0
0
0
0
0
0
0
0
0
0
0
0
0
0
0
0
0
0
0
0
0
0
0
0
0
0
0
0
0
0
0
0
0
0
0
0
0
0
0
0
0
0
0
0
0
0
0
0
0
0
0
0
0
0
0
0
0
0
0
0
0
0
0
0
0
0
0
0
0
0
0
0
0
0
0
0
0
0
0
0
0
0
0
0
0
0
0
0
0
0
0
0
0
0
0
0
0
0
0
0
0
0
0
0
0
0
0
0
0
0
0
0
0
0
0
0
0
0
0
0
0
0
0
0
0
0
0
0
0
0
0
0
0
0
0
0
0
0
0
0
0
0
0
0
0
0
0
0
0
0
0
0
0
0
0
0
0
0
0
0
0
0
0
0
0
0
0
0
0
0
0
0
0
0
0
0
0
0
0
0
0
0
0
0
0
0
0
0
0
0
0
0
0
0
0
0
0
0
0
0
0
0
0
0
0
0
0
