P2
# CREATOR: GIMP PNM Filter Version 1.1
128 32
255
0
0
0
0
0
0
0
0
0
0
0
0
0
0
0
0
0
0
0
0
0
0
0
0
0
0
0
0
0
0
0
0
0
0
0
0
0
0
0
0
0
0
0
0
0
0
0
0
0
0
0
0
0
0
0
0
0
0
0
0
0
0
0
0
0
0
0
0
0
0
0
0
0
0
0
0
0
0
0
0
0
0
0
0
0
0
0
0
0
0
0
0
0
0
0
0
0
0
0
0
0
0
0
0
0
0
0
0
0
0
0
0
0
0
0
0
0
0
0
0
0
0
0
0
0
0
0
0
0
0
0
0
0
0
0
0
0
0
0
0
0
0
0
0
0
0
0
0
0
0
0
0
0
0
0
0
0
0
0
0
0
0
0
0
0
0
0
0
0
0
0
0
0
0
0
0
0
0
0
0
0
0
0
0
0
0
0
0
0
0
0
0
0
0
0
0
0
0
0
0
0
0
0
0
0
0
0
0
0
0
0
0
0
0
0
0
0
0
0
0
0
0
0
0
0
0
0
0
0
0
0
0
0
0
0
0
0
0
0
0
0
0
0
0
0
0
0
0
0
0
0
0
0
0
0
0
0
0
0
0
0
0
0
0
0
0
0
0
0
0
0
0
0
0
0
0
0
0
0
0
0
0
0
0
0
0
0
0
0
0
0
0
0
0
0
0
0
0
0
0
0
0
0
0
0
0
0
0
0
0
0
0
0
0
0
0
0
0
0
0
0
0
0
0
0
0
0
0
0
0
0
0
0
0
0
0
0
0
0
0
0
0
0
0
0
0
0
0
0
0
0
0
0
0
0
0
0
0
0
0
0
0
0
0
0
0
0
0
0
0
0
0
0
0
0
0
0
0
0
0
0
0
0
0
0
0
0
0
0
0
0
0
0
0
0
0
0
0
0
0
0
0
0
0
0
0
0
0
0
0
0
0
0
0
0
0
0
0
0
0
0
0
0
0
0
0
0
0
0
0
0
0
0
0
0
0
0
0
0
0
0
0
0
0
0
0
0
0
0
0
0
0
0
0
0
0
0
0
0
0
0
0
0
0
0
0
0
0
0
0
0
0
0
0
0
0
0
0
0
0
0
0
0
0
0
0
0
0
0
0
0
0
0
0
0
0
0
0
0
0
0
0
0
0
0
0
0
0
0
0
0
0
0
0
0
0
0
0
0
0
0
0
0
0
0
0
0
0
0
0
0
0
0
0
0
0
0
0
0
0
0
0
0
0
0
0
0
0
0
0
0
0
0
0
0
0
0
0
0
0
0
0
0
0
0
0
0
0
0
0
0
0
0
0
0
0
0
0
0
0
0
0
0
0
0
0
0
0
0
0
0
0
0
0
0
0
0
0
0
0
0
0
0
0
0
0
0
0
0
0
0
0
0
0
0
0
0
0
0
0
0
0
0
0
0
0
0
0
0
0
0
0
0
0
0
0
0
0
0
0
0
0
0
0
0
0
0
0
0
0
0
0
0
0
0
0
0
0
0
0
0
0
0
0
0
0
0
0
0
0
0
0
0
0
0
0
0
0
0
0
0
0
0
0
0
0
0
0
0
0
0
0
0
0
0
0
0
0
0
0
0
0
0
0
0
0
0
0
0
0
0
0
0
0
0
0
0
0
0
0
0
0
0
0
0
0
0
0
0
0
0
0
0
0
0
0
0
0
0
0
0
0
0
0
0
0
0
0
0
0
0
0
0
0
0
0
0
0
0
0
0
0
0
0
0
0
0
0
0
0
0
0
0
0
0
0
0
0
0
0
0
0
0
0
0
0
0
0
0
0
0
0
0
0
0
0
0
0
0
0
0
0
0
0
0
0
0
0
0
0
0
0
0
0
0
0
0
0
0
0
0
0
0
0
0
0
0
0
0
0
0
0
0
0
0
0
0
0
0
0
0
0
0
0
0
0
0
0
0
0
0
0
0
0
0
0
0
0
250
249
252
0
0
0
0
0
0
0
0
0
0
0
0
0
0
0
0
0
0
0
0
0
0
0
0
0
0
0
0
0
0
0
0
0
0
0
0
0
0
0
0
0
0
0
0
0
0
0
0
0
0
0
0
0
0
0
0
0
0
0
0
0
0
0
0
0
0
0
0
0
0
0
0
0
0
0
0
0
0
0
0
0
0
0
0
0
0
0
0
0
0
0
0
0
0
0
0
0
0
0
0
0
0
0
0
0
0
0
0
0
0
0
0
0
0
0
0
0
0
0
0
0
0
0
251
242
250
250
244
240
240
243
248
101
0
0
0
0
0
0
0
0
0
0
0
0
0
0
0
0
0
0
0
0
0
0
0
0
0
0
0
0
0
0
0
0
0
0
0
0
0
0
0
0
0
0
0
0
0
0
0
0
0
0
0
0
0
0
0
0
0
0
0
0
249
238
240
0
0
0
0
0
0
0
0
0
0
0
0
0
0
0
0
0
0
0
0
0
0
0
0
0
0
0
0
0
0
0
0
0
0
0
0
250
246
0
0
0
0
0
0
0
0
0
0
0
0
0
0
0
0
251
251
0
0
0
0
0
0
101
245
236
238
251
0
0
0
0
0
0
0
0
0
0
0
0
0
0
0
0
0
0
0
0
0
0
0
0
0
0
0
0
0
0
0
0
0
0
0
0
0
0
0
0
0
0
0
0
0
0
0
0
0
0
0
0
247
245
251
34
101
252
251
254
239
241
0
0
0
0
0
0
0
0
0
0
0
0
0
0
0
0
0
0
0
0
0
0
0
0
0
0
0
0
253
247
242
244
246
250
250
253
34
238
252
0
0
0
0
0
0
0
0
0
0
0
0
0
250
0
0
0
0
0
0
0
0
0
0
0
253
249
248
203
0
0
0
0
0
0
0
0
0
0
0
0
0
0
0
0
0
0
0
0
0
0
0
0
0
0
0
0
0
0
0
0
0
0
0
0
0
0
0
0
0
0
0
0
0
0
0
0
0
235
242
0
0
0
0
0
253
242
239
235
239
239
239
239
238
238
238
238
236
234
235
235
236
0
0
0
0
0
0
0
0
0
0
0
0
252
245
239
241
248
0
0
0
0
0
0
0
0
237
249
0
0
0
0
0
0
0
0
0
0
252
240
0
0
0
0
0
0
0
0
0
0
0
0
0
0
0
0
0
0
0
0
0
0
0
0
0
0
0
0
0
0
0
0
0
0
0
0
0
0
0
0
0
0
0
0
0
0
0
0
0
0
0
0
0
0
0
0
0
0
0
0
0
0
0
0
101
234
0
0
0
0
252
238
248
247
244
244
244
244
244
244
245
244
244
244
244
245
239
235
235
239
0
0
0
0
0
0
0
0
0
0
0
253
68
0
0
0
0
0
0
0
0
0
0
0
0
249
240
0
0
0
0
0
0
0
0
0
248
135
0
0
0
0
0
0
0
0
0
0
0
0
0
0
0
0
0
0
0
0
0
0
0
0
0
0
0
0
0
0
0
0
0
0
0
0
0
0
0
0
0
0
0
0
0
0
0
0
0
0
0
0
0
0
0
0
0
0
0
0
0
0
0
0
250
242
0
0
0
241
235
251
244
238
249
251
247
240
239
240
245
251
0
0
0
241
234
236
234
236
0
0
0
0
0
0
0
0
0
0
0
0
0
0
0
0
0
0
0
0
0
0
0
0
0
0
251
241
0
0
0
0
0
0
0
0
0
0
0
0
0
0
0
0
0
0
0
0
0
243
242
240
239
239
239
239
241
242
242
243
243
245
246
247
248
250
252
34
0
0
0
0
0
0
0
0
0
0
0
0
0
0
0
0
0
0
0
0
0
0
0
0
0
0
0
0
0
0
0
0
0
251
247
0
0
0
243
233
251
240
236
0
0
0
0
0
0
0
0
0
0
0
0
252
234
251
236
234
246
0
0
0
0
0
0
0
0
0
0
0
0
0
0
0
0
0
0
0
0
0
0
0
0
0
0
239
0
0
0
0
0
0
0
0
0
0
0
0
0
0
0
0
0
0
0
0
238
234
234
239
249
248
248
246
246
243
243
242
240
238
235
234
235
235
234
235
235
235
236
237
238
239
242
0
0
0
0
0
0
0
0
0
0
0
0
0
0
0
0
0
0
0
0
0
0
0
0
247
248
252
0
0
0
251
233
246
243
234
0
0
0
0
0
0
0
0
0
0
0
0
0
0
235
250
239
234
0
0
0
0
0
0
0
0
0
0
0
0
0
0
0
0
0
0
0
0
0
0
0
0
0
253
240
252
0
0
236
0
0
0
0
0
0
0
0
0
0
0
0
0
0
0
0
251
235
234
241
255
251
243
242
242
241
241
241
237
239
238
237
236
235
235
236
239
242
243
248
234
235
235
237
0
0
0
0
0
0
0
0
0
0
0
253
249
0
0
252
252
169
0
0
0
0
244
239
203
0
0
0
0
0
235
237
249
234
244
0
0
0
0
0
0
0
0
0
0
0
0
0
0
238
246
239
240
0
0
0
0
0
0
0
0
0
0
0
0
0
0
0
0
0
0
0
0
0
0
0
0
0
244
241
243
243
241
245
237
253
0
0
0
0
0
0
0
0
0
0
0
0
0
0
242
235
235
253
255
0
0
0
0
0
0
251
251
0
0
0
0
0
252
251
249
247
245
239
251
235
234
239
0
0
0
0
0
0
0
0
0
0
252
252
254
240
0
249
248
248
248
249
251
248
244
235
0
0
0
0
0
0
236
237
245
236
0
0
0
0
0
0
0
0
0
0
0
0
0
0
240
233
251
238
244
246
247
0
0
0
0
0
0
0
0
0
0
0
0
0
0
0
0
0
0
0
0
0
0
0
0
0
0
0
0
0
0
235
0
0
0
0
0
0
0
0
0
0
0
0
0
0
236
234
235
255
253
0
0
0
0
250
237
249
0
0
0
0
0
0
0
0
0
0
0
246
235
250
233
235
0
0
0
0
0
0
0
0
0
244
234
237
241
240
246
239
234
236
236
233
234
238
243
244
243
242
239
247
0
0
0
237
240
244
169
0
0
0
0
0
0
0
0
0
0
0
246
234
235
252
252
246
243
244
237
235
0
0
0
0
0
0
0
0
0
0
0
0
0
0
0
0
0
0
0
0
0
0
0
0
0
0
0
0
0
249
244
0
0
0
0
0
0
0
0
0
0
0
0
0
234
234
253
253
0
0
0
0
0
250
237
0
0
0
0
0
0
0
0
0
0
0
0
0
239
249
240
234
238
0
0
0
0
0
0
0
0
0
238
235
236
235
235
241
0
0
0
0
253
245
238
234
235
235
242
246
0
0
0
244
234
242
242
250
0
0
0
0
0
0
0
0
0
0
234
235
235
239
239
235
235
234
250
238
234
0
0
0
0
0
0
0
0
0
0
0
0
0
0
0
0
0
0
0
0
0
0
0
0
0
0
0
245
237
235
234
235
237
237
240
241
0
0
0
0
0
0
248
233
248
255
0
0
0
0
0
0
0
242
0
0
0
0
0
0
0
0
0
0
0
34
244
239
252
234
235
237
0
0
0
0
0
0
0
0
0
0
0
0
0
0
0
0
0
0
0
0
0
0
0
248
235
239
252
239
243
243
241
244
248
236
0
0
0
0
0
0
0
0
0
0
0
247
235
235
236
246
0
0
253
235
244
246
236
0
0
0
0
0
0
0
0
0
0
0
0
0
0
0
0
0
0
0
0
0
0
0
252
240
234
233
242
248
250
247
245
251
239
234
239
0
0
0
0
0
237
247
251
236
252
0
0
0
0
0
0
247
0
0
0
0
0
0
0
0
0
0
245
234
244
250
236
235
238
237
236
238
238
240
0
0
0
0
0
0
0
0
0
0
0
0
0
0
0
0
0
0
0
0
252
243
248
247
243
240
238
236
235
0
0
0
0
0
0
0
0
0
0
0
0
0
0
0
0
0
0
0
0
250
234
244
238
241
0
0
0
0
0
0
0
0
0
0
0
0
0
0
0
0
0
0
0
0
0
0
234
235
234
248
250
248
245
240
234
238
247
236
236
236
236
236
236
240
251
243
233
237
250
0
0
0
0
0
0
253
0
0
0
0
0
0
0
0
0
0
243
234
233
242
251
252
250
248
244
234
240
0
0
0
0
0
0
0
0
0
0
0
0
0
0
0
0
0
0
0
0
0
0
0
0
0
0
253
247
235
246
0
0
0
0
0
0
243
241
247
245
241
247
0
0
0
0
0
0
0
0
252
234
233
247
244
0
0
0
0
0
0
0
136
238
0
0
0
204
136
0
0
0
0
0
0
0
0
234
235
236
238
0
0
0
0
253
247
245
240
239
239
240
239
239
239
236
244
253
0
0
0
0
0
0
0
0
34
0
0
0
0
0
0
0
0
0
0
0
249
247
245
243
241
241
241
246
253
0
0
0
0
0
0
0
0
0
0
0
0
0
0
0
0
0
0
0
0
0
0
0
0
0
0
0
0
0
0
244
241
249
252
252
247
242
253
0
0
0
0
248
237
252
0
0
0
0
0
0
0
236
234
240
243
242
247
252
252
253
0
0
0
0
0
0
0
0
0
0
0
0
0
204
0
0
0
234
234
248
235
0
0
0
0
0
0
0
0
0
0
0
0
0
0
0
0
0
0
0
0
0
0
253
249
241
0
0
0
0
0
0
0
0
0
0
0
0
0
0
0
0
0
0
0
0
0
0
0
0
0
0
0
0
0
0
0
0
0
0
0
0
0
0
0
0
0
0
0
0
0
0
0
0
0
0
0
0
0
0
251
249
0
0
0
0
0
0
0
240
245
0
0
0
0
0
0
0
0
0
248
241
235
236
238
240
247
251
247
245
251
0
0
0
0
0
0
0
0
0
0
0
0
254
238
235
234
254
234
238
0
0
0
0
0
0
0
0
0
0
0
0
0
0
0
0
0
0
0
247
237
242
253
0
0
0
0
0
0
0
0
0
0
0
0
0
0
0
0
0
0
0
0
0
0
0
0
0
0
0
0
0
0
0
0
0
0
0
0
0
0
0
0
0
0
0
0
0
0
0
0
0
0
0
0
0
0
0
0
0
0
0
0
0
0
0
250
238
0
0
0
0
0
0
0
0
0
0
0
34
0
253
250
247
243
241
245
250
250
248
248
168
0
0
0
0
0
0
252
248
244
237
237
243
247
235
238
242
251
0
0
0
0
0
0
0
0
0
0
0
0
0
0
252
244
237
240
248
0
0
0
0
0
0
0
0
0
0
0
0
0
0
0
0
0
0
0
0
0
0
0
0
0
0
0
0
0
0
0
0
0
0
0
0
0
0
0
0
0
0
0
0
0
0
0
0
0
0
0
0
0
0
0
0
0
0
0
0
0
0
0
0
0
0
0
253
235
34
0
0
0
0
0
0
0
0
0
0
0
0
0
0
0
0
251
248
248
167
0
134
0
0
66
250
247
245
244
243
245
248
250
244
249
0
0
0
0
0
0
0
0
0
0
0
203
248
253
0
0
252
239
235
243
0
0
0
0
0
0
0
0
0
0
0
0
0
0
0
0
0
0
0
0
0
0
0
0
0
0
0
0
0
0
0
0
0
0
0
0
0
0
0
0
0
0
0
0
0
0
0
0
0
0
0
0
0
0
0
0
0
0
0
0
0
0
0
0
0
0
0
0
0
0
0
135
237
252
0
0
0
0
0
0
170
0
0
0
0
0
0
0
0
0
0
0
0
0
0
0
0
0
134
250
249
250
101
0
34
0
0
0
102
0
0
0
0
0
0
0
0
244
244
249
252
252
244
241
241
251
0
0
0
0
0
0
0
0
0
0
0
0
0
0
0
0
0
0
0
0
0
0
0
0
0
0
0
0
0
0
0
0
0
0
0
0
0
0
0
0
0
0
0
0
0
0
0
0
0
0
0
0
0
0
0
0
0
0
0
0
0
0
0
0
0
0
0
0
0
0
0
0
0
0
0
238
250
0
0
0
0
0
204
0
0
0
0
0
0
0
0
0
0
0
0
0
0
0
0
0
0
0
0
0
0
0
0
0
0
0
204
0
0
0
0
0
252
246
244
135
0
0
0
0
0
0
0
0
0
0
0
0
0
0
0
0
0
0
0
0
0
0
0
0
0
0
0
0
0
0
0
0
0
0
0
0
0
0
0
0
0
0
0
0
0
0
0
0
0
0
0
0
0
0
0
0
0
0
0
0
0
0
0
0
0
0
0
0
0
0
0
0
0
0
0
0
0
0
0
0
0
0
0
0
244
247
0
0
0
0
102
0
0
0
0
0
0
0
0
0
0
0
0
0
0
0
0
0
0
0
0
0
0
0
0
0
0
0
34
0
0
0
0
0
0
0
0
0
0
0
0
0
0
0
0
0
0
0
0
0
0
0
0
0
0
0
0
0
0
0
0
0
0
0
0
0
0
0
0
0
0
0
0
0
0
0
0
0
0
0
0
0
0
0
0
0
0
0
0
0
0
0
0
0
0
0
0
0
0
0
0
0
0
0
0
0
0
0
0
0
0
0
0
0
0
0
0
0
0
0
0
0
0
250
0
0
0
0
0
0
0
0
0
0
0
0
0
0
0
0
0
0
0
0
0
0
0
0
0
0
0
0
0
0
0
238
0
0
0
0
0
0
0
0
0
0
0
0
0
0
0
0
0
0
0
0
0
0
0
0
0
0
0
0
0
0
0
0
0
0
0
0
0
0
0
0
0
0
0
0
0
0
0
0
0
0
0
0
0
0
0
0
0
0
0
0
0
0
0
0
0
0
0
0
0
0
0
0
0
0
0
0
0
0
0
0
0
0
0
0
0
0
0
0
0
0
0
0
0
0
0
0
0
0
0
0
0
0
170
0
0
0
0
0
0
0
0
0
0
0
0
0
0
0
0
0
0
0
0
0
0
0
136
0
0
0
0
0
0
0
0
0
0
0
0
0
0
0
0
0
0
0
0
0
0
0
0
0
0
0
0
0
0
0
0
0
0
0
0
0
0
0
0
0
0
0
0
0
0
0
0
0
0
0
0
0
0
0
0
0
0
0
0
0
0
0
0
0
0
0
0
0
0
0
0
0
0
0
0
0
0
0
0
0
0
0
0
0
0
0
0
0
0
0
0
0
0
0
0
0
0
0
0
0
0
0
0
0
238
0
0
0
0
0
0
0
0
0
0
0
0
0
0
0
0
0
0
0
204
0
0
0
0
0
0
0
0
0
0
0
0
0
0
0
0
0
0
0
0
0
0
0
0
0
0
0
0
0
0
0
0
0
0
0
0
0
0
0
0
0
0
0
0
0
0
0
0
0
0
0
0
0
