P2
# CREATOR: GIMP PNM Filter Version 1.1
128 32
255
0
0
0
0
0
0
0
0
0
0
0
0
0
0
0
0
0
0
0
0
0
0
0
0
0
0
0
0
0
0
0
0
0
0
0
0
0
0
0
0
0
0
0
0
0
0
0
0
0
0
0
0
0
0
0
0
0
0
0
0
0
0
0
0
0
0
0
0
0
0
0
0
0
0
0
0
0
0
0
0
0
0
0
0
0
0
0
0
0
0
0
0
0
0
0
0
0
0
0
0
0
0
0
0
0
0
0
0
0
0
0
0
0
0
0
0
0
0
0
0
0
0
0
0
0
0
0
0
0
0
0
0
0
0
0
0
0
0
0
0
0
0
0
0
0
0
0
0
0
0
0
0
0
0
0
0
0
0
0
0
0
0
0
0
0
0
0
0
0
0
0
0
0
0
0
0
0
0
0
0
0
0
0
0
0
0
0
0
0
0
0
0
0
0
0
0
0
0
0
0
0
0
0
0
0
0
0
0
0
0
0
0
0
0
0
0
0
0
0
0
0
0
0
0
0
0
0
0
0
0
0
0
0
0
0
0
0
0
0
0
0
0
0
0
0
0
0
0
0
0
0
0
0
0
0
0
0
0
0
0
0
0
0
0
0
0
0
0
0
0
0
0
0
0
0
0
0
0
0
0
0
0
0
0
0
0
0
0
0
0
0
0
0
0
0
0
0
0
0
0
0
0
0
0
0
0
0
0
0
0
0
0
0
0
0
0
0
0
0
0
0
0
0
0
0
0
0
0
0
0
0
0
0
0
0
0
0
0
0
0
0
0
0
0
0
0
0
0
0
0
0
0
0
0
0
0
0
0
0
0
0
0
0
0
0
0
0
0
0
0
0
0
0
0
0
0
0
0
0
0
0
0
0
0
0
0
0
0
0
0
0
0
0
0
0
0
0
0
0
0
0
0
0
0
0
0
0
0
0
0
0
0
0
0
0
0
0
0
0
0
0
0
0
0
0
0
0
0
0
0
0
0
0
0
0
0
0
0
0
0
0
0
0
0
0
0
0
0
0
0
0
0
0
0
0
0
0
0
0
0
0
0
0
0
0
0
0
0
0
0
0
0
0
0
0
0
0
0
0
0
0
0
0
0
0
0
0
0
0
0
0
0
0
0
0
0
0
0
0
0
0
0
0
0
0
0
0
0
0
0
0
0
0
0
0
0
0
0
0
0
0
0
0
0
0
0
0
0
0
0
0
0
0
0
0
0
0
0
0
0
0
0
0
0
0
0
0
0
0
0
0
0
0
0
0
0
0
0
0
0
0
0
0
0
0
0
0
0
0
0
0
0
0
0
0
0
0
0
0
0
0
0
0
0
0
0
0
0
0
0
0
0
0
0
0
0
0
0
0
0
0
0
0
0
0
0
0
0
0
0
0
0
0
0
0
0
0
0
0
0
0
0
0
0
0
0
0
0
0
0
0
0
0
0
0
0
0
0
0
0
0
0
0
0
0
0
0
0
0
0
0
0
0
0
0
0
0
0
0
0
0
0
0
0
0
0
0
0
0
0
0
0
0
0
0
0
0
0
0
0
0
0
0
0
0
0
0
0
0
0
0
0
0
0
0
0
0
0
0
0
0
0
0
0
0
0
0
0
0
0
0
0
0
0
0
0
0
0
0
0
0
0
0
0
0
0
0
0
0
0
0
0
0
0
0
0
0
0
0
0
0
0
0
0
0
0
0
0
0
0
0
0
0
0
0
0
0
0
0
0
0
0
0
0
0
0
0
0
0
0
0
0
0
0
0
0
0
0
0
0
0
0
0
0
0
0
0
0
0
0
0
0
0
0
0
0
0
0
0
0
0
0
0
0
0
0
0
0
0
0
0
0
0
0
0
0
0
0
0
0
0
0
0
0
0
0
0
0
0
0
0
0
0
0
0
0
0
0
0
0
0
0
0
0
0
0
0
0
0
0
0
0
0
0
0
0
0
253
252
0
0
0
0
0
0
0
0
0
0
0
0
0
0
0
0
0
0
0
0
0
0
0
0
0
0
0
0
0
0
0
0
0
0
0
0
0
0
0
0
0
0
0
0
0
0
0
0
0
0
0
0
0
0
0
0
0
0
0
0
0
0
0
0
0
0
0
0
0
0
0
0
0
0
0
0
0
0
253
252
249
247
247
246
244
245
247
248
135
0
0
0
0
0
0
0
0
0
0
0
0
0
0
0
0
0
0
0
0
0
0
0
0
0
0
0
0
0
0
0
0
0
0
0
0
242
244
251
248
246
247
247
246
250
0
0
0
0
0
0
0
0
0
0
0
0
0
0
0
0
0
0
0
0
0
0
0
0
0
0
0
0
0
0
0
0
0
0
0
0
0
0
0
0
0
0
0
0
0
0
0
0
0
0
0
0
0
0
0
0
0
0
0
203
251
249
247
246
246
0
0
0
0
0
0
243
241
248
252
0
0
0
0
0
0
0
247
247
0
0
0
0
0
0
0
0
0
0
0
0
0
0
0
0
247
239
238
246
0
0
0
0
0
0
0
0
0
0
0
0
0
0
238
253
0
0
0
0
0
0
0
251
0
0
0
0
0
0
0
0
0
0
0
0
0
0
0
0
0
0
0
0
0
0
0
0
0
0
0
0
0
0
0
0
0
0
0
0
0
0
0
0
0
0
0
0
0
0
0
0
0
0
0
0
0
0
0
242
242
251
251
252
253
255
252
251
250
240
251
0
0
0
242
241
0
0
0
0
0
0
0
0
0
0
0
253
238
0
0
0
0
0
0
0
0
0
0
0
0
0
0
252
250
0
0
253
240
0
0
0
0
0
0
0
0
0
0
0
0
252
253
0
0
0
0
0
0
0
0
0
0
0
0
0
0
0
0
0
0
0
0
0
0
0
0
0
0
0
0
0
0
0
0
0
0
0
0
0
0
0
0
0
0
0
0
0
0
0
0
0
0
0
0
0
0
0
0
0
0
0
0
0
0
0
0
234
0
0
0
0
252
237
236
238
240
240
239
238
237
236
236
237
237
238
238
236
236
237
239
0
34
250
244
237
246
0
0
0
0
0
0
0
0
0
0
0
0
0
0
0
0
0
0
0
248
243
0
0
0
0
0
0
0
0
0
0
0
0
0
0
0
0
0
0
0
0
0
0
0
0
0
0
0
0
0
0
0
0
0
0
0
0
0
0
0
0
0
0
0
0
0
0
0
0
0
0
0
0
0
0
0
0
0
0
243
0
0
0
0
0
0
0
0
0
0
0
0
0
0
0
0
0
238
238
0
0
0
249
234
244
243
236
236
236
236
236
236
236
236
236
236
236
240
245
250
241
233
242
243
250
101
0
0
0
0
0
0
0
0
0
0
0
0
0
0
0
0
0
0
0
0
0
0
237
0
0
0
0
0
0
0
0
0
0
0
0
0
0
0
0
0
0
0
0
0
0
0
0
0
0
0
0
0
0
0
0
0
0
0
0
0
0
0
0
0
0
0
0
0
0
0
0
0
0
0
0
0
0
0
0
0
0
240
169
0
0
0
0
0
0
0
0
0
0
0
0
0
0
0
247
242
0
0
0
252
234
244
238
235
0
252
250
250
249
249
249
249
249
249
251
246
233
233
243
245
235
251
243
0
0
0
0
0
0
0
0
0
0
0
0
0
0
0
0
0
0
0
0
0
0
0
247
249
0
0
0
0
0
0
0
0
0
0
0
0
0
0
0
0
0
0
0
0
0
0
237
236
236
237
240
243
245
247
248
251
252
0
0
0
0
0
0
0
0
0
0
0
0
0
0
0
0
0
0
0
0
0
0
0
0
253
241
0
0
0
0
0
0
0
0
0
0
0
0
0
0
0
0
0
0
0
0
235
239
237
234
253
0
0
0
0
0
0
0
0
0
0
0
0
246
234
234
239
234
236
0
0
0
0
0
0
0
0
0
0
0
0
0
0
0
0
0
0
0
0
0
0
0
0
246
245
0
0
0
0
0
0
0
0
0
0
0
0
0
0
0
0
0
0
0
0
0
242
235
234
234
241
253
248
248
247
244
243
240
236
235
235
238
240
243
245
247
251
0
0
240
235
250
0
0
0
0
0
0
0
0
0
0
0
243
246
0
0
0
0
0
0
0
0
0
0
0
0
0
0
0
0
0
0
243
233
249
233
240
0
0
0
0
0
0
0
0
0
0
0
0
0
0
240
234
242
233
235
0
0
0
0
0
0
0
0
0
0
0
0
0
0
0
0
0
0
0
0
0
0
0
240
247
254
246
243
251
0
0
0
0
0
0
0
0
0
0
0
0
0
0
0
0
0
250
234
234
240
246
255
247
246
244
243
243
243
242
241
241
242
244
245
248
249
247
239
242
235
234
234
237
0
0
0
0
0
0
0
0
0
0
0
0
242
244
234
240
249
253
0
0
0
0
0
0
0
0
0
0
0
0
0
234
238
245
234
0
0
0
0
0
0
0
0
0
0
0
0
0
0
0
249
236
250
233
235
169
0
0
0
0
0
0
0
0
0
0
0
0
0
0
0
0
0
0
0
0
0
0
248
241
242
251
0
237
252
0
0
0
0
0
0
0
0
0
0
0
0
0
0
0
253
234
234
241
239
250
0
0
0
0
0
0
0
0
0
0
0
0
0
0
248
245
253
242
235
235
235
234
249
0
0
0
0
0
0
0
0
245
237
246
255
236
241
248
247
248
248
248
246
246
239
235
236
237
242
0
0
0
242
235
234
242
239
0
0
0
0
0
0
0
0
0
0
0
0
0
248
236
249
241
235
240
34
0
0
0
0
0
0
0
0
0
0
0
0
0
0
0
0
0
0
0
0
0
0
0
0
0
0
0
0
0
235
0
0
0
0
0
0
0
0
0
0
0
0
0
0
0
235
234
250
236
242
0
0
0
0
0
0
0
0
0
0
0
0
0
0
0
68
233
234
238
248
233
235
234
236
0
0
0
0
0
0
0
0
243
236
239
242
244
243
234
239
244
246
245
245
244
245
248
248
242
233
203
0
0
246
235
235
233
247
249
0
0
0
0
0
0
0
0
0
0
236
241
235
234
241
245
243
245
238
243
253
0
0
0
0
0
0
0
0
0
0
0
0
0
0
0
0
0
0
0
0
0
0
0
0
0
0
0
242
245
0
0
0
0
0
0
0
0
0
0
0
0
0
240
234
239
247
234
0
0
0
0
0
0
0
0
0
0
0
0
0
0
0
0
251
234
235
234
252
237
235
235
234
251
0
0
0
0
0
0
0
0
0
252
245
244
250
0
0
0
0
0
0
0
249
234
234
247
242
244
248
247
245
237
234
241
254
237
236
0
0
0
0
0
0
0
0
253
234
235
235
235
234
235
235
234
245
237
234
248
0
0
0
0
0
0
0
0
0
0
0
0
0
0
0
0
0
0
0
0
0
0
0
0
0
252
244
235
237
234
234
234
241
0
0
0
0
0
0
0
0
234
236
254
234
239
0
0
0
0
0
0
0
0
0
0
0
0
0
0
0
0
0
253
235
233
249
233
235
235
246
0
0
0
0
0
0
0
0
0
0
0
0
0
0
0
0
0
0
0
0
0
0
0
242
235
247
245
242
243
246
247
246
241
234
242
0
0
0
0
0
0
0
0
0
0
252
244
236
243
252
0
253
246
233
237
238
234
240
0
0
0
0
0
0
0
0
0
0
0
0
0
0
0
0
0
0
0
0
0
0
247
237
234
234
233
241
248
244
241
248
240
247
243
240
237
236
238
244
248
244
235
235
235
34
0
0
0
0
250
253
0
0
0
0
0
0
0
0
0
0
241
234
244
240
235
254
255
244
243
243
245
252
0
0
0
0
0
0
0
0
0
0
0
0
0
0
0
0
0
0
0
0
246
240
239
241
241
235
239
245
250
0
0
0
0
0
0
0
0
34
0
0
0
0
0
0
0
0
0
0
0
234
234
238
236
235
251
0
0
0
0
0
0
0
0
0
0
0
0
0
0
0
0
0
0
0
0
251
235
235
234
237
250
248
246
239
234
243
246
243
243
245
247
251
248
241
234
235
236
236
252
0
0
0
0
0
243
253
0
0
0
0
0
0
0
0
0
0
237
235
234
252
253
250
242
236
234
235
234
236
0
0
0
0
0
0
0
0
0
0
0
0
0
0
0
0
0
0
0
0
0
0
0
0
0
0
243
244
0
0
0
0
0
0
0
246
240
247
249
241
244
0
0
0
0
0
0
0
0
251
235
234
248
237
246
68
0
0
0
0
0
0
0
0
0
0
0
0
0
0
0
0
0
0
0
240
235
234
245
238
251
0
0
0
248
245
247
249
250
252
252
252
252
253
253
169
0
0
0
0
0
0
0
0
0
238
0
0
0
0
0
0
0
0
0
0
0
253
249
243
240
238
238
237
234
241
135
0
0
0
0
0
0
0
0
0
0
0
0
0
0
0
0
0
0
0
0
0
0
0
0
0
0
0
0
248
243
249
0
0
0
251
242
249
0
0
0
0
249
234
249
0
0
0
0
0
0
0
247
238
234
249
243
239
240
244
250
135
0
0
0
0
0
0
0
0
0
0
0
0
0
0
0
247
234
234
249
236
252
0
0
0
0
0
0
0
0
0
0
0
0
0
0
0
0
0
0
0
0
0
0
251
246
243
0
0
0
0
0
0
0
0
0
0
0
0
0
0
0
0
0
0
0
0
0
0
0
0
0
0
0
0
0
0
0
0
0
0
0
0
0
0
0
0
0
0
0
0
0
0
0
0
0
0
0
253
243
238
237
248
0
0
0
0
0
0
244
250
0
0
0
0
0
0
0
0
0
0
0
244
235
239
244
248
248
242
240
248
254
255
255
255
255
255
255
0
0
0
0
0
247
237
234
233
243
240
234
238
0
0
0
0
0
0
0
0
0
0
0
0
0
0
0
0
0
0
0
247
238
250
0
0
0
0
0
0
0
0
0
0
0
0
0
0
0
0
0
0
0
0
0
0
0
0
0
0
0
0
0
0
0
0
0
0
0
0
0
0
0
0
0
0
0
0
0
0
0
0
0
0
0
0
0
0
0
0
0
0
0
0
0
0
0
0
246
246
0
0
0
0
0
0
0
0
0
0
0
0
0
246
238
236
238
244
248
249
249
249
250
250
254
255
255
255
251
244
238
235
240
243
241
240
238
241
248
0
0
0
0
0
0
0
0
0
0
0
0
0
0
0
0
0
247
245
247
251
0
0
0
0
0
0
0
0
0
0
0
0
0
0
0
0
0
0
0
0
0
0
0
0
0
0
0
0
0
0
0
0
0
0
0
0
0
0
0
0
0
0
0
0
0
0
0
0
0
0
0
0
0
0
0
0
0
0
0
0
0
0
0
0
0
0
0
244
241
0
0
0
0
0
0
0
0
0
0
0
0
0
255
253
245
244
247
249
251
255
254
251
251
250
246
242
242
246
250
246
239
234
241
251
0
0
0
0
0
0
0
0
0
0
0
236
247
246
253
0
0
253
246
240
251
0
0
0
0
0
0
0
0
0
0
0
0
0
0
0
0
0
0
0
0
0
0
0
0
0
0
0
0
0
0
0
0
0
0
0
0
0
0
0
0
0
0
0
0
0
0
0
0
0
0
0
0
0
0
0
0
0
0
0
0
0
0
0
0
0
0
0
0
0
0
0
247
236
0
0
0
0
0
0
0
0
0
0
0
0
255
255
255
254
253
250
249
250
251
250
249
249
248
244
241
240
244
250
253
0
0
0
0
0
0
0
0
0
0
0
0
244
241
248
252
203
248
244
245
251
203
0
0
0
0
0
0
0
0
0
0
0
0
0
0
0
0
0
0
0
0
0
0
0
0
0
0
0
0
0
0
0
0
0
0
0
0
0
0
0
0
0
0
0
0
0
0
0
0
0
0
0
0
0
0
0
0
0
0
0
0
0
0
0
0
0
0
0
0
0
0
0
0
0
0
248
235
253
0
0
0
0
0
0
0
0
0
0
0
204
255
255
255
255
255
252
250
248
246
245
246
250
254
0
0
0
0
0
0
0
0
0
249
244
251
236
250
245
241
252
0
0
0
0
0
0
0
0
0
0
0
0
0
0
0
0
0
0
0
0
0
0
0
0
0
0
0
0
0
0
0
0
0
0
0
0
0
0
0
0
0
0
0
0
0
0
0
0
0
0
0
0
0
0
0
0
0
0
0
0
0
0
0
0
0
0
0
0
0
0
0
0
0
0
0
0
0
0
0
0
0
0
0
0
101
235
252
253
253
0
0
0
0
0
0
0
0
0
0
0
255
255
255
255
255
255
255
204
0
0
0
0
0
0
0
0
0
0
0
0
0
0
247
243
252
0
0
0
0
0
0
0
0
0
0
0
0
0
0
0
0
0
0
0
0
0
0
0
0
0
0
0
0
0
0
0
0
0
0
0
0
0
0
0
0
0
0
0
0
0
0
0
0
0
0
0
0
0
0
0
0
0
0
0
0
0
0
0
0
0
0
0
0
0
0
0
0
0
0
0
0
0
0
0
0
0
0
0
0
0
0
0
0
253
248
248
248
248
249
249
0
0
0
0
0
0
0
0
0
0
0
0
0
0
0
0
0
0
0
0
0
0
0
0
0
0
0
0
0
0
0
0
0
0
0
0
0
0
0
0
0
0
0
0
0
0
0
0
0
0
0
0
0
0
0
0
0
0
0
0
0
0
0
0
0
0
0
0
0
0
0
0
0
0
0
0
0
0
0
0
0
0
0
0
0
0
0
0
0
0
0
0
0
0
0
0
0
0
0
0
0
0
0
0
0
0
0
0
0
0
0
0
0
0
0
0
0
0
0
0
0
0
0
0
0
0
0
0
0
0
0
0
0
0
0
0
0
0
0
0
0
0
0
0
0
0
0
0
0
0
0
0
0
0
0
0
0
0
0
0
0
0
0
0
0
0
0
0
0
0
0
0
0
0
0
0
0
0
0
0
0
0
0
0
0
0
0
0
0
0
0
0
0
0
0
0
0
0
0
0
0
0
0
0
0
0
0
0
0
0
0
0
0
0
0
0
0
0
0
0
0
0
0
0
0
0
0
0
0
0
0
0
0
0
0
0
0
0
0
0
0
0
0
0
0
0
0
0
0
0
0
0
0
0
0
0
0
0
0
0
0
0
0
0
0
0
0
0
0
0
0
0
0
0
0
0
0
0
0
0
0
0
0
0
0
0
0
0
0
0
0
0
0
0
0
0
0
0
0
0
0
0
0
0
0
0
0
0
0
0
0
0
0
0
0
0
0
0
0
0
0
0
0
0
0
0
0
0
0
0
0
0
