P2
# CREATOR: GIMP PNM Filter Version 1.1
128 32
255
0
0
0
0
0
0
0
0
0
0
0
0
0
0
0
0
0
0
0
0
0
0
0
0
0
0
0
0
0
0
0
0
0
0
0
0
0
0
0
0
0
0
0
0
0
0
0
0
0
0
0
0
0
0
0
0
0
0
0
0
0
0
0
0
0
0
0
0
0
0
0
0
0
0
0
0
0
0
0
0
0
0
0
0
0
0
0
0
0
0
0
0
0
0
0
0
0
0
0
0
0
0
0
0
0
0
0
0
0
0
0
0
0
0
0
0
0
0
0
0
0
0
0
0
0
0
0
0
0
0
0
0
0
0
0
0
0
0
0
0
0
0
0
0
0
0
0
0
0
0
0
0
0
0
0
0
0
0
0
0
0
0
0
0
0
0
0
0
0
0
0
0
0
0
0
0
0
0
0
0
251
249
246
241
0
0
0
0
0
0
0
0
0
0
0
0
0
0
0
0
0
0
0
0
0
0
0
0
0
0
0
0
0
0
0
0
0
0
0
0
0
0
0
0
0
0
0
0
0
0
0
0
0
0
0
0
0
0
0
0
0
0
0
0
0
0
0
0
0
0
0
0
0
0
0
0
0
0
0
0
0
0
0
0
0
0
0
0
0
0
0
0
0
0
0
0
0
0
0
0
0
0
0
0
0
0
0
0
0
0
0
0
0
0
0
0
0
0
0
0
0
0
0
0
251
246
250
253
0
0
0
234
251
0
0
0
0
0
0
0
0
0
0
0
0
0
0
0
0
0
0
0
0
0
0
0
0
0
0
0
0
0
0
0
0
0
0
0
0
0
0
0
0
0
0
0
0
0
0
0
0
0
0
0
0
0
0
0
0
0
0
0
0
0
0
0
0
0
0
0
0
0
0
0
0
0
0
0
0
0
0
0
0
0
0
0
0
0
0
0
0
0
0
0
0
0
0
0
0
0
0
0
0
0
0
0
0
0
0
0
0
0
0
0
0
0
0
0
0
0
247
237
244
0
0
0
0
0
0
249
234
253
0
0
0
0
0
0
0
0
0
0
0
0
0
0
0
0
0
0
0
0
0
0
0
0
0
0
0
0
0
0
0
0
0
0
0
0
0
0
0
0
0
0
0
0
0
0
0
0
0
0
0
0
0
0
0
0
0
0
0
0
0
0
0
0
0
0
0
0
0
0
0
0
0
0
0
0
0
0
0
0
0
0
0
0
0
0
0
0
0
0
0
0
0
0
0
0
0
0
0
0
0
0
0
0
0
0
0
0
0
0
0
0
0
247
245
250
252
0
0
0
0
0
0
0
0
0
249
234
249
0
0
0
0
0
0
0
0
0
0
0
0
0
0
0
0
0
0
0
0
0
0
0
0
0
0
0
0
0
0
0
0
0
0
0
0
0
0
0
0
0
0
0
0
0
0
0
0
0
0
0
0
0
0
0
0
0
0
0
0
0
0
0
0
0
0
0
0
0
0
0
0
0
0
0
0
0
0
0
0
0
0
0
0
0
0
0
0
0
0
0
0
0
0
0
0
0
0
0
0
0
0
0
0
0
0
0
0
0
0
249
239
251
0
0
0
0
0
0
0
0
0
0
0
0
0
203
236
246
0
0
0
0
0
0
0
0
0
0
0
0
0
0
0
0
0
0
0
0
0
0
0
0
0
0
0
0
0
0
0
0
0
0
0
0
0
0
0
0
0
0
0
0
0
0
0
0
0
0
0
0
0
0
0
0
0
0
0
0
0
0
0
0
0
0
0
0
0
0
0
0
0
0
0
0
0
0
0
0
0
0
0
0
0
0
0
0
0
0
0
0
0
0
0
0
0
0
0
0
0
0
0
0
0
0
0
0
250
238
0
0
0
0
0
0
0
0
0
0
0
0
0
0
0
0
0
249
239
0
0
0
0
0
0
0
0
0
0
0
0
0
0
0
0
0
0
0
0
0
0
0
0
0
0
0
0
0
0
0
0
0
0
0
0
0
0
0
0
0
0
0
0
0
0
0
0
0
0
0
0
0
0
0
0
0
0
0
0
0
0
0
0
0
0
0
0
0
0
0
0
0
0
0
0
0
0
0
0
0
0
0
0
0
0
0
0
0
0
0
0
0
0
0
0
0
0
0
0
0
0
0
0
0
0
0
0
0
0
0
0
0
0
0
0
0
0
0
0
0
0
0
0
0
0
253
236
251
0
0
0
0
0
0
0
0
0
0
0
0
0
0
0
0
0
0
0
0
0
0
0
0
0
0
0
0
0
0
0
0
0
0
0
0
0
0
0
0
0
0
0
0
0
0
0
0
0
0
0
0
0
0
0
0
0
0
0
0
0
0
0
0
0
0
0
0
0
0
0
0
0
0
0
0
0
0
0
0
0
0
0
0
0
0
0
0
0
0
0
0
0
0
0
0
0
0
0
0
0
0
0
0
0
0
0
0
0
0
0
0
0
0
0
0
0
0
0
0
0
0
0
0
253
234
249
0
0
0
0
0
0
0
0
0
0
0
0
0
0
0
0
0
0
0
0
0
0
0
0
0
0
0
0
0
0
0
0
0
0
0
0
0
0
0
0
0
0
0
0
0
0
0
0
0
0
0
0
0
0
0
0
0
0
0
0
0
0
0
0
0
0
0
0
0
0
0
0
0
0
0
0
0
0
0
0
0
0
0
0
0
0
0
0
0
0
0
0
0
0
0
0
0
241
235
233
233
235
238
243
249
0
0
0
0
0
0
0
0
0
0
0
0
0
0
0
0
0
0
0
245
238
251
0
0
0
0
0
0
0
0
0
0
0
0
0
0
0
0
0
0
0
0
0
0
0
0
0
0
0
0
0
0
0
0
0
0
0
0
0
0
0
0
0
0
0
0
0
0
0
0
0
0
0
0
0
0
0
0
0
0
0
0
0
0
0
0
0
0
0
0
0
0
0
0
0
0
0
0
0
0
0
0
253
248
246
245
247
247
244
34
0
0
0
0
0
0
0
0
0
242
234
236
250
247
246
243
238
237
236
237
241
245
250
252
253
0
0
0
0
0
0
0
0
0
0
0
0
251
0
0
0
0
0
0
0
0
0
0
0
0
0
0
0
0
0
0
0
0
0
0
0
0
0
0
0
0
0
0
0
0
0
0
0
0
0
0
0
0
0
0
0
0
0
0
0
0
0
0
0
0
0
0
0
0
0
0
0
0
0
0
0
0
0
0
0
0
0
0
0
0
0
0
0
0
0
101
252
253
0
0
0
0
0
0
0
0
0
236
253
0
0
0
0
0
0
0
238
233
243
236
237
246
242
238
236
236
239
244
248
245
240
234
234
235
237
241
247
252
0
0
0
0
0
0
0
0
0
0
0
0
0
0
0
0
0
0
0
0
0
0
0
0
0
0
0
0
251
246
241
237
236
236
239
0
0
0
0
0
0
0
0
0
0
0
0
0
0
0
0
0
0
0
0
0
0
0
0
0
0
0
0
0
0
0
0
0
0
0
0
0
0
0
0
0
0
0
0
0
0
0
0
252
242
101
0
0
0
0
0
0
0
0
0
0
0
0
237
250
0
0
0
0
253
237
236
242
234
240
0
0
0
0
0
252
248
243
239
240
242
246
248
247
245
240
234
235
235
0
0
0
0
0
0
0
0
0
0
0
0
0
0
0
0
135
252
252
251
250
249
247
243
240
235
233
233
233
235
236
236
236
233
236
0
0
0
0
0
0
0
0
0
0
0
0
0
0
0
0
0
0
0
0
0
0
0
0
0
0
0
0
0
0
0
0
0
0
0
0
0
0
0
0
0
0
0
0
0
0
252
234
249
0
0
0
0
0
0
0
0
0
0
0
0
0
0
234
0
0
0
253
234
236
250
234
235
0
0
0
0
0
0
0
0
0
0
0
0
0
248
244
237
244
253
234
244
0
0
0
0
0
0
0
0
0
0
0
247
241
237
234
235
234
234
234
234
235
234
235
235
236
242
245
249
252
251
248
245
244
242
234
242
0
0
0
0
0
0
0
0
0
0
0
0
0
0
0
0
0
0
0
0
0
0
0
0
0
0
0
0
0
0
0
0
0
0
0
0
0
0
0
0
0
0
0
0
0
237
247
0
0
0
0
0
250
246
242
241
242
244
247
252
0
251
237
253
0
249
235
235
250
233
235
251
0
0
0
0
0
0
0
0
0
0
0
0
0
0
253
233
244
252
234
0
0
0
0
0
0
0
0
0
0
246
235
235
234
233
233
234
238
239
238
239
238
237
238
239
238
238
240
242
245
247
250
237
233
245
250
236
245
0
0
0
0
0
0
0
0
0
0
0
0
0
0
0
0
0
0
0
0
0
0
0
0
0
0
0
0
0
0
0
0
0
0
0
0
0
0
0
0
0
0
0
0
243
241
252
246
245
240
236
237
237
239
241
243
242
242
242
242
243
243
243
0
241
234
241
250
245
234
236
0
0
0
0
0
0
0
0
0
0
0
0
0
253
244
253
247
233
250
0
0
0
0
0
0
0
0
0
0
252
234
236
239
243
243
241
234
235
235
235
237
242
247
252
0
0
0
0
0
0
0
0
239
234
241
255
241
245
0
0
0
0
0
0
0
0
0
0
0
0
0
0
0
0
0
0
0
0
0
0
0
0
0
0
0
0
0
0
0
0
0
0
0
0
0
0
0
0
0
250
248
247
244
234
234
233
247
247
237
237
236
236
236
236
236
236
239
252
233
235
0
244
234
233
250
246
234
236
251
0
0
0
0
0
0
0
0
0
250
236
235
244
240
235
234
239
0
0
0
0
0
0
0
0
0
0
0
0
235
245
237
234
239
245
250
253
169
0
0
0
0
0
0
0
0
0
0
0
0
0
0
245
234
235
245
252
238
251
0
0
0
0
0
0
0
0
0
0
0
0
0
0
0
0
0
0
0
0
0
0
0
0
0
0
0
0
0
0
0
0
0
0
0
0
0
0
237
235
234
235
237
238
242
249
241
233
236
249
169
252
244
244
243
239
234
245
232
253
34
235
235
239
248
235
253
0
0
0
0
0
0
0
0
0
0
0
0
245
234
234
246
252
255
251
250
249
0
0
0
0
0
0
0
0
0
249
233
246
236
0
0
0
0
0
0
0
0
0
0
0
0
0
0
0
0
0
0
0
0
0
247
234
233
237
249
243
243
0
0
0
0
0
0
0
0
0
0
0
0
0
0
0
0
0
0
0
0
0
0
0
0
0
0
0
0
0
0
0
0
0
0
0
0
0
0
247
235
234
241
241
235
235
234
237
253
0
0
0
0
0
0
243
234
241
235
240
0
0
240
233
245
240
246
0
0
0
0
0
0
0
0
0
0
0
0
0
0
235
245
241
235
234
234
234
236
244
242
241
239
237
235
234
234
240
248
242
234
244
0
0
0
0
0
0
0
0
0
0
0
0
0
0
0
0
0
0
0
0
0
253
234
234
234
238
252
237
0
0
0
0
0
0
34
136
170
170
170
136
68
34
0
0
0
0
0
0
0
0
0
0
242
240
240
240
242
243
243
245
245
248
0
0
0
0
252
251
252
252
251
253
0
0
0
0
0
0
0
0
0
238
235
240
240
233
233
233
233
233
232
251
233
234
237
0
0
0
0
0
0
0
0
0
0
0
0
0
246
243
243
244
242
241
240
240
243
243
244
244
244
241
241
238
240
246
251
0
0
0
0
0
0
0
0
0
0
0
0
0
0
0
0
0
0
0
0
0
0
253
249
235
235
234
238
248
240
252
0
0
0
0
0
0
0
0
0
0
0
0
0
0
0
0
0
0
68
0
102
234
234
234
245
243
243
243
234
235
235
234
247
0
0
0
0
0
0
0
0
0
0
0
0
0
0
0
0
0
0
247
237
240
251
248
248
249
250
249
248
247
233
235
247
0
0
0
0
0
0
0
0
0
0
0
0
0
0
0
247
240
241
242
241
236
233
233
233
234
235
242
251
0
0
0
0
0
0
0
0
0
0
0
0
0
0
0
0
0
0
0
0
203
252
247
243
242
241
243
247
254
248
237
238
237
251
242
250
0
0
0
0
0
0
0
0
0
0
0
0
0
0
0
0
0
0
0
250
236
236
255
238
235
235
235
238
237
237
237
247
0
0
0
0
0
0
0
0
0
0
0
0
0
0
0
0
0
0
0
0
203
253
248
242
237
234
233
233
233
245
135
0
0
0
0
0
0
0
0
0
0
0
252
241
250
0
0
0
0
0
0
0
0
252
251
251
253
0
0
0
0
0
0
0
0
0
0
0
0
0
0
0
0
0
0
0
0
0
0
241
248
252
68
0
0
0
0
0
0
0
253
239
241
241
246
249
245
250
0
0
0
0
0
0
0
0
0
0
0
0
0
67
251
248
246
241
237
253
244
243
0
0
0
0
0
0
0
0
0
0
0
0
0
0
0
0
0
0
0
0
0
0
0
0
0
0
0
0
0
0
0
0
0
0
0
0
0
0
0
0
0
0
0
0
0
0
0
0
0
0
252
239
249
0
0
0
0
0
0
0
0
0
0
0
0
0
0
0
0
0
0
0
0
0
0
0
0
0
0
0
0
0
0
0
0
0
0
238
0
0
0
0
0
0
0
0
0
0
0
0
245
244
246
247
252
249
0
0
0
0
0
0
0
0
133
249
248
247
246
245
246
246
246
247
248
241
236
254
0
0
0
0
0
0
0
0
0
0
0
0
0
0
0
0
0
0
0
0
0
0
0
0
0
0
0
0
0
0
0
0
0
0
0
0
0
0
0
0
0
0
0
0
0
0
0
0
0
246
242
0
0
0
0
0
0
0
0
0
0
0
0
0
0
0
0
0
0
0
0
0
0
0
0
0
0
0
0
0
0
0
0
0
0
0
0
253
238
0
0
0
0
0
0
0
0
0
0
0
0
251
246
247
249
33
0
0
0
0
0
0
0
0
0
0
0
0
0
249
246
244
242
241
239
238
248
0
136
0
0
0
0
0
0
0
0
0
0
0
0
0
0
0
0
0
0
0
0
0
0
0
0
0
0
0
0
0
0
0
0
0
0
0
0
0
0
0
0
0
0
0
0
0
0
0
246
241
0
0
0
0
0
0
0
0
0
0
0
0
252
244
252
0
0
0
0
248
245
247
251
0
0
0
0
0
0
0
0
0
0
0
203
246
249
250
251
0
0
0
0
0
0
0
0
0
0
0
0
0
0
66
250
249
200
0
0
0
0
0
0
0
0
67
251
250
249
249
248
248
248
248
251
135
0
0
34
0
0
0
0
0
0
0
0
0
0
0
0
0
0
0
0
0
0
0
0
0
0
0
0
0
0
0
0
0
0
0
0
0
0
0
0
0
0
0
0
0
0
0
0
0
0
0
0
241
236
249
0
0
0
0
0
0
0
0
0
0
0
0
241
243
0
0
252
249
0
0
246
238
252
0
0
0
0
0
0
0
249
245
248
0
237
252
0
0
0
0
0
0
0
0
0
0
253
251
0
0
0
0
0
0
0
167
251
250
234
0
0
0
0
0
0
0
0
0
0
0
0
0
0
0
0
102
0
0
0
0
0
0
0
0
0
0
0
0
0
0
0
0
0
0
0
0
0
0
0
0
0
0
0
0
0
0
0
0
0
0
0
0
0
0
0
0
0
0
0
0
0
0
0
0
0
0
135
249
238
248
0
0
0
0
0
0
0
0
0
0
0
252
241
251
0
0
0
0
0
0
247
242
0
250
247
248
253
253
0
0
0
0
0
238
246
0
0
0
0
0
0
246
242
249
252
254
0
0
0
0
0
0
0
0
0
0
0
0
0
0
0
0
0
0
0
0
0
0
0
0
0
204
0
0
0
0
0
0
0
0
0
0
0
0
0
0
0
0
0
0
0
0
0
0
0
0
0
0
0
0
0
0
0
0
0
0
0
0
0
0
0
0
0
0
0
0
0
0
0
0
0
0
0
0
0
0
0
246
244
253
0
0
0
0
0
0
0
0
0
251
235
251
0
0
0
0
0
0
0
253
245
252
0
0
0
0
0
0
0
0
0
0
240
247
0
251
247
242
241
251
0
0
102
0
0
0
0
0
0
0
0
0
0
0
0
0
0
0
0
0
0
0
0
0
0
0
238
0
0
0
0
0
0
0
0
0
0
0
0
0
0
0
0
0
0
0
0
0
0
0
0
0
0
0
0
0
0
0
0
0
0
0
0
0
0
0
0
0
0
0
0
0
0
0
0
0
0
0
0
0
0
0
0
0
0
0
0
245
247
0
0
0
0
0
0
249
238
235
252
0
0
0
0
0
0
0
0
0
0
0
0
0
0
0
0
0
0
0
0
0
0
203
245
246
0
0
0
0
0
0
0
0
0
0
0
34
238
0
0
0
0
0
0
0
0
0
0
0
0
136
0
0
0
0
0
0
0
0
0
0
0
0
0
0
0
0
0
0
0
0
0
0
0
0
0
0
0
0
0
0
0
0
0
0
0
0
0
0
0
0
0
0
0
0
0
0
0
0
0
0
0
0
0
0
0
0
0
0
0
0
0
0
0
0
0
0
249
244
247
247
245
244
242
245
250
0
0
0
0
0
0
0
0
0
0
0
0
0
0
0
0
0
0
0
0
0
0
0
0
0
0
0
0
0
0
0
0
0
0
0
0
0
0
0
0
0
0
0
0
0
0
0
0
0
0
0
0
0
0
0
0
0
0
0
0
0
0
0
0
0
0
0
0
0
0
0
0
0
0
0
0
0
0
0
0
0
0
0
0
0
0
0
0
0
0
0
0
0
0
0
0
0
0
0
0
0
0
0
0
0
0
0
0
0
0
0
0
0
0
0
0
0
0
0
0
0
0
0
0
0
0
0
0
0
0
0
0
0
0
0
0
0
0
0
0
0
0
0
0
0
0
0
0
0
0
0
0
0
0
0
0
0
0
0
0
0
0
0
0
0
0
0
0
0
0
0
0
0
0
0
0
0
0
0
0
0
0
0
0
0
0
0
0
0
0
0
0
0
0
0
0
0
0
0
0
0
0
0
0
0
0
0
0
0
0
0
0
0
0
0
0
0
0
0
0
0
0
0
0
0
0
0
0
0
0
0
0
0
0
0
0
0
0
0
0
0
0
0
0
0
0
0
0
0
0
0
0
0
0
0
0
0
0
0
0
0
0
0
0
0
0
0
0
0
0
0
0
0
0
0
0
0
0
0
0
0
0
0
0
0
0
0
0
0
0
0
0
0
0
0
0
0
0
0
0
0
0
0
0
0
0
0
0
0
0
0
0
0
0
0
0
0
0
0
0
0
0
0
0
0
0
0
