#define freewpc_width 128
#define freewpc_height 32
static unsigned char freewpc_bits[] = {
   0x00, 0x00, 0x00, 0x00, 0x00, 0x00, 0x00, 0x00, 0x00, 0x00, 0x00, 0x00,
   0x00, 0x00, 0x00, 0x00, 0x00, 0x00, 0x00, 0x00, 0x00, 0x00, 0x00, 0x00,
   0x00, 0x00, 0x00, 0x00, 0x00, 0x00, 0x00, 0x00, 0x00, 0x00, 0x00, 0x00,
   0x00, 0x00, 0x00, 0x00, 0x00, 0x00, 0x00, 0x00, 0x00, 0x00, 0x00, 0x00,
   0x00, 0x00, 0x00, 0x00, 0x00, 0x00, 0x00, 0x00, 0x00, 0x00, 0x00, 0x00,
   0x00, 0x00, 0x00, 0x00, 0x00, 0x00, 0x00, 0x00, 0x00, 0x00, 0x00, 0x00,
   0x00, 0x00, 0x00, 0x00, 0x00, 0x00, 0x00, 0x00, 0x00, 0x00, 0x00, 0x00,
   0x00, 0x00, 0x00, 0x00, 0x00, 0x00, 0x0e, 0x00, 0x00, 0x00, 0x00, 0x00,
   0x80, 0x03, 0x78, 0x00, 0x00, 0x00, 0x00, 0x00, 0x07, 0x0f, 0x8f, 0xff,
   0x01, 0xf0, 0x00, 0x00, 0x80, 0x07, 0x7f, 0x00, 0x00, 0x00, 0x00, 0x00,
   0x0f, 0x0f, 0x8f, 0xff, 0x03, 0xf8, 0x07, 0x00, 0x80, 0xff, 0x7f, 0x00,
   0x00, 0x00, 0x00, 0x00, 0x0f, 0x8f, 0x87, 0xff, 0x07, 0xfc, 0x3f, 0x00,
   0x80, 0xff, 0x3f, 0x00, 0x00, 0x00, 0x00, 0x00, 0x9f, 0x8f, 0x87, 0x87,
   0x0f, 0xfc, 0x3f, 0x00, 0x00, 0xff, 0x07, 0x00, 0x00, 0x00, 0x00, 0x00,
   0x9e, 0x8f, 0x83, 0x07, 0x0f, 0x1e, 0x3f, 0x00, 0x00, 0x0f, 0x00, 0x00,
   0x00, 0x00, 0x00, 0x00, 0x9e, 0x9f, 0x83, 0x07, 0x1e, 0x1f, 0x00, 0x00,
   0x00, 0x0e, 0x00, 0x00, 0x00, 0x00, 0x00, 0x00, 0x9c, 0xdf, 0x83, 0x07,
   0x1e, 0x0f, 0x00, 0x00, 0x00, 0x0e, 0x00, 0x00, 0x00, 0x00, 0x00, 0x00,
   0x9c, 0xdf, 0x83, 0x07, 0x1e, 0x0f, 0x00, 0x00, 0x00, 0x0e, 0x00, 0xf8,
   0x83, 0x1f, 0x00, 0x00, 0xdc, 0xdf, 0x81, 0x07, 0x1e, 0x0f, 0x00, 0x00,
   0x00, 0xfe, 0x07, 0xfe, 0xe3, 0x3f, 0xc0, 0x0f, 0xfc, 0xdf, 0x81, 0x03,
   0x1f, 0x0f, 0x00, 0x00, 0x00, 0xfe, 0x0f, 0xff, 0xe3, 0x7f, 0xf0, 0x1f,
   0xfc, 0xff, 0x81, 0xff, 0x1f, 0x07, 0x00, 0x00, 0x00, 0xfe, 0x0f, 0x3f,
   0xe0, 0xfd, 0xf0, 0x3f, 0xf8, 0xfd, 0x81, 0xff, 0x0f, 0x07, 0x00, 0x00,
   0x00, 0x0e, 0x0f, 0x0f, 0xe0, 0xf0, 0xf0, 0x7e, 0xf8, 0xf9, 0x80, 0xff,
   0x07, 0x07, 0x00, 0x00, 0x00, 0x0f, 0x00, 0x07, 0xe0, 0xff, 0x70, 0x78,
   0xf8, 0xf9, 0x80, 0x03, 0x00, 0x07, 0x00, 0x00, 0x00, 0x0f, 0x00, 0x07,
   0xe0, 0x7f, 0xf0, 0x7f, 0xf8, 0xf8, 0x80, 0x03, 0x00, 0x07, 0x00, 0x00,
   0x00, 0x07, 0x00, 0x07, 0xe0, 0x3f, 0xf0, 0x3f, 0xf8, 0xf8, 0x80, 0x03,
   0x00, 0x07, 0x00, 0x00, 0x00, 0x07, 0x00, 0x07, 0xe0, 0x03, 0xf0, 0x1f,
   0x70, 0xf8, 0xc1, 0x03, 0x00, 0x07, 0x00, 0x00, 0x80, 0x07, 0x00, 0x07,
   0xe0, 0x0f, 0xf0, 0x01, 0x70, 0xf8, 0xc1, 0x03, 0x00, 0x0f, 0x3c, 0x00,
   0x80, 0x07, 0x00, 0x07, 0xc0, 0x3f, 0xf0, 0x07, 0x70, 0xf0, 0xc1, 0x03,
   0x00, 0x1f, 0x3f, 0x00, 0xc0, 0x07, 0x00, 0x07, 0x80, 0x3f, 0xe0, 0x1f,
   0x70, 0xf0, 0xc0, 0x01, 0x00, 0xff, 0x3f, 0x00, 0xc0, 0x03, 0x00, 0x07,
   0x00, 0x3e, 0xc0, 0x1f, 0x70, 0xf0, 0xc0, 0x01, 0x00, 0xfe, 0x0f, 0x00,
   0xc0, 0x03, 0x00, 0x00, 0x00, 0x00, 0x00, 0x1f, 0x00, 0xf0, 0x00, 0x00,
   0x00, 0xf8, 0x07, 0x00, 0x00, 0x00, 0x00, 0x00, 0x00, 0x00, 0x00, 0x00,
   0x00, 0xe0, 0x00, 0x00, 0x00, 0xf0, 0x01, 0x00, 0x00, 0x00, 0x00, 0x00,
   0x00, 0x00, 0x00, 0x00, 0x00, 0x00, 0x00, 0x00, 0x00, 0x00, 0x00, 0x00,
   0x00, 0x00, 0x00, 0x00, 0x00, 0x00, 0x00, 0x00, 0x00, 0x00, 0x00, 0x00,
   0x00, 0x00, 0x00, 0x00, 0x00, 0x00, 0x00, 0x00, 0x00, 0x00, 0x00, 0x00,
   0x00, 0x00, 0x00, 0x00, 0x00, 0x00, 0x00, 0x00 };
