P2
# CREATOR: The GIMP's PNM Filter Version 1.0
128 32
255
255
255
255
255
255
255
255
255
255
255
255
255
255
255
255
255
255
255
255
255
255
255
255
255
255
255
255
255
255
255
255
255
255
255
255
255
255
255
255
255
255
255
255
255
255
255
255
255
255
255
255
255
255
255
255
255
255
255
255
255
250
228
209
199
196
202
216
236
255
255
255
255
255
255
255
255
255
255
255
255
255
255
255
255
255
255
255
255
255
255
255
255
255
255
255
255
255
255
255
255
255
255
255
255
255
255
255
255
255
255
255
255
255
255
255
255
255
255
255
255
255
255
255
255
255
255
255
255
255
255
255
255
255
255
255
255
255
255
255
255
255
255
255
255
255
255
255
255
255
255
255
255
255
255
255
255
255
255
255
255
255
255
255
255
255
255
255
255
255
255
255
255
255
255
255
255
255
255
255
255
255
255
255
255
255
255
252
236
201
169
150
139
136
143
156
179
214
246
255
255
255
255
255
255
255
255
255
255
255
255
255
255
255
255
255
255
255
255
255
255
255
255
255
255
255
255
255
255
255
255
255
255
255
255
255
255
255
255
255
255
255
255
255
255
255
255
255
255
255
255
255
255
255
255
255
255
255
255
255
255
255
255
255
255
255
255
255
255
255
255
255
255
255
255
255
255
255
255
255
255
255
255
255
255
255
255
255
255
255
255
255
255
255
255
255
255
255
255
255
255
255
255
255
255
255
255
255
255
255
255
255
255
255
252
233
180
146
136
136
136
136
136
136
138
156
199
246
255
255
255
255
255
255
255
255
255
255
255
255
255
255
255
255
255
255
255
255
255
255
255
255
255
255
255
255
255
255
255
255
255
255
255
255
255
255
255
255
255
255
255
255
255
255
255
255
255
255
255
255
255
255
255
255
255
255
255
255
255
255
255
255
255
255
255
255
255
255
255
255
255
255
255
255
255
255
255
255
255
255
255
255
255
255
255
255
255
255
255
255
255
255
255
255
255
255
255
255
255
255
255
255
255
255
255
255
255
255
255
255
255
255
243
185
139
136
136
136
136
136
136
136
136
136
151
208
255
255
255
255
255
255
255
255
255
255
255
255
255
255
255
255
255
255
255
255
255
255
255
255
255
255
255
255
255
255
255
255
255
255
255
255
255
255
255
255
255
255
255
255
255
255
255
255
255
255
255
255
255
255
255
255
255
255
255
255
255
255
255
255
255
255
255
255
255
255
255
255
255
255
255
255
255
255
255
255
255
255
255
255
255
255
255
255
255
255
255
255
255
255
255
255
255
255
255
255
255
255
255
255
255
255
255
255
255
255
255
255
255
250
215
146
136
136
136
136
136
136
136
136
136
136
138
164
236
255
255
255
255
255
255
255
255
255
255
255
255
255
255
255
255
255
255
255
255
255
255
255
255
255
255
255
255
255
255
255
255
255
255
255
255
255
255
255
255
255
255
255
255
255
255
255
255
255
255
255
255
255
255
255
255
255
255
255
255
255
255
255
255
255
255
255
255
255
255
255
255
255
255
255
255
255
255
255
255
255
255
255
255
255
255
255
255
255
255
255
255
255
255
255
255
255
255
255
255
255
255
255
255
255
255
255
255
255
255
255
255
242
179
136
136
136
136
136
136
136
136
136
136
136
136
146
202
255
255
255
255
255
255
255
255
255
255
255
255
255
255
255
255
255
255
255
255
255
255
255
255
255
255
255
255
255
255
255
255
255
255
255
255
255
255
255
255
255
255
255
255
255
255
255
255
255
255
255
255
255
255
255
255
255
255
255
255
255
255
255
248
223
193
172
162
162
172
193
223
248
255
255
255
255
255
255
255
255
255
255
255
255
255
255
255
255
255
255
255
255
255
255
255
255
255
255
255
255
255
255
255
255
255
255
255
255
255
255
255
235
153
136
136
136
136
136
136
136
136
136
136
136
136
140
176
255
255
255
255
255
255
255
255
255
255
255
255
255
255
255
255
255
255
255
255
255
255
255
255
255
255
255
255
255
255
255
255
255
255
255
255
255
255
255
248
223
193
172
162
162
172
193
223
248
255
255
255
255
255
255
255
255
255
255
255
255
255
227
178
151
144
139
136
136
139
144
151
178
227
255
255
255
255
255
255
255
255
255
255
255
255
255
255
255
255
255
255
255
255
255
255
255
255
255
255
255
255
255
255
255
255
255
255
255
255
255
255
232
139
136
136
136
136
136
136
136
136
136
136
136
136
136
162
255
255
255
255
255
255
255
255
255
255
255
255
255
255
255
255
255
255
255
255
255
255
255
255
255
255
255
255
255
255
255
255
255
255
255
255
255
255
227
0
0
144
139
136
136
139
144
151
178
227
255
255
255
255
255
255
255
255
255
255
250
213
163
141
136
136
136
136
136
0
0
0
0
0
0
0
0
0
0
0
0
255
0
0
0
0
0
0
0
0
0
0
0
255
255
255
255
0
0
0
0
0
0
0
0
0
0
0
0
255
255
0
0
0
0
0
0
0
0
0
0
0
0
136
0
0
0
0
0
0
255
255
255
255
0
0
0
255
255
255
0
0
0
0
0
0
0
0
0
0
0
0
0
0
0
0
255
255
255
255
255
255
255
0
0
0
0
0
136
0
0
0
0
136
136
136
141
163
213
250
255
255
255
255
255
255
255
255
216
159
138
136
136
136
136
136
136
136
136
0
0
0
159
216
255
255
255
0
0
255
255
0
0
0
0
255
255
255
0
0
0
0
255
255
255
255
0
0
0
0
255
255
255
255
255
0
0
255
255
255
0
0
0
0
136
136
136
136
136
0
0
136
136
0
0
0
0
255
255
255
255
255
0
0
0
255
255
255
255
255
0
0
255
255
0
0
0
0
255
255
255
0
0
0
0
255
255
255
255
255
0
0
0
0
138
136
136
136
136
0
0
136
136
136
136
138
159
216
255
255
255
255
255
255
255
227
171
138
136
136
136
136
136
136
136
136
136
0
0
0
138
171
227
255
255
0
0
255
255
0
0
0
0
255
255
255
255
0
0
0
0
255
255
255
0
0
0
0
255
255
255
255
255
0
0
255
255
255
0
0
0
0
136
136
136
136
136
0
0
136
136
136
0
0
0
255
255
255
255
0
0
0
0
255
255
255
255
255
0
255
255
255
0
0
0
0
255
255
255
255
0
0
0
255
255
255
255
0
0
0
0
138
136
136
136
136
136
0
0
136
136
136
136
136
138
171
227
255
255
255
255
255
248
193
141
136
136
136
136
136
136
136
136
136
136
0
0
0
136
141
193
248
255
255
0
255
255
0
0
0
0
255
255
255
255
0
0
0
0
255
255
255
0
0
0
0
255
255
255
255
255
255
0
255
255
255
0
0
0
0
136
136
136
136
136
136
0
136
136
138
0
0
0
255
255
255
255
0
0
0
0
255
255
255
255
0
0
255
255
255
0
0
0
0
255
255
255
255
0
0
0
0
255
255
255
0
0
0
141
136
136
136
136
136
136
136
0
136
136
136
136
136
136
141
193
248
255
255
255
255
228
169
136
136
136
136
136
136
136
136
136
136
136
0
0
0
136
136
169
228
255
255
255
255
255
0
0
0
0
255
255
255
255
0
0
0
0
255
255
255
0
0
0
0
255
255
255
255
0
255
255
255
255
255
0
0
0
0
136
136
136
136
0
136
136
136
136
151
0
0
0
255
255
255
255
0
0
0
0
0
255
255
255
0
0
255
255
255
0
0
0
0
255
255
255
255
0
0
0
0
255
255
0
0
0
0
136
136
136
136
136
136
136
136
136
136
136
136
136
136
136
136
169
228
255
255
255
255
211
152
136
136
136
136
136
136
136
136
136
136
136
0
0
0
136
136
152
211
0
255
255
255
255
0
0
0
0
255
255
255
255
0
0
0
255
255
255
255
0
0
0
0
255
255
255
255
0
255
255
255
255
255
0
0
0
0
146
136
136
136
0
136
136
138
156
199
0
0
0
0
255
255
255
0
255
0
0
0
255
255
255
0
255
255
255
255
0
0
0
0
255
255
255
255
0
0
0
0
255
255
0
0
0
0
136
136
136
136
136
136
136
136
136
136
136
136
136
136
136
136
152
211
255
255
255
255
200
141
136
136
136
136
136
136
136
136
136
136
136
0
0
0
136
136
141
200
0
255
255
255
255
0
0
0
0
255
255
255
0
0
0
255
255
255
255
255
0
0
0
0
0
0
0
0
0
255
255
255
255
255
0
0
0
0
0
0
0
0
0
143
156
179
214
246
255
0
0
0
255
255
0
0
255
0
0
0
255
255
255
0
255
255
255
255
0
0
0
0
255
255
255
255
0
0
0
255
255
255
0
0
0
0
136
136
136
136
136
136
136
136
136
136
136
136
136
136
136
136
141
200
255
255
255
255
196
136
136
136
136
136
136
136
136
136
136
136
136
0
0
0
0
0
0
0
0
255
255
255
255
0
0
0
0
0
0
0
0
255
255
255
255
255
255
255
0
0
0
0
0
0
0
0
0
255
255
255
255
255
0
0
0
0
0
0
0
0
0
202
216
236
255
255
255
0
0
0
255
255
0
0
255
0
0
0
255
255
0
0
255
255
255
255
0
0
0
0
255
255
255
0
0
0
255
255
255
255
0
0
0
0
136
136
136
136
136
136
136
136
136
136
136
136
136
136
136
136
136
196
255
255
255
255
198
138
136
136
136
136
136
136
136
136
136
136
136
0
0
0
136
136
138
198
0
255
255
255
255
0
0
0
0
255
255
0
0
0
0
255
255
255
255
255
0
0
0
0
255
255
255
255
0
255
255
255
255
255
0
0
0
0
255
255
255
255
0
255
255
255
255
255
255
0
0
0
255
255
0
255
255
0
0
0
0
255
0
0
255
255
255
255
0
0
0
0
0
0
0
0
0
255
255
255
255
255
0
0
0
0
136
136
136
136
136
136
136
136
136
136
136
136
136
136
136
136
138
198
255
255
255
255
206
147
136
136
136
136
136
136
136
136
136
136
136
0
0
0
136
136
147
206
0
255
255
255
255
0
0
0
0
255
255
255
0
0
0
0
255
255
255
255
0
0
0
0
255
255
255
255
0
255
255
255
255
255
0
0
0
0
255
255
255
255
0
255
255
255
255
255
255
0
0
0
0
255
0
255
255
255
0
0
0
251
0
236
232
232
236
243
0
0
0
0
255
255
255
255
255
255
255
255
255
255
0
0
0
0
136
136
136
136
136
136
136
136
136
136
136
136
136
136
136
136
147
206
255
255
255
255
221
162
136
136
136
136
136
136
136
136
136
136
136
0
0
0
136
136
162
221
255
255
255
255
255
0
0
0
0
233
212
199
0
0
0
0
255
255
255
255
0
0
0
0
255
255
255
255
255
255
0
255
255
255
0
0
0
0
255
255
255
255
255
255
0
255
255
255
255
255
0
0
0
0
0
255
255
255
0
0
0
222
0
155
140
140
155
185
0
0
0
0
255
255
255
255
255
255
255
255
255
255
0
0
0
0
136
136
136
136
136
136
136
136
0
136
136
136
136
136
136
136
162
221
255
255
255
255
241
182
136
136
136
136
136
136
136
136
136
136
136
0
0
0
136
136
182
241
255
255
255
255
255
0
0
0
0
173
152
140
0
0
0
0
226
255
255
255
0
0
0
0
255
255
255
255
255
255
0
255
255
255
0
0
0
0
255
255
255
255
255
255
0
255
255
255
255
255
0
0
0
0
0
255
255
255
0
0
0
0
0
136
136
136
136
136
0
0
0
0
255
255
255
255
255
255
255
255
255
255
255
0
0
0
0
136
136
136
136
136
136
136
0
136
136
136
136
136
136
136
182
241
255
255
255
255
253
214
157
136
136
136
136
136
136
136
136
136
136
0
0
0
136
157
214
253
255
255
255
255
255
0
0
0
0
136
136
136
136
0
0
0
171
226
255
255
0
0
0
0
255
255
255
255
255
255
0
255
255
255
0
0
0
0
255
255
255
255
255
255
0
255
255
255
255
255
0
0
0
0
255
255
255
255
0
0
0
0
136
136
136
136
136
136
0
0
0
0
255
255
255
255
255
255
255
255
255
255
255
0
0
0
0
136
136
136
136
136
136
0
0
136
136
136
136
136
136
157
214
253
255
255
255
255
255
248
199
146
136
136
136
136
136
136
136
136
136
0
0
0
146
199
248
255
255
255
255
255
255
0
0
0
0
136
136
136
136
0
0
0
0
175
241
255
0
0
0
0
255
255
255
255
255
0
0
255
255
255
0
0
0
0
255
255
255
255
255
0
0
255
255
255
255
255
0
0
0
0
255
255
255
255
233
0
0
0
136
136
136
136
136
136
0
0
0
0
255
255
255
255
255
255
255
255
255
255
255
255
0
0
0
0
136
136
136
136
136
0
0
136
136
136
136
136
146
199
248
255
255
255
255
255
255
255
241
192
146
136
136
136
136
136
136
0
0
0
0
0
0
0
255
255
255
255
255
255
0
0
0
0
0
0
0
136
136
136
0
0
0
0
208
0
0
0
0
0
0
0
0
0
0
0
0
255
255
0
0
0
0
0
0
0
0
0
0
0
0
255
255
255
255
255
255
0
0
0
255
255
255
255
212
0
0
0
136
136
136
136
136
0
0
0
0
0
0
0
255
255
255
255
255
255
255
255
255
255
255
255
0
0
0
0
0
0
0
0
0
136
136
136
136
146
192
241
255
255
255
255
255
255
255
255
254
244
207
157
136
136
136
136
136
136
136
136
157
207
244
254
255
255
255
255
255
255
255
236
155
136
136
136
136
136
136
136
136
136
136
140
178
255
255
255
255
255
255
255
255
255
255
255
255
255
255
255
255
255
255
255
255
255
255
255
255
255
255
255
255
255
255
255
255
255
255
255
255
255
255
255
199
140
136
136
136
136
136
136
136
136
136
136
140
199
255
255
255
255
255
255
255
255
255
255
255
255
255
255
254
244
207
157
136
136
136
136
136
136
136
136
157
207
244
254
255
255
255
255
255
255
255
255
255
255
248
229
200
170
149
138
138
149
170
200
229
248
255
255
255
255
255
255
255
255
255
232
140
136
136
136
136
136
136
136
136
136
136
136
163
255
255
255
255
255
255
255
255
255
255
255
255
255
255
255
255
255
255
255
255
255
255
255
255
255
255
255
255
255
255
255
255
255
255
255
255
255
255
255
196
136
136
136
136
136
136
136
136
136
136
136
136
196
255
255
255
255
255
255
255
255
255
255
255
255
255
255
255
255
248
229
200
170
149
138
138
149
170
200
229
248
255
255
255
255
255
255
255
255
255
255
255
255
255
253
247
240
234
232
232
234
240
247
253
255
255
255
255
255
255
255
255
255
255
232
140
136
136
136
136
136
136
136
136
136
136
136
163
255
255
255
255
255
255
255
255
255
255
255
255
255
255
255
255
255
255
255
255
255
255
255
255
255
255
255
255
255
255
255
255
255
255
255
255
255
255
255
203
143
136
136
136
136
136
136
136
136
136
136
143
203
255
255
255
255
255
255
255
255
255
255
255
255
255
255
255
255
255
253
247
240
234
232
232
234
240
247
253
255
255
255
255
255
255
255
255
255
255
255
255
255
255
255
255
255
255
255
255
255
255
255
255
255
255
255
255
255
255
255
255
255
255
236
155
136
136
136
136
136
136
136
136
136
136
140
178
255
255
255
255
255
255
255
255
255
255
255
255
255
255
255
255
255
255
255
255
255
255
255
255
255
255
255
255
255
255
255
255
255
255
255
255
255
255
255
219
159
136
136
136
136
136
136
136
136
136
136
159
219
255
255
255
255
255
255
255
255
255
255
255
255
255
255
255
255
255
255
255
255
255
255
255
255
255
255
255
255
255
255
255
255
255
255
255
255
255
255
255
255
255
255
255
255
255
255
255
255
255
255
255
255
255
255
255
255
255
255
255
255
255
243
185
136
136
136
136
136
136
136
136
136
136
148
208
255
255
255
255
255
255
255
255
255
255
255
255
255
255
255
255
255
255
255
255
255
255
255
255
255
255
255
255
255
255
255
255
255
255
255
255
255
255
255
241
186
140
136
136
136
136
136
136
136
136
140
186
241
255
255
255
255
255
255
255
255
255
255
255
255
255
255
255
255
255
255
255
255
255
255
255
255
255
255
255
255
255
255
255
255
255
255
255
255
255
255
255
255
255
255
255
255
255
255
255
255
255
255
255
255
255
255
255
255
255
255
255
255
255
251
222
155
136
136
136
136
136
136
136
136
140
175
241
255
255
255
255
255
255
255
255
255
255
255
255
255
255
255
255
255
255
255
255
255
255
255
255
255
255
255
255
255
255
255
255
255
255
255
255
255
255
255
255
226
171
140
136
136
136
136
136
136
140
171
226
255
255
255
255
255
255
255
255
255
255
255
255
255
255
255
255
255
255
255
255
255
255
255
255
255
255
255
255
255
255
255
255
255
255
255
255
255
255
255
255
255
255
255
255
255
255
255
255
255
255
255
255
255
255
255
255
255
255
255
255
255
255
255
248
207
155
136
136
136
136
136
136
140
171
226
255
255
255
255
255
255
255
255
255
255
255
255
255
255
255
255
255
255
255
255
255
255
255
255
255
255
255
255
255
255
255
255
255
255
255
255
255
255
255
255
255
255
226
175
148
140
136
136
140
148
175
226
255
255
255
255
255
255
255
255
255
255
255
255
255
255
255
255
255
255
255
255
255
255
255
255
255
255
255
255
255
255
255
255
255
255
255
255
255
255
255
255
255
255
255
255
255
255
255
255
255
255
255
255
255
255
255
255
255
255
255
255
255
255
255
255
255
248
211
173
152
140
136
143
159
186
226
255
255
255
255
255
255
255
255
255
255
255
255
255
255
255
255
255
255
255
255
255
255
255
255
255
255
255
255
255
255
255
255
255
255
255
255
255
255
255
255
255
255
255
255
241
208
178
163
163
178
208
241
255
255
255
255
255
255
255
255
255
255
255
255
255
255
255
255
255
255
255
255
255
255
255
255
255
255
255
255
255
255
255
255
255
255
255
255
255
255
255
255
255
255
255
255
255
255
255
255
255
255
255
255
255
255
255
255
255
255
255
255
255
255
255
255
255
255
255
251
233
212
199
196
203
219
241
255
255
255
255
255
255
255
255
255
255
255
255
255
255
255
255
255
255
255
255
255
255
255
255
255
255
255
255
255
255
255
255
255
255
255
255
255
255
255
255
255
255
255
255
255
255
255
255
255
255
255
255
255
255
255
255
255
255
255
255
255
255
255
255
255
255
255
255
255
255
255
255
255
255
255
255
255
255
255
255
255
255
255
255
255
255
255
255
255
255
