#define freewpc_logo_2_width 128
#define freewpc_logo_2_height 32
static char freewpc_logo_2_bits[] = {
 0x00,0x00,0x00,0x00,0x00,0x00,0x00,0x00,0x00,0x00,0x00,0x00,0x00,0x00,0x00,
 0x00,0x00,0x00,0x00,0x00,0x00,0x00,0x00,0x00,0x00,0x00,0x00,0x00,0x00,0x00,
 0x00,0x00,0x00,0x00,0x00,0x00,0x00,0x00,0x00,0x00,0x00,0x00,0x00,0x00,0x00,
 0x00,0x00,0x00,0x00,0x00,0x00,0x00,0x00,0x00,0x00,0x00,0x00,0x00,0x00,0x00,
 0x00,0x00,0x00,0x00,0x00,0x00,0x00,0x00,0x00,0x00,0x00,0x00,0x00,0x00,0x00,
 0x00,0x00,0x00,0x00,0x00,0x00,0x00,0x00,0x00,0x00,0x00,0x00,0x00,0x00,0x00,
 0x00,0x00,0x00,0x00,0x00,0x00,0x00,0x00,0x00,0x00,0x00,0x00,0x00,0x00,0x00,
 0x00,0x00,0x00,0x00,0x00,0x00,0x00,0x00,0x00,0x00,0x00,0x00,0x00,0x00,0x00,
 0x00,0x00,0x00,0x00,0x00,0x80,0x01,0x00,0x00,0xe0,0xff,0xfd,0x1f,0xfe,0x9f,
 0xff,0xf7,0xc3,0xf1,0xff,0x0f,0xf8,0x1e,0x00,0x00,0x80,0x83,0x79,0x3c,0x3c,
 0x18,0x0f,0xe6,0xc1,0xc1,0x3c,0x1e,0x3c,0x18,0x00,0x00,0x80,0x83,0x79,0x78,
 0x3c,0x18,0x0f,0xc6,0xe1,0x41,0x3c,0x1c,0x1e,0x18,0x00,0x00,0x80,0x03,0x79,
 0x78,0x3c,0x10,0x0f,0xc4,0xe1,0x61,0x3c,0x3c,0x0e,0x10,0x00,0x00,0x80,0x03,
 0x78,0x78,0x3c,0x04,0x0f,0xc1,0xe1,0x63,0x3c,0x3c,0x0f,0x00,0x00,0x00,0x80,
 0x43,0x78,0x38,0x3c,0x04,0x0f,0xc1,0xa3,0x23,0x3c,0x3c,0x0f,0x00,0x00,0x00,
 0x80,0x43,0x78,0x1c,0xfc,0x07,0xff,0x81,0xb3,0x23,0x3c,0x1c,0x0f,0x00,0x00,
 0x00,0x80,0x7f,0xf8,0x07,0xfc,0x07,0xff,0x81,0xb3,0x33,0x3c,0x0e,0x0f,0x00,
 0x00,0x00,0x80,0x43,0x78,0x1e,0x3c,0x04,0x0f,0x81,0x93,0x37,0xfc,0x07,0x0f,
 0x00,0x00,0x00,0x80,0x43,0x78,0x3c,0x3c,0x04,0x0f,0x81,0x17,0x17,0x3c,0x00,
 0x0f,0x00,0x00,0x00,0x80,0x03,0x78,0x3c,0x3c,0x10,0x0f,0x04,0x1f,0x17,0x3c,
 0x00,0x0f,0x10,0x00,0x00,0x80,0x03,0x78,0x3c,0x3c,0x10,0x0f,0x04,0x1f,0x1f,
 0x3c,0x00,0x1e,0x10,0x00,0x00,0x80,0x03,0x78,0x38,0x3c,0x10,0x0f,0x04,0x0f,
 0x0f,0x3c,0x00,0x1e,0x18,0x00,0x00,0x80,0x03,0x78,0x78,0x3c,0x18,0x0f,0x06,
 0x0f,0x0e,0x3c,0x00,0x3c,0x18,0x00,0x00,0xe0,0x0f,0xfc,0xf1,0xfe,0x9f,0xff,
 0x07,0x0e,0x0e,0xfe,0x00,0xf0,0x1f,0x00,0x00,0x00,0x00,0x00,0x00,0x00,0x00,
 0x00,0x00,0x00,0x00,0x00,0x00,0x00,0x00,0x00,0x00,0x00,0x00,0x00,0x00,0x00,
 0x00,0x00,0x00,0x00,0x00,0x00,0x00,0x00,0x00,0x00,0x00,0x00,0x00,0x00,0x00,
 0x00,0x00,0x00,0x00,0x00,0x00,0x00,0x00,0x00,0x00,0x00,0x00,0x00,0x00,0x00,
 0x00,0x00,0x00,0x00,0x00,0x00,0x00,0x00,0x00,0x00,0x00,0x00,0x00,0x00,0x00,
 0x00,0x00,0x00,0x00,0x00,0x00,0x00,0x00,0x00,0x00,0x00,0x00,0x00,0x00,0x00,
 0x00,0x00,0x00,0x00,0x00,0x00,0x00,0x00,0x00,0x00,0x00,0x00,0x00,0x00,0x00,
 0x00,0x00,0x00,0x00,0x00,0x00,0x00,0x00,0x00,0x00,0x00,0x00,0x00,0x00,0x00,
 0x00,0x00,0x00,0x00,0x00,0x00,0x00,0x00,0x00,0x00,0x00,0x00,0x00,0x00,0x00,
 0x00,0x00,0x00,0x00,0x00,0x00,0x00,0x00,0x00,0x00,0x00,0x00,0x00,0x00,0x00,
 0x00,0x00};
