P2
# CREATOR: The GIMP's PNM Filter Version 1.0
128 32
255
104
56
56
104
56
104
161
238
238
238
238
238
238
238
238
238
238
238
161
161
161
161
161
161
161
161
161
238
238
238
238
238
238
238
238
238
238
238
104
104
104
104
104
104
104
104
104
104
161
238
238
238
238
238
238
238
238
238
238
238
238
238
238
238
238
238
238
238
238
238
161
104
104
104
104
104
104
104
104
104
104
104
104
161
104
104
104
104
161
104
238
238
238
238
238
238
238
238
238
238
238
238
238
161
161
104
104
161
104
161
104
161
161
238
238
238
238
238
238
238
238
238
238
238
238
238
238
238
104
56
104
104
104
56
104
161
104
161
238
238
238
238
238
238
238
238
161
104
161
104
104
104
104
161
161
161
238
238
238
238
238
238
238
238
161
161
161
104
104
104
104
104
104
104
104
104
161
104
161
161
161
238
238
238
238
238
238
238
238
238
238
238
238
238
238
238
238
238
161
56
104
104
104
104
104
104
104
104
104
104
104
104
104
161
104
104
161
104
238
238
238
238
238
238
238
238
238
238
238
238
238
161
104
161
104
161
104
161
104
104
104
238
238
238
238
238
238
238
238
238
238
238
238
238
238
238
104
56
104
104
104
104
104
104
104
104
161
238
238
238
238
238
238
238
161
104
161
104
161
161
104
104
161
104
161
161
238
238
238
238
238
104
104
104
104
104
104
56
104
56
104
56
104
104
104
104
104
104
104
104
161
238
238
238
238
238
238
238
238
238
238
238
238
238
238
238
104
104
104
104
104
104
104
104
104
104
104
104
104
104
104
104
104
104
104
104
238
238
238
238
238
238
238
238
238
238
238
238
238
161
104
104
104
104
161
161
104
161
104
238
238
238
238
238
238
238
238
238
238
238
238
238
238
238
56
56
104
104
104
104
56
56
104
104
161
238
238
238
238
238
238
238
161
104
161
104
161
104
161
161
104
161
161
161
238
238
238
238
238
161
104
104
104
104
104
104
104
104
104
104
104
104
104
104
104
104
104
104
238
238
238
238
238
238
238
238
238
238
238
238
238
238
238
238
104
56
104
104
104
104
104
104
161
104
104
104
104
104
104
104
104
104
161
104
238
238
238
238
238
238
238
238
238
238
238
238
238
104
104
104
161
104
104
161
104
104
104
238
238
238
238
238
238
238
238
238
238
238
238
238
238
238
104
56
104
104
104
104
56
104
104
104
161
238
238
238
238
238
238
238
161
104
161
104
161
104
161
104
161
104
161
161
238
238
238
238
161
161
104
104
104
104
161
104
104
104
104
104
104
104
161
104
104
104
104
104
161
238
238
238
238
238
238
238
238
238
238
238
238
238
104
104
104
104
56
104
104
104
104
104
104
104
104
104
104
161
104
161
104
161
104
104
104
238
238
238
238
238
238
238
238
238
238
238
161
161
104
104
104
161
104
161
104
161
104
238
238
238
238
238
238
238
238
238
238
238
238
238
238
238
56
56
104
104
104
56
104
56
104
104
161
238
238
238
238
238
238
238
104
161
104
104
161
104
104
161
104
161
161
161
161
161
161
161
161
161
161
161
104
104
104
104
104
104
104
161
104
104
104
104
104
104
104
104
161
238
238
238
238
238
238
238
238
238
238
238
238
161
104
104
56
104
104
104
104
104
104
104
104
104
104
104
104
104
104
104
104
104
161
104
104
161
238
238
238
238
238
238
238
238
238
238
161
104
104
104
104
104
161
104
104
104
104
238
238
238
238
238
238
238
238
238
238
238
238
238
238
238
104
56
104
104
104
56
56
56
104
104
161
238
238
238
238
238
238
238
161
104
161
104
161
104
161
104
161
104
161
161
161
161
161
161
161
161
161
104
161
104
161
104
104
161
104
104
104
161
104
161
104
104
104
104
161
238
238
238
238
238
238
104
161
104
161
238
238
238
104
56
104
56
56
104
56
104
104
104
104
161
104
104
104
161
104
104
104
161
104
104
104
161
238
238
238
238
238
238
238
238
238
238
161
161
104
104
161
104
104
161
104
104
104
238
238
238
238
161
238
238
161
238
238
161
238
238
238
238
56
56
56
104
104
104
56
104
104
56
161
238
238
238
238
238
238
238
161
104
161
104
161
104
161
104
161
104
161
161
161
161
161
161
161
161
161
104
104
161
104
104
104
104
104
104
104
104
104
104
104
161
104
104
104
238
238
238
161
161
104
104
161
104
161
238
238
161
104
104
104
104
104
56
104
104
104
104
104
104
104
104
104
104
104
104
104
104
104
104
104
161
238
238
238
238
238
238
238
238
238
238
161
104
104
104
161
161
104
161
161
104
104
238
238
238
238
238
238
238
238
238
238
238
161
238
238
238
104
56
104
104
104
56
56
104
104
104
161
238
238
238
238
238
238
238
104
161
104
161
104
161
104
104
104
161
104
56
104
104
161
104
161
161
104
104
56
104
104
104
104
104
104
104
104
104
104
104
104
104
104
104
161
238
238
238
161
104
104
104
104
104
161
161
161
161
104
104
104
56
104
104
104
56
104
104
104
104
104
104
104
104
161
104
104
161
104
104
104
104
238
238
238
238
238
238
238
238
238
238
161
161
104
104
161
104
161
104
104
104
104
238
238
238
238
238
238
238
238
238
238
238
238
238
161
238
104
56
56
104
104
56
56
56
104
104
161
238
238
238
238
238
238
238
161
104
104
161
104
104
161
104
104
104
104
104
104
56
104
104
161
161
104
56
104
104
104
104
104
104
104
104
104
104
104
104
104
104
104
104
104
104
104
161
104
104
104
104
104
104
104
104
104
104
56
104
56
104
104
104
104
104
104
104
104
104
104
104
104
104
104
104
104
104
161
104
104
104
238
238
238
238
238
238
238
238
238
238
161
161
104
104
104
161
104
104
104
104
104
238
238
161
238
238
161
238
161
238
161
238
238
238
238
238
56
56
56
104
104
56
104
56
104
56
161
238
238
238
238
238
238
161
161
104
161
104
161
104
161
104
104
104
104
104
104
104
56
104
104
161
104
56
56
104
104
104
104
104
104
104
104
104
104
104
56
104
104
104
104
104
104
104
104
104
104
104
104
104
104
56
104
104
104
104
104
104
56
104
104
56
104
104
104
104
104
104
104
104
104
104
104
104
161
104
104
161
238
238
238
238
161
238
238
238
238
238
161
104
104
104
104
104
161
104
104
104
104
238
238
238
238
161
238
104
104
238
238
238
161
238
238
238
56
56
56
104
104
56
104
56
104
104
161
161
56
104
104
238
238
238
161
104
104
161
104
104
104
104
104
56
104
104
104
104
104
104
104
104
56
56
56
104
104
104
161
104
104
104
104
104
104
104
104
104
104
104
104
104
104
104
56
104
56
104
56
104
56
104
56
56
104
56
104
104
104
104
104
56
104
104
104
104
104
104
161
104
104
104
104
104
104
104
104
104
161
238
238
238
238
238
161
238
238
161
161
104
104
104
161
104
104
161
104
104
104
104
161
104
104
104
104
56
104
56
161
161
161
56
161
238
56
56
56
56
56
56
56
104
104
104
104
104
104
104
104
104
104
56
56
104
104
104
104
104
104
104
104
104
104
104
104
104
104
56
56
104
56
104
104
56
104
56
104
161
104
104
104
104
104
104
104
104
104
104
104
104
104
104
104
56
56
104
56
104
56
56
104
104
104
104
56
104
104
104
104
104
104
104
56
104
104
104
104
104
104
161
104
161
104
104
104
161
238
238
238
238
238
238
238
238
161
161
104
104
104
104
104
104
104
104
104
104
104
56
56
56
56
56
56
56
56
104
56
161
104
56
56
104
56
56
104
104
104
56
104
56
104
104
104
104
104
104
161
104
56
104
104
104
104
56
104
104
104
104
104
104
104
56
56
104
104
104
104
104
104
104
104
104
104
104
56
104
104
104
104
104
104
56
104
56
104
56
104
104
56
104
104
56
104
104
56
104
104
104
104
104
104
56
104
104
56
104
104
56
104
104
104
104
104
104
104
104
104
104
104
104
104
104
104
104
238
238
161
238
238
238
238
161
104
104
104
104
161
104
161
104
161
104
104
104
104
104
104
104
56
104
104
56
104
56
56
56
104
56
56
56
56
104
56
104
56
56
104
104
56
104
104
104
104
104
104
104
104
104
104
104
104
104
104
56
104
104
104
104
104
104
104
104
104
104
104
104
104
104
104
104
104
104
104
104
104
56
104
104
104
104
104
104
104
56
104
104
56
104
56
104
104
56
104
104
56
104
104
104
104
104
104
104
56
104
104
56
104
104
56
104
104
104
161
104
104
104
104
104
104
104
104
104
238
238
238
238
238
161
238
161
104
104
104
104
104
104
161
104
104
104
104
104
104
104
104
104
104
104
104
104
104
56
56
56
56
56
56
104
56
104
104
104
104
56
104
104
104
104
104
104
104
104
104
104
104
104
104
104
104
104
104
104
104
104
104
104
104
104
104
104
104
104
104
104
104
104
104
104
104
104
104
56
104
104
104
56
104
104
56
104
104
104
104
104
56
104
104
104
104
104
56
104
104
56
104
104
104
104
104
104
104
104
104
56
104
104
104
104
104
104
104
104
104
104
104
104
104
104
104
104
238
238
238
238
238
238
238
161
104
104
104
104
104
104
104
161
161
104
104
104
104
104
104
104
104
104
104
104
56
56
56
56
56
56
56
56
56
56
104
104
56
56
56
104
104
104
104
104
56
104
104
56
104
104
56
104
104
56
104
56
104
104
56
104
56
104
104
56
104
104
104
104
104
104
104
104
104
104
56
104
56
104
56
104
104
56
104
104
104
104
104
104
104
104
56
104
104
104
104
104
56
104
104
104
104
104
104
104
104
104
104
56
104
56
104
104
104
104
104
104
104
104
104
161
104
104
104
104
238
161
161
104
161
238
238
161
104
104
104
104
104
161
104
104
104
161
104
104
104
104
104
56
104
104
104
56
56
56
56
56
56
56
56
56
56
56
56
104
56
56
56
104
104
104
104
104
104
104
104
104
104
104
104
104
104
104
104
104
104
104
104
104
104
104
104
104
56
56
56
104
56
104
56
56
56
56
56
56
56
104
104
56
104
104
104
56
104
104
104
104
56
104
56
104
56
104
56
104
104
104
104
104
104
104
104
104
56
104
104
56
104
104
104
56
104
104
104
104
104
104
104
104
104
104
104
104
238
104
104
104
104
104
161
104
104
104
104
104
104
161
104
161
104
104
104
104
56
104
104
56
56
56
56
56
56
56
56
56
56
56
56
56
56
56
56
56
56
56
56
56
104
104
56
104
104
104
104
104
56
104
56
104
56
104
104
56
104
104
104
104
56
104
56
104
104
104
104
104
104
56
104
104
104
104
56
104
56
56
104
104
104
56
104
104
104
56
104
104
104
104
104
56
104
104
56
104
56
104
104
104
104
104
104
104
104
104
104
56
104
56
104
104
104
104
104
104
104
104
104
104
104
104
104
104
161
104
56
56
56
56
104
56
104
56
56
56
104
104
104
104
161
104
104
56
56
56
56
56
56
56
56
56
56
56
56
56
56
56
56
56
56
56
56
56
56
56
56
56
104
104
104
104
104
56
104
104
104
104
104
104
104
56
104
104
104
56
104
104
104
104
104
56
104
104
56
104
104
104
104
104
104
104
56
56
104
56
104
104
104
56
104
56
104
104
104
104
104
104
104
104
56
104
56
104
104
56
56
56
56
104
56
56
56
56
104
104
104
104
104
104
56
104
56
104
104
104
104
104
104
104
104
104
104
104
56
104
56
56
56
56
56
56
104
56
104
104
104
104
104
104
104
104
56
104
56
104
104
104
56
56
56
56
56
56
56
56
56
56
56
56
56
56
56
56
56
56
104
104
104
104
56
104
104
56
104
104
104
104
104
104
104
56
104
104
104
104
104
104
104
104
104
56
104
56
104
104
104
56
104
104
56
56
56
56
104
161
104
104
56
104
56
104
56
56
104
56
56
104
104
104
56
56
56
56
56
56
56
56
104
56
56
56
56
56
56
104
56
56
56
56
104
56
104
56
104
104
104
104
56
104
104
56
56
56
56
104
56
104
56
104
104
56
104
56
56
56
104
56
104
56
56
56
56
56
56
56
56
56
56
56
56
56
56
56
56
56
56
56
56
56
56
56
56
104
104
56
104
104
56
104
104
104
104
56
104
56
104
56
104
104
56
104
56
104
56
104
104
56
104
104
104
104
104
104
104
104
104
56
104
56
56
56
104
56
104
104
56
104
56
104
104
56
104
104
104
104
104
56
56
56
56
56
56
56
56
56
56
56
56
56
56
56
56
56
104
56
56
56
56
56
56
56
56
56
104
56
56
56
56
56
56
56
56
56
56
56
56
104
56
56
56
56
104
56
56
56
56
104
56
104
56
56
56
56
56
56
56
56
56
56
56
56
56
56
56
56
104
56
56
56
56
104
104
104
104
56
104
56
104
56
104
104
56
104
104
104
104
104
104
104
56
104
104
56
104
104
56
104
161
104
56
104
104
104
104
104
56
56
104
56
56
56
104
56
56
104
56
104
56
104
56
56
56
104
56
56
56
56
56
56
56
56
56
56
56
56
56
56
56
56
56
56
56
56
56
104
56
56
56
104
56
56
104
56
56
56
56
56
104
56
56
56
56
56
56
56
56
56
56
56
56
56
104
56
56
56
56
56
56
56
56
56
56
56
56
56
56
56
56
56
56
56
56
104
56
104
56
56
56
104
104
104
104
56
104
56
104
56
104
104
104
56
104
56
104
56
104
56
104
56
104
104
56
104
104
104
104
104
104
104
56
104
104
56
56
56
56
56
56
56
56
56
56
56
56
56
104
56
104
56
104
56
104
56
56
56
56
56
56
56
56
56
56
56
56
56
56
56
56
104
56
56
56
56
56
104
56
104
56
56
56
56
56
56
56
56
56
56
56
56
56
56
56
56
56
56
56
56
56
56
56
56
56
56
56
56
56
56
56
56
56
56
56
56
56
56
56
56
56
56
56
104
56
104
56
56
104
104
104
56
56
104
56
104
56
104
56
104
56
56
104
104
104
56
104
56
56
104
56
104
104
56
104
56
104
104
56
104
56
104
104
56
56
56
56
56
56
56
56
56
56
56
56
56
56
56
56
56
56
56
56
104
56
56
56
56
56
56
56
56
56
56
56
56
56
56
56
56
56
56
56
56
56
56
56
56
56
104
56
56
56
56
56
56
56
56
56
56
56
56
56
56
56
56
56
56
56
56
56
56
56
56
56
56
56
56
56
56
56
56
56
56
56
56
56
56
56
56
56
104
56
104
56
56
56
56
104
104
56
56
56
56
56
104
56
56
104
56
56
56
104
56
56
56
56
56
56
56
56
56
56
104
56
56
104
104
104
104
104
56
56
56
56
56
56
56
56
56
56
56
56
56
56
56
56
56
56
56
56
56
56
56
56
56
56
56
56
56
56
56
56
56
56
56
56
56
56
56
56
56
56
56
56
56
56
56
56
56
56
56
56
56
56
56
56
56
56
56
56
56
56
56
56
56
56
56
56
56
56
56
56
56
56
56
56
56
56
56
56
56
56
56
56
56
56
56
56
56
56
104
56
56
104
104
56
56
56
56
56
104
56
56
56
56
56
56
56
56
56
56
56
56
104
56
56
56
104
56
56
104
104
104
104
56
104
56
56
56
56
56
56
56
56
56
56
56
56
56
56
56
104
56
56
56
56
56
56
56
56
56
56
56
56
56
56
56
56
56
56
56
56
56
56
56
56
56
56
56
56
56
56
56
104
56
56
56
56
56
56
56
56
56
56
56
56
56
56
56
56
56
56
56
56
56
56
56
56
56
56
56
56
56
56
56
56
56
56
56
56
56
56
56
56
56
104
56
104
56
104
56
56
56
56
56
56
56
56
56
56
56
56
56
56
56
56
56
104
56
56
56
56
104
56
56
104
56
56
104
56
56
104
104
56
56
56
56
56
56
56
56
56
56
56
56
56
56
56
56
56
56
56
56
56
56
56
56
56
56
56
56
56
56
56
56
56
56
56
56
56
56
56
56
56
56
56
56
56
56
56
56
56
56
56
56
56
56
56
56
56
56
56
56
56
56
56
56
56
56
56
56
56
56
56
56
56
56
56
56
56
56
56
56
56
56
56
56
56
56
56
56
56
56
56
56
104
56
56
56
56
56
104
56
56
104
56
56
56
56
56
56
56
56
56
56
56
56
56
56
56
56
56
56
56
56
56
56
56
104
56
56
56
56
56
56
56
56
56
56
56
56
56
56
56
56
56
56
56
56
104
56
56
56
56
56
56
56
56
56
56
56
56
56
56
56
56
56
56
56
56
56
56
56
56
56
56
56
56
56
56
56
56
56
56
56
56
56
56
56
56
56
56
56
56
56
56
56
56
56
56
56
56
56
56
56
56
56
56
56
56
56
56
56
56
56
56
56
56
56
56
56
56
56
56
56
104
56
56
56
56
56
56
56
56
56
56
56
56
56
56
56
56
56
56
56
56
56
56
56
56
56
56
56
56
104
104
104
104
104
56
56
56
56
56
56
56
56
56
56
56
56
56
56
56
56
56
56
56
56
56
56
56
56
56
56
56
56
56
56
56
56
56
56
56
56
56
56
56
56
56
56
56
56
56
56
56
56
56
56
56
56
56
56
56
56
56
56
56
56
56
56
56
56
56
56
56
56
56
56
56
56
56
56
56
56
56
56
56
56
56
56
56
56
56
56
56
56
56
56
56
104
56
56
56
56
56
56
56
56
56
56
56
56
56
56
56
56
56
56
56
56
56
56
56
56
56
56
56
56
56
56
104
56
104
56
104
56
56
56
56
56
56
56
56
56
56
56
56
56
56
56
56
56
56
56
56
56
56
56
56
56
56
56
56
56
56
56
56
56
56
56
56
56
56
56
56
56
56
56
56
56
56
56
56
56
56
56
56
56
56
56
56
56
56
56
56
56
56
56
56
56
56
56
56
56
56
56
56
56
56
56
56
56
56
56
56
56
56
56
56
56
56
56
56
56
56
56
238
238
238
238
238
238
238
238
238
238
238
238
238
238
238
238
238
238
238
238
238
238
238
238
238
238
238
238
238
238
238
238
238
238
238
238
238
238
238
238
238
238
238
238
238
238
238
238
238
238
238
238
238
238
238
238
238
238
238
238
238
238
238
238
238
238
238
238
238
238
238
238
238
238
238
238
238
238
238
238
238
238
238
238
238
238
238
238
238
238
238
238
238
238
238
238
238
238
238
238
238
238
238
238
238
238
238
238
238
238
238
238
238
238
238
238
238
238
238
238
238
238
238
238
238
238
238
238
