P2
# CREATOR: GIMP PNM Filter Version 1.1
128 32
255
255
255
255
255
255
255
255
255
255
255
255
255
255
255
255
255
255
255
255
255
255
255
255
255
255
255
255
255
255
255
253
233
183
130
64
19
19
30
64
147
214
223
196
181
149
109
59
30
24
48
115
116
143
193
212
212
235
255
255
255
255
255
255
255
255
255
255
255
255
255
255
255
255
255
255
254
246
241
239
242
244
245
249
255
255
255
255
255
255
255
252
243
251
255
255
255
255
255
255
255
255
255
255
255
255
255
255
255
255
255
255
255
255
255
255
255
255
255
255
255
255
255
255
255
255
255
255
255
255
255
255
255
255
255
255
255
255
255
255
255
255
255
255
255
255
255
255
255
255
255
255
255
255
255
228
230
255
223
85
41
197
135
37
31
99
153
242
133
37
14
14
14
14
15
14
14
15
14
14
14
14
14
96
233
255
255
255
255
255
255
255
254
217
189
169
163
170
193
253
242
245
252
255
248
214
194
195
214
238
253
255
255
255
255
255
255
255
255
252
150
135
197
252
253
255
255
255
255
255
255
255
255
255
255
255
255
255
255
255
255
255
255
255
255
255
255
255
255
255
255
255
255
255
255
255
255
255
255
255
255
255
255
255
255
255
255
255
255
255
255
255
255
255
255
255
255
248
214
193
214
233
205
225
211
213
223
174
182
140
107
142
214
255
242
116
53
57
41
14
15
15
14
14
14
14
15
14
14
14
54
169
255
255
255
255
255
255
255
255
255
251
213
196
222
251
249
253
255
255
255
255
255
255
255
255
255
234
206
216
246
255
255
255
255
255
255
255
251
229
170
108
93
132
178
242
255
255
255
255
255
255
236
221
229
248
247
248
254
255
255
255
255
255
255
255
255
255
255
255
255
255
255
255
255
255
255
255
255
255
255
255
255
255
255
255
255
255
255
255
255
255
255
255
255
169
130
163
173
142
180
227
215
196
201
199
176
151
129
160
216
252
255
255
255
255
248
157
22
15
14
15
14
14
14
15
19
102
150
206
255
255
255
255
255
255
255
255
255
255
255
252
255
255
255
255
255
255
255
255
255
255
255
166
125
187
255
255
221
231
237
240
208
139
67
14
14
14
14
14
28
93
84
142
162
161
162
178
255
255
255
214
190
230
232
255
255
255
255
255
255
255
255
255
255
255
255
255
255
255
255
255
255
255
255
255
255
255
255
255
211
118
42
45
99
119
143
191
233
243
219
205
182
209
245
224
126
39
40
57
178
236
166
116
215
137
109
90
52
23
66
186
245
255
255
248
184
20
14
14
14
14
17
23
21
119
215
255
255
255
251
245
252
255
255
255
255
255
255
240
185
109
70
125
208
241
252
254
254
255
246
216
219
233
246
215
52
122
65
16
24
42
14
14
14
14
15
14
14
14
14
15
15
15
14
16
46
15
16
15
14
14
14
37
70
111
164
215
241
212
183
218
227
230
252
255
255
255
255
255
255
255
255
255
255
255
255
181
100
38
14
14
14
14
14
14
14
21
15
14
14
14
14
20
41
61
57
41
37
30
18
14
22
56
163
243
255
204
53
52
90
196
255
253
201
16
14
14
19
88
197
243
250
255
227
170
159
230
255
255
255
255
255
255
255
240
104
25
17
30
24
14
40
131
196
178
103
52
36
32
27
20
14
18
46
88
47
21
15
14
15
15
14
14
14
14
14
14
14
14
14
14
15
14
14
14
14
14
15
15
14
14
14
14
14
14
14
15
14
14
40
75
91
141
255
255
255
255
255
255
255
255
255
255
242
232
121
29
14
14
14
14
14
14
14
14
15
15
15
14
14
15
14
14
14
14
15
14
20
64
184
192
203
220
190
121
125
94
212
255
255
255
242
126
26
75
199
255
255
255
255
255
220
194
214
255
255
242
251
255
255
241
150
43
14
56
137
127
14
20
21
31
23
14
14
14
15
15
14
14
15
14
14
14
14
15
14
14
14
14
14
14
14
14
14
14
14
14
14
14
14
14
14
14
15
14
14
14
14
14
14
32
47
27
14
14
31
116
222
255
255
250
255
255
255
255
255
255
255
255
255
255
255
255
211
126
63
92
237
255
255
206
142
82
24
14
14
15
14
14
14
14
14
14
14
14
53
208
253
255
255
221
109
14
34
190
182
225
255
255
255
255
255
255
255
255
255
255
255
255
255
255
255
255
255
251
234
240
255
226
81
88
19
97
208
210
104
53
30
17
14
14
14
14
14
14
14
14
14
14
14
14
14
14
14
14
14
14
14
14
14
14
14
14
14
14
14
14
14
15
15
14
16
42
100
159
163
159
206
202
147
153
255
255
255
255
255
255
255
255
255
255
255
255
255
255
255
255
255
255
255
241
244
247
246
246
255
255
255
255
255
255
215
49
16
14
15
14
14
14
14
14
14
14
15
19
40
100
206
218
115
14
14
14
14
55
168
255
255
255
255
255
255
255
255
255
255
255
255
255
255
255
246
192
123
185
255
255
239
171
183
190
122
34
14
14
14
14
15
14
14
14
14
14
14
14
14
14
14
14
14
14
14
14
14
14
14
14
14
14
14
14
14
14
14
14
14
14
14
14
133
229
255
255
255
255
199
63
106
247
243
255
255
255
255
255
255
255
255
255
255
255
255
255
255
255
255
255
251
255
255
255
255
255
255
255
255
255
255
255
248
229
109
29
14
15
14
14
14
14
14
14
15
14
14
14
44
70
47
14
15
34
74
102
118
170
255
255
255
255
255
255
255
255
255
255
255
255
255
253
229
241
175
137
114
65
14
14
14
14
14
14
15
14
14
14
14
15
15
14
14
14
15
14
14
14
14
14
14
14
14
14
14
14
14
14
14
14
14
14
14
14
14
14
14
15
15
15
14
65
168
223
255
255
223
231
252
255
255
255
251
254
255
255
255
255
255
255
255
255
255
255
255
255
255
255
255
255
255
255
255
255
255
255
255
255
255
255
255
255
255
126
23
14
14
14
14
14
14
14
14
19
78
131
71
27
23
18
18
67
168
242
232
190
206
255
255
255
255
255
255
255
255
255
255
255
255
255
255
255
194
68
14
14
14
16
33
21
14
14
16
29
62
95
55
14
15
26
63
23
15
18
16
14
14
14
14
14
14
14
14
14
14
14
14
14
14
14
14
14
14
14
15
14
14
14
70
176
241
236
247
243
254
255
255
255
255
255
255
255
255
255
255
255
255
255
255
255
255
255
255
255
255
255
255
255
255
255
255
255
255
255
255
255
255
255
255
255
245
82
14
15
14
14
14
14
14
14
15
14
14
35
31
33
23
25
137
242
252
252
255
255
255
255
255
255
255
255
255
255
255
255
255
255
255
255
238
59
31
15
71
202
234
181
143
133
71
14
37
202
195
195
176
93
14
34
194
62
14
14
15
14
14
14
14
14
14
14
14
14
14
14
14
14
14
14
14
15
14
14
14
21
121
227
255
209
181
231
255
255
255
255
255
255
255
255
255
255
255
255
255
255
255
255
255
255
255
255
255
255
255
255
255
255
255
255
255
255
255
255
255
255
255
255
255
255
255
174
57
14
15
14
14
14
14
14
14
15
15
14
15
14
61
215
255
255
255
255
255
255
255
255
255
255
255
255
255
255
255
255
255
255
255
255
246
139
117
175
209
180
175
244
211
235
223
208
230
92
71
40
15
14
14
22
126
63
22
14
14
14
14
14
14
14
14
14
14
14
14
14
14
14
14
14
14
14
61
163
190
102
255
243
149
109
173
255
255
255
255
255
255
255
255
255
255
255
255
255
255
255
255
255
255
255
255
255
255
255
255
255
255
255
255
255
255
255
255
255
255
255
255
255
255
255
255
255
212
99
19
14
14
15
15
14
14
14
14
16
14
99
217
255
255
255
251
253
255
255
255
255
255
255
255
255
255
255
255
255
255
255
255
255
246
92
15
14
14
14
14
109
199
232
221
209
221
236
244
87
14
14
15
14
14
14
14
15
14
14
14
14
14
14
14
14
14
14
14
14
14
14
14
14
14
14
44
160
255
245
128
131
174
225
255
255
255
255
255
255
255
255
255
255
255
255
255
255
255
255
255
255
255
255
255
255
255
255
255
255
255
255
255
255
255
255
255
255
255
255
255
255
255
255
255
255
255
237
174
118
23
14
14
42
126
205
210
253
149
171
255
255
255
255
255
255
255
255
255
255
255
255
255
255
255
255
255
255
255
246
239
224
61
18
14
15
14
15
14
14
15
16
16
15
15
17
86
69
29
14
16
51
202
104
27
14
14
14
14
15
15
14
14
14
14
14
14
14
14
14
14
15
15
14
35
151
255
254
247
254
255
255
255
255
255
255
255
255
255
255
255
255
255
255
255
255
255
255
255
255
255
255
255
255
255
255
255
255
255
255
255
247
245
255
255
255
255
255
255
255
255
255
255
255
255
255
253
234
157
34
14
87
229
255
255
255
202
173
195
232
251
255
255
255
255
255
255
255
255
255
255
255
255
255
255
255
255
255
190
23
14
14
15
14
14
14
14
14
14
14
14
14
14
15
14
134
102
21
14
16
55
57
104
187
235
198
126
31
14
14
14
14
34
64
18
14
15
14
14
21
74
142
210
247
253
249
255
255
255
255
255
255
255
255
255
255
255
255
255
255
255
255
255
255
255
255
255
255
255
255
255
255
255
255
255
255
255
255
255
255
247
229
255
255
255
255
255
255
255
255
255
255
255
255
255
255
255
210
111
67
103
128
26
201
255
247
229
230
206
239
249
251
253
255
255
255
255
255
255
255
255
255
255
252
255
234
138
14
14
14
14
14
14
14
14
14
14
14
14
14
14
14
14
36
160
153
14
14
23
62
172
246
255
255
255
162
40
14
67
176
255
255
144
53
14
17
85
255
255
255
241
235
248
255
255
255
255
255
255
253
255
255
255
255
255
255
254
255
255
255
255
255
255
255
255
255
255
255
255
255
255
255
255
255
255
255
255
255
255
255
255
255
255
255
255
255
255
255
255
255
255
255
255
255
255
255
255
255
255
247
158
22
156
255
255
253
249
236
252
231
232
255
255
255
255
255
255
255
255
255
255
247
252
237
146
14
14
14
15
15
14
14
15
15
14
14
14
14
14
15
15
14
21
87
177
200
255
249
252
255
255
255
255
255
74
95
213
255
255
249
255
196
96
23
30
142
247
255
246
194
176
255
255
255
255
255
253
248
255
255
255
255
255
254
252
255
255
255
255
255
255
255
255
255
255
255
255
255
255
255
255
255
255
255
255
255
255
255
255
255
255
255
255
255
255
255
255
255
255
255
255
255
255
255
255
255
255
255
255
241
216
197
135
35
21
23
30
70
168
255
255
255
255
255
255
255
255
255
255
255
255
255
248
179
19
14
14
14
14
14
14
14
15
14
14
14
14
14
14
15
14
16
21
48
220
254
255
255
255
255
255
246
229
204
220
255
255
254
250
235
223
218
224
246
255
255
255
223
186
221
255
242
251
252
251
255
247
238
251
255
255
255
255
250
255
255
255
255
255
255
255
255
255
255
255
255
255
255
255
255
255
255
255
255
255
255
255
255
255
255
255
255
255
255
255
255
255
255
255
255
255
255
255
255
255
255
253
255
255
221
111
14
15
15
15
14
14
14
83
246
255
255
255
255
255
255
255
255
255
255
255
255
251
220
219
244
255
227
151
20
14
15
14
14
14
14
14
15
14
14
65
199
254
255
255
255
255
255
255
246
253
255
255
255
255
255
255
194
157
196
255
229
157
32
137
250
252
250
255
255
255
255
255
251
255
255
255
255
253
252
255
253
255
255
255
255
255
255
255
255
255
255
255
255
255
255
255
255
255
255
255
255
255
255
255
255
255
255
255
255
255
255
255
255
255
255
255
255
255
255
255
255
254
246
240
253
255
133
14
15
14
14
14
14
14
17
42
122
104
175
232
250
255
255
255
255
255
255
255
255
255
255
255
255
253
254
246
54
15
14
15
14
14
14
14
14
32
140
255
255
255
255
255
255
255
255
255
255
255
255
255
255
255
255
255
255
169
112
192
194
44
89
136
187
236
240
230
183
178
206
237
250
244
246
253
255
255
254
249
255
234
246
255
255
255
255
255
255
255
255
255
255
255
255
255
255
255
255
255
255
255
255
255
255
255
255
255
255
255
255
255
255
255
255
255
255
255
255
255
255
255
255
255
255
255
158
30
14
14
14
14
14
15
14
14
14
14
14
14
68
203
255
255
255
255
255
255
255
255
255
255
255
255
255
254
215
49
14
14
14
14
14
14
14
114
233
255
255
255
251
254
255
255
255
255
255
255
255
255
255
255
255
255
255
255
251
226
186
200
224
232
233
233
232
240
250
205
109
64
120
187
245
245
233
242
255
255
255
255
244
248
255
255
255
255
255
255
255
255
255
255
255
255
255
255
255
255
255
255
255
255
255
255
255
255
255
255
255
255
255
255
255
255
255
255
255
255
255
255
255
255
255
255
244
148
14
14
14
15
14
14
14
14
14
14
14
54
164
255
255
255
255
255
255
255
255
255
255
255
255
255
255
255
252
63
14
14
14
14
15
15
14
83
195
246
228
250
255
255
255
255
255
255
255
255
255
255
255
255
255
255
255
255
255
255
255
255
255
254
250
251
246
195
112
215
255
232
237
242
250
255
253
250
251
255
255
255
255
255
255
253
243
255
255
255
255
255
255
255
255
255
255
255
255
255
255
255
254
246
252
255
255
255
255
255
255
255
255
255
255
255
255
255
255
255
255
255
255
255
255
255
255
255
212
67
18
14
14
14
14
15
15
14
14
113
240
255
255
255
255
255
255
255
255
255
255
255
255
255
255
253
201
45
14
15
14
14
14
14
38
164
255
180
26
233
249
252
255
255
255
255
255
255
255
255
255
255
255
255
255
255
255
255
255
255
255
255
193
74
14
14
14
94
103
60
101
255
255
255
255
255
249
236
255
255
243
247
255
254
255
255
255
255
255
255
255
255
255
255
255
255
255
255
255
255
255
255
255
255
251
251
254
249
251
255
255
255
255
255
255
255
255
255
255
255
255
255
255
255
255
255
246
167
25
14
14
14
15
14
14
37
142
229
255
255
255
255
255
255
255
255
255
255
255
255
255
255
255
255
255
87
17
14
14
14
15
14
192
255
212
117
120
250
255
254
255
255
255
255
255
255
255
255
255
255
255
255
255
255
255
255
255
240
105
36
19
14
15
15
15
14
14
14
21
80
238
255
255
255
252
248
255
255
255
255
254
252
255
255
255
255
255
255
255
255
255
255
255
255
255
255
255
255
255
255
255
255
255
255
255
255
254
252
254
255
255
255
251
255
252
254
255
255
255
255
255
255
255
255
241
138
23
14
14
15
14
21
131
250
255
255
255
255
255
255
255
255
255
255
255
255
255
255
255
255
255
255
255
207
69
14
15
14
14
162
243
255
251
245
249
255
255
255
255
255
255
255
255
255
255
255
255
255
255
255
255
255
255
255
255
232
55
14
15
14
14
14
14
15
15
15
14
15
96
229
255
255
255
255
255
255
255
255
255
255
255
255
255
255
255
255
255
255
255
255
255
255
255
255
255
255
255
255
255
255
255
255
255
255
255
255
255
255
255
255
255
255
255
255
255
255
255
255
255
255
255
255
236
105
21
14
14
17
41
114
255
255
255
255
255
255
255
255
255
255
255
255
255
255
255
255
255
255
255
255
255
255
138
38
29
62
170
249
255
255
255
255
255
255
255
255
255
255
255
255
255
255
255
255
255
255
255
255
255
255
255
255
255
255
111
34
31
60
107
120
62
37
21
14
14
19
154
242
255
255
255
255
255
255
255
255
255
255
255
255
255
255
255
255
255
255
255
255
255
255
255
255
255
255
255
255
255
255
255
255
255
255
255
255
255
255
255
255
255
255
255
255
255
255
255
255
255
255
255
255
208
15
14
14
14
89
221
255
255
255
255
255
255
255
255
255
255
255
255
255
255
255
255
255
255
255
255
255
255
255
253
250
249
254
255
255
255
255
255
255
255
255
255
255
255
255
255
255
255
255
255
255
255
255
255
255
255
255
255
255
255
255
251
247
250
254
255
255
254
254
147
27
14
80
243
255
255
255
255
255
255
183
212
247
255
255
255
255
255
255
255
255
255
255
255
255
255
255
255
255
255
255
255
255
255
255
255
255
255
255
255
255
255
255
255
255
255
255
255
255
255
255
255
255
255
255
255
245
166
14
14
139
239
255
255
255
255
255
255
255
255
255
255
255
255
255
255
255
255
255
255
255
255
255
255
255
255
255
255
255
255
255
255
255
255
255
255
255
255
255
255
255
255
255
255
255
255
255
255
255
255
255
255
255
255
255
255
255
255
255
255
255
255
255
255
255
255
255
255
248
217
236
254
255
255
255
255
254
228
191
214
246
255
255
255
255
255
255
255
255
255
255
255
255
255
255
255
255
255
255
255
255
255
255
255
255
255
255
255
255
255
255
255
255
255
255
255
255
255
255
255
255
255
255
255
236
143
14
86
226
255
255
255
255
255
255
255
255
255
255
255
255
255
255
255
255
255
255
255
255
255
255
255
255
255
255
255
255
255
255
255
255
255
255
255
255
255
255
255
255
255
255
255
255
255
255
255
255
255
255
255
255
255
255
255
255
255
255
255
255
255
255
255
255
255
255
255
255
255
255
255
255
255
255
254
223
125
243
255
255
255
255
255
255
255
255
255
255
255
255
255
255
255
255
255
255
255
255
255
255
255
255
255
255
255
255
255
255
255
255
255
255
255
255
255
255
255
255
255
255
255
255
255
227
116
15
186
249
255
253
255
255
255
255
255
255
255
255
255
255
255
255
255
255
255
255
255
255
255
255
255
255
255
255
255
255
255
255
255
255
255
255
255
255
255
255
255
255
255
255
252
235
254
255
255
255
255
255
255
255
255
255
255
255
255
255
255
255
255
255
255
255
255
255
255
255
255
255
255
255
255
255
253
248
255
255
255
255
255
255
255
255
255
255
255
255
255
255
255
255
255
255
255
255
255
255
255
255
255
255
255
255
255
255
255
255
255
255
255
255
255
255
255
255
255
255
255
255
255
255
255
252
229
188
203
242
248
248
255
255
255
255
255
249
246
254
255
255
255
255
255
255
255
255
255
255
255
255
255
255
255
255
255
255
255
255
255
255
255
255
255
255
255
255
255
255
255
255
255
255
253
255
255
255
255
255
255
255
255
255
255
255
255
255
255
255
255
255
255
255
255
255
255
255
255
255
255
255
255
255
255
255
255
255
255
255
255
255
255
255
255
255
255
255
